%TF.GenerationSoftware,KiCad,Pcbnew,(5.1.9)-1*%
%TF.CreationDate,2022-05-02T16:44:27-06:00*%
%TF.ProjectId,Resistor_Cali,52657369-7374-46f7-925f-43616c692e6b,rev?*%
%TF.SameCoordinates,Original*%
%TF.FileFunction,Legend,Top*%
%TF.FilePolarity,Positive*%
%FSLAX46Y46*%
G04 Gerber Fmt 4.6, Leading zero omitted, Abs format (unit mm)*
G04 Created by KiCad (PCBNEW (5.1.9)-1) date 2022-05-02 16:44:27*
%MOMM*%
%LPD*%
G01*
G04 APERTURE LIST*
%ADD10C,0.300000*%
%ADD11C,0.254000*%
%ADD12C,0.152000*%
%ADD13C,0.120000*%
%ADD14C,0.150000*%
G04 APERTURE END LIST*
D10*
X-29570000Y-28628571D02*
X-30070000Y-27914285D01*
X-30427142Y-28628571D02*
X-30427142Y-27128571D01*
X-29855714Y-27128571D01*
X-29712857Y-27200000D01*
X-29641428Y-27271428D01*
X-29570000Y-27414285D01*
X-29570000Y-27628571D01*
X-29641428Y-27771428D01*
X-29712857Y-27842857D01*
X-29855714Y-27914285D01*
X-30427142Y-27914285D01*
X-28355714Y-28557142D02*
X-28498571Y-28628571D01*
X-28784285Y-28628571D01*
X-28927142Y-28557142D01*
X-28998571Y-28414285D01*
X-28998571Y-27842857D01*
X-28927142Y-27700000D01*
X-28784285Y-27628571D01*
X-28498571Y-27628571D01*
X-28355714Y-27700000D01*
X-28284285Y-27842857D01*
X-28284285Y-27985714D01*
X-28998571Y-28128571D01*
X-27712857Y-28557142D02*
X-27570000Y-28628571D01*
X-27284285Y-28628571D01*
X-27141428Y-28557142D01*
X-27070000Y-28414285D01*
X-27070000Y-28342857D01*
X-27141428Y-28200000D01*
X-27284285Y-28128571D01*
X-27498571Y-28128571D01*
X-27641428Y-28057142D01*
X-27712857Y-27914285D01*
X-27712857Y-27842857D01*
X-27641428Y-27700000D01*
X-27498571Y-27628571D01*
X-27284285Y-27628571D01*
X-27141428Y-27700000D01*
X-26427142Y-28628571D02*
X-26427142Y-27628571D01*
X-26427142Y-27128571D02*
X-26498571Y-27200000D01*
X-26427142Y-27271428D01*
X-26355714Y-27200000D01*
X-26427142Y-27128571D01*
X-26427142Y-27271428D01*
X-25784285Y-28557142D02*
X-25641428Y-28628571D01*
X-25355714Y-28628571D01*
X-25212857Y-28557142D01*
X-25141428Y-28414285D01*
X-25141428Y-28342857D01*
X-25212857Y-28200000D01*
X-25355714Y-28128571D01*
X-25570000Y-28128571D01*
X-25712857Y-28057142D01*
X-25784285Y-27914285D01*
X-25784285Y-27842857D01*
X-25712857Y-27700000D01*
X-25570000Y-27628571D01*
X-25355714Y-27628571D01*
X-25212857Y-27700000D01*
X-24712857Y-27628571D02*
X-24141428Y-27628571D01*
X-24498571Y-27128571D02*
X-24498571Y-28414285D01*
X-24427142Y-28557142D01*
X-24284285Y-28628571D01*
X-24141428Y-28628571D01*
X-23427142Y-28628571D02*
X-23570000Y-28557142D01*
X-23641428Y-28485714D01*
X-23712857Y-28342857D01*
X-23712857Y-27914285D01*
X-23641428Y-27771428D01*
X-23570000Y-27700000D01*
X-23427142Y-27628571D01*
X-23212857Y-27628571D01*
X-23070000Y-27700000D01*
X-22998571Y-27771428D01*
X-22927142Y-27914285D01*
X-22927142Y-28342857D01*
X-22998571Y-28485714D01*
X-23070000Y-28557142D01*
X-23212857Y-28628571D01*
X-23427142Y-28628571D01*
X-22284285Y-28628571D02*
X-22284285Y-27628571D01*
X-22284285Y-27914285D02*
X-22212857Y-27771428D01*
X-22141428Y-27700000D01*
X-21998571Y-27628571D01*
X-21855714Y-27628571D01*
X-21070000Y-27128571D02*
X-20927142Y-27128571D01*
X-20784285Y-27200000D01*
X-20712857Y-27271428D01*
X-20641428Y-27414285D01*
X-20570000Y-27700000D01*
X-20570000Y-28057142D01*
X-20641428Y-28342857D01*
X-20712857Y-28485714D01*
X-20784285Y-28557142D01*
X-20927142Y-28628571D01*
X-21070000Y-28628571D01*
X-21212857Y-28557142D01*
X-21284285Y-28485714D01*
X-21355714Y-28342857D01*
X-21427142Y-28057142D01*
X-21427142Y-27700000D01*
X-21355714Y-27414285D01*
X-21284285Y-27271428D01*
X-21212857Y-27200000D01*
X-21070000Y-27128571D01*
X-19141428Y-28628571D02*
X-19998571Y-28628571D01*
X-19570000Y-28628571D02*
X-19570000Y-27128571D01*
X-19712857Y-27342857D01*
X-19855714Y-27485714D01*
X-19998571Y-27557142D01*
X-33677142Y-31178571D02*
X-34177142Y-30464285D01*
X-34534285Y-31178571D02*
X-34534285Y-29678571D01*
X-33962857Y-29678571D01*
X-33820000Y-29750000D01*
X-33748571Y-29821428D01*
X-33677142Y-29964285D01*
X-33677142Y-30178571D01*
X-33748571Y-30321428D01*
X-33820000Y-30392857D01*
X-33962857Y-30464285D01*
X-34534285Y-30464285D01*
X-33177142Y-30178571D02*
X-32820000Y-31178571D01*
X-32462857Y-30178571D02*
X-32820000Y-31178571D01*
X-32962857Y-31535714D01*
X-33034285Y-31607142D01*
X-33177142Y-31678571D01*
X-31248571Y-31178571D02*
X-31248571Y-30392857D01*
X-31320000Y-30250000D01*
X-31462857Y-30178571D01*
X-31748571Y-30178571D01*
X-31891428Y-30250000D01*
X-31248571Y-31107142D02*
X-31391428Y-31178571D01*
X-31748571Y-31178571D01*
X-31891428Y-31107142D01*
X-31962857Y-30964285D01*
X-31962857Y-30821428D01*
X-31891428Y-30678571D01*
X-31748571Y-30607142D01*
X-31391428Y-30607142D01*
X-31248571Y-30535714D01*
X-30534285Y-30178571D02*
X-30534285Y-31178571D01*
X-30534285Y-30321428D02*
X-30462857Y-30250000D01*
X-30320000Y-30178571D01*
X-30105714Y-30178571D01*
X-29962857Y-30250000D01*
X-29891428Y-30392857D01*
X-29891428Y-31178571D01*
X-28034285Y-31178571D02*
X-28034285Y-29678571D01*
X-27534285Y-30750000D01*
X-27034285Y-29678571D01*
X-27034285Y-31178571D01*
X-26105714Y-31178571D02*
X-26248571Y-31107142D01*
X-26320000Y-31035714D01*
X-26391428Y-30892857D01*
X-26391428Y-30464285D01*
X-26320000Y-30321428D01*
X-26248571Y-30250000D01*
X-26105714Y-30178571D01*
X-25891428Y-30178571D01*
X-25748571Y-30250000D01*
X-25677142Y-30321428D01*
X-25605714Y-30464285D01*
X-25605714Y-30892857D01*
X-25677142Y-31035714D01*
X-25748571Y-31107142D01*
X-25891428Y-31178571D01*
X-26105714Y-31178571D01*
X-24962857Y-31178571D02*
X-24962857Y-30178571D01*
X-24962857Y-30464285D02*
X-24891428Y-30321428D01*
X-24820000Y-30250000D01*
X-24677142Y-30178571D01*
X-24534285Y-30178571D01*
X-23391428Y-30178571D02*
X-23391428Y-31392857D01*
X-23462857Y-31535714D01*
X-23534285Y-31607142D01*
X-23677142Y-31678571D01*
X-23891428Y-31678571D01*
X-24034285Y-31607142D01*
X-23391428Y-31107142D02*
X-23534285Y-31178571D01*
X-23820000Y-31178571D01*
X-23962857Y-31107142D01*
X-24034285Y-31035714D01*
X-24105714Y-30892857D01*
X-24105714Y-30464285D01*
X-24034285Y-30321428D01*
X-23962857Y-30250000D01*
X-23820000Y-30178571D01*
X-23534285Y-30178571D01*
X-23391428Y-30250000D01*
X-22105714Y-31107142D02*
X-22248571Y-31178571D01*
X-22534285Y-31178571D01*
X-22677142Y-31107142D01*
X-22748571Y-30964285D01*
X-22748571Y-30392857D01*
X-22677142Y-30250000D01*
X-22534285Y-30178571D01*
X-22248571Y-30178571D01*
X-22105714Y-30250000D01*
X-22034285Y-30392857D01*
X-22034285Y-30535714D01*
X-22748571Y-30678571D01*
X-21391428Y-30178571D02*
X-21391428Y-31178571D01*
X-21391428Y-30321428D02*
X-21320000Y-30250000D01*
X-21177142Y-30178571D01*
X-20962857Y-30178571D01*
X-20820000Y-30250000D01*
X-20748571Y-30392857D01*
X-20748571Y-31178571D01*
X-20105714Y-31107142D02*
X-19962857Y-31178571D01*
X-19677142Y-31178571D01*
X-19534285Y-31107142D01*
X-19462857Y-30964285D01*
X-19462857Y-30892857D01*
X-19534285Y-30750000D01*
X-19677142Y-30678571D01*
X-19891428Y-30678571D01*
X-20034285Y-30607142D01*
X-20105714Y-30464285D01*
X-20105714Y-30392857D01*
X-20034285Y-30250000D01*
X-19891428Y-30178571D01*
X-19677142Y-30178571D01*
X-19534285Y-30250000D01*
X-19034285Y-30178571D02*
X-18462857Y-30178571D01*
X-18820000Y-29678571D02*
X-18820000Y-30964285D01*
X-18748571Y-31107142D01*
X-18605714Y-31178571D01*
X-18462857Y-31178571D01*
X-17391428Y-31107142D02*
X-17534285Y-31178571D01*
X-17820000Y-31178571D01*
X-17962857Y-31107142D01*
X-18034285Y-30964285D01*
X-18034285Y-30392857D01*
X-17962857Y-30250000D01*
X-17820000Y-30178571D01*
X-17534285Y-30178571D01*
X-17391428Y-30250000D01*
X-17320000Y-30392857D01*
X-17320000Y-30535714D01*
X-18034285Y-30678571D01*
X-16677142Y-31178571D02*
X-16677142Y-30178571D01*
X-16677142Y-30464285D02*
X-16605714Y-30321428D01*
X-16534285Y-30250000D01*
X-16391428Y-30178571D01*
X-16248571Y-30178571D01*
X-15748571Y-30178571D02*
X-15748571Y-31178571D01*
X-15748571Y-30321428D02*
X-15677142Y-30250000D01*
X-15534285Y-30178571D01*
X-15320000Y-30178571D01*
X-15177142Y-30250000D01*
X-15105714Y-30392857D01*
X-15105714Y-31178571D01*
X-29605714Y-32228571D02*
X-30320000Y-32228571D01*
X-30391428Y-32942857D01*
X-30320000Y-32871428D01*
X-30177142Y-32800000D01*
X-29820000Y-32800000D01*
X-29677142Y-32871428D01*
X-29605714Y-32942857D01*
X-29534285Y-33085714D01*
X-29534285Y-33442857D01*
X-29605714Y-33585714D01*
X-29677142Y-33657142D01*
X-29820000Y-33728571D01*
X-30177142Y-33728571D01*
X-30320000Y-33657142D01*
X-30391428Y-33585714D01*
X-27820000Y-32157142D02*
X-29105714Y-34085714D01*
X-27391428Y-32371428D02*
X-27320000Y-32300000D01*
X-27177142Y-32228571D01*
X-26820000Y-32228571D01*
X-26677142Y-32300000D01*
X-26605714Y-32371428D01*
X-26534285Y-32514285D01*
X-26534285Y-32657142D01*
X-26605714Y-32871428D01*
X-27462857Y-33728571D01*
X-26534285Y-33728571D01*
X-24820000Y-32157142D02*
X-26105714Y-34085714D01*
X-24391428Y-32371428D02*
X-24320000Y-32300000D01*
X-24177142Y-32228571D01*
X-23820000Y-32228571D01*
X-23677142Y-32300000D01*
X-23605714Y-32371428D01*
X-23534285Y-32514285D01*
X-23534285Y-32657142D01*
X-23605714Y-32871428D01*
X-24462857Y-33728571D01*
X-23534285Y-33728571D01*
X-22605714Y-32228571D02*
X-22462857Y-32228571D01*
X-22320000Y-32300000D01*
X-22248571Y-32371428D01*
X-22177142Y-32514285D01*
X-22105714Y-32800000D01*
X-22105714Y-33157142D01*
X-22177142Y-33442857D01*
X-22248571Y-33585714D01*
X-22320000Y-33657142D01*
X-22462857Y-33728571D01*
X-22605714Y-33728571D01*
X-22748571Y-33657142D01*
X-22820000Y-33585714D01*
X-22891428Y-33442857D01*
X-22962857Y-33157142D01*
X-22962857Y-32800000D01*
X-22891428Y-32514285D01*
X-22820000Y-32371428D01*
X-22748571Y-32300000D01*
X-22605714Y-32228571D01*
X-21534285Y-32371428D02*
X-21462857Y-32300000D01*
X-21320000Y-32228571D01*
X-20962857Y-32228571D01*
X-20820000Y-32300000D01*
X-20748571Y-32371428D01*
X-20677142Y-32514285D01*
X-20677142Y-32657142D01*
X-20748571Y-32871428D01*
X-21605714Y-33728571D01*
X-20677142Y-33728571D01*
X-19248571Y-33728571D02*
X-20105714Y-33728571D01*
X-19677142Y-33728571D02*
X-19677142Y-32228571D01*
X-19820000Y-32442857D01*
X-19962857Y-32585714D01*
X-20105714Y-32657142D01*
D11*
%TO.C,J1*%
X-12628000Y7276000D02*
X-12628000Y4644000D01*
X-8264000Y9008000D02*
X-10896000Y9008000D01*
X-6532000Y4644000D02*
X-6532000Y7276000D01*
X-10896000Y2912000D02*
X-8264000Y2912000D01*
D12*
%TO.C,U16*%
X-54026000Y6604000D02*
X-54026000Y10546000D01*
X-54026000Y10546000D02*
X-49974000Y10546000D01*
X-49974000Y10546000D02*
X-49974000Y6604000D01*
X-49974000Y6604000D02*
X-54026000Y6604000D01*
D10*
X-53120000Y7356000D02*
G75*
G03*
X-53120000Y7356000I-150000J0D01*
G01*
X-54009000Y5400000D02*
G75*
G03*
X-54009000Y5400000I-150000J0D01*
G01*
D12*
%TO.C,U15*%
X-49026000Y6604000D02*
X-49026000Y10546000D01*
X-49026000Y10546000D02*
X-44974000Y10546000D01*
X-44974000Y10546000D02*
X-44974000Y6604000D01*
X-44974000Y6604000D02*
X-49026000Y6604000D01*
D10*
X-48120000Y7356000D02*
G75*
G03*
X-48120000Y7356000I-150000J0D01*
G01*
X-49009000Y5400000D02*
G75*
G03*
X-49009000Y5400000I-150000J0D01*
G01*
D12*
%TO.C,U7*%
X-28849000Y-8879000D02*
X-28849000Y-12821000D01*
X-28849000Y-12821000D02*
X-32901000Y-12821000D01*
X-32901000Y-12821000D02*
X-32901000Y-8879000D01*
X-32901000Y-8879000D02*
X-28849000Y-8879000D01*
D10*
X-29455000Y-9631000D02*
G75*
G03*
X-29455000Y-9631000I-150000J0D01*
G01*
X-28566000Y-7675000D02*
G75*
G03*
X-28566000Y-7675000I-150000J0D01*
G01*
D12*
%TO.C,U14*%
X-44026000Y6604000D02*
X-44026000Y10546000D01*
X-44026000Y10546000D02*
X-39974000Y10546000D01*
X-39974000Y10546000D02*
X-39974000Y6604000D01*
X-39974000Y6604000D02*
X-44026000Y6604000D01*
D10*
X-43120000Y7356000D02*
G75*
G03*
X-43120000Y7356000I-150000J0D01*
G01*
X-44009000Y5400000D02*
G75*
G03*
X-44009000Y5400000I-150000J0D01*
G01*
D12*
%TO.C,U6*%
X-23849000Y-8879000D02*
X-23849000Y-12821000D01*
X-23849000Y-12821000D02*
X-27901000Y-12821000D01*
X-27901000Y-12821000D02*
X-27901000Y-8879000D01*
X-27901000Y-8879000D02*
X-23849000Y-8879000D01*
D10*
X-24455000Y-9631000D02*
G75*
G03*
X-24455000Y-9631000I-150000J0D01*
G01*
X-23566000Y-7675000D02*
G75*
G03*
X-23566000Y-7675000I-150000J0D01*
G01*
D12*
%TO.C,U13*%
X-39026000Y6604000D02*
X-39026000Y10546000D01*
X-39026000Y10546000D02*
X-34974000Y10546000D01*
X-34974000Y10546000D02*
X-34974000Y6604000D01*
X-34974000Y6604000D02*
X-39026000Y6604000D01*
D10*
X-38120000Y7356000D02*
G75*
G03*
X-38120000Y7356000I-150000J0D01*
G01*
X-39009000Y5400000D02*
G75*
G03*
X-39009000Y5400000I-150000J0D01*
G01*
D12*
%TO.C,U18*%
X-42499000Y-26329000D02*
X-42499000Y-30271000D01*
X-42499000Y-30271000D02*
X-46551000Y-30271000D01*
X-46551000Y-30271000D02*
X-46551000Y-26329000D01*
X-46551000Y-26329000D02*
X-42499000Y-26329000D01*
D10*
X-43105000Y-27081000D02*
G75*
G03*
X-43105000Y-27081000I-150000J0D01*
G01*
X-42216000Y-25125000D02*
G75*
G03*
X-42216000Y-25125000I-150000J0D01*
G01*
D12*
%TO.C,U5*%
X-18849000Y-9354000D02*
X-18849000Y-13296000D01*
X-18849000Y-13296000D02*
X-22901000Y-13296000D01*
X-22901000Y-13296000D02*
X-22901000Y-9354000D01*
X-22901000Y-9354000D02*
X-18849000Y-9354000D01*
D10*
X-19455000Y-10106000D02*
G75*
G03*
X-19455000Y-10106000I-150000J0D01*
G01*
X-18566000Y-8150000D02*
G75*
G03*
X-18566000Y-8150000I-150000J0D01*
G01*
D12*
%TO.C,U12*%
X-34026000Y6604000D02*
X-34026000Y10546000D01*
X-34026000Y10546000D02*
X-29974000Y10546000D01*
X-29974000Y10546000D02*
X-29974000Y6604000D01*
X-29974000Y6604000D02*
X-34026000Y6604000D01*
D10*
X-33120000Y7356000D02*
G75*
G03*
X-33120000Y7356000I-150000J0D01*
G01*
X-34009000Y5400000D02*
G75*
G03*
X-34009000Y5400000I-150000J0D01*
G01*
D12*
%TO.C,U4*%
X-13849000Y-9354000D02*
X-13849000Y-13296000D01*
X-13849000Y-13296000D02*
X-17901000Y-13296000D01*
X-17901000Y-13296000D02*
X-17901000Y-9354000D01*
X-17901000Y-9354000D02*
X-13849000Y-9354000D01*
D10*
X-14455000Y-10106000D02*
G75*
G03*
X-14455000Y-10106000I-150000J0D01*
G01*
X-13566000Y-8150000D02*
G75*
G03*
X-13566000Y-8150000I-150000J0D01*
G01*
D12*
%TO.C,U17*%
X-47499000Y-26329000D02*
X-47499000Y-30271000D01*
X-47499000Y-30271000D02*
X-51551000Y-30271000D01*
X-51551000Y-30271000D02*
X-51551000Y-26329000D01*
X-51551000Y-26329000D02*
X-47499000Y-26329000D01*
D10*
X-48105000Y-27081000D02*
G75*
G03*
X-48105000Y-27081000I-150000J0D01*
G01*
X-47216000Y-25125000D02*
G75*
G03*
X-47216000Y-25125000I-150000J0D01*
G01*
D12*
%TO.C,U11*%
X-29026000Y6604000D02*
X-29026000Y10546000D01*
X-29026000Y10546000D02*
X-24974000Y10546000D01*
X-24974000Y10546000D02*
X-24974000Y6604000D01*
X-24974000Y6604000D02*
X-29026000Y6604000D01*
D10*
X-28120000Y7356000D02*
G75*
G03*
X-28120000Y7356000I-150000J0D01*
G01*
X-29009000Y5400000D02*
G75*
G03*
X-29009000Y5400000I-150000J0D01*
G01*
D12*
%TO.C,U3*%
X-8849000Y-9354000D02*
X-8849000Y-13296000D01*
X-8849000Y-13296000D02*
X-12901000Y-13296000D01*
X-12901000Y-13296000D02*
X-12901000Y-9354000D01*
X-12901000Y-9354000D02*
X-8849000Y-9354000D01*
D10*
X-9455000Y-10106000D02*
G75*
G03*
X-9455000Y-10106000I-150000J0D01*
G01*
X-8566000Y-8150000D02*
G75*
G03*
X-8566000Y-8150000I-150000J0D01*
G01*
D12*
%TO.C,U10*%
X-24026000Y6604000D02*
X-24026000Y10546000D01*
X-24026000Y10546000D02*
X-19974000Y10546000D01*
X-19974000Y10546000D02*
X-19974000Y6604000D01*
X-19974000Y6604000D02*
X-24026000Y6604000D01*
D10*
X-23120000Y7356000D02*
G75*
G03*
X-23120000Y7356000I-150000J0D01*
G01*
X-24009000Y5400000D02*
G75*
G03*
X-24009000Y5400000I-150000J0D01*
G01*
D12*
%TO.C,U9*%
X-19026000Y6604000D02*
X-19026000Y10546000D01*
X-19026000Y10546000D02*
X-14974000Y10546000D01*
X-14974000Y10546000D02*
X-14974000Y6604000D01*
X-14974000Y6604000D02*
X-19026000Y6604000D01*
D10*
X-18120000Y7356000D02*
G75*
G03*
X-18120000Y7356000I-150000J0D01*
G01*
X-19009000Y5400000D02*
G75*
G03*
X-19009000Y5400000I-150000J0D01*
G01*
D12*
%TO.C,U2*%
X-3849000Y-9354000D02*
X-3849000Y-13296000D01*
X-3849000Y-13296000D02*
X-7901000Y-13296000D01*
X-7901000Y-13296000D02*
X-7901000Y-9354000D01*
X-7901000Y-9354000D02*
X-3849000Y-9354000D01*
D10*
X-4455000Y-10106000D02*
G75*
G03*
X-4455000Y-10106000I-150000J0D01*
G01*
X-3566000Y-8150000D02*
G75*
G03*
X-3566000Y-8150000I-150000J0D01*
G01*
D12*
%TO.C,U8*%
X-33849000Y-8879000D02*
X-33849000Y-12821000D01*
X-33849000Y-12821000D02*
X-37901000Y-12821000D01*
X-37901000Y-12821000D02*
X-37901000Y-8879000D01*
X-37901000Y-8879000D02*
X-33849000Y-8879000D01*
D10*
X-34455000Y-9631000D02*
G75*
G03*
X-34455000Y-9631000I-150000J0D01*
G01*
X-33566000Y-7675000D02*
G75*
G03*
X-33566000Y-7675000I-150000J0D01*
G01*
D12*
%TO.C,U1*%
X1151000Y-9354000D02*
X1151000Y-13296000D01*
X1151000Y-13296000D02*
X-2901000Y-13296000D01*
X-2901000Y-13296000D02*
X-2901000Y-9354000D01*
X-2901000Y-9354000D02*
X1151000Y-9354000D01*
D10*
X545000Y-10106000D02*
G75*
G03*
X545000Y-10106000I-150000J0D01*
G01*
X1434000Y-8150000D02*
G75*
G03*
X1434000Y-8150000I-150000J0D01*
G01*
D12*
%TO.C,R25*%
X-47624000Y2201000D02*
X-47624000Y3160000D01*
X-47624000Y3160000D02*
X-48946000Y3160000D01*
X-48946000Y3160000D02*
X-48946000Y2201000D01*
X-47624000Y1349000D02*
X-47624000Y390000D01*
X-47624000Y390000D02*
X-48946000Y390000D01*
X-48946000Y390000D02*
X-48946000Y1349000D01*
%TO.C,R32*%
X-56467000Y8474000D02*
X-56467000Y7189000D01*
X-56467000Y7189000D02*
X-54633000Y7189000D01*
X-54633000Y7189000D02*
X-54633000Y8474000D01*
X-56467000Y9426000D02*
X-56467000Y10711000D01*
X-56467000Y10711000D02*
X-54633000Y10711000D01*
X-54633000Y10711000D02*
X-54633000Y9426000D01*
%TO.C,R24*%
X-45084000Y2201000D02*
X-45084000Y3160000D01*
X-45084000Y3160000D02*
X-46406000Y3160000D01*
X-46406000Y3160000D02*
X-46406000Y2201000D01*
X-45084000Y1349000D02*
X-45084000Y390000D01*
X-45084000Y390000D02*
X-46406000Y390000D01*
X-46406000Y390000D02*
X-46406000Y1349000D01*
%TO.C,R7*%
X-20981000Y-5296000D02*
X-20981000Y-6255000D01*
X-20981000Y-6255000D02*
X-19659000Y-6255000D01*
X-19659000Y-6255000D02*
X-19659000Y-5296000D01*
X-20981000Y-4444000D02*
X-20981000Y-3485000D01*
X-20981000Y-3485000D02*
X-19659000Y-3485000D01*
X-19659000Y-3485000D02*
X-19659000Y-4444000D01*
%TO.C,R31*%
X-58977000Y8474000D02*
X-58977000Y7189000D01*
X-58977000Y7189000D02*
X-57143000Y7189000D01*
X-57143000Y7189000D02*
X-57143000Y8474000D01*
X-58977000Y9426000D02*
X-58977000Y10711000D01*
X-58977000Y10711000D02*
X-57143000Y10711000D01*
X-57143000Y10711000D02*
X-57143000Y9426000D01*
%TO.C,R14*%
X-33586000Y-15163000D02*
X-34871000Y-15163000D01*
X-34871000Y-15163000D02*
X-34871000Y-16997000D01*
X-34871000Y-16997000D02*
X-33586000Y-16997000D01*
X-32634000Y-15163000D02*
X-31349000Y-15163000D01*
X-31349000Y-15163000D02*
X-31349000Y-16997000D01*
X-31349000Y-16997000D02*
X-32634000Y-16997000D01*
%TO.C,R23*%
X-40004000Y2201000D02*
X-40004000Y3160000D01*
X-40004000Y3160000D02*
X-41326000Y3160000D01*
X-41326000Y3160000D02*
X-41326000Y2201000D01*
X-40004000Y1349000D02*
X-40004000Y390000D01*
X-40004000Y390000D02*
X-41326000Y390000D01*
X-41326000Y390000D02*
X-41326000Y1349000D01*
%TO.C,R6*%
X-16426000Y-3689000D02*
X-17385000Y-3689000D01*
X-17385000Y-3689000D02*
X-17385000Y-5011000D01*
X-17385000Y-5011000D02*
X-16426000Y-5011000D01*
X-15574000Y-3689000D02*
X-14615000Y-3689000D01*
X-14615000Y-3689000D02*
X-14615000Y-5011000D01*
X-14615000Y-5011000D02*
X-15574000Y-5011000D01*
%TO.C,R30*%
X-41905400Y14286000D02*
X-42864400Y14286000D01*
X-42864400Y14286000D02*
X-42864400Y12964000D01*
X-42864400Y12964000D02*
X-41905400Y12964000D01*
X-41053400Y14286000D02*
X-40094400Y14286000D01*
X-40094400Y14286000D02*
X-40094400Y12964000D01*
X-40094400Y12964000D02*
X-41053400Y12964000D01*
%TO.C,R13*%
X-28596000Y-15143000D02*
X-29881000Y-15143000D01*
X-29881000Y-15143000D02*
X-29881000Y-16977000D01*
X-29881000Y-16977000D02*
X-28596000Y-16977000D01*
X-27644000Y-15143000D02*
X-26359000Y-15143000D01*
X-26359000Y-15143000D02*
X-26359000Y-16977000D01*
X-26359000Y-16977000D02*
X-27644000Y-16977000D01*
%TO.C,R22*%
X-37464000Y2201000D02*
X-37464000Y3160000D01*
X-37464000Y3160000D02*
X-38786000Y3160000D01*
X-38786000Y3160000D02*
X-38786000Y2201000D01*
X-37464000Y1349000D02*
X-37464000Y390000D01*
X-37464000Y390000D02*
X-38786000Y390000D01*
X-38786000Y390000D02*
X-38786000Y1349000D01*
%TO.C,R34*%
X-46406000Y-22756000D02*
X-46406000Y-23715000D01*
X-46406000Y-23715000D02*
X-45084000Y-23715000D01*
X-45084000Y-23715000D02*
X-45084000Y-22756000D01*
X-46406000Y-21904000D02*
X-46406000Y-20945000D01*
X-46406000Y-20945000D02*
X-45084000Y-20945000D01*
X-45084000Y-20945000D02*
X-45084000Y-21904000D01*
%TO.C,R29*%
X-36850800Y14290000D02*
X-37809800Y14290000D01*
X-37809800Y14290000D02*
X-37809800Y12968000D01*
X-37809800Y12968000D02*
X-36850800Y12968000D01*
X-35998800Y14290000D02*
X-35039800Y14290000D01*
X-35039800Y14290000D02*
X-35039800Y12968000D01*
X-35039800Y12968000D02*
X-35998800Y12968000D01*
%TO.C,R5*%
X-13386000Y-5226000D02*
X-13386000Y-6185000D01*
X-13386000Y-6185000D02*
X-12064000Y-6185000D01*
X-12064000Y-6185000D02*
X-12064000Y-5226000D01*
X-13386000Y-4374000D02*
X-13386000Y-3415000D01*
X-13386000Y-3415000D02*
X-12064000Y-3415000D01*
X-12064000Y-3415000D02*
X-12064000Y-4374000D01*
%TO.C,R36*%
X-46951000Y-32789000D02*
X-47910000Y-32789000D01*
X-47910000Y-32789000D02*
X-47910000Y-34111000D01*
X-47910000Y-34111000D02*
X-46951000Y-34111000D01*
X-46099000Y-32789000D02*
X-45140000Y-32789000D01*
X-45140000Y-32789000D02*
X-45140000Y-34111000D01*
X-45140000Y-34111000D02*
X-46099000Y-34111000D01*
%TO.C,R12*%
X-23351000Y-15539000D02*
X-24310000Y-15539000D01*
X-24310000Y-15539000D02*
X-24310000Y-16861000D01*
X-24310000Y-16861000D02*
X-23351000Y-16861000D01*
X-22499000Y-15539000D02*
X-21540000Y-15539000D01*
X-21540000Y-15539000D02*
X-21540000Y-16861000D01*
X-21540000Y-16861000D02*
X-22499000Y-16861000D01*
%TO.C,R21*%
X-34924000Y2201000D02*
X-34924000Y3160000D01*
X-34924000Y3160000D02*
X-36246000Y3160000D01*
X-36246000Y3160000D02*
X-36246000Y2201000D01*
X-34924000Y1349000D02*
X-34924000Y390000D01*
X-34924000Y390000D02*
X-36246000Y390000D01*
X-36246000Y390000D02*
X-36246000Y1349000D01*
%TO.C,R28*%
X-31847000Y14290000D02*
X-32806000Y14290000D01*
X-32806000Y14290000D02*
X-32806000Y12968000D01*
X-32806000Y12968000D02*
X-31847000Y12968000D01*
X-30995000Y14290000D02*
X-30036000Y14290000D01*
X-30036000Y14290000D02*
X-30036000Y12968000D01*
X-30036000Y12968000D02*
X-30995000Y12968000D01*
%TO.C,R4*%
X-10846000Y-5226000D02*
X-10846000Y-6185000D01*
X-10846000Y-6185000D02*
X-9524000Y-6185000D01*
X-9524000Y-6185000D02*
X-9524000Y-5226000D01*
X-10846000Y-4374000D02*
X-10846000Y-3415000D01*
X-10846000Y-3415000D02*
X-9524000Y-3415000D01*
X-9524000Y-3415000D02*
X-9524000Y-4374000D01*
%TO.C,R33*%
X-48946000Y-22756000D02*
X-48946000Y-23715000D01*
X-48946000Y-23715000D02*
X-47624000Y-23715000D01*
X-47624000Y-23715000D02*
X-47624000Y-22756000D01*
X-48946000Y-21904000D02*
X-48946000Y-20945000D01*
X-48946000Y-20945000D02*
X-47624000Y-20945000D01*
X-47624000Y-20945000D02*
X-47624000Y-21904000D01*
%TO.C,R11*%
X-18326000Y-15539000D02*
X-19285000Y-15539000D01*
X-19285000Y-15539000D02*
X-19285000Y-16861000D01*
X-19285000Y-16861000D02*
X-18326000Y-16861000D01*
X-17474000Y-15539000D02*
X-16515000Y-15539000D01*
X-16515000Y-15539000D02*
X-16515000Y-16861000D01*
X-16515000Y-16861000D02*
X-17474000Y-16861000D01*
%TO.C,R35*%
X-54407000Y-30936000D02*
X-54407000Y-32221000D01*
X-54407000Y-32221000D02*
X-52573000Y-32221000D01*
X-52573000Y-32221000D02*
X-52573000Y-30936000D01*
X-54407000Y-29984000D02*
X-54407000Y-28699000D01*
X-54407000Y-28699000D02*
X-52573000Y-28699000D01*
X-52573000Y-28699000D02*
X-52573000Y-29984000D01*
%TO.C,R20*%
X-32384000Y2201000D02*
X-32384000Y3160000D01*
X-32384000Y3160000D02*
X-33706000Y3160000D01*
X-33706000Y3160000D02*
X-33706000Y2201000D01*
X-32384000Y1349000D02*
X-32384000Y390000D01*
X-32384000Y390000D02*
X-33706000Y390000D01*
X-33706000Y390000D02*
X-33706000Y1349000D01*
%TO.C,R27*%
X-26868600Y14290000D02*
X-27827600Y14290000D01*
X-27827600Y14290000D02*
X-27827600Y12968000D01*
X-27827600Y12968000D02*
X-26868600Y12968000D01*
X-26016600Y14290000D02*
X-25057600Y14290000D01*
X-25057600Y14290000D02*
X-25057600Y12968000D01*
X-25057600Y12968000D02*
X-26016600Y12968000D01*
%TO.C,R3*%
X-8306000Y-5226000D02*
X-8306000Y-6185000D01*
X-8306000Y-6185000D02*
X-6984000Y-6185000D01*
X-6984000Y-6185000D02*
X-6984000Y-5226000D01*
X-8306000Y-4374000D02*
X-8306000Y-3415000D01*
X-8306000Y-3415000D02*
X-6984000Y-3415000D01*
X-6984000Y-3415000D02*
X-6984000Y-4374000D01*
%TO.C,R19*%
X-27304000Y2201000D02*
X-27304000Y3160000D01*
X-27304000Y3160000D02*
X-28626000Y3160000D01*
X-28626000Y3160000D02*
X-28626000Y2201000D01*
X-27304000Y1349000D02*
X-27304000Y390000D01*
X-27304000Y390000D02*
X-28626000Y390000D01*
X-28626000Y390000D02*
X-28626000Y1349000D01*
%TO.C,R10*%
X-13326000Y-15539000D02*
X-14285000Y-15539000D01*
X-14285000Y-15539000D02*
X-14285000Y-16861000D01*
X-14285000Y-16861000D02*
X-13326000Y-16861000D01*
X-12474000Y-15539000D02*
X-11515000Y-15539000D01*
X-11515000Y-15539000D02*
X-11515000Y-16861000D01*
X-11515000Y-16861000D02*
X-12474000Y-16861000D01*
%TO.C,R16*%
X-24764000Y2201000D02*
X-24764000Y3160000D01*
X-24764000Y3160000D02*
X-26086000Y3160000D01*
X-26086000Y3160000D02*
X-26086000Y2201000D01*
X-24764000Y1349000D02*
X-24764000Y390000D01*
X-24764000Y390000D02*
X-26086000Y390000D01*
X-26086000Y390000D02*
X-26086000Y1349000D01*
%TO.C,R26*%
X-21901000Y14311000D02*
X-22860000Y14311000D01*
X-22860000Y14311000D02*
X-22860000Y12989000D01*
X-22860000Y12989000D02*
X-21901000Y12989000D01*
X-21049000Y14311000D02*
X-20090000Y14311000D01*
X-20090000Y14311000D02*
X-20090000Y12989000D01*
X-20090000Y12989000D02*
X-21049000Y12989000D01*
%TO.C,R18*%
X-18026000Y14161000D02*
X-18985000Y14161000D01*
X-18985000Y14161000D02*
X-18985000Y12839000D01*
X-18985000Y12839000D02*
X-18026000Y12839000D01*
X-17174000Y14161000D02*
X-16215000Y14161000D01*
X-16215000Y14161000D02*
X-16215000Y12839000D01*
X-16215000Y12839000D02*
X-17174000Y12839000D01*
%TO.C,R2*%
X-3226000Y-5226000D02*
X-3226000Y-6185000D01*
X-3226000Y-6185000D02*
X-1904000Y-6185000D01*
X-1904000Y-6185000D02*
X-1904000Y-5226000D01*
X-3226000Y-4374000D02*
X-3226000Y-3415000D01*
X-3226000Y-3415000D02*
X-1904000Y-3415000D01*
X-1904000Y-3415000D02*
X-1904000Y-4374000D01*
%TO.C,R9*%
X-8326000Y-15539000D02*
X-9285000Y-15539000D01*
X-9285000Y-15539000D02*
X-9285000Y-16861000D01*
X-9285000Y-16861000D02*
X-8326000Y-16861000D01*
X-7474000Y-15539000D02*
X-6515000Y-15539000D01*
X-6515000Y-15539000D02*
X-6515000Y-16861000D01*
X-6515000Y-16861000D02*
X-7474000Y-16861000D01*
%TO.C,R15*%
X-24066000Y-3879000D02*
X-25025000Y-3879000D01*
X-25025000Y-3879000D02*
X-25025000Y-5201000D01*
X-25025000Y-5201000D02*
X-24066000Y-5201000D01*
X-23214000Y-3879000D02*
X-22255000Y-3879000D01*
X-22255000Y-3879000D02*
X-22255000Y-5201000D01*
X-22255000Y-5201000D02*
X-23214000Y-5201000D01*
%TO.C,R1*%
X-686000Y-5226000D02*
X-686000Y-6185000D01*
X-686000Y-6185000D02*
X636000Y-6185000D01*
X636000Y-6185000D02*
X636000Y-5226000D01*
X-686000Y-4374000D02*
X-686000Y-3415000D01*
X-686000Y-3415000D02*
X636000Y-3415000D01*
X636000Y-3415000D02*
X636000Y-4374000D01*
%TO.C,R17*%
X-39226000Y-15293000D02*
X-40511000Y-15293000D01*
X-40511000Y-15293000D02*
X-40511000Y-17127000D01*
X-40511000Y-17127000D02*
X-39226000Y-17127000D01*
X-38274000Y-15293000D02*
X-36989000Y-15293000D01*
X-36989000Y-15293000D02*
X-36989000Y-17127000D01*
X-36989000Y-17127000D02*
X-38274000Y-17127000D01*
%TO.C,R8*%
X-3326000Y-15539000D02*
X-4285000Y-15539000D01*
X-4285000Y-15539000D02*
X-4285000Y-16861000D01*
X-4285000Y-16861000D02*
X-3326000Y-16861000D01*
X-2474000Y-15539000D02*
X-1515000Y-15539000D01*
X-1515000Y-15539000D02*
X-1515000Y-16861000D01*
X-1515000Y-16861000D02*
X-2474000Y-16861000D01*
D13*
%TO.C,J5*%
X1280000Y-25405000D02*
X1280000Y-22745000D01*
X-36880000Y-25405000D02*
X1280000Y-25405000D01*
X-36880000Y-22745000D02*
X1280000Y-22745000D01*
X-36880000Y-25405000D02*
X-36880000Y-22745000D01*
X-38150000Y-25405000D02*
X-39480000Y-25405000D01*
X-39480000Y-25405000D02*
X-39480000Y-24075000D01*
%TO.C,J4*%
X-1295000Y-18000000D02*
X-1295000Y-20660000D01*
X-1295000Y-18000000D02*
X-49615000Y-18000000D01*
X-49615000Y-18000000D02*
X-49615000Y-20660000D01*
X-1295000Y-20660000D02*
X-49615000Y-20660000D01*
X1305000Y-20660000D02*
X-25000Y-20660000D01*
X1305000Y-19330000D02*
X1305000Y-20660000D01*
%TO.C,J3*%
X-1295000Y-220000D02*
X-1295000Y-2880000D01*
X-1295000Y-220000D02*
X-49615000Y-220000D01*
X-49615000Y-220000D02*
X-49615000Y-2880000D01*
X-1295000Y-2880000D02*
X-49615000Y-2880000D01*
X1305000Y-2880000D02*
X-25000Y-2880000D01*
X1305000Y-1550000D02*
X1305000Y-2880000D01*
%TO.C,J2*%
X-61675000Y6390000D02*
X-61675000Y-23820000D01*
X-61675000Y6390000D02*
X-74585000Y6390000D01*
X-74585000Y-23820000D02*
X-61675000Y-23820000D01*
X-74585000Y-23820000D02*
X-74585000Y6390000D01*
%TO.C,J6*%
X-75180000Y-26360000D02*
X-66550000Y-26360000D01*
X-75180000Y-26475455D02*
X-66550000Y-26475455D01*
X-75180000Y-26590910D02*
X-66550000Y-26590910D01*
X-75180000Y-26706365D02*
X-66550000Y-26706365D01*
X-75180000Y-26821820D02*
X-66550000Y-26821820D01*
X-75180000Y-26937275D02*
X-66550000Y-26937275D01*
X-75180000Y-27052730D02*
X-66550000Y-27052730D01*
X-75180000Y-27168185D02*
X-66550000Y-27168185D01*
X-75180000Y-27283640D02*
X-66550000Y-27283640D01*
X-75180000Y-27399095D02*
X-66550000Y-27399095D01*
X-75180000Y-27514550D02*
X-66550000Y-27514550D01*
X-75180000Y-27630005D02*
X-66550000Y-27630005D01*
X-75180000Y-27745460D02*
X-66550000Y-27745460D01*
X-75180000Y-27860915D02*
X-66550000Y-27860915D01*
X-75180000Y-27976370D02*
X-66550000Y-27976370D01*
X-75180000Y-28091825D02*
X-66550000Y-28091825D01*
X-75180000Y-28207280D02*
X-66550000Y-28207280D01*
X-75180000Y-28322735D02*
X-66550000Y-28322735D01*
X-75180000Y-28438190D02*
X-66550000Y-28438190D01*
X-75180000Y-28553645D02*
X-66550000Y-28553645D01*
X-75180000Y-28669100D02*
X-66550000Y-28669100D01*
X-75180000Y-28784555D02*
X-66550000Y-28784555D01*
X-66550000Y-27210000D02*
X-66200000Y-27210000D01*
X-66550000Y-27930000D02*
X-66200000Y-27930000D01*
X-75180000Y-26240000D02*
X-66550000Y-26240000D01*
X-66550000Y-26240000D02*
X-66550000Y-28900000D01*
X-75180000Y-28900000D02*
X-66550000Y-28900000D01*
X-75180000Y-26240000D02*
X-75180000Y-28900000D01*
X-63980000Y-26240000D02*
X-63980000Y-27570000D01*
X-65090000Y-26240000D02*
X-63980000Y-26240000D01*
%TO.C,J1*%
D14*
X-13334619Y6581309D02*
X-12620333Y6581309D01*
X-12477476Y6533690D01*
X-12382238Y6438452D01*
X-12334619Y6295595D01*
X-12334619Y6200357D01*
X-12334619Y7581309D02*
X-12334619Y7009880D01*
X-12334619Y7295595D02*
X-13334619Y7295595D01*
X-13191761Y7200357D01*
X-13096523Y7105119D01*
X-13048904Y7009880D01*
%TO.C,U16*%
X-51664404Y12329619D02*
X-51664404Y11520095D01*
X-51616785Y11424857D01*
X-51569166Y11377238D01*
X-51473928Y11329619D01*
X-51283452Y11329619D01*
X-51188214Y11377238D01*
X-51140595Y11424857D01*
X-51092976Y11520095D01*
X-51092976Y12329619D01*
X-50092976Y11329619D02*
X-50664404Y11329619D01*
X-50378690Y11329619D02*
X-50378690Y12329619D01*
X-50473928Y12186761D01*
X-50569166Y12091523D01*
X-50664404Y12043904D01*
X-49235833Y12329619D02*
X-49426309Y12329619D01*
X-49521547Y12282000D01*
X-49569166Y12234380D01*
X-49664404Y12091523D01*
X-49712023Y11901047D01*
X-49712023Y11520095D01*
X-49664404Y11424857D01*
X-49616785Y11377238D01*
X-49521547Y11329619D01*
X-49331071Y11329619D01*
X-49235833Y11377238D01*
X-49188214Y11424857D01*
X-49140595Y11520095D01*
X-49140595Y11758190D01*
X-49188214Y11853428D01*
X-49235833Y11901047D01*
X-49331071Y11948666D01*
X-49521547Y11948666D01*
X-49616785Y11901047D01*
X-49664404Y11853428D01*
X-49712023Y11758190D01*
%TO.C,U15*%
X-46664404Y12329619D02*
X-46664404Y11520095D01*
X-46616785Y11424857D01*
X-46569166Y11377238D01*
X-46473928Y11329619D01*
X-46283452Y11329619D01*
X-46188214Y11377238D01*
X-46140595Y11424857D01*
X-46092976Y11520095D01*
X-46092976Y12329619D01*
X-45092976Y11329619D02*
X-45664404Y11329619D01*
X-45378690Y11329619D02*
X-45378690Y12329619D01*
X-45473928Y12186761D01*
X-45569166Y12091523D01*
X-45664404Y12043904D01*
X-44188214Y12329619D02*
X-44664404Y12329619D01*
X-44712023Y11853428D01*
X-44664404Y11901047D01*
X-44569166Y11948666D01*
X-44331071Y11948666D01*
X-44235833Y11901047D01*
X-44188214Y11853428D01*
X-44140595Y11758190D01*
X-44140595Y11520095D01*
X-44188214Y11424857D01*
X-44235833Y11377238D01*
X-44331071Y11329619D01*
X-44569166Y11329619D01*
X-44664404Y11377238D01*
X-44712023Y11424857D01*
%TO.C,U7*%
X-32734404Y-13509380D02*
X-32734404Y-14318904D01*
X-32686785Y-14414142D01*
X-32639166Y-14461761D01*
X-32543928Y-14509380D01*
X-32353452Y-14509380D01*
X-32258214Y-14461761D01*
X-32210595Y-14414142D01*
X-32162976Y-14318904D01*
X-32162976Y-13509380D01*
X-31782023Y-13509380D02*
X-31115357Y-13509380D01*
X-31543928Y-14509380D01*
%TO.C,U14*%
X-41664404Y12329619D02*
X-41664404Y11520095D01*
X-41616785Y11424857D01*
X-41569166Y11377238D01*
X-41473928Y11329619D01*
X-41283452Y11329619D01*
X-41188214Y11377238D01*
X-41140595Y11424857D01*
X-41092976Y11520095D01*
X-41092976Y12329619D01*
X-40092976Y11329619D02*
X-40664404Y11329619D01*
X-40378690Y11329619D02*
X-40378690Y12329619D01*
X-40473928Y12186761D01*
X-40569166Y12091523D01*
X-40664404Y12043904D01*
X-39235833Y11996285D02*
X-39235833Y11329619D01*
X-39473928Y12377238D02*
X-39712023Y11662952D01*
X-39092976Y11662952D01*
%TO.C,U6*%
X-27734404Y-13509380D02*
X-27734404Y-14318904D01*
X-27686785Y-14414142D01*
X-27639166Y-14461761D01*
X-27543928Y-14509380D01*
X-27353452Y-14509380D01*
X-27258214Y-14461761D01*
X-27210595Y-14414142D01*
X-27162976Y-14318904D01*
X-27162976Y-13509380D01*
X-26258214Y-13509380D02*
X-26448690Y-13509380D01*
X-26543928Y-13557000D01*
X-26591547Y-13604619D01*
X-26686785Y-13747476D01*
X-26734404Y-13937952D01*
X-26734404Y-14318904D01*
X-26686785Y-14414142D01*
X-26639166Y-14461761D01*
X-26543928Y-14509380D01*
X-26353452Y-14509380D01*
X-26258214Y-14461761D01*
X-26210595Y-14414142D01*
X-26162976Y-14318904D01*
X-26162976Y-14080809D01*
X-26210595Y-13985571D01*
X-26258214Y-13937952D01*
X-26353452Y-13890333D01*
X-26543928Y-13890333D01*
X-26639166Y-13937952D01*
X-26686785Y-13985571D01*
X-26734404Y-14080809D01*
%TO.C,U13*%
X-36664404Y12329619D02*
X-36664404Y11520095D01*
X-36616785Y11424857D01*
X-36569166Y11377238D01*
X-36473928Y11329619D01*
X-36283452Y11329619D01*
X-36188214Y11377238D01*
X-36140595Y11424857D01*
X-36092976Y11520095D01*
X-36092976Y12329619D01*
X-35092976Y11329619D02*
X-35664404Y11329619D01*
X-35378690Y11329619D02*
X-35378690Y12329619D01*
X-35473928Y12186761D01*
X-35569166Y12091523D01*
X-35664404Y12043904D01*
X-34759642Y12329619D02*
X-34140595Y12329619D01*
X-34473928Y11948666D01*
X-34331071Y11948666D01*
X-34235833Y11901047D01*
X-34188214Y11853428D01*
X-34140595Y11758190D01*
X-34140595Y11520095D01*
X-34188214Y11424857D01*
X-34235833Y11377238D01*
X-34331071Y11329619D01*
X-34616785Y11329619D01*
X-34712023Y11377238D01*
X-34759642Y11424857D01*
%TO.C,U18*%
X-47336785Y-30959380D02*
X-47336785Y-31768904D01*
X-47289166Y-31864142D01*
X-47241547Y-31911761D01*
X-47146309Y-31959380D01*
X-46955833Y-31959380D01*
X-46860595Y-31911761D01*
X-46812976Y-31864142D01*
X-46765357Y-31768904D01*
X-46765357Y-30959380D01*
X-45765357Y-31959380D02*
X-46336785Y-31959380D01*
X-46051071Y-31959380D02*
X-46051071Y-30959380D01*
X-46146309Y-31102238D01*
X-46241547Y-31197476D01*
X-46336785Y-31245095D01*
X-45193928Y-31387952D02*
X-45289166Y-31340333D01*
X-45336785Y-31292714D01*
X-45384404Y-31197476D01*
X-45384404Y-31149857D01*
X-45336785Y-31054619D01*
X-45289166Y-31007000D01*
X-45193928Y-30959380D01*
X-45003452Y-30959380D01*
X-44908214Y-31007000D01*
X-44860595Y-31054619D01*
X-44812976Y-31149857D01*
X-44812976Y-31197476D01*
X-44860595Y-31292714D01*
X-44908214Y-31340333D01*
X-45003452Y-31387952D01*
X-45193928Y-31387952D01*
X-45289166Y-31435571D01*
X-45336785Y-31483190D01*
X-45384404Y-31578428D01*
X-45384404Y-31768904D01*
X-45336785Y-31864142D01*
X-45289166Y-31911761D01*
X-45193928Y-31959380D01*
X-45003452Y-31959380D01*
X-44908214Y-31911761D01*
X-44860595Y-31864142D01*
X-44812976Y-31768904D01*
X-44812976Y-31578428D01*
X-44860595Y-31483190D01*
X-44908214Y-31435571D01*
X-45003452Y-31387952D01*
%TO.C,U5*%
X-22734404Y-13984380D02*
X-22734404Y-14793904D01*
X-22686785Y-14889142D01*
X-22639166Y-14936761D01*
X-22543928Y-14984380D01*
X-22353452Y-14984380D01*
X-22258214Y-14936761D01*
X-22210595Y-14889142D01*
X-22162976Y-14793904D01*
X-22162976Y-13984380D01*
X-21210595Y-13984380D02*
X-21686785Y-13984380D01*
X-21734404Y-14460571D01*
X-21686785Y-14412952D01*
X-21591547Y-14365333D01*
X-21353452Y-14365333D01*
X-21258214Y-14412952D01*
X-21210595Y-14460571D01*
X-21162976Y-14555809D01*
X-21162976Y-14793904D01*
X-21210595Y-14889142D01*
X-21258214Y-14936761D01*
X-21353452Y-14984380D01*
X-21591547Y-14984380D01*
X-21686785Y-14936761D01*
X-21734404Y-14889142D01*
%TO.C,U12*%
X-31664404Y12329619D02*
X-31664404Y11520095D01*
X-31616785Y11424857D01*
X-31569166Y11377238D01*
X-31473928Y11329619D01*
X-31283452Y11329619D01*
X-31188214Y11377238D01*
X-31140595Y11424857D01*
X-31092976Y11520095D01*
X-31092976Y12329619D01*
X-30092976Y11329619D02*
X-30664404Y11329619D01*
X-30378690Y11329619D02*
X-30378690Y12329619D01*
X-30473928Y12186761D01*
X-30569166Y12091523D01*
X-30664404Y12043904D01*
X-29712023Y12234380D02*
X-29664404Y12282000D01*
X-29569166Y12329619D01*
X-29331071Y12329619D01*
X-29235833Y12282000D01*
X-29188214Y12234380D01*
X-29140595Y12139142D01*
X-29140595Y12043904D01*
X-29188214Y11901047D01*
X-29759642Y11329619D01*
X-29140595Y11329619D01*
%TO.C,U4*%
X-17734404Y-13984380D02*
X-17734404Y-14793904D01*
X-17686785Y-14889142D01*
X-17639166Y-14936761D01*
X-17543928Y-14984380D01*
X-17353452Y-14984380D01*
X-17258214Y-14936761D01*
X-17210595Y-14889142D01*
X-17162976Y-14793904D01*
X-17162976Y-13984380D01*
X-16258214Y-14317714D02*
X-16258214Y-14984380D01*
X-16496309Y-13936761D02*
X-16734404Y-14651047D01*
X-16115357Y-14651047D01*
%TO.C,U17*%
X-52336785Y-30959380D02*
X-52336785Y-31768904D01*
X-52289166Y-31864142D01*
X-52241547Y-31911761D01*
X-52146309Y-31959380D01*
X-51955833Y-31959380D01*
X-51860595Y-31911761D01*
X-51812976Y-31864142D01*
X-51765357Y-31768904D01*
X-51765357Y-30959380D01*
X-50765357Y-31959380D02*
X-51336785Y-31959380D01*
X-51051071Y-31959380D02*
X-51051071Y-30959380D01*
X-51146309Y-31102238D01*
X-51241547Y-31197476D01*
X-51336785Y-31245095D01*
X-50432023Y-30959380D02*
X-49765357Y-30959380D01*
X-50193928Y-31959380D01*
%TO.C,U11*%
X-26664404Y12329619D02*
X-26664404Y11520095D01*
X-26616785Y11424857D01*
X-26569166Y11377238D01*
X-26473928Y11329619D01*
X-26283452Y11329619D01*
X-26188214Y11377238D01*
X-26140595Y11424857D01*
X-26092976Y11520095D01*
X-26092976Y12329619D01*
X-25092976Y11329619D02*
X-25664404Y11329619D01*
X-25378690Y11329619D02*
X-25378690Y12329619D01*
X-25473928Y12186761D01*
X-25569166Y12091523D01*
X-25664404Y12043904D01*
X-24140595Y11329619D02*
X-24712023Y11329619D01*
X-24426309Y11329619D02*
X-24426309Y12329619D01*
X-24521547Y12186761D01*
X-24616785Y12091523D01*
X-24712023Y12043904D01*
%TO.C,U3*%
X-12734404Y-13984380D02*
X-12734404Y-14793904D01*
X-12686785Y-14889142D01*
X-12639166Y-14936761D01*
X-12543928Y-14984380D01*
X-12353452Y-14984380D01*
X-12258214Y-14936761D01*
X-12210595Y-14889142D01*
X-12162976Y-14793904D01*
X-12162976Y-13984380D01*
X-11782023Y-13984380D02*
X-11162976Y-13984380D01*
X-11496309Y-14365333D01*
X-11353452Y-14365333D01*
X-11258214Y-14412952D01*
X-11210595Y-14460571D01*
X-11162976Y-14555809D01*
X-11162976Y-14793904D01*
X-11210595Y-14889142D01*
X-11258214Y-14936761D01*
X-11353452Y-14984380D01*
X-11639166Y-14984380D01*
X-11734404Y-14936761D01*
X-11782023Y-14889142D01*
%TO.C,U10*%
X-21664404Y12329619D02*
X-21664404Y11520095D01*
X-21616785Y11424857D01*
X-21569166Y11377238D01*
X-21473928Y11329619D01*
X-21283452Y11329619D01*
X-21188214Y11377238D01*
X-21140595Y11424857D01*
X-21092976Y11520095D01*
X-21092976Y12329619D01*
X-20092976Y11329619D02*
X-20664404Y11329619D01*
X-20378690Y11329619D02*
X-20378690Y12329619D01*
X-20473928Y12186761D01*
X-20569166Y12091523D01*
X-20664404Y12043904D01*
X-19473928Y12329619D02*
X-19378690Y12329619D01*
X-19283452Y12282000D01*
X-19235833Y12234380D01*
X-19188214Y12139142D01*
X-19140595Y11948666D01*
X-19140595Y11710571D01*
X-19188214Y11520095D01*
X-19235833Y11424857D01*
X-19283452Y11377238D01*
X-19378690Y11329619D01*
X-19473928Y11329619D01*
X-19569166Y11377238D01*
X-19616785Y11424857D01*
X-19664404Y11520095D01*
X-19712023Y11710571D01*
X-19712023Y11948666D01*
X-19664404Y12139142D01*
X-19616785Y12234380D01*
X-19569166Y12282000D01*
X-19473928Y12329619D01*
%TO.C,U9*%
X-16664404Y12329619D02*
X-16664404Y11520095D01*
X-16616785Y11424857D01*
X-16569166Y11377238D01*
X-16473928Y11329619D01*
X-16283452Y11329619D01*
X-16188214Y11377238D01*
X-16140595Y11424857D01*
X-16092976Y11520095D01*
X-16092976Y12329619D01*
X-15569166Y11329619D02*
X-15378690Y11329619D01*
X-15283452Y11377238D01*
X-15235833Y11424857D01*
X-15140595Y11567714D01*
X-15092976Y11758190D01*
X-15092976Y12139142D01*
X-15140595Y12234380D01*
X-15188214Y12282000D01*
X-15283452Y12329619D01*
X-15473928Y12329619D01*
X-15569166Y12282000D01*
X-15616785Y12234380D01*
X-15664404Y12139142D01*
X-15664404Y11901047D01*
X-15616785Y11805809D01*
X-15569166Y11758190D01*
X-15473928Y11710571D01*
X-15283452Y11710571D01*
X-15188214Y11758190D01*
X-15140595Y11805809D01*
X-15092976Y11901047D01*
%TO.C,U2*%
X-7734404Y-13984380D02*
X-7734404Y-14793904D01*
X-7686785Y-14889142D01*
X-7639166Y-14936761D01*
X-7543928Y-14984380D01*
X-7353452Y-14984380D01*
X-7258214Y-14936761D01*
X-7210595Y-14889142D01*
X-7162976Y-14793904D01*
X-7162976Y-13984380D01*
X-6734404Y-14079619D02*
X-6686785Y-14032000D01*
X-6591547Y-13984380D01*
X-6353452Y-13984380D01*
X-6258214Y-14032000D01*
X-6210595Y-14079619D01*
X-6162976Y-14174857D01*
X-6162976Y-14270095D01*
X-6210595Y-14412952D01*
X-6782023Y-14984380D01*
X-6162976Y-14984380D01*
%TO.C,U8*%
X-37734404Y-13509380D02*
X-37734404Y-14318904D01*
X-37686785Y-14414142D01*
X-37639166Y-14461761D01*
X-37543928Y-14509380D01*
X-37353452Y-14509380D01*
X-37258214Y-14461761D01*
X-37210595Y-14414142D01*
X-37162976Y-14318904D01*
X-37162976Y-13509380D01*
X-36543928Y-13937952D02*
X-36639166Y-13890333D01*
X-36686785Y-13842714D01*
X-36734404Y-13747476D01*
X-36734404Y-13699857D01*
X-36686785Y-13604619D01*
X-36639166Y-13557000D01*
X-36543928Y-13509380D01*
X-36353452Y-13509380D01*
X-36258214Y-13557000D01*
X-36210595Y-13604619D01*
X-36162976Y-13699857D01*
X-36162976Y-13747476D01*
X-36210595Y-13842714D01*
X-36258214Y-13890333D01*
X-36353452Y-13937952D01*
X-36543928Y-13937952D01*
X-36639166Y-13985571D01*
X-36686785Y-14033190D01*
X-36734404Y-14128428D01*
X-36734404Y-14318904D01*
X-36686785Y-14414142D01*
X-36639166Y-14461761D01*
X-36543928Y-14509380D01*
X-36353452Y-14509380D01*
X-36258214Y-14461761D01*
X-36210595Y-14414142D01*
X-36162976Y-14318904D01*
X-36162976Y-14128428D01*
X-36210595Y-14033190D01*
X-36258214Y-13985571D01*
X-36353452Y-13937952D01*
%TO.C,U1*%
X-2734404Y-13984380D02*
X-2734404Y-14793904D01*
X-2686785Y-14889142D01*
X-2639166Y-14936761D01*
X-2543928Y-14984380D01*
X-2353452Y-14984380D01*
X-2258214Y-14936761D01*
X-2210595Y-14889142D01*
X-2162976Y-14793904D01*
X-2162976Y-13984380D01*
X-1162976Y-14984380D02*
X-1734404Y-14984380D01*
X-1448690Y-14984380D02*
X-1448690Y-13984380D01*
X-1543928Y-14127238D01*
X-1639166Y-14222476D01*
X-1734404Y-14270095D01*
%TO.C,R25*%
X-51039619Y2682023D02*
X-51515809Y2348690D01*
X-51039619Y2110595D02*
X-52039619Y2110595D01*
X-52039619Y2491547D01*
X-51992000Y2586785D01*
X-51944380Y2634404D01*
X-51849142Y2682023D01*
X-51706285Y2682023D01*
X-51611047Y2634404D01*
X-51563428Y2586785D01*
X-51515809Y2491547D01*
X-51515809Y2110595D01*
X-51944380Y3062976D02*
X-51992000Y3110595D01*
X-52039619Y3205833D01*
X-52039619Y3443928D01*
X-51992000Y3539166D01*
X-51944380Y3586785D01*
X-51849142Y3634404D01*
X-51753904Y3634404D01*
X-51611047Y3586785D01*
X-51039619Y3015357D01*
X-51039619Y3634404D01*
X-52039619Y4539166D02*
X-52039619Y4062976D01*
X-51563428Y4015357D01*
X-51611047Y4062976D01*
X-51658666Y4158214D01*
X-51658666Y4396309D01*
X-51611047Y4491547D01*
X-51563428Y4539166D01*
X-51468190Y4586785D01*
X-51230095Y4586785D01*
X-51134857Y4539166D01*
X-51087238Y4491547D01*
X-51039619Y4396309D01*
X-51039619Y4158214D01*
X-51087238Y4062976D01*
X-51134857Y4015357D01*
%TO.C,R32*%
X-51890619Y6757261D02*
X-52366809Y6423928D01*
X-51890619Y6185833D02*
X-52890619Y6185833D01*
X-52890619Y6566785D01*
X-52843000Y6662023D01*
X-52795380Y6709642D01*
X-52700142Y6757261D01*
X-52557285Y6757261D01*
X-52462047Y6709642D01*
X-52414428Y6662023D01*
X-52366809Y6566785D01*
X-52366809Y6185833D01*
X-52890619Y7090595D02*
X-52890619Y7709642D01*
X-52509666Y7376309D01*
X-52509666Y7519166D01*
X-52462047Y7614404D01*
X-52414428Y7662023D01*
X-52319190Y7709642D01*
X-52081095Y7709642D01*
X-51985857Y7662023D01*
X-51938238Y7614404D01*
X-51890619Y7519166D01*
X-51890619Y7233452D01*
X-51938238Y7138214D01*
X-51985857Y7090595D01*
X-52795380Y8090595D02*
X-52843000Y8138214D01*
X-52890619Y8233452D01*
X-52890619Y8471547D01*
X-52843000Y8566785D01*
X-52795380Y8614404D01*
X-52700142Y8662023D01*
X-52604904Y8662023D01*
X-52462047Y8614404D01*
X-51890619Y8042976D01*
X-51890619Y8662023D01*
%TO.C,R24*%
X-48499619Y2682023D02*
X-48975809Y2348690D01*
X-48499619Y2110595D02*
X-49499619Y2110595D01*
X-49499619Y2491547D01*
X-49452000Y2586785D01*
X-49404380Y2634404D01*
X-49309142Y2682023D01*
X-49166285Y2682023D01*
X-49071047Y2634404D01*
X-49023428Y2586785D01*
X-48975809Y2491547D01*
X-48975809Y2110595D01*
X-49404380Y3062976D02*
X-49452000Y3110595D01*
X-49499619Y3205833D01*
X-49499619Y3443928D01*
X-49452000Y3539166D01*
X-49404380Y3586785D01*
X-49309142Y3634404D01*
X-49213904Y3634404D01*
X-49071047Y3586785D01*
X-48499619Y3015357D01*
X-48499619Y3634404D01*
X-49166285Y4491547D02*
X-48499619Y4491547D01*
X-49547238Y4253452D02*
X-48832952Y4015357D01*
X-48832952Y4634404D01*
%TO.C,R7*%
X-16660619Y-6110357D02*
X-17136809Y-6443690D01*
X-16660619Y-6681785D02*
X-17660619Y-6681785D01*
X-17660619Y-6300833D01*
X-17613000Y-6205595D01*
X-17565380Y-6157976D01*
X-17470142Y-6110357D01*
X-17327285Y-6110357D01*
X-17232047Y-6157976D01*
X-17184428Y-6205595D01*
X-17136809Y-6300833D01*
X-17136809Y-6681785D01*
X-17660619Y-5777023D02*
X-17660619Y-5110357D01*
X-16660619Y-5538928D01*
%TO.C,R31*%
X-54400619Y6757261D02*
X-54876809Y6423928D01*
X-54400619Y6185833D02*
X-55400619Y6185833D01*
X-55400619Y6566785D01*
X-55353000Y6662023D01*
X-55305380Y6709642D01*
X-55210142Y6757261D01*
X-55067285Y6757261D01*
X-54972047Y6709642D01*
X-54924428Y6662023D01*
X-54876809Y6566785D01*
X-54876809Y6185833D01*
X-55400619Y7090595D02*
X-55400619Y7709642D01*
X-55019666Y7376309D01*
X-55019666Y7519166D01*
X-54972047Y7614404D01*
X-54924428Y7662023D01*
X-54829190Y7709642D01*
X-54591095Y7709642D01*
X-54495857Y7662023D01*
X-54448238Y7614404D01*
X-54400619Y7519166D01*
X-54400619Y7233452D01*
X-54448238Y7138214D01*
X-54495857Y7090595D01*
X-54400619Y8662023D02*
X-54400619Y8090595D01*
X-54400619Y8376309D02*
X-55400619Y8376309D01*
X-55257761Y8281071D01*
X-55162523Y8185833D01*
X-55114904Y8090595D01*
%TO.C,R14*%
X-35302738Y-19739380D02*
X-35636071Y-19263190D01*
X-35874166Y-19739380D02*
X-35874166Y-18739380D01*
X-35493214Y-18739380D01*
X-35397976Y-18787000D01*
X-35350357Y-18834619D01*
X-35302738Y-18929857D01*
X-35302738Y-19072714D01*
X-35350357Y-19167952D01*
X-35397976Y-19215571D01*
X-35493214Y-19263190D01*
X-35874166Y-19263190D01*
X-34350357Y-19739380D02*
X-34921785Y-19739380D01*
X-34636071Y-19739380D02*
X-34636071Y-18739380D01*
X-34731309Y-18882238D01*
X-34826547Y-18977476D01*
X-34921785Y-19025095D01*
X-33493214Y-19072714D02*
X-33493214Y-19739380D01*
X-33731309Y-18691761D02*
X-33969404Y-19406047D01*
X-33350357Y-19406047D01*
%TO.C,R23*%
X-43419619Y2682023D02*
X-43895809Y2348690D01*
X-43419619Y2110595D02*
X-44419619Y2110595D01*
X-44419619Y2491547D01*
X-44372000Y2586785D01*
X-44324380Y2634404D01*
X-44229142Y2682023D01*
X-44086285Y2682023D01*
X-43991047Y2634404D01*
X-43943428Y2586785D01*
X-43895809Y2491547D01*
X-43895809Y2110595D01*
X-44324380Y3062976D02*
X-44372000Y3110595D01*
X-44419619Y3205833D01*
X-44419619Y3443928D01*
X-44372000Y3539166D01*
X-44324380Y3586785D01*
X-44229142Y3634404D01*
X-44133904Y3634404D01*
X-43991047Y3586785D01*
X-43419619Y3015357D01*
X-43419619Y3634404D01*
X-44419619Y3967738D02*
X-44419619Y4586785D01*
X-44038666Y4253452D01*
X-44038666Y4396309D01*
X-43991047Y4491547D01*
X-43943428Y4539166D01*
X-43848190Y4586785D01*
X-43610095Y4586785D01*
X-43514857Y4539166D01*
X-43467238Y4491547D01*
X-43419619Y4396309D01*
X-43419619Y4110595D01*
X-43467238Y4015357D01*
X-43514857Y3967738D01*
%TO.C,R6*%
X-17240357Y-8009380D02*
X-17573690Y-7533190D01*
X-17811785Y-8009380D02*
X-17811785Y-7009380D01*
X-17430833Y-7009380D01*
X-17335595Y-7057000D01*
X-17287976Y-7104619D01*
X-17240357Y-7199857D01*
X-17240357Y-7342714D01*
X-17287976Y-7437952D01*
X-17335595Y-7485571D01*
X-17430833Y-7533190D01*
X-17811785Y-7533190D01*
X-16383214Y-7009380D02*
X-16573690Y-7009380D01*
X-16668928Y-7057000D01*
X-16716547Y-7104619D01*
X-16811785Y-7247476D01*
X-16859404Y-7437952D01*
X-16859404Y-7818904D01*
X-16811785Y-7914142D01*
X-16764166Y-7961761D01*
X-16668928Y-8009380D01*
X-16478452Y-8009380D01*
X-16383214Y-7961761D01*
X-16335595Y-7914142D01*
X-16287976Y-7818904D01*
X-16287976Y-7580809D01*
X-16335595Y-7485571D01*
X-16383214Y-7437952D01*
X-16478452Y-7390333D01*
X-16668928Y-7390333D01*
X-16764166Y-7437952D01*
X-16811785Y-7485571D01*
X-16859404Y-7580809D01*
%TO.C,R30*%
X-43672138Y9965619D02*
X-44005471Y10441809D01*
X-44243566Y9965619D02*
X-44243566Y10965619D01*
X-43862614Y10965619D01*
X-43767376Y10918000D01*
X-43719757Y10870380D01*
X-43672138Y10775142D01*
X-43672138Y10632285D01*
X-43719757Y10537047D01*
X-43767376Y10489428D01*
X-43862614Y10441809D01*
X-44243566Y10441809D01*
X-43338804Y10965619D02*
X-42719757Y10965619D01*
X-43053090Y10584666D01*
X-42910233Y10584666D01*
X-42814995Y10537047D01*
X-42767376Y10489428D01*
X-42719757Y10394190D01*
X-42719757Y10156095D01*
X-42767376Y10060857D01*
X-42814995Y10013238D01*
X-42910233Y9965619D01*
X-43195947Y9965619D01*
X-43291185Y10013238D01*
X-43338804Y10060857D01*
X-42100709Y10965619D02*
X-42005471Y10965619D01*
X-41910233Y10918000D01*
X-41862614Y10870380D01*
X-41814995Y10775142D01*
X-41767376Y10584666D01*
X-41767376Y10346571D01*
X-41814995Y10156095D01*
X-41862614Y10060857D01*
X-41910233Y10013238D01*
X-42005471Y9965619D01*
X-42100709Y9965619D01*
X-42195947Y10013238D01*
X-42243566Y10060857D01*
X-42291185Y10156095D01*
X-42338804Y10346571D01*
X-42338804Y10584666D01*
X-42291185Y10775142D01*
X-42243566Y10870380D01*
X-42195947Y10918000D01*
X-42100709Y10965619D01*
%TO.C,R13*%
X-30312738Y-19719380D02*
X-30646071Y-19243190D01*
X-30884166Y-19719380D02*
X-30884166Y-18719380D01*
X-30503214Y-18719380D01*
X-30407976Y-18767000D01*
X-30360357Y-18814619D01*
X-30312738Y-18909857D01*
X-30312738Y-19052714D01*
X-30360357Y-19147952D01*
X-30407976Y-19195571D01*
X-30503214Y-19243190D01*
X-30884166Y-19243190D01*
X-29360357Y-19719380D02*
X-29931785Y-19719380D01*
X-29646071Y-19719380D02*
X-29646071Y-18719380D01*
X-29741309Y-18862238D01*
X-29836547Y-18957476D01*
X-29931785Y-19005095D01*
X-29027023Y-18719380D02*
X-28407976Y-18719380D01*
X-28741309Y-19100333D01*
X-28598452Y-19100333D01*
X-28503214Y-19147952D01*
X-28455595Y-19195571D01*
X-28407976Y-19290809D01*
X-28407976Y-19528904D01*
X-28455595Y-19624142D01*
X-28503214Y-19671761D01*
X-28598452Y-19719380D01*
X-28884166Y-19719380D01*
X-28979404Y-19671761D01*
X-29027023Y-19624142D01*
%TO.C,R22*%
X-40879619Y2682023D02*
X-41355809Y2348690D01*
X-40879619Y2110595D02*
X-41879619Y2110595D01*
X-41879619Y2491547D01*
X-41832000Y2586785D01*
X-41784380Y2634404D01*
X-41689142Y2682023D01*
X-41546285Y2682023D01*
X-41451047Y2634404D01*
X-41403428Y2586785D01*
X-41355809Y2491547D01*
X-41355809Y2110595D01*
X-41784380Y3062976D02*
X-41832000Y3110595D01*
X-41879619Y3205833D01*
X-41879619Y3443928D01*
X-41832000Y3539166D01*
X-41784380Y3586785D01*
X-41689142Y3634404D01*
X-41593904Y3634404D01*
X-41451047Y3586785D01*
X-40879619Y3015357D01*
X-40879619Y3634404D01*
X-41784380Y4015357D02*
X-41832000Y4062976D01*
X-41879619Y4158214D01*
X-41879619Y4396309D01*
X-41832000Y4491547D01*
X-41784380Y4539166D01*
X-41689142Y4586785D01*
X-41593904Y4586785D01*
X-41451047Y4539166D01*
X-40879619Y3967738D01*
X-40879619Y4586785D01*
%TO.C,R34*%
X-42085619Y-24522738D02*
X-42561809Y-24856071D01*
X-42085619Y-25094166D02*
X-43085619Y-25094166D01*
X-43085619Y-24713214D01*
X-43038000Y-24617976D01*
X-42990380Y-24570357D01*
X-42895142Y-24522738D01*
X-42752285Y-24522738D01*
X-42657047Y-24570357D01*
X-42609428Y-24617976D01*
X-42561809Y-24713214D01*
X-42561809Y-25094166D01*
X-43085619Y-24189404D02*
X-43085619Y-23570357D01*
X-42704666Y-23903690D01*
X-42704666Y-23760833D01*
X-42657047Y-23665595D01*
X-42609428Y-23617976D01*
X-42514190Y-23570357D01*
X-42276095Y-23570357D01*
X-42180857Y-23617976D01*
X-42133238Y-23665595D01*
X-42085619Y-23760833D01*
X-42085619Y-24046547D01*
X-42133238Y-24141785D01*
X-42180857Y-24189404D01*
X-42752285Y-22713214D02*
X-42085619Y-22713214D01*
X-43133238Y-22951309D02*
X-42418952Y-23189404D01*
X-42418952Y-22570357D01*
%TO.C,R29*%
X-38617538Y9969619D02*
X-38950871Y10445809D01*
X-39188966Y9969619D02*
X-39188966Y10969619D01*
X-38808014Y10969619D01*
X-38712776Y10922000D01*
X-38665157Y10874380D01*
X-38617538Y10779142D01*
X-38617538Y10636285D01*
X-38665157Y10541047D01*
X-38712776Y10493428D01*
X-38808014Y10445809D01*
X-39188966Y10445809D01*
X-38236585Y10874380D02*
X-38188966Y10922000D01*
X-38093728Y10969619D01*
X-37855633Y10969619D01*
X-37760395Y10922000D01*
X-37712776Y10874380D01*
X-37665157Y10779142D01*
X-37665157Y10683904D01*
X-37712776Y10541047D01*
X-38284204Y9969619D01*
X-37665157Y9969619D01*
X-37188966Y9969619D02*
X-36998490Y9969619D01*
X-36903252Y10017238D01*
X-36855633Y10064857D01*
X-36760395Y10207714D01*
X-36712776Y10398190D01*
X-36712776Y10779142D01*
X-36760395Y10874380D01*
X-36808014Y10922000D01*
X-36903252Y10969619D01*
X-37093728Y10969619D01*
X-37188966Y10922000D01*
X-37236585Y10874380D01*
X-37284204Y10779142D01*
X-37284204Y10541047D01*
X-37236585Y10445809D01*
X-37188966Y10398190D01*
X-37093728Y10350571D01*
X-36903252Y10350571D01*
X-36808014Y10398190D01*
X-36760395Y10445809D01*
X-36712776Y10541047D01*
%TO.C,R5*%
X-9065619Y-6040357D02*
X-9541809Y-6373690D01*
X-9065619Y-6611785D02*
X-10065619Y-6611785D01*
X-10065619Y-6230833D01*
X-10018000Y-6135595D01*
X-9970380Y-6087976D01*
X-9875142Y-6040357D01*
X-9732285Y-6040357D01*
X-9637047Y-6087976D01*
X-9589428Y-6135595D01*
X-9541809Y-6230833D01*
X-9541809Y-6611785D01*
X-10065619Y-5135595D02*
X-10065619Y-5611785D01*
X-9589428Y-5659404D01*
X-9637047Y-5611785D01*
X-9684666Y-5516547D01*
X-9684666Y-5278452D01*
X-9637047Y-5183214D01*
X-9589428Y-5135595D01*
X-9494190Y-5087976D01*
X-9256095Y-5087976D01*
X-9160857Y-5135595D01*
X-9113238Y-5183214D01*
X-9065619Y-5278452D01*
X-9065619Y-5516547D01*
X-9113238Y-5611785D01*
X-9160857Y-5659404D01*
%TO.C,R36*%
X-48717738Y-37109380D02*
X-49051071Y-36633190D01*
X-49289166Y-37109380D02*
X-49289166Y-36109380D01*
X-48908214Y-36109380D01*
X-48812976Y-36157000D01*
X-48765357Y-36204619D01*
X-48717738Y-36299857D01*
X-48717738Y-36442714D01*
X-48765357Y-36537952D01*
X-48812976Y-36585571D01*
X-48908214Y-36633190D01*
X-49289166Y-36633190D01*
X-48384404Y-36109380D02*
X-47765357Y-36109380D01*
X-48098690Y-36490333D01*
X-47955833Y-36490333D01*
X-47860595Y-36537952D01*
X-47812976Y-36585571D01*
X-47765357Y-36680809D01*
X-47765357Y-36918904D01*
X-47812976Y-37014142D01*
X-47860595Y-37061761D01*
X-47955833Y-37109380D01*
X-48241547Y-37109380D01*
X-48336785Y-37061761D01*
X-48384404Y-37014142D01*
X-46908214Y-36109380D02*
X-47098690Y-36109380D01*
X-47193928Y-36157000D01*
X-47241547Y-36204619D01*
X-47336785Y-36347476D01*
X-47384404Y-36537952D01*
X-47384404Y-36918904D01*
X-47336785Y-37014142D01*
X-47289166Y-37061761D01*
X-47193928Y-37109380D01*
X-47003452Y-37109380D01*
X-46908214Y-37061761D01*
X-46860595Y-37014142D01*
X-46812976Y-36918904D01*
X-46812976Y-36680809D01*
X-46860595Y-36585571D01*
X-46908214Y-36537952D01*
X-47003452Y-36490333D01*
X-47193928Y-36490333D01*
X-47289166Y-36537952D01*
X-47336785Y-36585571D01*
X-47384404Y-36680809D01*
%TO.C,R12*%
X-25117738Y-19859380D02*
X-25451071Y-19383190D01*
X-25689166Y-19859380D02*
X-25689166Y-18859380D01*
X-25308214Y-18859380D01*
X-25212976Y-18907000D01*
X-25165357Y-18954619D01*
X-25117738Y-19049857D01*
X-25117738Y-19192714D01*
X-25165357Y-19287952D01*
X-25212976Y-19335571D01*
X-25308214Y-19383190D01*
X-25689166Y-19383190D01*
X-24165357Y-19859380D02*
X-24736785Y-19859380D01*
X-24451071Y-19859380D02*
X-24451071Y-18859380D01*
X-24546309Y-19002238D01*
X-24641547Y-19097476D01*
X-24736785Y-19145095D01*
X-23784404Y-18954619D02*
X-23736785Y-18907000D01*
X-23641547Y-18859380D01*
X-23403452Y-18859380D01*
X-23308214Y-18907000D01*
X-23260595Y-18954619D01*
X-23212976Y-19049857D01*
X-23212976Y-19145095D01*
X-23260595Y-19287952D01*
X-23832023Y-19859380D01*
X-23212976Y-19859380D01*
%TO.C,R21*%
X-38339619Y2682023D02*
X-38815809Y2348690D01*
X-38339619Y2110595D02*
X-39339619Y2110595D01*
X-39339619Y2491547D01*
X-39292000Y2586785D01*
X-39244380Y2634404D01*
X-39149142Y2682023D01*
X-39006285Y2682023D01*
X-38911047Y2634404D01*
X-38863428Y2586785D01*
X-38815809Y2491547D01*
X-38815809Y2110595D01*
X-39244380Y3062976D02*
X-39292000Y3110595D01*
X-39339619Y3205833D01*
X-39339619Y3443928D01*
X-39292000Y3539166D01*
X-39244380Y3586785D01*
X-39149142Y3634404D01*
X-39053904Y3634404D01*
X-38911047Y3586785D01*
X-38339619Y3015357D01*
X-38339619Y3634404D01*
X-38339619Y4586785D02*
X-38339619Y4015357D01*
X-38339619Y4301071D02*
X-39339619Y4301071D01*
X-39196761Y4205833D01*
X-39101523Y4110595D01*
X-39053904Y4015357D01*
%TO.C,R28*%
X-33613738Y9969619D02*
X-33947071Y10445809D01*
X-34185166Y9969619D02*
X-34185166Y10969619D01*
X-33804214Y10969619D01*
X-33708976Y10922000D01*
X-33661357Y10874380D01*
X-33613738Y10779142D01*
X-33613738Y10636285D01*
X-33661357Y10541047D01*
X-33708976Y10493428D01*
X-33804214Y10445809D01*
X-34185166Y10445809D01*
X-33232785Y10874380D02*
X-33185166Y10922000D01*
X-33089928Y10969619D01*
X-32851833Y10969619D01*
X-32756595Y10922000D01*
X-32708976Y10874380D01*
X-32661357Y10779142D01*
X-32661357Y10683904D01*
X-32708976Y10541047D01*
X-33280404Y9969619D01*
X-32661357Y9969619D01*
X-32089928Y10541047D02*
X-32185166Y10588666D01*
X-32232785Y10636285D01*
X-32280404Y10731523D01*
X-32280404Y10779142D01*
X-32232785Y10874380D01*
X-32185166Y10922000D01*
X-32089928Y10969619D01*
X-31899452Y10969619D01*
X-31804214Y10922000D01*
X-31756595Y10874380D01*
X-31708976Y10779142D01*
X-31708976Y10731523D01*
X-31756595Y10636285D01*
X-31804214Y10588666D01*
X-31899452Y10541047D01*
X-32089928Y10541047D01*
X-32185166Y10493428D01*
X-32232785Y10445809D01*
X-32280404Y10350571D01*
X-32280404Y10160095D01*
X-32232785Y10064857D01*
X-32185166Y10017238D01*
X-32089928Y9969619D01*
X-31899452Y9969619D01*
X-31804214Y10017238D01*
X-31756595Y10064857D01*
X-31708976Y10160095D01*
X-31708976Y10350571D01*
X-31756595Y10445809D01*
X-31804214Y10493428D01*
X-31899452Y10541047D01*
%TO.C,R4*%
X-6525619Y-6040357D02*
X-7001809Y-6373690D01*
X-6525619Y-6611785D02*
X-7525619Y-6611785D01*
X-7525619Y-6230833D01*
X-7478000Y-6135595D01*
X-7430380Y-6087976D01*
X-7335142Y-6040357D01*
X-7192285Y-6040357D01*
X-7097047Y-6087976D01*
X-7049428Y-6135595D01*
X-7001809Y-6230833D01*
X-7001809Y-6611785D01*
X-7192285Y-5183214D02*
X-6525619Y-5183214D01*
X-7573238Y-5421309D02*
X-6858952Y-5659404D01*
X-6858952Y-5040357D01*
%TO.C,R33*%
X-44625619Y-24522738D02*
X-45101809Y-24856071D01*
X-44625619Y-25094166D02*
X-45625619Y-25094166D01*
X-45625619Y-24713214D01*
X-45578000Y-24617976D01*
X-45530380Y-24570357D01*
X-45435142Y-24522738D01*
X-45292285Y-24522738D01*
X-45197047Y-24570357D01*
X-45149428Y-24617976D01*
X-45101809Y-24713214D01*
X-45101809Y-25094166D01*
X-45625619Y-24189404D02*
X-45625619Y-23570357D01*
X-45244666Y-23903690D01*
X-45244666Y-23760833D01*
X-45197047Y-23665595D01*
X-45149428Y-23617976D01*
X-45054190Y-23570357D01*
X-44816095Y-23570357D01*
X-44720857Y-23617976D01*
X-44673238Y-23665595D01*
X-44625619Y-23760833D01*
X-44625619Y-24046547D01*
X-44673238Y-24141785D01*
X-44720857Y-24189404D01*
X-45625619Y-23237023D02*
X-45625619Y-22617976D01*
X-45244666Y-22951309D01*
X-45244666Y-22808452D01*
X-45197047Y-22713214D01*
X-45149428Y-22665595D01*
X-45054190Y-22617976D01*
X-44816095Y-22617976D01*
X-44720857Y-22665595D01*
X-44673238Y-22713214D01*
X-44625619Y-22808452D01*
X-44625619Y-23094166D01*
X-44673238Y-23189404D01*
X-44720857Y-23237023D01*
%TO.C,R11*%
X-20092738Y-19859380D02*
X-20426071Y-19383190D01*
X-20664166Y-19859380D02*
X-20664166Y-18859380D01*
X-20283214Y-18859380D01*
X-20187976Y-18907000D01*
X-20140357Y-18954619D01*
X-20092738Y-19049857D01*
X-20092738Y-19192714D01*
X-20140357Y-19287952D01*
X-20187976Y-19335571D01*
X-20283214Y-19383190D01*
X-20664166Y-19383190D01*
X-19140357Y-19859380D02*
X-19711785Y-19859380D01*
X-19426071Y-19859380D02*
X-19426071Y-18859380D01*
X-19521309Y-19002238D01*
X-19616547Y-19097476D01*
X-19711785Y-19145095D01*
X-18187976Y-19859380D02*
X-18759404Y-19859380D01*
X-18473690Y-19859380D02*
X-18473690Y-18859380D01*
X-18568928Y-19002238D01*
X-18664166Y-19097476D01*
X-18759404Y-19145095D01*
%TO.C,R35*%
X-49830619Y-32652738D02*
X-50306809Y-32986071D01*
X-49830619Y-33224166D02*
X-50830619Y-33224166D01*
X-50830619Y-32843214D01*
X-50783000Y-32747976D01*
X-50735380Y-32700357D01*
X-50640142Y-32652738D01*
X-50497285Y-32652738D01*
X-50402047Y-32700357D01*
X-50354428Y-32747976D01*
X-50306809Y-32843214D01*
X-50306809Y-33224166D01*
X-50830619Y-32319404D02*
X-50830619Y-31700357D01*
X-50449666Y-32033690D01*
X-50449666Y-31890833D01*
X-50402047Y-31795595D01*
X-50354428Y-31747976D01*
X-50259190Y-31700357D01*
X-50021095Y-31700357D01*
X-49925857Y-31747976D01*
X-49878238Y-31795595D01*
X-49830619Y-31890833D01*
X-49830619Y-32176547D01*
X-49878238Y-32271785D01*
X-49925857Y-32319404D01*
X-50830619Y-30795595D02*
X-50830619Y-31271785D01*
X-50354428Y-31319404D01*
X-50402047Y-31271785D01*
X-50449666Y-31176547D01*
X-50449666Y-30938452D01*
X-50402047Y-30843214D01*
X-50354428Y-30795595D01*
X-50259190Y-30747976D01*
X-50021095Y-30747976D01*
X-49925857Y-30795595D01*
X-49878238Y-30843214D01*
X-49830619Y-30938452D01*
X-49830619Y-31176547D01*
X-49878238Y-31271785D01*
X-49925857Y-31319404D01*
%TO.C,R20*%
X-35799619Y2682023D02*
X-36275809Y2348690D01*
X-35799619Y2110595D02*
X-36799619Y2110595D01*
X-36799619Y2491547D01*
X-36752000Y2586785D01*
X-36704380Y2634404D01*
X-36609142Y2682023D01*
X-36466285Y2682023D01*
X-36371047Y2634404D01*
X-36323428Y2586785D01*
X-36275809Y2491547D01*
X-36275809Y2110595D01*
X-36704380Y3062976D02*
X-36752000Y3110595D01*
X-36799619Y3205833D01*
X-36799619Y3443928D01*
X-36752000Y3539166D01*
X-36704380Y3586785D01*
X-36609142Y3634404D01*
X-36513904Y3634404D01*
X-36371047Y3586785D01*
X-35799619Y3015357D01*
X-35799619Y3634404D01*
X-36799619Y4253452D02*
X-36799619Y4348690D01*
X-36752000Y4443928D01*
X-36704380Y4491547D01*
X-36609142Y4539166D01*
X-36418666Y4586785D01*
X-36180571Y4586785D01*
X-35990095Y4539166D01*
X-35894857Y4491547D01*
X-35847238Y4443928D01*
X-35799619Y4348690D01*
X-35799619Y4253452D01*
X-35847238Y4158214D01*
X-35894857Y4110595D01*
X-35990095Y4062976D01*
X-36180571Y4015357D01*
X-36418666Y4015357D01*
X-36609142Y4062976D01*
X-36704380Y4110595D01*
X-36752000Y4158214D01*
X-36799619Y4253452D01*
%TO.C,R27*%
X-28635338Y9969619D02*
X-28968671Y10445809D01*
X-29206766Y9969619D02*
X-29206766Y10969619D01*
X-28825814Y10969619D01*
X-28730576Y10922000D01*
X-28682957Y10874380D01*
X-28635338Y10779142D01*
X-28635338Y10636285D01*
X-28682957Y10541047D01*
X-28730576Y10493428D01*
X-28825814Y10445809D01*
X-29206766Y10445809D01*
X-28254385Y10874380D02*
X-28206766Y10922000D01*
X-28111528Y10969619D01*
X-27873433Y10969619D01*
X-27778195Y10922000D01*
X-27730576Y10874380D01*
X-27682957Y10779142D01*
X-27682957Y10683904D01*
X-27730576Y10541047D01*
X-28302004Y9969619D01*
X-27682957Y9969619D01*
X-27349623Y10969619D02*
X-26682957Y10969619D01*
X-27111528Y9969619D01*
%TO.C,R3*%
X-3985619Y-6040357D02*
X-4461809Y-6373690D01*
X-3985619Y-6611785D02*
X-4985619Y-6611785D01*
X-4985619Y-6230833D01*
X-4938000Y-6135595D01*
X-4890380Y-6087976D01*
X-4795142Y-6040357D01*
X-4652285Y-6040357D01*
X-4557047Y-6087976D01*
X-4509428Y-6135595D01*
X-4461809Y-6230833D01*
X-4461809Y-6611785D01*
X-4985619Y-5707023D02*
X-4985619Y-5087976D01*
X-4604666Y-5421309D01*
X-4604666Y-5278452D01*
X-4557047Y-5183214D01*
X-4509428Y-5135595D01*
X-4414190Y-5087976D01*
X-4176095Y-5087976D01*
X-4080857Y-5135595D01*
X-4033238Y-5183214D01*
X-3985619Y-5278452D01*
X-3985619Y-5564166D01*
X-4033238Y-5659404D01*
X-4080857Y-5707023D01*
%TO.C,R19*%
X-30719619Y2682023D02*
X-31195809Y2348690D01*
X-30719619Y2110595D02*
X-31719619Y2110595D01*
X-31719619Y2491547D01*
X-31672000Y2586785D01*
X-31624380Y2634404D01*
X-31529142Y2682023D01*
X-31386285Y2682023D01*
X-31291047Y2634404D01*
X-31243428Y2586785D01*
X-31195809Y2491547D01*
X-31195809Y2110595D01*
X-30719619Y3634404D02*
X-30719619Y3062976D01*
X-30719619Y3348690D02*
X-31719619Y3348690D01*
X-31576761Y3253452D01*
X-31481523Y3158214D01*
X-31433904Y3062976D01*
X-30719619Y4110595D02*
X-30719619Y4301071D01*
X-30767238Y4396309D01*
X-30814857Y4443928D01*
X-30957714Y4539166D01*
X-31148190Y4586785D01*
X-31529142Y4586785D01*
X-31624380Y4539166D01*
X-31672000Y4491547D01*
X-31719619Y4396309D01*
X-31719619Y4205833D01*
X-31672000Y4110595D01*
X-31624380Y4062976D01*
X-31529142Y4015357D01*
X-31291047Y4015357D01*
X-31195809Y4062976D01*
X-31148190Y4110595D01*
X-31100571Y4205833D01*
X-31100571Y4396309D01*
X-31148190Y4491547D01*
X-31195809Y4539166D01*
X-31291047Y4586785D01*
%TO.C,R10*%
X-15092738Y-19859380D02*
X-15426071Y-19383190D01*
X-15664166Y-19859380D02*
X-15664166Y-18859380D01*
X-15283214Y-18859380D01*
X-15187976Y-18907000D01*
X-15140357Y-18954619D01*
X-15092738Y-19049857D01*
X-15092738Y-19192714D01*
X-15140357Y-19287952D01*
X-15187976Y-19335571D01*
X-15283214Y-19383190D01*
X-15664166Y-19383190D01*
X-14140357Y-19859380D02*
X-14711785Y-19859380D01*
X-14426071Y-19859380D02*
X-14426071Y-18859380D01*
X-14521309Y-19002238D01*
X-14616547Y-19097476D01*
X-14711785Y-19145095D01*
X-13521309Y-18859380D02*
X-13426071Y-18859380D01*
X-13330833Y-18907000D01*
X-13283214Y-18954619D01*
X-13235595Y-19049857D01*
X-13187976Y-19240333D01*
X-13187976Y-19478428D01*
X-13235595Y-19668904D01*
X-13283214Y-19764142D01*
X-13330833Y-19811761D01*
X-13426071Y-19859380D01*
X-13521309Y-19859380D01*
X-13616547Y-19811761D01*
X-13664166Y-19764142D01*
X-13711785Y-19668904D01*
X-13759404Y-19478428D01*
X-13759404Y-19240333D01*
X-13711785Y-19049857D01*
X-13664166Y-18954619D01*
X-13616547Y-18907000D01*
X-13521309Y-18859380D01*
%TO.C,R16*%
X-28179619Y2682023D02*
X-28655809Y2348690D01*
X-28179619Y2110595D02*
X-29179619Y2110595D01*
X-29179619Y2491547D01*
X-29132000Y2586785D01*
X-29084380Y2634404D01*
X-28989142Y2682023D01*
X-28846285Y2682023D01*
X-28751047Y2634404D01*
X-28703428Y2586785D01*
X-28655809Y2491547D01*
X-28655809Y2110595D01*
X-28179619Y3634404D02*
X-28179619Y3062976D01*
X-28179619Y3348690D02*
X-29179619Y3348690D01*
X-29036761Y3253452D01*
X-28941523Y3158214D01*
X-28893904Y3062976D01*
X-29179619Y4491547D02*
X-29179619Y4301071D01*
X-29132000Y4205833D01*
X-29084380Y4158214D01*
X-28941523Y4062976D01*
X-28751047Y4015357D01*
X-28370095Y4015357D01*
X-28274857Y4062976D01*
X-28227238Y4110595D01*
X-28179619Y4205833D01*
X-28179619Y4396309D01*
X-28227238Y4491547D01*
X-28274857Y4539166D01*
X-28370095Y4586785D01*
X-28608190Y4586785D01*
X-28703428Y4539166D01*
X-28751047Y4491547D01*
X-28798666Y4396309D01*
X-28798666Y4205833D01*
X-28751047Y4110595D01*
X-28703428Y4062976D01*
X-28608190Y4015357D01*
%TO.C,R26*%
X-23667738Y9990619D02*
X-24001071Y10466809D01*
X-24239166Y9990619D02*
X-24239166Y10990619D01*
X-23858214Y10990619D01*
X-23762976Y10943000D01*
X-23715357Y10895380D01*
X-23667738Y10800142D01*
X-23667738Y10657285D01*
X-23715357Y10562047D01*
X-23762976Y10514428D01*
X-23858214Y10466809D01*
X-24239166Y10466809D01*
X-23286785Y10895380D02*
X-23239166Y10943000D01*
X-23143928Y10990619D01*
X-22905833Y10990619D01*
X-22810595Y10943000D01*
X-22762976Y10895380D01*
X-22715357Y10800142D01*
X-22715357Y10704904D01*
X-22762976Y10562047D01*
X-23334404Y9990619D01*
X-22715357Y9990619D01*
X-21858214Y10990619D02*
X-22048690Y10990619D01*
X-22143928Y10943000D01*
X-22191547Y10895380D01*
X-22286785Y10752523D01*
X-22334404Y10562047D01*
X-22334404Y10181095D01*
X-22286785Y10085857D01*
X-22239166Y10038238D01*
X-22143928Y9990619D01*
X-21953452Y9990619D01*
X-21858214Y10038238D01*
X-21810595Y10085857D01*
X-21762976Y10181095D01*
X-21762976Y10419190D01*
X-21810595Y10514428D01*
X-21858214Y10562047D01*
X-21953452Y10609666D01*
X-22143928Y10609666D01*
X-22239166Y10562047D01*
X-22286785Y10514428D01*
X-22334404Y10419190D01*
%TO.C,R18*%
X-19792738Y9840619D02*
X-20126071Y10316809D01*
X-20364166Y9840619D02*
X-20364166Y10840619D01*
X-19983214Y10840619D01*
X-19887976Y10793000D01*
X-19840357Y10745380D01*
X-19792738Y10650142D01*
X-19792738Y10507285D01*
X-19840357Y10412047D01*
X-19887976Y10364428D01*
X-19983214Y10316809D01*
X-20364166Y10316809D01*
X-18840357Y9840619D02*
X-19411785Y9840619D01*
X-19126071Y9840619D02*
X-19126071Y10840619D01*
X-19221309Y10697761D01*
X-19316547Y10602523D01*
X-19411785Y10554904D01*
X-18268928Y10412047D02*
X-18364166Y10459666D01*
X-18411785Y10507285D01*
X-18459404Y10602523D01*
X-18459404Y10650142D01*
X-18411785Y10745380D01*
X-18364166Y10793000D01*
X-18268928Y10840619D01*
X-18078452Y10840619D01*
X-17983214Y10793000D01*
X-17935595Y10745380D01*
X-17887976Y10650142D01*
X-17887976Y10602523D01*
X-17935595Y10507285D01*
X-17983214Y10459666D01*
X-18078452Y10412047D01*
X-18268928Y10412047D01*
X-18364166Y10364428D01*
X-18411785Y10316809D01*
X-18459404Y10221571D01*
X-18459404Y10031095D01*
X-18411785Y9935857D01*
X-18364166Y9888238D01*
X-18268928Y9840619D01*
X-18078452Y9840619D01*
X-17983214Y9888238D01*
X-17935595Y9935857D01*
X-17887976Y10031095D01*
X-17887976Y10221571D01*
X-17935595Y10316809D01*
X-17983214Y10364428D01*
X-18078452Y10412047D01*
%TO.C,R2*%
X1094380Y-6040357D02*
X618190Y-6373690D01*
X1094380Y-6611785D02*
X94380Y-6611785D01*
X94380Y-6230833D01*
X141999Y-6135595D01*
X189619Y-6087976D01*
X284857Y-6040357D01*
X427714Y-6040357D01*
X522952Y-6087976D01*
X570571Y-6135595D01*
X618190Y-6230833D01*
X618190Y-6611785D01*
X189619Y-5659404D02*
X141999Y-5611785D01*
X94380Y-5516547D01*
X94380Y-5278452D01*
X142000Y-5183214D01*
X189619Y-5135595D01*
X284857Y-5087976D01*
X380095Y-5087976D01*
X522952Y-5135595D01*
X1094380Y-5707023D01*
X1094380Y-5087976D01*
%TO.C,R9*%
X-9140357Y-19859380D02*
X-9473690Y-19383190D01*
X-9711785Y-19859380D02*
X-9711785Y-18859380D01*
X-9330833Y-18859380D01*
X-9235595Y-18907000D01*
X-9187976Y-18954619D01*
X-9140357Y-19049857D01*
X-9140357Y-19192714D01*
X-9187976Y-19287952D01*
X-9235595Y-19335571D01*
X-9330833Y-19383190D01*
X-9711785Y-19383190D01*
X-8664166Y-19859380D02*
X-8473690Y-19859380D01*
X-8378452Y-19811761D01*
X-8330833Y-19764142D01*
X-8235595Y-19621285D01*
X-8187976Y-19430809D01*
X-8187976Y-19049857D01*
X-8235595Y-18954619D01*
X-8283214Y-18907000D01*
X-8378452Y-18859380D01*
X-8568928Y-18859380D01*
X-8664166Y-18907000D01*
X-8711785Y-18954619D01*
X-8759404Y-19049857D01*
X-8759404Y-19287952D01*
X-8711785Y-19383190D01*
X-8664166Y-19430809D01*
X-8568928Y-19478428D01*
X-8378452Y-19478428D01*
X-8283214Y-19430809D01*
X-8235595Y-19383190D01*
X-8187976Y-19287952D01*
%TO.C,R15*%
X-25832738Y-8199380D02*
X-26166071Y-7723190D01*
X-26404166Y-8199380D02*
X-26404166Y-7199380D01*
X-26023214Y-7199380D01*
X-25927976Y-7247000D01*
X-25880357Y-7294619D01*
X-25832738Y-7389857D01*
X-25832738Y-7532714D01*
X-25880357Y-7627952D01*
X-25927976Y-7675571D01*
X-26023214Y-7723190D01*
X-26404166Y-7723190D01*
X-24880357Y-8199380D02*
X-25451785Y-8199380D01*
X-25166071Y-8199380D02*
X-25166071Y-7199380D01*
X-25261309Y-7342238D01*
X-25356547Y-7437476D01*
X-25451785Y-7485095D01*
X-23975595Y-7199380D02*
X-24451785Y-7199380D01*
X-24499404Y-7675571D01*
X-24451785Y-7627952D01*
X-24356547Y-7580333D01*
X-24118452Y-7580333D01*
X-24023214Y-7627952D01*
X-23975595Y-7675571D01*
X-23927976Y-7770809D01*
X-23927976Y-8008904D01*
X-23975595Y-8104142D01*
X-24023214Y-8151761D01*
X-24118452Y-8199380D01*
X-24356547Y-8199380D01*
X-24451785Y-8151761D01*
X-24499404Y-8104142D01*
%TO.C,R1*%
X3634380Y-6040357D02*
X3158190Y-6373690D01*
X3634380Y-6611785D02*
X2634380Y-6611785D01*
X2634380Y-6230833D01*
X2682000Y-6135595D01*
X2729619Y-6087976D01*
X2824857Y-6040357D01*
X2967714Y-6040357D01*
X3062952Y-6087976D01*
X3110571Y-6135595D01*
X3158190Y-6230833D01*
X3158190Y-6611785D01*
X3634380Y-5087976D02*
X3634380Y-5659404D01*
X3634380Y-5373690D02*
X2634380Y-5373690D01*
X2777238Y-5468928D01*
X2872476Y-5564166D01*
X2920095Y-5659404D01*
%TO.C,R17*%
X-40942738Y-19869380D02*
X-41276071Y-19393190D01*
X-41514166Y-19869380D02*
X-41514166Y-18869380D01*
X-41133214Y-18869380D01*
X-41037976Y-18917000D01*
X-40990357Y-18964619D01*
X-40942738Y-19059857D01*
X-40942738Y-19202714D01*
X-40990357Y-19297952D01*
X-41037976Y-19345571D01*
X-41133214Y-19393190D01*
X-41514166Y-19393190D01*
X-39990357Y-19869380D02*
X-40561785Y-19869380D01*
X-40276071Y-19869380D02*
X-40276071Y-18869380D01*
X-40371309Y-19012238D01*
X-40466547Y-19107476D01*
X-40561785Y-19155095D01*
X-39657023Y-18869380D02*
X-38990357Y-18869380D01*
X-39418928Y-19869380D01*
%TO.C,R8*%
X-4140357Y-19859380D02*
X-4473690Y-19383190D01*
X-4711785Y-19859380D02*
X-4711785Y-18859380D01*
X-4330833Y-18859380D01*
X-4235595Y-18907000D01*
X-4187976Y-18954619D01*
X-4140357Y-19049857D01*
X-4140357Y-19192714D01*
X-4187976Y-19287952D01*
X-4235595Y-19335571D01*
X-4330833Y-19383190D01*
X-4711785Y-19383190D01*
X-3568928Y-19287952D02*
X-3664166Y-19240333D01*
X-3711785Y-19192714D01*
X-3759404Y-19097476D01*
X-3759404Y-19049857D01*
X-3711785Y-18954619D01*
X-3664166Y-18907000D01*
X-3568928Y-18859380D01*
X-3378452Y-18859380D01*
X-3283214Y-18907000D01*
X-3235595Y-18954619D01*
X-3187976Y-19049857D01*
X-3187976Y-19097476D01*
X-3235595Y-19192714D01*
X-3283214Y-19240333D01*
X-3378452Y-19287952D01*
X-3568928Y-19287952D01*
X-3664166Y-19335571D01*
X-3711785Y-19383190D01*
X-3759404Y-19478428D01*
X-3759404Y-19668904D01*
X-3711785Y-19764142D01*
X-3664166Y-19811761D01*
X-3568928Y-19859380D01*
X-3378452Y-19859380D01*
X-3283214Y-19811761D01*
X-3235595Y-19764142D01*
X-3187976Y-19668904D01*
X-3187976Y-19478428D01*
X-3235595Y-19383190D01*
X-3283214Y-19335571D01*
X-3378452Y-19287952D01*
%TO.C,J5*%
X-41027619Y-24408333D02*
X-40313333Y-24408333D01*
X-40170476Y-24455952D01*
X-40075238Y-24551190D01*
X-40027619Y-24694047D01*
X-40027619Y-24789285D01*
X-41027619Y-23455952D02*
X-41027619Y-23932142D01*
X-40551428Y-23979761D01*
X-40599047Y-23932142D01*
X-40646666Y-23836904D01*
X-40646666Y-23598809D01*
X-40599047Y-23503571D01*
X-40551428Y-23455952D01*
X-40456190Y-23408333D01*
X-40218095Y-23408333D01*
X-40122857Y-23455952D01*
X-40075238Y-23503571D01*
X-40027619Y-23598809D01*
X-40027619Y-23836904D01*
X-40075238Y-23932142D01*
X-40122857Y-23979761D01*
%TO.C,J4*%
X2197380Y-19663333D02*
X2911666Y-19663333D01*
X3054523Y-19710952D01*
X3149761Y-19806190D01*
X3197380Y-19949047D01*
X3197380Y-20044285D01*
X2530714Y-18758571D02*
X3197380Y-18758571D01*
X2149761Y-18996666D02*
X2864047Y-19234761D01*
X2864047Y-18615714D01*
%TO.C,J3*%
X2197380Y-1883333D02*
X2911666Y-1883333D01*
X3054523Y-1930952D01*
X3149761Y-2026190D01*
X3197380Y-2169047D01*
X3197380Y-2264285D01*
X2197380Y-1502380D02*
X2197380Y-883333D01*
X2578333Y-1216666D01*
X2578333Y-1073809D01*
X2625952Y-978571D01*
X2673571Y-930952D01*
X2768809Y-883333D01*
X3006904Y-883333D01*
X3102142Y-930952D01*
X3149761Y-978571D01*
X3197380Y-1073809D01*
X3197380Y-1359523D01*
X3149761Y-1454761D01*
X3102142Y-1502380D01*
%TO.C,J2*%
X-60822619Y-2953333D02*
X-60108333Y-2953333D01*
X-59965476Y-3000952D01*
X-59870238Y-3096190D01*
X-59822619Y-3239047D01*
X-59822619Y-3334285D01*
X-60727380Y-2524761D02*
X-60775000Y-2477142D01*
X-60822619Y-2381904D01*
X-60822619Y-2143809D01*
X-60775000Y-2048571D01*
X-60727380Y-2000952D01*
X-60632142Y-1953333D01*
X-60536904Y-1953333D01*
X-60394047Y-2000952D01*
X-59822619Y-2572380D01*
X-59822619Y-1953333D01*
%TO.C,J6*%
X-69803333Y-24252380D02*
X-69803333Y-24966666D01*
X-69850952Y-25109523D01*
X-69946190Y-25204761D01*
X-70089047Y-25252380D01*
X-70184285Y-25252380D01*
X-68898571Y-24252380D02*
X-69089047Y-24252380D01*
X-69184285Y-24300000D01*
X-69231904Y-24347619D01*
X-69327142Y-24490476D01*
X-69374761Y-24680952D01*
X-69374761Y-25061904D01*
X-69327142Y-25157142D01*
X-69279523Y-25204761D01*
X-69184285Y-25252380D01*
X-68993809Y-25252380D01*
X-68898571Y-25204761D01*
X-68850952Y-25157142D01*
X-68803333Y-25061904D01*
X-68803333Y-24823809D01*
X-68850952Y-24728571D01*
X-68898571Y-24680952D01*
X-68993809Y-24633333D01*
X-69184285Y-24633333D01*
X-69279523Y-24680952D01*
X-69327142Y-24728571D01*
X-69374761Y-24823809D01*
%TD*%
M02*
