%TF.GenerationSoftware,KiCad,Pcbnew,(5.1.9)-1*%
%TF.CreationDate,2022-05-02T16:44:27-06:00*%
%TF.ProjectId,Resistor_Cali,52657369-7374-46f7-925f-43616c692e6b,rev?*%
%TF.SameCoordinates,Original*%
%TF.FileFunction,Soldermask,Bot*%
%TF.FilePolarity,Negative*%
%FSLAX46Y46*%
G04 Gerber Fmt 4.6, Leading zero omitted, Abs format (unit mm)*
G04 Created by KiCad (PCBNEW (5.1.9)-1) date 2022-05-02 16:44:27*
%MOMM*%
%LPD*%
G01*
G04 APERTURE LIST*
%ADD10C,2.200000*%
%ADD11C,2.000000*%
%ADD12O,1.700000X1.700000*%
%ADD13R,1.700000X1.700000*%
%ADD14C,3.810000*%
%ADD15R,1.520000X1.520000*%
%ADD16C,1.520000*%
G04 APERTURE END LIST*
D10*
%TO.C,J1*%
X-7030000Y3410000D03*
X-12130000Y3410000D03*
X-12130000Y8510000D03*
X-7030000Y8510000D03*
D11*
X-9580000Y5960000D03*
%TD*%
D12*
%TO.C,J5*%
X-50000Y-24075000D03*
X-2590000Y-24075000D03*
X-5130000Y-24075000D03*
X-7670000Y-24075000D03*
X-10210000Y-24075000D03*
X-12750000Y-24075000D03*
X-15290000Y-24075000D03*
X-17830000Y-24075000D03*
X-20370000Y-24075000D03*
X-22910000Y-24075000D03*
X-25450000Y-24075000D03*
X-27990000Y-24075000D03*
X-30530000Y-24075000D03*
X-33070000Y-24075000D03*
X-35610000Y-24075000D03*
D13*
X-38150000Y-24075000D03*
%TD*%
D12*
%TO.C,J4*%
X-48285000Y-19330000D03*
X-45745000Y-19330000D03*
X-43205000Y-19330000D03*
X-40665000Y-19330000D03*
X-38125000Y-19330000D03*
X-35585000Y-19330000D03*
X-33045000Y-19330000D03*
X-30505000Y-19330000D03*
X-27965000Y-19330000D03*
X-25425000Y-19330000D03*
X-22885000Y-19330000D03*
X-20345000Y-19330000D03*
X-17805000Y-19330000D03*
X-15265000Y-19330000D03*
X-12725000Y-19330000D03*
X-10185000Y-19330000D03*
X-7645000Y-19330000D03*
X-5105000Y-19330000D03*
X-2565000Y-19330000D03*
D13*
X-25000Y-19330000D03*
%TD*%
D12*
%TO.C,J3*%
X-48285000Y-1550000D03*
X-45745000Y-1550000D03*
X-43205000Y-1550000D03*
X-40665000Y-1550000D03*
X-38125000Y-1550000D03*
X-35585000Y-1550000D03*
X-33045000Y-1550000D03*
X-30505000Y-1550000D03*
X-27965000Y-1550000D03*
X-25425000Y-1550000D03*
X-22885000Y-1550000D03*
X-20345000Y-1550000D03*
X-17805000Y-1550000D03*
X-15265000Y-1550000D03*
X-12725000Y-1550000D03*
X-10185000Y-1550000D03*
X-7645000Y-1550000D03*
X-5105000Y-1550000D03*
X-2565000Y-1550000D03*
D13*
X-25000Y-1550000D03*
%TD*%
D14*
%TO.C,J2*%
X-64975000Y3730000D03*
X-64975000Y-21290000D03*
D15*
X-63575000Y-14180000D03*
D16*
X-63575000Y-11510000D03*
X-63575000Y-8720000D03*
X-63575000Y-6050000D03*
X-63575000Y-3260000D03*
X-66365000Y-12910000D03*
X-66365000Y-10120000D03*
X-66365000Y-7450000D03*
X-66365000Y-4650000D03*
%TD*%
D13*
%TO.C,J6*%
X-65090000Y-27570000D03*
%TD*%
M02*
