M48
; DRILL file {KiCad (5.1.9)-1} date 05/02/22 16:44:29
; FORMAT={-:-/ absolute / metric / decimal}
; #@! TF.CreationDate,2022-05-02T16:44:29-06:00
; #@! TF.GenerationSoftware,Kicad,Pcbnew,(5.1.9)-1
; #@! TF.FileFunction,Plated,1,2,PTH
FMAT,2
METRIC
T1C0.400
T2C1.000
T3C1.020
T4C1.350
T5C1.500
T6C3.050
%
G90
G05
T1
X-52.11Y11.82
X-49.52Y-31.55
X-49.43Y11.87
X-44.54Y-31.55
X-44.43Y11.87
X-39.43Y11.87
X-35.95Y-15.67
X-34.43Y11.87
X-30.62Y-15.69
X-29.43Y11.87
X-25.29Y-16.19
X-24.43Y11.87
X-20.37Y-16.2
X-19.43Y11.87
X-15.39Y-16.2
X-10.44Y-16.2
X-5.51Y-16.19
X0.41Y-16.07
T2
X-65.09Y-27.57
X-48.285Y-1.55
X-48.285Y-19.33
X-45.745Y-1.55
X-45.745Y-19.33
X-43.205Y-1.55
X-43.205Y-19.33
X-40.665Y-1.55
X-40.665Y-19.33
X-38.15Y-24.075
X-38.125Y-1.55
X-38.125Y-19.33
X-35.61Y-24.075
X-35.585Y-1.55
X-35.585Y-19.33
X-33.07Y-24.075
X-33.045Y-1.55
X-33.045Y-19.33
X-30.53Y-24.075
X-30.505Y-1.55
X-30.505Y-19.33
X-27.99Y-24.075
X-27.965Y-1.55
X-27.965Y-19.33
X-25.45Y-24.075
X-25.425Y-1.55
X-25.425Y-19.33
X-22.91Y-24.075
X-22.885Y-1.55
X-22.885Y-19.33
X-20.37Y-24.075
X-20.345Y-1.55
X-20.345Y-19.33
X-17.83Y-24.075
X-17.805Y-1.55
X-17.805Y-19.33
X-15.29Y-24.075
X-15.265Y-1.55
X-15.265Y-19.33
X-12.75Y-24.075
X-12.725Y-1.55
X-12.725Y-19.33
X-10.21Y-24.075
X-10.185Y-1.55
X-10.185Y-19.33
X-7.67Y-24.075
X-7.645Y-1.55
X-7.645Y-19.33
X-5.13Y-24.075
X-5.105Y-1.55
X-5.105Y-19.33
X-2.59Y-24.075
X-2.565Y-1.55
X-2.565Y-19.33
X-0.05Y-24.075
X-0.025Y-1.55
X-0.025Y-19.33
T3
X-66.365Y-4.65
X-66.365Y-7.45
X-66.365Y-10.12
X-66.365Y-12.91
X-63.575Y-3.26
X-63.575Y-6.05
X-63.575Y-8.72
X-63.575Y-11.51
X-63.575Y-14.18
T4
X-9.58Y5.96
T5
X-12.13Y8.51
X-12.13Y3.41
X-7.03Y8.51
X-7.03Y3.41
T6
X-64.975Y3.73
X-64.975Y-21.29
T0
M30
