%TF.GenerationSoftware,KiCad,Pcbnew,(5.1.9)-1*%
%TF.CreationDate,2022-05-02T16:44:27-06:00*%
%TF.ProjectId,Resistor_Cali,52657369-7374-46f7-925f-43616c692e6b,rev?*%
%TF.SameCoordinates,Original*%
%TF.FileFunction,Paste,Top*%
%TF.FilePolarity,Positive*%
%FSLAX46Y46*%
G04 Gerber Fmt 4.6, Leading zero omitted, Abs format (unit mm)*
G04 Created by KiCad (PCBNEW (5.1.9)-1) date 2022-05-02 16:44:27*
%MOMM*%
%LPD*%
G01*
G04 APERTURE LIST*
%ADD10C,0.120000*%
%ADD11R,0.800000X1.300000*%
%ADD12R,0.864000X0.806000*%
%ADD13R,1.377000X1.133000*%
%ADD14R,1.133000X1.377000*%
%ADD15R,0.806000X0.864000*%
G04 APERTURE END LIST*
D10*
%TO.C,R25*%
G36*
X-48735000Y2970000D02*
G01*
X-48735000Y2170000D01*
X-48685000Y2120000D01*
X-48457000Y2120000D01*
X-48457000Y2490000D01*
X-48127000Y2490000D01*
X-48127000Y2120000D01*
X-47885000Y2120000D01*
X-47835000Y2170000D01*
X-47835000Y2970000D01*
X-47885000Y3020000D01*
X-48685000Y3020000D01*
X-48735000Y2970000D01*
G37*
X-48735000Y2970000D02*
X-48735000Y2170000D01*
X-48685000Y2120000D01*
X-48457000Y2120000D01*
X-48457000Y2490000D01*
X-48127000Y2490000D01*
X-48127000Y2120000D01*
X-47885000Y2120000D01*
X-47835000Y2170000D01*
X-47835000Y2970000D01*
X-47885000Y3020000D01*
X-48685000Y3020000D01*
X-48735000Y2970000D01*
G36*
X-48685000Y1420000D02*
G01*
X-48457000Y1420000D01*
X-48457000Y1040000D01*
X-48127000Y1040000D01*
X-48127000Y1420000D01*
X-47885000Y1420000D01*
X-47835000Y1370000D01*
X-47835000Y580000D01*
X-47885000Y530000D01*
X-48685000Y530000D01*
X-48735000Y580000D01*
X-48735000Y1370000D01*
X-48685000Y1420000D01*
G37*
X-48685000Y1420000D02*
X-48457000Y1420000D01*
X-48457000Y1040000D01*
X-48127000Y1040000D01*
X-48127000Y1420000D01*
X-47885000Y1420000D01*
X-47835000Y1370000D01*
X-47835000Y580000D01*
X-47885000Y530000D01*
X-48685000Y530000D01*
X-48735000Y580000D01*
X-48735000Y1370000D01*
X-48685000Y1420000D01*
%TO.C,R32*%
G36*
X-56190000Y10650000D02*
G01*
X-54910000Y10650000D01*
X-54860000Y10600000D01*
X-54860000Y9450000D01*
X-54910000Y9400000D01*
X-55320000Y9395000D01*
X-55320000Y9845000D01*
X-55770000Y9845000D01*
X-55770000Y9405000D01*
X-56190000Y9400000D01*
X-56240000Y9450000D01*
X-56240000Y10600000D01*
X-56190000Y10650000D01*
G37*
X-56190000Y10650000D02*
X-54910000Y10650000D01*
X-54860000Y10600000D01*
X-54860000Y9450000D01*
X-54910000Y9400000D01*
X-55320000Y9395000D01*
X-55320000Y9845000D01*
X-55770000Y9845000D01*
X-55770000Y9405000D01*
X-56190000Y9400000D01*
X-56240000Y9450000D01*
X-56240000Y10600000D01*
X-56190000Y10650000D01*
G36*
X-56190000Y8500000D02*
G01*
X-55770000Y8500000D01*
X-55770000Y8055000D01*
X-55320000Y8055000D01*
X-55320000Y8495000D01*
X-54910000Y8500000D01*
X-54860000Y8450000D01*
X-54860000Y7300000D01*
X-54910000Y7250000D01*
X-56190000Y7250000D01*
X-56240000Y7300000D01*
X-56240000Y8450000D01*
X-56190000Y8500000D01*
G37*
X-56190000Y8500000D02*
X-55770000Y8500000D01*
X-55770000Y8055000D01*
X-55320000Y8055000D01*
X-55320000Y8495000D01*
X-54910000Y8500000D01*
X-54860000Y8450000D01*
X-54860000Y7300000D01*
X-54910000Y7250000D01*
X-56190000Y7250000D01*
X-56240000Y7300000D01*
X-56240000Y8450000D01*
X-56190000Y8500000D01*
%TO.C,R24*%
G36*
X-46195000Y2970000D02*
G01*
X-46195000Y2170000D01*
X-46145000Y2120000D01*
X-45917000Y2120000D01*
X-45917000Y2490000D01*
X-45587000Y2490000D01*
X-45587000Y2120000D01*
X-45345000Y2120000D01*
X-45295000Y2170000D01*
X-45295000Y2970000D01*
X-45345000Y3020000D01*
X-46145000Y3020000D01*
X-46195000Y2970000D01*
G37*
X-46195000Y2970000D02*
X-46195000Y2170000D01*
X-46145000Y2120000D01*
X-45917000Y2120000D01*
X-45917000Y2490000D01*
X-45587000Y2490000D01*
X-45587000Y2120000D01*
X-45345000Y2120000D01*
X-45295000Y2170000D01*
X-45295000Y2970000D01*
X-45345000Y3020000D01*
X-46145000Y3020000D01*
X-46195000Y2970000D01*
G36*
X-46145000Y1420000D02*
G01*
X-45917000Y1420000D01*
X-45917000Y1040000D01*
X-45587000Y1040000D01*
X-45587000Y1420000D01*
X-45345000Y1420000D01*
X-45295000Y1370000D01*
X-45295000Y580000D01*
X-45345000Y530000D01*
X-46145000Y530000D01*
X-46195000Y580000D01*
X-46195000Y1370000D01*
X-46145000Y1420000D01*
G37*
X-46145000Y1420000D02*
X-45917000Y1420000D01*
X-45917000Y1040000D01*
X-45587000Y1040000D01*
X-45587000Y1420000D01*
X-45345000Y1420000D01*
X-45295000Y1370000D01*
X-45295000Y580000D01*
X-45345000Y530000D01*
X-46145000Y530000D01*
X-46195000Y580000D01*
X-46195000Y1370000D01*
X-46145000Y1420000D01*
%TO.C,R7*%
G36*
X-19870000Y-6065000D02*
G01*
X-19870000Y-5265000D01*
X-19920000Y-5215000D01*
X-20148000Y-5215000D01*
X-20148000Y-5585000D01*
X-20478000Y-5585000D01*
X-20478000Y-5215000D01*
X-20720000Y-5215000D01*
X-20770000Y-5265000D01*
X-20770000Y-6065000D01*
X-20720000Y-6115000D01*
X-19920000Y-6115000D01*
X-19870000Y-6065000D01*
G37*
X-19870000Y-6065000D02*
X-19870000Y-5265000D01*
X-19920000Y-5215000D01*
X-20148000Y-5215000D01*
X-20148000Y-5585000D01*
X-20478000Y-5585000D01*
X-20478000Y-5215000D01*
X-20720000Y-5215000D01*
X-20770000Y-5265000D01*
X-20770000Y-6065000D01*
X-20720000Y-6115000D01*
X-19920000Y-6115000D01*
X-19870000Y-6065000D01*
G36*
X-19920000Y-4515000D02*
G01*
X-20148000Y-4515000D01*
X-20148000Y-4135000D01*
X-20478000Y-4135000D01*
X-20478000Y-4515000D01*
X-20720000Y-4515000D01*
X-20770000Y-4465000D01*
X-20770000Y-3675000D01*
X-20720000Y-3625000D01*
X-19920000Y-3625000D01*
X-19870000Y-3675000D01*
X-19870000Y-4465000D01*
X-19920000Y-4515000D01*
G37*
X-19920000Y-4515000D02*
X-20148000Y-4515000D01*
X-20148000Y-4135000D01*
X-20478000Y-4135000D01*
X-20478000Y-4515000D01*
X-20720000Y-4515000D01*
X-20770000Y-4465000D01*
X-20770000Y-3675000D01*
X-20720000Y-3625000D01*
X-19920000Y-3625000D01*
X-19870000Y-3675000D01*
X-19870000Y-4465000D01*
X-19920000Y-4515000D01*
%TO.C,R31*%
G36*
X-58700000Y10650000D02*
G01*
X-57420000Y10650000D01*
X-57370000Y10600000D01*
X-57370000Y9450000D01*
X-57420000Y9400000D01*
X-57830000Y9395000D01*
X-57830000Y9845000D01*
X-58280000Y9845000D01*
X-58280000Y9405000D01*
X-58700000Y9400000D01*
X-58750000Y9450000D01*
X-58750000Y10600000D01*
X-58700000Y10650000D01*
G37*
X-58700000Y10650000D02*
X-57420000Y10650000D01*
X-57370000Y10600000D01*
X-57370000Y9450000D01*
X-57420000Y9400000D01*
X-57830000Y9395000D01*
X-57830000Y9845000D01*
X-58280000Y9845000D01*
X-58280000Y9405000D01*
X-58700000Y9400000D01*
X-58750000Y9450000D01*
X-58750000Y10600000D01*
X-58700000Y10650000D01*
G36*
X-58700000Y8500000D02*
G01*
X-58280000Y8500000D01*
X-58280000Y8055000D01*
X-57830000Y8055000D01*
X-57830000Y8495000D01*
X-57420000Y8500000D01*
X-57370000Y8450000D01*
X-57370000Y7300000D01*
X-57420000Y7250000D01*
X-58700000Y7250000D01*
X-58750000Y7300000D01*
X-58750000Y8450000D01*
X-58700000Y8500000D01*
G37*
X-58700000Y8500000D02*
X-58280000Y8500000D01*
X-58280000Y8055000D01*
X-57830000Y8055000D01*
X-57830000Y8495000D01*
X-57420000Y8500000D01*
X-57370000Y8450000D01*
X-57370000Y7300000D01*
X-57420000Y7250000D01*
X-58700000Y7250000D01*
X-58750000Y7300000D01*
X-58750000Y8450000D01*
X-58700000Y8500000D01*
%TO.C,R14*%
G36*
X-31410000Y-15440000D02*
G01*
X-31410000Y-16720000D01*
X-31460000Y-16770000D01*
X-32610000Y-16770000D01*
X-32660000Y-16720000D01*
X-32665000Y-16310000D01*
X-32215000Y-16310000D01*
X-32215000Y-15860000D01*
X-32655000Y-15860000D01*
X-32660000Y-15440000D01*
X-32610000Y-15390000D01*
X-31460000Y-15390000D01*
X-31410000Y-15440000D01*
G37*
X-31410000Y-15440000D02*
X-31410000Y-16720000D01*
X-31460000Y-16770000D01*
X-32610000Y-16770000D01*
X-32660000Y-16720000D01*
X-32665000Y-16310000D01*
X-32215000Y-16310000D01*
X-32215000Y-15860000D01*
X-32655000Y-15860000D01*
X-32660000Y-15440000D01*
X-32610000Y-15390000D01*
X-31460000Y-15390000D01*
X-31410000Y-15440000D01*
G36*
X-33560000Y-15440000D02*
G01*
X-33560000Y-15860000D01*
X-34005000Y-15860000D01*
X-34005000Y-16310000D01*
X-33565000Y-16310000D01*
X-33560000Y-16720000D01*
X-33610000Y-16770000D01*
X-34760000Y-16770000D01*
X-34810000Y-16720000D01*
X-34810000Y-15440000D01*
X-34760000Y-15390000D01*
X-33610000Y-15390000D01*
X-33560000Y-15440000D01*
G37*
X-33560000Y-15440000D02*
X-33560000Y-15860000D01*
X-34005000Y-15860000D01*
X-34005000Y-16310000D01*
X-33565000Y-16310000D01*
X-33560000Y-16720000D01*
X-33610000Y-16770000D01*
X-34760000Y-16770000D01*
X-34810000Y-16720000D01*
X-34810000Y-15440000D01*
X-34760000Y-15390000D01*
X-33610000Y-15390000D01*
X-33560000Y-15440000D01*
%TO.C,R23*%
G36*
X-41115000Y2970000D02*
G01*
X-41115000Y2170000D01*
X-41065000Y2120000D01*
X-40837000Y2120000D01*
X-40837000Y2490000D01*
X-40507000Y2490000D01*
X-40507000Y2120000D01*
X-40265000Y2120000D01*
X-40215000Y2170000D01*
X-40215000Y2970000D01*
X-40265000Y3020000D01*
X-41065000Y3020000D01*
X-41115000Y2970000D01*
G37*
X-41115000Y2970000D02*
X-41115000Y2170000D01*
X-41065000Y2120000D01*
X-40837000Y2120000D01*
X-40837000Y2490000D01*
X-40507000Y2490000D01*
X-40507000Y2120000D01*
X-40265000Y2120000D01*
X-40215000Y2170000D01*
X-40215000Y2970000D01*
X-40265000Y3020000D01*
X-41065000Y3020000D01*
X-41115000Y2970000D01*
G36*
X-41065000Y1420000D02*
G01*
X-40837000Y1420000D01*
X-40837000Y1040000D01*
X-40507000Y1040000D01*
X-40507000Y1420000D01*
X-40265000Y1420000D01*
X-40215000Y1370000D01*
X-40215000Y580000D01*
X-40265000Y530000D01*
X-41065000Y530000D01*
X-41115000Y580000D01*
X-41115000Y1370000D01*
X-41065000Y1420000D01*
G37*
X-41065000Y1420000D02*
X-40837000Y1420000D01*
X-40837000Y1040000D01*
X-40507000Y1040000D01*
X-40507000Y1420000D01*
X-40265000Y1420000D01*
X-40215000Y1370000D01*
X-40215000Y580000D01*
X-40265000Y530000D01*
X-41065000Y530000D01*
X-41115000Y580000D01*
X-41115000Y1370000D01*
X-41065000Y1420000D01*
%TO.C,R6*%
G36*
X-17195000Y-4800000D02*
G01*
X-16395000Y-4800000D01*
X-16345000Y-4750000D01*
X-16345000Y-4522000D01*
X-16715000Y-4522000D01*
X-16715000Y-4192000D01*
X-16345000Y-4192000D01*
X-16345000Y-3950000D01*
X-16395000Y-3900000D01*
X-17195000Y-3900000D01*
X-17245000Y-3950000D01*
X-17245000Y-4750000D01*
X-17195000Y-4800000D01*
G37*
X-17195000Y-4800000D02*
X-16395000Y-4800000D01*
X-16345000Y-4750000D01*
X-16345000Y-4522000D01*
X-16715000Y-4522000D01*
X-16715000Y-4192000D01*
X-16345000Y-4192000D01*
X-16345000Y-3950000D01*
X-16395000Y-3900000D01*
X-17195000Y-3900000D01*
X-17245000Y-3950000D01*
X-17245000Y-4750000D01*
X-17195000Y-4800000D01*
G36*
X-15645000Y-4750000D02*
G01*
X-15645000Y-4522000D01*
X-15265000Y-4522000D01*
X-15265000Y-4192000D01*
X-15645000Y-4192000D01*
X-15645000Y-3950000D01*
X-15595000Y-3900000D01*
X-14805000Y-3900000D01*
X-14755000Y-3950000D01*
X-14755000Y-4750000D01*
X-14805000Y-4800000D01*
X-15595000Y-4800000D01*
X-15645000Y-4750000D01*
G37*
X-15645000Y-4750000D02*
X-15645000Y-4522000D01*
X-15265000Y-4522000D01*
X-15265000Y-4192000D01*
X-15645000Y-4192000D01*
X-15645000Y-3950000D01*
X-15595000Y-3900000D01*
X-14805000Y-3900000D01*
X-14755000Y-3950000D01*
X-14755000Y-4750000D01*
X-14805000Y-4800000D01*
X-15595000Y-4800000D01*
X-15645000Y-4750000D01*
%TO.C,R30*%
G36*
X-42674400Y13175000D02*
G01*
X-41874400Y13175000D01*
X-41824400Y13225000D01*
X-41824400Y13453000D01*
X-42194400Y13453000D01*
X-42194400Y13783000D01*
X-41824400Y13783000D01*
X-41824400Y14025000D01*
X-41874400Y14075000D01*
X-42674400Y14075000D01*
X-42724400Y14025000D01*
X-42724400Y13225000D01*
X-42674400Y13175000D01*
G37*
X-42674400Y13175000D02*
X-41874400Y13175000D01*
X-41824400Y13225000D01*
X-41824400Y13453000D01*
X-42194400Y13453000D01*
X-42194400Y13783000D01*
X-41824400Y13783000D01*
X-41824400Y14025000D01*
X-41874400Y14075000D01*
X-42674400Y14075000D01*
X-42724400Y14025000D01*
X-42724400Y13225000D01*
X-42674400Y13175000D01*
G36*
X-41124400Y13225000D02*
G01*
X-41124400Y13453000D01*
X-40744400Y13453000D01*
X-40744400Y13783000D01*
X-41124400Y13783000D01*
X-41124400Y14025000D01*
X-41074400Y14075000D01*
X-40284400Y14075000D01*
X-40234400Y14025000D01*
X-40234400Y13225000D01*
X-40284400Y13175000D01*
X-41074400Y13175000D01*
X-41124400Y13225000D01*
G37*
X-41124400Y13225000D02*
X-41124400Y13453000D01*
X-40744400Y13453000D01*
X-40744400Y13783000D01*
X-41124400Y13783000D01*
X-41124400Y14025000D01*
X-41074400Y14075000D01*
X-40284400Y14075000D01*
X-40234400Y14025000D01*
X-40234400Y13225000D01*
X-40284400Y13175000D01*
X-41074400Y13175000D01*
X-41124400Y13225000D01*
%TO.C,R13*%
G36*
X-26420000Y-15420000D02*
G01*
X-26420000Y-16700000D01*
X-26470000Y-16750000D01*
X-27620000Y-16750000D01*
X-27670000Y-16700000D01*
X-27675000Y-16290000D01*
X-27225000Y-16290000D01*
X-27225000Y-15840000D01*
X-27665000Y-15840000D01*
X-27670000Y-15420000D01*
X-27620000Y-15370000D01*
X-26470000Y-15370000D01*
X-26420000Y-15420000D01*
G37*
X-26420000Y-15420000D02*
X-26420000Y-16700000D01*
X-26470000Y-16750000D01*
X-27620000Y-16750000D01*
X-27670000Y-16700000D01*
X-27675000Y-16290000D01*
X-27225000Y-16290000D01*
X-27225000Y-15840000D01*
X-27665000Y-15840000D01*
X-27670000Y-15420000D01*
X-27620000Y-15370000D01*
X-26470000Y-15370000D01*
X-26420000Y-15420000D01*
G36*
X-28570000Y-15420000D02*
G01*
X-28570000Y-15840000D01*
X-29015000Y-15840000D01*
X-29015000Y-16290000D01*
X-28575000Y-16290000D01*
X-28570000Y-16700000D01*
X-28620000Y-16750000D01*
X-29770000Y-16750000D01*
X-29820000Y-16700000D01*
X-29820000Y-15420000D01*
X-29770000Y-15370000D01*
X-28620000Y-15370000D01*
X-28570000Y-15420000D01*
G37*
X-28570000Y-15420000D02*
X-28570000Y-15840000D01*
X-29015000Y-15840000D01*
X-29015000Y-16290000D01*
X-28575000Y-16290000D01*
X-28570000Y-16700000D01*
X-28620000Y-16750000D01*
X-29770000Y-16750000D01*
X-29820000Y-16700000D01*
X-29820000Y-15420000D01*
X-29770000Y-15370000D01*
X-28620000Y-15370000D01*
X-28570000Y-15420000D01*
%TO.C,R22*%
G36*
X-38575000Y2970000D02*
G01*
X-38575000Y2170000D01*
X-38525000Y2120000D01*
X-38297000Y2120000D01*
X-38297000Y2490000D01*
X-37967000Y2490000D01*
X-37967000Y2120000D01*
X-37725000Y2120000D01*
X-37675000Y2170000D01*
X-37675000Y2970000D01*
X-37725000Y3020000D01*
X-38525000Y3020000D01*
X-38575000Y2970000D01*
G37*
X-38575000Y2970000D02*
X-38575000Y2170000D01*
X-38525000Y2120000D01*
X-38297000Y2120000D01*
X-38297000Y2490000D01*
X-37967000Y2490000D01*
X-37967000Y2120000D01*
X-37725000Y2120000D01*
X-37675000Y2170000D01*
X-37675000Y2970000D01*
X-37725000Y3020000D01*
X-38525000Y3020000D01*
X-38575000Y2970000D01*
G36*
X-38525000Y1420000D02*
G01*
X-38297000Y1420000D01*
X-38297000Y1040000D01*
X-37967000Y1040000D01*
X-37967000Y1420000D01*
X-37725000Y1420000D01*
X-37675000Y1370000D01*
X-37675000Y580000D01*
X-37725000Y530000D01*
X-38525000Y530000D01*
X-38575000Y580000D01*
X-38575000Y1370000D01*
X-38525000Y1420000D01*
G37*
X-38525000Y1420000D02*
X-38297000Y1420000D01*
X-38297000Y1040000D01*
X-37967000Y1040000D01*
X-37967000Y1420000D01*
X-37725000Y1420000D01*
X-37675000Y1370000D01*
X-37675000Y580000D01*
X-37725000Y530000D01*
X-38525000Y530000D01*
X-38575000Y580000D01*
X-38575000Y1370000D01*
X-38525000Y1420000D01*
%TO.C,R34*%
G36*
X-45295000Y-23525000D02*
G01*
X-45295000Y-22725000D01*
X-45345000Y-22675000D01*
X-45573000Y-22675000D01*
X-45573000Y-23045000D01*
X-45903000Y-23045000D01*
X-45903000Y-22675000D01*
X-46145000Y-22675000D01*
X-46195000Y-22725000D01*
X-46195000Y-23525000D01*
X-46145000Y-23575000D01*
X-45345000Y-23575000D01*
X-45295000Y-23525000D01*
G37*
X-45295000Y-23525000D02*
X-45295000Y-22725000D01*
X-45345000Y-22675000D01*
X-45573000Y-22675000D01*
X-45573000Y-23045000D01*
X-45903000Y-23045000D01*
X-45903000Y-22675000D01*
X-46145000Y-22675000D01*
X-46195000Y-22725000D01*
X-46195000Y-23525000D01*
X-46145000Y-23575000D01*
X-45345000Y-23575000D01*
X-45295000Y-23525000D01*
G36*
X-45345000Y-21975000D02*
G01*
X-45573000Y-21975000D01*
X-45573000Y-21595000D01*
X-45903000Y-21595000D01*
X-45903000Y-21975000D01*
X-46145000Y-21975000D01*
X-46195000Y-21925000D01*
X-46195000Y-21135000D01*
X-46145000Y-21085000D01*
X-45345000Y-21085000D01*
X-45295000Y-21135000D01*
X-45295000Y-21925000D01*
X-45345000Y-21975000D01*
G37*
X-45345000Y-21975000D02*
X-45573000Y-21975000D01*
X-45573000Y-21595000D01*
X-45903000Y-21595000D01*
X-45903000Y-21975000D01*
X-46145000Y-21975000D01*
X-46195000Y-21925000D01*
X-46195000Y-21135000D01*
X-46145000Y-21085000D01*
X-45345000Y-21085000D01*
X-45295000Y-21135000D01*
X-45295000Y-21925000D01*
X-45345000Y-21975000D01*
%TO.C,R29*%
G36*
X-37619800Y13179000D02*
G01*
X-36819800Y13179000D01*
X-36769800Y13229000D01*
X-36769800Y13457000D01*
X-37139800Y13457000D01*
X-37139800Y13787000D01*
X-36769800Y13787000D01*
X-36769800Y14029000D01*
X-36819800Y14079000D01*
X-37619800Y14079000D01*
X-37669800Y14029000D01*
X-37669800Y13229000D01*
X-37619800Y13179000D01*
G37*
X-37619800Y13179000D02*
X-36819800Y13179000D01*
X-36769800Y13229000D01*
X-36769800Y13457000D01*
X-37139800Y13457000D01*
X-37139800Y13787000D01*
X-36769800Y13787000D01*
X-36769800Y14029000D01*
X-36819800Y14079000D01*
X-37619800Y14079000D01*
X-37669800Y14029000D01*
X-37669800Y13229000D01*
X-37619800Y13179000D01*
G36*
X-36069800Y13229000D02*
G01*
X-36069800Y13457000D01*
X-35689800Y13457000D01*
X-35689800Y13787000D01*
X-36069800Y13787000D01*
X-36069800Y14029000D01*
X-36019800Y14079000D01*
X-35229800Y14079000D01*
X-35179800Y14029000D01*
X-35179800Y13229000D01*
X-35229800Y13179000D01*
X-36019800Y13179000D01*
X-36069800Y13229000D01*
G37*
X-36069800Y13229000D02*
X-36069800Y13457000D01*
X-35689800Y13457000D01*
X-35689800Y13787000D01*
X-36069800Y13787000D01*
X-36069800Y14029000D01*
X-36019800Y14079000D01*
X-35229800Y14079000D01*
X-35179800Y14029000D01*
X-35179800Y13229000D01*
X-35229800Y13179000D01*
X-36019800Y13179000D01*
X-36069800Y13229000D01*
%TO.C,R5*%
G36*
X-12275000Y-5995000D02*
G01*
X-12275000Y-5195000D01*
X-12325000Y-5145000D01*
X-12553000Y-5145000D01*
X-12553000Y-5515000D01*
X-12883000Y-5515000D01*
X-12883000Y-5145000D01*
X-13125000Y-5145000D01*
X-13175000Y-5195000D01*
X-13175000Y-5995000D01*
X-13125000Y-6045000D01*
X-12325000Y-6045000D01*
X-12275000Y-5995000D01*
G37*
X-12275000Y-5995000D02*
X-12275000Y-5195000D01*
X-12325000Y-5145000D01*
X-12553000Y-5145000D01*
X-12553000Y-5515000D01*
X-12883000Y-5515000D01*
X-12883000Y-5145000D01*
X-13125000Y-5145000D01*
X-13175000Y-5195000D01*
X-13175000Y-5995000D01*
X-13125000Y-6045000D01*
X-12325000Y-6045000D01*
X-12275000Y-5995000D01*
G36*
X-12325000Y-4445000D02*
G01*
X-12553000Y-4445000D01*
X-12553000Y-4065000D01*
X-12883000Y-4065000D01*
X-12883000Y-4445000D01*
X-13125000Y-4445000D01*
X-13175000Y-4395000D01*
X-13175000Y-3605000D01*
X-13125000Y-3555000D01*
X-12325000Y-3555000D01*
X-12275000Y-3605000D01*
X-12275000Y-4395000D01*
X-12325000Y-4445000D01*
G37*
X-12325000Y-4445000D02*
X-12553000Y-4445000D01*
X-12553000Y-4065000D01*
X-12883000Y-4065000D01*
X-12883000Y-4445000D01*
X-13125000Y-4445000D01*
X-13175000Y-4395000D01*
X-13175000Y-3605000D01*
X-13125000Y-3555000D01*
X-12325000Y-3555000D01*
X-12275000Y-3605000D01*
X-12275000Y-4395000D01*
X-12325000Y-4445000D01*
%TO.C,R36*%
G36*
X-47720000Y-33900000D02*
G01*
X-46920000Y-33900000D01*
X-46870000Y-33850000D01*
X-46870000Y-33622000D01*
X-47240000Y-33622000D01*
X-47240000Y-33292000D01*
X-46870000Y-33292000D01*
X-46870000Y-33050000D01*
X-46920000Y-33000000D01*
X-47720000Y-33000000D01*
X-47770000Y-33050000D01*
X-47770000Y-33850000D01*
X-47720000Y-33900000D01*
G37*
X-47720000Y-33900000D02*
X-46920000Y-33900000D01*
X-46870000Y-33850000D01*
X-46870000Y-33622000D01*
X-47240000Y-33622000D01*
X-47240000Y-33292000D01*
X-46870000Y-33292000D01*
X-46870000Y-33050000D01*
X-46920000Y-33000000D01*
X-47720000Y-33000000D01*
X-47770000Y-33050000D01*
X-47770000Y-33850000D01*
X-47720000Y-33900000D01*
G36*
X-46170000Y-33850000D02*
G01*
X-46170000Y-33622000D01*
X-45790000Y-33622000D01*
X-45790000Y-33292000D01*
X-46170000Y-33292000D01*
X-46170000Y-33050000D01*
X-46120000Y-33000000D01*
X-45330000Y-33000000D01*
X-45280000Y-33050000D01*
X-45280000Y-33850000D01*
X-45330000Y-33900000D01*
X-46120000Y-33900000D01*
X-46170000Y-33850000D01*
G37*
X-46170000Y-33850000D02*
X-46170000Y-33622000D01*
X-45790000Y-33622000D01*
X-45790000Y-33292000D01*
X-46170000Y-33292000D01*
X-46170000Y-33050000D01*
X-46120000Y-33000000D01*
X-45330000Y-33000000D01*
X-45280000Y-33050000D01*
X-45280000Y-33850000D01*
X-45330000Y-33900000D01*
X-46120000Y-33900000D01*
X-46170000Y-33850000D01*
%TO.C,R12*%
G36*
X-24120000Y-16650000D02*
G01*
X-23320000Y-16650000D01*
X-23270000Y-16600000D01*
X-23270000Y-16372000D01*
X-23640000Y-16372000D01*
X-23640000Y-16042000D01*
X-23270000Y-16042000D01*
X-23270000Y-15800000D01*
X-23320000Y-15750000D01*
X-24120000Y-15750000D01*
X-24170000Y-15800000D01*
X-24170000Y-16600000D01*
X-24120000Y-16650000D01*
G37*
X-24120000Y-16650000D02*
X-23320000Y-16650000D01*
X-23270000Y-16600000D01*
X-23270000Y-16372000D01*
X-23640000Y-16372000D01*
X-23640000Y-16042000D01*
X-23270000Y-16042000D01*
X-23270000Y-15800000D01*
X-23320000Y-15750000D01*
X-24120000Y-15750000D01*
X-24170000Y-15800000D01*
X-24170000Y-16600000D01*
X-24120000Y-16650000D01*
G36*
X-22570000Y-16600000D02*
G01*
X-22570000Y-16372000D01*
X-22190000Y-16372000D01*
X-22190000Y-16042000D01*
X-22570000Y-16042000D01*
X-22570000Y-15800000D01*
X-22520000Y-15750000D01*
X-21730000Y-15750000D01*
X-21680000Y-15800000D01*
X-21680000Y-16600000D01*
X-21730000Y-16650000D01*
X-22520000Y-16650000D01*
X-22570000Y-16600000D01*
G37*
X-22570000Y-16600000D02*
X-22570000Y-16372000D01*
X-22190000Y-16372000D01*
X-22190000Y-16042000D01*
X-22570000Y-16042000D01*
X-22570000Y-15800000D01*
X-22520000Y-15750000D01*
X-21730000Y-15750000D01*
X-21680000Y-15800000D01*
X-21680000Y-16600000D01*
X-21730000Y-16650000D01*
X-22520000Y-16650000D01*
X-22570000Y-16600000D01*
%TO.C,R21*%
G36*
X-36035000Y2970000D02*
G01*
X-36035000Y2170000D01*
X-35985000Y2120000D01*
X-35757000Y2120000D01*
X-35757000Y2490000D01*
X-35427000Y2490000D01*
X-35427000Y2120000D01*
X-35185000Y2120000D01*
X-35135000Y2170000D01*
X-35135000Y2970000D01*
X-35185000Y3020000D01*
X-35985000Y3020000D01*
X-36035000Y2970000D01*
G37*
X-36035000Y2970000D02*
X-36035000Y2170000D01*
X-35985000Y2120000D01*
X-35757000Y2120000D01*
X-35757000Y2490000D01*
X-35427000Y2490000D01*
X-35427000Y2120000D01*
X-35185000Y2120000D01*
X-35135000Y2170000D01*
X-35135000Y2970000D01*
X-35185000Y3020000D01*
X-35985000Y3020000D01*
X-36035000Y2970000D01*
G36*
X-35985000Y1420000D02*
G01*
X-35757000Y1420000D01*
X-35757000Y1040000D01*
X-35427000Y1040000D01*
X-35427000Y1420000D01*
X-35185000Y1420000D01*
X-35135000Y1370000D01*
X-35135000Y580000D01*
X-35185000Y530000D01*
X-35985000Y530000D01*
X-36035000Y580000D01*
X-36035000Y1370000D01*
X-35985000Y1420000D01*
G37*
X-35985000Y1420000D02*
X-35757000Y1420000D01*
X-35757000Y1040000D01*
X-35427000Y1040000D01*
X-35427000Y1420000D01*
X-35185000Y1420000D01*
X-35135000Y1370000D01*
X-35135000Y580000D01*
X-35185000Y530000D01*
X-35985000Y530000D01*
X-36035000Y580000D01*
X-36035000Y1370000D01*
X-35985000Y1420000D01*
%TO.C,R28*%
G36*
X-32616000Y13179000D02*
G01*
X-31816000Y13179000D01*
X-31766000Y13229000D01*
X-31766000Y13457000D01*
X-32136000Y13457000D01*
X-32136000Y13787000D01*
X-31766000Y13787000D01*
X-31766000Y14029000D01*
X-31816000Y14079000D01*
X-32616000Y14079000D01*
X-32666000Y14029000D01*
X-32666000Y13229000D01*
X-32616000Y13179000D01*
G37*
X-32616000Y13179000D02*
X-31816000Y13179000D01*
X-31766000Y13229000D01*
X-31766000Y13457000D01*
X-32136000Y13457000D01*
X-32136000Y13787000D01*
X-31766000Y13787000D01*
X-31766000Y14029000D01*
X-31816000Y14079000D01*
X-32616000Y14079000D01*
X-32666000Y14029000D01*
X-32666000Y13229000D01*
X-32616000Y13179000D01*
G36*
X-31066000Y13229000D02*
G01*
X-31066000Y13457000D01*
X-30686000Y13457000D01*
X-30686000Y13787000D01*
X-31066000Y13787000D01*
X-31066000Y14029000D01*
X-31016000Y14079000D01*
X-30226000Y14079000D01*
X-30176000Y14029000D01*
X-30176000Y13229000D01*
X-30226000Y13179000D01*
X-31016000Y13179000D01*
X-31066000Y13229000D01*
G37*
X-31066000Y13229000D02*
X-31066000Y13457000D01*
X-30686000Y13457000D01*
X-30686000Y13787000D01*
X-31066000Y13787000D01*
X-31066000Y14029000D01*
X-31016000Y14079000D01*
X-30226000Y14079000D01*
X-30176000Y14029000D01*
X-30176000Y13229000D01*
X-30226000Y13179000D01*
X-31016000Y13179000D01*
X-31066000Y13229000D01*
%TO.C,R4*%
G36*
X-9735000Y-5995000D02*
G01*
X-9735000Y-5195000D01*
X-9785000Y-5145000D01*
X-10013000Y-5145000D01*
X-10013000Y-5515000D01*
X-10343000Y-5515000D01*
X-10343000Y-5145000D01*
X-10585000Y-5145000D01*
X-10635000Y-5195000D01*
X-10635000Y-5995000D01*
X-10585000Y-6045000D01*
X-9785000Y-6045000D01*
X-9735000Y-5995000D01*
G37*
X-9735000Y-5995000D02*
X-9735000Y-5195000D01*
X-9785000Y-5145000D01*
X-10013000Y-5145000D01*
X-10013000Y-5515000D01*
X-10343000Y-5515000D01*
X-10343000Y-5145000D01*
X-10585000Y-5145000D01*
X-10635000Y-5195000D01*
X-10635000Y-5995000D01*
X-10585000Y-6045000D01*
X-9785000Y-6045000D01*
X-9735000Y-5995000D01*
G36*
X-9785000Y-4445000D02*
G01*
X-10013000Y-4445000D01*
X-10013000Y-4065000D01*
X-10343000Y-4065000D01*
X-10343000Y-4445000D01*
X-10585000Y-4445000D01*
X-10635000Y-4395000D01*
X-10635000Y-3605000D01*
X-10585000Y-3555000D01*
X-9785000Y-3555000D01*
X-9735000Y-3605000D01*
X-9735000Y-4395000D01*
X-9785000Y-4445000D01*
G37*
X-9785000Y-4445000D02*
X-10013000Y-4445000D01*
X-10013000Y-4065000D01*
X-10343000Y-4065000D01*
X-10343000Y-4445000D01*
X-10585000Y-4445000D01*
X-10635000Y-4395000D01*
X-10635000Y-3605000D01*
X-10585000Y-3555000D01*
X-9785000Y-3555000D01*
X-9735000Y-3605000D01*
X-9735000Y-4395000D01*
X-9785000Y-4445000D01*
%TO.C,R33*%
G36*
X-47835000Y-23525000D02*
G01*
X-47835000Y-22725000D01*
X-47885000Y-22675000D01*
X-48113000Y-22675000D01*
X-48113000Y-23045000D01*
X-48443000Y-23045000D01*
X-48443000Y-22675000D01*
X-48685000Y-22675000D01*
X-48735000Y-22725000D01*
X-48735000Y-23525000D01*
X-48685000Y-23575000D01*
X-47885000Y-23575000D01*
X-47835000Y-23525000D01*
G37*
X-47835000Y-23525000D02*
X-47835000Y-22725000D01*
X-47885000Y-22675000D01*
X-48113000Y-22675000D01*
X-48113000Y-23045000D01*
X-48443000Y-23045000D01*
X-48443000Y-22675000D01*
X-48685000Y-22675000D01*
X-48735000Y-22725000D01*
X-48735000Y-23525000D01*
X-48685000Y-23575000D01*
X-47885000Y-23575000D01*
X-47835000Y-23525000D01*
G36*
X-47885000Y-21975000D02*
G01*
X-48113000Y-21975000D01*
X-48113000Y-21595000D01*
X-48443000Y-21595000D01*
X-48443000Y-21975000D01*
X-48685000Y-21975000D01*
X-48735000Y-21925000D01*
X-48735000Y-21135000D01*
X-48685000Y-21085000D01*
X-47885000Y-21085000D01*
X-47835000Y-21135000D01*
X-47835000Y-21925000D01*
X-47885000Y-21975000D01*
G37*
X-47885000Y-21975000D02*
X-48113000Y-21975000D01*
X-48113000Y-21595000D01*
X-48443000Y-21595000D01*
X-48443000Y-21975000D01*
X-48685000Y-21975000D01*
X-48735000Y-21925000D01*
X-48735000Y-21135000D01*
X-48685000Y-21085000D01*
X-47885000Y-21085000D01*
X-47835000Y-21135000D01*
X-47835000Y-21925000D01*
X-47885000Y-21975000D01*
%TO.C,R11*%
G36*
X-19095000Y-16650000D02*
G01*
X-18295000Y-16650000D01*
X-18245000Y-16600000D01*
X-18245000Y-16372000D01*
X-18615000Y-16372000D01*
X-18615000Y-16042000D01*
X-18245000Y-16042000D01*
X-18245000Y-15800000D01*
X-18295000Y-15750000D01*
X-19095000Y-15750000D01*
X-19145000Y-15800000D01*
X-19145000Y-16600000D01*
X-19095000Y-16650000D01*
G37*
X-19095000Y-16650000D02*
X-18295000Y-16650000D01*
X-18245000Y-16600000D01*
X-18245000Y-16372000D01*
X-18615000Y-16372000D01*
X-18615000Y-16042000D01*
X-18245000Y-16042000D01*
X-18245000Y-15800000D01*
X-18295000Y-15750000D01*
X-19095000Y-15750000D01*
X-19145000Y-15800000D01*
X-19145000Y-16600000D01*
X-19095000Y-16650000D01*
G36*
X-17545000Y-16600000D02*
G01*
X-17545000Y-16372000D01*
X-17165000Y-16372000D01*
X-17165000Y-16042000D01*
X-17545000Y-16042000D01*
X-17545000Y-15800000D01*
X-17495000Y-15750000D01*
X-16705000Y-15750000D01*
X-16655000Y-15800000D01*
X-16655000Y-16600000D01*
X-16705000Y-16650000D01*
X-17495000Y-16650000D01*
X-17545000Y-16600000D01*
G37*
X-17545000Y-16600000D02*
X-17545000Y-16372000D01*
X-17165000Y-16372000D01*
X-17165000Y-16042000D01*
X-17545000Y-16042000D01*
X-17545000Y-15800000D01*
X-17495000Y-15750000D01*
X-16705000Y-15750000D01*
X-16655000Y-15800000D01*
X-16655000Y-16600000D01*
X-16705000Y-16650000D01*
X-17495000Y-16650000D01*
X-17545000Y-16600000D01*
%TO.C,R35*%
G36*
X-54130000Y-28760000D02*
G01*
X-52850000Y-28760000D01*
X-52800000Y-28810000D01*
X-52800000Y-29960000D01*
X-52850000Y-30010000D01*
X-53260000Y-30015000D01*
X-53260000Y-29565000D01*
X-53710000Y-29565000D01*
X-53710000Y-30005000D01*
X-54130000Y-30010000D01*
X-54180000Y-29960000D01*
X-54180000Y-28810000D01*
X-54130000Y-28760000D01*
G37*
X-54130000Y-28760000D02*
X-52850000Y-28760000D01*
X-52800000Y-28810000D01*
X-52800000Y-29960000D01*
X-52850000Y-30010000D01*
X-53260000Y-30015000D01*
X-53260000Y-29565000D01*
X-53710000Y-29565000D01*
X-53710000Y-30005000D01*
X-54130000Y-30010000D01*
X-54180000Y-29960000D01*
X-54180000Y-28810000D01*
X-54130000Y-28760000D01*
G36*
X-54130000Y-30910000D02*
G01*
X-53710000Y-30910000D01*
X-53710000Y-31355000D01*
X-53260000Y-31355000D01*
X-53260000Y-30915000D01*
X-52850000Y-30910000D01*
X-52800000Y-30960000D01*
X-52800000Y-32110000D01*
X-52850000Y-32160000D01*
X-54130000Y-32160000D01*
X-54180000Y-32110000D01*
X-54180000Y-30960000D01*
X-54130000Y-30910000D01*
G37*
X-54130000Y-30910000D02*
X-53710000Y-30910000D01*
X-53710000Y-31355000D01*
X-53260000Y-31355000D01*
X-53260000Y-30915000D01*
X-52850000Y-30910000D01*
X-52800000Y-30960000D01*
X-52800000Y-32110000D01*
X-52850000Y-32160000D01*
X-54130000Y-32160000D01*
X-54180000Y-32110000D01*
X-54180000Y-30960000D01*
X-54130000Y-30910000D01*
%TO.C,R20*%
G36*
X-33495000Y2970000D02*
G01*
X-33495000Y2170000D01*
X-33445000Y2120000D01*
X-33217000Y2120000D01*
X-33217000Y2490000D01*
X-32887000Y2490000D01*
X-32887000Y2120000D01*
X-32645000Y2120000D01*
X-32595000Y2170000D01*
X-32595000Y2970000D01*
X-32645000Y3020000D01*
X-33445000Y3020000D01*
X-33495000Y2970000D01*
G37*
X-33495000Y2970000D02*
X-33495000Y2170000D01*
X-33445000Y2120000D01*
X-33217000Y2120000D01*
X-33217000Y2490000D01*
X-32887000Y2490000D01*
X-32887000Y2120000D01*
X-32645000Y2120000D01*
X-32595000Y2170000D01*
X-32595000Y2970000D01*
X-32645000Y3020000D01*
X-33445000Y3020000D01*
X-33495000Y2970000D01*
G36*
X-33445000Y1420000D02*
G01*
X-33217000Y1420000D01*
X-33217000Y1040000D01*
X-32887000Y1040000D01*
X-32887000Y1420000D01*
X-32645000Y1420000D01*
X-32595000Y1370000D01*
X-32595000Y580000D01*
X-32645000Y530000D01*
X-33445000Y530000D01*
X-33495000Y580000D01*
X-33495000Y1370000D01*
X-33445000Y1420000D01*
G37*
X-33445000Y1420000D02*
X-33217000Y1420000D01*
X-33217000Y1040000D01*
X-32887000Y1040000D01*
X-32887000Y1420000D01*
X-32645000Y1420000D01*
X-32595000Y1370000D01*
X-32595000Y580000D01*
X-32645000Y530000D01*
X-33445000Y530000D01*
X-33495000Y580000D01*
X-33495000Y1370000D01*
X-33445000Y1420000D01*
%TO.C,R27*%
G36*
X-27637600Y13179000D02*
G01*
X-26837600Y13179000D01*
X-26787600Y13229000D01*
X-26787600Y13457000D01*
X-27157600Y13457000D01*
X-27157600Y13787000D01*
X-26787600Y13787000D01*
X-26787600Y14029000D01*
X-26837600Y14079000D01*
X-27637600Y14079000D01*
X-27687600Y14029000D01*
X-27687600Y13229000D01*
X-27637600Y13179000D01*
G37*
X-27637600Y13179000D02*
X-26837600Y13179000D01*
X-26787600Y13229000D01*
X-26787600Y13457000D01*
X-27157600Y13457000D01*
X-27157600Y13787000D01*
X-26787600Y13787000D01*
X-26787600Y14029000D01*
X-26837600Y14079000D01*
X-27637600Y14079000D01*
X-27687600Y14029000D01*
X-27687600Y13229000D01*
X-27637600Y13179000D01*
G36*
X-26087600Y13229000D02*
G01*
X-26087600Y13457000D01*
X-25707600Y13457000D01*
X-25707600Y13787000D01*
X-26087600Y13787000D01*
X-26087600Y14029000D01*
X-26037600Y14079000D01*
X-25247600Y14079000D01*
X-25197600Y14029000D01*
X-25197600Y13229000D01*
X-25247600Y13179000D01*
X-26037600Y13179000D01*
X-26087600Y13229000D01*
G37*
X-26087600Y13229000D02*
X-26087600Y13457000D01*
X-25707600Y13457000D01*
X-25707600Y13787000D01*
X-26087600Y13787000D01*
X-26087600Y14029000D01*
X-26037600Y14079000D01*
X-25247600Y14079000D01*
X-25197600Y14029000D01*
X-25197600Y13229000D01*
X-25247600Y13179000D01*
X-26037600Y13179000D01*
X-26087600Y13229000D01*
%TO.C,R3*%
G36*
X-7195000Y-5995000D02*
G01*
X-7195000Y-5195000D01*
X-7245000Y-5145000D01*
X-7473000Y-5145000D01*
X-7473000Y-5515000D01*
X-7803000Y-5515000D01*
X-7803000Y-5145000D01*
X-8045000Y-5145000D01*
X-8095000Y-5195000D01*
X-8095000Y-5995000D01*
X-8045000Y-6045000D01*
X-7245000Y-6045000D01*
X-7195000Y-5995000D01*
G37*
X-7195000Y-5995000D02*
X-7195000Y-5195000D01*
X-7245000Y-5145000D01*
X-7473000Y-5145000D01*
X-7473000Y-5515000D01*
X-7803000Y-5515000D01*
X-7803000Y-5145000D01*
X-8045000Y-5145000D01*
X-8095000Y-5195000D01*
X-8095000Y-5995000D01*
X-8045000Y-6045000D01*
X-7245000Y-6045000D01*
X-7195000Y-5995000D01*
G36*
X-7245000Y-4445000D02*
G01*
X-7473000Y-4445000D01*
X-7473000Y-4065000D01*
X-7803000Y-4065000D01*
X-7803000Y-4445000D01*
X-8045000Y-4445000D01*
X-8095000Y-4395000D01*
X-8095000Y-3605000D01*
X-8045000Y-3555000D01*
X-7245000Y-3555000D01*
X-7195000Y-3605000D01*
X-7195000Y-4395000D01*
X-7245000Y-4445000D01*
G37*
X-7245000Y-4445000D02*
X-7473000Y-4445000D01*
X-7473000Y-4065000D01*
X-7803000Y-4065000D01*
X-7803000Y-4445000D01*
X-8045000Y-4445000D01*
X-8095000Y-4395000D01*
X-8095000Y-3605000D01*
X-8045000Y-3555000D01*
X-7245000Y-3555000D01*
X-7195000Y-3605000D01*
X-7195000Y-4395000D01*
X-7245000Y-4445000D01*
%TO.C,R19*%
G36*
X-28415000Y2970000D02*
G01*
X-28415000Y2170000D01*
X-28365000Y2120000D01*
X-28137000Y2120000D01*
X-28137000Y2490000D01*
X-27807000Y2490000D01*
X-27807000Y2120000D01*
X-27565000Y2120000D01*
X-27515000Y2170000D01*
X-27515000Y2970000D01*
X-27565000Y3020000D01*
X-28365000Y3020000D01*
X-28415000Y2970000D01*
G37*
X-28415000Y2970000D02*
X-28415000Y2170000D01*
X-28365000Y2120000D01*
X-28137000Y2120000D01*
X-28137000Y2490000D01*
X-27807000Y2490000D01*
X-27807000Y2120000D01*
X-27565000Y2120000D01*
X-27515000Y2170000D01*
X-27515000Y2970000D01*
X-27565000Y3020000D01*
X-28365000Y3020000D01*
X-28415000Y2970000D01*
G36*
X-28365000Y1420000D02*
G01*
X-28137000Y1420000D01*
X-28137000Y1040000D01*
X-27807000Y1040000D01*
X-27807000Y1420000D01*
X-27565000Y1420000D01*
X-27515000Y1370000D01*
X-27515000Y580000D01*
X-27565000Y530000D01*
X-28365000Y530000D01*
X-28415000Y580000D01*
X-28415000Y1370000D01*
X-28365000Y1420000D01*
G37*
X-28365000Y1420000D02*
X-28137000Y1420000D01*
X-28137000Y1040000D01*
X-27807000Y1040000D01*
X-27807000Y1420000D01*
X-27565000Y1420000D01*
X-27515000Y1370000D01*
X-27515000Y580000D01*
X-27565000Y530000D01*
X-28365000Y530000D01*
X-28415000Y580000D01*
X-28415000Y1370000D01*
X-28365000Y1420000D01*
%TO.C,R10*%
G36*
X-14095000Y-16650000D02*
G01*
X-13295000Y-16650000D01*
X-13245000Y-16600000D01*
X-13245000Y-16372000D01*
X-13615000Y-16372000D01*
X-13615000Y-16042000D01*
X-13245000Y-16042000D01*
X-13245000Y-15800000D01*
X-13295000Y-15750000D01*
X-14095000Y-15750000D01*
X-14145000Y-15800000D01*
X-14145000Y-16600000D01*
X-14095000Y-16650000D01*
G37*
X-14095000Y-16650000D02*
X-13295000Y-16650000D01*
X-13245000Y-16600000D01*
X-13245000Y-16372000D01*
X-13615000Y-16372000D01*
X-13615000Y-16042000D01*
X-13245000Y-16042000D01*
X-13245000Y-15800000D01*
X-13295000Y-15750000D01*
X-14095000Y-15750000D01*
X-14145000Y-15800000D01*
X-14145000Y-16600000D01*
X-14095000Y-16650000D01*
G36*
X-12545000Y-16600000D02*
G01*
X-12545000Y-16372000D01*
X-12165000Y-16372000D01*
X-12165000Y-16042000D01*
X-12545000Y-16042000D01*
X-12545000Y-15800000D01*
X-12495000Y-15750000D01*
X-11705000Y-15750000D01*
X-11655000Y-15800000D01*
X-11655000Y-16600000D01*
X-11705000Y-16650000D01*
X-12495000Y-16650000D01*
X-12545000Y-16600000D01*
G37*
X-12545000Y-16600000D02*
X-12545000Y-16372000D01*
X-12165000Y-16372000D01*
X-12165000Y-16042000D01*
X-12545000Y-16042000D01*
X-12545000Y-15800000D01*
X-12495000Y-15750000D01*
X-11705000Y-15750000D01*
X-11655000Y-15800000D01*
X-11655000Y-16600000D01*
X-11705000Y-16650000D01*
X-12495000Y-16650000D01*
X-12545000Y-16600000D01*
%TO.C,R16*%
G36*
X-25875000Y2970000D02*
G01*
X-25875000Y2170000D01*
X-25825000Y2120000D01*
X-25597000Y2120000D01*
X-25597000Y2490000D01*
X-25267000Y2490000D01*
X-25267000Y2120000D01*
X-25025000Y2120000D01*
X-24975000Y2170000D01*
X-24975000Y2970000D01*
X-25025000Y3020000D01*
X-25825000Y3020000D01*
X-25875000Y2970000D01*
G37*
X-25875000Y2970000D02*
X-25875000Y2170000D01*
X-25825000Y2120000D01*
X-25597000Y2120000D01*
X-25597000Y2490000D01*
X-25267000Y2490000D01*
X-25267000Y2120000D01*
X-25025000Y2120000D01*
X-24975000Y2170000D01*
X-24975000Y2970000D01*
X-25025000Y3020000D01*
X-25825000Y3020000D01*
X-25875000Y2970000D01*
G36*
X-25825000Y1420000D02*
G01*
X-25597000Y1420000D01*
X-25597000Y1040000D01*
X-25267000Y1040000D01*
X-25267000Y1420000D01*
X-25025000Y1420000D01*
X-24975000Y1370000D01*
X-24975000Y580000D01*
X-25025000Y530000D01*
X-25825000Y530000D01*
X-25875000Y580000D01*
X-25875000Y1370000D01*
X-25825000Y1420000D01*
G37*
X-25825000Y1420000D02*
X-25597000Y1420000D01*
X-25597000Y1040000D01*
X-25267000Y1040000D01*
X-25267000Y1420000D01*
X-25025000Y1420000D01*
X-24975000Y1370000D01*
X-24975000Y580000D01*
X-25025000Y530000D01*
X-25825000Y530000D01*
X-25875000Y580000D01*
X-25875000Y1370000D01*
X-25825000Y1420000D01*
%TO.C,R26*%
G36*
X-22670000Y13200000D02*
G01*
X-21870000Y13200000D01*
X-21820000Y13250000D01*
X-21820000Y13478000D01*
X-22190000Y13478000D01*
X-22190000Y13808000D01*
X-21820000Y13808000D01*
X-21820000Y14050000D01*
X-21870000Y14100000D01*
X-22670000Y14100000D01*
X-22720000Y14050000D01*
X-22720000Y13250000D01*
X-22670000Y13200000D01*
G37*
X-22670000Y13200000D02*
X-21870000Y13200000D01*
X-21820000Y13250000D01*
X-21820000Y13478000D01*
X-22190000Y13478000D01*
X-22190000Y13808000D01*
X-21820000Y13808000D01*
X-21820000Y14050000D01*
X-21870000Y14100000D01*
X-22670000Y14100000D01*
X-22720000Y14050000D01*
X-22720000Y13250000D01*
X-22670000Y13200000D01*
G36*
X-21120000Y13250000D02*
G01*
X-21120000Y13478000D01*
X-20740000Y13478000D01*
X-20740000Y13808000D01*
X-21120000Y13808000D01*
X-21120000Y14050000D01*
X-21070000Y14100000D01*
X-20280000Y14100000D01*
X-20230000Y14050000D01*
X-20230000Y13250000D01*
X-20280000Y13200000D01*
X-21070000Y13200000D01*
X-21120000Y13250000D01*
G37*
X-21120000Y13250000D02*
X-21120000Y13478000D01*
X-20740000Y13478000D01*
X-20740000Y13808000D01*
X-21120000Y13808000D01*
X-21120000Y14050000D01*
X-21070000Y14100000D01*
X-20280000Y14100000D01*
X-20230000Y14050000D01*
X-20230000Y13250000D01*
X-20280000Y13200000D01*
X-21070000Y13200000D01*
X-21120000Y13250000D01*
%TO.C,R18*%
G36*
X-18795000Y13050000D02*
G01*
X-17995000Y13050000D01*
X-17945000Y13100000D01*
X-17945000Y13328000D01*
X-18315000Y13328000D01*
X-18315000Y13658000D01*
X-17945000Y13658000D01*
X-17945000Y13900000D01*
X-17995000Y13950000D01*
X-18795000Y13950000D01*
X-18845000Y13900000D01*
X-18845000Y13100000D01*
X-18795000Y13050000D01*
G37*
X-18795000Y13050000D02*
X-17995000Y13050000D01*
X-17945000Y13100000D01*
X-17945000Y13328000D01*
X-18315000Y13328000D01*
X-18315000Y13658000D01*
X-17945000Y13658000D01*
X-17945000Y13900000D01*
X-17995000Y13950000D01*
X-18795000Y13950000D01*
X-18845000Y13900000D01*
X-18845000Y13100000D01*
X-18795000Y13050000D01*
G36*
X-17245000Y13100000D02*
G01*
X-17245000Y13328000D01*
X-16865000Y13328000D01*
X-16865000Y13658000D01*
X-17245000Y13658000D01*
X-17245000Y13900000D01*
X-17195000Y13950000D01*
X-16405000Y13950000D01*
X-16355000Y13900000D01*
X-16355000Y13100000D01*
X-16405000Y13050000D01*
X-17195000Y13050000D01*
X-17245000Y13100000D01*
G37*
X-17245000Y13100000D02*
X-17245000Y13328000D01*
X-16865000Y13328000D01*
X-16865000Y13658000D01*
X-17245000Y13658000D01*
X-17245000Y13900000D01*
X-17195000Y13950000D01*
X-16405000Y13950000D01*
X-16355000Y13900000D01*
X-16355000Y13100000D01*
X-16405000Y13050000D01*
X-17195000Y13050000D01*
X-17245000Y13100000D01*
%TO.C,R2*%
G36*
X-2115000Y-5995000D02*
G01*
X-2115000Y-5195000D01*
X-2165000Y-5145000D01*
X-2393000Y-5145000D01*
X-2393000Y-5515000D01*
X-2723000Y-5515000D01*
X-2723000Y-5145000D01*
X-2965000Y-5145000D01*
X-3015000Y-5195000D01*
X-3015000Y-5995000D01*
X-2965000Y-6045000D01*
X-2165000Y-6045000D01*
X-2115000Y-5995000D01*
G37*
X-2115000Y-5995000D02*
X-2115000Y-5195000D01*
X-2165000Y-5145000D01*
X-2393000Y-5145000D01*
X-2393000Y-5515000D01*
X-2723000Y-5515000D01*
X-2723000Y-5145000D01*
X-2965000Y-5145000D01*
X-3015000Y-5195000D01*
X-3015000Y-5995000D01*
X-2965000Y-6045000D01*
X-2165000Y-6045000D01*
X-2115000Y-5995000D01*
G36*
X-2165000Y-4445000D02*
G01*
X-2393000Y-4445000D01*
X-2393000Y-4065000D01*
X-2723000Y-4065000D01*
X-2723000Y-4445000D01*
X-2965000Y-4445000D01*
X-3015000Y-4395000D01*
X-3015000Y-3605000D01*
X-2965000Y-3555000D01*
X-2165000Y-3555000D01*
X-2115000Y-3605000D01*
X-2115000Y-4395000D01*
X-2165000Y-4445000D01*
G37*
X-2165000Y-4445000D02*
X-2393000Y-4445000D01*
X-2393000Y-4065000D01*
X-2723000Y-4065000D01*
X-2723000Y-4445000D01*
X-2965000Y-4445000D01*
X-3015000Y-4395000D01*
X-3015000Y-3605000D01*
X-2965000Y-3555000D01*
X-2165000Y-3555000D01*
X-2115000Y-3605000D01*
X-2115000Y-4395000D01*
X-2165000Y-4445000D01*
%TO.C,R9*%
G36*
X-9095000Y-16650000D02*
G01*
X-8295000Y-16650000D01*
X-8245000Y-16600000D01*
X-8245000Y-16372000D01*
X-8615000Y-16372000D01*
X-8615000Y-16042000D01*
X-8245000Y-16042000D01*
X-8245000Y-15800000D01*
X-8295000Y-15750000D01*
X-9095000Y-15750000D01*
X-9145000Y-15800000D01*
X-9145000Y-16600000D01*
X-9095000Y-16650000D01*
G37*
X-9095000Y-16650000D02*
X-8295000Y-16650000D01*
X-8245000Y-16600000D01*
X-8245000Y-16372000D01*
X-8615000Y-16372000D01*
X-8615000Y-16042000D01*
X-8245000Y-16042000D01*
X-8245000Y-15800000D01*
X-8295000Y-15750000D01*
X-9095000Y-15750000D01*
X-9145000Y-15800000D01*
X-9145000Y-16600000D01*
X-9095000Y-16650000D01*
G36*
X-7545000Y-16600000D02*
G01*
X-7545000Y-16372000D01*
X-7165000Y-16372000D01*
X-7165000Y-16042000D01*
X-7545000Y-16042000D01*
X-7545000Y-15800000D01*
X-7495000Y-15750000D01*
X-6705000Y-15750000D01*
X-6655000Y-15800000D01*
X-6655000Y-16600000D01*
X-6705000Y-16650000D01*
X-7495000Y-16650000D01*
X-7545000Y-16600000D01*
G37*
X-7545000Y-16600000D02*
X-7545000Y-16372000D01*
X-7165000Y-16372000D01*
X-7165000Y-16042000D01*
X-7545000Y-16042000D01*
X-7545000Y-15800000D01*
X-7495000Y-15750000D01*
X-6705000Y-15750000D01*
X-6655000Y-15800000D01*
X-6655000Y-16600000D01*
X-6705000Y-16650000D01*
X-7495000Y-16650000D01*
X-7545000Y-16600000D01*
%TO.C,R15*%
G36*
X-24835000Y-4990000D02*
G01*
X-24035000Y-4990000D01*
X-23985000Y-4940000D01*
X-23985000Y-4712000D01*
X-24355000Y-4712000D01*
X-24355000Y-4382000D01*
X-23985000Y-4382000D01*
X-23985000Y-4140000D01*
X-24035000Y-4090000D01*
X-24835000Y-4090000D01*
X-24885000Y-4140000D01*
X-24885000Y-4940000D01*
X-24835000Y-4990000D01*
G37*
X-24835000Y-4990000D02*
X-24035000Y-4990000D01*
X-23985000Y-4940000D01*
X-23985000Y-4712000D01*
X-24355000Y-4712000D01*
X-24355000Y-4382000D01*
X-23985000Y-4382000D01*
X-23985000Y-4140000D01*
X-24035000Y-4090000D01*
X-24835000Y-4090000D01*
X-24885000Y-4140000D01*
X-24885000Y-4940000D01*
X-24835000Y-4990000D01*
G36*
X-23285000Y-4940000D02*
G01*
X-23285000Y-4712000D01*
X-22905000Y-4712000D01*
X-22905000Y-4382000D01*
X-23285000Y-4382000D01*
X-23285000Y-4140000D01*
X-23235000Y-4090000D01*
X-22445000Y-4090000D01*
X-22395000Y-4140000D01*
X-22395000Y-4940000D01*
X-22445000Y-4990000D01*
X-23235000Y-4990000D01*
X-23285000Y-4940000D01*
G37*
X-23285000Y-4940000D02*
X-23285000Y-4712000D01*
X-22905000Y-4712000D01*
X-22905000Y-4382000D01*
X-23285000Y-4382000D01*
X-23285000Y-4140000D01*
X-23235000Y-4090000D01*
X-22445000Y-4090000D01*
X-22395000Y-4140000D01*
X-22395000Y-4940000D01*
X-22445000Y-4990000D01*
X-23235000Y-4990000D01*
X-23285000Y-4940000D01*
%TO.C,R1*%
G36*
X425000Y-5995000D02*
G01*
X425000Y-5195000D01*
X375000Y-5145000D01*
X147000Y-5145000D01*
X147000Y-5515000D01*
X-183000Y-5515000D01*
X-183000Y-5145000D01*
X-425000Y-5145000D01*
X-475000Y-5195000D01*
X-475000Y-5995000D01*
X-425000Y-6045000D01*
X375000Y-6045000D01*
X425000Y-5995000D01*
G37*
X425000Y-5995000D02*
X425000Y-5195000D01*
X375000Y-5145000D01*
X147000Y-5145000D01*
X147000Y-5515000D01*
X-183000Y-5515000D01*
X-183000Y-5145000D01*
X-425000Y-5145000D01*
X-475000Y-5195000D01*
X-475000Y-5995000D01*
X-425000Y-6045000D01*
X375000Y-6045000D01*
X425000Y-5995000D01*
G36*
X375000Y-4445000D02*
G01*
X147000Y-4445000D01*
X147000Y-4065000D01*
X-183000Y-4065000D01*
X-183000Y-4445000D01*
X-425000Y-4445000D01*
X-475000Y-4395000D01*
X-475000Y-3605000D01*
X-425000Y-3555000D01*
X375000Y-3555000D01*
X425000Y-3605000D01*
X425000Y-4395000D01*
X375000Y-4445000D01*
G37*
X375000Y-4445000D02*
X147000Y-4445000D01*
X147000Y-4065000D01*
X-183000Y-4065000D01*
X-183000Y-4445000D01*
X-425000Y-4445000D01*
X-475000Y-4395000D01*
X-475000Y-3605000D01*
X-425000Y-3555000D01*
X375000Y-3555000D01*
X425000Y-3605000D01*
X425000Y-4395000D01*
X375000Y-4445000D01*
%TO.C,R17*%
G36*
X-37050000Y-15570000D02*
G01*
X-37050000Y-16850000D01*
X-37100000Y-16900000D01*
X-38250000Y-16900000D01*
X-38300000Y-16850000D01*
X-38305000Y-16440000D01*
X-37855000Y-16440000D01*
X-37855000Y-15990000D01*
X-38295000Y-15990000D01*
X-38300000Y-15570000D01*
X-38250000Y-15520000D01*
X-37100000Y-15520000D01*
X-37050000Y-15570000D01*
G37*
X-37050000Y-15570000D02*
X-37050000Y-16850000D01*
X-37100000Y-16900000D01*
X-38250000Y-16900000D01*
X-38300000Y-16850000D01*
X-38305000Y-16440000D01*
X-37855000Y-16440000D01*
X-37855000Y-15990000D01*
X-38295000Y-15990000D01*
X-38300000Y-15570000D01*
X-38250000Y-15520000D01*
X-37100000Y-15520000D01*
X-37050000Y-15570000D01*
G36*
X-39200000Y-15570000D02*
G01*
X-39200000Y-15990000D01*
X-39645000Y-15990000D01*
X-39645000Y-16440000D01*
X-39205000Y-16440000D01*
X-39200000Y-16850000D01*
X-39250000Y-16900000D01*
X-40400000Y-16900000D01*
X-40450000Y-16850000D01*
X-40450000Y-15570000D01*
X-40400000Y-15520000D01*
X-39250000Y-15520000D01*
X-39200000Y-15570000D01*
G37*
X-39200000Y-15570000D02*
X-39200000Y-15990000D01*
X-39645000Y-15990000D01*
X-39645000Y-16440000D01*
X-39205000Y-16440000D01*
X-39200000Y-16850000D01*
X-39250000Y-16900000D01*
X-40400000Y-16900000D01*
X-40450000Y-16850000D01*
X-40450000Y-15570000D01*
X-40400000Y-15520000D01*
X-39250000Y-15520000D01*
X-39200000Y-15570000D01*
%TO.C,R8*%
G36*
X-4095000Y-16650000D02*
G01*
X-3295000Y-16650000D01*
X-3245000Y-16600000D01*
X-3245000Y-16372000D01*
X-3615000Y-16372000D01*
X-3615000Y-16042000D01*
X-3245000Y-16042000D01*
X-3245000Y-15800000D01*
X-3295000Y-15750000D01*
X-4095000Y-15750000D01*
X-4145000Y-15800000D01*
X-4145000Y-16600000D01*
X-4095000Y-16650000D01*
G37*
X-4095000Y-16650000D02*
X-3295000Y-16650000D01*
X-3245000Y-16600000D01*
X-3245000Y-16372000D01*
X-3615000Y-16372000D01*
X-3615000Y-16042000D01*
X-3245000Y-16042000D01*
X-3245000Y-15800000D01*
X-3295000Y-15750000D01*
X-4095000Y-15750000D01*
X-4145000Y-15800000D01*
X-4145000Y-16600000D01*
X-4095000Y-16650000D01*
G36*
X-2545000Y-16600000D02*
G01*
X-2545000Y-16372000D01*
X-2165000Y-16372000D01*
X-2165000Y-16042000D01*
X-2545000Y-16042000D01*
X-2545000Y-15800000D01*
X-2495000Y-15750000D01*
X-1705000Y-15750000D01*
X-1655000Y-15800000D01*
X-1655000Y-16600000D01*
X-1705000Y-16650000D01*
X-2495000Y-16650000D01*
X-2545000Y-16600000D01*
G37*
X-2545000Y-16600000D02*
X-2545000Y-16372000D01*
X-2165000Y-16372000D01*
X-2165000Y-16042000D01*
X-2545000Y-16042000D01*
X-2545000Y-15800000D01*
X-2495000Y-15750000D01*
X-1705000Y-15750000D01*
X-1655000Y-15800000D01*
X-1655000Y-16600000D01*
X-1705000Y-16650000D01*
X-2495000Y-16650000D01*
X-2545000Y-16600000D01*
%TD*%
D11*
%TO.C,U16*%
X-53270000Y5325000D03*
X-50730000Y5325000D03*
X-53270000Y11825000D03*
X-50730000Y11825000D03*
%TD*%
%TO.C,U15*%
X-48270000Y5325000D03*
X-45730000Y5325000D03*
X-48270000Y11825000D03*
X-45730000Y11825000D03*
%TD*%
%TO.C,U7*%
X-29605000Y-7600000D03*
X-32145000Y-7600000D03*
X-29605000Y-14100000D03*
X-32145000Y-14100000D03*
%TD*%
%TO.C,U14*%
X-43270000Y5325000D03*
X-40730000Y5325000D03*
X-43270000Y11825000D03*
X-40730000Y11825000D03*
%TD*%
%TO.C,U6*%
X-24605000Y-7600000D03*
X-27145000Y-7600000D03*
X-24605000Y-14100000D03*
X-27145000Y-14100000D03*
%TD*%
%TO.C,U13*%
X-38270000Y5325000D03*
X-35730000Y5325000D03*
X-38270000Y11825000D03*
X-35730000Y11825000D03*
%TD*%
%TO.C,U18*%
X-43255000Y-25050000D03*
X-45795000Y-25050000D03*
X-43255000Y-31550000D03*
X-45795000Y-31550000D03*
%TD*%
%TO.C,U5*%
X-19605000Y-8075000D03*
X-22145000Y-8075000D03*
X-19605000Y-14575000D03*
X-22145000Y-14575000D03*
%TD*%
%TO.C,U12*%
X-33270000Y5325000D03*
X-30730000Y5325000D03*
X-33270000Y11825000D03*
X-30730000Y11825000D03*
%TD*%
%TO.C,U4*%
X-14605000Y-8075000D03*
X-17145000Y-8075000D03*
X-14605000Y-14575000D03*
X-17145000Y-14575000D03*
%TD*%
%TO.C,U17*%
X-48255000Y-25050000D03*
X-50795000Y-25050000D03*
X-48255000Y-31550000D03*
X-50795000Y-31550000D03*
%TD*%
%TO.C,U11*%
X-28270000Y5325000D03*
X-25730000Y5325000D03*
X-28270000Y11825000D03*
X-25730000Y11825000D03*
%TD*%
%TO.C,U3*%
X-9605000Y-8075000D03*
X-12145000Y-8075000D03*
X-9605000Y-14575000D03*
X-12145000Y-14575000D03*
%TD*%
%TO.C,U10*%
X-23270000Y5325000D03*
X-20730000Y5325000D03*
X-23270000Y11825000D03*
X-20730000Y11825000D03*
%TD*%
%TO.C,U9*%
X-18270000Y5325000D03*
X-15730000Y5325000D03*
X-18270000Y11825000D03*
X-15730000Y11825000D03*
%TD*%
%TO.C,U2*%
X-4605000Y-8075000D03*
X-7145000Y-8075000D03*
X-4605000Y-14575000D03*
X-7145000Y-14575000D03*
%TD*%
%TO.C,U8*%
X-34605000Y-7600000D03*
X-37145000Y-7600000D03*
X-34605000Y-14100000D03*
X-37145000Y-14100000D03*
%TD*%
%TO.C,U1*%
X395000Y-8075000D03*
X-2145000Y-8075000D03*
X395000Y-14575000D03*
X-2145000Y-14575000D03*
%TD*%
D12*
%TO.C,R25*%
X-48285000Y2528000D03*
X-48285000Y1022000D03*
%TD*%
D13*
%TO.C,R32*%
X-55550000Y7984000D03*
X-55550000Y9916000D03*
%TD*%
D12*
%TO.C,R24*%
X-45745000Y2528000D03*
X-45745000Y1022000D03*
%TD*%
%TO.C,R7*%
X-20320000Y-5623000D03*
X-20320000Y-4117000D03*
%TD*%
D13*
%TO.C,R31*%
X-58060000Y7984000D03*
X-58060000Y9916000D03*
%TD*%
D14*
%TO.C,R14*%
X-34076000Y-16080000D03*
X-32144000Y-16080000D03*
%TD*%
D12*
%TO.C,R23*%
X-40665000Y2528000D03*
X-40665000Y1022000D03*
%TD*%
D15*
%TO.C,R6*%
X-16753000Y-4350000D03*
X-15247000Y-4350000D03*
%TD*%
%TO.C,R30*%
X-42232400Y13625000D03*
X-40726400Y13625000D03*
%TD*%
D14*
%TO.C,R13*%
X-29086000Y-16060000D03*
X-27154000Y-16060000D03*
%TD*%
D12*
%TO.C,R22*%
X-38125000Y2528000D03*
X-38125000Y1022000D03*
%TD*%
%TO.C,R34*%
X-45745000Y-23083000D03*
X-45745000Y-21577000D03*
%TD*%
D15*
%TO.C,R29*%
X-37177800Y13629000D03*
X-35671800Y13629000D03*
%TD*%
D12*
%TO.C,R5*%
X-12725000Y-5553000D03*
X-12725000Y-4047000D03*
%TD*%
D15*
%TO.C,R36*%
X-47278000Y-33450000D03*
X-45772000Y-33450000D03*
%TD*%
%TO.C,R12*%
X-23678000Y-16200000D03*
X-22172000Y-16200000D03*
%TD*%
D12*
%TO.C,R21*%
X-35585000Y2528000D03*
X-35585000Y1022000D03*
%TD*%
D15*
%TO.C,R28*%
X-32174000Y13629000D03*
X-30668000Y13629000D03*
%TD*%
D12*
%TO.C,R4*%
X-10185000Y-5553000D03*
X-10185000Y-4047000D03*
%TD*%
%TO.C,R33*%
X-48285000Y-23083000D03*
X-48285000Y-21577000D03*
%TD*%
D15*
%TO.C,R11*%
X-18653000Y-16200000D03*
X-17147000Y-16200000D03*
%TD*%
D13*
%TO.C,R35*%
X-53490000Y-31426000D03*
X-53490000Y-29494000D03*
%TD*%
D12*
%TO.C,R20*%
X-33045000Y2528000D03*
X-33045000Y1022000D03*
%TD*%
D15*
%TO.C,R27*%
X-27195600Y13629000D03*
X-25689600Y13629000D03*
%TD*%
D12*
%TO.C,R3*%
X-7645000Y-5553000D03*
X-7645000Y-4047000D03*
%TD*%
%TO.C,R19*%
X-27965000Y2528000D03*
X-27965000Y1022000D03*
%TD*%
D15*
%TO.C,R10*%
X-13653000Y-16200000D03*
X-12147000Y-16200000D03*
%TD*%
D12*
%TO.C,R16*%
X-25425000Y2528000D03*
X-25425000Y1022000D03*
%TD*%
D15*
%TO.C,R26*%
X-22228000Y13650000D03*
X-20722000Y13650000D03*
%TD*%
%TO.C,R18*%
X-18353000Y13500000D03*
X-16847000Y13500000D03*
%TD*%
D12*
%TO.C,R2*%
X-2565000Y-5553000D03*
X-2565000Y-4047000D03*
%TD*%
D15*
%TO.C,R9*%
X-8653000Y-16200000D03*
X-7147000Y-16200000D03*
%TD*%
%TO.C,R15*%
X-24393000Y-4540000D03*
X-22887000Y-4540000D03*
%TD*%
D12*
%TO.C,R1*%
X-25000Y-5553000D03*
X-25000Y-4047000D03*
%TD*%
D14*
%TO.C,R17*%
X-39716000Y-16210000D03*
X-37784000Y-16210000D03*
%TD*%
D15*
%TO.C,R8*%
X-3653000Y-16200000D03*
X-2147000Y-16200000D03*
%TD*%
M02*
