G04 #@! TF.GenerationSoftware,KiCad,Pcbnew,(5.1.10)-1*
G04 #@! TF.CreationDate,2022-05-20T10:44:42-06:00*
G04 #@! TF.ProjectId,Calibrator_02_wResistors,43616c69-6272-4617-946f-725f30325f77,rev?*
G04 #@! TF.SameCoordinates,Original*
G04 #@! TF.FileFunction,Legend,Top*
G04 #@! TF.FilePolarity,Positive*
%FSLAX46Y46*%
G04 Gerber Fmt 4.6, Leading zero omitted, Abs format (unit mm)*
G04 Created by KiCad (PCBNEW (5.1.10)-1) date 2022-05-20 10:44:42*
%MOMM*%
%LPD*%
G01*
G04 APERTURE LIST*
%ADD10C,0.150000*%
%ADD11C,0.120000*%
%ADD12C,0.254000*%
%ADD13C,0.152000*%
%ADD14C,0.500000*%
%ADD15C,0.127000*%
%ADD16R,1.700000X1.700000*%
%ADD17C,2.250000*%
%ADD18C,2.050000*%
%ADD19R,0.900000X1.199000*%
%ADD20R,0.280000X0.665000*%
%ADD21R,0.665000X0.280000*%
%ADD22R,2.650000X2.650000*%
%ADD23C,5.000000*%
%ADD24C,1.575000*%
%ADD25R,1.575000X1.575000*%
%ADD26R,0.800000X0.800000*%
G04 APERTURE END LIST*
D10*
X39261904Y-19107142D02*
X39214285Y-19154761D01*
X39071428Y-19202380D01*
X38976190Y-19202380D01*
X38833333Y-19154761D01*
X38738095Y-19059523D01*
X38690476Y-18964285D01*
X38642857Y-18773809D01*
X38642857Y-18630952D01*
X38690476Y-18440476D01*
X38738095Y-18345238D01*
X38833333Y-18250000D01*
X38976190Y-18202380D01*
X39071428Y-18202380D01*
X39214285Y-18250000D01*
X39261904Y-18297619D01*
X40119047Y-19202380D02*
X40119047Y-18678571D01*
X40071428Y-18583333D01*
X39976190Y-18535714D01*
X39785714Y-18535714D01*
X39690476Y-18583333D01*
X40119047Y-19154761D02*
X40023809Y-19202380D01*
X39785714Y-19202380D01*
X39690476Y-19154761D01*
X39642857Y-19059523D01*
X39642857Y-18964285D01*
X39690476Y-18869047D01*
X39785714Y-18821428D01*
X40023809Y-18821428D01*
X40119047Y-18773809D01*
X40738095Y-19202380D02*
X40642857Y-19154761D01*
X40595238Y-19059523D01*
X40595238Y-18202380D01*
X41119047Y-19202380D02*
X41119047Y-18535714D01*
X41119047Y-18202380D02*
X41071428Y-18250000D01*
X41119047Y-18297619D01*
X41166666Y-18250000D01*
X41119047Y-18202380D01*
X41119047Y-18297619D01*
X41595238Y-19202380D02*
X41595238Y-18202380D01*
X41595238Y-18583333D02*
X41690476Y-18535714D01*
X41880952Y-18535714D01*
X41976190Y-18583333D01*
X42023809Y-18630952D01*
X42071428Y-18726190D01*
X42071428Y-19011904D01*
X42023809Y-19107142D01*
X41976190Y-19154761D01*
X41880952Y-19202380D01*
X41690476Y-19202380D01*
X41595238Y-19154761D01*
X42500000Y-19202380D02*
X42500000Y-18535714D01*
X42500000Y-18726190D02*
X42547619Y-18630952D01*
X42595238Y-18583333D01*
X42690476Y-18535714D01*
X42785714Y-18535714D01*
X43547619Y-19202380D02*
X43547619Y-18678571D01*
X43500000Y-18583333D01*
X43404761Y-18535714D01*
X43214285Y-18535714D01*
X43119047Y-18583333D01*
X43547619Y-19154761D02*
X43452380Y-19202380D01*
X43214285Y-19202380D01*
X43119047Y-19154761D01*
X43071428Y-19059523D01*
X43071428Y-18964285D01*
X43119047Y-18869047D01*
X43214285Y-18821428D01*
X43452380Y-18821428D01*
X43547619Y-18773809D01*
X43880952Y-18535714D02*
X44261904Y-18535714D01*
X44023809Y-18202380D02*
X44023809Y-19059523D01*
X44071428Y-19154761D01*
X44166666Y-19202380D01*
X44261904Y-19202380D01*
X44738095Y-19202380D02*
X44642857Y-19154761D01*
X44595238Y-19107142D01*
X44547619Y-19011904D01*
X44547619Y-18726190D01*
X44595238Y-18630952D01*
X44642857Y-18583333D01*
X44738095Y-18535714D01*
X44880952Y-18535714D01*
X44976190Y-18583333D01*
X45023809Y-18630952D01*
X45071428Y-18726190D01*
X45071428Y-19011904D01*
X45023809Y-19107142D01*
X44976190Y-19154761D01*
X44880952Y-19202380D01*
X44738095Y-19202380D01*
X45500000Y-19202380D02*
X45500000Y-18535714D01*
X45500000Y-18726190D02*
X45547619Y-18630952D01*
X45595238Y-18583333D01*
X45690476Y-18535714D01*
X45785714Y-18535714D01*
X45880952Y-19297619D02*
X46642857Y-19297619D01*
X47071428Y-18202380D02*
X47166666Y-18202380D01*
X47261904Y-18250000D01*
X47309523Y-18297619D01*
X47357142Y-18392857D01*
X47404761Y-18583333D01*
X47404761Y-18821428D01*
X47357142Y-19011904D01*
X47309523Y-19107142D01*
X47261904Y-19154761D01*
X47166666Y-19202380D01*
X47071428Y-19202380D01*
X46976190Y-19154761D01*
X46928571Y-19107142D01*
X46880952Y-19011904D01*
X46833333Y-18821428D01*
X46833333Y-18583333D01*
X46880952Y-18392857D01*
X46928571Y-18297619D01*
X46976190Y-18250000D01*
X47071428Y-18202380D01*
X47785714Y-18297619D02*
X47833333Y-18250000D01*
X47928571Y-18202380D01*
X48166666Y-18202380D01*
X48261904Y-18250000D01*
X48309523Y-18297619D01*
X48357142Y-18392857D01*
X48357142Y-18488095D01*
X48309523Y-18630952D01*
X47738095Y-19202380D01*
X48357142Y-19202380D01*
X37595238Y-20852380D02*
X37261904Y-20376190D01*
X37023809Y-20852380D02*
X37023809Y-19852380D01*
X37404761Y-19852380D01*
X37500000Y-19900000D01*
X37547619Y-19947619D01*
X37595238Y-20042857D01*
X37595238Y-20185714D01*
X37547619Y-20280952D01*
X37500000Y-20328571D01*
X37404761Y-20376190D01*
X37023809Y-20376190D01*
X37928571Y-20185714D02*
X38166666Y-20852380D01*
X38404761Y-20185714D02*
X38166666Y-20852380D01*
X38071428Y-21090476D01*
X38023809Y-21138095D01*
X37928571Y-21185714D01*
X39214285Y-20852380D02*
X39214285Y-20328571D01*
X39166666Y-20233333D01*
X39071428Y-20185714D01*
X38880952Y-20185714D01*
X38785714Y-20233333D01*
X39214285Y-20804761D02*
X39119047Y-20852380D01*
X38880952Y-20852380D01*
X38785714Y-20804761D01*
X38738095Y-20709523D01*
X38738095Y-20614285D01*
X38785714Y-20519047D01*
X38880952Y-20471428D01*
X39119047Y-20471428D01*
X39214285Y-20423809D01*
X39690476Y-20185714D02*
X39690476Y-20852380D01*
X39690476Y-20280952D02*
X39738095Y-20233333D01*
X39833333Y-20185714D01*
X39976190Y-20185714D01*
X40071428Y-20233333D01*
X40119047Y-20328571D01*
X40119047Y-20852380D01*
X41357142Y-20852380D02*
X41357142Y-19852380D01*
X41690476Y-20566666D01*
X42023809Y-19852380D01*
X42023809Y-20852380D01*
X42642857Y-20852380D02*
X42547619Y-20804761D01*
X42500000Y-20757142D01*
X42452380Y-20661904D01*
X42452380Y-20376190D01*
X42500000Y-20280952D01*
X42547619Y-20233333D01*
X42642857Y-20185714D01*
X42785714Y-20185714D01*
X42880952Y-20233333D01*
X42928571Y-20280952D01*
X42976190Y-20376190D01*
X42976190Y-20661904D01*
X42928571Y-20757142D01*
X42880952Y-20804761D01*
X42785714Y-20852380D01*
X42642857Y-20852380D01*
X43404761Y-20852380D02*
X43404761Y-20185714D01*
X43404761Y-20376190D02*
X43452380Y-20280952D01*
X43500000Y-20233333D01*
X43595238Y-20185714D01*
X43690476Y-20185714D01*
X44452380Y-20185714D02*
X44452380Y-20995238D01*
X44404761Y-21090476D01*
X44357142Y-21138095D01*
X44261904Y-21185714D01*
X44119047Y-21185714D01*
X44023809Y-21138095D01*
X44452380Y-20804761D02*
X44357142Y-20852380D01*
X44166666Y-20852380D01*
X44071428Y-20804761D01*
X44023809Y-20757142D01*
X43976190Y-20661904D01*
X43976190Y-20376190D01*
X44023809Y-20280952D01*
X44071428Y-20233333D01*
X44166666Y-20185714D01*
X44357142Y-20185714D01*
X44452380Y-20233333D01*
X45309523Y-20804761D02*
X45214285Y-20852380D01*
X45023809Y-20852380D01*
X44928571Y-20804761D01*
X44880952Y-20709523D01*
X44880952Y-20328571D01*
X44928571Y-20233333D01*
X45023809Y-20185714D01*
X45214285Y-20185714D01*
X45309523Y-20233333D01*
X45357142Y-20328571D01*
X45357142Y-20423809D01*
X44880952Y-20519047D01*
X45785714Y-20185714D02*
X45785714Y-20852380D01*
X45785714Y-20280952D02*
X45833333Y-20233333D01*
X45928571Y-20185714D01*
X46071428Y-20185714D01*
X46166666Y-20233333D01*
X46214285Y-20328571D01*
X46214285Y-20852380D01*
X46642857Y-20804761D02*
X46738095Y-20852380D01*
X46928571Y-20852380D01*
X47023809Y-20804761D01*
X47071428Y-20709523D01*
X47071428Y-20661904D01*
X47023809Y-20566666D01*
X46928571Y-20519047D01*
X46785714Y-20519047D01*
X46690476Y-20471428D01*
X46642857Y-20376190D01*
X46642857Y-20328571D01*
X46690476Y-20233333D01*
X46785714Y-20185714D01*
X46928571Y-20185714D01*
X47023809Y-20233333D01*
X47357142Y-20185714D02*
X47738095Y-20185714D01*
X47500000Y-19852380D02*
X47500000Y-20709523D01*
X47547619Y-20804761D01*
X47642857Y-20852380D01*
X47738095Y-20852380D01*
X48452380Y-20804761D02*
X48357142Y-20852380D01*
X48166666Y-20852380D01*
X48071428Y-20804761D01*
X48023809Y-20709523D01*
X48023809Y-20328571D01*
X48071428Y-20233333D01*
X48166666Y-20185714D01*
X48357142Y-20185714D01*
X48452380Y-20233333D01*
X48500000Y-20328571D01*
X48500000Y-20423809D01*
X48023809Y-20519047D01*
X48928571Y-20852380D02*
X48928571Y-20185714D01*
X48928571Y-20376190D02*
X48976190Y-20280952D01*
X49023809Y-20233333D01*
X49119047Y-20185714D01*
X49214285Y-20185714D01*
X49547619Y-20185714D02*
X49547619Y-20852380D01*
X49547619Y-20280952D02*
X49595238Y-20233333D01*
X49690476Y-20185714D01*
X49833333Y-20185714D01*
X49928571Y-20233333D01*
X49976190Y-20328571D01*
X49976190Y-20852380D01*
X39833333Y-21502380D02*
X39357142Y-21502380D01*
X39309523Y-21978571D01*
X39357142Y-21930952D01*
X39452380Y-21883333D01*
X39690476Y-21883333D01*
X39785714Y-21930952D01*
X39833333Y-21978571D01*
X39880952Y-22073809D01*
X39880952Y-22311904D01*
X39833333Y-22407142D01*
X39785714Y-22454761D01*
X39690476Y-22502380D01*
X39452380Y-22502380D01*
X39357142Y-22454761D01*
X39309523Y-22407142D01*
X41023809Y-21454761D02*
X40166666Y-22740476D01*
X41880952Y-22502380D02*
X41309523Y-22502380D01*
X41595238Y-22502380D02*
X41595238Y-21502380D01*
X41500000Y-21645238D01*
X41404761Y-21740476D01*
X41309523Y-21788095D01*
X42738095Y-21502380D02*
X42547619Y-21502380D01*
X42452380Y-21550000D01*
X42404761Y-21597619D01*
X42309523Y-21740476D01*
X42261904Y-21930952D01*
X42261904Y-22311904D01*
X42309523Y-22407142D01*
X42357142Y-22454761D01*
X42452380Y-22502380D01*
X42642857Y-22502380D01*
X42738095Y-22454761D01*
X42785714Y-22407142D01*
X42833333Y-22311904D01*
X42833333Y-22073809D01*
X42785714Y-21978571D01*
X42738095Y-21930952D01*
X42642857Y-21883333D01*
X42452380Y-21883333D01*
X42357142Y-21930952D01*
X42309523Y-21978571D01*
X42261904Y-22073809D01*
X43976190Y-21454761D02*
X43119047Y-22740476D01*
X44261904Y-21597619D02*
X44309523Y-21550000D01*
X44404761Y-21502380D01*
X44642857Y-21502380D01*
X44738095Y-21550000D01*
X44785714Y-21597619D01*
X44833333Y-21692857D01*
X44833333Y-21788095D01*
X44785714Y-21930952D01*
X44214285Y-22502380D01*
X44833333Y-22502380D01*
X45452380Y-21502380D02*
X45547619Y-21502380D01*
X45642857Y-21550000D01*
X45690476Y-21597619D01*
X45738095Y-21692857D01*
X45785714Y-21883333D01*
X45785714Y-22121428D01*
X45738095Y-22311904D01*
X45690476Y-22407142D01*
X45642857Y-22454761D01*
X45547619Y-22502380D01*
X45452380Y-22502380D01*
X45357142Y-22454761D01*
X45309523Y-22407142D01*
X45261904Y-22311904D01*
X45214285Y-22121428D01*
X45214285Y-21883333D01*
X45261904Y-21692857D01*
X45309523Y-21597619D01*
X45357142Y-21550000D01*
X45452380Y-21502380D01*
X46166666Y-21597619D02*
X46214285Y-21550000D01*
X46309523Y-21502380D01*
X46547619Y-21502380D01*
X46642857Y-21550000D01*
X46690476Y-21597619D01*
X46738095Y-21692857D01*
X46738095Y-21788095D01*
X46690476Y-21930952D01*
X46119047Y-22502380D01*
X46738095Y-22502380D01*
X47119047Y-21597619D02*
X47166666Y-21550000D01*
X47261904Y-21502380D01*
X47500000Y-21502380D01*
X47595238Y-21550000D01*
X47642857Y-21597619D01*
X47690476Y-21692857D01*
X47690476Y-21788095D01*
X47642857Y-21930952D01*
X47071428Y-22502380D01*
X47690476Y-22502380D01*
D11*
X77727500Y-13657776D02*
X77727500Y-14167224D01*
X78772500Y-13657776D02*
X78772500Y-14167224D01*
X73277500Y-13745276D02*
X73277500Y-14254724D01*
X74322500Y-13745276D02*
X74322500Y-14254724D01*
X68227500Y-13745276D02*
X68227500Y-14254724D01*
X69272500Y-13745276D02*
X69272500Y-14254724D01*
X63677500Y-13745276D02*
X63677500Y-14254724D01*
X64722500Y-13745276D02*
X64722500Y-14254724D01*
X58677500Y-13745276D02*
X58677500Y-14254724D01*
X59722500Y-13745276D02*
X59722500Y-14254724D01*
X54227500Y-13745276D02*
X54227500Y-14254724D01*
X55272500Y-13745276D02*
X55272500Y-14254724D01*
X49277500Y-13857776D02*
X49277500Y-14367224D01*
X50322500Y-13857776D02*
X50322500Y-14367224D01*
X44727500Y-13745276D02*
X44727500Y-14254724D01*
X45772500Y-13745276D02*
X45772500Y-14254724D01*
X39727500Y-13745276D02*
X39727500Y-14254724D01*
X40772500Y-13745276D02*
X40772500Y-14254724D01*
X36245276Y-13772500D02*
X36754724Y-13772500D01*
X36245276Y-12727500D02*
X36754724Y-12727500D01*
X31495276Y-13772500D02*
X32004724Y-13772500D01*
X31495276Y-12727500D02*
X32004724Y-12727500D01*
X26945276Y-13722500D02*
X27454724Y-13722500D01*
X26945276Y-12677500D02*
X27454724Y-12677500D01*
X78945276Y13277500D02*
X79454724Y13277500D01*
X78945276Y14322500D02*
X79454724Y14322500D01*
X70677500Y14142224D02*
X70677500Y13632776D01*
X71722500Y14142224D02*
X71722500Y13632776D01*
X61277500Y14254724D02*
X61277500Y13745276D01*
X62322500Y14254724D02*
X62322500Y13745276D01*
X51727500Y14254724D02*
X51727500Y13745276D01*
X52772500Y14254724D02*
X52772500Y13745276D01*
X42277500Y14454724D02*
X42277500Y13945276D01*
X43322500Y14454724D02*
X43322500Y13945276D01*
X32677500Y14254724D02*
X32677500Y13745276D01*
X33722500Y14254724D02*
X33722500Y13745276D01*
X74227500Y16004724D02*
X74227500Y15495276D01*
X75272500Y16004724D02*
X75272500Y15495276D01*
X68277500Y17054724D02*
X68277500Y16545276D01*
X69322500Y17054724D02*
X69322500Y16545276D01*
X58727500Y17054724D02*
X58727500Y16545276D01*
X59772500Y17054724D02*
X59772500Y16545276D01*
X49227500Y17004724D02*
X49227500Y16495276D01*
X50272500Y17004724D02*
X50272500Y16495276D01*
X39727500Y17004724D02*
X39727500Y16495276D01*
X40772500Y17004724D02*
X40772500Y16495276D01*
X30077500Y17054724D02*
X30077500Y16545276D01*
X31122500Y17054724D02*
X31122500Y16545276D01*
X10745276Y17727500D02*
X11254724Y17727500D01*
X10745276Y18772500D02*
X11254724Y18772500D01*
X17772500Y16245276D02*
X17772500Y16754724D01*
X16727500Y16245276D02*
X16727500Y16754724D01*
X13495276Y15227500D02*
X14004724Y15227500D01*
X13495276Y16272500D02*
X14004724Y16272500D01*
X22282500Y16245276D02*
X22282500Y16754724D01*
X21237500Y16245276D02*
X21237500Y16754724D01*
X11122500Y-16854724D02*
X11122500Y-16345276D01*
X10077500Y-16854724D02*
X10077500Y-16345276D01*
X15322500Y-16854724D02*
X15322500Y-16345276D01*
X14277500Y-16854724D02*
X14277500Y-16345276D01*
X19722500Y-16854724D02*
X19722500Y-16345276D01*
X18677500Y-16854724D02*
X18677500Y-16345276D01*
X8254724Y-17727500D02*
X7745276Y-17727500D01*
X8254724Y-18772500D02*
X7745276Y-18772500D01*
X90590000Y-21710000D02*
X81960000Y-21710000D01*
X90590000Y-21594545D02*
X81960000Y-21594545D01*
X90590000Y-21479090D02*
X81960000Y-21479090D01*
X90590000Y-21363635D02*
X81960000Y-21363635D01*
X90590000Y-21248180D02*
X81960000Y-21248180D01*
X90590000Y-21132725D02*
X81960000Y-21132725D01*
X90590000Y-21017270D02*
X81960000Y-21017270D01*
X90590000Y-20901815D02*
X81960000Y-20901815D01*
X90590000Y-20786360D02*
X81960000Y-20786360D01*
X90590000Y-20670905D02*
X81960000Y-20670905D01*
X90590000Y-20555450D02*
X81960000Y-20555450D01*
X90590000Y-20439995D02*
X81960000Y-20439995D01*
X90590000Y-20324540D02*
X81960000Y-20324540D01*
X90590000Y-20209085D02*
X81960000Y-20209085D01*
X90590000Y-20093630D02*
X81960000Y-20093630D01*
X90590000Y-19978175D02*
X81960000Y-19978175D01*
X90590000Y-19862720D02*
X81960000Y-19862720D01*
X90590000Y-19747265D02*
X81960000Y-19747265D01*
X90590000Y-19631810D02*
X81960000Y-19631810D01*
X90590000Y-19516355D02*
X81960000Y-19516355D01*
X90590000Y-19400900D02*
X81960000Y-19400900D01*
X90590000Y-19285445D02*
X81960000Y-19285445D01*
X81960000Y-20860000D02*
X81610000Y-20860000D01*
X81960000Y-20140000D02*
X81610000Y-20140000D01*
X90590000Y-21830000D02*
X81960000Y-21830000D01*
X81960000Y-21830000D02*
X81960000Y-19170000D01*
X90590000Y-19170000D02*
X81960000Y-19170000D01*
X90590000Y-21830000D02*
X90590000Y-19170000D01*
X79390000Y-21830000D02*
X79390000Y-20500000D01*
X80500000Y-21830000D02*
X79390000Y-21830000D01*
X27245000Y-18150000D02*
X27245000Y-21050000D01*
X33955000Y-18150000D02*
X33955000Y-21050000D01*
X29150000Y-22955000D02*
X32050000Y-22955000D01*
X29150000Y-16245000D02*
X32050000Y-16245000D01*
D12*
X81450000Y-5800000D02*
X81450000Y-10200000D01*
X77550000Y-5750000D02*
X81450000Y-5750000D01*
X81450000Y-10250000D02*
X77550000Y-10250000D01*
X77550000Y-5750000D02*
X77550000Y-7400000D01*
X77550000Y-10250000D02*
X77550000Y-8600000D01*
X77527000Y-11200000D02*
G75*
G03*
X77527000Y-11200000I-127000J0D01*
G01*
X78227000Y-9800000D02*
G75*
G03*
X78227000Y-9800000I-127000J0D01*
G01*
X77550000Y-7401000D02*
G75*
G02*
X77550000Y-8599000I0J-599000D01*
G01*
X77650000Y5800000D02*
X77650000Y10200000D01*
X81550000Y5750000D02*
X77650000Y5750000D01*
X77650000Y10250000D02*
X81550000Y10250000D01*
X81550000Y5750000D02*
X81550000Y7400000D01*
X81550000Y10250000D02*
X81550000Y8600000D01*
X81827000Y11200000D02*
G75*
G03*
X81827000Y11200000I-127000J0D01*
G01*
X81127000Y9800000D02*
G75*
G03*
X81127000Y9800000I-127000J0D01*
G01*
X81550000Y7401000D02*
G75*
G02*
X81550000Y8599000I0J599000D01*
G01*
X76950000Y-5800000D02*
X76950000Y-10200000D01*
X73050000Y-5750000D02*
X76950000Y-5750000D01*
X76950000Y-10250000D02*
X73050000Y-10250000D01*
X73050000Y-5750000D02*
X73050000Y-7400000D01*
X73050000Y-10250000D02*
X73050000Y-8600000D01*
X73027000Y-11200000D02*
G75*
G03*
X73027000Y-11200000I-127000J0D01*
G01*
X73727000Y-9800000D02*
G75*
G03*
X73727000Y-9800000I-127000J0D01*
G01*
X73050000Y-7401000D02*
G75*
G02*
X73050000Y-8599000I0J-599000D01*
G01*
X73050000Y5800000D02*
X73050000Y10200000D01*
X76950000Y5750000D02*
X73050000Y5750000D01*
X73050000Y10250000D02*
X76950000Y10250000D01*
X76950000Y5750000D02*
X76950000Y7400000D01*
X76950000Y10250000D02*
X76950000Y8600000D01*
X77227000Y11200000D02*
G75*
G03*
X77227000Y11200000I-127000J0D01*
G01*
X76527000Y9800000D02*
G75*
G03*
X76527000Y9800000I-127000J0D01*
G01*
X76950000Y7401000D02*
G75*
G02*
X76950000Y8599000I0J599000D01*
G01*
X71950000Y-5800000D02*
X71950000Y-10200000D01*
X68050000Y-5750000D02*
X71950000Y-5750000D01*
X71950000Y-10250000D02*
X68050000Y-10250000D01*
X68050000Y-5750000D02*
X68050000Y-7400000D01*
X68050000Y-10250000D02*
X68050000Y-8600000D01*
X68027000Y-11200000D02*
G75*
G03*
X68027000Y-11200000I-127000J0D01*
G01*
X68727000Y-9800000D02*
G75*
G03*
X68727000Y-9800000I-127000J0D01*
G01*
X68050000Y-7401000D02*
G75*
G02*
X68050000Y-8599000I0J-599000D01*
G01*
X68050000Y5800000D02*
X68050000Y10200000D01*
X71950000Y5750000D02*
X68050000Y5750000D01*
X68050000Y10250000D02*
X71950000Y10250000D01*
X71950000Y5750000D02*
X71950000Y7400000D01*
X71950000Y10250000D02*
X71950000Y8600000D01*
X72227000Y11200000D02*
G75*
G03*
X72227000Y11200000I-127000J0D01*
G01*
X71527000Y9800000D02*
G75*
G03*
X71527000Y9800000I-127000J0D01*
G01*
X71950000Y7401000D02*
G75*
G02*
X71950000Y8599000I0J599000D01*
G01*
X67450000Y-5800000D02*
X67450000Y-10200000D01*
X63550000Y-5750000D02*
X67450000Y-5750000D01*
X67450000Y-10250000D02*
X63550000Y-10250000D01*
X63550000Y-5750000D02*
X63550000Y-7400000D01*
X63550000Y-10250000D02*
X63550000Y-8600000D01*
X63527000Y-11200000D02*
G75*
G03*
X63527000Y-11200000I-127000J0D01*
G01*
X64227000Y-9800000D02*
G75*
G03*
X64227000Y-9800000I-127000J0D01*
G01*
X63550000Y-7401000D02*
G75*
G02*
X63550000Y-8599000I0J-599000D01*
G01*
X63550000Y5800000D02*
X63550000Y10200000D01*
X67450000Y5750000D02*
X63550000Y5750000D01*
X63550000Y10250000D02*
X67450000Y10250000D01*
X67450000Y5750000D02*
X67450000Y7400000D01*
X67450000Y10250000D02*
X67450000Y8600000D01*
X67727000Y11200000D02*
G75*
G03*
X67727000Y11200000I-127000J0D01*
G01*
X67027000Y9800000D02*
G75*
G03*
X67027000Y9800000I-127000J0D01*
G01*
X67450000Y7401000D02*
G75*
G02*
X67450000Y8599000I0J599000D01*
G01*
X62450000Y-5800000D02*
X62450000Y-10200000D01*
X58550000Y-5750000D02*
X62450000Y-5750000D01*
X62450000Y-10250000D02*
X58550000Y-10250000D01*
X58550000Y-5750000D02*
X58550000Y-7400000D01*
X58550000Y-10250000D02*
X58550000Y-8600000D01*
X58527000Y-11200000D02*
G75*
G03*
X58527000Y-11200000I-127000J0D01*
G01*
X59227000Y-9800000D02*
G75*
G03*
X59227000Y-9800000I-127000J0D01*
G01*
X58550000Y-7401000D02*
G75*
G02*
X58550000Y-8599000I0J-599000D01*
G01*
X58550000Y5800000D02*
X58550000Y10200000D01*
X62450000Y5750000D02*
X58550000Y5750000D01*
X58550000Y10250000D02*
X62450000Y10250000D01*
X62450000Y5750000D02*
X62450000Y7400000D01*
X62450000Y10250000D02*
X62450000Y8600000D01*
X62727000Y11200000D02*
G75*
G03*
X62727000Y11200000I-127000J0D01*
G01*
X62027000Y9800000D02*
G75*
G03*
X62027000Y9800000I-127000J0D01*
G01*
X62450000Y7401000D02*
G75*
G02*
X62450000Y8599000I0J599000D01*
G01*
X57950000Y-5800000D02*
X57950000Y-10200000D01*
X54050000Y-5750000D02*
X57950000Y-5750000D01*
X57950000Y-10250000D02*
X54050000Y-10250000D01*
X54050000Y-5750000D02*
X54050000Y-7400000D01*
X54050000Y-10250000D02*
X54050000Y-8600000D01*
X54027000Y-11200000D02*
G75*
G03*
X54027000Y-11200000I-127000J0D01*
G01*
X54727000Y-9800000D02*
G75*
G03*
X54727000Y-9800000I-127000J0D01*
G01*
X54050000Y-7401000D02*
G75*
G02*
X54050000Y-8599000I0J-599000D01*
G01*
X54050000Y5800000D02*
X54050000Y10200000D01*
X57950000Y5750000D02*
X54050000Y5750000D01*
X54050000Y10250000D02*
X57950000Y10250000D01*
X57950000Y5750000D02*
X57950000Y7400000D01*
X57950000Y10250000D02*
X57950000Y8600000D01*
X58227000Y11200000D02*
G75*
G03*
X58227000Y11200000I-127000J0D01*
G01*
X57527000Y9800000D02*
G75*
G03*
X57527000Y9800000I-127000J0D01*
G01*
X57950000Y7401000D02*
G75*
G02*
X57950000Y8599000I0J599000D01*
G01*
X52950000Y-5800000D02*
X52950000Y-10200000D01*
X49050000Y-5750000D02*
X52950000Y-5750000D01*
X52950000Y-10250000D02*
X49050000Y-10250000D01*
X49050000Y-5750000D02*
X49050000Y-7400000D01*
X49050000Y-10250000D02*
X49050000Y-8600000D01*
X49027000Y-11200000D02*
G75*
G03*
X49027000Y-11200000I-127000J0D01*
G01*
X49727000Y-9800000D02*
G75*
G03*
X49727000Y-9800000I-127000J0D01*
G01*
X49050000Y-7401000D02*
G75*
G02*
X49050000Y-8599000I0J-599000D01*
G01*
X48450000Y-5800000D02*
X48450000Y-10200000D01*
X44550000Y-5750000D02*
X48450000Y-5750000D01*
X48450000Y-10250000D02*
X44550000Y-10250000D01*
X44550000Y-5750000D02*
X44550000Y-7400000D01*
X44550000Y-10250000D02*
X44550000Y-8600000D01*
X44527000Y-11200000D02*
G75*
G03*
X44527000Y-11200000I-127000J0D01*
G01*
X45227000Y-9800000D02*
G75*
G03*
X45227000Y-9800000I-127000J0D01*
G01*
X44550000Y-7401000D02*
G75*
G02*
X44550000Y-8599000I0J-599000D01*
G01*
X43450000Y-5800000D02*
X43450000Y-10200000D01*
X39550000Y-5750000D02*
X43450000Y-5750000D01*
X43450000Y-10250000D02*
X39550000Y-10250000D01*
X39550000Y-5750000D02*
X39550000Y-7400000D01*
X39550000Y-10250000D02*
X39550000Y-8600000D01*
X39527000Y-11200000D02*
G75*
G03*
X39527000Y-11200000I-127000J0D01*
G01*
X40227000Y-9800000D02*
G75*
G03*
X40227000Y-9800000I-127000J0D01*
G01*
X39550000Y-7401000D02*
G75*
G02*
X39550000Y-8599000I0J-599000D01*
G01*
X38950000Y-5800000D02*
X38950000Y-10200000D01*
X35050000Y-5750000D02*
X38950000Y-5750000D01*
X38950000Y-10250000D02*
X35050000Y-10250000D01*
X35050000Y-5750000D02*
X35050000Y-7400000D01*
X35050000Y-10250000D02*
X35050000Y-8600000D01*
X35027000Y-11200000D02*
G75*
G03*
X35027000Y-11200000I-127000J0D01*
G01*
X35727000Y-9800000D02*
G75*
G03*
X35727000Y-9800000I-127000J0D01*
G01*
X35050000Y-7401000D02*
G75*
G02*
X35050000Y-8599000I0J-599000D01*
G01*
X33950000Y-5800000D02*
X33950000Y-10200000D01*
X30050000Y-5750000D02*
X33950000Y-5750000D01*
X33950000Y-10250000D02*
X30050000Y-10250000D01*
X30050000Y-5750000D02*
X30050000Y-7400000D01*
X30050000Y-10250000D02*
X30050000Y-8600000D01*
X30027000Y-11200000D02*
G75*
G03*
X30027000Y-11200000I-127000J0D01*
G01*
X30727000Y-9800000D02*
G75*
G03*
X30727000Y-9800000I-127000J0D01*
G01*
X30050000Y-7401000D02*
G75*
G02*
X30050000Y-8599000I0J-599000D01*
G01*
X29450000Y-5800000D02*
X29450000Y-10200000D01*
X25550000Y-5750000D02*
X29450000Y-5750000D01*
X29450000Y-10250000D02*
X25550000Y-10250000D01*
X25550000Y-5750000D02*
X25550000Y-7400000D01*
X25550000Y-10250000D02*
X25550000Y-8600000D01*
X25527000Y-11200000D02*
G75*
G03*
X25527000Y-11200000I-127000J0D01*
G01*
X26227000Y-9800000D02*
G75*
G03*
X26227000Y-9800000I-127000J0D01*
G01*
X25550000Y-7401000D02*
G75*
G02*
X25550000Y-8599000I0J-599000D01*
G01*
X49050000Y5800000D02*
X49050000Y10200000D01*
X52950000Y5750000D02*
X49050000Y5750000D01*
X49050000Y10250000D02*
X52950000Y10250000D01*
X52950000Y5750000D02*
X52950000Y7400000D01*
X52950000Y10250000D02*
X52950000Y8600000D01*
X53227000Y11200000D02*
G75*
G03*
X53227000Y11200000I-127000J0D01*
G01*
X52527000Y9800000D02*
G75*
G03*
X52527000Y9800000I-127000J0D01*
G01*
X52950000Y7401000D02*
G75*
G02*
X52950000Y8599000I0J599000D01*
G01*
X44550000Y5800000D02*
X44550000Y10200000D01*
X48450000Y5750000D02*
X44550000Y5750000D01*
X44550000Y10250000D02*
X48450000Y10250000D01*
X48450000Y5750000D02*
X48450000Y7400000D01*
X48450000Y10250000D02*
X48450000Y8600000D01*
X48727000Y11200000D02*
G75*
G03*
X48727000Y11200000I-127000J0D01*
G01*
X48027000Y9800000D02*
G75*
G03*
X48027000Y9800000I-127000J0D01*
G01*
X48450000Y7401000D02*
G75*
G02*
X48450000Y8599000I0J599000D01*
G01*
X39550000Y5800000D02*
X39550000Y10200000D01*
X43450000Y5750000D02*
X39550000Y5750000D01*
X39550000Y10250000D02*
X43450000Y10250000D01*
X43450000Y5750000D02*
X43450000Y7400000D01*
X43450000Y10250000D02*
X43450000Y8600000D01*
X43727000Y11200000D02*
G75*
G03*
X43727000Y11200000I-127000J0D01*
G01*
X43027000Y9800000D02*
G75*
G03*
X43027000Y9800000I-127000J0D01*
G01*
X43450000Y7401000D02*
G75*
G02*
X43450000Y8599000I0J599000D01*
G01*
X35050000Y5800000D02*
X35050000Y10200000D01*
X38950000Y5750000D02*
X35050000Y5750000D01*
X35050000Y10250000D02*
X38950000Y10250000D01*
X38950000Y5750000D02*
X38950000Y7400000D01*
X38950000Y10250000D02*
X38950000Y8600000D01*
X39227000Y11200000D02*
G75*
G03*
X39227000Y11200000I-127000J0D01*
G01*
X38527000Y9800000D02*
G75*
G03*
X38527000Y9800000I-127000J0D01*
G01*
X38950000Y7401000D02*
G75*
G02*
X38950000Y8599000I0J599000D01*
G01*
X30050000Y5800000D02*
X30050000Y10200000D01*
X33950000Y5750000D02*
X30050000Y5750000D01*
X30050000Y10250000D02*
X33950000Y10250000D01*
X33950000Y5750000D02*
X33950000Y7400000D01*
X33950000Y10250000D02*
X33950000Y8600000D01*
X34227000Y11200000D02*
G75*
G03*
X34227000Y11200000I-127000J0D01*
G01*
X33527000Y9800000D02*
G75*
G03*
X33527000Y9800000I-127000J0D01*
G01*
X33950000Y7401000D02*
G75*
G02*
X33950000Y8599000I0J599000D01*
G01*
X25550000Y5800000D02*
X25550000Y10200000D01*
X29450000Y5750000D02*
X25550000Y5750000D01*
X25550000Y10250000D02*
X29450000Y10250000D01*
X29450000Y5750000D02*
X29450000Y7400000D01*
X29450000Y10250000D02*
X29450000Y8600000D01*
X29727000Y11200000D02*
G75*
G03*
X29727000Y11200000I-127000J0D01*
G01*
X29027000Y9800000D02*
G75*
G03*
X29027000Y9800000I-127000J0D01*
G01*
X29450000Y7401000D02*
G75*
G02*
X29450000Y8599000I0J599000D01*
G01*
D13*
X88076000Y10580000D02*
X88076000Y11076000D01*
X88076000Y11076000D02*
X87580000Y11076000D01*
X88076000Y7420000D02*
X88076000Y6924000D01*
X88076000Y6924000D02*
X87580000Y6924000D01*
X83924000Y7420000D02*
X83924000Y6924000D01*
X83924000Y6924000D02*
X84420000Y6924000D01*
X83924000Y10580000D02*
X83924000Y11076000D01*
X83924000Y11076000D02*
X84420000Y11076000D01*
D10*
X87325000Y11540000D02*
G75*
G03*
X87325000Y11540000I-75000J0D01*
G01*
D12*
X14050000Y8300000D02*
X14050000Y12700000D01*
X17950000Y8250000D02*
X14050000Y8250000D01*
X14050000Y12750000D02*
X17950000Y12750000D01*
X17950000Y8250000D02*
X17950000Y9900000D01*
X17950000Y12750000D02*
X17950000Y11100000D01*
X18227000Y13700000D02*
G75*
G03*
X18227000Y13700000I-127000J0D01*
G01*
X17527000Y12300000D02*
G75*
G03*
X17527000Y12300000I-127000J0D01*
G01*
X17950000Y9901000D02*
G75*
G02*
X17950000Y11099000I0J599000D01*
G01*
X9550000Y8300000D02*
X9550000Y12700000D01*
X13450000Y8250000D02*
X9550000Y8250000D01*
X9550000Y12750000D02*
X13450000Y12750000D01*
X13450000Y8250000D02*
X13450000Y9900000D01*
X13450000Y12750000D02*
X13450000Y11100000D01*
X13727000Y13700000D02*
G75*
G03*
X13727000Y13700000I-127000J0D01*
G01*
X13027000Y12300000D02*
G75*
G03*
X13027000Y12300000I-127000J0D01*
G01*
X13450000Y9901000D02*
G75*
G02*
X13450000Y11099000I0J599000D01*
G01*
X5050000Y8300000D02*
X5050000Y12700000D01*
X8950000Y8250000D02*
X5050000Y8250000D01*
X5050000Y12750000D02*
X8950000Y12750000D01*
X8950000Y8250000D02*
X8950000Y9900000D01*
X8950000Y12750000D02*
X8950000Y11100000D01*
X9227000Y13700000D02*
G75*
G03*
X9227000Y13700000I-127000J0D01*
G01*
X8527000Y12300000D02*
G75*
G03*
X8527000Y12300000I-127000J0D01*
G01*
X8950000Y9901000D02*
G75*
G02*
X8950000Y11099000I0J599000D01*
G01*
X18550000Y8300000D02*
X18550000Y12700000D01*
X22450000Y8250000D02*
X18550000Y8250000D01*
X18550000Y12750000D02*
X22450000Y12750000D01*
X22450000Y8250000D02*
X22450000Y9900000D01*
X22450000Y12750000D02*
X22450000Y11100000D01*
X22727000Y13700000D02*
G75*
G03*
X22727000Y13700000I-127000J0D01*
G01*
X22027000Y12300000D02*
G75*
G03*
X22027000Y12300000I-127000J0D01*
G01*
X22450000Y9901000D02*
G75*
G02*
X22450000Y11099000I0J599000D01*
G01*
X13450000Y-8300000D02*
X13450000Y-12700000D01*
X9550000Y-8250000D02*
X13450000Y-8250000D01*
X13450000Y-12750000D02*
X9550000Y-12750000D01*
X9550000Y-8250000D02*
X9550000Y-9900000D01*
X9550000Y-12750000D02*
X9550000Y-11100000D01*
X9527000Y-13700000D02*
G75*
G03*
X9527000Y-13700000I-127000J0D01*
G01*
X10227000Y-12300000D02*
G75*
G03*
X10227000Y-12300000I-127000J0D01*
G01*
X9550000Y-9901000D02*
G75*
G02*
X9550000Y-11099000I0J-599000D01*
G01*
X8950000Y-8300000D02*
X8950000Y-12700000D01*
X5050000Y-8250000D02*
X8950000Y-8250000D01*
X8950000Y-12750000D02*
X5050000Y-12750000D01*
X5050000Y-8250000D02*
X5050000Y-9900000D01*
X5050000Y-12750000D02*
X5050000Y-11100000D01*
X5027000Y-13700000D02*
G75*
G03*
X5027000Y-13700000I-127000J0D01*
G01*
X5727000Y-12300000D02*
G75*
G03*
X5727000Y-12300000I-127000J0D01*
G01*
X5050000Y-9901000D02*
G75*
G02*
X5050000Y-11099000I0J-599000D01*
G01*
X17950000Y-8300000D02*
X17950000Y-12700000D01*
X14050000Y-8250000D02*
X17950000Y-8250000D01*
X17950000Y-12750000D02*
X14050000Y-12750000D01*
X14050000Y-8250000D02*
X14050000Y-9900000D01*
X14050000Y-12750000D02*
X14050000Y-11100000D01*
X14027000Y-13700000D02*
G75*
G03*
X14027000Y-13700000I-127000J0D01*
G01*
X14727000Y-12300000D02*
G75*
G03*
X14727000Y-12300000I-127000J0D01*
G01*
X14050000Y-9901000D02*
G75*
G02*
X14050000Y-11099000I0J-599000D01*
G01*
X22450000Y-8300000D02*
X22450000Y-12700000D01*
X18550000Y-8250000D02*
X22450000Y-8250000D01*
X22450000Y-12750000D02*
X18550000Y-12750000D01*
X18550000Y-8250000D02*
X18550000Y-9900000D01*
X18550000Y-12750000D02*
X18550000Y-11100000D01*
X18527000Y-13700000D02*
G75*
G03*
X18527000Y-13700000I-127000J0D01*
G01*
X19227000Y-12300000D02*
G75*
G03*
X19227000Y-12300000I-127000J0D01*
G01*
X18550000Y-9901000D02*
G75*
G02*
X18550000Y-11099000I0J-599000D01*
G01*
X-9500000Y15400000D02*
X3000000Y15400000D01*
X3000000Y15400000D02*
X3000000Y-15400000D01*
X3000000Y-15400000D02*
X-9500000Y-15400000D01*
X-9500000Y-15400000D02*
X-9500000Y15400000D01*
X-14780000Y5000D02*
X-15480000Y5000D01*
X-9500000Y-8370000D02*
X-15500000Y-8370000D01*
X-15500000Y-8370000D02*
X-15500000Y8380000D01*
X-15500000Y8380000D02*
X-9500000Y8380000D01*
X-9500000Y-10430000D02*
X-15500000Y-10430000D01*
X-9500000Y-14570000D02*
X-15499000Y-14570000D01*
X-15499000Y-14570000D02*
X-15499000Y-10460000D01*
X-15500000Y14540000D02*
X-15500000Y10430000D01*
X-15500000Y10430000D02*
X-9500000Y10430000D01*
X-9500000Y14570000D02*
X-15500000Y14570000D01*
D14*
X1010000Y-6710000D02*
G75*
G03*
X1010000Y-6710000I-250000J0D01*
G01*
D10*
X76824000Y15220000D02*
X76824000Y15210000D01*
X76824000Y15210000D02*
X76493000Y14880000D01*
X76143000Y15220000D02*
X76153000Y15220000D01*
X76153000Y15220000D02*
X76493000Y14880000D01*
X76143000Y15220000D02*
X76824000Y15220000D01*
X75743000Y15240000D02*
X75743000Y16390000D01*
X77244000Y15240000D02*
X77244000Y16390000D01*
X75744000Y16390000D02*
X77223000Y16390000D01*
X77246000Y14860000D02*
X77246000Y13810000D01*
X76846000Y13510000D02*
X76946000Y13510000D01*
X76946000Y13510000D02*
X77246000Y13810000D01*
X76146000Y13510000D02*
X76846000Y13510000D01*
X76146000Y13510000D02*
X76046000Y13510000D01*
X76046000Y13510000D02*
X75746000Y13810000D01*
X75746000Y14860000D02*
X75746000Y13810000D01*
X76493000Y15220000D02*
X76493000Y14880000D01*
X67324000Y15220000D02*
X67324000Y15210000D01*
X67324000Y15210000D02*
X66993000Y14880000D01*
X66643000Y15220000D02*
X66653000Y15220000D01*
X66653000Y15220000D02*
X66993000Y14880000D01*
X66643000Y15220000D02*
X67324000Y15220000D01*
X66243000Y15240000D02*
X66243000Y16390000D01*
X67744000Y15240000D02*
X67744000Y16390000D01*
X66244000Y16390000D02*
X67723000Y16390000D01*
X67746000Y14860000D02*
X67746000Y13810000D01*
X67346000Y13510000D02*
X67446000Y13510000D01*
X67446000Y13510000D02*
X67746000Y13810000D01*
X66646000Y13510000D02*
X67346000Y13510000D01*
X66646000Y13510000D02*
X66546000Y13510000D01*
X66546000Y13510000D02*
X66246000Y13810000D01*
X66246000Y14860000D02*
X66246000Y13810000D01*
X66993000Y15220000D02*
X66993000Y14880000D01*
X57824000Y15220000D02*
X57824000Y15210000D01*
X57824000Y15210000D02*
X57493000Y14880000D01*
X57143000Y15220000D02*
X57153000Y15220000D01*
X57153000Y15220000D02*
X57493000Y14880000D01*
X57143000Y15220000D02*
X57824000Y15220000D01*
X56743000Y15240000D02*
X56743000Y16390000D01*
X58244000Y15240000D02*
X58244000Y16390000D01*
X56744000Y16390000D02*
X58223000Y16390000D01*
X58246000Y14860000D02*
X58246000Y13810000D01*
X57846000Y13510000D02*
X57946000Y13510000D01*
X57946000Y13510000D02*
X58246000Y13810000D01*
X57146000Y13510000D02*
X57846000Y13510000D01*
X57146000Y13510000D02*
X57046000Y13510000D01*
X57046000Y13510000D02*
X56746000Y13810000D01*
X56746000Y14860000D02*
X56746000Y13810000D01*
X57493000Y15220000D02*
X57493000Y14880000D01*
X48324000Y15220000D02*
X48324000Y15210000D01*
X48324000Y15210000D02*
X47993000Y14880000D01*
X47643000Y15220000D02*
X47653000Y15220000D01*
X47653000Y15220000D02*
X47993000Y14880000D01*
X47643000Y15220000D02*
X48324000Y15220000D01*
X47243000Y15240000D02*
X47243000Y16390000D01*
X48744000Y15240000D02*
X48744000Y16390000D01*
X47244000Y16390000D02*
X48723000Y16390000D01*
X48746000Y14860000D02*
X48746000Y13810000D01*
X48346000Y13510000D02*
X48446000Y13510000D01*
X48446000Y13510000D02*
X48746000Y13810000D01*
X47646000Y13510000D02*
X48346000Y13510000D01*
X47646000Y13510000D02*
X47546000Y13510000D01*
X47546000Y13510000D02*
X47246000Y13810000D01*
X47246000Y14860000D02*
X47246000Y13810000D01*
X47993000Y15220000D02*
X47993000Y14880000D01*
X38824000Y15220000D02*
X38824000Y15210000D01*
X38824000Y15210000D02*
X38493000Y14880000D01*
X38143000Y15220000D02*
X38153000Y15220000D01*
X38153000Y15220000D02*
X38493000Y14880000D01*
X38143000Y15220000D02*
X38824000Y15220000D01*
X37743000Y15240000D02*
X37743000Y16390000D01*
X39244000Y15240000D02*
X39244000Y16390000D01*
X37744000Y16390000D02*
X39223000Y16390000D01*
X39246000Y14860000D02*
X39246000Y13810000D01*
X38846000Y13510000D02*
X38946000Y13510000D01*
X38946000Y13510000D02*
X39246000Y13810000D01*
X38146000Y13510000D02*
X38846000Y13510000D01*
X38146000Y13510000D02*
X38046000Y13510000D01*
X38046000Y13510000D02*
X37746000Y13810000D01*
X37746000Y14860000D02*
X37746000Y13810000D01*
X38493000Y15220000D02*
X38493000Y14880000D01*
X29324000Y15220000D02*
X29324000Y15210000D01*
X29324000Y15210000D02*
X28993000Y14880000D01*
X28643000Y15220000D02*
X28653000Y15220000D01*
X28653000Y15220000D02*
X28993000Y14880000D01*
X28643000Y15220000D02*
X29324000Y15220000D01*
X28243000Y15240000D02*
X28243000Y16390000D01*
X29744000Y15240000D02*
X29744000Y16390000D01*
X28244000Y16390000D02*
X29723000Y16390000D01*
X29746000Y14860000D02*
X29746000Y13810000D01*
X29346000Y13510000D02*
X29446000Y13510000D01*
X29446000Y13510000D02*
X29746000Y13810000D01*
X28646000Y13510000D02*
X29346000Y13510000D01*
X28646000Y13510000D02*
X28546000Y13510000D01*
X28546000Y13510000D02*
X28246000Y13810000D01*
X28246000Y14860000D02*
X28246000Y13810000D01*
X28993000Y15220000D02*
X28993000Y14880000D01*
X5176000Y-17720000D02*
X5176000Y-17710000D01*
X5176000Y-17710000D02*
X5507000Y-17380000D01*
X5857000Y-17720000D02*
X5847000Y-17720000D01*
X5847000Y-17720000D02*
X5507000Y-17380000D01*
X5857000Y-17720000D02*
X5176000Y-17720000D01*
X6257000Y-17740000D02*
X6257000Y-18890000D01*
X4756000Y-17740000D02*
X4756000Y-18890000D01*
X6256000Y-18890000D02*
X4777000Y-18890000D01*
X4754000Y-17360000D02*
X4754000Y-16310000D01*
X5154000Y-16010000D02*
X5054000Y-16010000D01*
X5054000Y-16010000D02*
X4754000Y-16310000D01*
X5854000Y-16010000D02*
X5154000Y-16010000D01*
X5854000Y-16010000D02*
X5954000Y-16010000D01*
X5954000Y-16010000D02*
X6254000Y-16310000D01*
X6254000Y-17360000D02*
X6254000Y-16310000D01*
X5507000Y-17720000D02*
X5507000Y-17380000D01*
X8824000Y17720000D02*
X8824000Y17710000D01*
X8824000Y17710000D02*
X8493000Y17380000D01*
X8143000Y17720000D02*
X8153000Y17720000D01*
X8153000Y17720000D02*
X8493000Y17380000D01*
X8143000Y17720000D02*
X8824000Y17720000D01*
X7743000Y17740000D02*
X7743000Y18890000D01*
X9244000Y17740000D02*
X9244000Y18890000D01*
X7744000Y18890000D02*
X9223000Y18890000D01*
X9246000Y17360000D02*
X9246000Y16310000D01*
X8846000Y16010000D02*
X8946000Y16010000D01*
X8946000Y16010000D02*
X9246000Y16310000D01*
X8146000Y16010000D02*
X8846000Y16010000D01*
X8146000Y16010000D02*
X8046000Y16010000D01*
X8046000Y16010000D02*
X7746000Y16310000D01*
X7746000Y17360000D02*
X7746000Y16310000D01*
X8493000Y17720000D02*
X8493000Y17380000D01*
D11*
X76472936Y-21465000D02*
X76927064Y-21465000D01*
X76472936Y-22935000D02*
X76927064Y-22935000D01*
X86627064Y2965000D02*
X86172936Y2965000D01*
X86627064Y4435000D02*
X86172936Y4435000D01*
X78022500Y254724D02*
X78022500Y-254724D01*
X76977500Y254724D02*
X76977500Y-254724D01*
X86627064Y1065000D02*
X86172936Y1065000D01*
X86627064Y2535000D02*
X86172936Y2535000D01*
X68735000Y227064D02*
X68735000Y-227064D01*
X67265000Y227064D02*
X67265000Y-227064D01*
X59235000Y227064D02*
X59235000Y-227064D01*
X57765000Y227064D02*
X57765000Y-227064D01*
X49522500Y254724D02*
X49522500Y-254724D01*
X48477500Y254724D02*
X48477500Y-254724D01*
X40022500Y254724D02*
X40022500Y-254724D01*
X38977500Y254724D02*
X38977500Y-254724D01*
X30522500Y254724D02*
X30522500Y-254724D01*
X29477500Y254724D02*
X29477500Y-254724D01*
X88015000Y-6910000D02*
X85515000Y-6910000D01*
X85515000Y-6910000D02*
X85515000Y-5860000D01*
X85515000Y-5860000D02*
X84525000Y-5860000D01*
X88015000Y-690000D02*
X85515000Y-690000D01*
X85515000Y-690000D02*
X85515000Y-1740000D01*
X89985000Y-5740000D02*
X89985000Y-1860000D01*
X88025000Y-15210000D02*
X85525000Y-15210000D01*
X85525000Y-15210000D02*
X85525000Y-14160000D01*
X85525000Y-14160000D02*
X84535000Y-14160000D01*
X88025000Y-8990000D02*
X85525000Y-8990000D01*
X85525000Y-8990000D02*
X85525000Y-10040000D01*
X89995000Y-14040000D02*
X89995000Y-10160000D01*
X88940000Y7272164D02*
X88940000Y7487836D01*
X89660000Y7272164D02*
X89660000Y7487836D01*
D10*
X80132380Y-14555357D02*
X79656190Y-14888690D01*
X80132380Y-15126785D02*
X79132380Y-15126785D01*
X79132380Y-14745833D01*
X79180000Y-14650595D01*
X79227619Y-14602976D01*
X79322857Y-14555357D01*
X79465714Y-14555357D01*
X79560952Y-14602976D01*
X79608571Y-14650595D01*
X79656190Y-14745833D01*
X79656190Y-15126785D01*
X79465714Y-13698214D02*
X80132380Y-13698214D01*
X79084761Y-13936309D02*
X79799047Y-14174404D01*
X79799047Y-13555357D01*
X80132380Y-12650595D02*
X80132380Y-13222023D01*
X80132380Y-12936309D02*
X79132380Y-12936309D01*
X79275238Y-13031547D01*
X79370476Y-13126785D01*
X79418095Y-13222023D01*
X75682380Y-14642857D02*
X75206190Y-14976190D01*
X75682380Y-15214285D02*
X74682380Y-15214285D01*
X74682380Y-14833333D01*
X74730000Y-14738095D01*
X74777619Y-14690476D01*
X74872857Y-14642857D01*
X75015714Y-14642857D01*
X75110952Y-14690476D01*
X75158571Y-14738095D01*
X75206190Y-14833333D01*
X75206190Y-15214285D01*
X75015714Y-13785714D02*
X75682380Y-13785714D01*
X74634761Y-14023809D02*
X75349047Y-14261904D01*
X75349047Y-13642857D01*
X74682380Y-13071428D02*
X74682380Y-12976190D01*
X74730000Y-12880952D01*
X74777619Y-12833333D01*
X74872857Y-12785714D01*
X75063333Y-12738095D01*
X75301428Y-12738095D01*
X75491904Y-12785714D01*
X75587142Y-12833333D01*
X75634761Y-12880952D01*
X75682380Y-12976190D01*
X75682380Y-13071428D01*
X75634761Y-13166666D01*
X75587142Y-13214285D01*
X75491904Y-13261904D01*
X75301428Y-13309523D01*
X75063333Y-13309523D01*
X74872857Y-13261904D01*
X74777619Y-13214285D01*
X74730000Y-13166666D01*
X74682380Y-13071428D01*
X70632380Y-14642857D02*
X70156190Y-14976190D01*
X70632380Y-15214285D02*
X69632380Y-15214285D01*
X69632380Y-14833333D01*
X69680000Y-14738095D01*
X69727619Y-14690476D01*
X69822857Y-14642857D01*
X69965714Y-14642857D01*
X70060952Y-14690476D01*
X70108571Y-14738095D01*
X70156190Y-14833333D01*
X70156190Y-15214285D01*
X69632380Y-14309523D02*
X69632380Y-13690476D01*
X70013333Y-14023809D01*
X70013333Y-13880952D01*
X70060952Y-13785714D01*
X70108571Y-13738095D01*
X70203809Y-13690476D01*
X70441904Y-13690476D01*
X70537142Y-13738095D01*
X70584761Y-13785714D01*
X70632380Y-13880952D01*
X70632380Y-14166666D01*
X70584761Y-14261904D01*
X70537142Y-14309523D01*
X70632380Y-13214285D02*
X70632380Y-13023809D01*
X70584761Y-12928571D01*
X70537142Y-12880952D01*
X70394285Y-12785714D01*
X70203809Y-12738095D01*
X69822857Y-12738095D01*
X69727619Y-12785714D01*
X69680000Y-12833333D01*
X69632380Y-12928571D01*
X69632380Y-13119047D01*
X69680000Y-13214285D01*
X69727619Y-13261904D01*
X69822857Y-13309523D01*
X70060952Y-13309523D01*
X70156190Y-13261904D01*
X70203809Y-13214285D01*
X70251428Y-13119047D01*
X70251428Y-12928571D01*
X70203809Y-12833333D01*
X70156190Y-12785714D01*
X70060952Y-12738095D01*
X66082380Y-14642857D02*
X65606190Y-14976190D01*
X66082380Y-15214285D02*
X65082380Y-15214285D01*
X65082380Y-14833333D01*
X65130000Y-14738095D01*
X65177619Y-14690476D01*
X65272857Y-14642857D01*
X65415714Y-14642857D01*
X65510952Y-14690476D01*
X65558571Y-14738095D01*
X65606190Y-14833333D01*
X65606190Y-15214285D01*
X65082380Y-14309523D02*
X65082380Y-13690476D01*
X65463333Y-14023809D01*
X65463333Y-13880952D01*
X65510952Y-13785714D01*
X65558571Y-13738095D01*
X65653809Y-13690476D01*
X65891904Y-13690476D01*
X65987142Y-13738095D01*
X66034761Y-13785714D01*
X66082380Y-13880952D01*
X66082380Y-14166666D01*
X66034761Y-14261904D01*
X65987142Y-14309523D01*
X65510952Y-13119047D02*
X65463333Y-13214285D01*
X65415714Y-13261904D01*
X65320476Y-13309523D01*
X65272857Y-13309523D01*
X65177619Y-13261904D01*
X65130000Y-13214285D01*
X65082380Y-13119047D01*
X65082380Y-12928571D01*
X65130000Y-12833333D01*
X65177619Y-12785714D01*
X65272857Y-12738095D01*
X65320476Y-12738095D01*
X65415714Y-12785714D01*
X65463333Y-12833333D01*
X65510952Y-12928571D01*
X65510952Y-13119047D01*
X65558571Y-13214285D01*
X65606190Y-13261904D01*
X65701428Y-13309523D01*
X65891904Y-13309523D01*
X65987142Y-13261904D01*
X66034761Y-13214285D01*
X66082380Y-13119047D01*
X66082380Y-12928571D01*
X66034761Y-12833333D01*
X65987142Y-12785714D01*
X65891904Y-12738095D01*
X65701428Y-12738095D01*
X65606190Y-12785714D01*
X65558571Y-12833333D01*
X65510952Y-12928571D01*
X61082380Y-14642857D02*
X60606190Y-14976190D01*
X61082380Y-15214285D02*
X60082380Y-15214285D01*
X60082380Y-14833333D01*
X60130000Y-14738095D01*
X60177619Y-14690476D01*
X60272857Y-14642857D01*
X60415714Y-14642857D01*
X60510952Y-14690476D01*
X60558571Y-14738095D01*
X60606190Y-14833333D01*
X60606190Y-15214285D01*
X60082380Y-14309523D02*
X60082380Y-13690476D01*
X60463333Y-14023809D01*
X60463333Y-13880952D01*
X60510952Y-13785714D01*
X60558571Y-13738095D01*
X60653809Y-13690476D01*
X60891904Y-13690476D01*
X60987142Y-13738095D01*
X61034761Y-13785714D01*
X61082380Y-13880952D01*
X61082380Y-14166666D01*
X61034761Y-14261904D01*
X60987142Y-14309523D01*
X60082380Y-13357142D02*
X60082380Y-12690476D01*
X61082380Y-13119047D01*
X56632380Y-14642857D02*
X56156190Y-14976190D01*
X56632380Y-15214285D02*
X55632380Y-15214285D01*
X55632380Y-14833333D01*
X55680000Y-14738095D01*
X55727619Y-14690476D01*
X55822857Y-14642857D01*
X55965714Y-14642857D01*
X56060952Y-14690476D01*
X56108571Y-14738095D01*
X56156190Y-14833333D01*
X56156190Y-15214285D01*
X55632380Y-14309523D02*
X55632380Y-13690476D01*
X56013333Y-14023809D01*
X56013333Y-13880952D01*
X56060952Y-13785714D01*
X56108571Y-13738095D01*
X56203809Y-13690476D01*
X56441904Y-13690476D01*
X56537142Y-13738095D01*
X56584761Y-13785714D01*
X56632380Y-13880952D01*
X56632380Y-14166666D01*
X56584761Y-14261904D01*
X56537142Y-14309523D01*
X55632380Y-12833333D02*
X55632380Y-13023809D01*
X55680000Y-13119047D01*
X55727619Y-13166666D01*
X55870476Y-13261904D01*
X56060952Y-13309523D01*
X56441904Y-13309523D01*
X56537142Y-13261904D01*
X56584761Y-13214285D01*
X56632380Y-13119047D01*
X56632380Y-12928571D01*
X56584761Y-12833333D01*
X56537142Y-12785714D01*
X56441904Y-12738095D01*
X56203809Y-12738095D01*
X56108571Y-12785714D01*
X56060952Y-12833333D01*
X56013333Y-12928571D01*
X56013333Y-13119047D01*
X56060952Y-13214285D01*
X56108571Y-13261904D01*
X56203809Y-13309523D01*
X51682380Y-14755357D02*
X51206190Y-15088690D01*
X51682380Y-15326785D02*
X50682380Y-15326785D01*
X50682380Y-14945833D01*
X50730000Y-14850595D01*
X50777619Y-14802976D01*
X50872857Y-14755357D01*
X51015714Y-14755357D01*
X51110952Y-14802976D01*
X51158571Y-14850595D01*
X51206190Y-14945833D01*
X51206190Y-15326785D01*
X50682380Y-14422023D02*
X50682380Y-13802976D01*
X51063333Y-14136309D01*
X51063333Y-13993452D01*
X51110952Y-13898214D01*
X51158571Y-13850595D01*
X51253809Y-13802976D01*
X51491904Y-13802976D01*
X51587142Y-13850595D01*
X51634761Y-13898214D01*
X51682380Y-13993452D01*
X51682380Y-14279166D01*
X51634761Y-14374404D01*
X51587142Y-14422023D01*
X50682380Y-12898214D02*
X50682380Y-13374404D01*
X51158571Y-13422023D01*
X51110952Y-13374404D01*
X51063333Y-13279166D01*
X51063333Y-13041071D01*
X51110952Y-12945833D01*
X51158571Y-12898214D01*
X51253809Y-12850595D01*
X51491904Y-12850595D01*
X51587142Y-12898214D01*
X51634761Y-12945833D01*
X51682380Y-13041071D01*
X51682380Y-13279166D01*
X51634761Y-13374404D01*
X51587142Y-13422023D01*
X47132380Y-14642857D02*
X46656190Y-14976190D01*
X47132380Y-15214285D02*
X46132380Y-15214285D01*
X46132380Y-14833333D01*
X46180000Y-14738095D01*
X46227619Y-14690476D01*
X46322857Y-14642857D01*
X46465714Y-14642857D01*
X46560952Y-14690476D01*
X46608571Y-14738095D01*
X46656190Y-14833333D01*
X46656190Y-15214285D01*
X46132380Y-14309523D02*
X46132380Y-13690476D01*
X46513333Y-14023809D01*
X46513333Y-13880952D01*
X46560952Y-13785714D01*
X46608571Y-13738095D01*
X46703809Y-13690476D01*
X46941904Y-13690476D01*
X47037142Y-13738095D01*
X47084761Y-13785714D01*
X47132380Y-13880952D01*
X47132380Y-14166666D01*
X47084761Y-14261904D01*
X47037142Y-14309523D01*
X46465714Y-12833333D02*
X47132380Y-12833333D01*
X46084761Y-13071428D02*
X46799047Y-13309523D01*
X46799047Y-12690476D01*
X42132380Y-14642857D02*
X41656190Y-14976190D01*
X42132380Y-15214285D02*
X41132380Y-15214285D01*
X41132380Y-14833333D01*
X41180000Y-14738095D01*
X41227619Y-14690476D01*
X41322857Y-14642857D01*
X41465714Y-14642857D01*
X41560952Y-14690476D01*
X41608571Y-14738095D01*
X41656190Y-14833333D01*
X41656190Y-15214285D01*
X41132380Y-14309523D02*
X41132380Y-13690476D01*
X41513333Y-14023809D01*
X41513333Y-13880952D01*
X41560952Y-13785714D01*
X41608571Y-13738095D01*
X41703809Y-13690476D01*
X41941904Y-13690476D01*
X42037142Y-13738095D01*
X42084761Y-13785714D01*
X42132380Y-13880952D01*
X42132380Y-14166666D01*
X42084761Y-14261904D01*
X42037142Y-14309523D01*
X41132380Y-13357142D02*
X41132380Y-12738095D01*
X41513333Y-13071428D01*
X41513333Y-12928571D01*
X41560952Y-12833333D01*
X41608571Y-12785714D01*
X41703809Y-12738095D01*
X41941904Y-12738095D01*
X42037142Y-12785714D01*
X42084761Y-12833333D01*
X42132380Y-12928571D01*
X42132380Y-13214285D01*
X42084761Y-13309523D01*
X42037142Y-13357142D01*
X35857142Y-12272380D02*
X35523809Y-11796190D01*
X35285714Y-12272380D02*
X35285714Y-11272380D01*
X35666666Y-11272380D01*
X35761904Y-11320000D01*
X35809523Y-11367619D01*
X35857142Y-11462857D01*
X35857142Y-11605714D01*
X35809523Y-11700952D01*
X35761904Y-11748571D01*
X35666666Y-11796190D01*
X35285714Y-11796190D01*
X36190476Y-11272380D02*
X36809523Y-11272380D01*
X36476190Y-11653333D01*
X36619047Y-11653333D01*
X36714285Y-11700952D01*
X36761904Y-11748571D01*
X36809523Y-11843809D01*
X36809523Y-12081904D01*
X36761904Y-12177142D01*
X36714285Y-12224761D01*
X36619047Y-12272380D01*
X36333333Y-12272380D01*
X36238095Y-12224761D01*
X36190476Y-12177142D01*
X37190476Y-11367619D02*
X37238095Y-11320000D01*
X37333333Y-11272380D01*
X37571428Y-11272380D01*
X37666666Y-11320000D01*
X37714285Y-11367619D01*
X37761904Y-11462857D01*
X37761904Y-11558095D01*
X37714285Y-11700952D01*
X37142857Y-12272380D01*
X37761904Y-12272380D01*
X31107142Y-12272380D02*
X30773809Y-11796190D01*
X30535714Y-12272380D02*
X30535714Y-11272380D01*
X30916666Y-11272380D01*
X31011904Y-11320000D01*
X31059523Y-11367619D01*
X31107142Y-11462857D01*
X31107142Y-11605714D01*
X31059523Y-11700952D01*
X31011904Y-11748571D01*
X30916666Y-11796190D01*
X30535714Y-11796190D01*
X31440476Y-11272380D02*
X32059523Y-11272380D01*
X31726190Y-11653333D01*
X31869047Y-11653333D01*
X31964285Y-11700952D01*
X32011904Y-11748571D01*
X32059523Y-11843809D01*
X32059523Y-12081904D01*
X32011904Y-12177142D01*
X31964285Y-12224761D01*
X31869047Y-12272380D01*
X31583333Y-12272380D01*
X31488095Y-12224761D01*
X31440476Y-12177142D01*
X33011904Y-12272380D02*
X32440476Y-12272380D01*
X32726190Y-12272380D02*
X32726190Y-11272380D01*
X32630952Y-11415238D01*
X32535714Y-11510476D01*
X32440476Y-11558095D01*
X26557142Y-12222380D02*
X26223809Y-11746190D01*
X25985714Y-12222380D02*
X25985714Y-11222380D01*
X26366666Y-11222380D01*
X26461904Y-11270000D01*
X26509523Y-11317619D01*
X26557142Y-11412857D01*
X26557142Y-11555714D01*
X26509523Y-11650952D01*
X26461904Y-11698571D01*
X26366666Y-11746190D01*
X25985714Y-11746190D01*
X26890476Y-11222380D02*
X27509523Y-11222380D01*
X27176190Y-11603333D01*
X27319047Y-11603333D01*
X27414285Y-11650952D01*
X27461904Y-11698571D01*
X27509523Y-11793809D01*
X27509523Y-12031904D01*
X27461904Y-12127142D01*
X27414285Y-12174761D01*
X27319047Y-12222380D01*
X27033333Y-12222380D01*
X26938095Y-12174761D01*
X26890476Y-12127142D01*
X28128571Y-11222380D02*
X28223809Y-11222380D01*
X28319047Y-11270000D01*
X28366666Y-11317619D01*
X28414285Y-11412857D01*
X28461904Y-11603333D01*
X28461904Y-11841428D01*
X28414285Y-12031904D01*
X28366666Y-12127142D01*
X28319047Y-12174761D01*
X28223809Y-12222380D01*
X28128571Y-12222380D01*
X28033333Y-12174761D01*
X27985714Y-12127142D01*
X27938095Y-12031904D01*
X27890476Y-11841428D01*
X27890476Y-11603333D01*
X27938095Y-11412857D01*
X27985714Y-11317619D01*
X28033333Y-11270000D01*
X28128571Y-11222380D01*
X78557142Y14777619D02*
X78223809Y15253809D01*
X77985714Y14777619D02*
X77985714Y15777619D01*
X78366666Y15777619D01*
X78461904Y15730000D01*
X78509523Y15682380D01*
X78557142Y15587142D01*
X78557142Y15444285D01*
X78509523Y15349047D01*
X78461904Y15301428D01*
X78366666Y15253809D01*
X77985714Y15253809D01*
X78938095Y15682380D02*
X78985714Y15730000D01*
X79080952Y15777619D01*
X79319047Y15777619D01*
X79414285Y15730000D01*
X79461904Y15682380D01*
X79509523Y15587142D01*
X79509523Y15491904D01*
X79461904Y15349047D01*
X78890476Y14777619D01*
X79509523Y14777619D01*
X79985714Y14777619D02*
X80176190Y14777619D01*
X80271428Y14825238D01*
X80319047Y14872857D01*
X80414285Y15015714D01*
X80461904Y15206190D01*
X80461904Y15587142D01*
X80414285Y15682380D01*
X80366666Y15730000D01*
X80271428Y15777619D01*
X80080952Y15777619D01*
X79985714Y15730000D01*
X79938095Y15682380D01*
X79890476Y15587142D01*
X79890476Y15349047D01*
X79938095Y15253809D01*
X79985714Y15206190D01*
X80080952Y15158571D01*
X80271428Y15158571D01*
X80366666Y15206190D01*
X80414285Y15253809D01*
X80461904Y15349047D01*
X73082380Y13244642D02*
X72606190Y12911309D01*
X73082380Y12673214D02*
X72082380Y12673214D01*
X72082380Y13054166D01*
X72130000Y13149404D01*
X72177619Y13197023D01*
X72272857Y13244642D01*
X72415714Y13244642D01*
X72510952Y13197023D01*
X72558571Y13149404D01*
X72606190Y13054166D01*
X72606190Y12673214D01*
X72177619Y13625595D02*
X72130000Y13673214D01*
X72082380Y13768452D01*
X72082380Y14006547D01*
X72130000Y14101785D01*
X72177619Y14149404D01*
X72272857Y14197023D01*
X72368095Y14197023D01*
X72510952Y14149404D01*
X73082380Y13577976D01*
X73082380Y14197023D01*
X72510952Y14768452D02*
X72463333Y14673214D01*
X72415714Y14625595D01*
X72320476Y14577976D01*
X72272857Y14577976D01*
X72177619Y14625595D01*
X72130000Y14673214D01*
X72082380Y14768452D01*
X72082380Y14958928D01*
X72130000Y15054166D01*
X72177619Y15101785D01*
X72272857Y15149404D01*
X72320476Y15149404D01*
X72415714Y15101785D01*
X72463333Y15054166D01*
X72510952Y14958928D01*
X72510952Y14768452D01*
X72558571Y14673214D01*
X72606190Y14625595D01*
X72701428Y14577976D01*
X72891904Y14577976D01*
X72987142Y14625595D01*
X73034761Y14673214D01*
X73082380Y14768452D01*
X73082380Y14958928D01*
X73034761Y15054166D01*
X72987142Y15101785D01*
X72891904Y15149404D01*
X72701428Y15149404D01*
X72606190Y15101785D01*
X72558571Y15054166D01*
X72510952Y14958928D01*
X63682380Y13357142D02*
X63206190Y13023809D01*
X63682380Y12785714D02*
X62682380Y12785714D01*
X62682380Y13166666D01*
X62730000Y13261904D01*
X62777619Y13309523D01*
X62872857Y13357142D01*
X63015714Y13357142D01*
X63110952Y13309523D01*
X63158571Y13261904D01*
X63206190Y13166666D01*
X63206190Y12785714D01*
X62777619Y13738095D02*
X62730000Y13785714D01*
X62682380Y13880952D01*
X62682380Y14119047D01*
X62730000Y14214285D01*
X62777619Y14261904D01*
X62872857Y14309523D01*
X62968095Y14309523D01*
X63110952Y14261904D01*
X63682380Y13690476D01*
X63682380Y14309523D01*
X62682380Y14642857D02*
X62682380Y15309523D01*
X63682380Y14880952D01*
X54132380Y13357142D02*
X53656190Y13023809D01*
X54132380Y12785714D02*
X53132380Y12785714D01*
X53132380Y13166666D01*
X53180000Y13261904D01*
X53227619Y13309523D01*
X53322857Y13357142D01*
X53465714Y13357142D01*
X53560952Y13309523D01*
X53608571Y13261904D01*
X53656190Y13166666D01*
X53656190Y12785714D01*
X53227619Y13738095D02*
X53180000Y13785714D01*
X53132380Y13880952D01*
X53132380Y14119047D01*
X53180000Y14214285D01*
X53227619Y14261904D01*
X53322857Y14309523D01*
X53418095Y14309523D01*
X53560952Y14261904D01*
X54132380Y13690476D01*
X54132380Y14309523D01*
X53132380Y15166666D02*
X53132380Y14976190D01*
X53180000Y14880952D01*
X53227619Y14833333D01*
X53370476Y14738095D01*
X53560952Y14690476D01*
X53941904Y14690476D01*
X54037142Y14738095D01*
X54084761Y14785714D01*
X54132380Y14880952D01*
X54132380Y15071428D01*
X54084761Y15166666D01*
X54037142Y15214285D01*
X53941904Y15261904D01*
X53703809Y15261904D01*
X53608571Y15214285D01*
X53560952Y15166666D01*
X53513333Y15071428D01*
X53513333Y14880952D01*
X53560952Y14785714D01*
X53608571Y14738095D01*
X53703809Y14690476D01*
X44682380Y13557142D02*
X44206190Y13223809D01*
X44682380Y12985714D02*
X43682380Y12985714D01*
X43682380Y13366666D01*
X43730000Y13461904D01*
X43777619Y13509523D01*
X43872857Y13557142D01*
X44015714Y13557142D01*
X44110952Y13509523D01*
X44158571Y13461904D01*
X44206190Y13366666D01*
X44206190Y12985714D01*
X43777619Y13938095D02*
X43730000Y13985714D01*
X43682380Y14080952D01*
X43682380Y14319047D01*
X43730000Y14414285D01*
X43777619Y14461904D01*
X43872857Y14509523D01*
X43968095Y14509523D01*
X44110952Y14461904D01*
X44682380Y13890476D01*
X44682380Y14509523D01*
X43682380Y15414285D02*
X43682380Y14938095D01*
X44158571Y14890476D01*
X44110952Y14938095D01*
X44063333Y15033333D01*
X44063333Y15271428D01*
X44110952Y15366666D01*
X44158571Y15414285D01*
X44253809Y15461904D01*
X44491904Y15461904D01*
X44587142Y15414285D01*
X44634761Y15366666D01*
X44682380Y15271428D01*
X44682380Y15033333D01*
X44634761Y14938095D01*
X44587142Y14890476D01*
X35082380Y13357142D02*
X34606190Y13023809D01*
X35082380Y12785714D02*
X34082380Y12785714D01*
X34082380Y13166666D01*
X34130000Y13261904D01*
X34177619Y13309523D01*
X34272857Y13357142D01*
X34415714Y13357142D01*
X34510952Y13309523D01*
X34558571Y13261904D01*
X34606190Y13166666D01*
X34606190Y12785714D01*
X34177619Y13738095D02*
X34130000Y13785714D01*
X34082380Y13880952D01*
X34082380Y14119047D01*
X34130000Y14214285D01*
X34177619Y14261904D01*
X34272857Y14309523D01*
X34368095Y14309523D01*
X34510952Y14261904D01*
X35082380Y13690476D01*
X35082380Y14309523D01*
X34415714Y15166666D02*
X35082380Y15166666D01*
X34034761Y14928571D02*
X34749047Y14690476D01*
X34749047Y15309523D01*
X76632380Y15107142D02*
X76156190Y14773809D01*
X76632380Y14535714D02*
X75632380Y14535714D01*
X75632380Y14916666D01*
X75680000Y15011904D01*
X75727619Y15059523D01*
X75822857Y15107142D01*
X75965714Y15107142D01*
X76060952Y15059523D01*
X76108571Y15011904D01*
X76156190Y14916666D01*
X76156190Y14535714D01*
X75727619Y15488095D02*
X75680000Y15535714D01*
X75632380Y15630952D01*
X75632380Y15869047D01*
X75680000Y15964285D01*
X75727619Y16011904D01*
X75822857Y16059523D01*
X75918095Y16059523D01*
X76060952Y16011904D01*
X76632380Y15440476D01*
X76632380Y16059523D01*
X75632380Y16392857D02*
X75632380Y17011904D01*
X76013333Y16678571D01*
X76013333Y16821428D01*
X76060952Y16916666D01*
X76108571Y16964285D01*
X76203809Y17011904D01*
X76441904Y17011904D01*
X76537142Y16964285D01*
X76584761Y16916666D01*
X76632380Y16821428D01*
X76632380Y16535714D01*
X76584761Y16440476D01*
X76537142Y16392857D01*
X70682380Y16157142D02*
X70206190Y15823809D01*
X70682380Y15585714D02*
X69682380Y15585714D01*
X69682380Y15966666D01*
X69730000Y16061904D01*
X69777619Y16109523D01*
X69872857Y16157142D01*
X70015714Y16157142D01*
X70110952Y16109523D01*
X70158571Y16061904D01*
X70206190Y15966666D01*
X70206190Y15585714D01*
X69777619Y16538095D02*
X69730000Y16585714D01*
X69682380Y16680952D01*
X69682380Y16919047D01*
X69730000Y17014285D01*
X69777619Y17061904D01*
X69872857Y17109523D01*
X69968095Y17109523D01*
X70110952Y17061904D01*
X70682380Y16490476D01*
X70682380Y17109523D01*
X69777619Y17490476D02*
X69730000Y17538095D01*
X69682380Y17633333D01*
X69682380Y17871428D01*
X69730000Y17966666D01*
X69777619Y18014285D01*
X69872857Y18061904D01*
X69968095Y18061904D01*
X70110952Y18014285D01*
X70682380Y17442857D01*
X70682380Y18061904D01*
X61132380Y16157142D02*
X60656190Y15823809D01*
X61132380Y15585714D02*
X60132380Y15585714D01*
X60132380Y15966666D01*
X60180000Y16061904D01*
X60227619Y16109523D01*
X60322857Y16157142D01*
X60465714Y16157142D01*
X60560952Y16109523D01*
X60608571Y16061904D01*
X60656190Y15966666D01*
X60656190Y15585714D01*
X60227619Y16538095D02*
X60180000Y16585714D01*
X60132380Y16680952D01*
X60132380Y16919047D01*
X60180000Y17014285D01*
X60227619Y17061904D01*
X60322857Y17109523D01*
X60418095Y17109523D01*
X60560952Y17061904D01*
X61132380Y16490476D01*
X61132380Y17109523D01*
X61132380Y18061904D02*
X61132380Y17490476D01*
X61132380Y17776190D02*
X60132380Y17776190D01*
X60275238Y17680952D01*
X60370476Y17585714D01*
X60418095Y17490476D01*
X51632380Y16107142D02*
X51156190Y15773809D01*
X51632380Y15535714D02*
X50632380Y15535714D01*
X50632380Y15916666D01*
X50680000Y16011904D01*
X50727619Y16059523D01*
X50822857Y16107142D01*
X50965714Y16107142D01*
X51060952Y16059523D01*
X51108571Y16011904D01*
X51156190Y15916666D01*
X51156190Y15535714D01*
X50727619Y16488095D02*
X50680000Y16535714D01*
X50632380Y16630952D01*
X50632380Y16869047D01*
X50680000Y16964285D01*
X50727619Y17011904D01*
X50822857Y17059523D01*
X50918095Y17059523D01*
X51060952Y17011904D01*
X51632380Y16440476D01*
X51632380Y17059523D01*
X50632380Y17678571D02*
X50632380Y17773809D01*
X50680000Y17869047D01*
X50727619Y17916666D01*
X50822857Y17964285D01*
X51013333Y18011904D01*
X51251428Y18011904D01*
X51441904Y17964285D01*
X51537142Y17916666D01*
X51584761Y17869047D01*
X51632380Y17773809D01*
X51632380Y17678571D01*
X51584761Y17583333D01*
X51537142Y17535714D01*
X51441904Y17488095D01*
X51251428Y17440476D01*
X51013333Y17440476D01*
X50822857Y17488095D01*
X50727619Y17535714D01*
X50680000Y17583333D01*
X50632380Y17678571D01*
X42132380Y16107142D02*
X41656190Y15773809D01*
X42132380Y15535714D02*
X41132380Y15535714D01*
X41132380Y15916666D01*
X41180000Y16011904D01*
X41227619Y16059523D01*
X41322857Y16107142D01*
X41465714Y16107142D01*
X41560952Y16059523D01*
X41608571Y16011904D01*
X41656190Y15916666D01*
X41656190Y15535714D01*
X42132380Y17059523D02*
X42132380Y16488095D01*
X42132380Y16773809D02*
X41132380Y16773809D01*
X41275238Y16678571D01*
X41370476Y16583333D01*
X41418095Y16488095D01*
X42132380Y17535714D02*
X42132380Y17726190D01*
X42084761Y17821428D01*
X42037142Y17869047D01*
X41894285Y17964285D01*
X41703809Y18011904D01*
X41322857Y18011904D01*
X41227619Y17964285D01*
X41180000Y17916666D01*
X41132380Y17821428D01*
X41132380Y17630952D01*
X41180000Y17535714D01*
X41227619Y17488095D01*
X41322857Y17440476D01*
X41560952Y17440476D01*
X41656190Y17488095D01*
X41703809Y17535714D01*
X41751428Y17630952D01*
X41751428Y17821428D01*
X41703809Y17916666D01*
X41656190Y17964285D01*
X41560952Y18011904D01*
X32482380Y16157142D02*
X32006190Y15823809D01*
X32482380Y15585714D02*
X31482380Y15585714D01*
X31482380Y15966666D01*
X31530000Y16061904D01*
X31577619Y16109523D01*
X31672857Y16157142D01*
X31815714Y16157142D01*
X31910952Y16109523D01*
X31958571Y16061904D01*
X32006190Y15966666D01*
X32006190Y15585714D01*
X32482380Y17109523D02*
X32482380Y16538095D01*
X32482380Y16823809D02*
X31482380Y16823809D01*
X31625238Y16728571D01*
X31720476Y16633333D01*
X31768095Y16538095D01*
X31910952Y17680952D02*
X31863333Y17585714D01*
X31815714Y17538095D01*
X31720476Y17490476D01*
X31672857Y17490476D01*
X31577619Y17538095D01*
X31530000Y17585714D01*
X31482380Y17680952D01*
X31482380Y17871428D01*
X31530000Y17966666D01*
X31577619Y18014285D01*
X31672857Y18061904D01*
X31720476Y18061904D01*
X31815714Y18014285D01*
X31863333Y17966666D01*
X31910952Y17871428D01*
X31910952Y17680952D01*
X31958571Y17585714D01*
X32006190Y17538095D01*
X32101428Y17490476D01*
X32291904Y17490476D01*
X32387142Y17538095D01*
X32434761Y17585714D01*
X32482380Y17680952D01*
X32482380Y17871428D01*
X32434761Y17966666D01*
X32387142Y18014285D01*
X32291904Y18061904D01*
X32101428Y18061904D01*
X32006190Y18014285D01*
X31958571Y17966666D01*
X31910952Y17871428D01*
X10357142Y19227619D02*
X10023809Y19703809D01*
X9785714Y19227619D02*
X9785714Y20227619D01*
X10166666Y20227619D01*
X10261904Y20180000D01*
X10309523Y20132380D01*
X10357142Y20037142D01*
X10357142Y19894285D01*
X10309523Y19799047D01*
X10261904Y19751428D01*
X10166666Y19703809D01*
X9785714Y19703809D01*
X11309523Y19227619D02*
X10738095Y19227619D01*
X11023809Y19227619D02*
X11023809Y20227619D01*
X10928571Y20084761D01*
X10833333Y19989523D01*
X10738095Y19941904D01*
X11642857Y20227619D02*
X12309523Y20227619D01*
X11880952Y19227619D01*
X16272380Y15857142D02*
X15796190Y15523809D01*
X16272380Y15285714D02*
X15272380Y15285714D01*
X15272380Y15666666D01*
X15320000Y15761904D01*
X15367619Y15809523D01*
X15462857Y15857142D01*
X15605714Y15857142D01*
X15700952Y15809523D01*
X15748571Y15761904D01*
X15796190Y15666666D01*
X15796190Y15285714D01*
X16272380Y16809523D02*
X16272380Y16238095D01*
X16272380Y16523809D02*
X15272380Y16523809D01*
X15415238Y16428571D01*
X15510476Y16333333D01*
X15558095Y16238095D01*
X15272380Y17666666D02*
X15272380Y17476190D01*
X15320000Y17380952D01*
X15367619Y17333333D01*
X15510476Y17238095D01*
X15700952Y17190476D01*
X16081904Y17190476D01*
X16177142Y17238095D01*
X16224761Y17285714D01*
X16272380Y17380952D01*
X16272380Y17571428D01*
X16224761Y17666666D01*
X16177142Y17714285D01*
X16081904Y17761904D01*
X15843809Y17761904D01*
X15748571Y17714285D01*
X15700952Y17666666D01*
X15653333Y17571428D01*
X15653333Y17380952D01*
X15700952Y17285714D01*
X15748571Y17238095D01*
X15843809Y17190476D01*
X13107142Y16727619D02*
X12773809Y17203809D01*
X12535714Y16727619D02*
X12535714Y17727619D01*
X12916666Y17727619D01*
X13011904Y17680000D01*
X13059523Y17632380D01*
X13107142Y17537142D01*
X13107142Y17394285D01*
X13059523Y17299047D01*
X13011904Y17251428D01*
X12916666Y17203809D01*
X12535714Y17203809D01*
X14059523Y16727619D02*
X13488095Y16727619D01*
X13773809Y16727619D02*
X13773809Y17727619D01*
X13678571Y17584761D01*
X13583333Y17489523D01*
X13488095Y17441904D01*
X14964285Y17727619D02*
X14488095Y17727619D01*
X14440476Y17251428D01*
X14488095Y17299047D01*
X14583333Y17346666D01*
X14821428Y17346666D01*
X14916666Y17299047D01*
X14964285Y17251428D01*
X15011904Y17156190D01*
X15011904Y16918095D01*
X14964285Y16822857D01*
X14916666Y16775238D01*
X14821428Y16727619D01*
X14583333Y16727619D01*
X14488095Y16775238D01*
X14440476Y16822857D01*
X20782380Y15857142D02*
X20306190Y15523809D01*
X20782380Y15285714D02*
X19782380Y15285714D01*
X19782380Y15666666D01*
X19830000Y15761904D01*
X19877619Y15809523D01*
X19972857Y15857142D01*
X20115714Y15857142D01*
X20210952Y15809523D01*
X20258571Y15761904D01*
X20306190Y15666666D01*
X20306190Y15285714D01*
X20782380Y16809523D02*
X20782380Y16238095D01*
X20782380Y16523809D02*
X19782380Y16523809D01*
X19925238Y16428571D01*
X20020476Y16333333D01*
X20068095Y16238095D01*
X20115714Y17666666D02*
X20782380Y17666666D01*
X19734761Y17428571D02*
X20449047Y17190476D01*
X20449047Y17809523D01*
X9622380Y-17242857D02*
X9146190Y-17576190D01*
X9622380Y-17814285D02*
X8622380Y-17814285D01*
X8622380Y-17433333D01*
X8670000Y-17338095D01*
X8717619Y-17290476D01*
X8812857Y-17242857D01*
X8955714Y-17242857D01*
X9050952Y-17290476D01*
X9098571Y-17338095D01*
X9146190Y-17433333D01*
X9146190Y-17814285D01*
X9622380Y-16290476D02*
X9622380Y-16861904D01*
X9622380Y-16576190D02*
X8622380Y-16576190D01*
X8765238Y-16671428D01*
X8860476Y-16766666D01*
X8908095Y-16861904D01*
X8622380Y-15957142D02*
X8622380Y-15338095D01*
X9003333Y-15671428D01*
X9003333Y-15528571D01*
X9050952Y-15433333D01*
X9098571Y-15385714D01*
X9193809Y-15338095D01*
X9431904Y-15338095D01*
X9527142Y-15385714D01*
X9574761Y-15433333D01*
X9622380Y-15528571D01*
X9622380Y-15814285D01*
X9574761Y-15909523D01*
X9527142Y-15957142D01*
X13822380Y-17242857D02*
X13346190Y-17576190D01*
X13822380Y-17814285D02*
X12822380Y-17814285D01*
X12822380Y-17433333D01*
X12870000Y-17338095D01*
X12917619Y-17290476D01*
X13012857Y-17242857D01*
X13155714Y-17242857D01*
X13250952Y-17290476D01*
X13298571Y-17338095D01*
X13346190Y-17433333D01*
X13346190Y-17814285D01*
X13822380Y-16290476D02*
X13822380Y-16861904D01*
X13822380Y-16576190D02*
X12822380Y-16576190D01*
X12965238Y-16671428D01*
X13060476Y-16766666D01*
X13108095Y-16861904D01*
X12917619Y-15909523D02*
X12870000Y-15861904D01*
X12822380Y-15766666D01*
X12822380Y-15528571D01*
X12870000Y-15433333D01*
X12917619Y-15385714D01*
X13012857Y-15338095D01*
X13108095Y-15338095D01*
X13250952Y-15385714D01*
X13822380Y-15957142D01*
X13822380Y-15338095D01*
X18222380Y-17242857D02*
X17746190Y-17576190D01*
X18222380Y-17814285D02*
X17222380Y-17814285D01*
X17222380Y-17433333D01*
X17270000Y-17338095D01*
X17317619Y-17290476D01*
X17412857Y-17242857D01*
X17555714Y-17242857D01*
X17650952Y-17290476D01*
X17698571Y-17338095D01*
X17746190Y-17433333D01*
X17746190Y-17814285D01*
X18222380Y-16290476D02*
X18222380Y-16861904D01*
X18222380Y-16576190D02*
X17222380Y-16576190D01*
X17365238Y-16671428D01*
X17460476Y-16766666D01*
X17508095Y-16861904D01*
X18222380Y-15338095D02*
X18222380Y-15909523D01*
X18222380Y-15623809D02*
X17222380Y-15623809D01*
X17365238Y-15719047D01*
X17460476Y-15814285D01*
X17508095Y-15909523D01*
X7357142Y-20132380D02*
X7023809Y-19656190D01*
X6785714Y-20132380D02*
X6785714Y-19132380D01*
X7166666Y-19132380D01*
X7261904Y-19180000D01*
X7309523Y-19227619D01*
X7357142Y-19322857D01*
X7357142Y-19465714D01*
X7309523Y-19560952D01*
X7261904Y-19608571D01*
X7166666Y-19656190D01*
X6785714Y-19656190D01*
X8309523Y-20132380D02*
X7738095Y-20132380D01*
X8023809Y-20132380D02*
X8023809Y-19132380D01*
X7928571Y-19275238D01*
X7833333Y-19370476D01*
X7738095Y-19418095D01*
X8928571Y-19132380D02*
X9023809Y-19132380D01*
X9119047Y-19180000D01*
X9166666Y-19227619D01*
X9214285Y-19322857D01*
X9261904Y-19513333D01*
X9261904Y-19751428D01*
X9214285Y-19941904D01*
X9166666Y-20037142D01*
X9119047Y-20084761D01*
X9023809Y-20132380D01*
X8928571Y-20132380D01*
X8833333Y-20084761D01*
X8785714Y-20037142D01*
X8738095Y-19941904D01*
X8690476Y-19751428D01*
X8690476Y-19513333D01*
X8738095Y-19322857D01*
X8785714Y-19227619D01*
X8833333Y-19180000D01*
X8928571Y-19132380D01*
X84546666Y-22722380D02*
X84546666Y-23436666D01*
X84499047Y-23579523D01*
X84403809Y-23674761D01*
X84260952Y-23722380D01*
X84165714Y-23722380D01*
X85499047Y-22722380D02*
X85022857Y-22722380D01*
X84975238Y-23198571D01*
X85022857Y-23150952D01*
X85118095Y-23103333D01*
X85356190Y-23103333D01*
X85451428Y-23150952D01*
X85499047Y-23198571D01*
X85546666Y-23293809D01*
X85546666Y-23531904D01*
X85499047Y-23627142D01*
X85451428Y-23674761D01*
X85356190Y-23722380D01*
X85118095Y-23722380D01*
X85022857Y-23674761D01*
X84975238Y-23627142D01*
X30266666Y-14302380D02*
X30266666Y-15016666D01*
X30219047Y-15159523D01*
X30123809Y-15254761D01*
X29980952Y-15302380D01*
X29885714Y-15302380D01*
X30647619Y-14302380D02*
X31266666Y-14302380D01*
X30933333Y-14683333D01*
X31076190Y-14683333D01*
X31171428Y-14730952D01*
X31219047Y-14778571D01*
X31266666Y-14873809D01*
X31266666Y-15111904D01*
X31219047Y-15207142D01*
X31171428Y-15254761D01*
X31076190Y-15302380D01*
X30790476Y-15302380D01*
X30695238Y-15254761D01*
X30647619Y-15207142D01*
X82159380Y-10811785D02*
X82968904Y-10811785D01*
X83064142Y-10764166D01*
X83111761Y-10716547D01*
X83159380Y-10621309D01*
X83159380Y-10430833D01*
X83111761Y-10335595D01*
X83064142Y-10287976D01*
X82968904Y-10240357D01*
X82159380Y-10240357D01*
X82159380Y-9859404D02*
X82159380Y-9240357D01*
X82540333Y-9573690D01*
X82540333Y-9430833D01*
X82587952Y-9335595D01*
X82635571Y-9287976D01*
X82730809Y-9240357D01*
X82968904Y-9240357D01*
X83064142Y-9287976D01*
X83111761Y-9335595D01*
X83159380Y-9430833D01*
X83159380Y-9716547D01*
X83111761Y-9811785D01*
X83064142Y-9859404D01*
X82254619Y-8859404D02*
X82207000Y-8811785D01*
X82159380Y-8716547D01*
X82159380Y-8478452D01*
X82207000Y-8383214D01*
X82254619Y-8335595D01*
X82349857Y-8287976D01*
X82445095Y-8287976D01*
X82587952Y-8335595D01*
X83159380Y-8907023D01*
X83159380Y-8287976D01*
X75845380Y8335595D02*
X76654904Y8335595D01*
X76750142Y8383214D01*
X76797761Y8430833D01*
X76845380Y8526071D01*
X76845380Y8716547D01*
X76797761Y8811785D01*
X76750142Y8859404D01*
X76654904Y8907023D01*
X75845380Y8907023D01*
X75940619Y9335595D02*
X75893000Y9383214D01*
X75845380Y9478452D01*
X75845380Y9716547D01*
X75893000Y9811785D01*
X75940619Y9859404D01*
X76035857Y9907023D01*
X76131095Y9907023D01*
X76273952Y9859404D01*
X76845380Y9287976D01*
X76845380Y9907023D01*
X75845380Y10526071D02*
X75845380Y10621309D01*
X75893000Y10716547D01*
X75940619Y10764166D01*
X76035857Y10811785D01*
X76226333Y10859404D01*
X76464428Y10859404D01*
X76654904Y10811785D01*
X76750142Y10764166D01*
X76797761Y10716547D01*
X76845380Y10621309D01*
X76845380Y10526071D01*
X76797761Y10430833D01*
X76750142Y10383214D01*
X76654904Y10335595D01*
X76464428Y10287976D01*
X76226333Y10287976D01*
X76035857Y10335595D01*
X75940619Y10383214D01*
X75893000Y10430833D01*
X75845380Y10526071D01*
X77659380Y-10811785D02*
X78468904Y-10811785D01*
X78564142Y-10764166D01*
X78611761Y-10716547D01*
X78659380Y-10621309D01*
X78659380Y-10430833D01*
X78611761Y-10335595D01*
X78564142Y-10287976D01*
X78468904Y-10240357D01*
X77659380Y-10240357D01*
X77659380Y-9859404D02*
X77659380Y-9240357D01*
X78040333Y-9573690D01*
X78040333Y-9430833D01*
X78087952Y-9335595D01*
X78135571Y-9287976D01*
X78230809Y-9240357D01*
X78468904Y-9240357D01*
X78564142Y-9287976D01*
X78611761Y-9335595D01*
X78659380Y-9430833D01*
X78659380Y-9716547D01*
X78611761Y-9811785D01*
X78564142Y-9859404D01*
X78659380Y-8287976D02*
X78659380Y-8859404D01*
X78659380Y-8573690D02*
X77659380Y-8573690D01*
X77802238Y-8668928D01*
X77897476Y-8764166D01*
X77945095Y-8859404D01*
X71245380Y8335595D02*
X72054904Y8335595D01*
X72150142Y8383214D01*
X72197761Y8430833D01*
X72245380Y8526071D01*
X72245380Y8716547D01*
X72197761Y8811785D01*
X72150142Y8859404D01*
X72054904Y8907023D01*
X71245380Y8907023D01*
X72245380Y9907023D02*
X72245380Y9335595D01*
X72245380Y9621309D02*
X71245380Y9621309D01*
X71388238Y9526071D01*
X71483476Y9430833D01*
X71531095Y9335595D01*
X72245380Y10383214D02*
X72245380Y10573690D01*
X72197761Y10668928D01*
X72150142Y10716547D01*
X72007285Y10811785D01*
X71816809Y10859404D01*
X71435857Y10859404D01*
X71340619Y10811785D01*
X71293000Y10764166D01*
X71245380Y10668928D01*
X71245380Y10478452D01*
X71293000Y10383214D01*
X71340619Y10335595D01*
X71435857Y10287976D01*
X71673952Y10287976D01*
X71769190Y10335595D01*
X71816809Y10383214D01*
X71864428Y10478452D01*
X71864428Y10668928D01*
X71816809Y10764166D01*
X71769190Y10811785D01*
X71673952Y10859404D01*
X72659380Y-10811785D02*
X73468904Y-10811785D01*
X73564142Y-10764166D01*
X73611761Y-10716547D01*
X73659380Y-10621309D01*
X73659380Y-10430833D01*
X73611761Y-10335595D01*
X73564142Y-10287976D01*
X73468904Y-10240357D01*
X72659380Y-10240357D01*
X72659380Y-9859404D02*
X72659380Y-9240357D01*
X73040333Y-9573690D01*
X73040333Y-9430833D01*
X73087952Y-9335595D01*
X73135571Y-9287976D01*
X73230809Y-9240357D01*
X73468904Y-9240357D01*
X73564142Y-9287976D01*
X73611761Y-9335595D01*
X73659380Y-9430833D01*
X73659380Y-9716547D01*
X73611761Y-9811785D01*
X73564142Y-9859404D01*
X72659380Y-8621309D02*
X72659380Y-8526071D01*
X72707000Y-8430833D01*
X72754619Y-8383214D01*
X72849857Y-8335595D01*
X73040333Y-8287976D01*
X73278428Y-8287976D01*
X73468904Y-8335595D01*
X73564142Y-8383214D01*
X73611761Y-8430833D01*
X73659380Y-8526071D01*
X73659380Y-8621309D01*
X73611761Y-8716547D01*
X73564142Y-8764166D01*
X73468904Y-8811785D01*
X73278428Y-8859404D01*
X73040333Y-8859404D01*
X72849857Y-8811785D01*
X72754619Y-8764166D01*
X72707000Y-8716547D01*
X72659380Y-8621309D01*
X66245380Y8335595D02*
X67054904Y8335595D01*
X67150142Y8383214D01*
X67197761Y8430833D01*
X67245380Y8526071D01*
X67245380Y8716547D01*
X67197761Y8811785D01*
X67150142Y8859404D01*
X67054904Y8907023D01*
X66245380Y8907023D01*
X67245380Y9907023D02*
X67245380Y9335595D01*
X67245380Y9621309D02*
X66245380Y9621309D01*
X66388238Y9526071D01*
X66483476Y9430833D01*
X66531095Y9335595D01*
X66673952Y10478452D02*
X66626333Y10383214D01*
X66578714Y10335595D01*
X66483476Y10287976D01*
X66435857Y10287976D01*
X66340619Y10335595D01*
X66293000Y10383214D01*
X66245380Y10478452D01*
X66245380Y10668928D01*
X66293000Y10764166D01*
X66340619Y10811785D01*
X66435857Y10859404D01*
X66483476Y10859404D01*
X66578714Y10811785D01*
X66626333Y10764166D01*
X66673952Y10668928D01*
X66673952Y10478452D01*
X66721571Y10383214D01*
X66769190Y10335595D01*
X66864428Y10287976D01*
X67054904Y10287976D01*
X67150142Y10335595D01*
X67197761Y10383214D01*
X67245380Y10478452D01*
X67245380Y10668928D01*
X67197761Y10764166D01*
X67150142Y10811785D01*
X67054904Y10859404D01*
X66864428Y10859404D01*
X66769190Y10811785D01*
X66721571Y10764166D01*
X66673952Y10668928D01*
X68159380Y-10811785D02*
X68968904Y-10811785D01*
X69064142Y-10764166D01*
X69111761Y-10716547D01*
X69159380Y-10621309D01*
X69159380Y-10430833D01*
X69111761Y-10335595D01*
X69064142Y-10287976D01*
X68968904Y-10240357D01*
X68159380Y-10240357D01*
X68254619Y-9811785D02*
X68207000Y-9764166D01*
X68159380Y-9668928D01*
X68159380Y-9430833D01*
X68207000Y-9335595D01*
X68254619Y-9287976D01*
X68349857Y-9240357D01*
X68445095Y-9240357D01*
X68587952Y-9287976D01*
X69159380Y-9859404D01*
X69159380Y-9240357D01*
X69159380Y-8764166D02*
X69159380Y-8573690D01*
X69111761Y-8478452D01*
X69064142Y-8430833D01*
X68921285Y-8335595D01*
X68730809Y-8287976D01*
X68349857Y-8287976D01*
X68254619Y-8335595D01*
X68207000Y-8383214D01*
X68159380Y-8478452D01*
X68159380Y-8668928D01*
X68207000Y-8764166D01*
X68254619Y-8811785D01*
X68349857Y-8859404D01*
X68587952Y-8859404D01*
X68683190Y-8811785D01*
X68730809Y-8764166D01*
X68778428Y-8668928D01*
X68778428Y-8478452D01*
X68730809Y-8383214D01*
X68683190Y-8335595D01*
X68587952Y-8287976D01*
X61745380Y8335595D02*
X62554904Y8335595D01*
X62650142Y8383214D01*
X62697761Y8430833D01*
X62745380Y8526071D01*
X62745380Y8716547D01*
X62697761Y8811785D01*
X62650142Y8859404D01*
X62554904Y8907023D01*
X61745380Y8907023D01*
X62745380Y9907023D02*
X62745380Y9335595D01*
X62745380Y9621309D02*
X61745380Y9621309D01*
X61888238Y9526071D01*
X61983476Y9430833D01*
X62031095Y9335595D01*
X61745380Y10240357D02*
X61745380Y10907023D01*
X62745380Y10478452D01*
X63159380Y-10811785D02*
X63968904Y-10811785D01*
X64064142Y-10764166D01*
X64111761Y-10716547D01*
X64159380Y-10621309D01*
X64159380Y-10430833D01*
X64111761Y-10335595D01*
X64064142Y-10287976D01*
X63968904Y-10240357D01*
X63159380Y-10240357D01*
X63254619Y-9811785D02*
X63207000Y-9764166D01*
X63159380Y-9668928D01*
X63159380Y-9430833D01*
X63207000Y-9335595D01*
X63254619Y-9287976D01*
X63349857Y-9240357D01*
X63445095Y-9240357D01*
X63587952Y-9287976D01*
X64159380Y-9859404D01*
X64159380Y-9240357D01*
X63587952Y-8668928D02*
X63540333Y-8764166D01*
X63492714Y-8811785D01*
X63397476Y-8859404D01*
X63349857Y-8859404D01*
X63254619Y-8811785D01*
X63207000Y-8764166D01*
X63159380Y-8668928D01*
X63159380Y-8478452D01*
X63207000Y-8383214D01*
X63254619Y-8335595D01*
X63349857Y-8287976D01*
X63397476Y-8287976D01*
X63492714Y-8335595D01*
X63540333Y-8383214D01*
X63587952Y-8478452D01*
X63587952Y-8668928D01*
X63635571Y-8764166D01*
X63683190Y-8811785D01*
X63778428Y-8859404D01*
X63968904Y-8859404D01*
X64064142Y-8811785D01*
X64111761Y-8764166D01*
X64159380Y-8668928D01*
X64159380Y-8478452D01*
X64111761Y-8383214D01*
X64064142Y-8335595D01*
X63968904Y-8287976D01*
X63778428Y-8287976D01*
X63683190Y-8335595D01*
X63635571Y-8383214D01*
X63587952Y-8478452D01*
X56745380Y8335595D02*
X57554904Y8335595D01*
X57650142Y8383214D01*
X57697761Y8430833D01*
X57745380Y8526071D01*
X57745380Y8716547D01*
X57697761Y8811785D01*
X57650142Y8859404D01*
X57554904Y8907023D01*
X56745380Y8907023D01*
X57745380Y9907023D02*
X57745380Y9335595D01*
X57745380Y9621309D02*
X56745380Y9621309D01*
X56888238Y9526071D01*
X56983476Y9430833D01*
X57031095Y9335595D01*
X56745380Y10764166D02*
X56745380Y10573690D01*
X56793000Y10478452D01*
X56840619Y10430833D01*
X56983476Y10335595D01*
X57173952Y10287976D01*
X57554904Y10287976D01*
X57650142Y10335595D01*
X57697761Y10383214D01*
X57745380Y10478452D01*
X57745380Y10668928D01*
X57697761Y10764166D01*
X57650142Y10811785D01*
X57554904Y10859404D01*
X57316809Y10859404D01*
X57221571Y10811785D01*
X57173952Y10764166D01*
X57126333Y10668928D01*
X57126333Y10478452D01*
X57173952Y10383214D01*
X57221571Y10335595D01*
X57316809Y10287976D01*
X58659380Y-10811785D02*
X59468904Y-10811785D01*
X59564142Y-10764166D01*
X59611761Y-10716547D01*
X59659380Y-10621309D01*
X59659380Y-10430833D01*
X59611761Y-10335595D01*
X59564142Y-10287976D01*
X59468904Y-10240357D01*
X58659380Y-10240357D01*
X58754619Y-9811785D02*
X58707000Y-9764166D01*
X58659380Y-9668928D01*
X58659380Y-9430833D01*
X58707000Y-9335595D01*
X58754619Y-9287976D01*
X58849857Y-9240357D01*
X58945095Y-9240357D01*
X59087952Y-9287976D01*
X59659380Y-9859404D01*
X59659380Y-9240357D01*
X58659380Y-8907023D02*
X58659380Y-8240357D01*
X59659380Y-8668928D01*
X52245380Y8335595D02*
X53054904Y8335595D01*
X53150142Y8383214D01*
X53197761Y8430833D01*
X53245380Y8526071D01*
X53245380Y8716547D01*
X53197761Y8811785D01*
X53150142Y8859404D01*
X53054904Y8907023D01*
X52245380Y8907023D01*
X53245380Y9907023D02*
X53245380Y9335595D01*
X53245380Y9621309D02*
X52245380Y9621309D01*
X52388238Y9526071D01*
X52483476Y9430833D01*
X52531095Y9335595D01*
X52245380Y10811785D02*
X52245380Y10335595D01*
X52721571Y10287976D01*
X52673952Y10335595D01*
X52626333Y10430833D01*
X52626333Y10668928D01*
X52673952Y10764166D01*
X52721571Y10811785D01*
X52816809Y10859404D01*
X53054904Y10859404D01*
X53150142Y10811785D01*
X53197761Y10764166D01*
X53245380Y10668928D01*
X53245380Y10430833D01*
X53197761Y10335595D01*
X53150142Y10287976D01*
X53659380Y-10811785D02*
X54468904Y-10811785D01*
X54564142Y-10764166D01*
X54611761Y-10716547D01*
X54659380Y-10621309D01*
X54659380Y-10430833D01*
X54611761Y-10335595D01*
X54564142Y-10287976D01*
X54468904Y-10240357D01*
X53659380Y-10240357D01*
X53754619Y-9811785D02*
X53707000Y-9764166D01*
X53659380Y-9668928D01*
X53659380Y-9430833D01*
X53707000Y-9335595D01*
X53754619Y-9287976D01*
X53849857Y-9240357D01*
X53945095Y-9240357D01*
X54087952Y-9287976D01*
X54659380Y-9859404D01*
X54659380Y-9240357D01*
X53659380Y-8383214D02*
X53659380Y-8573690D01*
X53707000Y-8668928D01*
X53754619Y-8716547D01*
X53897476Y-8811785D01*
X54087952Y-8859404D01*
X54468904Y-8859404D01*
X54564142Y-8811785D01*
X54611761Y-8764166D01*
X54659380Y-8668928D01*
X54659380Y-8478452D01*
X54611761Y-8383214D01*
X54564142Y-8335595D01*
X54468904Y-8287976D01*
X54230809Y-8287976D01*
X54135571Y-8335595D01*
X54087952Y-8383214D01*
X54040333Y-8478452D01*
X54040333Y-8668928D01*
X54087952Y-8764166D01*
X54135571Y-8811785D01*
X54230809Y-8859404D01*
X49159380Y-10811785D02*
X49968904Y-10811785D01*
X50064142Y-10764166D01*
X50111761Y-10716547D01*
X50159380Y-10621309D01*
X50159380Y-10430833D01*
X50111761Y-10335595D01*
X50064142Y-10287976D01*
X49968904Y-10240357D01*
X49159380Y-10240357D01*
X49254619Y-9811785D02*
X49207000Y-9764166D01*
X49159380Y-9668928D01*
X49159380Y-9430833D01*
X49207000Y-9335595D01*
X49254619Y-9287976D01*
X49349857Y-9240357D01*
X49445095Y-9240357D01*
X49587952Y-9287976D01*
X50159380Y-9859404D01*
X50159380Y-9240357D01*
X49159380Y-8335595D02*
X49159380Y-8811785D01*
X49635571Y-8859404D01*
X49587952Y-8811785D01*
X49540333Y-8716547D01*
X49540333Y-8478452D01*
X49587952Y-8383214D01*
X49635571Y-8335595D01*
X49730809Y-8287976D01*
X49968904Y-8287976D01*
X50064142Y-8335595D01*
X50111761Y-8383214D01*
X50159380Y-8478452D01*
X50159380Y-8716547D01*
X50111761Y-8811785D01*
X50064142Y-8859404D01*
X44159380Y-10811785D02*
X44968904Y-10811785D01*
X45064142Y-10764166D01*
X45111761Y-10716547D01*
X45159380Y-10621309D01*
X45159380Y-10430833D01*
X45111761Y-10335595D01*
X45064142Y-10287976D01*
X44968904Y-10240357D01*
X44159380Y-10240357D01*
X44254619Y-9811785D02*
X44207000Y-9764166D01*
X44159380Y-9668928D01*
X44159380Y-9430833D01*
X44207000Y-9335595D01*
X44254619Y-9287976D01*
X44349857Y-9240357D01*
X44445095Y-9240357D01*
X44587952Y-9287976D01*
X45159380Y-9859404D01*
X45159380Y-9240357D01*
X44492714Y-8383214D02*
X45159380Y-8383214D01*
X44111761Y-8621309D02*
X44826047Y-8859404D01*
X44826047Y-8240357D01*
X39659380Y-10811785D02*
X40468904Y-10811785D01*
X40564142Y-10764166D01*
X40611761Y-10716547D01*
X40659380Y-10621309D01*
X40659380Y-10430833D01*
X40611761Y-10335595D01*
X40564142Y-10287976D01*
X40468904Y-10240357D01*
X39659380Y-10240357D01*
X39754619Y-9811785D02*
X39707000Y-9764166D01*
X39659380Y-9668928D01*
X39659380Y-9430833D01*
X39707000Y-9335595D01*
X39754619Y-9287976D01*
X39849857Y-9240357D01*
X39945095Y-9240357D01*
X40087952Y-9287976D01*
X40659380Y-9859404D01*
X40659380Y-9240357D01*
X39659380Y-8907023D02*
X39659380Y-8287976D01*
X40040333Y-8621309D01*
X40040333Y-8478452D01*
X40087952Y-8383214D01*
X40135571Y-8335595D01*
X40230809Y-8287976D01*
X40468904Y-8287976D01*
X40564142Y-8335595D01*
X40611761Y-8383214D01*
X40659380Y-8478452D01*
X40659380Y-8764166D01*
X40611761Y-8859404D01*
X40564142Y-8907023D01*
X34659380Y-10811785D02*
X35468904Y-10811785D01*
X35564142Y-10764166D01*
X35611761Y-10716547D01*
X35659380Y-10621309D01*
X35659380Y-10430833D01*
X35611761Y-10335595D01*
X35564142Y-10287976D01*
X35468904Y-10240357D01*
X34659380Y-10240357D01*
X34754619Y-9811785D02*
X34707000Y-9764166D01*
X34659380Y-9668928D01*
X34659380Y-9430833D01*
X34707000Y-9335595D01*
X34754619Y-9287976D01*
X34849857Y-9240357D01*
X34945095Y-9240357D01*
X35087952Y-9287976D01*
X35659380Y-9859404D01*
X35659380Y-9240357D01*
X34754619Y-8859404D02*
X34707000Y-8811785D01*
X34659380Y-8716547D01*
X34659380Y-8478452D01*
X34707000Y-8383214D01*
X34754619Y-8335595D01*
X34849857Y-8287976D01*
X34945095Y-8287976D01*
X35087952Y-8335595D01*
X35659380Y-8907023D01*
X35659380Y-8287976D01*
X30159380Y-10811785D02*
X30968904Y-10811785D01*
X31064142Y-10764166D01*
X31111761Y-10716547D01*
X31159380Y-10621309D01*
X31159380Y-10430833D01*
X31111761Y-10335595D01*
X31064142Y-10287976D01*
X30968904Y-10240357D01*
X30159380Y-10240357D01*
X30254619Y-9811785D02*
X30207000Y-9764166D01*
X30159380Y-9668928D01*
X30159380Y-9430833D01*
X30207000Y-9335595D01*
X30254619Y-9287976D01*
X30349857Y-9240357D01*
X30445095Y-9240357D01*
X30587952Y-9287976D01*
X31159380Y-9859404D01*
X31159380Y-9240357D01*
X31159380Y-8287976D02*
X31159380Y-8859404D01*
X31159380Y-8573690D02*
X30159380Y-8573690D01*
X30302238Y-8668928D01*
X30397476Y-8764166D01*
X30445095Y-8859404D01*
X47245380Y8335595D02*
X48054904Y8335595D01*
X48150142Y8383214D01*
X48197761Y8430833D01*
X48245380Y8526071D01*
X48245380Y8716547D01*
X48197761Y8811785D01*
X48150142Y8859404D01*
X48054904Y8907023D01*
X47245380Y8907023D01*
X48245380Y9907023D02*
X48245380Y9335595D01*
X48245380Y9621309D02*
X47245380Y9621309D01*
X47388238Y9526071D01*
X47483476Y9430833D01*
X47531095Y9335595D01*
X47578714Y10764166D02*
X48245380Y10764166D01*
X47197761Y10526071D02*
X47912047Y10287976D01*
X47912047Y10907023D01*
X42745380Y8335595D02*
X43554904Y8335595D01*
X43650142Y8383214D01*
X43697761Y8430833D01*
X43745380Y8526071D01*
X43745380Y8716547D01*
X43697761Y8811785D01*
X43650142Y8859404D01*
X43554904Y8907023D01*
X42745380Y8907023D01*
X43745380Y9907023D02*
X43745380Y9335595D01*
X43745380Y9621309D02*
X42745380Y9621309D01*
X42888238Y9526071D01*
X42983476Y9430833D01*
X43031095Y9335595D01*
X42745380Y10240357D02*
X42745380Y10859404D01*
X43126333Y10526071D01*
X43126333Y10668928D01*
X43173952Y10764166D01*
X43221571Y10811785D01*
X43316809Y10859404D01*
X43554904Y10859404D01*
X43650142Y10811785D01*
X43697761Y10764166D01*
X43745380Y10668928D01*
X43745380Y10383214D01*
X43697761Y10287976D01*
X43650142Y10240357D01*
X37745380Y8335595D02*
X38554904Y8335595D01*
X38650142Y8383214D01*
X38697761Y8430833D01*
X38745380Y8526071D01*
X38745380Y8716547D01*
X38697761Y8811785D01*
X38650142Y8859404D01*
X38554904Y8907023D01*
X37745380Y8907023D01*
X38745380Y9907023D02*
X38745380Y9335595D01*
X38745380Y9621309D02*
X37745380Y9621309D01*
X37888238Y9526071D01*
X37983476Y9430833D01*
X38031095Y9335595D01*
X37840619Y10287976D02*
X37793000Y10335595D01*
X37745380Y10430833D01*
X37745380Y10668928D01*
X37793000Y10764166D01*
X37840619Y10811785D01*
X37935857Y10859404D01*
X38031095Y10859404D01*
X38173952Y10811785D01*
X38745380Y10240357D01*
X38745380Y10859404D01*
X33245380Y8335595D02*
X34054904Y8335595D01*
X34150142Y8383214D01*
X34197761Y8430833D01*
X34245380Y8526071D01*
X34245380Y8716547D01*
X34197761Y8811785D01*
X34150142Y8859404D01*
X34054904Y8907023D01*
X33245380Y8907023D01*
X34245380Y9907023D02*
X34245380Y9335595D01*
X34245380Y9621309D02*
X33245380Y9621309D01*
X33388238Y9526071D01*
X33483476Y9430833D01*
X33531095Y9335595D01*
X34245380Y10859404D02*
X34245380Y10287976D01*
X34245380Y10573690D02*
X33245380Y10573690D01*
X33388238Y10478452D01*
X33483476Y10383214D01*
X33531095Y10287976D01*
X28245380Y8335595D02*
X29054904Y8335595D01*
X29150142Y8383214D01*
X29197761Y8430833D01*
X29245380Y8526071D01*
X29245380Y8716547D01*
X29197761Y8811785D01*
X29150142Y8859404D01*
X29054904Y8907023D01*
X28245380Y8907023D01*
X29245380Y9907023D02*
X29245380Y9335595D01*
X29245380Y9621309D02*
X28245380Y9621309D01*
X28388238Y9526071D01*
X28483476Y9430833D01*
X28531095Y9335595D01*
X28245380Y10526071D02*
X28245380Y10621309D01*
X28293000Y10716547D01*
X28340619Y10764166D01*
X28435857Y10811785D01*
X28626333Y10859404D01*
X28864428Y10859404D01*
X29054904Y10811785D01*
X29150142Y10764166D01*
X29197761Y10716547D01*
X29245380Y10621309D01*
X29245380Y10526071D01*
X29197761Y10430833D01*
X29150142Y10383214D01*
X29054904Y10335595D01*
X28864428Y10287976D01*
X28626333Y10287976D01*
X28435857Y10335595D01*
X28340619Y10383214D01*
X28293000Y10430833D01*
X28245380Y10526071D01*
X23745380Y8335595D02*
X24554904Y8335595D01*
X24650142Y8383214D01*
X24697761Y8430833D01*
X24745380Y8526071D01*
X24745380Y8716547D01*
X24697761Y8811785D01*
X24650142Y8859404D01*
X24554904Y8907023D01*
X23745380Y8907023D01*
X24745380Y9430833D02*
X24745380Y9621309D01*
X24697761Y9716547D01*
X24650142Y9764166D01*
X24507285Y9859404D01*
X24316809Y9907023D01*
X23935857Y9907023D01*
X23840619Y9859404D01*
X23793000Y9811785D01*
X23745380Y9716547D01*
X23745380Y9526071D01*
X23793000Y9430833D01*
X23840619Y9383214D01*
X23935857Y9335595D01*
X24173952Y9335595D01*
X24269190Y9383214D01*
X24316809Y9430833D01*
X24364428Y9526071D01*
X24364428Y9716547D01*
X24316809Y9811785D01*
X24269190Y9859404D01*
X24173952Y9907023D01*
X89659380Y7045357D02*
X88659380Y7045357D01*
X89373666Y7378690D01*
X88659380Y7712023D01*
X89659380Y7712023D01*
X89659380Y8712023D02*
X89659380Y8140595D01*
X89659380Y8426309D02*
X88659380Y8426309D01*
X88802238Y8331071D01*
X88897476Y8235833D01*
X88945095Y8140595D01*
X12245380Y10835595D02*
X13054904Y10835595D01*
X13150142Y10883214D01*
X13197761Y10930833D01*
X13245380Y11026071D01*
X13245380Y11216547D01*
X13197761Y11311785D01*
X13150142Y11359404D01*
X13054904Y11407023D01*
X12245380Y11407023D01*
X12673952Y12026071D02*
X12626333Y11930833D01*
X12578714Y11883214D01*
X12483476Y11835595D01*
X12435857Y11835595D01*
X12340619Y11883214D01*
X12293000Y11930833D01*
X12245380Y12026071D01*
X12245380Y12216547D01*
X12293000Y12311785D01*
X12340619Y12359404D01*
X12435857Y12407023D01*
X12483476Y12407023D01*
X12578714Y12359404D01*
X12626333Y12311785D01*
X12673952Y12216547D01*
X12673952Y12026071D01*
X12721571Y11930833D01*
X12769190Y11883214D01*
X12864428Y11835595D01*
X13054904Y11835595D01*
X13150142Y11883214D01*
X13197761Y11930833D01*
X13245380Y12026071D01*
X13245380Y12216547D01*
X13197761Y12311785D01*
X13150142Y12359404D01*
X13054904Y12407023D01*
X12864428Y12407023D01*
X12769190Y12359404D01*
X12721571Y12311785D01*
X12673952Y12216547D01*
X7745380Y10835595D02*
X8554904Y10835595D01*
X8650142Y10883214D01*
X8697761Y10930833D01*
X8745380Y11026071D01*
X8745380Y11216547D01*
X8697761Y11311785D01*
X8650142Y11359404D01*
X8554904Y11407023D01*
X7745380Y11407023D01*
X7745380Y11787976D02*
X7745380Y12454642D01*
X8745380Y12026071D01*
X3245380Y10835595D02*
X4054904Y10835595D01*
X4150142Y10883214D01*
X4197761Y10930833D01*
X4245380Y11026071D01*
X4245380Y11216547D01*
X4197761Y11311785D01*
X4150142Y11359404D01*
X4054904Y11407023D01*
X3245380Y11407023D01*
X3245380Y12311785D02*
X3245380Y12121309D01*
X3293000Y12026071D01*
X3340619Y11978452D01*
X3483476Y11883214D01*
X3673952Y11835595D01*
X4054904Y11835595D01*
X4150142Y11883214D01*
X4197761Y11930833D01*
X4245380Y12026071D01*
X4245380Y12216547D01*
X4197761Y12311785D01*
X4150142Y12359404D01*
X4054904Y12407023D01*
X3816809Y12407023D01*
X3721571Y12359404D01*
X3673952Y12311785D01*
X3626333Y12216547D01*
X3626333Y12026071D01*
X3673952Y11930833D01*
X3721571Y11883214D01*
X3816809Y11835595D01*
X16745380Y10835595D02*
X17554904Y10835595D01*
X17650142Y10883214D01*
X17697761Y10930833D01*
X17745380Y11026071D01*
X17745380Y11216547D01*
X17697761Y11311785D01*
X17650142Y11359404D01*
X17554904Y11407023D01*
X16745380Y11407023D01*
X16745380Y12359404D02*
X16745380Y11883214D01*
X17221571Y11835595D01*
X17173952Y11883214D01*
X17126333Y11978452D01*
X17126333Y12216547D01*
X17173952Y12311785D01*
X17221571Y12359404D01*
X17316809Y12407023D01*
X17554904Y12407023D01*
X17650142Y12359404D01*
X17697761Y12311785D01*
X17745380Y12216547D01*
X17745380Y11978452D01*
X17697761Y11883214D01*
X17650142Y11835595D01*
X14159380Y-12359404D02*
X14968904Y-12359404D01*
X15064142Y-12311785D01*
X15111761Y-12264166D01*
X15159380Y-12168928D01*
X15159380Y-11978452D01*
X15111761Y-11883214D01*
X15064142Y-11835595D01*
X14968904Y-11787976D01*
X14159380Y-11787976D01*
X14492714Y-10883214D02*
X15159380Y-10883214D01*
X14111761Y-11121309D02*
X14826047Y-11359404D01*
X14826047Y-10740357D01*
X9659380Y-12359404D02*
X10468904Y-12359404D01*
X10564142Y-12311785D01*
X10611761Y-12264166D01*
X10659380Y-12168928D01*
X10659380Y-11978452D01*
X10611761Y-11883214D01*
X10564142Y-11835595D01*
X10468904Y-11787976D01*
X9659380Y-11787976D01*
X9659380Y-11407023D02*
X9659380Y-10787976D01*
X10040333Y-11121309D01*
X10040333Y-10978452D01*
X10087952Y-10883214D01*
X10135571Y-10835595D01*
X10230809Y-10787976D01*
X10468904Y-10787976D01*
X10564142Y-10835595D01*
X10611761Y-10883214D01*
X10659380Y-10978452D01*
X10659380Y-11264166D01*
X10611761Y-11359404D01*
X10564142Y-11407023D01*
X18659380Y-12359404D02*
X19468904Y-12359404D01*
X19564142Y-12311785D01*
X19611761Y-12264166D01*
X19659380Y-12168928D01*
X19659380Y-11978452D01*
X19611761Y-11883214D01*
X19564142Y-11835595D01*
X19468904Y-11787976D01*
X18659380Y-11787976D01*
X18754619Y-11359404D02*
X18707000Y-11311785D01*
X18659380Y-11216547D01*
X18659380Y-10978452D01*
X18707000Y-10883214D01*
X18754619Y-10835595D01*
X18849857Y-10787976D01*
X18945095Y-10787976D01*
X19087952Y-10835595D01*
X19659380Y-11407023D01*
X19659380Y-10787976D01*
X23159380Y-12359404D02*
X23968904Y-12359404D01*
X24064142Y-12311785D01*
X24111761Y-12264166D01*
X24159380Y-12168928D01*
X24159380Y-11978452D01*
X24111761Y-11883214D01*
X24064142Y-11835595D01*
X23968904Y-11787976D01*
X23159380Y-11787976D01*
X24159380Y-10787976D02*
X24159380Y-11359404D01*
X24159380Y-11073690D02*
X23159380Y-11073690D01*
X23302238Y-11168928D01*
X23397476Y-11264166D01*
X23445095Y-11359404D01*
X-1287976Y-2659380D02*
X-1287976Y-3373666D01*
X-1335595Y-3516523D01*
X-1430833Y-3611761D01*
X-1573690Y-3659380D01*
X-1668928Y-3659380D01*
X-859404Y-2754619D02*
X-811785Y-2707000D01*
X-716547Y-2659380D01*
X-478452Y-2659380D01*
X-383214Y-2707000D01*
X-335595Y-2754619D01*
X-287976Y-2849857D01*
X-287976Y-2945095D01*
X-335595Y-3087952D01*
X-907023Y-3659380D01*
X-287976Y-3659380D01*
D15*
X-1765261Y-7018121D02*
X-1765261Y-7145169D01*
X-1733500Y-7208692D01*
X-1701738Y-7240454D01*
X-1606452Y-7303978D01*
X-1479404Y-7335740D01*
X-1225309Y-7335740D01*
X-1161785Y-7303978D01*
X-1130023Y-7272216D01*
X-1098261Y-7208692D01*
X-1098261Y-7081645D01*
X-1130023Y-7018121D01*
X-1161785Y-6986359D01*
X-1225309Y-6954597D01*
X-1384119Y-6954597D01*
X-1447642Y-6986359D01*
X-1479404Y-7018121D01*
X-1511166Y-7081645D01*
X-1511166Y-7208692D01*
X-1479404Y-7272216D01*
X-1447642Y-7303978D01*
X-1384119Y-7335740D01*
X-998261Y4527783D02*
X-998261Y4654830D01*
X-1030023Y4718354D01*
X-1061785Y4750116D01*
X-1157071Y4813640D01*
X-1284119Y4845402D01*
X-1538214Y4845402D01*
X-1601738Y4813640D01*
X-1633500Y4781878D01*
X-1665261Y4718354D01*
X-1665261Y4591307D01*
X-1633500Y4527783D01*
X-1601738Y4496021D01*
X-1538214Y4464259D01*
X-1379404Y4464259D01*
X-1315880Y4496021D01*
X-1284119Y4527783D01*
X-1252357Y4591307D01*
X-1252357Y4718354D01*
X-1284119Y4781878D01*
X-1315880Y4813640D01*
X-1379404Y4845402D01*
X1511738Y6113640D02*
X1511738Y5796021D01*
X1829357Y5764259D01*
X1797595Y5796021D01*
X1765833Y5859545D01*
X1765833Y6018354D01*
X1797595Y6081878D01*
X1829357Y6113640D01*
X1892880Y6145402D01*
X2051690Y6145402D01*
X2115214Y6113640D01*
X2146976Y6081878D01*
X2178738Y6018354D01*
X2178738Y5859545D01*
X2146976Y5796021D01*
X2115214Y5764259D01*
X2280738Y-8002597D02*
X2280738Y-8383740D01*
X2280738Y-8193169D02*
X1613738Y-8193169D01*
X1709023Y-8256692D01*
X1772547Y-8320216D01*
X1804309Y-8383740D01*
D10*
X73745380Y15335595D02*
X72745380Y15335595D01*
X72745380Y15573690D01*
X72793000Y15716547D01*
X72888238Y15811785D01*
X72983476Y15859404D01*
X73173952Y15907023D01*
X73316809Y15907023D01*
X73507285Y15859404D01*
X73602523Y15811785D01*
X73697761Y15716547D01*
X73745380Y15573690D01*
X73745380Y15335595D01*
X73173952Y16478452D02*
X73126333Y16383214D01*
X73078714Y16335595D01*
X72983476Y16287976D01*
X72935857Y16287976D01*
X72840619Y16335595D01*
X72793000Y16383214D01*
X72745380Y16478452D01*
X72745380Y16668928D01*
X72793000Y16764166D01*
X72840619Y16811785D01*
X72935857Y16859404D01*
X72983476Y16859404D01*
X73078714Y16811785D01*
X73126333Y16764166D01*
X73173952Y16668928D01*
X73173952Y16478452D01*
X73221571Y16383214D01*
X73269190Y16335595D01*
X73364428Y16287976D01*
X73554904Y16287976D01*
X73650142Y16335595D01*
X73697761Y16383214D01*
X73745380Y16478452D01*
X73745380Y16668928D01*
X73697761Y16764166D01*
X73650142Y16811785D01*
X73554904Y16859404D01*
X73364428Y16859404D01*
X73269190Y16811785D01*
X73221571Y16764166D01*
X73173952Y16668928D01*
X64245380Y15335595D02*
X63245380Y15335595D01*
X63245380Y15573690D01*
X63293000Y15716547D01*
X63388238Y15811785D01*
X63483476Y15859404D01*
X63673952Y15907023D01*
X63816809Y15907023D01*
X64007285Y15859404D01*
X64102523Y15811785D01*
X64197761Y15716547D01*
X64245380Y15573690D01*
X64245380Y15335595D01*
X63245380Y16240357D02*
X63245380Y16907023D01*
X64245380Y16478452D01*
X54745380Y15335595D02*
X53745380Y15335595D01*
X53745380Y15573690D01*
X53793000Y15716547D01*
X53888238Y15811785D01*
X53983476Y15859404D01*
X54173952Y15907023D01*
X54316809Y15907023D01*
X54507285Y15859404D01*
X54602523Y15811785D01*
X54697761Y15716547D01*
X54745380Y15573690D01*
X54745380Y15335595D01*
X53745380Y16764166D02*
X53745380Y16573690D01*
X53793000Y16478452D01*
X53840619Y16430833D01*
X53983476Y16335595D01*
X54173952Y16287976D01*
X54554904Y16287976D01*
X54650142Y16335595D01*
X54697761Y16383214D01*
X54745380Y16478452D01*
X54745380Y16668928D01*
X54697761Y16764166D01*
X54650142Y16811785D01*
X54554904Y16859404D01*
X54316809Y16859404D01*
X54221571Y16811785D01*
X54173952Y16764166D01*
X54126333Y16668928D01*
X54126333Y16478452D01*
X54173952Y16383214D01*
X54221571Y16335595D01*
X54316809Y16287976D01*
X45245380Y15335595D02*
X44245380Y15335595D01*
X44245380Y15573690D01*
X44293000Y15716547D01*
X44388238Y15811785D01*
X44483476Y15859404D01*
X44673952Y15907023D01*
X44816809Y15907023D01*
X45007285Y15859404D01*
X45102523Y15811785D01*
X45197761Y15716547D01*
X45245380Y15573690D01*
X45245380Y15335595D01*
X44245380Y16811785D02*
X44245380Y16335595D01*
X44721571Y16287976D01*
X44673952Y16335595D01*
X44626333Y16430833D01*
X44626333Y16668928D01*
X44673952Y16764166D01*
X44721571Y16811785D01*
X44816809Y16859404D01*
X45054904Y16859404D01*
X45150142Y16811785D01*
X45197761Y16764166D01*
X45245380Y16668928D01*
X45245380Y16430833D01*
X45197761Y16335595D01*
X45150142Y16287976D01*
X35745380Y15335595D02*
X34745380Y15335595D01*
X34745380Y15573690D01*
X34793000Y15716547D01*
X34888238Y15811785D01*
X34983476Y15859404D01*
X35173952Y15907023D01*
X35316809Y15907023D01*
X35507285Y15859404D01*
X35602523Y15811785D01*
X35697761Y15716547D01*
X35745380Y15573690D01*
X35745380Y15335595D01*
X35078714Y16764166D02*
X35745380Y16764166D01*
X34697761Y16526071D02*
X35412047Y16287976D01*
X35412047Y16907023D01*
X26245380Y15335595D02*
X25245380Y15335595D01*
X25245380Y15573690D01*
X25293000Y15716547D01*
X25388238Y15811785D01*
X25483476Y15859404D01*
X25673952Y15907023D01*
X25816809Y15907023D01*
X26007285Y15859404D01*
X26102523Y15811785D01*
X26197761Y15716547D01*
X26245380Y15573690D01*
X26245380Y15335595D01*
X25245380Y16240357D02*
X25245380Y16859404D01*
X25626333Y16526071D01*
X25626333Y16668928D01*
X25673952Y16764166D01*
X25721571Y16811785D01*
X25816809Y16859404D01*
X26054904Y16859404D01*
X26150142Y16811785D01*
X26197761Y16764166D01*
X26245380Y16668928D01*
X26245380Y16383214D01*
X26197761Y16287976D01*
X26150142Y16240357D01*
X9159380Y-19311785D02*
X8159380Y-19311785D01*
X8159380Y-19073690D01*
X8207000Y-18930833D01*
X8302238Y-18835595D01*
X8397476Y-18787976D01*
X8587952Y-18740357D01*
X8730809Y-18740357D01*
X8921285Y-18787976D01*
X9016523Y-18835595D01*
X9111761Y-18930833D01*
X9159380Y-19073690D01*
X9159380Y-19311785D01*
X9159380Y-17787976D02*
X9159380Y-18359404D01*
X9159380Y-18073690D02*
X8159380Y-18073690D01*
X8302238Y-18168928D01*
X8397476Y-18264166D01*
X8445095Y-18359404D01*
X5745380Y17835595D02*
X4745380Y17835595D01*
X4745380Y18073690D01*
X4793000Y18216547D01*
X4888238Y18311785D01*
X4983476Y18359404D01*
X5173952Y18407023D01*
X5316809Y18407023D01*
X5507285Y18359404D01*
X5602523Y18311785D01*
X5697761Y18216547D01*
X5745380Y18073690D01*
X5745380Y17835595D01*
X4840619Y18787976D02*
X4793000Y18835595D01*
X4745380Y18930833D01*
X4745380Y19168928D01*
X4793000Y19264166D01*
X4840619Y19311785D01*
X4935857Y19359404D01*
X5031095Y19359404D01*
X5173952Y19311785D01*
X5745380Y18740357D01*
X5745380Y19359404D01*
X76533333Y-21002380D02*
X76200000Y-20526190D01*
X75961904Y-21002380D02*
X75961904Y-20002380D01*
X76342857Y-20002380D01*
X76438095Y-20050000D01*
X76485714Y-20097619D01*
X76533333Y-20192857D01*
X76533333Y-20335714D01*
X76485714Y-20430952D01*
X76438095Y-20478571D01*
X76342857Y-20526190D01*
X75961904Y-20526190D01*
X77485714Y-21002380D02*
X76914285Y-21002380D01*
X77200000Y-21002380D02*
X77200000Y-20002380D01*
X77104761Y-20145238D01*
X77009523Y-20240476D01*
X76914285Y-20288095D01*
X86233333Y1597619D02*
X85900000Y2073809D01*
X85661904Y1597619D02*
X85661904Y2597619D01*
X86042857Y2597619D01*
X86138095Y2550000D01*
X86185714Y2502380D01*
X86233333Y2407142D01*
X86233333Y2264285D01*
X86185714Y2169047D01*
X86138095Y2121428D01*
X86042857Y2073809D01*
X85661904Y2073809D01*
X86614285Y2502380D02*
X86661904Y2550000D01*
X86757142Y2597619D01*
X86995238Y2597619D01*
X87090476Y2550000D01*
X87138095Y2502380D01*
X87185714Y2407142D01*
X87185714Y2311904D01*
X87138095Y2169047D01*
X86566666Y1597619D01*
X87185714Y1597619D01*
X79382380Y-166666D02*
X78906190Y-500000D01*
X79382380Y-738095D02*
X78382380Y-738095D01*
X78382380Y-357142D01*
X78430000Y-261904D01*
X78477619Y-214285D01*
X78572857Y-166666D01*
X78715714Y-166666D01*
X78810952Y-214285D01*
X78858571Y-261904D01*
X78906190Y-357142D01*
X78906190Y-738095D01*
X79382380Y309523D02*
X79382380Y500000D01*
X79334761Y595238D01*
X79287142Y642857D01*
X79144285Y738095D01*
X78953809Y785714D01*
X78572857Y785714D01*
X78477619Y738095D01*
X78430000Y690476D01*
X78382380Y595238D01*
X78382380Y404761D01*
X78430000Y309523D01*
X78477619Y261904D01*
X78572857Y214285D01*
X78810952Y214285D01*
X78906190Y261904D01*
X78953809Y309523D01*
X79001428Y404761D01*
X79001428Y595238D01*
X78953809Y690476D01*
X78906190Y738095D01*
X78810952Y785714D01*
X86233333Y-302380D02*
X85900000Y173809D01*
X85661904Y-302380D02*
X85661904Y697619D01*
X86042857Y697619D01*
X86138095Y650000D01*
X86185714Y602380D01*
X86233333Y507142D01*
X86233333Y364285D01*
X86185714Y269047D01*
X86138095Y221428D01*
X86042857Y173809D01*
X85661904Y173809D01*
X86566666Y697619D02*
X87185714Y697619D01*
X86852380Y316666D01*
X86995238Y316666D01*
X87090476Y269047D01*
X87138095Y221428D01*
X87185714Y126190D01*
X87185714Y-111904D01*
X87138095Y-207142D01*
X87090476Y-254761D01*
X86995238Y-302380D01*
X86709523Y-302380D01*
X86614285Y-254761D01*
X86566666Y-207142D01*
X70102380Y-166666D02*
X69626190Y-500000D01*
X70102380Y-738095D02*
X69102380Y-738095D01*
X69102380Y-357142D01*
X69150000Y-261904D01*
X69197619Y-214285D01*
X69292857Y-166666D01*
X69435714Y-166666D01*
X69530952Y-214285D01*
X69578571Y-261904D01*
X69626190Y-357142D01*
X69626190Y-738095D01*
X69102380Y166666D02*
X69102380Y833333D01*
X70102380Y404761D01*
X60602380Y-166666D02*
X60126190Y-500000D01*
X60602380Y-738095D02*
X59602380Y-738095D01*
X59602380Y-357142D01*
X59650000Y-261904D01*
X59697619Y-214285D01*
X59792857Y-166666D01*
X59935714Y-166666D01*
X60030952Y-214285D01*
X60078571Y-261904D01*
X60126190Y-357142D01*
X60126190Y-738095D01*
X59602380Y690476D02*
X59602380Y500000D01*
X59650000Y404761D01*
X59697619Y357142D01*
X59840476Y261904D01*
X60030952Y214285D01*
X60411904Y214285D01*
X60507142Y261904D01*
X60554761Y309523D01*
X60602380Y404761D01*
X60602380Y595238D01*
X60554761Y690476D01*
X60507142Y738095D01*
X60411904Y785714D01*
X60173809Y785714D01*
X60078571Y738095D01*
X60030952Y690476D01*
X59983333Y595238D01*
X59983333Y404761D01*
X60030952Y309523D01*
X60078571Y261904D01*
X60173809Y214285D01*
X50882380Y-166666D02*
X50406190Y-500000D01*
X50882380Y-738095D02*
X49882380Y-738095D01*
X49882380Y-357142D01*
X49930000Y-261904D01*
X49977619Y-214285D01*
X50072857Y-166666D01*
X50215714Y-166666D01*
X50310952Y-214285D01*
X50358571Y-261904D01*
X50406190Y-357142D01*
X50406190Y-738095D01*
X49882380Y738095D02*
X49882380Y261904D01*
X50358571Y214285D01*
X50310952Y261904D01*
X50263333Y357142D01*
X50263333Y595238D01*
X50310952Y690476D01*
X50358571Y738095D01*
X50453809Y785714D01*
X50691904Y785714D01*
X50787142Y738095D01*
X50834761Y690476D01*
X50882380Y595238D01*
X50882380Y357142D01*
X50834761Y261904D01*
X50787142Y214285D01*
X41382380Y-166666D02*
X40906190Y-500000D01*
X41382380Y-738095D02*
X40382380Y-738095D01*
X40382380Y-357142D01*
X40430000Y-261904D01*
X40477619Y-214285D01*
X40572857Y-166666D01*
X40715714Y-166666D01*
X40810952Y-214285D01*
X40858571Y-261904D01*
X40906190Y-357142D01*
X40906190Y-738095D01*
X40715714Y690476D02*
X41382380Y690476D01*
X40334761Y452380D02*
X41049047Y214285D01*
X41049047Y833333D01*
X31882380Y-166666D02*
X31406190Y-500000D01*
X31882380Y-738095D02*
X30882380Y-738095D01*
X30882380Y-357142D01*
X30930000Y-261904D01*
X30977619Y-214285D01*
X31072857Y-166666D01*
X31215714Y-166666D01*
X31310952Y-214285D01*
X31358571Y-261904D01*
X31406190Y-357142D01*
X31406190Y-738095D01*
X31310952Y404761D02*
X31263333Y309523D01*
X31215714Y261904D01*
X31120476Y214285D01*
X31072857Y214285D01*
X30977619Y261904D01*
X30930000Y309523D01*
X30882380Y404761D01*
X30882380Y595238D01*
X30930000Y690476D01*
X30977619Y738095D01*
X31072857Y785714D01*
X31120476Y785714D01*
X31215714Y738095D01*
X31263333Y690476D01*
X31310952Y595238D01*
X31310952Y404761D01*
X31358571Y309523D01*
X31406190Y261904D01*
X31501428Y214285D01*
X31691904Y214285D01*
X31787142Y261904D01*
X31834761Y309523D01*
X31882380Y404761D01*
X31882380Y595238D01*
X31834761Y690476D01*
X31787142Y738095D01*
X31691904Y785714D01*
X31501428Y785714D01*
X31406190Y738095D01*
X31358571Y690476D01*
X31310952Y595238D01*
X82772380Y-4133333D02*
X83486666Y-4133333D01*
X83629523Y-4180952D01*
X83724761Y-4276190D01*
X83772380Y-4419047D01*
X83772380Y-4514285D01*
X82772380Y-3228571D02*
X82772380Y-3419047D01*
X82820000Y-3514285D01*
X82867619Y-3561904D01*
X83010476Y-3657142D01*
X83200952Y-3704761D01*
X83581904Y-3704761D01*
X83677142Y-3657142D01*
X83724761Y-3609523D01*
X83772380Y-3514285D01*
X83772380Y-3323809D01*
X83724761Y-3228571D01*
X83677142Y-3180952D01*
X83581904Y-3133333D01*
X83343809Y-3133333D01*
X83248571Y-3180952D01*
X83200952Y-3228571D01*
X83153333Y-3323809D01*
X83153333Y-3514285D01*
X83200952Y-3609523D01*
X83248571Y-3657142D01*
X83343809Y-3704761D01*
X82782380Y-12433333D02*
X83496666Y-12433333D01*
X83639523Y-12480952D01*
X83734761Y-12576190D01*
X83782380Y-12719047D01*
X83782380Y-12814285D01*
X83782380Y-11433333D02*
X83782380Y-12004761D01*
X83782380Y-11719047D02*
X82782380Y-11719047D01*
X82925238Y-11814285D01*
X83020476Y-11909523D01*
X83068095Y-12004761D01*
X88497142Y7213333D02*
X88544761Y7165714D01*
X88592380Y7022857D01*
X88592380Y6927619D01*
X88544761Y6784761D01*
X88449523Y6689523D01*
X88354285Y6641904D01*
X88163809Y6594285D01*
X88020952Y6594285D01*
X87830476Y6641904D01*
X87735238Y6689523D01*
X87640000Y6784761D01*
X87592380Y6927619D01*
X87592380Y7022857D01*
X87640000Y7165714D01*
X87687619Y7213333D01*
X88592380Y8165714D02*
X88592380Y7594285D01*
X88592380Y7880000D02*
X87592380Y7880000D01*
X87735238Y7784761D01*
X87830476Y7689523D01*
X87878095Y7594285D01*
%LPC*%
G36*
G01*
X78012500Y-14337500D02*
X78487500Y-14337500D01*
G75*
G02*
X78725000Y-14575000I0J-237500D01*
G01*
X78725000Y-15075000D01*
G75*
G02*
X78487500Y-15312500I-237500J0D01*
G01*
X78012500Y-15312500D01*
G75*
G02*
X77775000Y-15075000I0J237500D01*
G01*
X77775000Y-14575000D01*
G75*
G02*
X78012500Y-14337500I237500J0D01*
G01*
G37*
G36*
G01*
X78012500Y-12512500D02*
X78487500Y-12512500D01*
G75*
G02*
X78725000Y-12750000I0J-237500D01*
G01*
X78725000Y-13250000D01*
G75*
G02*
X78487500Y-13487500I-237500J0D01*
G01*
X78012500Y-13487500D01*
G75*
G02*
X77775000Y-13250000I0J237500D01*
G01*
X77775000Y-12750000D01*
G75*
G02*
X78012500Y-12512500I237500J0D01*
G01*
G37*
G36*
G01*
X73562500Y-14425000D02*
X74037500Y-14425000D01*
G75*
G02*
X74275000Y-14662500I0J-237500D01*
G01*
X74275000Y-15162500D01*
G75*
G02*
X74037500Y-15400000I-237500J0D01*
G01*
X73562500Y-15400000D01*
G75*
G02*
X73325000Y-15162500I0J237500D01*
G01*
X73325000Y-14662500D01*
G75*
G02*
X73562500Y-14425000I237500J0D01*
G01*
G37*
G36*
G01*
X73562500Y-12600000D02*
X74037500Y-12600000D01*
G75*
G02*
X74275000Y-12837500I0J-237500D01*
G01*
X74275000Y-13337500D01*
G75*
G02*
X74037500Y-13575000I-237500J0D01*
G01*
X73562500Y-13575000D01*
G75*
G02*
X73325000Y-13337500I0J237500D01*
G01*
X73325000Y-12837500D01*
G75*
G02*
X73562500Y-12600000I237500J0D01*
G01*
G37*
G36*
G01*
X68512500Y-14425000D02*
X68987500Y-14425000D01*
G75*
G02*
X69225000Y-14662500I0J-237500D01*
G01*
X69225000Y-15162500D01*
G75*
G02*
X68987500Y-15400000I-237500J0D01*
G01*
X68512500Y-15400000D01*
G75*
G02*
X68275000Y-15162500I0J237500D01*
G01*
X68275000Y-14662500D01*
G75*
G02*
X68512500Y-14425000I237500J0D01*
G01*
G37*
G36*
G01*
X68512500Y-12600000D02*
X68987500Y-12600000D01*
G75*
G02*
X69225000Y-12837500I0J-237500D01*
G01*
X69225000Y-13337500D01*
G75*
G02*
X68987500Y-13575000I-237500J0D01*
G01*
X68512500Y-13575000D01*
G75*
G02*
X68275000Y-13337500I0J237500D01*
G01*
X68275000Y-12837500D01*
G75*
G02*
X68512500Y-12600000I237500J0D01*
G01*
G37*
G36*
G01*
X63962500Y-14425000D02*
X64437500Y-14425000D01*
G75*
G02*
X64675000Y-14662500I0J-237500D01*
G01*
X64675000Y-15162500D01*
G75*
G02*
X64437500Y-15400000I-237500J0D01*
G01*
X63962500Y-15400000D01*
G75*
G02*
X63725000Y-15162500I0J237500D01*
G01*
X63725000Y-14662500D01*
G75*
G02*
X63962500Y-14425000I237500J0D01*
G01*
G37*
G36*
G01*
X63962500Y-12600000D02*
X64437500Y-12600000D01*
G75*
G02*
X64675000Y-12837500I0J-237500D01*
G01*
X64675000Y-13337500D01*
G75*
G02*
X64437500Y-13575000I-237500J0D01*
G01*
X63962500Y-13575000D01*
G75*
G02*
X63725000Y-13337500I0J237500D01*
G01*
X63725000Y-12837500D01*
G75*
G02*
X63962500Y-12600000I237500J0D01*
G01*
G37*
G36*
G01*
X58962500Y-14425000D02*
X59437500Y-14425000D01*
G75*
G02*
X59675000Y-14662500I0J-237500D01*
G01*
X59675000Y-15162500D01*
G75*
G02*
X59437500Y-15400000I-237500J0D01*
G01*
X58962500Y-15400000D01*
G75*
G02*
X58725000Y-15162500I0J237500D01*
G01*
X58725000Y-14662500D01*
G75*
G02*
X58962500Y-14425000I237500J0D01*
G01*
G37*
G36*
G01*
X58962500Y-12600000D02*
X59437500Y-12600000D01*
G75*
G02*
X59675000Y-12837500I0J-237500D01*
G01*
X59675000Y-13337500D01*
G75*
G02*
X59437500Y-13575000I-237500J0D01*
G01*
X58962500Y-13575000D01*
G75*
G02*
X58725000Y-13337500I0J237500D01*
G01*
X58725000Y-12837500D01*
G75*
G02*
X58962500Y-12600000I237500J0D01*
G01*
G37*
G36*
G01*
X54512500Y-14425000D02*
X54987500Y-14425000D01*
G75*
G02*
X55225000Y-14662500I0J-237500D01*
G01*
X55225000Y-15162500D01*
G75*
G02*
X54987500Y-15400000I-237500J0D01*
G01*
X54512500Y-15400000D01*
G75*
G02*
X54275000Y-15162500I0J237500D01*
G01*
X54275000Y-14662500D01*
G75*
G02*
X54512500Y-14425000I237500J0D01*
G01*
G37*
G36*
G01*
X54512500Y-12600000D02*
X54987500Y-12600000D01*
G75*
G02*
X55225000Y-12837500I0J-237500D01*
G01*
X55225000Y-13337500D01*
G75*
G02*
X54987500Y-13575000I-237500J0D01*
G01*
X54512500Y-13575000D01*
G75*
G02*
X54275000Y-13337500I0J237500D01*
G01*
X54275000Y-12837500D01*
G75*
G02*
X54512500Y-12600000I237500J0D01*
G01*
G37*
G36*
G01*
X49562500Y-14537500D02*
X50037500Y-14537500D01*
G75*
G02*
X50275000Y-14775000I0J-237500D01*
G01*
X50275000Y-15275000D01*
G75*
G02*
X50037500Y-15512500I-237500J0D01*
G01*
X49562500Y-15512500D01*
G75*
G02*
X49325000Y-15275000I0J237500D01*
G01*
X49325000Y-14775000D01*
G75*
G02*
X49562500Y-14537500I237500J0D01*
G01*
G37*
G36*
G01*
X49562500Y-12712500D02*
X50037500Y-12712500D01*
G75*
G02*
X50275000Y-12950000I0J-237500D01*
G01*
X50275000Y-13450000D01*
G75*
G02*
X50037500Y-13687500I-237500J0D01*
G01*
X49562500Y-13687500D01*
G75*
G02*
X49325000Y-13450000I0J237500D01*
G01*
X49325000Y-12950000D01*
G75*
G02*
X49562500Y-12712500I237500J0D01*
G01*
G37*
G36*
G01*
X45012500Y-14425000D02*
X45487500Y-14425000D01*
G75*
G02*
X45725000Y-14662500I0J-237500D01*
G01*
X45725000Y-15162500D01*
G75*
G02*
X45487500Y-15400000I-237500J0D01*
G01*
X45012500Y-15400000D01*
G75*
G02*
X44775000Y-15162500I0J237500D01*
G01*
X44775000Y-14662500D01*
G75*
G02*
X45012500Y-14425000I237500J0D01*
G01*
G37*
G36*
G01*
X45012500Y-12600000D02*
X45487500Y-12600000D01*
G75*
G02*
X45725000Y-12837500I0J-237500D01*
G01*
X45725000Y-13337500D01*
G75*
G02*
X45487500Y-13575000I-237500J0D01*
G01*
X45012500Y-13575000D01*
G75*
G02*
X44775000Y-13337500I0J237500D01*
G01*
X44775000Y-12837500D01*
G75*
G02*
X45012500Y-12600000I237500J0D01*
G01*
G37*
G36*
G01*
X40012500Y-14425000D02*
X40487500Y-14425000D01*
G75*
G02*
X40725000Y-14662500I0J-237500D01*
G01*
X40725000Y-15162500D01*
G75*
G02*
X40487500Y-15400000I-237500J0D01*
G01*
X40012500Y-15400000D01*
G75*
G02*
X39775000Y-15162500I0J237500D01*
G01*
X39775000Y-14662500D01*
G75*
G02*
X40012500Y-14425000I237500J0D01*
G01*
G37*
G36*
G01*
X40012500Y-12600000D02*
X40487500Y-12600000D01*
G75*
G02*
X40725000Y-12837500I0J-237500D01*
G01*
X40725000Y-13337500D01*
G75*
G02*
X40487500Y-13575000I-237500J0D01*
G01*
X40012500Y-13575000D01*
G75*
G02*
X39775000Y-13337500I0J237500D01*
G01*
X39775000Y-12837500D01*
G75*
G02*
X40012500Y-12600000I237500J0D01*
G01*
G37*
G36*
G01*
X36925000Y-13487500D02*
X36925000Y-13012500D01*
G75*
G02*
X37162500Y-12775000I237500J0D01*
G01*
X37662500Y-12775000D01*
G75*
G02*
X37900000Y-13012500I0J-237500D01*
G01*
X37900000Y-13487500D01*
G75*
G02*
X37662500Y-13725000I-237500J0D01*
G01*
X37162500Y-13725000D01*
G75*
G02*
X36925000Y-13487500I0J237500D01*
G01*
G37*
G36*
G01*
X35100000Y-13487500D02*
X35100000Y-13012500D01*
G75*
G02*
X35337500Y-12775000I237500J0D01*
G01*
X35837500Y-12775000D01*
G75*
G02*
X36075000Y-13012500I0J-237500D01*
G01*
X36075000Y-13487500D01*
G75*
G02*
X35837500Y-13725000I-237500J0D01*
G01*
X35337500Y-13725000D01*
G75*
G02*
X35100000Y-13487500I0J237500D01*
G01*
G37*
G36*
G01*
X32175000Y-13487500D02*
X32175000Y-13012500D01*
G75*
G02*
X32412500Y-12775000I237500J0D01*
G01*
X32912500Y-12775000D01*
G75*
G02*
X33150000Y-13012500I0J-237500D01*
G01*
X33150000Y-13487500D01*
G75*
G02*
X32912500Y-13725000I-237500J0D01*
G01*
X32412500Y-13725000D01*
G75*
G02*
X32175000Y-13487500I0J237500D01*
G01*
G37*
G36*
G01*
X30350000Y-13487500D02*
X30350000Y-13012500D01*
G75*
G02*
X30587500Y-12775000I237500J0D01*
G01*
X31087500Y-12775000D01*
G75*
G02*
X31325000Y-13012500I0J-237500D01*
G01*
X31325000Y-13487500D01*
G75*
G02*
X31087500Y-13725000I-237500J0D01*
G01*
X30587500Y-13725000D01*
G75*
G02*
X30350000Y-13487500I0J237500D01*
G01*
G37*
G36*
G01*
X27625000Y-13437500D02*
X27625000Y-12962500D01*
G75*
G02*
X27862500Y-12725000I237500J0D01*
G01*
X28362500Y-12725000D01*
G75*
G02*
X28600000Y-12962500I0J-237500D01*
G01*
X28600000Y-13437500D01*
G75*
G02*
X28362500Y-13675000I-237500J0D01*
G01*
X27862500Y-13675000D01*
G75*
G02*
X27625000Y-13437500I0J237500D01*
G01*
G37*
G36*
G01*
X25800000Y-13437500D02*
X25800000Y-12962500D01*
G75*
G02*
X26037500Y-12725000I237500J0D01*
G01*
X26537500Y-12725000D01*
G75*
G02*
X26775000Y-12962500I0J-237500D01*
G01*
X26775000Y-13437500D01*
G75*
G02*
X26537500Y-13675000I-237500J0D01*
G01*
X26037500Y-13675000D01*
G75*
G02*
X25800000Y-13437500I0J237500D01*
G01*
G37*
G36*
G01*
X79625000Y13562500D02*
X79625000Y14037500D01*
G75*
G02*
X79862500Y14275000I237500J0D01*
G01*
X80362500Y14275000D01*
G75*
G02*
X80600000Y14037500I0J-237500D01*
G01*
X80600000Y13562500D01*
G75*
G02*
X80362500Y13325000I-237500J0D01*
G01*
X79862500Y13325000D01*
G75*
G02*
X79625000Y13562500I0J237500D01*
G01*
G37*
G36*
G01*
X77800000Y13562500D02*
X77800000Y14037500D01*
G75*
G02*
X78037500Y14275000I237500J0D01*
G01*
X78537500Y14275000D01*
G75*
G02*
X78775000Y14037500I0J-237500D01*
G01*
X78775000Y13562500D01*
G75*
G02*
X78537500Y13325000I-237500J0D01*
G01*
X78037500Y13325000D01*
G75*
G02*
X77800000Y13562500I0J237500D01*
G01*
G37*
G36*
G01*
X70962500Y13462500D02*
X71437500Y13462500D01*
G75*
G02*
X71675000Y13225000I0J-237500D01*
G01*
X71675000Y12725000D01*
G75*
G02*
X71437500Y12487500I-237500J0D01*
G01*
X70962500Y12487500D01*
G75*
G02*
X70725000Y12725000I0J237500D01*
G01*
X70725000Y13225000D01*
G75*
G02*
X70962500Y13462500I237500J0D01*
G01*
G37*
G36*
G01*
X70962500Y15287500D02*
X71437500Y15287500D01*
G75*
G02*
X71675000Y15050000I0J-237500D01*
G01*
X71675000Y14550000D01*
G75*
G02*
X71437500Y14312500I-237500J0D01*
G01*
X70962500Y14312500D01*
G75*
G02*
X70725000Y14550000I0J237500D01*
G01*
X70725000Y15050000D01*
G75*
G02*
X70962500Y15287500I237500J0D01*
G01*
G37*
G36*
G01*
X61562500Y13575000D02*
X62037500Y13575000D01*
G75*
G02*
X62275000Y13337500I0J-237500D01*
G01*
X62275000Y12837500D01*
G75*
G02*
X62037500Y12600000I-237500J0D01*
G01*
X61562500Y12600000D01*
G75*
G02*
X61325000Y12837500I0J237500D01*
G01*
X61325000Y13337500D01*
G75*
G02*
X61562500Y13575000I237500J0D01*
G01*
G37*
G36*
G01*
X61562500Y15400000D02*
X62037500Y15400000D01*
G75*
G02*
X62275000Y15162500I0J-237500D01*
G01*
X62275000Y14662500D01*
G75*
G02*
X62037500Y14425000I-237500J0D01*
G01*
X61562500Y14425000D01*
G75*
G02*
X61325000Y14662500I0J237500D01*
G01*
X61325000Y15162500D01*
G75*
G02*
X61562500Y15400000I237500J0D01*
G01*
G37*
G36*
G01*
X52012500Y13575000D02*
X52487500Y13575000D01*
G75*
G02*
X52725000Y13337500I0J-237500D01*
G01*
X52725000Y12837500D01*
G75*
G02*
X52487500Y12600000I-237500J0D01*
G01*
X52012500Y12600000D01*
G75*
G02*
X51775000Y12837500I0J237500D01*
G01*
X51775000Y13337500D01*
G75*
G02*
X52012500Y13575000I237500J0D01*
G01*
G37*
G36*
G01*
X52012500Y15400000D02*
X52487500Y15400000D01*
G75*
G02*
X52725000Y15162500I0J-237500D01*
G01*
X52725000Y14662500D01*
G75*
G02*
X52487500Y14425000I-237500J0D01*
G01*
X52012500Y14425000D01*
G75*
G02*
X51775000Y14662500I0J237500D01*
G01*
X51775000Y15162500D01*
G75*
G02*
X52012500Y15400000I237500J0D01*
G01*
G37*
G36*
G01*
X42562500Y13775000D02*
X43037500Y13775000D01*
G75*
G02*
X43275000Y13537500I0J-237500D01*
G01*
X43275000Y13037500D01*
G75*
G02*
X43037500Y12800000I-237500J0D01*
G01*
X42562500Y12800000D01*
G75*
G02*
X42325000Y13037500I0J237500D01*
G01*
X42325000Y13537500D01*
G75*
G02*
X42562500Y13775000I237500J0D01*
G01*
G37*
G36*
G01*
X42562500Y15600000D02*
X43037500Y15600000D01*
G75*
G02*
X43275000Y15362500I0J-237500D01*
G01*
X43275000Y14862500D01*
G75*
G02*
X43037500Y14625000I-237500J0D01*
G01*
X42562500Y14625000D01*
G75*
G02*
X42325000Y14862500I0J237500D01*
G01*
X42325000Y15362500D01*
G75*
G02*
X42562500Y15600000I237500J0D01*
G01*
G37*
G36*
G01*
X32962500Y13575000D02*
X33437500Y13575000D01*
G75*
G02*
X33675000Y13337500I0J-237500D01*
G01*
X33675000Y12837500D01*
G75*
G02*
X33437500Y12600000I-237500J0D01*
G01*
X32962500Y12600000D01*
G75*
G02*
X32725000Y12837500I0J237500D01*
G01*
X32725000Y13337500D01*
G75*
G02*
X32962500Y13575000I237500J0D01*
G01*
G37*
G36*
G01*
X32962500Y15400000D02*
X33437500Y15400000D01*
G75*
G02*
X33675000Y15162500I0J-237500D01*
G01*
X33675000Y14662500D01*
G75*
G02*
X33437500Y14425000I-237500J0D01*
G01*
X32962500Y14425000D01*
G75*
G02*
X32725000Y14662500I0J237500D01*
G01*
X32725000Y15162500D01*
G75*
G02*
X32962500Y15400000I237500J0D01*
G01*
G37*
G36*
G01*
X74512500Y15325000D02*
X74987500Y15325000D01*
G75*
G02*
X75225000Y15087500I0J-237500D01*
G01*
X75225000Y14587500D01*
G75*
G02*
X74987500Y14350000I-237500J0D01*
G01*
X74512500Y14350000D01*
G75*
G02*
X74275000Y14587500I0J237500D01*
G01*
X74275000Y15087500D01*
G75*
G02*
X74512500Y15325000I237500J0D01*
G01*
G37*
G36*
G01*
X74512500Y17150000D02*
X74987500Y17150000D01*
G75*
G02*
X75225000Y16912500I0J-237500D01*
G01*
X75225000Y16412500D01*
G75*
G02*
X74987500Y16175000I-237500J0D01*
G01*
X74512500Y16175000D01*
G75*
G02*
X74275000Y16412500I0J237500D01*
G01*
X74275000Y16912500D01*
G75*
G02*
X74512500Y17150000I237500J0D01*
G01*
G37*
G36*
G01*
X68562500Y16375000D02*
X69037500Y16375000D01*
G75*
G02*
X69275000Y16137500I0J-237500D01*
G01*
X69275000Y15637500D01*
G75*
G02*
X69037500Y15400000I-237500J0D01*
G01*
X68562500Y15400000D01*
G75*
G02*
X68325000Y15637500I0J237500D01*
G01*
X68325000Y16137500D01*
G75*
G02*
X68562500Y16375000I237500J0D01*
G01*
G37*
G36*
G01*
X68562500Y18200000D02*
X69037500Y18200000D01*
G75*
G02*
X69275000Y17962500I0J-237500D01*
G01*
X69275000Y17462500D01*
G75*
G02*
X69037500Y17225000I-237500J0D01*
G01*
X68562500Y17225000D01*
G75*
G02*
X68325000Y17462500I0J237500D01*
G01*
X68325000Y17962500D01*
G75*
G02*
X68562500Y18200000I237500J0D01*
G01*
G37*
G36*
G01*
X59012500Y16375000D02*
X59487500Y16375000D01*
G75*
G02*
X59725000Y16137500I0J-237500D01*
G01*
X59725000Y15637500D01*
G75*
G02*
X59487500Y15400000I-237500J0D01*
G01*
X59012500Y15400000D01*
G75*
G02*
X58775000Y15637500I0J237500D01*
G01*
X58775000Y16137500D01*
G75*
G02*
X59012500Y16375000I237500J0D01*
G01*
G37*
G36*
G01*
X59012500Y18200000D02*
X59487500Y18200000D01*
G75*
G02*
X59725000Y17962500I0J-237500D01*
G01*
X59725000Y17462500D01*
G75*
G02*
X59487500Y17225000I-237500J0D01*
G01*
X59012500Y17225000D01*
G75*
G02*
X58775000Y17462500I0J237500D01*
G01*
X58775000Y17962500D01*
G75*
G02*
X59012500Y18200000I237500J0D01*
G01*
G37*
G36*
G01*
X49512500Y16325000D02*
X49987500Y16325000D01*
G75*
G02*
X50225000Y16087500I0J-237500D01*
G01*
X50225000Y15587500D01*
G75*
G02*
X49987500Y15350000I-237500J0D01*
G01*
X49512500Y15350000D01*
G75*
G02*
X49275000Y15587500I0J237500D01*
G01*
X49275000Y16087500D01*
G75*
G02*
X49512500Y16325000I237500J0D01*
G01*
G37*
G36*
G01*
X49512500Y18150000D02*
X49987500Y18150000D01*
G75*
G02*
X50225000Y17912500I0J-237500D01*
G01*
X50225000Y17412500D01*
G75*
G02*
X49987500Y17175000I-237500J0D01*
G01*
X49512500Y17175000D01*
G75*
G02*
X49275000Y17412500I0J237500D01*
G01*
X49275000Y17912500D01*
G75*
G02*
X49512500Y18150000I237500J0D01*
G01*
G37*
G36*
G01*
X40012500Y16325000D02*
X40487500Y16325000D01*
G75*
G02*
X40725000Y16087500I0J-237500D01*
G01*
X40725000Y15587500D01*
G75*
G02*
X40487500Y15350000I-237500J0D01*
G01*
X40012500Y15350000D01*
G75*
G02*
X39775000Y15587500I0J237500D01*
G01*
X39775000Y16087500D01*
G75*
G02*
X40012500Y16325000I237500J0D01*
G01*
G37*
G36*
G01*
X40012500Y18150000D02*
X40487500Y18150000D01*
G75*
G02*
X40725000Y17912500I0J-237500D01*
G01*
X40725000Y17412500D01*
G75*
G02*
X40487500Y17175000I-237500J0D01*
G01*
X40012500Y17175000D01*
G75*
G02*
X39775000Y17412500I0J237500D01*
G01*
X39775000Y17912500D01*
G75*
G02*
X40012500Y18150000I237500J0D01*
G01*
G37*
G36*
G01*
X30362500Y16375000D02*
X30837500Y16375000D01*
G75*
G02*
X31075000Y16137500I0J-237500D01*
G01*
X31075000Y15637500D01*
G75*
G02*
X30837500Y15400000I-237500J0D01*
G01*
X30362500Y15400000D01*
G75*
G02*
X30125000Y15637500I0J237500D01*
G01*
X30125000Y16137500D01*
G75*
G02*
X30362500Y16375000I237500J0D01*
G01*
G37*
G36*
G01*
X30362500Y18200000D02*
X30837500Y18200000D01*
G75*
G02*
X31075000Y17962500I0J-237500D01*
G01*
X31075000Y17462500D01*
G75*
G02*
X30837500Y17225000I-237500J0D01*
G01*
X30362500Y17225000D01*
G75*
G02*
X30125000Y17462500I0J237500D01*
G01*
X30125000Y17962500D01*
G75*
G02*
X30362500Y18200000I237500J0D01*
G01*
G37*
G36*
G01*
X11425000Y18012500D02*
X11425000Y18487500D01*
G75*
G02*
X11662500Y18725000I237500J0D01*
G01*
X12162500Y18725000D01*
G75*
G02*
X12400000Y18487500I0J-237500D01*
G01*
X12400000Y18012500D01*
G75*
G02*
X12162500Y17775000I-237500J0D01*
G01*
X11662500Y17775000D01*
G75*
G02*
X11425000Y18012500I0J237500D01*
G01*
G37*
G36*
G01*
X9600000Y18012500D02*
X9600000Y18487500D01*
G75*
G02*
X9837500Y18725000I237500J0D01*
G01*
X10337500Y18725000D01*
G75*
G02*
X10575000Y18487500I0J-237500D01*
G01*
X10575000Y18012500D01*
G75*
G02*
X10337500Y17775000I-237500J0D01*
G01*
X9837500Y17775000D01*
G75*
G02*
X9600000Y18012500I0J237500D01*
G01*
G37*
G36*
G01*
X17487500Y16925000D02*
X17012500Y16925000D01*
G75*
G02*
X16775000Y17162500I0J237500D01*
G01*
X16775000Y17662500D01*
G75*
G02*
X17012500Y17900000I237500J0D01*
G01*
X17487500Y17900000D01*
G75*
G02*
X17725000Y17662500I0J-237500D01*
G01*
X17725000Y17162500D01*
G75*
G02*
X17487500Y16925000I-237500J0D01*
G01*
G37*
G36*
G01*
X17487500Y15100000D02*
X17012500Y15100000D01*
G75*
G02*
X16775000Y15337500I0J237500D01*
G01*
X16775000Y15837500D01*
G75*
G02*
X17012500Y16075000I237500J0D01*
G01*
X17487500Y16075000D01*
G75*
G02*
X17725000Y15837500I0J-237500D01*
G01*
X17725000Y15337500D01*
G75*
G02*
X17487500Y15100000I-237500J0D01*
G01*
G37*
G36*
G01*
X14175000Y15512500D02*
X14175000Y15987500D01*
G75*
G02*
X14412500Y16225000I237500J0D01*
G01*
X14912500Y16225000D01*
G75*
G02*
X15150000Y15987500I0J-237500D01*
G01*
X15150000Y15512500D01*
G75*
G02*
X14912500Y15275000I-237500J0D01*
G01*
X14412500Y15275000D01*
G75*
G02*
X14175000Y15512500I0J237500D01*
G01*
G37*
G36*
G01*
X12350000Y15512500D02*
X12350000Y15987500D01*
G75*
G02*
X12587500Y16225000I237500J0D01*
G01*
X13087500Y16225000D01*
G75*
G02*
X13325000Y15987500I0J-237500D01*
G01*
X13325000Y15512500D01*
G75*
G02*
X13087500Y15275000I-237500J0D01*
G01*
X12587500Y15275000D01*
G75*
G02*
X12350000Y15512500I0J237500D01*
G01*
G37*
G36*
G01*
X21997500Y16925000D02*
X21522500Y16925000D01*
G75*
G02*
X21285000Y17162500I0J237500D01*
G01*
X21285000Y17662500D01*
G75*
G02*
X21522500Y17900000I237500J0D01*
G01*
X21997500Y17900000D01*
G75*
G02*
X22235000Y17662500I0J-237500D01*
G01*
X22235000Y17162500D01*
G75*
G02*
X21997500Y16925000I-237500J0D01*
G01*
G37*
G36*
G01*
X21997500Y15100000D02*
X21522500Y15100000D01*
G75*
G02*
X21285000Y15337500I0J237500D01*
G01*
X21285000Y15837500D01*
G75*
G02*
X21522500Y16075000I237500J0D01*
G01*
X21997500Y16075000D01*
G75*
G02*
X22235000Y15837500I0J-237500D01*
G01*
X22235000Y15337500D01*
G75*
G02*
X21997500Y15100000I-237500J0D01*
G01*
G37*
G36*
G01*
X10837500Y-16175000D02*
X10362500Y-16175000D01*
G75*
G02*
X10125000Y-15937500I0J237500D01*
G01*
X10125000Y-15437500D01*
G75*
G02*
X10362500Y-15200000I237500J0D01*
G01*
X10837500Y-15200000D01*
G75*
G02*
X11075000Y-15437500I0J-237500D01*
G01*
X11075000Y-15937500D01*
G75*
G02*
X10837500Y-16175000I-237500J0D01*
G01*
G37*
G36*
G01*
X10837500Y-18000000D02*
X10362500Y-18000000D01*
G75*
G02*
X10125000Y-17762500I0J237500D01*
G01*
X10125000Y-17262500D01*
G75*
G02*
X10362500Y-17025000I237500J0D01*
G01*
X10837500Y-17025000D01*
G75*
G02*
X11075000Y-17262500I0J-237500D01*
G01*
X11075000Y-17762500D01*
G75*
G02*
X10837500Y-18000000I-237500J0D01*
G01*
G37*
G36*
G01*
X15037500Y-16175000D02*
X14562500Y-16175000D01*
G75*
G02*
X14325000Y-15937500I0J237500D01*
G01*
X14325000Y-15437500D01*
G75*
G02*
X14562500Y-15200000I237500J0D01*
G01*
X15037500Y-15200000D01*
G75*
G02*
X15275000Y-15437500I0J-237500D01*
G01*
X15275000Y-15937500D01*
G75*
G02*
X15037500Y-16175000I-237500J0D01*
G01*
G37*
G36*
G01*
X15037500Y-18000000D02*
X14562500Y-18000000D01*
G75*
G02*
X14325000Y-17762500I0J237500D01*
G01*
X14325000Y-17262500D01*
G75*
G02*
X14562500Y-17025000I237500J0D01*
G01*
X15037500Y-17025000D01*
G75*
G02*
X15275000Y-17262500I0J-237500D01*
G01*
X15275000Y-17762500D01*
G75*
G02*
X15037500Y-18000000I-237500J0D01*
G01*
G37*
G36*
G01*
X19437500Y-16175000D02*
X18962500Y-16175000D01*
G75*
G02*
X18725000Y-15937500I0J237500D01*
G01*
X18725000Y-15437500D01*
G75*
G02*
X18962500Y-15200000I237500J0D01*
G01*
X19437500Y-15200000D01*
G75*
G02*
X19675000Y-15437500I0J-237500D01*
G01*
X19675000Y-15937500D01*
G75*
G02*
X19437500Y-16175000I-237500J0D01*
G01*
G37*
G36*
G01*
X19437500Y-18000000D02*
X18962500Y-18000000D01*
G75*
G02*
X18725000Y-17762500I0J237500D01*
G01*
X18725000Y-17262500D01*
G75*
G02*
X18962500Y-17025000I237500J0D01*
G01*
X19437500Y-17025000D01*
G75*
G02*
X19675000Y-17262500I0J-237500D01*
G01*
X19675000Y-17762500D01*
G75*
G02*
X19437500Y-18000000I-237500J0D01*
G01*
G37*
G36*
G01*
X7575000Y-18012500D02*
X7575000Y-18487500D01*
G75*
G02*
X7337500Y-18725000I-237500J0D01*
G01*
X6837500Y-18725000D01*
G75*
G02*
X6600000Y-18487500I0J237500D01*
G01*
X6600000Y-18012500D01*
G75*
G02*
X6837500Y-17775000I237500J0D01*
G01*
X7337500Y-17775000D01*
G75*
G02*
X7575000Y-18012500I0J-237500D01*
G01*
G37*
G36*
G01*
X9400000Y-18012500D02*
X9400000Y-18487500D01*
G75*
G02*
X9162500Y-18725000I-237500J0D01*
G01*
X8662500Y-18725000D01*
G75*
G02*
X8425000Y-18487500I0J237500D01*
G01*
X8425000Y-18012500D01*
G75*
G02*
X8662500Y-17775000I237500J0D01*
G01*
X9162500Y-17775000D01*
G75*
G02*
X9400000Y-18012500I0J-237500D01*
G01*
G37*
D16*
X80500000Y-20500000D03*
D17*
X28060000Y-22140000D03*
X28060000Y-17060000D03*
X33140000Y-17060000D03*
X33140000Y-22140000D03*
D18*
X30600000Y-19600000D03*
D19*
X78230000Y-4750000D03*
X80770000Y-4750000D03*
X80770000Y-11250000D03*
X78230000Y-11250000D03*
X80870000Y4750000D03*
X78330000Y4750000D03*
X78330000Y11250000D03*
X80870000Y11250000D03*
X73730000Y-4750000D03*
X76270000Y-4750000D03*
X76270000Y-11250000D03*
X73730000Y-11250000D03*
X76270000Y4750000D03*
X73730000Y4750000D03*
X73730000Y11250000D03*
X76270000Y11250000D03*
X68730000Y-4750000D03*
X71270000Y-4750000D03*
X71270000Y-11250000D03*
X68730000Y-11250000D03*
X71270000Y4750000D03*
X68730000Y4750000D03*
X68730000Y11250000D03*
X71270000Y11250000D03*
X64230000Y-4750000D03*
X66770000Y-4750000D03*
X66770000Y-11250000D03*
X64230000Y-11250000D03*
X66770000Y4750000D03*
X64230000Y4750000D03*
X64230000Y11250000D03*
X66770000Y11250000D03*
X59230000Y-4750000D03*
X61770000Y-4750000D03*
X61770000Y-11250000D03*
X59230000Y-11250000D03*
X61770000Y4750000D03*
X59230000Y4750000D03*
X59230000Y11250000D03*
X61770000Y11250000D03*
X54730000Y-4750000D03*
X57270000Y-4750000D03*
X57270000Y-11250000D03*
X54730000Y-11250000D03*
X57270000Y4750000D03*
X54730000Y4750000D03*
X54730000Y11250000D03*
X57270000Y11250000D03*
X49730000Y-4750000D03*
X52270000Y-4750000D03*
X52270000Y-11250000D03*
X49730000Y-11250000D03*
X45230000Y-4750000D03*
X47770000Y-4750000D03*
X47770000Y-11250000D03*
X45230000Y-11250000D03*
X40230000Y-4750000D03*
X42770000Y-4750000D03*
X42770000Y-11250000D03*
X40230000Y-11250000D03*
X35730000Y-4750000D03*
X38270000Y-4750000D03*
X38270000Y-11250000D03*
X35730000Y-11250000D03*
X30730000Y-4750000D03*
X33270000Y-4750000D03*
X33270000Y-11250000D03*
X30730000Y-11250000D03*
X26230000Y-4750000D03*
X28770000Y-4750000D03*
X28770000Y-11250000D03*
X26230000Y-11250000D03*
X52270000Y4750000D03*
X49730000Y4750000D03*
X49730000Y11250000D03*
X52270000Y11250000D03*
X47770000Y4750000D03*
X45230000Y4750000D03*
X45230000Y11250000D03*
X47770000Y11250000D03*
X42770000Y4750000D03*
X40230000Y4750000D03*
X40230000Y11250000D03*
X42770000Y11250000D03*
X38270000Y4750000D03*
X35730000Y4750000D03*
X35730000Y11250000D03*
X38270000Y11250000D03*
X33270000Y4750000D03*
X30730000Y4750000D03*
X30730000Y11250000D03*
X33270000Y11250000D03*
X28770000Y4750000D03*
X26230000Y4750000D03*
X26230000Y11250000D03*
X28770000Y11250000D03*
D20*
X87250000Y10908000D03*
X86750000Y10908000D03*
X86250000Y10908000D03*
X85750000Y10908000D03*
X85250000Y10908000D03*
X84750000Y10908000D03*
D21*
X84092000Y10250000D03*
X84092000Y9750000D03*
X84092000Y9250000D03*
X84092000Y8750000D03*
X84092000Y8250000D03*
X84092000Y7750000D03*
D20*
X84750000Y7092000D03*
X85250000Y7092000D03*
X85750000Y7092000D03*
X86250000Y7092000D03*
X86750000Y7092000D03*
X87250000Y7092000D03*
D21*
X87908000Y7750000D03*
X87908000Y8250000D03*
X87908000Y8750000D03*
X87908000Y9250000D03*
X87908000Y9750000D03*
X87908000Y10250000D03*
D22*
X86000000Y9000000D03*
D19*
X17270000Y7250000D03*
X14730000Y7250000D03*
X14730000Y13750000D03*
X17270000Y13750000D03*
X12770000Y7250000D03*
X10230000Y7250000D03*
X10230000Y13750000D03*
X12770000Y13750000D03*
X8270000Y7250000D03*
X5730000Y7250000D03*
X5730000Y13750000D03*
X8270000Y13750000D03*
X21770000Y7250000D03*
X19230000Y7250000D03*
X19230000Y13750000D03*
X21770000Y13750000D03*
X10230000Y-7250000D03*
X12770000Y-7250000D03*
X12770000Y-13750000D03*
X10230000Y-13750000D03*
X5730000Y-7250000D03*
X8270000Y-7250000D03*
X8270000Y-13750000D03*
X5730000Y-13750000D03*
X14730000Y-7250000D03*
X17270000Y-7250000D03*
X17270000Y-13750000D03*
X14730000Y-13750000D03*
X19230000Y-7250000D03*
X21770000Y-7250000D03*
X21770000Y-13750000D03*
X19230000Y-13750000D03*
D23*
X0Y-12500000D03*
D24*
X-1420000Y4140000D03*
X-1420000Y1380000D03*
X-1420000Y-1380000D03*
X-1420000Y-4140000D03*
X1420000Y5520000D03*
X1420000Y2760000D03*
X1420000Y-2760000D03*
D25*
X1420000Y-5520000D03*
D23*
X0Y12500000D03*
D24*
X1420000Y0D03*
D26*
X76497000Y15799000D03*
X76503000Y14201000D03*
X66997000Y15799000D03*
X67003000Y14201000D03*
X57497000Y15799000D03*
X57503000Y14201000D03*
X47997000Y15799000D03*
X48003000Y14201000D03*
X38497000Y15799000D03*
X38503000Y14201000D03*
X28997000Y15799000D03*
X29003000Y14201000D03*
X5503000Y-18299000D03*
X5497000Y-16701000D03*
X8497000Y18299000D03*
X8503000Y16701000D03*
G36*
G01*
X77100000Y-22650002D02*
X77100000Y-21749998D01*
G75*
G02*
X77349998Y-21500000I249998J0D01*
G01*
X77875002Y-21500000D01*
G75*
G02*
X78125000Y-21749998I0J-249998D01*
G01*
X78125000Y-22650002D01*
G75*
G02*
X77875002Y-22900000I-249998J0D01*
G01*
X77349998Y-22900000D01*
G75*
G02*
X77100000Y-22650002I0J249998D01*
G01*
G37*
G36*
G01*
X75275000Y-22650002D02*
X75275000Y-21749998D01*
G75*
G02*
X75524998Y-21500000I249998J0D01*
G01*
X76050002Y-21500000D01*
G75*
G02*
X76300000Y-21749998I0J-249998D01*
G01*
X76300000Y-22650002D01*
G75*
G02*
X76050002Y-22900000I-249998J0D01*
G01*
X75524998Y-22900000D01*
G75*
G02*
X75275000Y-22650002I0J249998D01*
G01*
G37*
G36*
G01*
X86000000Y4150002D02*
X86000000Y3249998D01*
G75*
G02*
X85750002Y3000000I-249998J0D01*
G01*
X85224998Y3000000D01*
G75*
G02*
X84975000Y3249998I0J249998D01*
G01*
X84975000Y4150002D01*
G75*
G02*
X85224998Y4400000I249998J0D01*
G01*
X85750002Y4400000D01*
G75*
G02*
X86000000Y4150002I0J-249998D01*
G01*
G37*
G36*
G01*
X87825000Y4150002D02*
X87825000Y3249998D01*
G75*
G02*
X87575002Y3000000I-249998J0D01*
G01*
X87049998Y3000000D01*
G75*
G02*
X86800000Y3249998I0J249998D01*
G01*
X86800000Y4150002D01*
G75*
G02*
X87049998Y4400000I249998J0D01*
G01*
X87575002Y4400000D01*
G75*
G02*
X87825000Y4150002I0J-249998D01*
G01*
G37*
G36*
G01*
X77262500Y-425000D02*
X77737500Y-425000D01*
G75*
G02*
X77975000Y-662500I0J-237500D01*
G01*
X77975000Y-1162500D01*
G75*
G02*
X77737500Y-1400000I-237500J0D01*
G01*
X77262500Y-1400000D01*
G75*
G02*
X77025000Y-1162500I0J237500D01*
G01*
X77025000Y-662500D01*
G75*
G02*
X77262500Y-425000I237500J0D01*
G01*
G37*
G36*
G01*
X77262500Y1400000D02*
X77737500Y1400000D01*
G75*
G02*
X77975000Y1162500I0J-237500D01*
G01*
X77975000Y662500D01*
G75*
G02*
X77737500Y425000I-237500J0D01*
G01*
X77262500Y425000D01*
G75*
G02*
X77025000Y662500I0J237500D01*
G01*
X77025000Y1162500D01*
G75*
G02*
X77262500Y1400000I237500J0D01*
G01*
G37*
G36*
G01*
X86000000Y2250002D02*
X86000000Y1349998D01*
G75*
G02*
X85750002Y1100000I-249998J0D01*
G01*
X85224998Y1100000D01*
G75*
G02*
X84975000Y1349998I0J249998D01*
G01*
X84975000Y2250002D01*
G75*
G02*
X85224998Y2500000I249998J0D01*
G01*
X85750002Y2500000D01*
G75*
G02*
X86000000Y2250002I0J-249998D01*
G01*
G37*
G36*
G01*
X87825000Y2250002D02*
X87825000Y1349998D01*
G75*
G02*
X87575002Y1100000I-249998J0D01*
G01*
X87049998Y1100000D01*
G75*
G02*
X86800000Y1349998I0J249998D01*
G01*
X86800000Y2250002D01*
G75*
G02*
X87049998Y2500000I249998J0D01*
G01*
X87575002Y2500000D01*
G75*
G02*
X87825000Y2250002I0J-249998D01*
G01*
G37*
G36*
G01*
X67549999Y-400000D02*
X68450001Y-400000D01*
G75*
G02*
X68700000Y-649999I0J-249999D01*
G01*
X68700000Y-1350001D01*
G75*
G02*
X68450001Y-1600000I-249999J0D01*
G01*
X67549999Y-1600000D01*
G75*
G02*
X67300000Y-1350001I0J249999D01*
G01*
X67300000Y-649999D01*
G75*
G02*
X67549999Y-400000I249999J0D01*
G01*
G37*
G36*
G01*
X67549999Y1600000D02*
X68450001Y1600000D01*
G75*
G02*
X68700000Y1350001I0J-249999D01*
G01*
X68700000Y649999D01*
G75*
G02*
X68450001Y400000I-249999J0D01*
G01*
X67549999Y400000D01*
G75*
G02*
X67300000Y649999I0J249999D01*
G01*
X67300000Y1350001D01*
G75*
G02*
X67549999Y1600000I249999J0D01*
G01*
G37*
G36*
G01*
X58049999Y-400000D02*
X58950001Y-400000D01*
G75*
G02*
X59200000Y-649999I0J-249999D01*
G01*
X59200000Y-1350001D01*
G75*
G02*
X58950001Y-1600000I-249999J0D01*
G01*
X58049999Y-1600000D01*
G75*
G02*
X57800000Y-1350001I0J249999D01*
G01*
X57800000Y-649999D01*
G75*
G02*
X58049999Y-400000I249999J0D01*
G01*
G37*
G36*
G01*
X58049999Y1600000D02*
X58950001Y1600000D01*
G75*
G02*
X59200000Y1350001I0J-249999D01*
G01*
X59200000Y649999D01*
G75*
G02*
X58950001Y400000I-249999J0D01*
G01*
X58049999Y400000D01*
G75*
G02*
X57800000Y649999I0J249999D01*
G01*
X57800000Y1350001D01*
G75*
G02*
X58049999Y1600000I249999J0D01*
G01*
G37*
G36*
G01*
X48762500Y-425000D02*
X49237500Y-425000D01*
G75*
G02*
X49475000Y-662500I0J-237500D01*
G01*
X49475000Y-1162500D01*
G75*
G02*
X49237500Y-1400000I-237500J0D01*
G01*
X48762500Y-1400000D01*
G75*
G02*
X48525000Y-1162500I0J237500D01*
G01*
X48525000Y-662500D01*
G75*
G02*
X48762500Y-425000I237500J0D01*
G01*
G37*
G36*
G01*
X48762500Y1400000D02*
X49237500Y1400000D01*
G75*
G02*
X49475000Y1162500I0J-237500D01*
G01*
X49475000Y662500D01*
G75*
G02*
X49237500Y425000I-237500J0D01*
G01*
X48762500Y425000D01*
G75*
G02*
X48525000Y662500I0J237500D01*
G01*
X48525000Y1162500D01*
G75*
G02*
X48762500Y1400000I237500J0D01*
G01*
G37*
G36*
G01*
X39262500Y-425000D02*
X39737500Y-425000D01*
G75*
G02*
X39975000Y-662500I0J-237500D01*
G01*
X39975000Y-1162500D01*
G75*
G02*
X39737500Y-1400000I-237500J0D01*
G01*
X39262500Y-1400000D01*
G75*
G02*
X39025000Y-1162500I0J237500D01*
G01*
X39025000Y-662500D01*
G75*
G02*
X39262500Y-425000I237500J0D01*
G01*
G37*
G36*
G01*
X39262500Y1400000D02*
X39737500Y1400000D01*
G75*
G02*
X39975000Y1162500I0J-237500D01*
G01*
X39975000Y662500D01*
G75*
G02*
X39737500Y425000I-237500J0D01*
G01*
X39262500Y425000D01*
G75*
G02*
X39025000Y662500I0J237500D01*
G01*
X39025000Y1162500D01*
G75*
G02*
X39262500Y1400000I237500J0D01*
G01*
G37*
G36*
G01*
X29762500Y-425000D02*
X30237500Y-425000D01*
G75*
G02*
X30475000Y-662500I0J-237500D01*
G01*
X30475000Y-1162500D01*
G75*
G02*
X30237500Y-1400000I-237500J0D01*
G01*
X29762500Y-1400000D01*
G75*
G02*
X29525000Y-1162500I0J237500D01*
G01*
X29525000Y-662500D01*
G75*
G02*
X29762500Y-425000I237500J0D01*
G01*
G37*
G36*
G01*
X29762500Y1400000D02*
X30237500Y1400000D01*
G75*
G02*
X30475000Y1162500I0J-237500D01*
G01*
X30475000Y662500D01*
G75*
G02*
X30237500Y425000I-237500J0D01*
G01*
X29762500Y425000D01*
G75*
G02*
X29525000Y662500I0J237500D01*
G01*
X29525000Y1162500D01*
G75*
G02*
X29762500Y1400000I237500J0D01*
G01*
G37*
G36*
G01*
X89825001Y-1600000D02*
X88524999Y-1600000D01*
G75*
G02*
X88275000Y-1350001I0J249999D01*
G01*
X88275000Y-649999D01*
G75*
G02*
X88524999Y-400000I249999J0D01*
G01*
X89825001Y-400000D01*
G75*
G02*
X90075000Y-649999I0J-249999D01*
G01*
X90075000Y-1350001D01*
G75*
G02*
X89825001Y-1600000I-249999J0D01*
G01*
G37*
G36*
G01*
X89825001Y-7200000D02*
X88524999Y-7200000D01*
G75*
G02*
X88275000Y-6950001I0J249999D01*
G01*
X88275000Y-6249999D01*
G75*
G02*
X88524999Y-6000000I249999J0D01*
G01*
X89825001Y-6000000D01*
G75*
G02*
X90075000Y-6249999I0J-249999D01*
G01*
X90075000Y-6950001D01*
G75*
G02*
X89825001Y-7200000I-249999J0D01*
G01*
G37*
G36*
G01*
X85925000Y-2600000D02*
X84675000Y-2600000D01*
G75*
G02*
X84525000Y-2450000I0J150000D01*
G01*
X84525000Y-2150000D01*
G75*
G02*
X84675000Y-2000000I150000J0D01*
G01*
X85925000Y-2000000D01*
G75*
G02*
X86075000Y-2150000I0J-150000D01*
G01*
X86075000Y-2450000D01*
G75*
G02*
X85925000Y-2600000I-150000J0D01*
G01*
G37*
G36*
G01*
X85925000Y-3600000D02*
X84675000Y-3600000D01*
G75*
G02*
X84525000Y-3450000I0J150000D01*
G01*
X84525000Y-3150000D01*
G75*
G02*
X84675000Y-3000000I150000J0D01*
G01*
X85925000Y-3000000D01*
G75*
G02*
X86075000Y-3150000I0J-150000D01*
G01*
X86075000Y-3450000D01*
G75*
G02*
X85925000Y-3600000I-150000J0D01*
G01*
G37*
G36*
G01*
X85925000Y-4600000D02*
X84675000Y-4600000D01*
G75*
G02*
X84525000Y-4450000I0J150000D01*
G01*
X84525000Y-4150000D01*
G75*
G02*
X84675000Y-4000000I150000J0D01*
G01*
X85925000Y-4000000D01*
G75*
G02*
X86075000Y-4150000I0J-150000D01*
G01*
X86075000Y-4450000D01*
G75*
G02*
X85925000Y-4600000I-150000J0D01*
G01*
G37*
G36*
G01*
X85925000Y-5600000D02*
X84675000Y-5600000D01*
G75*
G02*
X84525000Y-5450000I0J150000D01*
G01*
X84525000Y-5150000D01*
G75*
G02*
X84675000Y-5000000I150000J0D01*
G01*
X85925000Y-5000000D01*
G75*
G02*
X86075000Y-5150000I0J-150000D01*
G01*
X86075000Y-5450000D01*
G75*
G02*
X85925000Y-5600000I-150000J0D01*
G01*
G37*
G36*
G01*
X89835001Y-9900000D02*
X88534999Y-9900000D01*
G75*
G02*
X88285000Y-9650001I0J249999D01*
G01*
X88285000Y-8949999D01*
G75*
G02*
X88534999Y-8700000I249999J0D01*
G01*
X89835001Y-8700000D01*
G75*
G02*
X90085000Y-8949999I0J-249999D01*
G01*
X90085000Y-9650001D01*
G75*
G02*
X89835001Y-9900000I-249999J0D01*
G01*
G37*
G36*
G01*
X89835001Y-15500000D02*
X88534999Y-15500000D01*
G75*
G02*
X88285000Y-15250001I0J249999D01*
G01*
X88285000Y-14549999D01*
G75*
G02*
X88534999Y-14300000I249999J0D01*
G01*
X89835001Y-14300000D01*
G75*
G02*
X90085000Y-14549999I0J-249999D01*
G01*
X90085000Y-15250001D01*
G75*
G02*
X89835001Y-15500000I-249999J0D01*
G01*
G37*
G36*
G01*
X85935000Y-10900000D02*
X84685000Y-10900000D01*
G75*
G02*
X84535000Y-10750000I0J150000D01*
G01*
X84535000Y-10450000D01*
G75*
G02*
X84685000Y-10300000I150000J0D01*
G01*
X85935000Y-10300000D01*
G75*
G02*
X86085000Y-10450000I0J-150000D01*
G01*
X86085000Y-10750000D01*
G75*
G02*
X85935000Y-10900000I-150000J0D01*
G01*
G37*
G36*
G01*
X85935000Y-11900000D02*
X84685000Y-11900000D01*
G75*
G02*
X84535000Y-11750000I0J150000D01*
G01*
X84535000Y-11450000D01*
G75*
G02*
X84685000Y-11300000I150000J0D01*
G01*
X85935000Y-11300000D01*
G75*
G02*
X86085000Y-11450000I0J-150000D01*
G01*
X86085000Y-11750000D01*
G75*
G02*
X85935000Y-11900000I-150000J0D01*
G01*
G37*
G36*
G01*
X85935000Y-12900000D02*
X84685000Y-12900000D01*
G75*
G02*
X84535000Y-12750000I0J150000D01*
G01*
X84535000Y-12450000D01*
G75*
G02*
X84685000Y-12300000I150000J0D01*
G01*
X85935000Y-12300000D01*
G75*
G02*
X86085000Y-12450000I0J-150000D01*
G01*
X86085000Y-12750000D01*
G75*
G02*
X85935000Y-12900000I-150000J0D01*
G01*
G37*
G36*
G01*
X85935000Y-13900000D02*
X84685000Y-13900000D01*
G75*
G02*
X84535000Y-13750000I0J150000D01*
G01*
X84535000Y-13450000D01*
G75*
G02*
X84685000Y-13300000I150000J0D01*
G01*
X85935000Y-13300000D01*
G75*
G02*
X86085000Y-13450000I0J-150000D01*
G01*
X86085000Y-13750000D01*
G75*
G02*
X85935000Y-13900000I-150000J0D01*
G01*
G37*
G36*
G01*
X89470000Y7580000D02*
X89130000Y7580000D01*
G75*
G02*
X88990000Y7720000I0J140000D01*
G01*
X88990000Y8000000D01*
G75*
G02*
X89130000Y8140000I140000J0D01*
G01*
X89470000Y8140000D01*
G75*
G02*
X89610000Y8000000I0J-140000D01*
G01*
X89610000Y7720000D01*
G75*
G02*
X89470000Y7580000I-140000J0D01*
G01*
G37*
G36*
G01*
X89470000Y6620000D02*
X89130000Y6620000D01*
G75*
G02*
X88990000Y6760000I0J140000D01*
G01*
X88990000Y7040000D01*
G75*
G02*
X89130000Y7180000I140000J0D01*
G01*
X89470000Y7180000D01*
G75*
G02*
X89610000Y7040000I0J-140000D01*
G01*
X89610000Y6760000D01*
G75*
G02*
X89470000Y6620000I-140000J0D01*
G01*
G37*
M02*
