G04 #@! TF.GenerationSoftware,KiCad,Pcbnew,(5.1.10)-1*
G04 #@! TF.CreationDate,2022-05-16T11:57:18-06:00*
G04 #@! TF.ProjectId,Calibrator_02,43616c69-6272-4617-946f-725f30322e6b,rev?*
G04 #@! TF.SameCoordinates,Original*
G04 #@! TF.FileFunction,Soldermask,Top*
G04 #@! TF.FilePolarity,Negative*
%FSLAX46Y46*%
G04 Gerber Fmt 4.6, Leading zero omitted, Abs format (unit mm)*
G04 Created by KiCad (PCBNEW (5.1.10)-1) date 2022-05-16 11:57:18*
%MOMM*%
%LPD*%
G01*
G04 APERTURE LIST*
%ADD10R,1.700000X1.700000*%
%ADD11C,0.100000*%
%ADD12C,2.250000*%
%ADD13C,2.050000*%
%ADD14R,0.900000X1.199000*%
%ADD15R,0.280000X0.665000*%
%ADD16R,0.665000X0.280000*%
%ADD17R,2.650000X2.650000*%
%ADD18C,5.000000*%
%ADD19C,1.575000*%
%ADD20R,1.575000X1.575000*%
%ADD21R,0.800000X0.800000*%
G04 APERTURE END LIST*
D10*
X80400000Y-22100000D03*
D11*
G36*
X72550000Y-18450602D02*
G01*
X72574534Y-18450602D01*
X72623365Y-18455412D01*
X72671490Y-18464984D01*
X72718445Y-18479228D01*
X72763778Y-18498005D01*
X72807051Y-18521136D01*
X72847850Y-18548396D01*
X72885779Y-18579524D01*
X72920476Y-18614221D01*
X72951604Y-18652150D01*
X72978864Y-18692949D01*
X73001995Y-18736222D01*
X73020772Y-18781555D01*
X73035016Y-18828510D01*
X73044588Y-18876635D01*
X73049398Y-18925466D01*
X73049398Y-18950000D01*
X73050000Y-18950000D01*
X73050000Y-19450000D01*
X73049398Y-19450000D01*
X73049398Y-19474534D01*
X73044588Y-19523365D01*
X73035016Y-19571490D01*
X73020772Y-19618445D01*
X73001995Y-19663778D01*
X72978864Y-19707051D01*
X72951604Y-19747850D01*
X72920476Y-19785779D01*
X72885779Y-19820476D01*
X72847850Y-19851604D01*
X72807051Y-19878864D01*
X72763778Y-19901995D01*
X72718445Y-19920772D01*
X72671490Y-19935016D01*
X72623365Y-19944588D01*
X72574534Y-19949398D01*
X72550000Y-19949398D01*
X72550000Y-19950000D01*
X72050000Y-19950000D01*
X72050000Y-18450000D01*
X72550000Y-18450000D01*
X72550000Y-18450602D01*
G37*
G36*
X71750000Y-19950000D02*
G01*
X71250000Y-19950000D01*
X71250000Y-19949398D01*
X71225466Y-19949398D01*
X71176635Y-19944588D01*
X71128510Y-19935016D01*
X71081555Y-19920772D01*
X71036222Y-19901995D01*
X70992949Y-19878864D01*
X70952150Y-19851604D01*
X70914221Y-19820476D01*
X70879524Y-19785779D01*
X70848396Y-19747850D01*
X70821136Y-19707051D01*
X70798005Y-19663778D01*
X70779228Y-19618445D01*
X70764984Y-19571490D01*
X70755412Y-19523365D01*
X70750602Y-19474534D01*
X70750602Y-19450000D01*
X70750000Y-19450000D01*
X70750000Y-18950000D01*
X70750602Y-18950000D01*
X70750602Y-18925466D01*
X70755412Y-18876635D01*
X70764984Y-18828510D01*
X70779228Y-18781555D01*
X70798005Y-18736222D01*
X70821136Y-18692949D01*
X70848396Y-18652150D01*
X70879524Y-18614221D01*
X70914221Y-18579524D01*
X70952150Y-18548396D01*
X70992949Y-18521136D01*
X71036222Y-18498005D01*
X71081555Y-18479228D01*
X71128510Y-18464984D01*
X71176635Y-18455412D01*
X71225466Y-18450602D01*
X71250000Y-18450602D01*
X71250000Y-18450000D01*
X71750000Y-18450000D01*
X71750000Y-19950000D01*
G37*
D12*
X28060000Y-22140000D03*
X28060000Y-17060000D03*
X33140000Y-17060000D03*
X33140000Y-22140000D03*
D13*
X30600000Y-19600000D03*
D14*
X78230000Y-4750000D03*
X80770000Y-4750000D03*
X80770000Y-11250000D03*
X78230000Y-11250000D03*
X80870000Y4750000D03*
X78330000Y4750000D03*
X78330000Y11250000D03*
X80870000Y11250000D03*
X73730000Y-4750000D03*
X76270000Y-4750000D03*
X76270000Y-11250000D03*
X73730000Y-11250000D03*
X76270000Y4750000D03*
X73730000Y4750000D03*
X73730000Y11250000D03*
X76270000Y11250000D03*
X68730000Y-4750000D03*
X71270000Y-4750000D03*
X71270000Y-11250000D03*
X68730000Y-11250000D03*
X71270000Y4750000D03*
X68730000Y4750000D03*
X68730000Y11250000D03*
X71270000Y11250000D03*
X64230000Y-4750000D03*
X66770000Y-4750000D03*
X66770000Y-11250000D03*
X64230000Y-11250000D03*
X66770000Y4750000D03*
X64230000Y4750000D03*
X64230000Y11250000D03*
X66770000Y11250000D03*
X59230000Y-4750000D03*
X61770000Y-4750000D03*
X61770000Y-11250000D03*
X59230000Y-11250000D03*
X61770000Y4750000D03*
X59230000Y4750000D03*
X59230000Y11250000D03*
X61770000Y11250000D03*
X54730000Y-4750000D03*
X57270000Y-4750000D03*
X57270000Y-11250000D03*
X54730000Y-11250000D03*
X57270000Y4750000D03*
X54730000Y4750000D03*
X54730000Y11250000D03*
X57270000Y11250000D03*
X49730000Y-4750000D03*
X52270000Y-4750000D03*
X52270000Y-11250000D03*
X49730000Y-11250000D03*
X45230000Y-4750000D03*
X47770000Y-4750000D03*
X47770000Y-11250000D03*
X45230000Y-11250000D03*
X40230000Y-4750000D03*
X42770000Y-4750000D03*
X42770000Y-11250000D03*
X40230000Y-11250000D03*
X35730000Y-4750000D03*
X38270000Y-4750000D03*
X38270000Y-11250000D03*
X35730000Y-11250000D03*
X30730000Y-4750000D03*
X33270000Y-4750000D03*
X33270000Y-11250000D03*
X30730000Y-11250000D03*
X26230000Y-4750000D03*
X28770000Y-4750000D03*
X28770000Y-11250000D03*
X26230000Y-11250000D03*
X52270000Y4750000D03*
X49730000Y4750000D03*
X49730000Y11250000D03*
X52270000Y11250000D03*
X47770000Y4750000D03*
X45230000Y4750000D03*
X45230000Y11250000D03*
X47770000Y11250000D03*
X42770000Y4750000D03*
X40230000Y4750000D03*
X40230000Y11250000D03*
X42770000Y11250000D03*
X38270000Y4750000D03*
X35730000Y4750000D03*
X35730000Y11250000D03*
X38270000Y11250000D03*
X33270000Y4750000D03*
X30730000Y4750000D03*
X30730000Y11250000D03*
X33270000Y11250000D03*
X28770000Y4750000D03*
X26230000Y4750000D03*
X26230000Y11250000D03*
X28770000Y11250000D03*
D15*
X87250000Y10908000D03*
X86750000Y10908000D03*
X86250000Y10908000D03*
X85750000Y10908000D03*
X85250000Y10908000D03*
X84750000Y10908000D03*
D16*
X84092000Y10250000D03*
X84092000Y9750000D03*
X84092000Y9250000D03*
X84092000Y8750000D03*
X84092000Y8250000D03*
X84092000Y7750000D03*
D15*
X84750000Y7092000D03*
X85250000Y7092000D03*
X85750000Y7092000D03*
X86250000Y7092000D03*
X86750000Y7092000D03*
X87250000Y7092000D03*
D16*
X87908000Y7750000D03*
X87908000Y8250000D03*
X87908000Y8750000D03*
X87908000Y9250000D03*
X87908000Y9750000D03*
X87908000Y10250000D03*
D17*
X86000000Y9000000D03*
D14*
X17270000Y7250000D03*
X14730000Y7250000D03*
X14730000Y13750000D03*
X17270000Y13750000D03*
X12770000Y7250000D03*
X10230000Y7250000D03*
X10230000Y13750000D03*
X12770000Y13750000D03*
X8270000Y7250000D03*
X5730000Y7250000D03*
X5730000Y13750000D03*
X8270000Y13750000D03*
X21770000Y7250000D03*
X19230000Y7250000D03*
X19230000Y13750000D03*
X21770000Y13750000D03*
X10230000Y-7250000D03*
X12770000Y-7250000D03*
X12770000Y-13750000D03*
X10230000Y-13750000D03*
X5730000Y-7250000D03*
X8270000Y-7250000D03*
X8270000Y-13750000D03*
X5730000Y-13750000D03*
X14730000Y-7250000D03*
X17270000Y-7250000D03*
X17270000Y-13750000D03*
X14730000Y-13750000D03*
X19230000Y-7250000D03*
X21770000Y-7250000D03*
X21770000Y-13750000D03*
X19230000Y-13750000D03*
D18*
X0Y-12500000D03*
D19*
X-1420000Y4140000D03*
X-1420000Y1380000D03*
X-1420000Y-1380000D03*
X-1420000Y-4140000D03*
X1420000Y5520000D03*
X1420000Y2760000D03*
X1420000Y-2760000D03*
D20*
X1420000Y-5520000D03*
D18*
X0Y12500000D03*
D19*
X1420000Y0D03*
D21*
X76497000Y15799000D03*
X76503000Y14201000D03*
X66997000Y15799000D03*
X67003000Y14201000D03*
X57497000Y15799000D03*
X57503000Y14201000D03*
X47997000Y15799000D03*
X48003000Y14201000D03*
X38497000Y15799000D03*
X38503000Y14201000D03*
X28997000Y15799000D03*
X29003000Y14201000D03*
X5503000Y-18299000D03*
X5497000Y-16701000D03*
X8497000Y18299000D03*
X8503000Y16701000D03*
G36*
G01*
X77100000Y-22650001D02*
X77100000Y-21749999D01*
G75*
G02*
X77349999Y-21500000I249999J0D01*
G01*
X77875001Y-21500000D01*
G75*
G02*
X78125000Y-21749999I0J-249999D01*
G01*
X78125000Y-22650001D01*
G75*
G02*
X77875001Y-22900000I-249999J0D01*
G01*
X77349999Y-22900000D01*
G75*
G02*
X77100000Y-22650001I0J249999D01*
G01*
G37*
G36*
G01*
X75275000Y-22650001D02*
X75275000Y-21749999D01*
G75*
G02*
X75524999Y-21500000I249999J0D01*
G01*
X76050001Y-21500000D01*
G75*
G02*
X76300000Y-21749999I0J-249999D01*
G01*
X76300000Y-22650001D01*
G75*
G02*
X76050001Y-22900000I-249999J0D01*
G01*
X75524999Y-22900000D01*
G75*
G02*
X75275000Y-22650001I0J249999D01*
G01*
G37*
G36*
G01*
X86000000Y4150001D02*
X86000000Y3249999D01*
G75*
G02*
X85750001Y3000000I-249999J0D01*
G01*
X85224999Y3000000D01*
G75*
G02*
X84975000Y3249999I0J249999D01*
G01*
X84975000Y4150001D01*
G75*
G02*
X85224999Y4400000I249999J0D01*
G01*
X85750001Y4400000D01*
G75*
G02*
X86000000Y4150001I0J-249999D01*
G01*
G37*
G36*
G01*
X87825000Y4150001D02*
X87825000Y3249999D01*
G75*
G02*
X87575001Y3000000I-249999J0D01*
G01*
X87049999Y3000000D01*
G75*
G02*
X86800000Y3249999I0J249999D01*
G01*
X86800000Y4150001D01*
G75*
G02*
X87049999Y4400000I249999J0D01*
G01*
X87575001Y4400000D01*
G75*
G02*
X87825000Y4150001I0J-249999D01*
G01*
G37*
G36*
G01*
X77262500Y-425000D02*
X77737500Y-425000D01*
G75*
G02*
X77975000Y-662500I0J-237500D01*
G01*
X77975000Y-1162500D01*
G75*
G02*
X77737500Y-1400000I-237500J0D01*
G01*
X77262500Y-1400000D01*
G75*
G02*
X77025000Y-1162500I0J237500D01*
G01*
X77025000Y-662500D01*
G75*
G02*
X77262500Y-425000I237500J0D01*
G01*
G37*
G36*
G01*
X77262500Y1400000D02*
X77737500Y1400000D01*
G75*
G02*
X77975000Y1162500I0J-237500D01*
G01*
X77975000Y662500D01*
G75*
G02*
X77737500Y425000I-237500J0D01*
G01*
X77262500Y425000D01*
G75*
G02*
X77025000Y662500I0J237500D01*
G01*
X77025000Y1162500D01*
G75*
G02*
X77262500Y1400000I237500J0D01*
G01*
G37*
G36*
G01*
X86000000Y2250001D02*
X86000000Y1349999D01*
G75*
G02*
X85750001Y1100000I-249999J0D01*
G01*
X85224999Y1100000D01*
G75*
G02*
X84975000Y1349999I0J249999D01*
G01*
X84975000Y2250001D01*
G75*
G02*
X85224999Y2500000I249999J0D01*
G01*
X85750001Y2500000D01*
G75*
G02*
X86000000Y2250001I0J-249999D01*
G01*
G37*
G36*
G01*
X87825000Y2250001D02*
X87825000Y1349999D01*
G75*
G02*
X87575001Y1100000I-249999J0D01*
G01*
X87049999Y1100000D01*
G75*
G02*
X86800000Y1349999I0J249999D01*
G01*
X86800000Y2250001D01*
G75*
G02*
X87049999Y2500000I249999J0D01*
G01*
X87575001Y2500000D01*
G75*
G02*
X87825000Y2250001I0J-249999D01*
G01*
G37*
G36*
G01*
X67549999Y-400000D02*
X68450001Y-400000D01*
G75*
G02*
X68700000Y-649999I0J-249999D01*
G01*
X68700000Y-1350001D01*
G75*
G02*
X68450001Y-1600000I-249999J0D01*
G01*
X67549999Y-1600000D01*
G75*
G02*
X67300000Y-1350001I0J249999D01*
G01*
X67300000Y-649999D01*
G75*
G02*
X67549999Y-400000I249999J0D01*
G01*
G37*
G36*
G01*
X67549999Y1600000D02*
X68450001Y1600000D01*
G75*
G02*
X68700000Y1350001I0J-249999D01*
G01*
X68700000Y649999D01*
G75*
G02*
X68450001Y400000I-249999J0D01*
G01*
X67549999Y400000D01*
G75*
G02*
X67300000Y649999I0J249999D01*
G01*
X67300000Y1350001D01*
G75*
G02*
X67549999Y1600000I249999J0D01*
G01*
G37*
G36*
G01*
X58049999Y-400000D02*
X58950001Y-400000D01*
G75*
G02*
X59200000Y-649999I0J-249999D01*
G01*
X59200000Y-1350001D01*
G75*
G02*
X58950001Y-1600000I-249999J0D01*
G01*
X58049999Y-1600000D01*
G75*
G02*
X57800000Y-1350001I0J249999D01*
G01*
X57800000Y-649999D01*
G75*
G02*
X58049999Y-400000I249999J0D01*
G01*
G37*
G36*
G01*
X58049999Y1600000D02*
X58950001Y1600000D01*
G75*
G02*
X59200000Y1350001I0J-249999D01*
G01*
X59200000Y649999D01*
G75*
G02*
X58950001Y400000I-249999J0D01*
G01*
X58049999Y400000D01*
G75*
G02*
X57800000Y649999I0J249999D01*
G01*
X57800000Y1350001D01*
G75*
G02*
X58049999Y1600000I249999J0D01*
G01*
G37*
G36*
G01*
X48762500Y-425000D02*
X49237500Y-425000D01*
G75*
G02*
X49475000Y-662500I0J-237500D01*
G01*
X49475000Y-1162500D01*
G75*
G02*
X49237500Y-1400000I-237500J0D01*
G01*
X48762500Y-1400000D01*
G75*
G02*
X48525000Y-1162500I0J237500D01*
G01*
X48525000Y-662500D01*
G75*
G02*
X48762500Y-425000I237500J0D01*
G01*
G37*
G36*
G01*
X48762500Y1400000D02*
X49237500Y1400000D01*
G75*
G02*
X49475000Y1162500I0J-237500D01*
G01*
X49475000Y662500D01*
G75*
G02*
X49237500Y425000I-237500J0D01*
G01*
X48762500Y425000D01*
G75*
G02*
X48525000Y662500I0J237500D01*
G01*
X48525000Y1162500D01*
G75*
G02*
X48762500Y1400000I237500J0D01*
G01*
G37*
G36*
G01*
X39262500Y-425000D02*
X39737500Y-425000D01*
G75*
G02*
X39975000Y-662500I0J-237500D01*
G01*
X39975000Y-1162500D01*
G75*
G02*
X39737500Y-1400000I-237500J0D01*
G01*
X39262500Y-1400000D01*
G75*
G02*
X39025000Y-1162500I0J237500D01*
G01*
X39025000Y-662500D01*
G75*
G02*
X39262500Y-425000I237500J0D01*
G01*
G37*
G36*
G01*
X39262500Y1400000D02*
X39737500Y1400000D01*
G75*
G02*
X39975000Y1162500I0J-237500D01*
G01*
X39975000Y662500D01*
G75*
G02*
X39737500Y425000I-237500J0D01*
G01*
X39262500Y425000D01*
G75*
G02*
X39025000Y662500I0J237500D01*
G01*
X39025000Y1162500D01*
G75*
G02*
X39262500Y1400000I237500J0D01*
G01*
G37*
G36*
G01*
X29762500Y-425000D02*
X30237500Y-425000D01*
G75*
G02*
X30475000Y-662500I0J-237500D01*
G01*
X30475000Y-1162500D01*
G75*
G02*
X30237500Y-1400000I-237500J0D01*
G01*
X29762500Y-1400000D01*
G75*
G02*
X29525000Y-1162500I0J237500D01*
G01*
X29525000Y-662500D01*
G75*
G02*
X29762500Y-425000I237500J0D01*
G01*
G37*
G36*
G01*
X29762500Y1400000D02*
X30237500Y1400000D01*
G75*
G02*
X30475000Y1162500I0J-237500D01*
G01*
X30475000Y662500D01*
G75*
G02*
X30237500Y425000I-237500J0D01*
G01*
X29762500Y425000D01*
G75*
G02*
X29525000Y662500I0J237500D01*
G01*
X29525000Y1162500D01*
G75*
G02*
X29762500Y1400000I237500J0D01*
G01*
G37*
G36*
G01*
X89825001Y-1600000D02*
X88524999Y-1600000D01*
G75*
G02*
X88275000Y-1350001I0J249999D01*
G01*
X88275000Y-649999D01*
G75*
G02*
X88524999Y-400000I249999J0D01*
G01*
X89825001Y-400000D01*
G75*
G02*
X90075000Y-649999I0J-249999D01*
G01*
X90075000Y-1350001D01*
G75*
G02*
X89825001Y-1600000I-249999J0D01*
G01*
G37*
G36*
G01*
X89825001Y-7200000D02*
X88524999Y-7200000D01*
G75*
G02*
X88275000Y-6950001I0J249999D01*
G01*
X88275000Y-6249999D01*
G75*
G02*
X88524999Y-6000000I249999J0D01*
G01*
X89825001Y-6000000D01*
G75*
G02*
X90075000Y-6249999I0J-249999D01*
G01*
X90075000Y-6950001D01*
G75*
G02*
X89825001Y-7200000I-249999J0D01*
G01*
G37*
G36*
G01*
X85925000Y-2600000D02*
X84675000Y-2600000D01*
G75*
G02*
X84525000Y-2450000I0J150000D01*
G01*
X84525000Y-2150000D01*
G75*
G02*
X84675000Y-2000000I150000J0D01*
G01*
X85925000Y-2000000D01*
G75*
G02*
X86075000Y-2150000I0J-150000D01*
G01*
X86075000Y-2450000D01*
G75*
G02*
X85925000Y-2600000I-150000J0D01*
G01*
G37*
G36*
G01*
X85925000Y-3600000D02*
X84675000Y-3600000D01*
G75*
G02*
X84525000Y-3450000I0J150000D01*
G01*
X84525000Y-3150000D01*
G75*
G02*
X84675000Y-3000000I150000J0D01*
G01*
X85925000Y-3000000D01*
G75*
G02*
X86075000Y-3150000I0J-150000D01*
G01*
X86075000Y-3450000D01*
G75*
G02*
X85925000Y-3600000I-150000J0D01*
G01*
G37*
G36*
G01*
X85925000Y-4600000D02*
X84675000Y-4600000D01*
G75*
G02*
X84525000Y-4450000I0J150000D01*
G01*
X84525000Y-4150000D01*
G75*
G02*
X84675000Y-4000000I150000J0D01*
G01*
X85925000Y-4000000D01*
G75*
G02*
X86075000Y-4150000I0J-150000D01*
G01*
X86075000Y-4450000D01*
G75*
G02*
X85925000Y-4600000I-150000J0D01*
G01*
G37*
G36*
G01*
X85925000Y-5600000D02*
X84675000Y-5600000D01*
G75*
G02*
X84525000Y-5450000I0J150000D01*
G01*
X84525000Y-5150000D01*
G75*
G02*
X84675000Y-5000000I150000J0D01*
G01*
X85925000Y-5000000D01*
G75*
G02*
X86075000Y-5150000I0J-150000D01*
G01*
X86075000Y-5450000D01*
G75*
G02*
X85925000Y-5600000I-150000J0D01*
G01*
G37*
G36*
G01*
X89835001Y-9900000D02*
X88534999Y-9900000D01*
G75*
G02*
X88285000Y-9650001I0J249999D01*
G01*
X88285000Y-8949999D01*
G75*
G02*
X88534999Y-8700000I249999J0D01*
G01*
X89835001Y-8700000D01*
G75*
G02*
X90085000Y-8949999I0J-249999D01*
G01*
X90085000Y-9650001D01*
G75*
G02*
X89835001Y-9900000I-249999J0D01*
G01*
G37*
G36*
G01*
X89835001Y-15500000D02*
X88534999Y-15500000D01*
G75*
G02*
X88285000Y-15250001I0J249999D01*
G01*
X88285000Y-14549999D01*
G75*
G02*
X88534999Y-14300000I249999J0D01*
G01*
X89835001Y-14300000D01*
G75*
G02*
X90085000Y-14549999I0J-249999D01*
G01*
X90085000Y-15250001D01*
G75*
G02*
X89835001Y-15500000I-249999J0D01*
G01*
G37*
G36*
G01*
X85935000Y-10900000D02*
X84685000Y-10900000D01*
G75*
G02*
X84535000Y-10750000I0J150000D01*
G01*
X84535000Y-10450000D01*
G75*
G02*
X84685000Y-10300000I150000J0D01*
G01*
X85935000Y-10300000D01*
G75*
G02*
X86085000Y-10450000I0J-150000D01*
G01*
X86085000Y-10750000D01*
G75*
G02*
X85935000Y-10900000I-150000J0D01*
G01*
G37*
G36*
G01*
X85935000Y-11900000D02*
X84685000Y-11900000D01*
G75*
G02*
X84535000Y-11750000I0J150000D01*
G01*
X84535000Y-11450000D01*
G75*
G02*
X84685000Y-11300000I150000J0D01*
G01*
X85935000Y-11300000D01*
G75*
G02*
X86085000Y-11450000I0J-150000D01*
G01*
X86085000Y-11750000D01*
G75*
G02*
X85935000Y-11900000I-150000J0D01*
G01*
G37*
G36*
G01*
X85935000Y-12900000D02*
X84685000Y-12900000D01*
G75*
G02*
X84535000Y-12750000I0J150000D01*
G01*
X84535000Y-12450000D01*
G75*
G02*
X84685000Y-12300000I150000J0D01*
G01*
X85935000Y-12300000D01*
G75*
G02*
X86085000Y-12450000I0J-150000D01*
G01*
X86085000Y-12750000D01*
G75*
G02*
X85935000Y-12900000I-150000J0D01*
G01*
G37*
G36*
G01*
X85935000Y-13900000D02*
X84685000Y-13900000D01*
G75*
G02*
X84535000Y-13750000I0J150000D01*
G01*
X84535000Y-13450000D01*
G75*
G02*
X84685000Y-13300000I150000J0D01*
G01*
X85935000Y-13300000D01*
G75*
G02*
X86085000Y-13450000I0J-150000D01*
G01*
X86085000Y-13750000D01*
G75*
G02*
X85935000Y-13900000I-150000J0D01*
G01*
G37*
D10*
X80400000Y-18400000D03*
G36*
G01*
X82400000Y430000D02*
X82400000Y770000D01*
G75*
G02*
X82540000Y910000I140000J0D01*
G01*
X82820000Y910000D01*
G75*
G02*
X82960000Y770000I0J-140000D01*
G01*
X82960000Y430000D01*
G75*
G02*
X82820000Y290000I-140000J0D01*
G01*
X82540000Y290000D01*
G75*
G02*
X82400000Y430000I0J140000D01*
G01*
G37*
G36*
G01*
X81440000Y430000D02*
X81440000Y770000D01*
G75*
G02*
X81580000Y910000I140000J0D01*
G01*
X81860000Y910000D01*
G75*
G02*
X82000000Y770000I0J-140000D01*
G01*
X82000000Y430000D01*
G75*
G02*
X81860000Y290000I-140000J0D01*
G01*
X81580000Y290000D01*
G75*
G02*
X81440000Y430000I0J140000D01*
G01*
G37*
M02*
