G04 #@! TF.GenerationSoftware,KiCad,Pcbnew,(5.1.10)-1*
G04 #@! TF.CreationDate,2022-05-16T11:57:18-06:00*
G04 #@! TF.ProjectId,Calibrator_02,43616c69-6272-4617-946f-725f30322e6b,rev?*
G04 #@! TF.SameCoordinates,Original*
G04 #@! TF.FileFunction,Copper,L2,Bot*
G04 #@! TF.FilePolarity,Positive*
%FSLAX46Y46*%
G04 Gerber Fmt 4.6, Leading zero omitted, Abs format (unit mm)*
G04 Created by KiCad (PCBNEW (5.1.10)-1) date 2022-05-16 11:57:18*
%MOMM*%
%LPD*%
G01*
G04 APERTURE LIST*
G04 #@! TA.AperFunction,ComponentPad*
%ADD10R,1.700000X1.700000*%
G04 #@! TD*
G04 #@! TA.AperFunction,ComponentPad*
%ADD11C,2.250000*%
G04 #@! TD*
G04 #@! TA.AperFunction,ComponentPad*
%ADD12C,2.050000*%
G04 #@! TD*
G04 #@! TA.AperFunction,ComponentPad*
%ADD13C,5.000000*%
G04 #@! TD*
G04 #@! TA.AperFunction,ComponentPad*
%ADD14C,1.575000*%
G04 #@! TD*
G04 #@! TA.AperFunction,ComponentPad*
%ADD15R,1.575000X1.575000*%
G04 #@! TD*
G04 #@! TA.AperFunction,ViaPad*
%ADD16C,0.800000*%
G04 #@! TD*
G04 #@! TA.AperFunction,Conductor*
%ADD17C,0.200000*%
G04 #@! TD*
G04 #@! TA.AperFunction,Conductor*
%ADD18C,0.254000*%
G04 #@! TD*
G04 #@! TA.AperFunction,Conductor*
%ADD19C,0.100000*%
G04 #@! TD*
G04 APERTURE END LIST*
D10*
X80400000Y-22100000D03*
D11*
X28060000Y-22140000D03*
X28060000Y-17060000D03*
X33140000Y-17060000D03*
X33140000Y-22140000D03*
D12*
X30600000Y-19600000D03*
D13*
X0Y-12500000D03*
D14*
X-1420000Y4140000D03*
X-1420000Y1380000D03*
X-1420000Y-1380000D03*
X-1420000Y-4140000D03*
X1420000Y5520000D03*
X1420000Y2760000D03*
X1420000Y-2760000D03*
D15*
X1420000Y-5520000D03*
D13*
X0Y12500000D03*
D14*
X1420000Y0D03*
D10*
X80400000Y-18400000D03*
D16*
X82505331Y9505331D03*
X82430331Y1669669D03*
X81600000Y12650000D03*
X54900000Y20300000D03*
X82700000Y11700000D03*
X77630331Y19430331D03*
X76500000Y17800000D03*
X89153494Y8665521D03*
X87043750Y5256250D03*
X78230000Y-13770000D03*
X87908000Y14708000D03*
X8000000Y-5500000D03*
X16980000Y-2760000D03*
X8300000Y2770000D03*
X17220000Y5540000D03*
X12750000Y-4170000D03*
X21770000Y-1390000D03*
X12730000Y1400000D03*
X21810000Y4140000D03*
X30700000Y-3460000D03*
X19970000Y-3510000D03*
X40050000Y-3460000D03*
X49730000Y-3410000D03*
X59260000Y-3430000D03*
X68740000Y-3340000D03*
X78240000Y-3440000D03*
X18480000Y-2140000D03*
X26260000Y-2710000D03*
X35670000Y-2710000D03*
X45230000Y-2710000D03*
X54730000Y-2660000D03*
X64220000Y-2680000D03*
X73700000Y-2590000D03*
X77600000Y-6700000D03*
X73700000Y-6800000D03*
X11640000Y-100000D03*
X29720000Y3190000D03*
X40160000Y3200000D03*
X49730000Y3200000D03*
X59230000Y3160000D03*
X68740000Y3160000D03*
X78360000Y3140000D03*
X79748008Y1151992D03*
X23600000Y-13100000D03*
X7190000Y650000D03*
X24420000Y4530000D03*
X11300000Y-23500000D03*
X12700000Y-16000000D03*
X21800000Y-15400000D03*
X17200000Y-15400000D03*
X85000000Y12425098D03*
X8200000Y-15900000D03*
X18800000Y11000000D03*
X18800000Y9500000D03*
X78300000Y12650000D03*
X82850376Y4459489D03*
X77400000Y-8750000D03*
X73758008Y12641992D03*
X81970002Y5209489D03*
X68700000Y12600000D03*
X68700000Y6799940D03*
X70000000Y2200000D03*
X72400000Y-1840000D03*
X64208008Y12591992D03*
X64200000Y7249950D03*
X40200000Y12800000D03*
X40200000Y7699960D03*
X35808008Y12691992D03*
X35700000Y8149970D03*
X30700000Y12700000D03*
X30700000Y8599980D03*
X24100000Y11000000D03*
X24100000Y9049990D03*
X59400000Y12500000D03*
X85600000Y13400000D03*
X60400000Y6400000D03*
X60200000Y2400000D03*
X63100000Y-1910000D03*
X55558008Y13441992D03*
X84709600Y14150000D03*
X49749992Y12949992D03*
X83767915Y14900000D03*
X41321111Y7249950D03*
X45958008Y13341992D03*
X82700000Y15650000D03*
X89300000Y12500000D03*
D17*
X83600377Y2839715D02*
X82430331Y1669669D01*
X83600377Y8410285D02*
X83600377Y2839715D01*
X82505331Y9505331D02*
X83600377Y8410285D01*
X81600000Y10410662D02*
X81600000Y12650000D01*
X82505331Y9505331D02*
X81600000Y10410662D01*
X82700000Y11700000D02*
X82724903Y11675097D01*
X76500000Y18300000D02*
X76500000Y17800000D01*
X77630331Y19430331D02*
X76500000Y18300000D01*
X89153494Y7365994D02*
X87043750Y5256250D01*
X89153494Y8665521D02*
X89153494Y7365994D01*
X86349990Y-5650010D02*
X78230000Y-13770000D01*
X86349990Y4562490D02*
X86349990Y-5650010D01*
X87043750Y5256250D02*
X86349990Y4562490D01*
X89153494Y10146506D02*
X89153494Y8665521D01*
X87908000Y11392000D02*
X89153494Y10146506D01*
X87908000Y14708000D02*
X87908000Y11392000D01*
X1440000Y-5500000D02*
X1420000Y-5520000D01*
X8000000Y-5500000D02*
X1440000Y-5500000D01*
X16980000Y-2760000D02*
X1420000Y-2760000D01*
X1430000Y2770000D02*
X1420000Y2760000D01*
X8300000Y2770000D02*
X1430000Y2770000D01*
X1440000Y5540000D02*
X1420000Y5520000D01*
X17220000Y5540000D02*
X1440000Y5540000D01*
X-1390000Y-4170000D02*
X-1420000Y-4140000D01*
X12750000Y-4170000D02*
X-1390000Y-4170000D01*
X-1410000Y-1390000D02*
X-1420000Y-1380000D01*
X21770000Y-1390000D02*
X-1410000Y-1390000D01*
X-1400000Y1400000D02*
X-1420000Y1380000D01*
X12730000Y1400000D02*
X-1400000Y1400000D01*
X21810000Y4140000D02*
X-1420000Y4140000D01*
X20020000Y-3460000D02*
X19970000Y-3510000D01*
X30700000Y-3460000D02*
X20020000Y-3460000D01*
X30700000Y-3460000D02*
X40050000Y-3460000D01*
X49680000Y-3460000D02*
X49730000Y-3410000D01*
X40050000Y-3460000D02*
X49680000Y-3460000D01*
X59240000Y-3410000D02*
X59260000Y-3430000D01*
X49730000Y-3410000D02*
X59240000Y-3410000D01*
X68650000Y-3430000D02*
X68740000Y-3340000D01*
X59260000Y-3430000D02*
X68650000Y-3430000D01*
X78140000Y-3340000D02*
X78240000Y-3440000D01*
X68740000Y-3340000D02*
X78140000Y-3340000D01*
X19970000Y-7379010D02*
X19970000Y-3510000D01*
X28060000Y-15469010D02*
X19970000Y-7379010D01*
X28060000Y-17060000D02*
X28060000Y-15469010D01*
X28060000Y-17060000D02*
X33140000Y-17060000D01*
X33140000Y-17060000D02*
X33140000Y-22140000D01*
X33140000Y-22140000D02*
X28060000Y-22140000D01*
X19050000Y-2710000D02*
X26260000Y-2710000D01*
X18480000Y-2140000D02*
X19050000Y-2710000D01*
X26260000Y-2710000D02*
X35670000Y-2710000D01*
X35670000Y-2710000D02*
X45230000Y-2710000D01*
X45280000Y-2660000D02*
X54730000Y-2660000D01*
X45230000Y-2710000D02*
X45280000Y-2660000D01*
X54730000Y-2660000D02*
X64140000Y-2660000D01*
X64160000Y-2680000D02*
X64220000Y-2680000D01*
X64140000Y-2660000D02*
X64160000Y-2680000D01*
X64310000Y-2590000D02*
X73700000Y-2590000D01*
X64220000Y-2680000D02*
X64310000Y-2590000D01*
X73800000Y-6700000D02*
X73700000Y-6800000D01*
X77600000Y-6700000D02*
X73800000Y-6700000D01*
X11640000Y-100000D02*
X20426410Y-100000D01*
X23716410Y3190000D02*
X29720000Y3190000D01*
X20426410Y-100000D02*
X23716410Y3190000D01*
X40150000Y3190000D02*
X40160000Y3200000D01*
X29720000Y3190000D02*
X40150000Y3190000D01*
X40160000Y3200000D02*
X49730000Y3200000D01*
X59190000Y3200000D02*
X59230000Y3160000D01*
X49730000Y3200000D02*
X59190000Y3200000D01*
X59230000Y3160000D02*
X68740000Y3160000D01*
X78340000Y3160000D02*
X78360000Y3140000D01*
X68740000Y3160000D02*
X78340000Y3160000D01*
X78360000Y2540000D02*
X78360000Y3140000D01*
X79748008Y1151992D02*
X78360000Y2540000D01*
X23600000Y-13100000D02*
X25100000Y-14600000D01*
X28416998Y-19600000D02*
X30600000Y-19600000D01*
X25100000Y-16283002D02*
X28416998Y-19600000D01*
X25100000Y-14600000D02*
X25100000Y-16283002D01*
X20540000Y650000D02*
X24420000Y4530000D01*
X7190000Y650000D02*
X20540000Y650000D01*
X11300000Y-23500000D02*
X12400000Y-23500000D01*
X12700000Y-23200000D02*
X12700000Y-16000000D01*
X12400000Y-23500000D02*
X12700000Y-23200000D01*
X21800000Y-15400000D02*
X17200000Y-15400000D01*
X13300000Y-15400000D02*
X12700000Y-16000000D01*
X17200000Y-15400000D02*
X13300000Y-15400000D01*
X83625003Y16484999D02*
X28815001Y16484999D01*
X86350001Y13039999D02*
X86350001Y13760001D01*
X86350001Y13760001D02*
X83625003Y16484999D01*
X85735100Y12425098D02*
X86350001Y13039999D01*
X85000000Y12425098D02*
X85735100Y12425098D01*
X28815001Y16484999D02*
X22800000Y22500000D01*
X22800000Y22500000D02*
X1000000Y22500000D01*
X1000000Y22500000D02*
X-6200000Y15300000D01*
X-6200000Y15300000D02*
X-6200000Y-17500000D01*
X-6200000Y-17500000D02*
X-2400000Y-21300000D01*
X-2400000Y-21300000D02*
X6800000Y-21300000D01*
X8200000Y-19900000D02*
X8200000Y-15900000D01*
X6800000Y-21300000D02*
X8200000Y-19900000D01*
X18800000Y11000000D02*
X18800000Y9500000D01*
X78300000Y12650000D02*
X82850376Y8099624D01*
X82850376Y8099624D02*
X82850376Y4459489D01*
X77400000Y-8750000D02*
X79600000Y-6550000D01*
X82850376Y3144358D02*
X82850376Y4459489D01*
X82850376Y3144358D02*
X82844358Y3144358D01*
X79600000Y-100000D02*
X79600000Y-6550000D01*
X82844358Y3144358D02*
X79600000Y-100000D01*
X74537499Y12641992D02*
X81970002Y5209489D01*
X73758008Y12641992D02*
X74537499Y12641992D01*
X68700000Y12600000D02*
X68700000Y6799940D01*
X70000000Y560000D02*
X72400000Y-1840000D01*
X70000000Y2200000D02*
X70000000Y560000D01*
X64208008Y7257958D02*
X64200000Y7249950D01*
X64208008Y12591992D02*
X64208008Y7257958D01*
X40200000Y12800000D02*
X40200000Y7699960D01*
X35808008Y8257978D02*
X35700000Y8149970D01*
X35808008Y12691992D02*
X35808008Y8257978D01*
X30700000Y12700000D02*
X30700000Y8599980D01*
X24100000Y11000000D02*
X24100000Y9049990D01*
X59400000Y12500000D02*
X60300000Y13400000D01*
X60300000Y13400000D02*
X85600000Y13400000D01*
X59000001Y7799999D02*
X60400000Y6400000D01*
X59000001Y12100001D02*
X59000001Y7799999D01*
X59400000Y12500000D02*
X59000001Y12100001D01*
X63100000Y-500000D02*
X63100000Y-1910000D01*
X60200000Y2400000D02*
X63100000Y-500000D01*
X56266016Y14150000D02*
X84709600Y14150000D01*
X55558008Y13441992D02*
X56266016Y14150000D01*
X51700000Y14900000D02*
X83767915Y14900000D01*
X49749992Y12949992D02*
X51700000Y14900000D01*
X47021153Y12949992D02*
X41321111Y7249950D01*
X49749992Y12949992D02*
X47021153Y12949992D01*
X48266016Y15650000D02*
X82700000Y15650000D01*
X45958008Y13341992D02*
X48266016Y15650000D01*
X89300000Y12500000D02*
X89903495Y11896505D01*
X89903495Y11896505D02*
X89903495Y2003495D01*
X89903495Y2003495D02*
X86800000Y-1100000D01*
X86800000Y-1100000D02*
X86800000Y-17000000D01*
X85500000Y-17000000D02*
X80400000Y-22100000D01*
X86800000Y-17000000D02*
X85500000Y-17000000D01*
D18*
X89815001Y13400671D02*
X89790256Y13417205D01*
X89601898Y13495226D01*
X89401939Y13535000D01*
X89198061Y13535000D01*
X88998102Y13495226D01*
X88809744Y13417205D01*
X88643000Y13305791D01*
X88643000Y13979289D01*
X88711937Y14048226D01*
X88825205Y14217744D01*
X88903226Y14406102D01*
X88943000Y14606061D01*
X88943000Y14809939D01*
X88903226Y15009898D01*
X88825205Y15198256D01*
X88711937Y15367774D01*
X88567774Y15511937D01*
X88398256Y15625205D01*
X88209898Y15703226D01*
X88009939Y15743000D01*
X87806061Y15743000D01*
X87606102Y15703226D01*
X87417744Y15625205D01*
X87248226Y15511937D01*
X87104063Y15367774D01*
X86990795Y15198256D01*
X86912774Y15009898D01*
X86873000Y14809939D01*
X86873000Y14606061D01*
X86912774Y14406102D01*
X86990795Y14217744D01*
X87104063Y14048226D01*
X87173000Y13979289D01*
X87173001Y11428115D01*
X87169444Y11392000D01*
X87183635Y11247915D01*
X87219452Y11129844D01*
X87225664Y11109367D01*
X87293914Y10981680D01*
X87385763Y10869762D01*
X87413808Y10846746D01*
X88418494Y9842059D01*
X88418495Y9394233D01*
X88349557Y9325295D01*
X88236289Y9155777D01*
X88158268Y8967419D01*
X88118494Y8767460D01*
X88118494Y8563582D01*
X88158268Y8363623D01*
X88236289Y8175265D01*
X88349557Y8005747D01*
X88418495Y7936809D01*
X88418495Y7670442D01*
X87039304Y6291250D01*
X86941811Y6291250D01*
X86741852Y6251476D01*
X86553494Y6173455D01*
X86383976Y6060187D01*
X86239813Y5916024D01*
X86126545Y5746506D01*
X86048524Y5558148D01*
X86008750Y5358189D01*
X86008750Y5260696D01*
X85855798Y5107744D01*
X85827752Y5084727D01*
X85735903Y4972809D01*
X85667653Y4845122D01*
X85648337Y4781444D01*
X85625625Y4706575D01*
X85611434Y4562490D01*
X85614990Y4526385D01*
X85614991Y-5345562D01*
X78225554Y-12735000D01*
X78128061Y-12735000D01*
X77928102Y-12774774D01*
X77739744Y-12852795D01*
X77570226Y-12966063D01*
X77426063Y-13110226D01*
X77312795Y-13279744D01*
X77234774Y-13468102D01*
X77195000Y-13668061D01*
X77195000Y-13871939D01*
X77234774Y-14071898D01*
X77312795Y-14260256D01*
X77426063Y-14429774D01*
X77570226Y-14573937D01*
X77739744Y-14687205D01*
X77928102Y-14765226D01*
X78128061Y-14805000D01*
X78331939Y-14805000D01*
X78531898Y-14765226D01*
X78720256Y-14687205D01*
X78889774Y-14573937D01*
X79033937Y-14429774D01*
X79147205Y-14260256D01*
X79225226Y-14071898D01*
X79265000Y-13871939D01*
X79265000Y-13774446D01*
X86065000Y-6974447D01*
X86065001Y-16265000D01*
X85536096Y-16265000D01*
X85499999Y-16261445D01*
X85463902Y-16265000D01*
X85463895Y-16265000D01*
X85370132Y-16274235D01*
X85355914Y-16275635D01*
X85331629Y-16283002D01*
X85217367Y-16317663D01*
X85089680Y-16385913D01*
X84977762Y-16477762D01*
X84954746Y-16505807D01*
X80848626Y-20611928D01*
X79550000Y-20611928D01*
X79425518Y-20624188D01*
X79305820Y-20660498D01*
X79195506Y-20719463D01*
X79098815Y-20798815D01*
X79019463Y-20895506D01*
X78960498Y-21005820D01*
X78924188Y-21125518D01*
X78911928Y-21250000D01*
X78911928Y-22950000D01*
X78924188Y-23074482D01*
X78960498Y-23194180D01*
X79019463Y-23304494D01*
X79098815Y-23401185D01*
X79195506Y-23480537D01*
X79305820Y-23539502D01*
X79425518Y-23575812D01*
X79550000Y-23588072D01*
X81250000Y-23588072D01*
X81374482Y-23575812D01*
X81494180Y-23539502D01*
X81604494Y-23480537D01*
X81701185Y-23401185D01*
X81780537Y-23304494D01*
X81839502Y-23194180D01*
X81875812Y-23074482D01*
X81888072Y-22950000D01*
X81888072Y-21651374D01*
X85804447Y-17735000D01*
X86763895Y-17735000D01*
X86800000Y-17738556D01*
X86836105Y-17735000D01*
X86944085Y-17724365D01*
X87082633Y-17682337D01*
X87210320Y-17614087D01*
X87322238Y-17522238D01*
X87414087Y-17410320D01*
X87482337Y-17282633D01*
X87524365Y-17144085D01*
X87538556Y-17000000D01*
X87535000Y-16963895D01*
X87535000Y-1404446D01*
X89815001Y875554D01*
X89815000Y-24340000D01*
X11905802Y-24340000D01*
X11959774Y-24303937D01*
X12028711Y-24235000D01*
X12363895Y-24235000D01*
X12400000Y-24238556D01*
X12436105Y-24235000D01*
X12544085Y-24224365D01*
X12682633Y-24182337D01*
X12810320Y-24114087D01*
X12922238Y-24022238D01*
X12945259Y-23994187D01*
X13194192Y-23745254D01*
X13222237Y-23722238D01*
X13314087Y-23610320D01*
X13382337Y-23482633D01*
X13411616Y-23386114D01*
X13424365Y-23344086D01*
X13438556Y-23200001D01*
X13435000Y-23163896D01*
X13435000Y-16728711D01*
X13503937Y-16659774D01*
X13617205Y-16490256D01*
X13695226Y-16301898D01*
X13728424Y-16135000D01*
X16471289Y-16135000D01*
X16540226Y-16203937D01*
X16709744Y-16317205D01*
X16898102Y-16395226D01*
X17098061Y-16435000D01*
X17301939Y-16435000D01*
X17501898Y-16395226D01*
X17690256Y-16317205D01*
X17859774Y-16203937D01*
X17928711Y-16135000D01*
X21071289Y-16135000D01*
X21140226Y-16203937D01*
X21309744Y-16317205D01*
X21498102Y-16395226D01*
X21698061Y-16435000D01*
X21901939Y-16435000D01*
X22101898Y-16395226D01*
X22290256Y-16317205D01*
X22459774Y-16203937D01*
X22603937Y-16059774D01*
X22717205Y-15890256D01*
X22795226Y-15701898D01*
X22835000Y-15501939D01*
X22835000Y-15298061D01*
X22795226Y-15098102D01*
X22717205Y-14909744D01*
X22603937Y-14740226D01*
X22459774Y-14596063D01*
X22290256Y-14482795D01*
X22101898Y-14404774D01*
X21901939Y-14365000D01*
X21698061Y-14365000D01*
X21498102Y-14404774D01*
X21309744Y-14482795D01*
X21140226Y-14596063D01*
X21071289Y-14665000D01*
X17928711Y-14665000D01*
X17859774Y-14596063D01*
X17690256Y-14482795D01*
X17501898Y-14404774D01*
X17301939Y-14365000D01*
X17098061Y-14365000D01*
X16898102Y-14404774D01*
X16709744Y-14482795D01*
X16540226Y-14596063D01*
X16471289Y-14665000D01*
X13336096Y-14665000D01*
X13299999Y-14661445D01*
X13263902Y-14665000D01*
X13263895Y-14665000D01*
X13170132Y-14674235D01*
X13155914Y-14675635D01*
X13117774Y-14687205D01*
X13017367Y-14717663D01*
X12889680Y-14785913D01*
X12777762Y-14877762D01*
X12754746Y-14905807D01*
X12695553Y-14965000D01*
X12598061Y-14965000D01*
X12398102Y-15004774D01*
X12209744Y-15082795D01*
X12040226Y-15196063D01*
X11896063Y-15340226D01*
X11782795Y-15509744D01*
X11704774Y-15698102D01*
X11665000Y-15898061D01*
X11665000Y-16101939D01*
X11704774Y-16301898D01*
X11782795Y-16490256D01*
X11896063Y-16659774D01*
X11965001Y-16728712D01*
X11965000Y-22701289D01*
X11959774Y-22696063D01*
X11790256Y-22582795D01*
X11601898Y-22504774D01*
X11401939Y-22465000D01*
X11198061Y-22465000D01*
X10998102Y-22504774D01*
X10809744Y-22582795D01*
X10640226Y-22696063D01*
X10496063Y-22840226D01*
X10382795Y-23009744D01*
X10304774Y-23198102D01*
X10265000Y-23398061D01*
X10265000Y-23601939D01*
X10304774Y-23801898D01*
X10382795Y-23990256D01*
X10496063Y-24159774D01*
X10640226Y-24303937D01*
X10694198Y-24340000D01*
X-8865000Y-24340000D01*
X-8865000Y15300000D01*
X-6938556Y15300000D01*
X-6935000Y15263895D01*
X-6934999Y-17463885D01*
X-6938556Y-17500000D01*
X-6924365Y-17644085D01*
X-6895707Y-17738556D01*
X-6882336Y-17782633D01*
X-6814086Y-17910320D01*
X-6722237Y-18022238D01*
X-6694192Y-18045254D01*
X-2945254Y-21794193D01*
X-2922238Y-21822238D01*
X-2894194Y-21845253D01*
X-2810320Y-21914087D01*
X-2682634Y-21982337D01*
X-2544085Y-22024365D01*
X-2400000Y-22038556D01*
X-2363895Y-22035000D01*
X6763895Y-22035000D01*
X6800000Y-22038556D01*
X6836105Y-22035000D01*
X6944085Y-22024365D01*
X7082633Y-21982337D01*
X7210320Y-21914087D01*
X7322238Y-21822238D01*
X7345258Y-21794188D01*
X8694197Y-20445250D01*
X8722237Y-20422238D01*
X8745250Y-20394197D01*
X8745253Y-20394194D01*
X8802560Y-20324365D01*
X8814087Y-20310320D01*
X8882337Y-20182633D01*
X8924365Y-20044085D01*
X8935000Y-19936105D01*
X8935000Y-19936104D01*
X8938556Y-19900000D01*
X8935000Y-19863895D01*
X8935000Y-16628711D01*
X9003937Y-16559774D01*
X9117205Y-16390256D01*
X9195226Y-16201898D01*
X9235000Y-16001939D01*
X9235000Y-15798061D01*
X9195226Y-15598102D01*
X9117205Y-15409744D01*
X9003937Y-15240226D01*
X8859774Y-15096063D01*
X8690256Y-14982795D01*
X8501898Y-14904774D01*
X8301939Y-14865000D01*
X8098061Y-14865000D01*
X7898102Y-14904774D01*
X7709744Y-14982795D01*
X7540226Y-15096063D01*
X7396063Y-15240226D01*
X7282795Y-15409744D01*
X7204774Y-15598102D01*
X7165000Y-15798061D01*
X7165000Y-16001939D01*
X7204774Y-16201898D01*
X7282795Y-16390256D01*
X7396063Y-16559774D01*
X7465001Y-16628712D01*
X7465000Y-19595553D01*
X6495554Y-20565000D01*
X-2095553Y-20565000D01*
X-5465000Y-17195554D01*
X-5465000Y-12191229D01*
X-3135000Y-12191229D01*
X-3135000Y-12808771D01*
X-3014524Y-13414446D01*
X-2778201Y-13984979D01*
X-2435114Y-14498446D01*
X-1998446Y-14935114D01*
X-1484979Y-15278201D01*
X-914446Y-15514524D01*
X-308771Y-15635000D01*
X308771Y-15635000D01*
X914446Y-15514524D01*
X1484979Y-15278201D01*
X1998446Y-14935114D01*
X2435114Y-14498446D01*
X2778201Y-13984979D01*
X3014524Y-13414446D01*
X3135000Y-12808771D01*
X3135000Y-12191229D01*
X3014524Y-11585554D01*
X2778201Y-11015021D01*
X2435114Y-10501554D01*
X1998446Y-10064886D01*
X1484979Y-9721799D01*
X914446Y-9485476D01*
X308771Y-9365000D01*
X-308771Y-9365000D01*
X-914446Y-9485476D01*
X-1484979Y-9721799D01*
X-1998446Y-10064886D01*
X-2435114Y-10501554D01*
X-2778201Y-11015021D01*
X-3014524Y-11585554D01*
X-3135000Y-12191229D01*
X-5465000Y-12191229D01*
X-5465000Y12808771D01*
X-3135000Y12808771D01*
X-3135000Y12191229D01*
X-3014524Y11585554D01*
X-2778201Y11015021D01*
X-2435114Y10501554D01*
X-1998446Y10064886D01*
X-1484979Y9721799D01*
X-914446Y9485476D01*
X-308771Y9365000D01*
X308771Y9365000D01*
X914446Y9485476D01*
X1484979Y9721799D01*
X1998446Y10064886D01*
X2435114Y10501554D01*
X2778201Y11015021D01*
X2814203Y11101939D01*
X17765000Y11101939D01*
X17765000Y10898061D01*
X17804774Y10698102D01*
X17882795Y10509744D01*
X17996063Y10340226D01*
X18065000Y10271289D01*
X18065001Y10228712D01*
X17996063Y10159774D01*
X17882795Y9990256D01*
X17804774Y9801898D01*
X17765000Y9601939D01*
X17765000Y9398061D01*
X17804774Y9198102D01*
X17882795Y9009744D01*
X17996063Y8840226D01*
X18140226Y8696063D01*
X18309744Y8582795D01*
X18498102Y8504774D01*
X18698061Y8465000D01*
X18901939Y8465000D01*
X19101898Y8504774D01*
X19290256Y8582795D01*
X19459774Y8696063D01*
X19603937Y8840226D01*
X19717205Y9009744D01*
X19795226Y9198102D01*
X19835000Y9398061D01*
X19835000Y9601939D01*
X19795226Y9801898D01*
X19717205Y9990256D01*
X19603937Y10159774D01*
X19535000Y10228711D01*
X19535000Y10271289D01*
X19603937Y10340226D01*
X19717205Y10509744D01*
X19795226Y10698102D01*
X19835000Y10898061D01*
X19835000Y11101939D01*
X23065000Y11101939D01*
X23065000Y10898061D01*
X23104774Y10698102D01*
X23182795Y10509744D01*
X23296063Y10340226D01*
X23365000Y10271289D01*
X23365001Y9778702D01*
X23296063Y9709764D01*
X23182795Y9540246D01*
X23104774Y9351888D01*
X23065000Y9151929D01*
X23065000Y8948051D01*
X23104774Y8748092D01*
X23182795Y8559734D01*
X23296063Y8390216D01*
X23440226Y8246053D01*
X23609744Y8132785D01*
X23798102Y8054764D01*
X23998061Y8014990D01*
X24201939Y8014990D01*
X24401898Y8054764D01*
X24590256Y8132785D01*
X24759774Y8246053D01*
X24903937Y8390216D01*
X25017205Y8559734D01*
X25095226Y8748092D01*
X25135000Y8948051D01*
X25135000Y9151929D01*
X25095226Y9351888D01*
X25017205Y9540246D01*
X24903937Y9709764D01*
X24835000Y9778701D01*
X24835000Y10271289D01*
X24903937Y10340226D01*
X25017205Y10509744D01*
X25095226Y10698102D01*
X25135000Y10898061D01*
X25135000Y11101939D01*
X25095226Y11301898D01*
X25017205Y11490256D01*
X24903937Y11659774D01*
X24759774Y11803937D01*
X24590256Y11917205D01*
X24401898Y11995226D01*
X24201939Y12035000D01*
X23998061Y12035000D01*
X23798102Y11995226D01*
X23609744Y11917205D01*
X23440226Y11803937D01*
X23296063Y11659774D01*
X23182795Y11490256D01*
X23104774Y11301898D01*
X23065000Y11101939D01*
X19835000Y11101939D01*
X19795226Y11301898D01*
X19717205Y11490256D01*
X19603937Y11659774D01*
X19459774Y11803937D01*
X19290256Y11917205D01*
X19101898Y11995226D01*
X18901939Y12035000D01*
X18698061Y12035000D01*
X18498102Y11995226D01*
X18309744Y11917205D01*
X18140226Y11803937D01*
X17996063Y11659774D01*
X17882795Y11490256D01*
X17804774Y11301898D01*
X17765000Y11101939D01*
X2814203Y11101939D01*
X3014524Y11585554D01*
X3135000Y12191229D01*
X3135000Y12801939D01*
X29665000Y12801939D01*
X29665000Y12598061D01*
X29704774Y12398102D01*
X29782795Y12209744D01*
X29896063Y12040226D01*
X29965000Y11971289D01*
X29965001Y9328692D01*
X29896063Y9259754D01*
X29782795Y9090236D01*
X29704774Y8901878D01*
X29665000Y8701919D01*
X29665000Y8498041D01*
X29704774Y8298082D01*
X29782795Y8109724D01*
X29896063Y7940206D01*
X30040226Y7796043D01*
X30209744Y7682775D01*
X30398102Y7604754D01*
X30598061Y7564980D01*
X30801939Y7564980D01*
X31001898Y7604754D01*
X31190256Y7682775D01*
X31359774Y7796043D01*
X31503937Y7940206D01*
X31617205Y8109724D01*
X31676100Y8251909D01*
X34665000Y8251909D01*
X34665000Y8048031D01*
X34704774Y7848072D01*
X34782795Y7659714D01*
X34896063Y7490196D01*
X35040226Y7346033D01*
X35209744Y7232765D01*
X35398102Y7154744D01*
X35598061Y7114970D01*
X35801939Y7114970D01*
X36001898Y7154744D01*
X36190256Y7232765D01*
X36359774Y7346033D01*
X36503937Y7490196D01*
X36617205Y7659714D01*
X36695226Y7848072D01*
X36735000Y8048031D01*
X36735000Y8251909D01*
X36695226Y8451868D01*
X36617205Y8640226D01*
X36543008Y8751270D01*
X36543008Y11963281D01*
X36611945Y12032218D01*
X36725213Y12201736D01*
X36803234Y12390094D01*
X36843008Y12590053D01*
X36843008Y12793931D01*
X36803234Y12993890D01*
X36725213Y13182248D01*
X36611945Y13351766D01*
X36467782Y13495929D01*
X36298264Y13609197D01*
X36109906Y13687218D01*
X35909947Y13726992D01*
X35706069Y13726992D01*
X35506110Y13687218D01*
X35317752Y13609197D01*
X35148234Y13495929D01*
X35004071Y13351766D01*
X34890803Y13182248D01*
X34812782Y12993890D01*
X34773008Y12793931D01*
X34773008Y12590053D01*
X34812782Y12390094D01*
X34890803Y12201736D01*
X35004071Y12032218D01*
X35073008Y11963281D01*
X35073009Y8975812D01*
X35040226Y8953907D01*
X34896063Y8809744D01*
X34782795Y8640226D01*
X34704774Y8451868D01*
X34665000Y8251909D01*
X31676100Y8251909D01*
X31695226Y8298082D01*
X31735000Y8498041D01*
X31735000Y8701919D01*
X31695226Y8901878D01*
X31617205Y9090236D01*
X31503937Y9259754D01*
X31435000Y9328691D01*
X31435000Y11971289D01*
X31503937Y12040226D01*
X31617205Y12209744D01*
X31695226Y12398102D01*
X31735000Y12598061D01*
X31735000Y12801939D01*
X31695226Y13001898D01*
X31617205Y13190256D01*
X31503937Y13359774D01*
X31359774Y13503937D01*
X31190256Y13617205D01*
X31001898Y13695226D01*
X30801939Y13735000D01*
X30598061Y13735000D01*
X30398102Y13695226D01*
X30209744Y13617205D01*
X30040226Y13503937D01*
X29896063Y13359774D01*
X29782795Y13190256D01*
X29704774Y13001898D01*
X29665000Y12801939D01*
X3135000Y12801939D01*
X3135000Y12808771D01*
X3014524Y13414446D01*
X2778201Y13984979D01*
X2435114Y14498446D01*
X1998446Y14935114D01*
X1484979Y15278201D01*
X914446Y15514524D01*
X308771Y15635000D01*
X-308771Y15635000D01*
X-914446Y15514524D01*
X-1484979Y15278201D01*
X-1998446Y14935114D01*
X-2435114Y14498446D01*
X-2778201Y13984979D01*
X-3014524Y13414446D01*
X-3135000Y12808771D01*
X-5465000Y12808771D01*
X-5465000Y14995554D01*
X1304447Y21765000D01*
X22495554Y21765000D01*
X28269747Y15990806D01*
X28292763Y15962761D01*
X28404681Y15870912D01*
X28532368Y15802662D01*
X28628887Y15773383D01*
X28670915Y15760634D01*
X28815001Y15746443D01*
X28851106Y15749999D01*
X47326568Y15749999D01*
X45953562Y14376992D01*
X45856069Y14376992D01*
X45656110Y14337218D01*
X45467752Y14259197D01*
X45298234Y14145929D01*
X45154071Y14001766D01*
X45040803Y13832248D01*
X44962782Y13643890D01*
X44923008Y13443931D01*
X44923008Y13240053D01*
X44962782Y13040094D01*
X45040803Y12851736D01*
X45154071Y12682218D01*
X45298234Y12538055D01*
X45461008Y12429293D01*
X41316665Y8284950D01*
X41219172Y8284950D01*
X41073294Y8255933D01*
X41003937Y8359734D01*
X40935000Y8428671D01*
X40935000Y12071289D01*
X41003937Y12140226D01*
X41117205Y12309744D01*
X41195226Y12498102D01*
X41235000Y12698061D01*
X41235000Y12901939D01*
X41195226Y13101898D01*
X41117205Y13290256D01*
X41003937Y13459774D01*
X40859774Y13603937D01*
X40690256Y13717205D01*
X40501898Y13795226D01*
X40301939Y13835000D01*
X40098061Y13835000D01*
X39898102Y13795226D01*
X39709744Y13717205D01*
X39540226Y13603937D01*
X39396063Y13459774D01*
X39282795Y13290256D01*
X39204774Y13101898D01*
X39165000Y12901939D01*
X39165000Y12698061D01*
X39204774Y12498102D01*
X39282795Y12309744D01*
X39396063Y12140226D01*
X39465000Y12071289D01*
X39465001Y8428672D01*
X39396063Y8359734D01*
X39282795Y8190216D01*
X39204774Y8001858D01*
X39165000Y7801899D01*
X39165000Y7598021D01*
X39204774Y7398062D01*
X39282795Y7209704D01*
X39396063Y7040186D01*
X39540226Y6896023D01*
X39709744Y6782755D01*
X39898102Y6704734D01*
X40098061Y6664960D01*
X40301939Y6664960D01*
X40447817Y6693977D01*
X40517174Y6590176D01*
X40661337Y6446013D01*
X40830855Y6332745D01*
X41019213Y6254724D01*
X41219172Y6214950D01*
X41423050Y6214950D01*
X41623009Y6254724D01*
X41811367Y6332745D01*
X41980885Y6446013D01*
X42125048Y6590176D01*
X42238316Y6759694D01*
X42316337Y6948052D01*
X42356111Y7148011D01*
X42356111Y7245504D01*
X47325600Y12214992D01*
X49021281Y12214992D01*
X49090218Y12146055D01*
X49259736Y12032787D01*
X49448094Y11954766D01*
X49648053Y11914992D01*
X49851931Y11914992D01*
X50051890Y11954766D01*
X50240248Y12032787D01*
X50409766Y12146055D01*
X50553929Y12290218D01*
X50667197Y12459736D01*
X50745218Y12648094D01*
X50784992Y12848053D01*
X50784992Y12945546D01*
X52004447Y14165000D01*
X54817305Y14165000D01*
X54754071Y14101766D01*
X54640803Y13932248D01*
X54562782Y13743890D01*
X54523008Y13543931D01*
X54523008Y13340053D01*
X54562782Y13140094D01*
X54640803Y12951736D01*
X54754071Y12782218D01*
X54898234Y12638055D01*
X55067752Y12524787D01*
X55256110Y12446766D01*
X55456069Y12406992D01*
X55659947Y12406992D01*
X55859906Y12446766D01*
X56048264Y12524787D01*
X56217782Y12638055D01*
X56361945Y12782218D01*
X56475213Y12951736D01*
X56553234Y13140094D01*
X56593008Y13340053D01*
X56593008Y13415000D01*
X58906444Y13415000D01*
X58740226Y13303937D01*
X58596063Y13159774D01*
X58482795Y12990256D01*
X58404774Y12801898D01*
X58365000Y12601939D01*
X58365000Y12471193D01*
X58317664Y12382633D01*
X58294719Y12306992D01*
X58275636Y12244086D01*
X58261445Y12100001D01*
X58265001Y12063896D01*
X58265002Y7836114D01*
X58261445Y7799999D01*
X58275636Y7655914D01*
X58313049Y7532583D01*
X58317665Y7517366D01*
X58385915Y7389679D01*
X58477764Y7277761D01*
X58505809Y7254745D01*
X59365000Y6395553D01*
X59365000Y6298061D01*
X59404774Y6098102D01*
X59482795Y5909744D01*
X59596063Y5740226D01*
X59740226Y5596063D01*
X59909744Y5482795D01*
X60098102Y5404774D01*
X60298061Y5365000D01*
X60501939Y5365000D01*
X60701898Y5404774D01*
X60890256Y5482795D01*
X61059774Y5596063D01*
X61203937Y5740226D01*
X61317205Y5909744D01*
X61395226Y6098102D01*
X61435000Y6298061D01*
X61435000Y6501939D01*
X61395226Y6701898D01*
X61317205Y6890256D01*
X61203937Y7059774D01*
X61059774Y7203937D01*
X60890256Y7317205D01*
X60701898Y7395226D01*
X60501939Y7435000D01*
X60404447Y7435000D01*
X59735001Y8104445D01*
X59735001Y11518486D01*
X59890256Y11582795D01*
X60059774Y11696063D01*
X60203937Y11840226D01*
X60317205Y12009744D01*
X60395226Y12198102D01*
X60435000Y12398061D01*
X60435000Y12495553D01*
X60604447Y12665000D01*
X63173008Y12665000D01*
X63173008Y12490053D01*
X63212782Y12290094D01*
X63290803Y12101736D01*
X63404071Y11932218D01*
X63473008Y11863281D01*
X63473009Y7986670D01*
X63396063Y7909724D01*
X63282795Y7740206D01*
X63204774Y7551848D01*
X63165000Y7351889D01*
X63165000Y7148011D01*
X63204774Y6948052D01*
X63282795Y6759694D01*
X63396063Y6590176D01*
X63540226Y6446013D01*
X63709744Y6332745D01*
X63898102Y6254724D01*
X64098061Y6214950D01*
X64301939Y6214950D01*
X64501898Y6254724D01*
X64690256Y6332745D01*
X64859774Y6446013D01*
X65003937Y6590176D01*
X65117205Y6759694D01*
X65195226Y6948052D01*
X65235000Y7148011D01*
X65235000Y7351889D01*
X65195226Y7551848D01*
X65117205Y7740206D01*
X65003937Y7909724D01*
X64943008Y7970653D01*
X64943008Y11863281D01*
X65011945Y11932218D01*
X65125213Y12101736D01*
X65203234Y12290094D01*
X65243008Y12490053D01*
X65243008Y12665000D01*
X67665000Y12665000D01*
X67665000Y12498061D01*
X67704774Y12298102D01*
X67782795Y12109744D01*
X67896063Y11940226D01*
X67965000Y11871289D01*
X67965001Y7528652D01*
X67896063Y7459714D01*
X67782795Y7290196D01*
X67704774Y7101838D01*
X67665000Y6901879D01*
X67665000Y6698001D01*
X67704774Y6498042D01*
X67782795Y6309684D01*
X67896063Y6140166D01*
X68040226Y5996003D01*
X68209744Y5882735D01*
X68398102Y5804714D01*
X68598061Y5764940D01*
X68801939Y5764940D01*
X69001898Y5804714D01*
X69190256Y5882735D01*
X69359774Y5996003D01*
X69503937Y6140166D01*
X69617205Y6309684D01*
X69695226Y6498042D01*
X69735000Y6698001D01*
X69735000Y6901879D01*
X69695226Y7101838D01*
X69617205Y7290196D01*
X69503937Y7459714D01*
X69435000Y7528651D01*
X69435000Y11871289D01*
X69503937Y11940226D01*
X69617205Y12109744D01*
X69695226Y12298102D01*
X69735000Y12498061D01*
X69735000Y12665000D01*
X72723008Y12665000D01*
X72723008Y12540053D01*
X72762782Y12340094D01*
X72840803Y12151736D01*
X72954071Y11982218D01*
X73098234Y11838055D01*
X73267752Y11724787D01*
X73456110Y11646766D01*
X73656069Y11606992D01*
X73859947Y11606992D01*
X74059906Y11646766D01*
X74248264Y11724787D01*
X74348370Y11791675D01*
X80935002Y5205042D01*
X80935002Y5107550D01*
X80974776Y4907591D01*
X81052797Y4719233D01*
X81166065Y4549715D01*
X81310228Y4405552D01*
X81479746Y4292284D01*
X81668104Y4214263D01*
X81851118Y4177859D01*
X81855150Y4157591D01*
X81933171Y3969233D01*
X82046439Y3799715D01*
X82115376Y3730778D01*
X82115376Y3454823D01*
X80512132Y1851579D01*
X80407782Y1955929D01*
X80238264Y2069197D01*
X80049906Y2147218D01*
X79849947Y2186992D01*
X79752455Y2186992D01*
X79280865Y2658581D01*
X79355226Y2838102D01*
X79395000Y3038061D01*
X79395000Y3241939D01*
X79355226Y3441898D01*
X79277205Y3630256D01*
X79163937Y3799774D01*
X79019774Y3943937D01*
X78850256Y4057205D01*
X78661898Y4135226D01*
X78461939Y4175000D01*
X78258061Y4175000D01*
X78058102Y4135226D01*
X77869744Y4057205D01*
X77700226Y3943937D01*
X77651289Y3895000D01*
X69468711Y3895000D01*
X69399774Y3963937D01*
X69230256Y4077205D01*
X69041898Y4155226D01*
X68841939Y4195000D01*
X68638061Y4195000D01*
X68438102Y4155226D01*
X68249744Y4077205D01*
X68080226Y3963937D01*
X68011289Y3895000D01*
X59958711Y3895000D01*
X59889774Y3963937D01*
X59720256Y4077205D01*
X59531898Y4155226D01*
X59331939Y4195000D01*
X59128061Y4195000D01*
X58928102Y4155226D01*
X58739744Y4077205D01*
X58570226Y3963937D01*
X58541289Y3935000D01*
X50458711Y3935000D01*
X50389774Y4003937D01*
X50220256Y4117205D01*
X50031898Y4195226D01*
X49831939Y4235000D01*
X49628061Y4235000D01*
X49428102Y4195226D01*
X49239744Y4117205D01*
X49070226Y4003937D01*
X49001289Y3935000D01*
X40888711Y3935000D01*
X40819774Y4003937D01*
X40650256Y4117205D01*
X40461898Y4195226D01*
X40261939Y4235000D01*
X40058061Y4235000D01*
X39858102Y4195226D01*
X39669744Y4117205D01*
X39500226Y4003937D01*
X39421289Y3925000D01*
X30448711Y3925000D01*
X30379774Y3993937D01*
X30210256Y4107205D01*
X30021898Y4185226D01*
X29821939Y4225000D01*
X29618061Y4225000D01*
X29418102Y4185226D01*
X29229744Y4107205D01*
X29060226Y3993937D01*
X28991289Y3925000D01*
X25260536Y3925000D01*
X25337205Y4039744D01*
X25415226Y4228102D01*
X25455000Y4428061D01*
X25455000Y4631939D01*
X25415226Y4831898D01*
X25337205Y5020256D01*
X25223937Y5189774D01*
X25079774Y5333937D01*
X24910256Y5447205D01*
X24721898Y5525226D01*
X24521939Y5565000D01*
X24318061Y5565000D01*
X24118102Y5525226D01*
X23929744Y5447205D01*
X23760226Y5333937D01*
X23616063Y5189774D01*
X23502795Y5020256D01*
X23424774Y4831898D01*
X23385000Y4631939D01*
X23385000Y4534447D01*
X22834171Y3983617D01*
X22845000Y4038061D01*
X22845000Y4241939D01*
X22805226Y4441898D01*
X22727205Y4630256D01*
X22613937Y4799774D01*
X22469774Y4943937D01*
X22300256Y5057205D01*
X22111898Y5135226D01*
X21911939Y5175000D01*
X21708061Y5175000D01*
X21508102Y5135226D01*
X21319744Y5057205D01*
X21150226Y4943937D01*
X21081289Y4875000D01*
X18018711Y4875000D01*
X18023937Y4880226D01*
X18137205Y5049744D01*
X18215226Y5238102D01*
X18255000Y5438061D01*
X18255000Y5641939D01*
X18215226Y5841898D01*
X18137205Y6030256D01*
X18023937Y6199774D01*
X17879774Y6343937D01*
X17710256Y6457205D01*
X17521898Y6535226D01*
X17321939Y6575000D01*
X17118061Y6575000D01*
X16918102Y6535226D01*
X16729744Y6457205D01*
X16560226Y6343937D01*
X16491289Y6275000D01*
X2626351Y6275000D01*
X2524928Y6426791D01*
X2326791Y6624928D01*
X2093806Y6780603D01*
X1834928Y6887834D01*
X1560104Y6942500D01*
X1279896Y6942500D01*
X1005072Y6887834D01*
X746194Y6780603D01*
X513209Y6624928D01*
X315072Y6426791D01*
X159397Y6193806D01*
X52166Y5934928D01*
X-2500Y5660104D01*
X-2500Y5379896D01*
X52166Y5105072D01*
X147465Y4875000D01*
X-200285Y4875000D01*
X-315072Y5046791D01*
X-513209Y5244928D01*
X-746194Y5400603D01*
X-1005072Y5507834D01*
X-1279896Y5562500D01*
X-1560104Y5562500D01*
X-1834928Y5507834D01*
X-2093806Y5400603D01*
X-2326791Y5244928D01*
X-2524928Y5046791D01*
X-2680603Y4813806D01*
X-2787834Y4554928D01*
X-2842500Y4280104D01*
X-2842500Y3999896D01*
X-2787834Y3725072D01*
X-2680603Y3466194D01*
X-2524928Y3233209D01*
X-2326791Y3035072D01*
X-2093806Y2879397D01*
X-1834928Y2772166D01*
X-1773766Y2760000D01*
X-1834928Y2747834D01*
X-2093806Y2640603D01*
X-2326791Y2484928D01*
X-2524928Y2286791D01*
X-2680603Y2053806D01*
X-2787834Y1794928D01*
X-2842500Y1520104D01*
X-2842500Y1239896D01*
X-2787834Y965072D01*
X-2680603Y706194D01*
X-2524928Y473209D01*
X-2326791Y275072D01*
X-2093806Y119397D01*
X-1834928Y12166D01*
X-1773766Y0D01*
X-1834928Y-12166D01*
X-2093806Y-119397D01*
X-2326791Y-275072D01*
X-2524928Y-473209D01*
X-2680603Y-706194D01*
X-2787834Y-965072D01*
X-2842500Y-1239896D01*
X-2842500Y-1520104D01*
X-2787834Y-1794928D01*
X-2680603Y-2053806D01*
X-2524928Y-2286791D01*
X-2326791Y-2484928D01*
X-2093806Y-2640603D01*
X-1834928Y-2747834D01*
X-1773766Y-2760000D01*
X-1834928Y-2772166D01*
X-2093806Y-2879397D01*
X-2326791Y-3035072D01*
X-2524928Y-3233209D01*
X-2680603Y-3466194D01*
X-2787834Y-3725072D01*
X-2842500Y-3999896D01*
X-2842500Y-4280104D01*
X-2787834Y-4554928D01*
X-2680603Y-4813806D01*
X-2524928Y-5046791D01*
X-2326791Y-5244928D01*
X-2093806Y-5400603D01*
X-1834928Y-5507834D01*
X-1560104Y-5562500D01*
X-1279896Y-5562500D01*
X-1005072Y-5507834D01*
X-746194Y-5400603D01*
X-513209Y-5244928D01*
X-315072Y-5046791D01*
X-220331Y-4905000D01*
X-5572Y-4905000D01*
X-5572Y-6307500D01*
X6688Y-6431982D01*
X42998Y-6551680D01*
X101963Y-6661994D01*
X181315Y-6758685D01*
X278006Y-6838037D01*
X388320Y-6897002D01*
X508018Y-6933312D01*
X632500Y-6945572D01*
X2207500Y-6945572D01*
X2331982Y-6933312D01*
X2451680Y-6897002D01*
X2561994Y-6838037D01*
X2658685Y-6758685D01*
X2738037Y-6661994D01*
X2797002Y-6551680D01*
X2833312Y-6431982D01*
X2845572Y-6307500D01*
X2845572Y-6235000D01*
X7271289Y-6235000D01*
X7340226Y-6303937D01*
X7509744Y-6417205D01*
X7698102Y-6495226D01*
X7898061Y-6535000D01*
X8101939Y-6535000D01*
X8301898Y-6495226D01*
X8490256Y-6417205D01*
X8659774Y-6303937D01*
X8803937Y-6159774D01*
X8917205Y-5990256D01*
X8995226Y-5801898D01*
X9035000Y-5601939D01*
X9035000Y-5398061D01*
X8995226Y-5198102D01*
X8917205Y-5009744D01*
X8847217Y-4905000D01*
X12021289Y-4905000D01*
X12090226Y-4973937D01*
X12259744Y-5087205D01*
X12448102Y-5165226D01*
X12648061Y-5205000D01*
X12851939Y-5205000D01*
X13051898Y-5165226D01*
X13240256Y-5087205D01*
X13409774Y-4973937D01*
X13553937Y-4829774D01*
X13667205Y-4660256D01*
X13745226Y-4471898D01*
X13785000Y-4271939D01*
X13785000Y-4068061D01*
X13745226Y-3868102D01*
X13667205Y-3679744D01*
X13553937Y-3510226D01*
X13538711Y-3495000D01*
X16251289Y-3495000D01*
X16320226Y-3563937D01*
X16489744Y-3677205D01*
X16678102Y-3755226D01*
X16878061Y-3795000D01*
X17081939Y-3795000D01*
X17281898Y-3755226D01*
X17470256Y-3677205D01*
X17639774Y-3563937D01*
X17783937Y-3419774D01*
X17897205Y-3250256D01*
X17975226Y-3061898D01*
X17977753Y-3049193D01*
X17989744Y-3057205D01*
X18178102Y-3135226D01*
X18378061Y-3175000D01*
X18475553Y-3175000D01*
X18504746Y-3204193D01*
X18527762Y-3232238D01*
X18620152Y-3308061D01*
X18639680Y-3324087D01*
X18767366Y-3392337D01*
X18905915Y-3434365D01*
X18935000Y-3437230D01*
X18935000Y-3611939D01*
X18974774Y-3811898D01*
X19052795Y-4000256D01*
X19166063Y-4169774D01*
X19235001Y-4238712D01*
X19235000Y-7342905D01*
X19231444Y-7379010D01*
X19245635Y-7523095D01*
X19250325Y-7538556D01*
X19287663Y-7661642D01*
X19355913Y-7789329D01*
X19447762Y-7901247D01*
X19475808Y-7924264D01*
X23616543Y-12065000D01*
X23498061Y-12065000D01*
X23298102Y-12104774D01*
X23109744Y-12182795D01*
X22940226Y-12296063D01*
X22796063Y-12440226D01*
X22682795Y-12609744D01*
X22604774Y-12798102D01*
X22565000Y-12998061D01*
X22565000Y-13201939D01*
X22604774Y-13401898D01*
X22682795Y-13590256D01*
X22796063Y-13759774D01*
X22940226Y-13903937D01*
X23109744Y-14017205D01*
X23298102Y-14095226D01*
X23498061Y-14135000D01*
X23595554Y-14135000D01*
X24365000Y-14904447D01*
X24365001Y-16246887D01*
X24361444Y-16283002D01*
X24375635Y-16427087D01*
X24391008Y-16477763D01*
X24417664Y-16565635D01*
X24485914Y-16693322D01*
X24577763Y-16805240D01*
X24605808Y-16828256D01*
X27871744Y-20094193D01*
X27894760Y-20122238D01*
X27922804Y-20145253D01*
X28006678Y-20214087D01*
X28134364Y-20282337D01*
X28272913Y-20324365D01*
X28416998Y-20338556D01*
X28453103Y-20335000D01*
X29107676Y-20335000D01*
X29128927Y-20386305D01*
X29310594Y-20658188D01*
X29541812Y-20889406D01*
X29813695Y-21071073D01*
X30115796Y-21196207D01*
X30436504Y-21260000D01*
X30763496Y-21260000D01*
X31084204Y-21196207D01*
X31386305Y-21071073D01*
X31658188Y-20889406D01*
X31889406Y-20658188D01*
X32071073Y-20386305D01*
X32196207Y-20084204D01*
X32260000Y-19763496D01*
X32260000Y-19436504D01*
X32196207Y-19115796D01*
X32071073Y-18813695D01*
X31889406Y-18541812D01*
X31658188Y-18310594D01*
X31386305Y-18128927D01*
X31084204Y-18003793D01*
X30763496Y-17940000D01*
X30436504Y-17940000D01*
X30115796Y-18003793D01*
X29813695Y-18128927D01*
X29541812Y-18310594D01*
X29310594Y-18541812D01*
X29128927Y-18813695D01*
X29107676Y-18865000D01*
X28721445Y-18865000D01*
X28598430Y-18741985D01*
X28893673Y-18619692D01*
X29181935Y-18427081D01*
X29427081Y-18181935D01*
X29619692Y-17893673D01*
X29660564Y-17795000D01*
X31539436Y-17795000D01*
X31580308Y-17893673D01*
X31772919Y-18181935D01*
X32018065Y-18427081D01*
X32306327Y-18619692D01*
X32405000Y-18660564D01*
X32405001Y-20539436D01*
X32306327Y-20580308D01*
X32018065Y-20772919D01*
X31772919Y-21018065D01*
X31580308Y-21306327D01*
X31539436Y-21405000D01*
X29660564Y-21405000D01*
X29619692Y-21306327D01*
X29427081Y-21018065D01*
X29181935Y-20772919D01*
X28893673Y-20580308D01*
X28573373Y-20447636D01*
X28233345Y-20380000D01*
X27886655Y-20380000D01*
X27546627Y-20447636D01*
X27226327Y-20580308D01*
X26938065Y-20772919D01*
X26692919Y-21018065D01*
X26500308Y-21306327D01*
X26367636Y-21626627D01*
X26300000Y-21966655D01*
X26300000Y-22313345D01*
X26367636Y-22653373D01*
X26500308Y-22973673D01*
X26692919Y-23261935D01*
X26938065Y-23507081D01*
X27226327Y-23699692D01*
X27546627Y-23832364D01*
X27886655Y-23900000D01*
X28233345Y-23900000D01*
X28573373Y-23832364D01*
X28893673Y-23699692D01*
X29181935Y-23507081D01*
X29427081Y-23261935D01*
X29619692Y-22973673D01*
X29660564Y-22875000D01*
X31539436Y-22875000D01*
X31580308Y-22973673D01*
X31772919Y-23261935D01*
X32018065Y-23507081D01*
X32306327Y-23699692D01*
X32626627Y-23832364D01*
X32966655Y-23900000D01*
X33313345Y-23900000D01*
X33653373Y-23832364D01*
X33973673Y-23699692D01*
X34261935Y-23507081D01*
X34507081Y-23261935D01*
X34699692Y-22973673D01*
X34832364Y-22653373D01*
X34900000Y-22313345D01*
X34900000Y-21966655D01*
X34832364Y-21626627D01*
X34699692Y-21306327D01*
X34507081Y-21018065D01*
X34261935Y-20772919D01*
X33973673Y-20580308D01*
X33875000Y-20539436D01*
X33875000Y-18660564D01*
X33973673Y-18619692D01*
X34261935Y-18427081D01*
X34507081Y-18181935D01*
X34699692Y-17893673D01*
X34832364Y-17573373D01*
X34837013Y-17550000D01*
X78911928Y-17550000D01*
X78911928Y-19250000D01*
X78924188Y-19374482D01*
X78960498Y-19494180D01*
X79019463Y-19604494D01*
X79098815Y-19701185D01*
X79195506Y-19780537D01*
X79305820Y-19839502D01*
X79425518Y-19875812D01*
X79550000Y-19888072D01*
X81250000Y-19888072D01*
X81374482Y-19875812D01*
X81494180Y-19839502D01*
X81604494Y-19780537D01*
X81701185Y-19701185D01*
X81780537Y-19604494D01*
X81839502Y-19494180D01*
X81875812Y-19374482D01*
X81888072Y-19250000D01*
X81888072Y-17550000D01*
X81875812Y-17425518D01*
X81839502Y-17305820D01*
X81780537Y-17195506D01*
X81701185Y-17098815D01*
X81604494Y-17019463D01*
X81494180Y-16960498D01*
X81374482Y-16924188D01*
X81250000Y-16911928D01*
X79550000Y-16911928D01*
X79425518Y-16924188D01*
X79305820Y-16960498D01*
X79195506Y-17019463D01*
X79098815Y-17098815D01*
X79019463Y-17195506D01*
X78960498Y-17305820D01*
X78924188Y-17425518D01*
X78911928Y-17550000D01*
X34837013Y-17550000D01*
X34900000Y-17233345D01*
X34900000Y-16886655D01*
X34832364Y-16546627D01*
X34699692Y-16226327D01*
X34507081Y-15938065D01*
X34261935Y-15692919D01*
X33973673Y-15500308D01*
X33653373Y-15367636D01*
X33313345Y-15300000D01*
X32966655Y-15300000D01*
X32626627Y-15367636D01*
X32306327Y-15500308D01*
X32018065Y-15692919D01*
X31772919Y-15938065D01*
X31580308Y-16226327D01*
X31539436Y-16325000D01*
X29660564Y-16325000D01*
X29619692Y-16226327D01*
X29427081Y-15938065D01*
X29181935Y-15692919D01*
X28893673Y-15500308D01*
X28797724Y-15460565D01*
X28784365Y-15324925D01*
X28742337Y-15186376D01*
X28674087Y-15058690D01*
X28629839Y-15004774D01*
X28582238Y-14946772D01*
X28554193Y-14923756D01*
X20705000Y-7074564D01*
X20705000Y-4238711D01*
X20748711Y-4195000D01*
X29971289Y-4195000D01*
X30040226Y-4263937D01*
X30209744Y-4377205D01*
X30398102Y-4455226D01*
X30598061Y-4495000D01*
X30801939Y-4495000D01*
X31001898Y-4455226D01*
X31190256Y-4377205D01*
X31359774Y-4263937D01*
X31428711Y-4195000D01*
X39321289Y-4195000D01*
X39390226Y-4263937D01*
X39559744Y-4377205D01*
X39748102Y-4455226D01*
X39948061Y-4495000D01*
X40151939Y-4495000D01*
X40351898Y-4455226D01*
X40540256Y-4377205D01*
X40709774Y-4263937D01*
X40778711Y-4195000D01*
X49051289Y-4195000D01*
X49070226Y-4213937D01*
X49239744Y-4327205D01*
X49428102Y-4405226D01*
X49628061Y-4445000D01*
X49831939Y-4445000D01*
X50031898Y-4405226D01*
X50220256Y-4327205D01*
X50389774Y-4213937D01*
X50458711Y-4145000D01*
X58511289Y-4145000D01*
X58600226Y-4233937D01*
X58769744Y-4347205D01*
X58958102Y-4425226D01*
X59158061Y-4465000D01*
X59361939Y-4465000D01*
X59561898Y-4425226D01*
X59750256Y-4347205D01*
X59919774Y-4233937D01*
X59988711Y-4165000D01*
X68111749Y-4165000D01*
X68249744Y-4257205D01*
X68438102Y-4335226D01*
X68638061Y-4375000D01*
X68841939Y-4375000D01*
X69041898Y-4335226D01*
X69230256Y-4257205D01*
X69399774Y-4143937D01*
X69468711Y-4075000D01*
X77419510Y-4075000D01*
X77436063Y-4099774D01*
X77580226Y-4243937D01*
X77749744Y-4357205D01*
X77938102Y-4435226D01*
X78138061Y-4475000D01*
X78341939Y-4475000D01*
X78541898Y-4435226D01*
X78730256Y-4357205D01*
X78865001Y-4267172D01*
X78865001Y-6245552D01*
X78614675Y-6495878D01*
X78595226Y-6398102D01*
X78517205Y-6209744D01*
X78403937Y-6040226D01*
X78259774Y-5896063D01*
X78090256Y-5782795D01*
X77901898Y-5704774D01*
X77701939Y-5665000D01*
X77498061Y-5665000D01*
X77298102Y-5704774D01*
X77109744Y-5782795D01*
X76940226Y-5896063D01*
X76871289Y-5965000D01*
X74313285Y-5965000D01*
X74190256Y-5882795D01*
X74001898Y-5804774D01*
X73801939Y-5765000D01*
X73598061Y-5765000D01*
X73398102Y-5804774D01*
X73209744Y-5882795D01*
X73040226Y-5996063D01*
X72896063Y-6140226D01*
X72782795Y-6309744D01*
X72704774Y-6498102D01*
X72665000Y-6698061D01*
X72665000Y-6901939D01*
X72704774Y-7101898D01*
X72782795Y-7290256D01*
X72896063Y-7459774D01*
X73040226Y-7603937D01*
X73209744Y-7717205D01*
X73398102Y-7795226D01*
X73598061Y-7835000D01*
X73801939Y-7835000D01*
X74001898Y-7795226D01*
X74190256Y-7717205D01*
X74359774Y-7603937D01*
X74503937Y-7459774D01*
X74520490Y-7435000D01*
X76871289Y-7435000D01*
X76940226Y-7503937D01*
X77109744Y-7617205D01*
X77298102Y-7695226D01*
X77395879Y-7714675D01*
X77395554Y-7715000D01*
X77298061Y-7715000D01*
X77098102Y-7754774D01*
X76909744Y-7832795D01*
X76740226Y-7946063D01*
X76596063Y-8090226D01*
X76482795Y-8259744D01*
X76404774Y-8448102D01*
X76365000Y-8648061D01*
X76365000Y-8851939D01*
X76404774Y-9051898D01*
X76482795Y-9240256D01*
X76596063Y-9409774D01*
X76740226Y-9553937D01*
X76909744Y-9667205D01*
X77098102Y-9745226D01*
X77298061Y-9785000D01*
X77501939Y-9785000D01*
X77701898Y-9745226D01*
X77890256Y-9667205D01*
X78059774Y-9553937D01*
X78203937Y-9409774D01*
X78317205Y-9240256D01*
X78395226Y-9051898D01*
X78435000Y-8851939D01*
X78435000Y-8754446D01*
X80094193Y-7095254D01*
X80122238Y-7072238D01*
X80214087Y-6960320D01*
X80282337Y-6832633D01*
X80324365Y-6694085D01*
X80335000Y-6586105D01*
X80338556Y-6550000D01*
X80335000Y-6513895D01*
X80335000Y-404446D01*
X83311008Y2571562D01*
X83372614Y2622120D01*
X83464463Y2734038D01*
X83532713Y2861725D01*
X83574741Y3000273D01*
X83588932Y3144358D01*
X83585376Y3180463D01*
X83585376Y3730778D01*
X83654313Y3799715D01*
X83767581Y3969233D01*
X83845602Y4157591D01*
X83885376Y4357550D01*
X83885376Y4561428D01*
X83845602Y4761387D01*
X83767581Y4949745D01*
X83654313Y5119263D01*
X83585376Y5188200D01*
X83585376Y8063530D01*
X83588931Y8099625D01*
X83585376Y8135720D01*
X83585376Y8135729D01*
X83574741Y8243709D01*
X83532713Y8382257D01*
X83464463Y8509944D01*
X83423601Y8559734D01*
X83395629Y8593818D01*
X83395626Y8593821D01*
X83372613Y8621862D01*
X83344573Y8644873D01*
X79335000Y12654446D01*
X79335000Y12665000D01*
X82325131Y12665000D01*
X82209744Y12617205D01*
X82040226Y12503937D01*
X81896063Y12359774D01*
X81782795Y12190256D01*
X81704774Y12001898D01*
X81665000Y11801939D01*
X81665000Y11598061D01*
X81704774Y11398102D01*
X81782795Y11209744D01*
X81896063Y11040226D01*
X82040226Y10896063D01*
X82209744Y10782795D01*
X82398102Y10704774D01*
X82598061Y10665000D01*
X82801939Y10665000D01*
X83001898Y10704774D01*
X83190256Y10782795D01*
X83359774Y10896063D01*
X83503937Y11040226D01*
X83617205Y11209744D01*
X83695226Y11398102D01*
X83735000Y11598061D01*
X83735000Y11801939D01*
X83695226Y12001898D01*
X83617205Y12190256D01*
X83503937Y12359774D01*
X83359774Y12503937D01*
X83190256Y12617205D01*
X83074869Y12665000D01*
X83992442Y12665000D01*
X83965000Y12527037D01*
X83965000Y12323159D01*
X84004774Y12123200D01*
X84082795Y11934842D01*
X84196063Y11765324D01*
X84340226Y11621161D01*
X84509744Y11507893D01*
X84698102Y11429872D01*
X84898061Y11390098D01*
X85101939Y11390098D01*
X85301898Y11429872D01*
X85490256Y11507893D01*
X85659774Y11621161D01*
X85726047Y11687434D01*
X85735100Y11686542D01*
X85771205Y11690098D01*
X85879185Y11700733D01*
X86017733Y11742761D01*
X86145420Y11811011D01*
X86257338Y11902860D01*
X86280358Y11930910D01*
X86844198Y12494749D01*
X86872238Y12517761D01*
X86895251Y12545802D01*
X86895254Y12545805D01*
X86954197Y12617627D01*
X86964088Y12629679D01*
X87032338Y12757366D01*
X87074366Y12895914D01*
X87085001Y13003894D01*
X87085001Y13003903D01*
X87088556Y13039998D01*
X87085001Y13076093D01*
X87085001Y13723905D01*
X87088556Y13760002D01*
X87085001Y13796099D01*
X87085001Y13796106D01*
X87074366Y13904086D01*
X87074158Y13904774D01*
X87044735Y14001766D01*
X87032338Y14042634D01*
X86964088Y14170321D01*
X86872239Y14282239D01*
X86844194Y14305255D01*
X84170262Y16979187D01*
X84147241Y17007237D01*
X84035323Y17099086D01*
X83907636Y17167336D01*
X83769088Y17209364D01*
X83661108Y17219999D01*
X83625003Y17223555D01*
X83588898Y17219999D01*
X77357239Y17219999D01*
X77417205Y17309744D01*
X77495226Y17498102D01*
X77535000Y17698061D01*
X77535000Y17901939D01*
X77495226Y18101898D01*
X77450155Y18210709D01*
X77634778Y18395331D01*
X77732270Y18395331D01*
X77932229Y18435105D01*
X78120587Y18513126D01*
X78290105Y18626394D01*
X78434268Y18770557D01*
X78547536Y18940075D01*
X78625557Y19128433D01*
X78665331Y19328392D01*
X78665331Y19532270D01*
X78625557Y19732229D01*
X78547536Y19920587D01*
X78434268Y20090105D01*
X78290105Y20234268D01*
X78120587Y20347536D01*
X77932229Y20425557D01*
X77732270Y20465331D01*
X77528392Y20465331D01*
X77328433Y20425557D01*
X77140075Y20347536D01*
X76970557Y20234268D01*
X76826394Y20090105D01*
X76713126Y19920587D01*
X76635105Y19732229D01*
X76595331Y19532270D01*
X76595331Y19434778D01*
X76005808Y18845254D01*
X75977762Y18822237D01*
X75885913Y18710319D01*
X75817663Y18582632D01*
X75817115Y18580826D01*
X75696063Y18459774D01*
X75582795Y18290256D01*
X75504774Y18101898D01*
X75465000Y17901939D01*
X75465000Y17698061D01*
X75504774Y17498102D01*
X75582795Y17309744D01*
X75642761Y17219999D01*
X29119448Y17219999D01*
X23345259Y22994187D01*
X23322238Y23022238D01*
X23210320Y23114087D01*
X23082633Y23182337D01*
X22944085Y23224365D01*
X22836105Y23235000D01*
X22800000Y23238556D01*
X22763895Y23235000D01*
X1036105Y23235000D01*
X1000000Y23238556D01*
X855915Y23224365D01*
X717366Y23182337D01*
X589680Y23114087D01*
X477762Y23022238D01*
X454746Y22994193D01*
X-6694192Y15845254D01*
X-6722238Y15822237D01*
X-6814087Y15710319D01*
X-6882337Y15582632D01*
X-6892824Y15548061D01*
X-6924365Y15444085D01*
X-6938556Y15300000D01*
X-8865000Y15300000D01*
X-8865000Y24340000D01*
X89815001Y24340000D01*
X89815001Y13400671D01*
G04 #@! TA.AperFunction,Conductor*
D19*
G36*
X89815001Y13400671D02*
G01*
X89790256Y13417205D01*
X89601898Y13495226D01*
X89401939Y13535000D01*
X89198061Y13535000D01*
X88998102Y13495226D01*
X88809744Y13417205D01*
X88643000Y13305791D01*
X88643000Y13979289D01*
X88711937Y14048226D01*
X88825205Y14217744D01*
X88903226Y14406102D01*
X88943000Y14606061D01*
X88943000Y14809939D01*
X88903226Y15009898D01*
X88825205Y15198256D01*
X88711937Y15367774D01*
X88567774Y15511937D01*
X88398256Y15625205D01*
X88209898Y15703226D01*
X88009939Y15743000D01*
X87806061Y15743000D01*
X87606102Y15703226D01*
X87417744Y15625205D01*
X87248226Y15511937D01*
X87104063Y15367774D01*
X86990795Y15198256D01*
X86912774Y15009898D01*
X86873000Y14809939D01*
X86873000Y14606061D01*
X86912774Y14406102D01*
X86990795Y14217744D01*
X87104063Y14048226D01*
X87173000Y13979289D01*
X87173001Y11428115D01*
X87169444Y11392000D01*
X87183635Y11247915D01*
X87219452Y11129844D01*
X87225664Y11109367D01*
X87293914Y10981680D01*
X87385763Y10869762D01*
X87413808Y10846746D01*
X88418494Y9842059D01*
X88418495Y9394233D01*
X88349557Y9325295D01*
X88236289Y9155777D01*
X88158268Y8967419D01*
X88118494Y8767460D01*
X88118494Y8563582D01*
X88158268Y8363623D01*
X88236289Y8175265D01*
X88349557Y8005747D01*
X88418495Y7936809D01*
X88418495Y7670442D01*
X87039304Y6291250D01*
X86941811Y6291250D01*
X86741852Y6251476D01*
X86553494Y6173455D01*
X86383976Y6060187D01*
X86239813Y5916024D01*
X86126545Y5746506D01*
X86048524Y5558148D01*
X86008750Y5358189D01*
X86008750Y5260696D01*
X85855798Y5107744D01*
X85827752Y5084727D01*
X85735903Y4972809D01*
X85667653Y4845122D01*
X85648337Y4781444D01*
X85625625Y4706575D01*
X85611434Y4562490D01*
X85614990Y4526385D01*
X85614991Y-5345562D01*
X78225554Y-12735000D01*
X78128061Y-12735000D01*
X77928102Y-12774774D01*
X77739744Y-12852795D01*
X77570226Y-12966063D01*
X77426063Y-13110226D01*
X77312795Y-13279744D01*
X77234774Y-13468102D01*
X77195000Y-13668061D01*
X77195000Y-13871939D01*
X77234774Y-14071898D01*
X77312795Y-14260256D01*
X77426063Y-14429774D01*
X77570226Y-14573937D01*
X77739744Y-14687205D01*
X77928102Y-14765226D01*
X78128061Y-14805000D01*
X78331939Y-14805000D01*
X78531898Y-14765226D01*
X78720256Y-14687205D01*
X78889774Y-14573937D01*
X79033937Y-14429774D01*
X79147205Y-14260256D01*
X79225226Y-14071898D01*
X79265000Y-13871939D01*
X79265000Y-13774446D01*
X86065000Y-6974447D01*
X86065001Y-16265000D01*
X85536096Y-16265000D01*
X85499999Y-16261445D01*
X85463902Y-16265000D01*
X85463895Y-16265000D01*
X85370132Y-16274235D01*
X85355914Y-16275635D01*
X85331629Y-16283002D01*
X85217367Y-16317663D01*
X85089680Y-16385913D01*
X84977762Y-16477762D01*
X84954746Y-16505807D01*
X80848626Y-20611928D01*
X79550000Y-20611928D01*
X79425518Y-20624188D01*
X79305820Y-20660498D01*
X79195506Y-20719463D01*
X79098815Y-20798815D01*
X79019463Y-20895506D01*
X78960498Y-21005820D01*
X78924188Y-21125518D01*
X78911928Y-21250000D01*
X78911928Y-22950000D01*
X78924188Y-23074482D01*
X78960498Y-23194180D01*
X79019463Y-23304494D01*
X79098815Y-23401185D01*
X79195506Y-23480537D01*
X79305820Y-23539502D01*
X79425518Y-23575812D01*
X79550000Y-23588072D01*
X81250000Y-23588072D01*
X81374482Y-23575812D01*
X81494180Y-23539502D01*
X81604494Y-23480537D01*
X81701185Y-23401185D01*
X81780537Y-23304494D01*
X81839502Y-23194180D01*
X81875812Y-23074482D01*
X81888072Y-22950000D01*
X81888072Y-21651374D01*
X85804447Y-17735000D01*
X86763895Y-17735000D01*
X86800000Y-17738556D01*
X86836105Y-17735000D01*
X86944085Y-17724365D01*
X87082633Y-17682337D01*
X87210320Y-17614087D01*
X87322238Y-17522238D01*
X87414087Y-17410320D01*
X87482337Y-17282633D01*
X87524365Y-17144085D01*
X87538556Y-17000000D01*
X87535000Y-16963895D01*
X87535000Y-1404446D01*
X89815001Y875554D01*
X89815000Y-24340000D01*
X11905802Y-24340000D01*
X11959774Y-24303937D01*
X12028711Y-24235000D01*
X12363895Y-24235000D01*
X12400000Y-24238556D01*
X12436105Y-24235000D01*
X12544085Y-24224365D01*
X12682633Y-24182337D01*
X12810320Y-24114087D01*
X12922238Y-24022238D01*
X12945259Y-23994187D01*
X13194192Y-23745254D01*
X13222237Y-23722238D01*
X13314087Y-23610320D01*
X13382337Y-23482633D01*
X13411616Y-23386114D01*
X13424365Y-23344086D01*
X13438556Y-23200001D01*
X13435000Y-23163896D01*
X13435000Y-16728711D01*
X13503937Y-16659774D01*
X13617205Y-16490256D01*
X13695226Y-16301898D01*
X13728424Y-16135000D01*
X16471289Y-16135000D01*
X16540226Y-16203937D01*
X16709744Y-16317205D01*
X16898102Y-16395226D01*
X17098061Y-16435000D01*
X17301939Y-16435000D01*
X17501898Y-16395226D01*
X17690256Y-16317205D01*
X17859774Y-16203937D01*
X17928711Y-16135000D01*
X21071289Y-16135000D01*
X21140226Y-16203937D01*
X21309744Y-16317205D01*
X21498102Y-16395226D01*
X21698061Y-16435000D01*
X21901939Y-16435000D01*
X22101898Y-16395226D01*
X22290256Y-16317205D01*
X22459774Y-16203937D01*
X22603937Y-16059774D01*
X22717205Y-15890256D01*
X22795226Y-15701898D01*
X22835000Y-15501939D01*
X22835000Y-15298061D01*
X22795226Y-15098102D01*
X22717205Y-14909744D01*
X22603937Y-14740226D01*
X22459774Y-14596063D01*
X22290256Y-14482795D01*
X22101898Y-14404774D01*
X21901939Y-14365000D01*
X21698061Y-14365000D01*
X21498102Y-14404774D01*
X21309744Y-14482795D01*
X21140226Y-14596063D01*
X21071289Y-14665000D01*
X17928711Y-14665000D01*
X17859774Y-14596063D01*
X17690256Y-14482795D01*
X17501898Y-14404774D01*
X17301939Y-14365000D01*
X17098061Y-14365000D01*
X16898102Y-14404774D01*
X16709744Y-14482795D01*
X16540226Y-14596063D01*
X16471289Y-14665000D01*
X13336096Y-14665000D01*
X13299999Y-14661445D01*
X13263902Y-14665000D01*
X13263895Y-14665000D01*
X13170132Y-14674235D01*
X13155914Y-14675635D01*
X13117774Y-14687205D01*
X13017367Y-14717663D01*
X12889680Y-14785913D01*
X12777762Y-14877762D01*
X12754746Y-14905807D01*
X12695553Y-14965000D01*
X12598061Y-14965000D01*
X12398102Y-15004774D01*
X12209744Y-15082795D01*
X12040226Y-15196063D01*
X11896063Y-15340226D01*
X11782795Y-15509744D01*
X11704774Y-15698102D01*
X11665000Y-15898061D01*
X11665000Y-16101939D01*
X11704774Y-16301898D01*
X11782795Y-16490256D01*
X11896063Y-16659774D01*
X11965001Y-16728712D01*
X11965000Y-22701289D01*
X11959774Y-22696063D01*
X11790256Y-22582795D01*
X11601898Y-22504774D01*
X11401939Y-22465000D01*
X11198061Y-22465000D01*
X10998102Y-22504774D01*
X10809744Y-22582795D01*
X10640226Y-22696063D01*
X10496063Y-22840226D01*
X10382795Y-23009744D01*
X10304774Y-23198102D01*
X10265000Y-23398061D01*
X10265000Y-23601939D01*
X10304774Y-23801898D01*
X10382795Y-23990256D01*
X10496063Y-24159774D01*
X10640226Y-24303937D01*
X10694198Y-24340000D01*
X-8865000Y-24340000D01*
X-8865000Y15300000D01*
X-6938556Y15300000D01*
X-6935000Y15263895D01*
X-6934999Y-17463885D01*
X-6938556Y-17500000D01*
X-6924365Y-17644085D01*
X-6895707Y-17738556D01*
X-6882336Y-17782633D01*
X-6814086Y-17910320D01*
X-6722237Y-18022238D01*
X-6694192Y-18045254D01*
X-2945254Y-21794193D01*
X-2922238Y-21822238D01*
X-2894194Y-21845253D01*
X-2810320Y-21914087D01*
X-2682634Y-21982337D01*
X-2544085Y-22024365D01*
X-2400000Y-22038556D01*
X-2363895Y-22035000D01*
X6763895Y-22035000D01*
X6800000Y-22038556D01*
X6836105Y-22035000D01*
X6944085Y-22024365D01*
X7082633Y-21982337D01*
X7210320Y-21914087D01*
X7322238Y-21822238D01*
X7345258Y-21794188D01*
X8694197Y-20445250D01*
X8722237Y-20422238D01*
X8745250Y-20394197D01*
X8745253Y-20394194D01*
X8802560Y-20324365D01*
X8814087Y-20310320D01*
X8882337Y-20182633D01*
X8924365Y-20044085D01*
X8935000Y-19936105D01*
X8935000Y-19936104D01*
X8938556Y-19900000D01*
X8935000Y-19863895D01*
X8935000Y-16628711D01*
X9003937Y-16559774D01*
X9117205Y-16390256D01*
X9195226Y-16201898D01*
X9235000Y-16001939D01*
X9235000Y-15798061D01*
X9195226Y-15598102D01*
X9117205Y-15409744D01*
X9003937Y-15240226D01*
X8859774Y-15096063D01*
X8690256Y-14982795D01*
X8501898Y-14904774D01*
X8301939Y-14865000D01*
X8098061Y-14865000D01*
X7898102Y-14904774D01*
X7709744Y-14982795D01*
X7540226Y-15096063D01*
X7396063Y-15240226D01*
X7282795Y-15409744D01*
X7204774Y-15598102D01*
X7165000Y-15798061D01*
X7165000Y-16001939D01*
X7204774Y-16201898D01*
X7282795Y-16390256D01*
X7396063Y-16559774D01*
X7465001Y-16628712D01*
X7465000Y-19595553D01*
X6495554Y-20565000D01*
X-2095553Y-20565000D01*
X-5465000Y-17195554D01*
X-5465000Y-12191229D01*
X-3135000Y-12191229D01*
X-3135000Y-12808771D01*
X-3014524Y-13414446D01*
X-2778201Y-13984979D01*
X-2435114Y-14498446D01*
X-1998446Y-14935114D01*
X-1484979Y-15278201D01*
X-914446Y-15514524D01*
X-308771Y-15635000D01*
X308771Y-15635000D01*
X914446Y-15514524D01*
X1484979Y-15278201D01*
X1998446Y-14935114D01*
X2435114Y-14498446D01*
X2778201Y-13984979D01*
X3014524Y-13414446D01*
X3135000Y-12808771D01*
X3135000Y-12191229D01*
X3014524Y-11585554D01*
X2778201Y-11015021D01*
X2435114Y-10501554D01*
X1998446Y-10064886D01*
X1484979Y-9721799D01*
X914446Y-9485476D01*
X308771Y-9365000D01*
X-308771Y-9365000D01*
X-914446Y-9485476D01*
X-1484979Y-9721799D01*
X-1998446Y-10064886D01*
X-2435114Y-10501554D01*
X-2778201Y-11015021D01*
X-3014524Y-11585554D01*
X-3135000Y-12191229D01*
X-5465000Y-12191229D01*
X-5465000Y12808771D01*
X-3135000Y12808771D01*
X-3135000Y12191229D01*
X-3014524Y11585554D01*
X-2778201Y11015021D01*
X-2435114Y10501554D01*
X-1998446Y10064886D01*
X-1484979Y9721799D01*
X-914446Y9485476D01*
X-308771Y9365000D01*
X308771Y9365000D01*
X914446Y9485476D01*
X1484979Y9721799D01*
X1998446Y10064886D01*
X2435114Y10501554D01*
X2778201Y11015021D01*
X2814203Y11101939D01*
X17765000Y11101939D01*
X17765000Y10898061D01*
X17804774Y10698102D01*
X17882795Y10509744D01*
X17996063Y10340226D01*
X18065000Y10271289D01*
X18065001Y10228712D01*
X17996063Y10159774D01*
X17882795Y9990256D01*
X17804774Y9801898D01*
X17765000Y9601939D01*
X17765000Y9398061D01*
X17804774Y9198102D01*
X17882795Y9009744D01*
X17996063Y8840226D01*
X18140226Y8696063D01*
X18309744Y8582795D01*
X18498102Y8504774D01*
X18698061Y8465000D01*
X18901939Y8465000D01*
X19101898Y8504774D01*
X19290256Y8582795D01*
X19459774Y8696063D01*
X19603937Y8840226D01*
X19717205Y9009744D01*
X19795226Y9198102D01*
X19835000Y9398061D01*
X19835000Y9601939D01*
X19795226Y9801898D01*
X19717205Y9990256D01*
X19603937Y10159774D01*
X19535000Y10228711D01*
X19535000Y10271289D01*
X19603937Y10340226D01*
X19717205Y10509744D01*
X19795226Y10698102D01*
X19835000Y10898061D01*
X19835000Y11101939D01*
X23065000Y11101939D01*
X23065000Y10898061D01*
X23104774Y10698102D01*
X23182795Y10509744D01*
X23296063Y10340226D01*
X23365000Y10271289D01*
X23365001Y9778702D01*
X23296063Y9709764D01*
X23182795Y9540246D01*
X23104774Y9351888D01*
X23065000Y9151929D01*
X23065000Y8948051D01*
X23104774Y8748092D01*
X23182795Y8559734D01*
X23296063Y8390216D01*
X23440226Y8246053D01*
X23609744Y8132785D01*
X23798102Y8054764D01*
X23998061Y8014990D01*
X24201939Y8014990D01*
X24401898Y8054764D01*
X24590256Y8132785D01*
X24759774Y8246053D01*
X24903937Y8390216D01*
X25017205Y8559734D01*
X25095226Y8748092D01*
X25135000Y8948051D01*
X25135000Y9151929D01*
X25095226Y9351888D01*
X25017205Y9540246D01*
X24903937Y9709764D01*
X24835000Y9778701D01*
X24835000Y10271289D01*
X24903937Y10340226D01*
X25017205Y10509744D01*
X25095226Y10698102D01*
X25135000Y10898061D01*
X25135000Y11101939D01*
X25095226Y11301898D01*
X25017205Y11490256D01*
X24903937Y11659774D01*
X24759774Y11803937D01*
X24590256Y11917205D01*
X24401898Y11995226D01*
X24201939Y12035000D01*
X23998061Y12035000D01*
X23798102Y11995226D01*
X23609744Y11917205D01*
X23440226Y11803937D01*
X23296063Y11659774D01*
X23182795Y11490256D01*
X23104774Y11301898D01*
X23065000Y11101939D01*
X19835000Y11101939D01*
X19795226Y11301898D01*
X19717205Y11490256D01*
X19603937Y11659774D01*
X19459774Y11803937D01*
X19290256Y11917205D01*
X19101898Y11995226D01*
X18901939Y12035000D01*
X18698061Y12035000D01*
X18498102Y11995226D01*
X18309744Y11917205D01*
X18140226Y11803937D01*
X17996063Y11659774D01*
X17882795Y11490256D01*
X17804774Y11301898D01*
X17765000Y11101939D01*
X2814203Y11101939D01*
X3014524Y11585554D01*
X3135000Y12191229D01*
X3135000Y12801939D01*
X29665000Y12801939D01*
X29665000Y12598061D01*
X29704774Y12398102D01*
X29782795Y12209744D01*
X29896063Y12040226D01*
X29965000Y11971289D01*
X29965001Y9328692D01*
X29896063Y9259754D01*
X29782795Y9090236D01*
X29704774Y8901878D01*
X29665000Y8701919D01*
X29665000Y8498041D01*
X29704774Y8298082D01*
X29782795Y8109724D01*
X29896063Y7940206D01*
X30040226Y7796043D01*
X30209744Y7682775D01*
X30398102Y7604754D01*
X30598061Y7564980D01*
X30801939Y7564980D01*
X31001898Y7604754D01*
X31190256Y7682775D01*
X31359774Y7796043D01*
X31503937Y7940206D01*
X31617205Y8109724D01*
X31676100Y8251909D01*
X34665000Y8251909D01*
X34665000Y8048031D01*
X34704774Y7848072D01*
X34782795Y7659714D01*
X34896063Y7490196D01*
X35040226Y7346033D01*
X35209744Y7232765D01*
X35398102Y7154744D01*
X35598061Y7114970D01*
X35801939Y7114970D01*
X36001898Y7154744D01*
X36190256Y7232765D01*
X36359774Y7346033D01*
X36503937Y7490196D01*
X36617205Y7659714D01*
X36695226Y7848072D01*
X36735000Y8048031D01*
X36735000Y8251909D01*
X36695226Y8451868D01*
X36617205Y8640226D01*
X36543008Y8751270D01*
X36543008Y11963281D01*
X36611945Y12032218D01*
X36725213Y12201736D01*
X36803234Y12390094D01*
X36843008Y12590053D01*
X36843008Y12793931D01*
X36803234Y12993890D01*
X36725213Y13182248D01*
X36611945Y13351766D01*
X36467782Y13495929D01*
X36298264Y13609197D01*
X36109906Y13687218D01*
X35909947Y13726992D01*
X35706069Y13726992D01*
X35506110Y13687218D01*
X35317752Y13609197D01*
X35148234Y13495929D01*
X35004071Y13351766D01*
X34890803Y13182248D01*
X34812782Y12993890D01*
X34773008Y12793931D01*
X34773008Y12590053D01*
X34812782Y12390094D01*
X34890803Y12201736D01*
X35004071Y12032218D01*
X35073008Y11963281D01*
X35073009Y8975812D01*
X35040226Y8953907D01*
X34896063Y8809744D01*
X34782795Y8640226D01*
X34704774Y8451868D01*
X34665000Y8251909D01*
X31676100Y8251909D01*
X31695226Y8298082D01*
X31735000Y8498041D01*
X31735000Y8701919D01*
X31695226Y8901878D01*
X31617205Y9090236D01*
X31503937Y9259754D01*
X31435000Y9328691D01*
X31435000Y11971289D01*
X31503937Y12040226D01*
X31617205Y12209744D01*
X31695226Y12398102D01*
X31735000Y12598061D01*
X31735000Y12801939D01*
X31695226Y13001898D01*
X31617205Y13190256D01*
X31503937Y13359774D01*
X31359774Y13503937D01*
X31190256Y13617205D01*
X31001898Y13695226D01*
X30801939Y13735000D01*
X30598061Y13735000D01*
X30398102Y13695226D01*
X30209744Y13617205D01*
X30040226Y13503937D01*
X29896063Y13359774D01*
X29782795Y13190256D01*
X29704774Y13001898D01*
X29665000Y12801939D01*
X3135000Y12801939D01*
X3135000Y12808771D01*
X3014524Y13414446D01*
X2778201Y13984979D01*
X2435114Y14498446D01*
X1998446Y14935114D01*
X1484979Y15278201D01*
X914446Y15514524D01*
X308771Y15635000D01*
X-308771Y15635000D01*
X-914446Y15514524D01*
X-1484979Y15278201D01*
X-1998446Y14935114D01*
X-2435114Y14498446D01*
X-2778201Y13984979D01*
X-3014524Y13414446D01*
X-3135000Y12808771D01*
X-5465000Y12808771D01*
X-5465000Y14995554D01*
X1304447Y21765000D01*
X22495554Y21765000D01*
X28269747Y15990806D01*
X28292763Y15962761D01*
X28404681Y15870912D01*
X28532368Y15802662D01*
X28628887Y15773383D01*
X28670915Y15760634D01*
X28815001Y15746443D01*
X28851106Y15749999D01*
X47326568Y15749999D01*
X45953562Y14376992D01*
X45856069Y14376992D01*
X45656110Y14337218D01*
X45467752Y14259197D01*
X45298234Y14145929D01*
X45154071Y14001766D01*
X45040803Y13832248D01*
X44962782Y13643890D01*
X44923008Y13443931D01*
X44923008Y13240053D01*
X44962782Y13040094D01*
X45040803Y12851736D01*
X45154071Y12682218D01*
X45298234Y12538055D01*
X45461008Y12429293D01*
X41316665Y8284950D01*
X41219172Y8284950D01*
X41073294Y8255933D01*
X41003937Y8359734D01*
X40935000Y8428671D01*
X40935000Y12071289D01*
X41003937Y12140226D01*
X41117205Y12309744D01*
X41195226Y12498102D01*
X41235000Y12698061D01*
X41235000Y12901939D01*
X41195226Y13101898D01*
X41117205Y13290256D01*
X41003937Y13459774D01*
X40859774Y13603937D01*
X40690256Y13717205D01*
X40501898Y13795226D01*
X40301939Y13835000D01*
X40098061Y13835000D01*
X39898102Y13795226D01*
X39709744Y13717205D01*
X39540226Y13603937D01*
X39396063Y13459774D01*
X39282795Y13290256D01*
X39204774Y13101898D01*
X39165000Y12901939D01*
X39165000Y12698061D01*
X39204774Y12498102D01*
X39282795Y12309744D01*
X39396063Y12140226D01*
X39465000Y12071289D01*
X39465001Y8428672D01*
X39396063Y8359734D01*
X39282795Y8190216D01*
X39204774Y8001858D01*
X39165000Y7801899D01*
X39165000Y7598021D01*
X39204774Y7398062D01*
X39282795Y7209704D01*
X39396063Y7040186D01*
X39540226Y6896023D01*
X39709744Y6782755D01*
X39898102Y6704734D01*
X40098061Y6664960D01*
X40301939Y6664960D01*
X40447817Y6693977D01*
X40517174Y6590176D01*
X40661337Y6446013D01*
X40830855Y6332745D01*
X41019213Y6254724D01*
X41219172Y6214950D01*
X41423050Y6214950D01*
X41623009Y6254724D01*
X41811367Y6332745D01*
X41980885Y6446013D01*
X42125048Y6590176D01*
X42238316Y6759694D01*
X42316337Y6948052D01*
X42356111Y7148011D01*
X42356111Y7245504D01*
X47325600Y12214992D01*
X49021281Y12214992D01*
X49090218Y12146055D01*
X49259736Y12032787D01*
X49448094Y11954766D01*
X49648053Y11914992D01*
X49851931Y11914992D01*
X50051890Y11954766D01*
X50240248Y12032787D01*
X50409766Y12146055D01*
X50553929Y12290218D01*
X50667197Y12459736D01*
X50745218Y12648094D01*
X50784992Y12848053D01*
X50784992Y12945546D01*
X52004447Y14165000D01*
X54817305Y14165000D01*
X54754071Y14101766D01*
X54640803Y13932248D01*
X54562782Y13743890D01*
X54523008Y13543931D01*
X54523008Y13340053D01*
X54562782Y13140094D01*
X54640803Y12951736D01*
X54754071Y12782218D01*
X54898234Y12638055D01*
X55067752Y12524787D01*
X55256110Y12446766D01*
X55456069Y12406992D01*
X55659947Y12406992D01*
X55859906Y12446766D01*
X56048264Y12524787D01*
X56217782Y12638055D01*
X56361945Y12782218D01*
X56475213Y12951736D01*
X56553234Y13140094D01*
X56593008Y13340053D01*
X56593008Y13415000D01*
X58906444Y13415000D01*
X58740226Y13303937D01*
X58596063Y13159774D01*
X58482795Y12990256D01*
X58404774Y12801898D01*
X58365000Y12601939D01*
X58365000Y12471193D01*
X58317664Y12382633D01*
X58294719Y12306992D01*
X58275636Y12244086D01*
X58261445Y12100001D01*
X58265001Y12063896D01*
X58265002Y7836114D01*
X58261445Y7799999D01*
X58275636Y7655914D01*
X58313049Y7532583D01*
X58317665Y7517366D01*
X58385915Y7389679D01*
X58477764Y7277761D01*
X58505809Y7254745D01*
X59365000Y6395553D01*
X59365000Y6298061D01*
X59404774Y6098102D01*
X59482795Y5909744D01*
X59596063Y5740226D01*
X59740226Y5596063D01*
X59909744Y5482795D01*
X60098102Y5404774D01*
X60298061Y5365000D01*
X60501939Y5365000D01*
X60701898Y5404774D01*
X60890256Y5482795D01*
X61059774Y5596063D01*
X61203937Y5740226D01*
X61317205Y5909744D01*
X61395226Y6098102D01*
X61435000Y6298061D01*
X61435000Y6501939D01*
X61395226Y6701898D01*
X61317205Y6890256D01*
X61203937Y7059774D01*
X61059774Y7203937D01*
X60890256Y7317205D01*
X60701898Y7395226D01*
X60501939Y7435000D01*
X60404447Y7435000D01*
X59735001Y8104445D01*
X59735001Y11518486D01*
X59890256Y11582795D01*
X60059774Y11696063D01*
X60203937Y11840226D01*
X60317205Y12009744D01*
X60395226Y12198102D01*
X60435000Y12398061D01*
X60435000Y12495553D01*
X60604447Y12665000D01*
X63173008Y12665000D01*
X63173008Y12490053D01*
X63212782Y12290094D01*
X63290803Y12101736D01*
X63404071Y11932218D01*
X63473008Y11863281D01*
X63473009Y7986670D01*
X63396063Y7909724D01*
X63282795Y7740206D01*
X63204774Y7551848D01*
X63165000Y7351889D01*
X63165000Y7148011D01*
X63204774Y6948052D01*
X63282795Y6759694D01*
X63396063Y6590176D01*
X63540226Y6446013D01*
X63709744Y6332745D01*
X63898102Y6254724D01*
X64098061Y6214950D01*
X64301939Y6214950D01*
X64501898Y6254724D01*
X64690256Y6332745D01*
X64859774Y6446013D01*
X65003937Y6590176D01*
X65117205Y6759694D01*
X65195226Y6948052D01*
X65235000Y7148011D01*
X65235000Y7351889D01*
X65195226Y7551848D01*
X65117205Y7740206D01*
X65003937Y7909724D01*
X64943008Y7970653D01*
X64943008Y11863281D01*
X65011945Y11932218D01*
X65125213Y12101736D01*
X65203234Y12290094D01*
X65243008Y12490053D01*
X65243008Y12665000D01*
X67665000Y12665000D01*
X67665000Y12498061D01*
X67704774Y12298102D01*
X67782795Y12109744D01*
X67896063Y11940226D01*
X67965000Y11871289D01*
X67965001Y7528652D01*
X67896063Y7459714D01*
X67782795Y7290196D01*
X67704774Y7101838D01*
X67665000Y6901879D01*
X67665000Y6698001D01*
X67704774Y6498042D01*
X67782795Y6309684D01*
X67896063Y6140166D01*
X68040226Y5996003D01*
X68209744Y5882735D01*
X68398102Y5804714D01*
X68598061Y5764940D01*
X68801939Y5764940D01*
X69001898Y5804714D01*
X69190256Y5882735D01*
X69359774Y5996003D01*
X69503937Y6140166D01*
X69617205Y6309684D01*
X69695226Y6498042D01*
X69735000Y6698001D01*
X69735000Y6901879D01*
X69695226Y7101838D01*
X69617205Y7290196D01*
X69503937Y7459714D01*
X69435000Y7528651D01*
X69435000Y11871289D01*
X69503937Y11940226D01*
X69617205Y12109744D01*
X69695226Y12298102D01*
X69735000Y12498061D01*
X69735000Y12665000D01*
X72723008Y12665000D01*
X72723008Y12540053D01*
X72762782Y12340094D01*
X72840803Y12151736D01*
X72954071Y11982218D01*
X73098234Y11838055D01*
X73267752Y11724787D01*
X73456110Y11646766D01*
X73656069Y11606992D01*
X73859947Y11606992D01*
X74059906Y11646766D01*
X74248264Y11724787D01*
X74348370Y11791675D01*
X80935002Y5205042D01*
X80935002Y5107550D01*
X80974776Y4907591D01*
X81052797Y4719233D01*
X81166065Y4549715D01*
X81310228Y4405552D01*
X81479746Y4292284D01*
X81668104Y4214263D01*
X81851118Y4177859D01*
X81855150Y4157591D01*
X81933171Y3969233D01*
X82046439Y3799715D01*
X82115376Y3730778D01*
X82115376Y3454823D01*
X80512132Y1851579D01*
X80407782Y1955929D01*
X80238264Y2069197D01*
X80049906Y2147218D01*
X79849947Y2186992D01*
X79752455Y2186992D01*
X79280865Y2658581D01*
X79355226Y2838102D01*
X79395000Y3038061D01*
X79395000Y3241939D01*
X79355226Y3441898D01*
X79277205Y3630256D01*
X79163937Y3799774D01*
X79019774Y3943937D01*
X78850256Y4057205D01*
X78661898Y4135226D01*
X78461939Y4175000D01*
X78258061Y4175000D01*
X78058102Y4135226D01*
X77869744Y4057205D01*
X77700226Y3943937D01*
X77651289Y3895000D01*
X69468711Y3895000D01*
X69399774Y3963937D01*
X69230256Y4077205D01*
X69041898Y4155226D01*
X68841939Y4195000D01*
X68638061Y4195000D01*
X68438102Y4155226D01*
X68249744Y4077205D01*
X68080226Y3963937D01*
X68011289Y3895000D01*
X59958711Y3895000D01*
X59889774Y3963937D01*
X59720256Y4077205D01*
X59531898Y4155226D01*
X59331939Y4195000D01*
X59128061Y4195000D01*
X58928102Y4155226D01*
X58739744Y4077205D01*
X58570226Y3963937D01*
X58541289Y3935000D01*
X50458711Y3935000D01*
X50389774Y4003937D01*
X50220256Y4117205D01*
X50031898Y4195226D01*
X49831939Y4235000D01*
X49628061Y4235000D01*
X49428102Y4195226D01*
X49239744Y4117205D01*
X49070226Y4003937D01*
X49001289Y3935000D01*
X40888711Y3935000D01*
X40819774Y4003937D01*
X40650256Y4117205D01*
X40461898Y4195226D01*
X40261939Y4235000D01*
X40058061Y4235000D01*
X39858102Y4195226D01*
X39669744Y4117205D01*
X39500226Y4003937D01*
X39421289Y3925000D01*
X30448711Y3925000D01*
X30379774Y3993937D01*
X30210256Y4107205D01*
X30021898Y4185226D01*
X29821939Y4225000D01*
X29618061Y4225000D01*
X29418102Y4185226D01*
X29229744Y4107205D01*
X29060226Y3993937D01*
X28991289Y3925000D01*
X25260536Y3925000D01*
X25337205Y4039744D01*
X25415226Y4228102D01*
X25455000Y4428061D01*
X25455000Y4631939D01*
X25415226Y4831898D01*
X25337205Y5020256D01*
X25223937Y5189774D01*
X25079774Y5333937D01*
X24910256Y5447205D01*
X24721898Y5525226D01*
X24521939Y5565000D01*
X24318061Y5565000D01*
X24118102Y5525226D01*
X23929744Y5447205D01*
X23760226Y5333937D01*
X23616063Y5189774D01*
X23502795Y5020256D01*
X23424774Y4831898D01*
X23385000Y4631939D01*
X23385000Y4534447D01*
X22834171Y3983617D01*
X22845000Y4038061D01*
X22845000Y4241939D01*
X22805226Y4441898D01*
X22727205Y4630256D01*
X22613937Y4799774D01*
X22469774Y4943937D01*
X22300256Y5057205D01*
X22111898Y5135226D01*
X21911939Y5175000D01*
X21708061Y5175000D01*
X21508102Y5135226D01*
X21319744Y5057205D01*
X21150226Y4943937D01*
X21081289Y4875000D01*
X18018711Y4875000D01*
X18023937Y4880226D01*
X18137205Y5049744D01*
X18215226Y5238102D01*
X18255000Y5438061D01*
X18255000Y5641939D01*
X18215226Y5841898D01*
X18137205Y6030256D01*
X18023937Y6199774D01*
X17879774Y6343937D01*
X17710256Y6457205D01*
X17521898Y6535226D01*
X17321939Y6575000D01*
X17118061Y6575000D01*
X16918102Y6535226D01*
X16729744Y6457205D01*
X16560226Y6343937D01*
X16491289Y6275000D01*
X2626351Y6275000D01*
X2524928Y6426791D01*
X2326791Y6624928D01*
X2093806Y6780603D01*
X1834928Y6887834D01*
X1560104Y6942500D01*
X1279896Y6942500D01*
X1005072Y6887834D01*
X746194Y6780603D01*
X513209Y6624928D01*
X315072Y6426791D01*
X159397Y6193806D01*
X52166Y5934928D01*
X-2500Y5660104D01*
X-2500Y5379896D01*
X52166Y5105072D01*
X147465Y4875000D01*
X-200285Y4875000D01*
X-315072Y5046791D01*
X-513209Y5244928D01*
X-746194Y5400603D01*
X-1005072Y5507834D01*
X-1279896Y5562500D01*
X-1560104Y5562500D01*
X-1834928Y5507834D01*
X-2093806Y5400603D01*
X-2326791Y5244928D01*
X-2524928Y5046791D01*
X-2680603Y4813806D01*
X-2787834Y4554928D01*
X-2842500Y4280104D01*
X-2842500Y3999896D01*
X-2787834Y3725072D01*
X-2680603Y3466194D01*
X-2524928Y3233209D01*
X-2326791Y3035072D01*
X-2093806Y2879397D01*
X-1834928Y2772166D01*
X-1773766Y2760000D01*
X-1834928Y2747834D01*
X-2093806Y2640603D01*
X-2326791Y2484928D01*
X-2524928Y2286791D01*
X-2680603Y2053806D01*
X-2787834Y1794928D01*
X-2842500Y1520104D01*
X-2842500Y1239896D01*
X-2787834Y965072D01*
X-2680603Y706194D01*
X-2524928Y473209D01*
X-2326791Y275072D01*
X-2093806Y119397D01*
X-1834928Y12166D01*
X-1773766Y0D01*
X-1834928Y-12166D01*
X-2093806Y-119397D01*
X-2326791Y-275072D01*
X-2524928Y-473209D01*
X-2680603Y-706194D01*
X-2787834Y-965072D01*
X-2842500Y-1239896D01*
X-2842500Y-1520104D01*
X-2787834Y-1794928D01*
X-2680603Y-2053806D01*
X-2524928Y-2286791D01*
X-2326791Y-2484928D01*
X-2093806Y-2640603D01*
X-1834928Y-2747834D01*
X-1773766Y-2760000D01*
X-1834928Y-2772166D01*
X-2093806Y-2879397D01*
X-2326791Y-3035072D01*
X-2524928Y-3233209D01*
X-2680603Y-3466194D01*
X-2787834Y-3725072D01*
X-2842500Y-3999896D01*
X-2842500Y-4280104D01*
X-2787834Y-4554928D01*
X-2680603Y-4813806D01*
X-2524928Y-5046791D01*
X-2326791Y-5244928D01*
X-2093806Y-5400603D01*
X-1834928Y-5507834D01*
X-1560104Y-5562500D01*
X-1279896Y-5562500D01*
X-1005072Y-5507834D01*
X-746194Y-5400603D01*
X-513209Y-5244928D01*
X-315072Y-5046791D01*
X-220331Y-4905000D01*
X-5572Y-4905000D01*
X-5572Y-6307500D01*
X6688Y-6431982D01*
X42998Y-6551680D01*
X101963Y-6661994D01*
X181315Y-6758685D01*
X278006Y-6838037D01*
X388320Y-6897002D01*
X508018Y-6933312D01*
X632500Y-6945572D01*
X2207500Y-6945572D01*
X2331982Y-6933312D01*
X2451680Y-6897002D01*
X2561994Y-6838037D01*
X2658685Y-6758685D01*
X2738037Y-6661994D01*
X2797002Y-6551680D01*
X2833312Y-6431982D01*
X2845572Y-6307500D01*
X2845572Y-6235000D01*
X7271289Y-6235000D01*
X7340226Y-6303937D01*
X7509744Y-6417205D01*
X7698102Y-6495226D01*
X7898061Y-6535000D01*
X8101939Y-6535000D01*
X8301898Y-6495226D01*
X8490256Y-6417205D01*
X8659774Y-6303937D01*
X8803937Y-6159774D01*
X8917205Y-5990256D01*
X8995226Y-5801898D01*
X9035000Y-5601939D01*
X9035000Y-5398061D01*
X8995226Y-5198102D01*
X8917205Y-5009744D01*
X8847217Y-4905000D01*
X12021289Y-4905000D01*
X12090226Y-4973937D01*
X12259744Y-5087205D01*
X12448102Y-5165226D01*
X12648061Y-5205000D01*
X12851939Y-5205000D01*
X13051898Y-5165226D01*
X13240256Y-5087205D01*
X13409774Y-4973937D01*
X13553937Y-4829774D01*
X13667205Y-4660256D01*
X13745226Y-4471898D01*
X13785000Y-4271939D01*
X13785000Y-4068061D01*
X13745226Y-3868102D01*
X13667205Y-3679744D01*
X13553937Y-3510226D01*
X13538711Y-3495000D01*
X16251289Y-3495000D01*
X16320226Y-3563937D01*
X16489744Y-3677205D01*
X16678102Y-3755226D01*
X16878061Y-3795000D01*
X17081939Y-3795000D01*
X17281898Y-3755226D01*
X17470256Y-3677205D01*
X17639774Y-3563937D01*
X17783937Y-3419774D01*
X17897205Y-3250256D01*
X17975226Y-3061898D01*
X17977753Y-3049193D01*
X17989744Y-3057205D01*
X18178102Y-3135226D01*
X18378061Y-3175000D01*
X18475553Y-3175000D01*
X18504746Y-3204193D01*
X18527762Y-3232238D01*
X18620152Y-3308061D01*
X18639680Y-3324087D01*
X18767366Y-3392337D01*
X18905915Y-3434365D01*
X18935000Y-3437230D01*
X18935000Y-3611939D01*
X18974774Y-3811898D01*
X19052795Y-4000256D01*
X19166063Y-4169774D01*
X19235001Y-4238712D01*
X19235000Y-7342905D01*
X19231444Y-7379010D01*
X19245635Y-7523095D01*
X19250325Y-7538556D01*
X19287663Y-7661642D01*
X19355913Y-7789329D01*
X19447762Y-7901247D01*
X19475808Y-7924264D01*
X23616543Y-12065000D01*
X23498061Y-12065000D01*
X23298102Y-12104774D01*
X23109744Y-12182795D01*
X22940226Y-12296063D01*
X22796063Y-12440226D01*
X22682795Y-12609744D01*
X22604774Y-12798102D01*
X22565000Y-12998061D01*
X22565000Y-13201939D01*
X22604774Y-13401898D01*
X22682795Y-13590256D01*
X22796063Y-13759774D01*
X22940226Y-13903937D01*
X23109744Y-14017205D01*
X23298102Y-14095226D01*
X23498061Y-14135000D01*
X23595554Y-14135000D01*
X24365000Y-14904447D01*
X24365001Y-16246887D01*
X24361444Y-16283002D01*
X24375635Y-16427087D01*
X24391008Y-16477763D01*
X24417664Y-16565635D01*
X24485914Y-16693322D01*
X24577763Y-16805240D01*
X24605808Y-16828256D01*
X27871744Y-20094193D01*
X27894760Y-20122238D01*
X27922804Y-20145253D01*
X28006678Y-20214087D01*
X28134364Y-20282337D01*
X28272913Y-20324365D01*
X28416998Y-20338556D01*
X28453103Y-20335000D01*
X29107676Y-20335000D01*
X29128927Y-20386305D01*
X29310594Y-20658188D01*
X29541812Y-20889406D01*
X29813695Y-21071073D01*
X30115796Y-21196207D01*
X30436504Y-21260000D01*
X30763496Y-21260000D01*
X31084204Y-21196207D01*
X31386305Y-21071073D01*
X31658188Y-20889406D01*
X31889406Y-20658188D01*
X32071073Y-20386305D01*
X32196207Y-20084204D01*
X32260000Y-19763496D01*
X32260000Y-19436504D01*
X32196207Y-19115796D01*
X32071073Y-18813695D01*
X31889406Y-18541812D01*
X31658188Y-18310594D01*
X31386305Y-18128927D01*
X31084204Y-18003793D01*
X30763496Y-17940000D01*
X30436504Y-17940000D01*
X30115796Y-18003793D01*
X29813695Y-18128927D01*
X29541812Y-18310594D01*
X29310594Y-18541812D01*
X29128927Y-18813695D01*
X29107676Y-18865000D01*
X28721445Y-18865000D01*
X28598430Y-18741985D01*
X28893673Y-18619692D01*
X29181935Y-18427081D01*
X29427081Y-18181935D01*
X29619692Y-17893673D01*
X29660564Y-17795000D01*
X31539436Y-17795000D01*
X31580308Y-17893673D01*
X31772919Y-18181935D01*
X32018065Y-18427081D01*
X32306327Y-18619692D01*
X32405000Y-18660564D01*
X32405001Y-20539436D01*
X32306327Y-20580308D01*
X32018065Y-20772919D01*
X31772919Y-21018065D01*
X31580308Y-21306327D01*
X31539436Y-21405000D01*
X29660564Y-21405000D01*
X29619692Y-21306327D01*
X29427081Y-21018065D01*
X29181935Y-20772919D01*
X28893673Y-20580308D01*
X28573373Y-20447636D01*
X28233345Y-20380000D01*
X27886655Y-20380000D01*
X27546627Y-20447636D01*
X27226327Y-20580308D01*
X26938065Y-20772919D01*
X26692919Y-21018065D01*
X26500308Y-21306327D01*
X26367636Y-21626627D01*
X26300000Y-21966655D01*
X26300000Y-22313345D01*
X26367636Y-22653373D01*
X26500308Y-22973673D01*
X26692919Y-23261935D01*
X26938065Y-23507081D01*
X27226327Y-23699692D01*
X27546627Y-23832364D01*
X27886655Y-23900000D01*
X28233345Y-23900000D01*
X28573373Y-23832364D01*
X28893673Y-23699692D01*
X29181935Y-23507081D01*
X29427081Y-23261935D01*
X29619692Y-22973673D01*
X29660564Y-22875000D01*
X31539436Y-22875000D01*
X31580308Y-22973673D01*
X31772919Y-23261935D01*
X32018065Y-23507081D01*
X32306327Y-23699692D01*
X32626627Y-23832364D01*
X32966655Y-23900000D01*
X33313345Y-23900000D01*
X33653373Y-23832364D01*
X33973673Y-23699692D01*
X34261935Y-23507081D01*
X34507081Y-23261935D01*
X34699692Y-22973673D01*
X34832364Y-22653373D01*
X34900000Y-22313345D01*
X34900000Y-21966655D01*
X34832364Y-21626627D01*
X34699692Y-21306327D01*
X34507081Y-21018065D01*
X34261935Y-20772919D01*
X33973673Y-20580308D01*
X33875000Y-20539436D01*
X33875000Y-18660564D01*
X33973673Y-18619692D01*
X34261935Y-18427081D01*
X34507081Y-18181935D01*
X34699692Y-17893673D01*
X34832364Y-17573373D01*
X34837013Y-17550000D01*
X78911928Y-17550000D01*
X78911928Y-19250000D01*
X78924188Y-19374482D01*
X78960498Y-19494180D01*
X79019463Y-19604494D01*
X79098815Y-19701185D01*
X79195506Y-19780537D01*
X79305820Y-19839502D01*
X79425518Y-19875812D01*
X79550000Y-19888072D01*
X81250000Y-19888072D01*
X81374482Y-19875812D01*
X81494180Y-19839502D01*
X81604494Y-19780537D01*
X81701185Y-19701185D01*
X81780537Y-19604494D01*
X81839502Y-19494180D01*
X81875812Y-19374482D01*
X81888072Y-19250000D01*
X81888072Y-17550000D01*
X81875812Y-17425518D01*
X81839502Y-17305820D01*
X81780537Y-17195506D01*
X81701185Y-17098815D01*
X81604494Y-17019463D01*
X81494180Y-16960498D01*
X81374482Y-16924188D01*
X81250000Y-16911928D01*
X79550000Y-16911928D01*
X79425518Y-16924188D01*
X79305820Y-16960498D01*
X79195506Y-17019463D01*
X79098815Y-17098815D01*
X79019463Y-17195506D01*
X78960498Y-17305820D01*
X78924188Y-17425518D01*
X78911928Y-17550000D01*
X34837013Y-17550000D01*
X34900000Y-17233345D01*
X34900000Y-16886655D01*
X34832364Y-16546627D01*
X34699692Y-16226327D01*
X34507081Y-15938065D01*
X34261935Y-15692919D01*
X33973673Y-15500308D01*
X33653373Y-15367636D01*
X33313345Y-15300000D01*
X32966655Y-15300000D01*
X32626627Y-15367636D01*
X32306327Y-15500308D01*
X32018065Y-15692919D01*
X31772919Y-15938065D01*
X31580308Y-16226327D01*
X31539436Y-16325000D01*
X29660564Y-16325000D01*
X29619692Y-16226327D01*
X29427081Y-15938065D01*
X29181935Y-15692919D01*
X28893673Y-15500308D01*
X28797724Y-15460565D01*
X28784365Y-15324925D01*
X28742337Y-15186376D01*
X28674087Y-15058690D01*
X28629839Y-15004774D01*
X28582238Y-14946772D01*
X28554193Y-14923756D01*
X20705000Y-7074564D01*
X20705000Y-4238711D01*
X20748711Y-4195000D01*
X29971289Y-4195000D01*
X30040226Y-4263937D01*
X30209744Y-4377205D01*
X30398102Y-4455226D01*
X30598061Y-4495000D01*
X30801939Y-4495000D01*
X31001898Y-4455226D01*
X31190256Y-4377205D01*
X31359774Y-4263937D01*
X31428711Y-4195000D01*
X39321289Y-4195000D01*
X39390226Y-4263937D01*
X39559744Y-4377205D01*
X39748102Y-4455226D01*
X39948061Y-4495000D01*
X40151939Y-4495000D01*
X40351898Y-4455226D01*
X40540256Y-4377205D01*
X40709774Y-4263937D01*
X40778711Y-4195000D01*
X49051289Y-4195000D01*
X49070226Y-4213937D01*
X49239744Y-4327205D01*
X49428102Y-4405226D01*
X49628061Y-4445000D01*
X49831939Y-4445000D01*
X50031898Y-4405226D01*
X50220256Y-4327205D01*
X50389774Y-4213937D01*
X50458711Y-4145000D01*
X58511289Y-4145000D01*
X58600226Y-4233937D01*
X58769744Y-4347205D01*
X58958102Y-4425226D01*
X59158061Y-4465000D01*
X59361939Y-4465000D01*
X59561898Y-4425226D01*
X59750256Y-4347205D01*
X59919774Y-4233937D01*
X59988711Y-4165000D01*
X68111749Y-4165000D01*
X68249744Y-4257205D01*
X68438102Y-4335226D01*
X68638061Y-4375000D01*
X68841939Y-4375000D01*
X69041898Y-4335226D01*
X69230256Y-4257205D01*
X69399774Y-4143937D01*
X69468711Y-4075000D01*
X77419510Y-4075000D01*
X77436063Y-4099774D01*
X77580226Y-4243937D01*
X77749744Y-4357205D01*
X77938102Y-4435226D01*
X78138061Y-4475000D01*
X78341939Y-4475000D01*
X78541898Y-4435226D01*
X78730256Y-4357205D01*
X78865001Y-4267172D01*
X78865001Y-6245552D01*
X78614675Y-6495878D01*
X78595226Y-6398102D01*
X78517205Y-6209744D01*
X78403937Y-6040226D01*
X78259774Y-5896063D01*
X78090256Y-5782795D01*
X77901898Y-5704774D01*
X77701939Y-5665000D01*
X77498061Y-5665000D01*
X77298102Y-5704774D01*
X77109744Y-5782795D01*
X76940226Y-5896063D01*
X76871289Y-5965000D01*
X74313285Y-5965000D01*
X74190256Y-5882795D01*
X74001898Y-5804774D01*
X73801939Y-5765000D01*
X73598061Y-5765000D01*
X73398102Y-5804774D01*
X73209744Y-5882795D01*
X73040226Y-5996063D01*
X72896063Y-6140226D01*
X72782795Y-6309744D01*
X72704774Y-6498102D01*
X72665000Y-6698061D01*
X72665000Y-6901939D01*
X72704774Y-7101898D01*
X72782795Y-7290256D01*
X72896063Y-7459774D01*
X73040226Y-7603937D01*
X73209744Y-7717205D01*
X73398102Y-7795226D01*
X73598061Y-7835000D01*
X73801939Y-7835000D01*
X74001898Y-7795226D01*
X74190256Y-7717205D01*
X74359774Y-7603937D01*
X74503937Y-7459774D01*
X74520490Y-7435000D01*
X76871289Y-7435000D01*
X76940226Y-7503937D01*
X77109744Y-7617205D01*
X77298102Y-7695226D01*
X77395879Y-7714675D01*
X77395554Y-7715000D01*
X77298061Y-7715000D01*
X77098102Y-7754774D01*
X76909744Y-7832795D01*
X76740226Y-7946063D01*
X76596063Y-8090226D01*
X76482795Y-8259744D01*
X76404774Y-8448102D01*
X76365000Y-8648061D01*
X76365000Y-8851939D01*
X76404774Y-9051898D01*
X76482795Y-9240256D01*
X76596063Y-9409774D01*
X76740226Y-9553937D01*
X76909744Y-9667205D01*
X77098102Y-9745226D01*
X77298061Y-9785000D01*
X77501939Y-9785000D01*
X77701898Y-9745226D01*
X77890256Y-9667205D01*
X78059774Y-9553937D01*
X78203937Y-9409774D01*
X78317205Y-9240256D01*
X78395226Y-9051898D01*
X78435000Y-8851939D01*
X78435000Y-8754446D01*
X80094193Y-7095254D01*
X80122238Y-7072238D01*
X80214087Y-6960320D01*
X80282337Y-6832633D01*
X80324365Y-6694085D01*
X80335000Y-6586105D01*
X80338556Y-6550000D01*
X80335000Y-6513895D01*
X80335000Y-404446D01*
X83311008Y2571562D01*
X83372614Y2622120D01*
X83464463Y2734038D01*
X83532713Y2861725D01*
X83574741Y3000273D01*
X83588932Y3144358D01*
X83585376Y3180463D01*
X83585376Y3730778D01*
X83654313Y3799715D01*
X83767581Y3969233D01*
X83845602Y4157591D01*
X83885376Y4357550D01*
X83885376Y4561428D01*
X83845602Y4761387D01*
X83767581Y4949745D01*
X83654313Y5119263D01*
X83585376Y5188200D01*
X83585376Y8063530D01*
X83588931Y8099625D01*
X83585376Y8135720D01*
X83585376Y8135729D01*
X83574741Y8243709D01*
X83532713Y8382257D01*
X83464463Y8509944D01*
X83423601Y8559734D01*
X83395629Y8593818D01*
X83395626Y8593821D01*
X83372613Y8621862D01*
X83344573Y8644873D01*
X79335000Y12654446D01*
X79335000Y12665000D01*
X82325131Y12665000D01*
X82209744Y12617205D01*
X82040226Y12503937D01*
X81896063Y12359774D01*
X81782795Y12190256D01*
X81704774Y12001898D01*
X81665000Y11801939D01*
X81665000Y11598061D01*
X81704774Y11398102D01*
X81782795Y11209744D01*
X81896063Y11040226D01*
X82040226Y10896063D01*
X82209744Y10782795D01*
X82398102Y10704774D01*
X82598061Y10665000D01*
X82801939Y10665000D01*
X83001898Y10704774D01*
X83190256Y10782795D01*
X83359774Y10896063D01*
X83503937Y11040226D01*
X83617205Y11209744D01*
X83695226Y11398102D01*
X83735000Y11598061D01*
X83735000Y11801939D01*
X83695226Y12001898D01*
X83617205Y12190256D01*
X83503937Y12359774D01*
X83359774Y12503937D01*
X83190256Y12617205D01*
X83074869Y12665000D01*
X83992442Y12665000D01*
X83965000Y12527037D01*
X83965000Y12323159D01*
X84004774Y12123200D01*
X84082795Y11934842D01*
X84196063Y11765324D01*
X84340226Y11621161D01*
X84509744Y11507893D01*
X84698102Y11429872D01*
X84898061Y11390098D01*
X85101939Y11390098D01*
X85301898Y11429872D01*
X85490256Y11507893D01*
X85659774Y11621161D01*
X85726047Y11687434D01*
X85735100Y11686542D01*
X85771205Y11690098D01*
X85879185Y11700733D01*
X86017733Y11742761D01*
X86145420Y11811011D01*
X86257338Y11902860D01*
X86280358Y11930910D01*
X86844198Y12494749D01*
X86872238Y12517761D01*
X86895251Y12545802D01*
X86895254Y12545805D01*
X86954197Y12617627D01*
X86964088Y12629679D01*
X87032338Y12757366D01*
X87074366Y12895914D01*
X87085001Y13003894D01*
X87085001Y13003903D01*
X87088556Y13039998D01*
X87085001Y13076093D01*
X87085001Y13723905D01*
X87088556Y13760002D01*
X87085001Y13796099D01*
X87085001Y13796106D01*
X87074366Y13904086D01*
X87074158Y13904774D01*
X87044735Y14001766D01*
X87032338Y14042634D01*
X86964088Y14170321D01*
X86872239Y14282239D01*
X86844194Y14305255D01*
X84170262Y16979187D01*
X84147241Y17007237D01*
X84035323Y17099086D01*
X83907636Y17167336D01*
X83769088Y17209364D01*
X83661108Y17219999D01*
X83625003Y17223555D01*
X83588898Y17219999D01*
X77357239Y17219999D01*
X77417205Y17309744D01*
X77495226Y17498102D01*
X77535000Y17698061D01*
X77535000Y17901939D01*
X77495226Y18101898D01*
X77450155Y18210709D01*
X77634778Y18395331D01*
X77732270Y18395331D01*
X77932229Y18435105D01*
X78120587Y18513126D01*
X78290105Y18626394D01*
X78434268Y18770557D01*
X78547536Y18940075D01*
X78625557Y19128433D01*
X78665331Y19328392D01*
X78665331Y19532270D01*
X78625557Y19732229D01*
X78547536Y19920587D01*
X78434268Y20090105D01*
X78290105Y20234268D01*
X78120587Y20347536D01*
X77932229Y20425557D01*
X77732270Y20465331D01*
X77528392Y20465331D01*
X77328433Y20425557D01*
X77140075Y20347536D01*
X76970557Y20234268D01*
X76826394Y20090105D01*
X76713126Y19920587D01*
X76635105Y19732229D01*
X76595331Y19532270D01*
X76595331Y19434778D01*
X76005808Y18845254D01*
X75977762Y18822237D01*
X75885913Y18710319D01*
X75817663Y18582632D01*
X75817115Y18580826D01*
X75696063Y18459774D01*
X75582795Y18290256D01*
X75504774Y18101898D01*
X75465000Y17901939D01*
X75465000Y17698061D01*
X75504774Y17498102D01*
X75582795Y17309744D01*
X75642761Y17219999D01*
X29119448Y17219999D01*
X23345259Y22994187D01*
X23322238Y23022238D01*
X23210320Y23114087D01*
X23082633Y23182337D01*
X22944085Y23224365D01*
X22836105Y23235000D01*
X22800000Y23238556D01*
X22763895Y23235000D01*
X1036105Y23235000D01*
X1000000Y23238556D01*
X855915Y23224365D01*
X717366Y23182337D01*
X589680Y23114087D01*
X477762Y23022238D01*
X454746Y22994193D01*
X-6694192Y15845254D01*
X-6722238Y15822237D01*
X-6814087Y15710319D01*
X-6882337Y15582632D01*
X-6892824Y15548061D01*
X-6924365Y15444085D01*
X-6938556Y15300000D01*
X-8865000Y15300000D01*
X-8865000Y24340000D01*
X89815001Y24340000D01*
X89815001Y13400671D01*
G37*
G04 #@! TD.AperFunction*
D18*
X1613748Y14143D02*
X1599605Y0D01*
X1613748Y-14143D01*
X1434143Y-193748D01*
X1420000Y-179605D01*
X1405858Y-193748D01*
X1226253Y-14143D01*
X1240395Y0D01*
X1226253Y14143D01*
X1405858Y193748D01*
X1420000Y179605D01*
X1434143Y193748D01*
X1613748Y14143D01*
G04 #@! TA.AperFunction,Conductor*
D19*
G36*
X1613748Y14143D02*
G01*
X1599605Y0D01*
X1613748Y-14143D01*
X1434143Y-193748D01*
X1420000Y-179605D01*
X1405858Y-193748D01*
X1226253Y-14143D01*
X1240395Y0D01*
X1226253Y14143D01*
X1405858Y193748D01*
X1420000Y179605D01*
X1434143Y193748D01*
X1613748Y14143D01*
G37*
G04 #@! TD.AperFunction*
M02*
