M48
; DRILL file {KiCad (5.1.9)-1} date 05/17/22 09:39:54
; FORMAT={-:-/ absolute / metric / decimal}
; #@! TF.CreationDate,2022-05-17T09:39:54-06:00
; #@! TF.GenerationSoftware,Kicad,Pcbnew,(5.1.9)-1
; #@! TF.FileFunction,Plated,1,2,PTH
FMAT,2
METRIC
T1C0.400
T2C1.000
T3C1.100
T4C1.500
T5C1.700
T6C3.250
%
G90
G05
T1
X7.19Y0.65
X8.0Y-5.5
X8.2Y-15.9
X8.3Y2.77
X11.3Y-23.5
X11.64Y-0.1
X12.7Y-16.0
X12.73Y1.4
X12.75Y-4.17
X16.98Y-2.76
X17.2Y-15.4
X17.22Y5.54
X18.48Y-2.14
X18.8Y11.0
X18.8Y9.5
X19.97Y-3.51
X21.77Y-1.39
X21.8Y-15.4
X21.81Y4.14
X23.6Y-13.1
X24.1Y11.0
X24.1Y9.05
X24.42Y4.53
X26.26Y-2.71
X29.72Y3.19
X30.7Y12.7
X30.7Y8.6
X30.7Y-3.46
X35.67Y-2.71
X35.7Y8.15
X35.808Y12.692
X40.05Y-3.46
X40.16Y3.2
X40.2Y12.8
X40.2Y7.7
X41.321Y7.25
X45.23Y-2.71
X45.958Y13.342
X49.73Y3.2
X49.73Y-3.41
X49.75Y12.95
X54.73Y-2.66
X54.9Y20.3
X55.558Y13.442
X59.23Y3.16
X59.26Y-3.43
X59.4Y12.5
X60.2Y2.4
X60.4Y6.4
X63.1Y-1.91
X64.2Y7.25
X64.208Y12.592
X64.22Y-2.68
X68.7Y12.6
X68.7Y6.8
X68.74Y3.16
X68.74Y-3.34
X70.0Y2.2
X72.4Y-1.84
X73.7Y-2.59
X73.7Y-6.8
X73.758Y12.642
X75.5Y18.25
X77.4Y-8.75
X77.6Y-6.7
X77.63Y19.43
X78.24Y-3.44
X78.3Y12.65
X78.36Y3.14
X79.748Y1.152
X80.75Y-14.0
X81.6Y12.65
X81.97Y5.209
X82.43Y1.67
X82.505Y9.505
X82.7Y15.65
X82.7Y11.7
X82.85Y4.459
X83.5Y0.5
X83.768Y14.9
X84.71Y14.15
X85.0Y12.425
X85.6Y13.4
X87.044Y5.256
X87.908Y14.708
X89.2Y9.1
X89.3Y12.5
X89.341Y4.1
T2
X80.5Y-20.5
T3
X-1.42Y4.14
X-1.42Y1.38
X-1.42Y-1.38
X-1.42Y-4.14
X1.42Y5.52
X1.42Y2.76
X1.42Y0.0
X1.42Y-2.76
X1.42Y-5.52
T4
X30.6Y-19.6
T5
X28.06Y-17.06
X28.06Y-22.14
X33.14Y-17.06
X33.14Y-22.14
T6
X0.0Y12.5
X0.0Y-12.5
T0
M30
