G04 #@! TF.GenerationSoftware,KiCad,Pcbnew,(5.1.9)-1*
G04 #@! TF.CreationDate,2022-05-17T00:30:17-06:00*
G04 #@! TF.ProjectId,Calibrator_02,43616c69-6272-4617-946f-725f30322e6b,rev?*
G04 #@! TF.SameCoordinates,Original*
G04 #@! TF.FileFunction,Legend,Top*
G04 #@! TF.FilePolarity,Positive*
%FSLAX46Y46*%
G04 Gerber Fmt 4.6, Leading zero omitted, Abs format (unit mm)*
G04 Created by KiCad (PCBNEW (5.1.9)-1) date 2022-05-17 00:30:17*
%MOMM*%
%LPD*%
G01*
G04 APERTURE LIST*
%ADD10C,0.150000*%
%ADD11C,0.120000*%
%ADD12C,0.254000*%
%ADD13C,0.152000*%
%ADD14C,0.500000*%
%ADD15C,0.127000*%
%ADD16R,1.700000X1.700000*%
%ADD17C,0.100000*%
%ADD18C,2.250000*%
%ADD19C,2.050000*%
%ADD20R,0.900000X1.199000*%
%ADD21R,0.280000X0.665000*%
%ADD22R,0.665000X0.280000*%
%ADD23R,2.650000X2.650000*%
%ADD24C,5.000000*%
%ADD25C,1.575000*%
%ADD26R,1.575000X1.575000*%
%ADD27R,0.800000X0.800000*%
G04 APERTURE END LIST*
D10*
X39261904Y-19107142D02*
X39214285Y-19154761D01*
X39071428Y-19202380D01*
X38976190Y-19202380D01*
X38833333Y-19154761D01*
X38738095Y-19059523D01*
X38690476Y-18964285D01*
X38642857Y-18773809D01*
X38642857Y-18630952D01*
X38690476Y-18440476D01*
X38738095Y-18345238D01*
X38833333Y-18250000D01*
X38976190Y-18202380D01*
X39071428Y-18202380D01*
X39214285Y-18250000D01*
X39261904Y-18297619D01*
X40119047Y-19202380D02*
X40119047Y-18678571D01*
X40071428Y-18583333D01*
X39976190Y-18535714D01*
X39785714Y-18535714D01*
X39690476Y-18583333D01*
X40119047Y-19154761D02*
X40023809Y-19202380D01*
X39785714Y-19202380D01*
X39690476Y-19154761D01*
X39642857Y-19059523D01*
X39642857Y-18964285D01*
X39690476Y-18869047D01*
X39785714Y-18821428D01*
X40023809Y-18821428D01*
X40119047Y-18773809D01*
X40738095Y-19202380D02*
X40642857Y-19154761D01*
X40595238Y-19059523D01*
X40595238Y-18202380D01*
X41119047Y-19202380D02*
X41119047Y-18535714D01*
X41119047Y-18202380D02*
X41071428Y-18250000D01*
X41119047Y-18297619D01*
X41166666Y-18250000D01*
X41119047Y-18202380D01*
X41119047Y-18297619D01*
X41595238Y-19202380D02*
X41595238Y-18202380D01*
X41595238Y-18583333D02*
X41690476Y-18535714D01*
X41880952Y-18535714D01*
X41976190Y-18583333D01*
X42023809Y-18630952D01*
X42071428Y-18726190D01*
X42071428Y-19011904D01*
X42023809Y-19107142D01*
X41976190Y-19154761D01*
X41880952Y-19202380D01*
X41690476Y-19202380D01*
X41595238Y-19154761D01*
X42500000Y-19202380D02*
X42500000Y-18535714D01*
X42500000Y-18726190D02*
X42547619Y-18630952D01*
X42595238Y-18583333D01*
X42690476Y-18535714D01*
X42785714Y-18535714D01*
X43547619Y-19202380D02*
X43547619Y-18678571D01*
X43500000Y-18583333D01*
X43404761Y-18535714D01*
X43214285Y-18535714D01*
X43119047Y-18583333D01*
X43547619Y-19154761D02*
X43452380Y-19202380D01*
X43214285Y-19202380D01*
X43119047Y-19154761D01*
X43071428Y-19059523D01*
X43071428Y-18964285D01*
X43119047Y-18869047D01*
X43214285Y-18821428D01*
X43452380Y-18821428D01*
X43547619Y-18773809D01*
X43880952Y-18535714D02*
X44261904Y-18535714D01*
X44023809Y-18202380D02*
X44023809Y-19059523D01*
X44071428Y-19154761D01*
X44166666Y-19202380D01*
X44261904Y-19202380D01*
X44738095Y-19202380D02*
X44642857Y-19154761D01*
X44595238Y-19107142D01*
X44547619Y-19011904D01*
X44547619Y-18726190D01*
X44595238Y-18630952D01*
X44642857Y-18583333D01*
X44738095Y-18535714D01*
X44880952Y-18535714D01*
X44976190Y-18583333D01*
X45023809Y-18630952D01*
X45071428Y-18726190D01*
X45071428Y-19011904D01*
X45023809Y-19107142D01*
X44976190Y-19154761D01*
X44880952Y-19202380D01*
X44738095Y-19202380D01*
X45500000Y-19202380D02*
X45500000Y-18535714D01*
X45500000Y-18726190D02*
X45547619Y-18630952D01*
X45595238Y-18583333D01*
X45690476Y-18535714D01*
X45785714Y-18535714D01*
X45880952Y-19297619D02*
X46642857Y-19297619D01*
X47071428Y-18202380D02*
X47166666Y-18202380D01*
X47261904Y-18250000D01*
X47309523Y-18297619D01*
X47357142Y-18392857D01*
X47404761Y-18583333D01*
X47404761Y-18821428D01*
X47357142Y-19011904D01*
X47309523Y-19107142D01*
X47261904Y-19154761D01*
X47166666Y-19202380D01*
X47071428Y-19202380D01*
X46976190Y-19154761D01*
X46928571Y-19107142D01*
X46880952Y-19011904D01*
X46833333Y-18821428D01*
X46833333Y-18583333D01*
X46880952Y-18392857D01*
X46928571Y-18297619D01*
X46976190Y-18250000D01*
X47071428Y-18202380D01*
X47785714Y-18297619D02*
X47833333Y-18250000D01*
X47928571Y-18202380D01*
X48166666Y-18202380D01*
X48261904Y-18250000D01*
X48309523Y-18297619D01*
X48357142Y-18392857D01*
X48357142Y-18488095D01*
X48309523Y-18630952D01*
X47738095Y-19202380D01*
X48357142Y-19202380D01*
X37595238Y-20852380D02*
X37261904Y-20376190D01*
X37023809Y-20852380D02*
X37023809Y-19852380D01*
X37404761Y-19852380D01*
X37500000Y-19900000D01*
X37547619Y-19947619D01*
X37595238Y-20042857D01*
X37595238Y-20185714D01*
X37547619Y-20280952D01*
X37500000Y-20328571D01*
X37404761Y-20376190D01*
X37023809Y-20376190D01*
X37928571Y-20185714D02*
X38166666Y-20852380D01*
X38404761Y-20185714D02*
X38166666Y-20852380D01*
X38071428Y-21090476D01*
X38023809Y-21138095D01*
X37928571Y-21185714D01*
X39214285Y-20852380D02*
X39214285Y-20328571D01*
X39166666Y-20233333D01*
X39071428Y-20185714D01*
X38880952Y-20185714D01*
X38785714Y-20233333D01*
X39214285Y-20804761D02*
X39119047Y-20852380D01*
X38880952Y-20852380D01*
X38785714Y-20804761D01*
X38738095Y-20709523D01*
X38738095Y-20614285D01*
X38785714Y-20519047D01*
X38880952Y-20471428D01*
X39119047Y-20471428D01*
X39214285Y-20423809D01*
X39690476Y-20185714D02*
X39690476Y-20852380D01*
X39690476Y-20280952D02*
X39738095Y-20233333D01*
X39833333Y-20185714D01*
X39976190Y-20185714D01*
X40071428Y-20233333D01*
X40119047Y-20328571D01*
X40119047Y-20852380D01*
X41357142Y-20852380D02*
X41357142Y-19852380D01*
X41690476Y-20566666D01*
X42023809Y-19852380D01*
X42023809Y-20852380D01*
X42642857Y-20852380D02*
X42547619Y-20804761D01*
X42500000Y-20757142D01*
X42452380Y-20661904D01*
X42452380Y-20376190D01*
X42500000Y-20280952D01*
X42547619Y-20233333D01*
X42642857Y-20185714D01*
X42785714Y-20185714D01*
X42880952Y-20233333D01*
X42928571Y-20280952D01*
X42976190Y-20376190D01*
X42976190Y-20661904D01*
X42928571Y-20757142D01*
X42880952Y-20804761D01*
X42785714Y-20852380D01*
X42642857Y-20852380D01*
X43404761Y-20852380D02*
X43404761Y-20185714D01*
X43404761Y-20376190D02*
X43452380Y-20280952D01*
X43500000Y-20233333D01*
X43595238Y-20185714D01*
X43690476Y-20185714D01*
X44452380Y-20185714D02*
X44452380Y-20995238D01*
X44404761Y-21090476D01*
X44357142Y-21138095D01*
X44261904Y-21185714D01*
X44119047Y-21185714D01*
X44023809Y-21138095D01*
X44452380Y-20804761D02*
X44357142Y-20852380D01*
X44166666Y-20852380D01*
X44071428Y-20804761D01*
X44023809Y-20757142D01*
X43976190Y-20661904D01*
X43976190Y-20376190D01*
X44023809Y-20280952D01*
X44071428Y-20233333D01*
X44166666Y-20185714D01*
X44357142Y-20185714D01*
X44452380Y-20233333D01*
X45309523Y-20804761D02*
X45214285Y-20852380D01*
X45023809Y-20852380D01*
X44928571Y-20804761D01*
X44880952Y-20709523D01*
X44880952Y-20328571D01*
X44928571Y-20233333D01*
X45023809Y-20185714D01*
X45214285Y-20185714D01*
X45309523Y-20233333D01*
X45357142Y-20328571D01*
X45357142Y-20423809D01*
X44880952Y-20519047D01*
X45785714Y-20185714D02*
X45785714Y-20852380D01*
X45785714Y-20280952D02*
X45833333Y-20233333D01*
X45928571Y-20185714D01*
X46071428Y-20185714D01*
X46166666Y-20233333D01*
X46214285Y-20328571D01*
X46214285Y-20852380D01*
X46642857Y-20804761D02*
X46738095Y-20852380D01*
X46928571Y-20852380D01*
X47023809Y-20804761D01*
X47071428Y-20709523D01*
X47071428Y-20661904D01*
X47023809Y-20566666D01*
X46928571Y-20519047D01*
X46785714Y-20519047D01*
X46690476Y-20471428D01*
X46642857Y-20376190D01*
X46642857Y-20328571D01*
X46690476Y-20233333D01*
X46785714Y-20185714D01*
X46928571Y-20185714D01*
X47023809Y-20233333D01*
X47357142Y-20185714D02*
X47738095Y-20185714D01*
X47500000Y-19852380D02*
X47500000Y-20709523D01*
X47547619Y-20804761D01*
X47642857Y-20852380D01*
X47738095Y-20852380D01*
X48452380Y-20804761D02*
X48357142Y-20852380D01*
X48166666Y-20852380D01*
X48071428Y-20804761D01*
X48023809Y-20709523D01*
X48023809Y-20328571D01*
X48071428Y-20233333D01*
X48166666Y-20185714D01*
X48357142Y-20185714D01*
X48452380Y-20233333D01*
X48500000Y-20328571D01*
X48500000Y-20423809D01*
X48023809Y-20519047D01*
X48928571Y-20852380D02*
X48928571Y-20185714D01*
X48928571Y-20376190D02*
X48976190Y-20280952D01*
X49023809Y-20233333D01*
X49119047Y-20185714D01*
X49214285Y-20185714D01*
X49547619Y-20185714D02*
X49547619Y-20852380D01*
X49547619Y-20280952D02*
X49595238Y-20233333D01*
X49690476Y-20185714D01*
X49833333Y-20185714D01*
X49928571Y-20233333D01*
X49976190Y-20328571D01*
X49976190Y-20852380D01*
X39833333Y-21502380D02*
X39357142Y-21502380D01*
X39309523Y-21978571D01*
X39357142Y-21930952D01*
X39452380Y-21883333D01*
X39690476Y-21883333D01*
X39785714Y-21930952D01*
X39833333Y-21978571D01*
X39880952Y-22073809D01*
X39880952Y-22311904D01*
X39833333Y-22407142D01*
X39785714Y-22454761D01*
X39690476Y-22502380D01*
X39452380Y-22502380D01*
X39357142Y-22454761D01*
X39309523Y-22407142D01*
X41023809Y-21454761D02*
X40166666Y-22740476D01*
X41880952Y-22502380D02*
X41309523Y-22502380D01*
X41595238Y-22502380D02*
X41595238Y-21502380D01*
X41500000Y-21645238D01*
X41404761Y-21740476D01*
X41309523Y-21788095D01*
X42738095Y-21502380D02*
X42547619Y-21502380D01*
X42452380Y-21550000D01*
X42404761Y-21597619D01*
X42309523Y-21740476D01*
X42261904Y-21930952D01*
X42261904Y-22311904D01*
X42309523Y-22407142D01*
X42357142Y-22454761D01*
X42452380Y-22502380D01*
X42642857Y-22502380D01*
X42738095Y-22454761D01*
X42785714Y-22407142D01*
X42833333Y-22311904D01*
X42833333Y-22073809D01*
X42785714Y-21978571D01*
X42738095Y-21930952D01*
X42642857Y-21883333D01*
X42452380Y-21883333D01*
X42357142Y-21930952D01*
X42309523Y-21978571D01*
X42261904Y-22073809D01*
X43976190Y-21454761D02*
X43119047Y-22740476D01*
X44261904Y-21597619D02*
X44309523Y-21550000D01*
X44404761Y-21502380D01*
X44642857Y-21502380D01*
X44738095Y-21550000D01*
X44785714Y-21597619D01*
X44833333Y-21692857D01*
X44833333Y-21788095D01*
X44785714Y-21930952D01*
X44214285Y-22502380D01*
X44833333Y-22502380D01*
X45452380Y-21502380D02*
X45547619Y-21502380D01*
X45642857Y-21550000D01*
X45690476Y-21597619D01*
X45738095Y-21692857D01*
X45785714Y-21883333D01*
X45785714Y-22121428D01*
X45738095Y-22311904D01*
X45690476Y-22407142D01*
X45642857Y-22454761D01*
X45547619Y-22502380D01*
X45452380Y-22502380D01*
X45357142Y-22454761D01*
X45309523Y-22407142D01*
X45261904Y-22311904D01*
X45214285Y-22121428D01*
X45214285Y-21883333D01*
X45261904Y-21692857D01*
X45309523Y-21597619D01*
X45357142Y-21550000D01*
X45452380Y-21502380D01*
X46166666Y-21597619D02*
X46214285Y-21550000D01*
X46309523Y-21502380D01*
X46547619Y-21502380D01*
X46642857Y-21550000D01*
X46690476Y-21597619D01*
X46738095Y-21692857D01*
X46738095Y-21788095D01*
X46690476Y-21930952D01*
X46119047Y-22502380D01*
X46738095Y-22502380D01*
X47119047Y-21597619D02*
X47166666Y-21550000D01*
X47261904Y-21502380D01*
X47500000Y-21502380D01*
X47595238Y-21550000D01*
X47642857Y-21597619D01*
X47690476Y-21692857D01*
X47690476Y-21788095D01*
X47642857Y-21930952D01*
X47071428Y-22502380D01*
X47690476Y-22502380D01*
D11*
X90490000Y-23310000D02*
X81860000Y-23310000D01*
X90490000Y-23194545D02*
X81860000Y-23194545D01*
X90490000Y-23079090D02*
X81860000Y-23079090D01*
X90490000Y-22963635D02*
X81860000Y-22963635D01*
X90490000Y-22848180D02*
X81860000Y-22848180D01*
X90490000Y-22732725D02*
X81860000Y-22732725D01*
X90490000Y-22617270D02*
X81860000Y-22617270D01*
X90490000Y-22501815D02*
X81860000Y-22501815D01*
X90490000Y-22386360D02*
X81860000Y-22386360D01*
X90490000Y-22270905D02*
X81860000Y-22270905D01*
X90490000Y-22155450D02*
X81860000Y-22155450D01*
X90490000Y-22039995D02*
X81860000Y-22039995D01*
X90490000Y-21924540D02*
X81860000Y-21924540D01*
X90490000Y-21809085D02*
X81860000Y-21809085D01*
X90490000Y-21693630D02*
X81860000Y-21693630D01*
X90490000Y-21578175D02*
X81860000Y-21578175D01*
X90490000Y-21462720D02*
X81860000Y-21462720D01*
X90490000Y-21347265D02*
X81860000Y-21347265D01*
X90490000Y-21231810D02*
X81860000Y-21231810D01*
X90490000Y-21116355D02*
X81860000Y-21116355D01*
X90490000Y-21000900D02*
X81860000Y-21000900D01*
X90490000Y-20885445D02*
X81860000Y-20885445D01*
X81860000Y-22460000D02*
X81510000Y-22460000D01*
X81860000Y-21740000D02*
X81510000Y-21740000D01*
X90490000Y-23430000D02*
X81860000Y-23430000D01*
X81860000Y-23430000D02*
X81860000Y-20770000D01*
X90490000Y-20770000D02*
X81860000Y-20770000D01*
X90490000Y-23430000D02*
X90490000Y-20770000D01*
X79290000Y-23430000D02*
X79290000Y-22100000D01*
X80400000Y-23430000D02*
X79290000Y-23430000D01*
X70500000Y-19500000D02*
X70500000Y-18900000D01*
X72600000Y-20200000D02*
X71200000Y-20200000D01*
X73300000Y-18900000D02*
X73300000Y-19500000D01*
X71200000Y-18200000D02*
X72600000Y-18200000D01*
X70500000Y-18900000D02*
G75*
G02*
X71200000Y-18200000I700000J0D01*
G01*
X71200000Y-20200000D02*
G75*
G02*
X70500000Y-19500000I0J700000D01*
G01*
X73300000Y-19500000D02*
G75*
G02*
X72600000Y-20200000I-700000J0D01*
G01*
X72600000Y-18200000D02*
G75*
G02*
X73300000Y-18900000I0J-700000D01*
G01*
X27245000Y-18150000D02*
X27245000Y-21050000D01*
X33955000Y-18150000D02*
X33955000Y-21050000D01*
X29150000Y-22955000D02*
X32050000Y-22955000D01*
X29150000Y-16245000D02*
X32050000Y-16245000D01*
D12*
X81450000Y-5800000D02*
X81450000Y-10200000D01*
X77550000Y-5750000D02*
X81450000Y-5750000D01*
X81450000Y-10250000D02*
X77550000Y-10250000D01*
X77550000Y-5750000D02*
X77550000Y-7400000D01*
X77550000Y-10250000D02*
X77550000Y-8600000D01*
X77527000Y-11200000D02*
G75*
G03*
X77527000Y-11200000I-127000J0D01*
G01*
X78227000Y-9800000D02*
G75*
G03*
X78227000Y-9800000I-127000J0D01*
G01*
X77550000Y-7401000D02*
G75*
G02*
X77550000Y-8599000I0J-599000D01*
G01*
X77650000Y5800000D02*
X77650000Y10200000D01*
X81550000Y5750000D02*
X77650000Y5750000D01*
X77650000Y10250000D02*
X81550000Y10250000D01*
X81550000Y5750000D02*
X81550000Y7400000D01*
X81550000Y10250000D02*
X81550000Y8600000D01*
X81827000Y11200000D02*
G75*
G03*
X81827000Y11200000I-127000J0D01*
G01*
X81127000Y9800000D02*
G75*
G03*
X81127000Y9800000I-127000J0D01*
G01*
X81550000Y7401000D02*
G75*
G02*
X81550000Y8599000I0J599000D01*
G01*
X76950000Y-5800000D02*
X76950000Y-10200000D01*
X73050000Y-5750000D02*
X76950000Y-5750000D01*
X76950000Y-10250000D02*
X73050000Y-10250000D01*
X73050000Y-5750000D02*
X73050000Y-7400000D01*
X73050000Y-10250000D02*
X73050000Y-8600000D01*
X73027000Y-11200000D02*
G75*
G03*
X73027000Y-11200000I-127000J0D01*
G01*
X73727000Y-9800000D02*
G75*
G03*
X73727000Y-9800000I-127000J0D01*
G01*
X73050000Y-7401000D02*
G75*
G02*
X73050000Y-8599000I0J-599000D01*
G01*
X73050000Y5800000D02*
X73050000Y10200000D01*
X76950000Y5750000D02*
X73050000Y5750000D01*
X73050000Y10250000D02*
X76950000Y10250000D01*
X76950000Y5750000D02*
X76950000Y7400000D01*
X76950000Y10250000D02*
X76950000Y8600000D01*
X77227000Y11200000D02*
G75*
G03*
X77227000Y11200000I-127000J0D01*
G01*
X76527000Y9800000D02*
G75*
G03*
X76527000Y9800000I-127000J0D01*
G01*
X76950000Y7401000D02*
G75*
G02*
X76950000Y8599000I0J599000D01*
G01*
X71950000Y-5800000D02*
X71950000Y-10200000D01*
X68050000Y-5750000D02*
X71950000Y-5750000D01*
X71950000Y-10250000D02*
X68050000Y-10250000D01*
X68050000Y-5750000D02*
X68050000Y-7400000D01*
X68050000Y-10250000D02*
X68050000Y-8600000D01*
X68027000Y-11200000D02*
G75*
G03*
X68027000Y-11200000I-127000J0D01*
G01*
X68727000Y-9800000D02*
G75*
G03*
X68727000Y-9800000I-127000J0D01*
G01*
X68050000Y-7401000D02*
G75*
G02*
X68050000Y-8599000I0J-599000D01*
G01*
X68050000Y5800000D02*
X68050000Y10200000D01*
X71950000Y5750000D02*
X68050000Y5750000D01*
X68050000Y10250000D02*
X71950000Y10250000D01*
X71950000Y5750000D02*
X71950000Y7400000D01*
X71950000Y10250000D02*
X71950000Y8600000D01*
X72227000Y11200000D02*
G75*
G03*
X72227000Y11200000I-127000J0D01*
G01*
X71527000Y9800000D02*
G75*
G03*
X71527000Y9800000I-127000J0D01*
G01*
X71950000Y7401000D02*
G75*
G02*
X71950000Y8599000I0J599000D01*
G01*
X67450000Y-5800000D02*
X67450000Y-10200000D01*
X63550000Y-5750000D02*
X67450000Y-5750000D01*
X67450000Y-10250000D02*
X63550000Y-10250000D01*
X63550000Y-5750000D02*
X63550000Y-7400000D01*
X63550000Y-10250000D02*
X63550000Y-8600000D01*
X63527000Y-11200000D02*
G75*
G03*
X63527000Y-11200000I-127000J0D01*
G01*
X64227000Y-9800000D02*
G75*
G03*
X64227000Y-9800000I-127000J0D01*
G01*
X63550000Y-7401000D02*
G75*
G02*
X63550000Y-8599000I0J-599000D01*
G01*
X63550000Y5800000D02*
X63550000Y10200000D01*
X67450000Y5750000D02*
X63550000Y5750000D01*
X63550000Y10250000D02*
X67450000Y10250000D01*
X67450000Y5750000D02*
X67450000Y7400000D01*
X67450000Y10250000D02*
X67450000Y8600000D01*
X67727000Y11200000D02*
G75*
G03*
X67727000Y11200000I-127000J0D01*
G01*
X67027000Y9800000D02*
G75*
G03*
X67027000Y9800000I-127000J0D01*
G01*
X67450000Y7401000D02*
G75*
G02*
X67450000Y8599000I0J599000D01*
G01*
X62450000Y-5800000D02*
X62450000Y-10200000D01*
X58550000Y-5750000D02*
X62450000Y-5750000D01*
X62450000Y-10250000D02*
X58550000Y-10250000D01*
X58550000Y-5750000D02*
X58550000Y-7400000D01*
X58550000Y-10250000D02*
X58550000Y-8600000D01*
X58527000Y-11200000D02*
G75*
G03*
X58527000Y-11200000I-127000J0D01*
G01*
X59227000Y-9800000D02*
G75*
G03*
X59227000Y-9800000I-127000J0D01*
G01*
X58550000Y-7401000D02*
G75*
G02*
X58550000Y-8599000I0J-599000D01*
G01*
X58550000Y5800000D02*
X58550000Y10200000D01*
X62450000Y5750000D02*
X58550000Y5750000D01*
X58550000Y10250000D02*
X62450000Y10250000D01*
X62450000Y5750000D02*
X62450000Y7400000D01*
X62450000Y10250000D02*
X62450000Y8600000D01*
X62727000Y11200000D02*
G75*
G03*
X62727000Y11200000I-127000J0D01*
G01*
X62027000Y9800000D02*
G75*
G03*
X62027000Y9800000I-127000J0D01*
G01*
X62450000Y7401000D02*
G75*
G02*
X62450000Y8599000I0J599000D01*
G01*
X57950000Y-5800000D02*
X57950000Y-10200000D01*
X54050000Y-5750000D02*
X57950000Y-5750000D01*
X57950000Y-10250000D02*
X54050000Y-10250000D01*
X54050000Y-5750000D02*
X54050000Y-7400000D01*
X54050000Y-10250000D02*
X54050000Y-8600000D01*
X54027000Y-11200000D02*
G75*
G03*
X54027000Y-11200000I-127000J0D01*
G01*
X54727000Y-9800000D02*
G75*
G03*
X54727000Y-9800000I-127000J0D01*
G01*
X54050000Y-7401000D02*
G75*
G02*
X54050000Y-8599000I0J-599000D01*
G01*
X54050000Y5800000D02*
X54050000Y10200000D01*
X57950000Y5750000D02*
X54050000Y5750000D01*
X54050000Y10250000D02*
X57950000Y10250000D01*
X57950000Y5750000D02*
X57950000Y7400000D01*
X57950000Y10250000D02*
X57950000Y8600000D01*
X58227000Y11200000D02*
G75*
G03*
X58227000Y11200000I-127000J0D01*
G01*
X57527000Y9800000D02*
G75*
G03*
X57527000Y9800000I-127000J0D01*
G01*
X57950000Y7401000D02*
G75*
G02*
X57950000Y8599000I0J599000D01*
G01*
X52950000Y-5800000D02*
X52950000Y-10200000D01*
X49050000Y-5750000D02*
X52950000Y-5750000D01*
X52950000Y-10250000D02*
X49050000Y-10250000D01*
X49050000Y-5750000D02*
X49050000Y-7400000D01*
X49050000Y-10250000D02*
X49050000Y-8600000D01*
X49027000Y-11200000D02*
G75*
G03*
X49027000Y-11200000I-127000J0D01*
G01*
X49727000Y-9800000D02*
G75*
G03*
X49727000Y-9800000I-127000J0D01*
G01*
X49050000Y-7401000D02*
G75*
G02*
X49050000Y-8599000I0J-599000D01*
G01*
X48450000Y-5800000D02*
X48450000Y-10200000D01*
X44550000Y-5750000D02*
X48450000Y-5750000D01*
X48450000Y-10250000D02*
X44550000Y-10250000D01*
X44550000Y-5750000D02*
X44550000Y-7400000D01*
X44550000Y-10250000D02*
X44550000Y-8600000D01*
X44527000Y-11200000D02*
G75*
G03*
X44527000Y-11200000I-127000J0D01*
G01*
X45227000Y-9800000D02*
G75*
G03*
X45227000Y-9800000I-127000J0D01*
G01*
X44550000Y-7401000D02*
G75*
G02*
X44550000Y-8599000I0J-599000D01*
G01*
X43450000Y-5800000D02*
X43450000Y-10200000D01*
X39550000Y-5750000D02*
X43450000Y-5750000D01*
X43450000Y-10250000D02*
X39550000Y-10250000D01*
X39550000Y-5750000D02*
X39550000Y-7400000D01*
X39550000Y-10250000D02*
X39550000Y-8600000D01*
X39527000Y-11200000D02*
G75*
G03*
X39527000Y-11200000I-127000J0D01*
G01*
X40227000Y-9800000D02*
G75*
G03*
X40227000Y-9800000I-127000J0D01*
G01*
X39550000Y-7401000D02*
G75*
G02*
X39550000Y-8599000I0J-599000D01*
G01*
X38950000Y-5800000D02*
X38950000Y-10200000D01*
X35050000Y-5750000D02*
X38950000Y-5750000D01*
X38950000Y-10250000D02*
X35050000Y-10250000D01*
X35050000Y-5750000D02*
X35050000Y-7400000D01*
X35050000Y-10250000D02*
X35050000Y-8600000D01*
X35027000Y-11200000D02*
G75*
G03*
X35027000Y-11200000I-127000J0D01*
G01*
X35727000Y-9800000D02*
G75*
G03*
X35727000Y-9800000I-127000J0D01*
G01*
X35050000Y-7401000D02*
G75*
G02*
X35050000Y-8599000I0J-599000D01*
G01*
X33950000Y-5800000D02*
X33950000Y-10200000D01*
X30050000Y-5750000D02*
X33950000Y-5750000D01*
X33950000Y-10250000D02*
X30050000Y-10250000D01*
X30050000Y-5750000D02*
X30050000Y-7400000D01*
X30050000Y-10250000D02*
X30050000Y-8600000D01*
X30027000Y-11200000D02*
G75*
G03*
X30027000Y-11200000I-127000J0D01*
G01*
X30727000Y-9800000D02*
G75*
G03*
X30727000Y-9800000I-127000J0D01*
G01*
X30050000Y-7401000D02*
G75*
G02*
X30050000Y-8599000I0J-599000D01*
G01*
X29450000Y-5800000D02*
X29450000Y-10200000D01*
X25550000Y-5750000D02*
X29450000Y-5750000D01*
X29450000Y-10250000D02*
X25550000Y-10250000D01*
X25550000Y-5750000D02*
X25550000Y-7400000D01*
X25550000Y-10250000D02*
X25550000Y-8600000D01*
X25527000Y-11200000D02*
G75*
G03*
X25527000Y-11200000I-127000J0D01*
G01*
X26227000Y-9800000D02*
G75*
G03*
X26227000Y-9800000I-127000J0D01*
G01*
X25550000Y-7401000D02*
G75*
G02*
X25550000Y-8599000I0J-599000D01*
G01*
X49050000Y5800000D02*
X49050000Y10200000D01*
X52950000Y5750000D02*
X49050000Y5750000D01*
X49050000Y10250000D02*
X52950000Y10250000D01*
X52950000Y5750000D02*
X52950000Y7400000D01*
X52950000Y10250000D02*
X52950000Y8600000D01*
X53227000Y11200000D02*
G75*
G03*
X53227000Y11200000I-127000J0D01*
G01*
X52527000Y9800000D02*
G75*
G03*
X52527000Y9800000I-127000J0D01*
G01*
X52950000Y7401000D02*
G75*
G02*
X52950000Y8599000I0J599000D01*
G01*
X44550000Y5800000D02*
X44550000Y10200000D01*
X48450000Y5750000D02*
X44550000Y5750000D01*
X44550000Y10250000D02*
X48450000Y10250000D01*
X48450000Y5750000D02*
X48450000Y7400000D01*
X48450000Y10250000D02*
X48450000Y8600000D01*
X48727000Y11200000D02*
G75*
G03*
X48727000Y11200000I-127000J0D01*
G01*
X48027000Y9800000D02*
G75*
G03*
X48027000Y9800000I-127000J0D01*
G01*
X48450000Y7401000D02*
G75*
G02*
X48450000Y8599000I0J599000D01*
G01*
X39550000Y5800000D02*
X39550000Y10200000D01*
X43450000Y5750000D02*
X39550000Y5750000D01*
X39550000Y10250000D02*
X43450000Y10250000D01*
X43450000Y5750000D02*
X43450000Y7400000D01*
X43450000Y10250000D02*
X43450000Y8600000D01*
X43727000Y11200000D02*
G75*
G03*
X43727000Y11200000I-127000J0D01*
G01*
X43027000Y9800000D02*
G75*
G03*
X43027000Y9800000I-127000J0D01*
G01*
X43450000Y7401000D02*
G75*
G02*
X43450000Y8599000I0J599000D01*
G01*
X35050000Y5800000D02*
X35050000Y10200000D01*
X38950000Y5750000D02*
X35050000Y5750000D01*
X35050000Y10250000D02*
X38950000Y10250000D01*
X38950000Y5750000D02*
X38950000Y7400000D01*
X38950000Y10250000D02*
X38950000Y8600000D01*
X39227000Y11200000D02*
G75*
G03*
X39227000Y11200000I-127000J0D01*
G01*
X38527000Y9800000D02*
G75*
G03*
X38527000Y9800000I-127000J0D01*
G01*
X38950000Y7401000D02*
G75*
G02*
X38950000Y8599000I0J599000D01*
G01*
X30050000Y5800000D02*
X30050000Y10200000D01*
X33950000Y5750000D02*
X30050000Y5750000D01*
X30050000Y10250000D02*
X33950000Y10250000D01*
X33950000Y5750000D02*
X33950000Y7400000D01*
X33950000Y10250000D02*
X33950000Y8600000D01*
X34227000Y11200000D02*
G75*
G03*
X34227000Y11200000I-127000J0D01*
G01*
X33527000Y9800000D02*
G75*
G03*
X33527000Y9800000I-127000J0D01*
G01*
X33950000Y7401000D02*
G75*
G02*
X33950000Y8599000I0J599000D01*
G01*
X25550000Y5800000D02*
X25550000Y10200000D01*
X29450000Y5750000D02*
X25550000Y5750000D01*
X25550000Y10250000D02*
X29450000Y10250000D01*
X29450000Y5750000D02*
X29450000Y7400000D01*
X29450000Y10250000D02*
X29450000Y8600000D01*
X29727000Y11200000D02*
G75*
G03*
X29727000Y11200000I-127000J0D01*
G01*
X29027000Y9800000D02*
G75*
G03*
X29027000Y9800000I-127000J0D01*
G01*
X29450000Y7401000D02*
G75*
G02*
X29450000Y8599000I0J599000D01*
G01*
D13*
X88076000Y10580000D02*
X88076000Y11076000D01*
X88076000Y11076000D02*
X87580000Y11076000D01*
X88076000Y7420000D02*
X88076000Y6924000D01*
X88076000Y6924000D02*
X87580000Y6924000D01*
X83924000Y7420000D02*
X83924000Y6924000D01*
X83924000Y6924000D02*
X84420000Y6924000D01*
X83924000Y10580000D02*
X83924000Y11076000D01*
X83924000Y11076000D02*
X84420000Y11076000D01*
D10*
X87325000Y11540000D02*
G75*
G03*
X87325000Y11540000I-75000J0D01*
G01*
D12*
X14050000Y8300000D02*
X14050000Y12700000D01*
X17950000Y8250000D02*
X14050000Y8250000D01*
X14050000Y12750000D02*
X17950000Y12750000D01*
X17950000Y8250000D02*
X17950000Y9900000D01*
X17950000Y12750000D02*
X17950000Y11100000D01*
X18227000Y13700000D02*
G75*
G03*
X18227000Y13700000I-127000J0D01*
G01*
X17527000Y12300000D02*
G75*
G03*
X17527000Y12300000I-127000J0D01*
G01*
X17950000Y9901000D02*
G75*
G02*
X17950000Y11099000I0J599000D01*
G01*
X9550000Y8300000D02*
X9550000Y12700000D01*
X13450000Y8250000D02*
X9550000Y8250000D01*
X9550000Y12750000D02*
X13450000Y12750000D01*
X13450000Y8250000D02*
X13450000Y9900000D01*
X13450000Y12750000D02*
X13450000Y11100000D01*
X13727000Y13700000D02*
G75*
G03*
X13727000Y13700000I-127000J0D01*
G01*
X13027000Y12300000D02*
G75*
G03*
X13027000Y12300000I-127000J0D01*
G01*
X13450000Y9901000D02*
G75*
G02*
X13450000Y11099000I0J599000D01*
G01*
X5050000Y8300000D02*
X5050000Y12700000D01*
X8950000Y8250000D02*
X5050000Y8250000D01*
X5050000Y12750000D02*
X8950000Y12750000D01*
X8950000Y8250000D02*
X8950000Y9900000D01*
X8950000Y12750000D02*
X8950000Y11100000D01*
X9227000Y13700000D02*
G75*
G03*
X9227000Y13700000I-127000J0D01*
G01*
X8527000Y12300000D02*
G75*
G03*
X8527000Y12300000I-127000J0D01*
G01*
X8950000Y9901000D02*
G75*
G02*
X8950000Y11099000I0J599000D01*
G01*
X18550000Y8300000D02*
X18550000Y12700000D01*
X22450000Y8250000D02*
X18550000Y8250000D01*
X18550000Y12750000D02*
X22450000Y12750000D01*
X22450000Y8250000D02*
X22450000Y9900000D01*
X22450000Y12750000D02*
X22450000Y11100000D01*
X22727000Y13700000D02*
G75*
G03*
X22727000Y13700000I-127000J0D01*
G01*
X22027000Y12300000D02*
G75*
G03*
X22027000Y12300000I-127000J0D01*
G01*
X22450000Y9901000D02*
G75*
G02*
X22450000Y11099000I0J599000D01*
G01*
X13450000Y-8300000D02*
X13450000Y-12700000D01*
X9550000Y-8250000D02*
X13450000Y-8250000D01*
X13450000Y-12750000D02*
X9550000Y-12750000D01*
X9550000Y-8250000D02*
X9550000Y-9900000D01*
X9550000Y-12750000D02*
X9550000Y-11100000D01*
X9527000Y-13700000D02*
G75*
G03*
X9527000Y-13700000I-127000J0D01*
G01*
X10227000Y-12300000D02*
G75*
G03*
X10227000Y-12300000I-127000J0D01*
G01*
X9550000Y-9901000D02*
G75*
G02*
X9550000Y-11099000I0J-599000D01*
G01*
X8950000Y-8300000D02*
X8950000Y-12700000D01*
X5050000Y-8250000D02*
X8950000Y-8250000D01*
X8950000Y-12750000D02*
X5050000Y-12750000D01*
X5050000Y-8250000D02*
X5050000Y-9900000D01*
X5050000Y-12750000D02*
X5050000Y-11100000D01*
X5027000Y-13700000D02*
G75*
G03*
X5027000Y-13700000I-127000J0D01*
G01*
X5727000Y-12300000D02*
G75*
G03*
X5727000Y-12300000I-127000J0D01*
G01*
X5050000Y-9901000D02*
G75*
G02*
X5050000Y-11099000I0J-599000D01*
G01*
X17950000Y-8300000D02*
X17950000Y-12700000D01*
X14050000Y-8250000D02*
X17950000Y-8250000D01*
X17950000Y-12750000D02*
X14050000Y-12750000D01*
X14050000Y-8250000D02*
X14050000Y-9900000D01*
X14050000Y-12750000D02*
X14050000Y-11100000D01*
X14027000Y-13700000D02*
G75*
G03*
X14027000Y-13700000I-127000J0D01*
G01*
X14727000Y-12300000D02*
G75*
G03*
X14727000Y-12300000I-127000J0D01*
G01*
X14050000Y-9901000D02*
G75*
G02*
X14050000Y-11099000I0J-599000D01*
G01*
X22450000Y-8300000D02*
X22450000Y-12700000D01*
X18550000Y-8250000D02*
X22450000Y-8250000D01*
X22450000Y-12750000D02*
X18550000Y-12750000D01*
X18550000Y-8250000D02*
X18550000Y-9900000D01*
X18550000Y-12750000D02*
X18550000Y-11100000D01*
X18527000Y-13700000D02*
G75*
G03*
X18527000Y-13700000I-127000J0D01*
G01*
X19227000Y-12300000D02*
G75*
G03*
X19227000Y-12300000I-127000J0D01*
G01*
X18550000Y-9901000D02*
G75*
G02*
X18550000Y-11099000I0J-599000D01*
G01*
X-9500000Y15400000D02*
X3000000Y15400000D01*
X3000000Y15400000D02*
X3000000Y-15400000D01*
X3000000Y-15400000D02*
X-9500000Y-15400000D01*
X-9500000Y-15400000D02*
X-9500000Y15400000D01*
X-14780000Y5000D02*
X-15480000Y5000D01*
X-9500000Y-8370000D02*
X-15500000Y-8370000D01*
X-15500000Y-8370000D02*
X-15500000Y8380000D01*
X-15500000Y8380000D02*
X-9500000Y8380000D01*
X-9500000Y-10430000D02*
X-15500000Y-10430000D01*
X-9500000Y-14570000D02*
X-15499000Y-14570000D01*
X-15499000Y-14570000D02*
X-15499000Y-10460000D01*
X-15500000Y14540000D02*
X-15500000Y10430000D01*
X-15500000Y10430000D02*
X-9500000Y10430000D01*
X-9500000Y14570000D02*
X-15500000Y14570000D01*
D14*
X1010000Y-6710000D02*
G75*
G03*
X1010000Y-6710000I-250000J0D01*
G01*
D10*
X76824000Y15220000D02*
X76824000Y15210000D01*
X76824000Y15210000D02*
X76493000Y14880000D01*
X76143000Y15220000D02*
X76153000Y15220000D01*
X76153000Y15220000D02*
X76493000Y14880000D01*
X76143000Y15220000D02*
X76824000Y15220000D01*
X75743000Y15240000D02*
X75743000Y16390000D01*
X77244000Y15240000D02*
X77244000Y16390000D01*
X75744000Y16390000D02*
X77223000Y16390000D01*
X77246000Y14860000D02*
X77246000Y13810000D01*
X76846000Y13510000D02*
X76946000Y13510000D01*
X76946000Y13510000D02*
X77246000Y13810000D01*
X76146000Y13510000D02*
X76846000Y13510000D01*
X76146000Y13510000D02*
X76046000Y13510000D01*
X76046000Y13510000D02*
X75746000Y13810000D01*
X75746000Y14860000D02*
X75746000Y13810000D01*
X76493000Y15220000D02*
X76493000Y14880000D01*
X67324000Y15220000D02*
X67324000Y15210000D01*
X67324000Y15210000D02*
X66993000Y14880000D01*
X66643000Y15220000D02*
X66653000Y15220000D01*
X66653000Y15220000D02*
X66993000Y14880000D01*
X66643000Y15220000D02*
X67324000Y15220000D01*
X66243000Y15240000D02*
X66243000Y16390000D01*
X67744000Y15240000D02*
X67744000Y16390000D01*
X66244000Y16390000D02*
X67723000Y16390000D01*
X67746000Y14860000D02*
X67746000Y13810000D01*
X67346000Y13510000D02*
X67446000Y13510000D01*
X67446000Y13510000D02*
X67746000Y13810000D01*
X66646000Y13510000D02*
X67346000Y13510000D01*
X66646000Y13510000D02*
X66546000Y13510000D01*
X66546000Y13510000D02*
X66246000Y13810000D01*
X66246000Y14860000D02*
X66246000Y13810000D01*
X66993000Y15220000D02*
X66993000Y14880000D01*
X57824000Y15220000D02*
X57824000Y15210000D01*
X57824000Y15210000D02*
X57493000Y14880000D01*
X57143000Y15220000D02*
X57153000Y15220000D01*
X57153000Y15220000D02*
X57493000Y14880000D01*
X57143000Y15220000D02*
X57824000Y15220000D01*
X56743000Y15240000D02*
X56743000Y16390000D01*
X58244000Y15240000D02*
X58244000Y16390000D01*
X56744000Y16390000D02*
X58223000Y16390000D01*
X58246000Y14860000D02*
X58246000Y13810000D01*
X57846000Y13510000D02*
X57946000Y13510000D01*
X57946000Y13510000D02*
X58246000Y13810000D01*
X57146000Y13510000D02*
X57846000Y13510000D01*
X57146000Y13510000D02*
X57046000Y13510000D01*
X57046000Y13510000D02*
X56746000Y13810000D01*
X56746000Y14860000D02*
X56746000Y13810000D01*
X57493000Y15220000D02*
X57493000Y14880000D01*
X48324000Y15220000D02*
X48324000Y15210000D01*
X48324000Y15210000D02*
X47993000Y14880000D01*
X47643000Y15220000D02*
X47653000Y15220000D01*
X47653000Y15220000D02*
X47993000Y14880000D01*
X47643000Y15220000D02*
X48324000Y15220000D01*
X47243000Y15240000D02*
X47243000Y16390000D01*
X48744000Y15240000D02*
X48744000Y16390000D01*
X47244000Y16390000D02*
X48723000Y16390000D01*
X48746000Y14860000D02*
X48746000Y13810000D01*
X48346000Y13510000D02*
X48446000Y13510000D01*
X48446000Y13510000D02*
X48746000Y13810000D01*
X47646000Y13510000D02*
X48346000Y13510000D01*
X47646000Y13510000D02*
X47546000Y13510000D01*
X47546000Y13510000D02*
X47246000Y13810000D01*
X47246000Y14860000D02*
X47246000Y13810000D01*
X47993000Y15220000D02*
X47993000Y14880000D01*
X38824000Y15220000D02*
X38824000Y15210000D01*
X38824000Y15210000D02*
X38493000Y14880000D01*
X38143000Y15220000D02*
X38153000Y15220000D01*
X38153000Y15220000D02*
X38493000Y14880000D01*
X38143000Y15220000D02*
X38824000Y15220000D01*
X37743000Y15240000D02*
X37743000Y16390000D01*
X39244000Y15240000D02*
X39244000Y16390000D01*
X37744000Y16390000D02*
X39223000Y16390000D01*
X39246000Y14860000D02*
X39246000Y13810000D01*
X38846000Y13510000D02*
X38946000Y13510000D01*
X38946000Y13510000D02*
X39246000Y13810000D01*
X38146000Y13510000D02*
X38846000Y13510000D01*
X38146000Y13510000D02*
X38046000Y13510000D01*
X38046000Y13510000D02*
X37746000Y13810000D01*
X37746000Y14860000D02*
X37746000Y13810000D01*
X38493000Y15220000D02*
X38493000Y14880000D01*
X29324000Y15220000D02*
X29324000Y15210000D01*
X29324000Y15210000D02*
X28993000Y14880000D01*
X28643000Y15220000D02*
X28653000Y15220000D01*
X28653000Y15220000D02*
X28993000Y14880000D01*
X28643000Y15220000D02*
X29324000Y15220000D01*
X28243000Y15240000D02*
X28243000Y16390000D01*
X29744000Y15240000D02*
X29744000Y16390000D01*
X28244000Y16390000D02*
X29723000Y16390000D01*
X29746000Y14860000D02*
X29746000Y13810000D01*
X29346000Y13510000D02*
X29446000Y13510000D01*
X29446000Y13510000D02*
X29746000Y13810000D01*
X28646000Y13510000D02*
X29346000Y13510000D01*
X28646000Y13510000D02*
X28546000Y13510000D01*
X28546000Y13510000D02*
X28246000Y13810000D01*
X28246000Y14860000D02*
X28246000Y13810000D01*
X28993000Y15220000D02*
X28993000Y14880000D01*
X5176000Y-17720000D02*
X5176000Y-17710000D01*
X5176000Y-17710000D02*
X5507000Y-17380000D01*
X5857000Y-17720000D02*
X5847000Y-17720000D01*
X5847000Y-17720000D02*
X5507000Y-17380000D01*
X5857000Y-17720000D02*
X5176000Y-17720000D01*
X6257000Y-17740000D02*
X6257000Y-18890000D01*
X4756000Y-17740000D02*
X4756000Y-18890000D01*
X6256000Y-18890000D02*
X4777000Y-18890000D01*
X4754000Y-17360000D02*
X4754000Y-16310000D01*
X5154000Y-16010000D02*
X5054000Y-16010000D01*
X5054000Y-16010000D02*
X4754000Y-16310000D01*
X5854000Y-16010000D02*
X5154000Y-16010000D01*
X5854000Y-16010000D02*
X5954000Y-16010000D01*
X5954000Y-16010000D02*
X6254000Y-16310000D01*
X6254000Y-17360000D02*
X6254000Y-16310000D01*
X5507000Y-17720000D02*
X5507000Y-17380000D01*
X8824000Y17720000D02*
X8824000Y17710000D01*
X8824000Y17710000D02*
X8493000Y17380000D01*
X8143000Y17720000D02*
X8153000Y17720000D01*
X8153000Y17720000D02*
X8493000Y17380000D01*
X8143000Y17720000D02*
X8824000Y17720000D01*
X7743000Y17740000D02*
X7743000Y18890000D01*
X9244000Y17740000D02*
X9244000Y18890000D01*
X7744000Y18890000D02*
X9223000Y18890000D01*
X9246000Y17360000D02*
X9246000Y16310000D01*
X8846000Y16010000D02*
X8946000Y16010000D01*
X8946000Y16010000D02*
X9246000Y16310000D01*
X8146000Y16010000D02*
X8846000Y16010000D01*
X8146000Y16010000D02*
X8046000Y16010000D01*
X8046000Y16010000D02*
X7746000Y16310000D01*
X7746000Y17360000D02*
X7746000Y16310000D01*
X8493000Y17720000D02*
X8493000Y17380000D01*
D11*
X76472936Y-21465000D02*
X76927064Y-21465000D01*
X76472936Y-22935000D02*
X76927064Y-22935000D01*
X86627064Y2965000D02*
X86172936Y2965000D01*
X86627064Y4435000D02*
X86172936Y4435000D01*
X78022500Y254724D02*
X78022500Y-254724D01*
X76977500Y254724D02*
X76977500Y-254724D01*
X86627064Y1065000D02*
X86172936Y1065000D01*
X86627064Y2535000D02*
X86172936Y2535000D01*
X68735000Y227064D02*
X68735000Y-227064D01*
X67265000Y227064D02*
X67265000Y-227064D01*
X59235000Y227064D02*
X59235000Y-227064D01*
X57765000Y227064D02*
X57765000Y-227064D01*
X49522500Y254724D02*
X49522500Y-254724D01*
X48477500Y254724D02*
X48477500Y-254724D01*
X40022500Y254724D02*
X40022500Y-254724D01*
X38977500Y254724D02*
X38977500Y-254724D01*
X30522500Y254724D02*
X30522500Y-254724D01*
X29477500Y254724D02*
X29477500Y-254724D01*
X88015000Y-6910000D02*
X85515000Y-6910000D01*
X85515000Y-6910000D02*
X85515000Y-5860000D01*
X85515000Y-5860000D02*
X84525000Y-5860000D01*
X88015000Y-690000D02*
X85515000Y-690000D01*
X85515000Y-690000D02*
X85515000Y-1740000D01*
X89985000Y-5740000D02*
X89985000Y-1860000D01*
X88025000Y-15210000D02*
X85525000Y-15210000D01*
X85525000Y-15210000D02*
X85525000Y-14160000D01*
X85525000Y-14160000D02*
X84535000Y-14160000D01*
X88025000Y-8990000D02*
X85525000Y-8990000D01*
X85525000Y-8990000D02*
X85525000Y-10040000D01*
X89995000Y-14040000D02*
X89995000Y-10160000D01*
X90490000Y-19610000D02*
X81860000Y-19610000D01*
X90490000Y-19494545D02*
X81860000Y-19494545D01*
X90490000Y-19379090D02*
X81860000Y-19379090D01*
X90490000Y-19263635D02*
X81860000Y-19263635D01*
X90490000Y-19148180D02*
X81860000Y-19148180D01*
X90490000Y-19032725D02*
X81860000Y-19032725D01*
X90490000Y-18917270D02*
X81860000Y-18917270D01*
X90490000Y-18801815D02*
X81860000Y-18801815D01*
X90490000Y-18686360D02*
X81860000Y-18686360D01*
X90490000Y-18570905D02*
X81860000Y-18570905D01*
X90490000Y-18455450D02*
X81860000Y-18455450D01*
X90490000Y-18339995D02*
X81860000Y-18339995D01*
X90490000Y-18224540D02*
X81860000Y-18224540D01*
X90490000Y-18109085D02*
X81860000Y-18109085D01*
X90490000Y-17993630D02*
X81860000Y-17993630D01*
X90490000Y-17878175D02*
X81860000Y-17878175D01*
X90490000Y-17762720D02*
X81860000Y-17762720D01*
X90490000Y-17647265D02*
X81860000Y-17647265D01*
X90490000Y-17531810D02*
X81860000Y-17531810D01*
X90490000Y-17416355D02*
X81860000Y-17416355D01*
X90490000Y-17300900D02*
X81860000Y-17300900D01*
X90490000Y-17185445D02*
X81860000Y-17185445D01*
X81860000Y-18760000D02*
X81510000Y-18760000D01*
X81860000Y-18040000D02*
X81510000Y-18040000D01*
X90490000Y-19730000D02*
X81860000Y-19730000D01*
X81860000Y-19730000D02*
X81860000Y-17070000D01*
X90490000Y-17070000D02*
X81860000Y-17070000D01*
X90490000Y-19730000D02*
X90490000Y-17070000D01*
X79290000Y-19730000D02*
X79290000Y-18400000D01*
X80400000Y-19730000D02*
X79290000Y-19730000D01*
X88840000Y7492164D02*
X88840000Y7707836D01*
X89560000Y7492164D02*
X89560000Y7707836D01*
D10*
X79702380Y-13842857D02*
X79226190Y-14176190D01*
X79702380Y-14414285D02*
X78702380Y-14414285D01*
X78702380Y-14033333D01*
X78750000Y-13938095D01*
X78797619Y-13890476D01*
X78892857Y-13842857D01*
X79035714Y-13842857D01*
X79130952Y-13890476D01*
X79178571Y-13938095D01*
X79226190Y-14033333D01*
X79226190Y-14414285D01*
X79035714Y-12985714D02*
X79702380Y-12985714D01*
X78654761Y-13223809D02*
X79369047Y-13461904D01*
X79369047Y-12842857D01*
X79702380Y-11938095D02*
X79702380Y-12509523D01*
X79702380Y-12223809D02*
X78702380Y-12223809D01*
X78845238Y-12319047D01*
X78940476Y-12414285D01*
X78988095Y-12509523D01*
X75252380Y-13892857D02*
X74776190Y-14226190D01*
X75252380Y-14464285D02*
X74252380Y-14464285D01*
X74252380Y-14083333D01*
X74300000Y-13988095D01*
X74347619Y-13940476D01*
X74442857Y-13892857D01*
X74585714Y-13892857D01*
X74680952Y-13940476D01*
X74728571Y-13988095D01*
X74776190Y-14083333D01*
X74776190Y-14464285D01*
X74585714Y-13035714D02*
X75252380Y-13035714D01*
X74204761Y-13273809D02*
X74919047Y-13511904D01*
X74919047Y-12892857D01*
X74252380Y-12321428D02*
X74252380Y-12226190D01*
X74300000Y-12130952D01*
X74347619Y-12083333D01*
X74442857Y-12035714D01*
X74633333Y-11988095D01*
X74871428Y-11988095D01*
X75061904Y-12035714D01*
X75157142Y-12083333D01*
X75204761Y-12130952D01*
X75252380Y-12226190D01*
X75252380Y-12321428D01*
X75204761Y-12416666D01*
X75157142Y-12464285D01*
X75061904Y-12511904D01*
X74871428Y-12559523D01*
X74633333Y-12559523D01*
X74442857Y-12511904D01*
X74347619Y-12464285D01*
X74300000Y-12416666D01*
X74252380Y-12321428D01*
X70252380Y-13892857D02*
X69776190Y-14226190D01*
X70252380Y-14464285D02*
X69252380Y-14464285D01*
X69252380Y-14083333D01*
X69300000Y-13988095D01*
X69347619Y-13940476D01*
X69442857Y-13892857D01*
X69585714Y-13892857D01*
X69680952Y-13940476D01*
X69728571Y-13988095D01*
X69776190Y-14083333D01*
X69776190Y-14464285D01*
X69252380Y-13559523D02*
X69252380Y-12940476D01*
X69633333Y-13273809D01*
X69633333Y-13130952D01*
X69680952Y-13035714D01*
X69728571Y-12988095D01*
X69823809Y-12940476D01*
X70061904Y-12940476D01*
X70157142Y-12988095D01*
X70204761Y-13035714D01*
X70252380Y-13130952D01*
X70252380Y-13416666D01*
X70204761Y-13511904D01*
X70157142Y-13559523D01*
X70252380Y-12464285D02*
X70252380Y-12273809D01*
X70204761Y-12178571D01*
X70157142Y-12130952D01*
X70014285Y-12035714D01*
X69823809Y-11988095D01*
X69442857Y-11988095D01*
X69347619Y-12035714D01*
X69300000Y-12083333D01*
X69252380Y-12178571D01*
X69252380Y-12369047D01*
X69300000Y-12464285D01*
X69347619Y-12511904D01*
X69442857Y-12559523D01*
X69680952Y-12559523D01*
X69776190Y-12511904D01*
X69823809Y-12464285D01*
X69871428Y-12369047D01*
X69871428Y-12178571D01*
X69823809Y-12083333D01*
X69776190Y-12035714D01*
X69680952Y-11988095D01*
X65752380Y-13892857D02*
X65276190Y-14226190D01*
X65752380Y-14464285D02*
X64752380Y-14464285D01*
X64752380Y-14083333D01*
X64800000Y-13988095D01*
X64847619Y-13940476D01*
X64942857Y-13892857D01*
X65085714Y-13892857D01*
X65180952Y-13940476D01*
X65228571Y-13988095D01*
X65276190Y-14083333D01*
X65276190Y-14464285D01*
X64752380Y-13559523D02*
X64752380Y-12940476D01*
X65133333Y-13273809D01*
X65133333Y-13130952D01*
X65180952Y-13035714D01*
X65228571Y-12988095D01*
X65323809Y-12940476D01*
X65561904Y-12940476D01*
X65657142Y-12988095D01*
X65704761Y-13035714D01*
X65752380Y-13130952D01*
X65752380Y-13416666D01*
X65704761Y-13511904D01*
X65657142Y-13559523D01*
X65180952Y-12369047D02*
X65133333Y-12464285D01*
X65085714Y-12511904D01*
X64990476Y-12559523D01*
X64942857Y-12559523D01*
X64847619Y-12511904D01*
X64800000Y-12464285D01*
X64752380Y-12369047D01*
X64752380Y-12178571D01*
X64800000Y-12083333D01*
X64847619Y-12035714D01*
X64942857Y-11988095D01*
X64990476Y-11988095D01*
X65085714Y-12035714D01*
X65133333Y-12083333D01*
X65180952Y-12178571D01*
X65180952Y-12369047D01*
X65228571Y-12464285D01*
X65276190Y-12511904D01*
X65371428Y-12559523D01*
X65561904Y-12559523D01*
X65657142Y-12511904D01*
X65704761Y-12464285D01*
X65752380Y-12369047D01*
X65752380Y-12178571D01*
X65704761Y-12083333D01*
X65657142Y-12035714D01*
X65561904Y-11988095D01*
X65371428Y-11988095D01*
X65276190Y-12035714D01*
X65228571Y-12083333D01*
X65180952Y-12178571D01*
X60702380Y-13892857D02*
X60226190Y-14226190D01*
X60702380Y-14464285D02*
X59702380Y-14464285D01*
X59702380Y-14083333D01*
X59750000Y-13988095D01*
X59797619Y-13940476D01*
X59892857Y-13892857D01*
X60035714Y-13892857D01*
X60130952Y-13940476D01*
X60178571Y-13988095D01*
X60226190Y-14083333D01*
X60226190Y-14464285D01*
X59702380Y-13559523D02*
X59702380Y-12940476D01*
X60083333Y-13273809D01*
X60083333Y-13130952D01*
X60130952Y-13035714D01*
X60178571Y-12988095D01*
X60273809Y-12940476D01*
X60511904Y-12940476D01*
X60607142Y-12988095D01*
X60654761Y-13035714D01*
X60702380Y-13130952D01*
X60702380Y-13416666D01*
X60654761Y-13511904D01*
X60607142Y-13559523D01*
X59702380Y-12607142D02*
X59702380Y-11940476D01*
X60702380Y-12369047D01*
X56252380Y-13892857D02*
X55776190Y-14226190D01*
X56252380Y-14464285D02*
X55252380Y-14464285D01*
X55252380Y-14083333D01*
X55300000Y-13988095D01*
X55347619Y-13940476D01*
X55442857Y-13892857D01*
X55585714Y-13892857D01*
X55680952Y-13940476D01*
X55728571Y-13988095D01*
X55776190Y-14083333D01*
X55776190Y-14464285D01*
X55252380Y-13559523D02*
X55252380Y-12940476D01*
X55633333Y-13273809D01*
X55633333Y-13130952D01*
X55680952Y-13035714D01*
X55728571Y-12988095D01*
X55823809Y-12940476D01*
X56061904Y-12940476D01*
X56157142Y-12988095D01*
X56204761Y-13035714D01*
X56252380Y-13130952D01*
X56252380Y-13416666D01*
X56204761Y-13511904D01*
X56157142Y-13559523D01*
X55252380Y-12083333D02*
X55252380Y-12273809D01*
X55300000Y-12369047D01*
X55347619Y-12416666D01*
X55490476Y-12511904D01*
X55680952Y-12559523D01*
X56061904Y-12559523D01*
X56157142Y-12511904D01*
X56204761Y-12464285D01*
X56252380Y-12369047D01*
X56252380Y-12178571D01*
X56204761Y-12083333D01*
X56157142Y-12035714D01*
X56061904Y-11988095D01*
X55823809Y-11988095D01*
X55728571Y-12035714D01*
X55680952Y-12083333D01*
X55633333Y-12178571D01*
X55633333Y-12369047D01*
X55680952Y-12464285D01*
X55728571Y-12511904D01*
X55823809Y-12559523D01*
X51252380Y-13892857D02*
X50776190Y-14226190D01*
X51252380Y-14464285D02*
X50252380Y-14464285D01*
X50252380Y-14083333D01*
X50300000Y-13988095D01*
X50347619Y-13940476D01*
X50442857Y-13892857D01*
X50585714Y-13892857D01*
X50680952Y-13940476D01*
X50728571Y-13988095D01*
X50776190Y-14083333D01*
X50776190Y-14464285D01*
X50252380Y-13559523D02*
X50252380Y-12940476D01*
X50633333Y-13273809D01*
X50633333Y-13130952D01*
X50680952Y-13035714D01*
X50728571Y-12988095D01*
X50823809Y-12940476D01*
X51061904Y-12940476D01*
X51157142Y-12988095D01*
X51204761Y-13035714D01*
X51252380Y-13130952D01*
X51252380Y-13416666D01*
X51204761Y-13511904D01*
X51157142Y-13559523D01*
X50252380Y-12035714D02*
X50252380Y-12511904D01*
X50728571Y-12559523D01*
X50680952Y-12511904D01*
X50633333Y-12416666D01*
X50633333Y-12178571D01*
X50680952Y-12083333D01*
X50728571Y-12035714D01*
X50823809Y-11988095D01*
X51061904Y-11988095D01*
X51157142Y-12035714D01*
X51204761Y-12083333D01*
X51252380Y-12178571D01*
X51252380Y-12416666D01*
X51204761Y-12511904D01*
X51157142Y-12559523D01*
X46752380Y-13892857D02*
X46276190Y-14226190D01*
X46752380Y-14464285D02*
X45752380Y-14464285D01*
X45752380Y-14083333D01*
X45800000Y-13988095D01*
X45847619Y-13940476D01*
X45942857Y-13892857D01*
X46085714Y-13892857D01*
X46180952Y-13940476D01*
X46228571Y-13988095D01*
X46276190Y-14083333D01*
X46276190Y-14464285D01*
X45752380Y-13559523D02*
X45752380Y-12940476D01*
X46133333Y-13273809D01*
X46133333Y-13130952D01*
X46180952Y-13035714D01*
X46228571Y-12988095D01*
X46323809Y-12940476D01*
X46561904Y-12940476D01*
X46657142Y-12988095D01*
X46704761Y-13035714D01*
X46752380Y-13130952D01*
X46752380Y-13416666D01*
X46704761Y-13511904D01*
X46657142Y-13559523D01*
X46085714Y-12083333D02*
X46752380Y-12083333D01*
X45704761Y-12321428D02*
X46419047Y-12559523D01*
X46419047Y-11940476D01*
X41752380Y-13892857D02*
X41276190Y-14226190D01*
X41752380Y-14464285D02*
X40752380Y-14464285D01*
X40752380Y-14083333D01*
X40800000Y-13988095D01*
X40847619Y-13940476D01*
X40942857Y-13892857D01*
X41085714Y-13892857D01*
X41180952Y-13940476D01*
X41228571Y-13988095D01*
X41276190Y-14083333D01*
X41276190Y-14464285D01*
X40752380Y-13559523D02*
X40752380Y-12940476D01*
X41133333Y-13273809D01*
X41133333Y-13130952D01*
X41180952Y-13035714D01*
X41228571Y-12988095D01*
X41323809Y-12940476D01*
X41561904Y-12940476D01*
X41657142Y-12988095D01*
X41704761Y-13035714D01*
X41752380Y-13130952D01*
X41752380Y-13416666D01*
X41704761Y-13511904D01*
X41657142Y-13559523D01*
X40752380Y-12607142D02*
X40752380Y-11988095D01*
X41133333Y-12321428D01*
X41133333Y-12178571D01*
X41180952Y-12083333D01*
X41228571Y-12035714D01*
X41323809Y-11988095D01*
X41561904Y-11988095D01*
X41657142Y-12035714D01*
X41704761Y-12083333D01*
X41752380Y-12178571D01*
X41752380Y-12464285D01*
X41704761Y-12559523D01*
X41657142Y-12607142D01*
X37252380Y-13800357D02*
X36776190Y-14133690D01*
X37252380Y-14371785D02*
X36252380Y-14371785D01*
X36252380Y-13990833D01*
X36300000Y-13895595D01*
X36347619Y-13847976D01*
X36442857Y-13800357D01*
X36585714Y-13800357D01*
X36680952Y-13847976D01*
X36728571Y-13895595D01*
X36776190Y-13990833D01*
X36776190Y-14371785D01*
X36252380Y-13467023D02*
X36252380Y-12847976D01*
X36633333Y-13181309D01*
X36633333Y-13038452D01*
X36680952Y-12943214D01*
X36728571Y-12895595D01*
X36823809Y-12847976D01*
X37061904Y-12847976D01*
X37157142Y-12895595D01*
X37204761Y-12943214D01*
X37252380Y-13038452D01*
X37252380Y-13324166D01*
X37204761Y-13419404D01*
X37157142Y-13467023D01*
X36347619Y-12467023D02*
X36300000Y-12419404D01*
X36252380Y-12324166D01*
X36252380Y-12086071D01*
X36300000Y-11990833D01*
X36347619Y-11943214D01*
X36442857Y-11895595D01*
X36538095Y-11895595D01*
X36680952Y-11943214D01*
X37252380Y-12514642D01*
X37252380Y-11895595D01*
X32252380Y-13892857D02*
X31776190Y-14226190D01*
X32252380Y-14464285D02*
X31252380Y-14464285D01*
X31252380Y-14083333D01*
X31300000Y-13988095D01*
X31347619Y-13940476D01*
X31442857Y-13892857D01*
X31585714Y-13892857D01*
X31680952Y-13940476D01*
X31728571Y-13988095D01*
X31776190Y-14083333D01*
X31776190Y-14464285D01*
X31252380Y-13559523D02*
X31252380Y-12940476D01*
X31633333Y-13273809D01*
X31633333Y-13130952D01*
X31680952Y-13035714D01*
X31728571Y-12988095D01*
X31823809Y-12940476D01*
X32061904Y-12940476D01*
X32157142Y-12988095D01*
X32204761Y-13035714D01*
X32252380Y-13130952D01*
X32252380Y-13416666D01*
X32204761Y-13511904D01*
X32157142Y-13559523D01*
X32252380Y-11988095D02*
X32252380Y-12559523D01*
X32252380Y-12273809D02*
X31252380Y-12273809D01*
X31395238Y-12369047D01*
X31490476Y-12464285D01*
X31538095Y-12559523D01*
X27752380Y-13892857D02*
X27276190Y-14226190D01*
X27752380Y-14464285D02*
X26752380Y-14464285D01*
X26752380Y-14083333D01*
X26800000Y-13988095D01*
X26847619Y-13940476D01*
X26942857Y-13892857D01*
X27085714Y-13892857D01*
X27180952Y-13940476D01*
X27228571Y-13988095D01*
X27276190Y-14083333D01*
X27276190Y-14464285D01*
X26752380Y-13559523D02*
X26752380Y-12940476D01*
X27133333Y-13273809D01*
X27133333Y-13130952D01*
X27180952Y-13035714D01*
X27228571Y-12988095D01*
X27323809Y-12940476D01*
X27561904Y-12940476D01*
X27657142Y-12988095D01*
X27704761Y-13035714D01*
X27752380Y-13130952D01*
X27752380Y-13416666D01*
X27704761Y-13511904D01*
X27657142Y-13559523D01*
X26752380Y-12321428D02*
X26752380Y-12226190D01*
X26800000Y-12130952D01*
X26847619Y-12083333D01*
X26942857Y-12035714D01*
X27133333Y-11988095D01*
X27371428Y-11988095D01*
X27561904Y-12035714D01*
X27657142Y-12083333D01*
X27704761Y-12130952D01*
X27752380Y-12226190D01*
X27752380Y-12321428D01*
X27704761Y-12416666D01*
X27657142Y-12464285D01*
X27561904Y-12511904D01*
X27371428Y-12559523D01*
X27133333Y-12559523D01*
X26942857Y-12511904D01*
X26847619Y-12464285D01*
X26800000Y-12416666D01*
X26752380Y-12321428D01*
X79607142Y13097619D02*
X79273809Y13573809D01*
X79035714Y13097619D02*
X79035714Y14097619D01*
X79416666Y14097619D01*
X79511904Y14050000D01*
X79559523Y14002380D01*
X79607142Y13907142D01*
X79607142Y13764285D01*
X79559523Y13669047D01*
X79511904Y13621428D01*
X79416666Y13573809D01*
X79035714Y13573809D01*
X79988095Y14002380D02*
X80035714Y14050000D01*
X80130952Y14097619D01*
X80369047Y14097619D01*
X80464285Y14050000D01*
X80511904Y14002380D01*
X80559523Y13907142D01*
X80559523Y13811904D01*
X80511904Y13669047D01*
X79940476Y13097619D01*
X80559523Y13097619D01*
X81035714Y13097619D02*
X81226190Y13097619D01*
X81321428Y13145238D01*
X81369047Y13192857D01*
X81464285Y13335714D01*
X81511904Y13526190D01*
X81511904Y13907142D01*
X81464285Y14002380D01*
X81416666Y14050000D01*
X81321428Y14097619D01*
X81130952Y14097619D01*
X81035714Y14050000D01*
X80988095Y14002380D01*
X80940476Y13907142D01*
X80940476Y13669047D01*
X80988095Y13573809D01*
X81035714Y13526190D01*
X81130952Y13478571D01*
X81321428Y13478571D01*
X81416666Y13526190D01*
X81464285Y13573809D01*
X81511904Y13669047D01*
X71149642Y11097619D02*
X70816309Y11573809D01*
X70578214Y11097619D02*
X70578214Y12097619D01*
X70959166Y12097619D01*
X71054404Y12050000D01*
X71102023Y12002380D01*
X71149642Y11907142D01*
X71149642Y11764285D01*
X71102023Y11669047D01*
X71054404Y11621428D01*
X70959166Y11573809D01*
X70578214Y11573809D01*
X71530595Y12002380D02*
X71578214Y12050000D01*
X71673452Y12097619D01*
X71911547Y12097619D01*
X72006785Y12050000D01*
X72054404Y12002380D01*
X72102023Y11907142D01*
X72102023Y11811904D01*
X72054404Y11669047D01*
X71482976Y11097619D01*
X72102023Y11097619D01*
X72673452Y11669047D02*
X72578214Y11716666D01*
X72530595Y11764285D01*
X72482976Y11859523D01*
X72482976Y11907142D01*
X72530595Y12002380D01*
X72578214Y12050000D01*
X72673452Y12097619D01*
X72863928Y12097619D01*
X72959166Y12050000D01*
X73006785Y12002380D01*
X73054404Y11907142D01*
X73054404Y11859523D01*
X73006785Y11764285D01*
X72959166Y11716666D01*
X72863928Y11669047D01*
X72673452Y11669047D01*
X72578214Y11621428D01*
X72530595Y11573809D01*
X72482976Y11478571D01*
X72482976Y11288095D01*
X72530595Y11192857D01*
X72578214Y11145238D01*
X72673452Y11097619D01*
X72863928Y11097619D01*
X72959166Y11145238D01*
X73006785Y11192857D01*
X73054404Y11288095D01*
X73054404Y11478571D01*
X73006785Y11573809D01*
X72959166Y11621428D01*
X72863928Y11669047D01*
X61607142Y11247619D02*
X61273809Y11723809D01*
X61035714Y11247619D02*
X61035714Y12247619D01*
X61416666Y12247619D01*
X61511904Y12200000D01*
X61559523Y12152380D01*
X61607142Y12057142D01*
X61607142Y11914285D01*
X61559523Y11819047D01*
X61511904Y11771428D01*
X61416666Y11723809D01*
X61035714Y11723809D01*
X61988095Y12152380D02*
X62035714Y12200000D01*
X62130952Y12247619D01*
X62369047Y12247619D01*
X62464285Y12200000D01*
X62511904Y12152380D01*
X62559523Y12057142D01*
X62559523Y11961904D01*
X62511904Y11819047D01*
X61940476Y11247619D01*
X62559523Y11247619D01*
X62892857Y12247619D02*
X63559523Y12247619D01*
X63130952Y11247619D01*
X52107142Y11247619D02*
X51773809Y11723809D01*
X51535714Y11247619D02*
X51535714Y12247619D01*
X51916666Y12247619D01*
X52011904Y12200000D01*
X52059523Y12152380D01*
X52107142Y12057142D01*
X52107142Y11914285D01*
X52059523Y11819047D01*
X52011904Y11771428D01*
X51916666Y11723809D01*
X51535714Y11723809D01*
X52488095Y12152380D02*
X52535714Y12200000D01*
X52630952Y12247619D01*
X52869047Y12247619D01*
X52964285Y12200000D01*
X53011904Y12152380D01*
X53059523Y12057142D01*
X53059523Y11961904D01*
X53011904Y11819047D01*
X52440476Y11247619D01*
X53059523Y11247619D01*
X53916666Y12247619D02*
X53726190Y12247619D01*
X53630952Y12200000D01*
X53583333Y12152380D01*
X53488095Y12009523D01*
X53440476Y11819047D01*
X53440476Y11438095D01*
X53488095Y11342857D01*
X53535714Y11295238D01*
X53630952Y11247619D01*
X53821428Y11247619D01*
X53916666Y11295238D01*
X53964285Y11342857D01*
X54011904Y11438095D01*
X54011904Y11676190D01*
X53964285Y11771428D01*
X53916666Y11819047D01*
X53821428Y11866666D01*
X53630952Y11866666D01*
X53535714Y11819047D01*
X53488095Y11771428D01*
X53440476Y11676190D01*
X42607142Y11247619D02*
X42273809Y11723809D01*
X42035714Y11247619D02*
X42035714Y12247619D01*
X42416666Y12247619D01*
X42511904Y12200000D01*
X42559523Y12152380D01*
X42607142Y12057142D01*
X42607142Y11914285D01*
X42559523Y11819047D01*
X42511904Y11771428D01*
X42416666Y11723809D01*
X42035714Y11723809D01*
X42988095Y12152380D02*
X43035714Y12200000D01*
X43130952Y12247619D01*
X43369047Y12247619D01*
X43464285Y12200000D01*
X43511904Y12152380D01*
X43559523Y12057142D01*
X43559523Y11961904D01*
X43511904Y11819047D01*
X42940476Y11247619D01*
X43559523Y11247619D01*
X44464285Y12247619D02*
X43988095Y12247619D01*
X43940476Y11771428D01*
X43988095Y11819047D01*
X44083333Y11866666D01*
X44321428Y11866666D01*
X44416666Y11819047D01*
X44464285Y11771428D01*
X44511904Y11676190D01*
X44511904Y11438095D01*
X44464285Y11342857D01*
X44416666Y11295238D01*
X44321428Y11247619D01*
X44083333Y11247619D01*
X43988095Y11295238D01*
X43940476Y11342857D01*
X33107142Y11247619D02*
X32773809Y11723809D01*
X32535714Y11247619D02*
X32535714Y12247619D01*
X32916666Y12247619D01*
X33011904Y12200000D01*
X33059523Y12152380D01*
X33107142Y12057142D01*
X33107142Y11914285D01*
X33059523Y11819047D01*
X33011904Y11771428D01*
X32916666Y11723809D01*
X32535714Y11723809D01*
X33488095Y12152380D02*
X33535714Y12200000D01*
X33630952Y12247619D01*
X33869047Y12247619D01*
X33964285Y12200000D01*
X34011904Y12152380D01*
X34059523Y12057142D01*
X34059523Y11961904D01*
X34011904Y11819047D01*
X33440476Y11247619D01*
X34059523Y11247619D01*
X34916666Y11914285D02*
X34916666Y11247619D01*
X34678571Y12295238D02*
X34440476Y11580952D01*
X35059523Y11580952D01*
X75557142Y17597619D02*
X75223809Y18073809D01*
X74985714Y17597619D02*
X74985714Y18597619D01*
X75366666Y18597619D01*
X75461904Y18550000D01*
X75509523Y18502380D01*
X75557142Y18407142D01*
X75557142Y18264285D01*
X75509523Y18169047D01*
X75461904Y18121428D01*
X75366666Y18073809D01*
X74985714Y18073809D01*
X75938095Y18502380D02*
X75985714Y18550000D01*
X76080952Y18597619D01*
X76319047Y18597619D01*
X76414285Y18550000D01*
X76461904Y18502380D01*
X76509523Y18407142D01*
X76509523Y18311904D01*
X76461904Y18169047D01*
X75890476Y17597619D01*
X76509523Y17597619D01*
X76842857Y18597619D02*
X77461904Y18597619D01*
X77128571Y18216666D01*
X77271428Y18216666D01*
X77366666Y18169047D01*
X77414285Y18121428D01*
X77461904Y18026190D01*
X77461904Y17788095D01*
X77414285Y17692857D01*
X77366666Y17645238D01*
X77271428Y17597619D01*
X76985714Y17597619D01*
X76890476Y17645238D01*
X76842857Y17692857D01*
X68502380Y17107142D02*
X68026190Y16773809D01*
X68502380Y16535714D02*
X67502380Y16535714D01*
X67502380Y16916666D01*
X67550000Y17011904D01*
X67597619Y17059523D01*
X67692857Y17107142D01*
X67835714Y17107142D01*
X67930952Y17059523D01*
X67978571Y17011904D01*
X68026190Y16916666D01*
X68026190Y16535714D01*
X67597619Y17488095D02*
X67550000Y17535714D01*
X67502380Y17630952D01*
X67502380Y17869047D01*
X67550000Y17964285D01*
X67597619Y18011904D01*
X67692857Y18059523D01*
X67788095Y18059523D01*
X67930952Y18011904D01*
X68502380Y17440476D01*
X68502380Y18059523D01*
X67597619Y18440476D02*
X67550000Y18488095D01*
X67502380Y18583333D01*
X67502380Y18821428D01*
X67550000Y18916666D01*
X67597619Y18964285D01*
X67692857Y19011904D01*
X67788095Y19011904D01*
X67930952Y18964285D01*
X68502380Y18392857D01*
X68502380Y19011904D01*
X59002380Y17107142D02*
X58526190Y16773809D01*
X59002380Y16535714D02*
X58002380Y16535714D01*
X58002380Y16916666D01*
X58050000Y17011904D01*
X58097619Y17059523D01*
X58192857Y17107142D01*
X58335714Y17107142D01*
X58430952Y17059523D01*
X58478571Y17011904D01*
X58526190Y16916666D01*
X58526190Y16535714D01*
X58097619Y17488095D02*
X58050000Y17535714D01*
X58002380Y17630952D01*
X58002380Y17869047D01*
X58050000Y17964285D01*
X58097619Y18011904D01*
X58192857Y18059523D01*
X58288095Y18059523D01*
X58430952Y18011904D01*
X59002380Y17440476D01*
X59002380Y18059523D01*
X59002380Y19011904D02*
X59002380Y18440476D01*
X59002380Y18726190D02*
X58002380Y18726190D01*
X58145238Y18630952D01*
X58240476Y18535714D01*
X58288095Y18440476D01*
X49502380Y17157142D02*
X49026190Y16823809D01*
X49502380Y16585714D02*
X48502380Y16585714D01*
X48502380Y16966666D01*
X48550000Y17061904D01*
X48597619Y17109523D01*
X48692857Y17157142D01*
X48835714Y17157142D01*
X48930952Y17109523D01*
X48978571Y17061904D01*
X49026190Y16966666D01*
X49026190Y16585714D01*
X48597619Y17538095D02*
X48550000Y17585714D01*
X48502380Y17680952D01*
X48502380Y17919047D01*
X48550000Y18014285D01*
X48597619Y18061904D01*
X48692857Y18109523D01*
X48788095Y18109523D01*
X48930952Y18061904D01*
X49502380Y17490476D01*
X49502380Y18109523D01*
X48502380Y18728571D02*
X48502380Y18823809D01*
X48550000Y18919047D01*
X48597619Y18966666D01*
X48692857Y19014285D01*
X48883333Y19061904D01*
X49121428Y19061904D01*
X49311904Y19014285D01*
X49407142Y18966666D01*
X49454761Y18919047D01*
X49502380Y18823809D01*
X49502380Y18728571D01*
X49454761Y18633333D01*
X49407142Y18585714D01*
X49311904Y18538095D01*
X49121428Y18490476D01*
X48883333Y18490476D01*
X48692857Y18538095D01*
X48597619Y18585714D01*
X48550000Y18633333D01*
X48502380Y18728571D01*
X40002380Y17107142D02*
X39526190Y16773809D01*
X40002380Y16535714D02*
X39002380Y16535714D01*
X39002380Y16916666D01*
X39050000Y17011904D01*
X39097619Y17059523D01*
X39192857Y17107142D01*
X39335714Y17107142D01*
X39430952Y17059523D01*
X39478571Y17011904D01*
X39526190Y16916666D01*
X39526190Y16535714D01*
X40002380Y18059523D02*
X40002380Y17488095D01*
X40002380Y17773809D02*
X39002380Y17773809D01*
X39145238Y17678571D01*
X39240476Y17583333D01*
X39288095Y17488095D01*
X40002380Y18535714D02*
X40002380Y18726190D01*
X39954761Y18821428D01*
X39907142Y18869047D01*
X39764285Y18964285D01*
X39573809Y19011904D01*
X39192857Y19011904D01*
X39097619Y18964285D01*
X39050000Y18916666D01*
X39002380Y18821428D01*
X39002380Y18630952D01*
X39050000Y18535714D01*
X39097619Y18488095D01*
X39192857Y18440476D01*
X39430952Y18440476D01*
X39526190Y18488095D01*
X39573809Y18535714D01*
X39621428Y18630952D01*
X39621428Y18821428D01*
X39573809Y18916666D01*
X39526190Y18964285D01*
X39430952Y19011904D01*
X30502380Y17107142D02*
X30026190Y16773809D01*
X30502380Y16535714D02*
X29502380Y16535714D01*
X29502380Y16916666D01*
X29550000Y17011904D01*
X29597619Y17059523D01*
X29692857Y17107142D01*
X29835714Y17107142D01*
X29930952Y17059523D01*
X29978571Y17011904D01*
X30026190Y16916666D01*
X30026190Y16535714D01*
X30502380Y18059523D02*
X30502380Y17488095D01*
X30502380Y17773809D02*
X29502380Y17773809D01*
X29645238Y17678571D01*
X29740476Y17583333D01*
X29788095Y17488095D01*
X29930952Y18630952D02*
X29883333Y18535714D01*
X29835714Y18488095D01*
X29740476Y18440476D01*
X29692857Y18440476D01*
X29597619Y18488095D01*
X29550000Y18535714D01*
X29502380Y18630952D01*
X29502380Y18821428D01*
X29550000Y18916666D01*
X29597619Y18964285D01*
X29692857Y19011904D01*
X29740476Y19011904D01*
X29835714Y18964285D01*
X29883333Y18916666D01*
X29930952Y18821428D01*
X29930952Y18630952D01*
X29978571Y18535714D01*
X30026190Y18488095D01*
X30121428Y18440476D01*
X30311904Y18440476D01*
X30407142Y18488095D01*
X30454761Y18535714D01*
X30502380Y18630952D01*
X30502380Y18821428D01*
X30454761Y18916666D01*
X30407142Y18964285D01*
X30311904Y19011904D01*
X30121428Y19011904D01*
X30026190Y18964285D01*
X29978571Y18916666D01*
X29930952Y18821428D01*
X11752380Y17107142D02*
X11276190Y16773809D01*
X11752380Y16535714D02*
X10752380Y16535714D01*
X10752380Y16916666D01*
X10800000Y17011904D01*
X10847619Y17059523D01*
X10942857Y17107142D01*
X11085714Y17107142D01*
X11180952Y17059523D01*
X11228571Y17011904D01*
X11276190Y16916666D01*
X11276190Y16535714D01*
X11752380Y18059523D02*
X11752380Y17488095D01*
X11752380Y17773809D02*
X10752380Y17773809D01*
X10895238Y17678571D01*
X10990476Y17583333D01*
X11038095Y17488095D01*
X10752380Y18392857D02*
X10752380Y19059523D01*
X11752380Y18630952D01*
X16652380Y15107142D02*
X16176190Y14773809D01*
X16652380Y14535714D02*
X15652380Y14535714D01*
X15652380Y14916666D01*
X15700000Y15011904D01*
X15747619Y15059523D01*
X15842857Y15107142D01*
X15985714Y15107142D01*
X16080952Y15059523D01*
X16128571Y15011904D01*
X16176190Y14916666D01*
X16176190Y14535714D01*
X16652380Y16059523D02*
X16652380Y15488095D01*
X16652380Y15773809D02*
X15652380Y15773809D01*
X15795238Y15678571D01*
X15890476Y15583333D01*
X15938095Y15488095D01*
X15652380Y16916666D02*
X15652380Y16726190D01*
X15700000Y16630952D01*
X15747619Y16583333D01*
X15890476Y16488095D01*
X16080952Y16440476D01*
X16461904Y16440476D01*
X16557142Y16488095D01*
X16604761Y16535714D01*
X16652380Y16630952D01*
X16652380Y16821428D01*
X16604761Y16916666D01*
X16557142Y16964285D01*
X16461904Y17011904D01*
X16223809Y17011904D01*
X16128571Y16964285D01*
X16080952Y16916666D01*
X16033333Y16821428D01*
X16033333Y16630952D01*
X16080952Y16535714D01*
X16128571Y16488095D01*
X16223809Y16440476D01*
X12152380Y15107142D02*
X11676190Y14773809D01*
X12152380Y14535714D02*
X11152380Y14535714D01*
X11152380Y14916666D01*
X11200000Y15011904D01*
X11247619Y15059523D01*
X11342857Y15107142D01*
X11485714Y15107142D01*
X11580952Y15059523D01*
X11628571Y15011904D01*
X11676190Y14916666D01*
X11676190Y14535714D01*
X12152380Y16059523D02*
X12152380Y15488095D01*
X12152380Y15773809D02*
X11152380Y15773809D01*
X11295238Y15678571D01*
X11390476Y15583333D01*
X11438095Y15488095D01*
X11152380Y16964285D02*
X11152380Y16488095D01*
X11628571Y16440476D01*
X11580952Y16488095D01*
X11533333Y16583333D01*
X11533333Y16821428D01*
X11580952Y16916666D01*
X11628571Y16964285D01*
X11723809Y17011904D01*
X11961904Y17011904D01*
X12057142Y16964285D01*
X12104761Y16916666D01*
X12152380Y16821428D01*
X12152380Y16583333D01*
X12104761Y16488095D01*
X12057142Y16440476D01*
X21152380Y15107142D02*
X20676190Y14773809D01*
X21152380Y14535714D02*
X20152380Y14535714D01*
X20152380Y14916666D01*
X20200000Y15011904D01*
X20247619Y15059523D01*
X20342857Y15107142D01*
X20485714Y15107142D01*
X20580952Y15059523D01*
X20628571Y15011904D01*
X20676190Y14916666D01*
X20676190Y14535714D01*
X21152380Y16059523D02*
X21152380Y15488095D01*
X21152380Y15773809D02*
X20152380Y15773809D01*
X20295238Y15678571D01*
X20390476Y15583333D01*
X20438095Y15488095D01*
X20485714Y16916666D02*
X21152380Y16916666D01*
X20104761Y16678571D02*
X20819047Y16440476D01*
X20819047Y17059523D01*
X9652380Y-16892857D02*
X9176190Y-17226190D01*
X9652380Y-17464285D02*
X8652380Y-17464285D01*
X8652380Y-17083333D01*
X8700000Y-16988095D01*
X8747619Y-16940476D01*
X8842857Y-16892857D01*
X8985714Y-16892857D01*
X9080952Y-16940476D01*
X9128571Y-16988095D01*
X9176190Y-17083333D01*
X9176190Y-17464285D01*
X9652380Y-15940476D02*
X9652380Y-16511904D01*
X9652380Y-16226190D02*
X8652380Y-16226190D01*
X8795238Y-16321428D01*
X8890476Y-16416666D01*
X8938095Y-16511904D01*
X8652380Y-15607142D02*
X8652380Y-14988095D01*
X9033333Y-15321428D01*
X9033333Y-15178571D01*
X9080952Y-15083333D01*
X9128571Y-15035714D01*
X9223809Y-14988095D01*
X9461904Y-14988095D01*
X9557142Y-15035714D01*
X9604761Y-15083333D01*
X9652380Y-15178571D01*
X9652380Y-15464285D01*
X9604761Y-15559523D01*
X9557142Y-15607142D01*
X14152380Y-16892857D02*
X13676190Y-17226190D01*
X14152380Y-17464285D02*
X13152380Y-17464285D01*
X13152380Y-17083333D01*
X13200000Y-16988095D01*
X13247619Y-16940476D01*
X13342857Y-16892857D01*
X13485714Y-16892857D01*
X13580952Y-16940476D01*
X13628571Y-16988095D01*
X13676190Y-17083333D01*
X13676190Y-17464285D01*
X14152380Y-15940476D02*
X14152380Y-16511904D01*
X14152380Y-16226190D02*
X13152380Y-16226190D01*
X13295238Y-16321428D01*
X13390476Y-16416666D01*
X13438095Y-16511904D01*
X13247619Y-15559523D02*
X13200000Y-15511904D01*
X13152380Y-15416666D01*
X13152380Y-15178571D01*
X13200000Y-15083333D01*
X13247619Y-15035714D01*
X13342857Y-14988095D01*
X13438095Y-14988095D01*
X13580952Y-15035714D01*
X14152380Y-15607142D01*
X14152380Y-14988095D01*
X18652380Y-16892857D02*
X18176190Y-17226190D01*
X18652380Y-17464285D02*
X17652380Y-17464285D01*
X17652380Y-17083333D01*
X17700000Y-16988095D01*
X17747619Y-16940476D01*
X17842857Y-16892857D01*
X17985714Y-16892857D01*
X18080952Y-16940476D01*
X18128571Y-16988095D01*
X18176190Y-17083333D01*
X18176190Y-17464285D01*
X18652380Y-15940476D02*
X18652380Y-16511904D01*
X18652380Y-16226190D02*
X17652380Y-16226190D01*
X17795238Y-16321428D01*
X17890476Y-16416666D01*
X17938095Y-16511904D01*
X18652380Y-14988095D02*
X18652380Y-15559523D01*
X18652380Y-15273809D02*
X17652380Y-15273809D01*
X17795238Y-15369047D01*
X17890476Y-15464285D01*
X17938095Y-15559523D01*
X6723142Y-19790380D02*
X6389809Y-19314190D01*
X6151714Y-19790380D02*
X6151714Y-18790380D01*
X6532666Y-18790380D01*
X6627904Y-18838000D01*
X6675523Y-18885619D01*
X6723142Y-18980857D01*
X6723142Y-19123714D01*
X6675523Y-19218952D01*
X6627904Y-19266571D01*
X6532666Y-19314190D01*
X6151714Y-19314190D01*
X7675523Y-19790380D02*
X7104095Y-19790380D01*
X7389809Y-19790380D02*
X7389809Y-18790380D01*
X7294571Y-18933238D01*
X7199333Y-19028476D01*
X7104095Y-19076095D01*
X8294571Y-18790380D02*
X8389809Y-18790380D01*
X8485047Y-18838000D01*
X8532666Y-18885619D01*
X8580285Y-18980857D01*
X8627904Y-19171333D01*
X8627904Y-19409428D01*
X8580285Y-19599904D01*
X8532666Y-19695142D01*
X8485047Y-19742761D01*
X8389809Y-19790380D01*
X8294571Y-19790380D01*
X8199333Y-19742761D01*
X8151714Y-19695142D01*
X8104095Y-19599904D01*
X8056476Y-19409428D01*
X8056476Y-19171333D01*
X8104095Y-18980857D01*
X8151714Y-18885619D01*
X8199333Y-18838000D01*
X8294571Y-18790380D01*
X84446666Y-24322380D02*
X84446666Y-25036666D01*
X84399047Y-25179523D01*
X84303809Y-25274761D01*
X84160952Y-25322380D01*
X84065714Y-25322380D01*
X85399047Y-24322380D02*
X84922857Y-24322380D01*
X84875238Y-24798571D01*
X84922857Y-24750952D01*
X85018095Y-24703333D01*
X85256190Y-24703333D01*
X85351428Y-24750952D01*
X85399047Y-24798571D01*
X85446666Y-24893809D01*
X85446666Y-25131904D01*
X85399047Y-25227142D01*
X85351428Y-25274761D01*
X85256190Y-25322380D01*
X85018095Y-25322380D01*
X84922857Y-25274761D01*
X84875238Y-25227142D01*
X71066666Y-16852380D02*
X71066666Y-17566666D01*
X71019047Y-17709523D01*
X70923809Y-17804761D01*
X70780952Y-17852380D01*
X70685714Y-17852380D01*
X71542857Y-17852380D02*
X71542857Y-16852380D01*
X71923809Y-16852380D01*
X72019047Y-16900000D01*
X72066666Y-16947619D01*
X72114285Y-17042857D01*
X72114285Y-17185714D01*
X72066666Y-17280952D01*
X72019047Y-17328571D01*
X71923809Y-17376190D01*
X71542857Y-17376190D01*
X73066666Y-17852380D02*
X72495238Y-17852380D01*
X72780952Y-17852380D02*
X72780952Y-16852380D01*
X72685714Y-16995238D01*
X72590476Y-17090476D01*
X72495238Y-17138095D01*
X30266666Y-14302380D02*
X30266666Y-15016666D01*
X30219047Y-15159523D01*
X30123809Y-15254761D01*
X29980952Y-15302380D01*
X29885714Y-15302380D01*
X30647619Y-14302380D02*
X31266666Y-14302380D01*
X30933333Y-14683333D01*
X31076190Y-14683333D01*
X31171428Y-14730952D01*
X31219047Y-14778571D01*
X31266666Y-14873809D01*
X31266666Y-15111904D01*
X31219047Y-15207142D01*
X31171428Y-15254761D01*
X31076190Y-15302380D01*
X30790476Y-15302380D01*
X30695238Y-15254761D01*
X30647619Y-15207142D01*
X82159380Y-10811785D02*
X82968904Y-10811785D01*
X83064142Y-10764166D01*
X83111761Y-10716547D01*
X83159380Y-10621309D01*
X83159380Y-10430833D01*
X83111761Y-10335595D01*
X83064142Y-10287976D01*
X82968904Y-10240357D01*
X82159380Y-10240357D01*
X82159380Y-9859404D02*
X82159380Y-9240357D01*
X82540333Y-9573690D01*
X82540333Y-9430833D01*
X82587952Y-9335595D01*
X82635571Y-9287976D01*
X82730809Y-9240357D01*
X82968904Y-9240357D01*
X83064142Y-9287976D01*
X83111761Y-9335595D01*
X83159380Y-9430833D01*
X83159380Y-9716547D01*
X83111761Y-9811785D01*
X83064142Y-9859404D01*
X82254619Y-8859404D02*
X82207000Y-8811785D01*
X82159380Y-8716547D01*
X82159380Y-8478452D01*
X82207000Y-8383214D01*
X82254619Y-8335595D01*
X82349857Y-8287976D01*
X82445095Y-8287976D01*
X82587952Y-8335595D01*
X83159380Y-8907023D01*
X83159380Y-8287976D01*
X75845380Y8335595D02*
X76654904Y8335595D01*
X76750142Y8383214D01*
X76797761Y8430833D01*
X76845380Y8526071D01*
X76845380Y8716547D01*
X76797761Y8811785D01*
X76750142Y8859404D01*
X76654904Y8907023D01*
X75845380Y8907023D01*
X75940619Y9335595D02*
X75893000Y9383214D01*
X75845380Y9478452D01*
X75845380Y9716547D01*
X75893000Y9811785D01*
X75940619Y9859404D01*
X76035857Y9907023D01*
X76131095Y9907023D01*
X76273952Y9859404D01*
X76845380Y9287976D01*
X76845380Y9907023D01*
X75845380Y10526071D02*
X75845380Y10621309D01*
X75893000Y10716547D01*
X75940619Y10764166D01*
X76035857Y10811785D01*
X76226333Y10859404D01*
X76464428Y10859404D01*
X76654904Y10811785D01*
X76750142Y10764166D01*
X76797761Y10716547D01*
X76845380Y10621309D01*
X76845380Y10526071D01*
X76797761Y10430833D01*
X76750142Y10383214D01*
X76654904Y10335595D01*
X76464428Y10287976D01*
X76226333Y10287976D01*
X76035857Y10335595D01*
X75940619Y10383214D01*
X75893000Y10430833D01*
X75845380Y10526071D01*
X77659380Y-10811785D02*
X78468904Y-10811785D01*
X78564142Y-10764166D01*
X78611761Y-10716547D01*
X78659380Y-10621309D01*
X78659380Y-10430833D01*
X78611761Y-10335595D01*
X78564142Y-10287976D01*
X78468904Y-10240357D01*
X77659380Y-10240357D01*
X77659380Y-9859404D02*
X77659380Y-9240357D01*
X78040333Y-9573690D01*
X78040333Y-9430833D01*
X78087952Y-9335595D01*
X78135571Y-9287976D01*
X78230809Y-9240357D01*
X78468904Y-9240357D01*
X78564142Y-9287976D01*
X78611761Y-9335595D01*
X78659380Y-9430833D01*
X78659380Y-9716547D01*
X78611761Y-9811785D01*
X78564142Y-9859404D01*
X78659380Y-8287976D02*
X78659380Y-8859404D01*
X78659380Y-8573690D02*
X77659380Y-8573690D01*
X77802238Y-8668928D01*
X77897476Y-8764166D01*
X77945095Y-8859404D01*
X71245380Y8335595D02*
X72054904Y8335595D01*
X72150142Y8383214D01*
X72197761Y8430833D01*
X72245380Y8526071D01*
X72245380Y8716547D01*
X72197761Y8811785D01*
X72150142Y8859404D01*
X72054904Y8907023D01*
X71245380Y8907023D01*
X72245380Y9907023D02*
X72245380Y9335595D01*
X72245380Y9621309D02*
X71245380Y9621309D01*
X71388238Y9526071D01*
X71483476Y9430833D01*
X71531095Y9335595D01*
X72245380Y10383214D02*
X72245380Y10573690D01*
X72197761Y10668928D01*
X72150142Y10716547D01*
X72007285Y10811785D01*
X71816809Y10859404D01*
X71435857Y10859404D01*
X71340619Y10811785D01*
X71293000Y10764166D01*
X71245380Y10668928D01*
X71245380Y10478452D01*
X71293000Y10383214D01*
X71340619Y10335595D01*
X71435857Y10287976D01*
X71673952Y10287976D01*
X71769190Y10335595D01*
X71816809Y10383214D01*
X71864428Y10478452D01*
X71864428Y10668928D01*
X71816809Y10764166D01*
X71769190Y10811785D01*
X71673952Y10859404D01*
X72659380Y-10811785D02*
X73468904Y-10811785D01*
X73564142Y-10764166D01*
X73611761Y-10716547D01*
X73659380Y-10621309D01*
X73659380Y-10430833D01*
X73611761Y-10335595D01*
X73564142Y-10287976D01*
X73468904Y-10240357D01*
X72659380Y-10240357D01*
X72659380Y-9859404D02*
X72659380Y-9240357D01*
X73040333Y-9573690D01*
X73040333Y-9430833D01*
X73087952Y-9335595D01*
X73135571Y-9287976D01*
X73230809Y-9240357D01*
X73468904Y-9240357D01*
X73564142Y-9287976D01*
X73611761Y-9335595D01*
X73659380Y-9430833D01*
X73659380Y-9716547D01*
X73611761Y-9811785D01*
X73564142Y-9859404D01*
X72659380Y-8621309D02*
X72659380Y-8526071D01*
X72707000Y-8430833D01*
X72754619Y-8383214D01*
X72849857Y-8335595D01*
X73040333Y-8287976D01*
X73278428Y-8287976D01*
X73468904Y-8335595D01*
X73564142Y-8383214D01*
X73611761Y-8430833D01*
X73659380Y-8526071D01*
X73659380Y-8621309D01*
X73611761Y-8716547D01*
X73564142Y-8764166D01*
X73468904Y-8811785D01*
X73278428Y-8859404D01*
X73040333Y-8859404D01*
X72849857Y-8811785D01*
X72754619Y-8764166D01*
X72707000Y-8716547D01*
X72659380Y-8621309D01*
X66245380Y8335595D02*
X67054904Y8335595D01*
X67150142Y8383214D01*
X67197761Y8430833D01*
X67245380Y8526071D01*
X67245380Y8716547D01*
X67197761Y8811785D01*
X67150142Y8859404D01*
X67054904Y8907023D01*
X66245380Y8907023D01*
X67245380Y9907023D02*
X67245380Y9335595D01*
X67245380Y9621309D02*
X66245380Y9621309D01*
X66388238Y9526071D01*
X66483476Y9430833D01*
X66531095Y9335595D01*
X66673952Y10478452D02*
X66626333Y10383214D01*
X66578714Y10335595D01*
X66483476Y10287976D01*
X66435857Y10287976D01*
X66340619Y10335595D01*
X66293000Y10383214D01*
X66245380Y10478452D01*
X66245380Y10668928D01*
X66293000Y10764166D01*
X66340619Y10811785D01*
X66435857Y10859404D01*
X66483476Y10859404D01*
X66578714Y10811785D01*
X66626333Y10764166D01*
X66673952Y10668928D01*
X66673952Y10478452D01*
X66721571Y10383214D01*
X66769190Y10335595D01*
X66864428Y10287976D01*
X67054904Y10287976D01*
X67150142Y10335595D01*
X67197761Y10383214D01*
X67245380Y10478452D01*
X67245380Y10668928D01*
X67197761Y10764166D01*
X67150142Y10811785D01*
X67054904Y10859404D01*
X66864428Y10859404D01*
X66769190Y10811785D01*
X66721571Y10764166D01*
X66673952Y10668928D01*
X68159380Y-10811785D02*
X68968904Y-10811785D01*
X69064142Y-10764166D01*
X69111761Y-10716547D01*
X69159380Y-10621309D01*
X69159380Y-10430833D01*
X69111761Y-10335595D01*
X69064142Y-10287976D01*
X68968904Y-10240357D01*
X68159380Y-10240357D01*
X68254619Y-9811785D02*
X68207000Y-9764166D01*
X68159380Y-9668928D01*
X68159380Y-9430833D01*
X68207000Y-9335595D01*
X68254619Y-9287976D01*
X68349857Y-9240357D01*
X68445095Y-9240357D01*
X68587952Y-9287976D01*
X69159380Y-9859404D01*
X69159380Y-9240357D01*
X69159380Y-8764166D02*
X69159380Y-8573690D01*
X69111761Y-8478452D01*
X69064142Y-8430833D01*
X68921285Y-8335595D01*
X68730809Y-8287976D01*
X68349857Y-8287976D01*
X68254619Y-8335595D01*
X68207000Y-8383214D01*
X68159380Y-8478452D01*
X68159380Y-8668928D01*
X68207000Y-8764166D01*
X68254619Y-8811785D01*
X68349857Y-8859404D01*
X68587952Y-8859404D01*
X68683190Y-8811785D01*
X68730809Y-8764166D01*
X68778428Y-8668928D01*
X68778428Y-8478452D01*
X68730809Y-8383214D01*
X68683190Y-8335595D01*
X68587952Y-8287976D01*
X61745380Y8335595D02*
X62554904Y8335595D01*
X62650142Y8383214D01*
X62697761Y8430833D01*
X62745380Y8526071D01*
X62745380Y8716547D01*
X62697761Y8811785D01*
X62650142Y8859404D01*
X62554904Y8907023D01*
X61745380Y8907023D01*
X62745380Y9907023D02*
X62745380Y9335595D01*
X62745380Y9621309D02*
X61745380Y9621309D01*
X61888238Y9526071D01*
X61983476Y9430833D01*
X62031095Y9335595D01*
X61745380Y10240357D02*
X61745380Y10907023D01*
X62745380Y10478452D01*
X63159380Y-10811785D02*
X63968904Y-10811785D01*
X64064142Y-10764166D01*
X64111761Y-10716547D01*
X64159380Y-10621309D01*
X64159380Y-10430833D01*
X64111761Y-10335595D01*
X64064142Y-10287976D01*
X63968904Y-10240357D01*
X63159380Y-10240357D01*
X63254619Y-9811785D02*
X63207000Y-9764166D01*
X63159380Y-9668928D01*
X63159380Y-9430833D01*
X63207000Y-9335595D01*
X63254619Y-9287976D01*
X63349857Y-9240357D01*
X63445095Y-9240357D01*
X63587952Y-9287976D01*
X64159380Y-9859404D01*
X64159380Y-9240357D01*
X63587952Y-8668928D02*
X63540333Y-8764166D01*
X63492714Y-8811785D01*
X63397476Y-8859404D01*
X63349857Y-8859404D01*
X63254619Y-8811785D01*
X63207000Y-8764166D01*
X63159380Y-8668928D01*
X63159380Y-8478452D01*
X63207000Y-8383214D01*
X63254619Y-8335595D01*
X63349857Y-8287976D01*
X63397476Y-8287976D01*
X63492714Y-8335595D01*
X63540333Y-8383214D01*
X63587952Y-8478452D01*
X63587952Y-8668928D01*
X63635571Y-8764166D01*
X63683190Y-8811785D01*
X63778428Y-8859404D01*
X63968904Y-8859404D01*
X64064142Y-8811785D01*
X64111761Y-8764166D01*
X64159380Y-8668928D01*
X64159380Y-8478452D01*
X64111761Y-8383214D01*
X64064142Y-8335595D01*
X63968904Y-8287976D01*
X63778428Y-8287976D01*
X63683190Y-8335595D01*
X63635571Y-8383214D01*
X63587952Y-8478452D01*
X56745380Y8335595D02*
X57554904Y8335595D01*
X57650142Y8383214D01*
X57697761Y8430833D01*
X57745380Y8526071D01*
X57745380Y8716547D01*
X57697761Y8811785D01*
X57650142Y8859404D01*
X57554904Y8907023D01*
X56745380Y8907023D01*
X57745380Y9907023D02*
X57745380Y9335595D01*
X57745380Y9621309D02*
X56745380Y9621309D01*
X56888238Y9526071D01*
X56983476Y9430833D01*
X57031095Y9335595D01*
X56745380Y10764166D02*
X56745380Y10573690D01*
X56793000Y10478452D01*
X56840619Y10430833D01*
X56983476Y10335595D01*
X57173952Y10287976D01*
X57554904Y10287976D01*
X57650142Y10335595D01*
X57697761Y10383214D01*
X57745380Y10478452D01*
X57745380Y10668928D01*
X57697761Y10764166D01*
X57650142Y10811785D01*
X57554904Y10859404D01*
X57316809Y10859404D01*
X57221571Y10811785D01*
X57173952Y10764166D01*
X57126333Y10668928D01*
X57126333Y10478452D01*
X57173952Y10383214D01*
X57221571Y10335595D01*
X57316809Y10287976D01*
X58659380Y-10811785D02*
X59468904Y-10811785D01*
X59564142Y-10764166D01*
X59611761Y-10716547D01*
X59659380Y-10621309D01*
X59659380Y-10430833D01*
X59611761Y-10335595D01*
X59564142Y-10287976D01*
X59468904Y-10240357D01*
X58659380Y-10240357D01*
X58754619Y-9811785D02*
X58707000Y-9764166D01*
X58659380Y-9668928D01*
X58659380Y-9430833D01*
X58707000Y-9335595D01*
X58754619Y-9287976D01*
X58849857Y-9240357D01*
X58945095Y-9240357D01*
X59087952Y-9287976D01*
X59659380Y-9859404D01*
X59659380Y-9240357D01*
X58659380Y-8907023D02*
X58659380Y-8240357D01*
X59659380Y-8668928D01*
X52245380Y8335595D02*
X53054904Y8335595D01*
X53150142Y8383214D01*
X53197761Y8430833D01*
X53245380Y8526071D01*
X53245380Y8716547D01*
X53197761Y8811785D01*
X53150142Y8859404D01*
X53054904Y8907023D01*
X52245380Y8907023D01*
X53245380Y9907023D02*
X53245380Y9335595D01*
X53245380Y9621309D02*
X52245380Y9621309D01*
X52388238Y9526071D01*
X52483476Y9430833D01*
X52531095Y9335595D01*
X52245380Y10811785D02*
X52245380Y10335595D01*
X52721571Y10287976D01*
X52673952Y10335595D01*
X52626333Y10430833D01*
X52626333Y10668928D01*
X52673952Y10764166D01*
X52721571Y10811785D01*
X52816809Y10859404D01*
X53054904Y10859404D01*
X53150142Y10811785D01*
X53197761Y10764166D01*
X53245380Y10668928D01*
X53245380Y10430833D01*
X53197761Y10335595D01*
X53150142Y10287976D01*
X53659380Y-10811785D02*
X54468904Y-10811785D01*
X54564142Y-10764166D01*
X54611761Y-10716547D01*
X54659380Y-10621309D01*
X54659380Y-10430833D01*
X54611761Y-10335595D01*
X54564142Y-10287976D01*
X54468904Y-10240357D01*
X53659380Y-10240357D01*
X53754619Y-9811785D02*
X53707000Y-9764166D01*
X53659380Y-9668928D01*
X53659380Y-9430833D01*
X53707000Y-9335595D01*
X53754619Y-9287976D01*
X53849857Y-9240357D01*
X53945095Y-9240357D01*
X54087952Y-9287976D01*
X54659380Y-9859404D01*
X54659380Y-9240357D01*
X53659380Y-8383214D02*
X53659380Y-8573690D01*
X53707000Y-8668928D01*
X53754619Y-8716547D01*
X53897476Y-8811785D01*
X54087952Y-8859404D01*
X54468904Y-8859404D01*
X54564142Y-8811785D01*
X54611761Y-8764166D01*
X54659380Y-8668928D01*
X54659380Y-8478452D01*
X54611761Y-8383214D01*
X54564142Y-8335595D01*
X54468904Y-8287976D01*
X54230809Y-8287976D01*
X54135571Y-8335595D01*
X54087952Y-8383214D01*
X54040333Y-8478452D01*
X54040333Y-8668928D01*
X54087952Y-8764166D01*
X54135571Y-8811785D01*
X54230809Y-8859404D01*
X49159380Y-10811785D02*
X49968904Y-10811785D01*
X50064142Y-10764166D01*
X50111761Y-10716547D01*
X50159380Y-10621309D01*
X50159380Y-10430833D01*
X50111761Y-10335595D01*
X50064142Y-10287976D01*
X49968904Y-10240357D01*
X49159380Y-10240357D01*
X49254619Y-9811785D02*
X49207000Y-9764166D01*
X49159380Y-9668928D01*
X49159380Y-9430833D01*
X49207000Y-9335595D01*
X49254619Y-9287976D01*
X49349857Y-9240357D01*
X49445095Y-9240357D01*
X49587952Y-9287976D01*
X50159380Y-9859404D01*
X50159380Y-9240357D01*
X49159380Y-8335595D02*
X49159380Y-8811785D01*
X49635571Y-8859404D01*
X49587952Y-8811785D01*
X49540333Y-8716547D01*
X49540333Y-8478452D01*
X49587952Y-8383214D01*
X49635571Y-8335595D01*
X49730809Y-8287976D01*
X49968904Y-8287976D01*
X50064142Y-8335595D01*
X50111761Y-8383214D01*
X50159380Y-8478452D01*
X50159380Y-8716547D01*
X50111761Y-8811785D01*
X50064142Y-8859404D01*
X44159380Y-10811785D02*
X44968904Y-10811785D01*
X45064142Y-10764166D01*
X45111761Y-10716547D01*
X45159380Y-10621309D01*
X45159380Y-10430833D01*
X45111761Y-10335595D01*
X45064142Y-10287976D01*
X44968904Y-10240357D01*
X44159380Y-10240357D01*
X44254619Y-9811785D02*
X44207000Y-9764166D01*
X44159380Y-9668928D01*
X44159380Y-9430833D01*
X44207000Y-9335595D01*
X44254619Y-9287976D01*
X44349857Y-9240357D01*
X44445095Y-9240357D01*
X44587952Y-9287976D01*
X45159380Y-9859404D01*
X45159380Y-9240357D01*
X44492714Y-8383214D02*
X45159380Y-8383214D01*
X44111761Y-8621309D02*
X44826047Y-8859404D01*
X44826047Y-8240357D01*
X39659380Y-10811785D02*
X40468904Y-10811785D01*
X40564142Y-10764166D01*
X40611761Y-10716547D01*
X40659380Y-10621309D01*
X40659380Y-10430833D01*
X40611761Y-10335595D01*
X40564142Y-10287976D01*
X40468904Y-10240357D01*
X39659380Y-10240357D01*
X39754619Y-9811785D02*
X39707000Y-9764166D01*
X39659380Y-9668928D01*
X39659380Y-9430833D01*
X39707000Y-9335595D01*
X39754619Y-9287976D01*
X39849857Y-9240357D01*
X39945095Y-9240357D01*
X40087952Y-9287976D01*
X40659380Y-9859404D01*
X40659380Y-9240357D01*
X39659380Y-8907023D02*
X39659380Y-8287976D01*
X40040333Y-8621309D01*
X40040333Y-8478452D01*
X40087952Y-8383214D01*
X40135571Y-8335595D01*
X40230809Y-8287976D01*
X40468904Y-8287976D01*
X40564142Y-8335595D01*
X40611761Y-8383214D01*
X40659380Y-8478452D01*
X40659380Y-8764166D01*
X40611761Y-8859404D01*
X40564142Y-8907023D01*
X34659380Y-10811785D02*
X35468904Y-10811785D01*
X35564142Y-10764166D01*
X35611761Y-10716547D01*
X35659380Y-10621309D01*
X35659380Y-10430833D01*
X35611761Y-10335595D01*
X35564142Y-10287976D01*
X35468904Y-10240357D01*
X34659380Y-10240357D01*
X34754619Y-9811785D02*
X34707000Y-9764166D01*
X34659380Y-9668928D01*
X34659380Y-9430833D01*
X34707000Y-9335595D01*
X34754619Y-9287976D01*
X34849857Y-9240357D01*
X34945095Y-9240357D01*
X35087952Y-9287976D01*
X35659380Y-9859404D01*
X35659380Y-9240357D01*
X34754619Y-8859404D02*
X34707000Y-8811785D01*
X34659380Y-8716547D01*
X34659380Y-8478452D01*
X34707000Y-8383214D01*
X34754619Y-8335595D01*
X34849857Y-8287976D01*
X34945095Y-8287976D01*
X35087952Y-8335595D01*
X35659380Y-8907023D01*
X35659380Y-8287976D01*
X30159380Y-10811785D02*
X30968904Y-10811785D01*
X31064142Y-10764166D01*
X31111761Y-10716547D01*
X31159380Y-10621309D01*
X31159380Y-10430833D01*
X31111761Y-10335595D01*
X31064142Y-10287976D01*
X30968904Y-10240357D01*
X30159380Y-10240357D01*
X30254619Y-9811785D02*
X30207000Y-9764166D01*
X30159380Y-9668928D01*
X30159380Y-9430833D01*
X30207000Y-9335595D01*
X30254619Y-9287976D01*
X30349857Y-9240357D01*
X30445095Y-9240357D01*
X30587952Y-9287976D01*
X31159380Y-9859404D01*
X31159380Y-9240357D01*
X31159380Y-8287976D02*
X31159380Y-8859404D01*
X31159380Y-8573690D02*
X30159380Y-8573690D01*
X30302238Y-8668928D01*
X30397476Y-8764166D01*
X30445095Y-8859404D01*
X47245380Y8335595D02*
X48054904Y8335595D01*
X48150142Y8383214D01*
X48197761Y8430833D01*
X48245380Y8526071D01*
X48245380Y8716547D01*
X48197761Y8811785D01*
X48150142Y8859404D01*
X48054904Y8907023D01*
X47245380Y8907023D01*
X48245380Y9907023D02*
X48245380Y9335595D01*
X48245380Y9621309D02*
X47245380Y9621309D01*
X47388238Y9526071D01*
X47483476Y9430833D01*
X47531095Y9335595D01*
X47578714Y10764166D02*
X48245380Y10764166D01*
X47197761Y10526071D02*
X47912047Y10287976D01*
X47912047Y10907023D01*
X42745380Y8335595D02*
X43554904Y8335595D01*
X43650142Y8383214D01*
X43697761Y8430833D01*
X43745380Y8526071D01*
X43745380Y8716547D01*
X43697761Y8811785D01*
X43650142Y8859404D01*
X43554904Y8907023D01*
X42745380Y8907023D01*
X43745380Y9907023D02*
X43745380Y9335595D01*
X43745380Y9621309D02*
X42745380Y9621309D01*
X42888238Y9526071D01*
X42983476Y9430833D01*
X43031095Y9335595D01*
X42745380Y10240357D02*
X42745380Y10859404D01*
X43126333Y10526071D01*
X43126333Y10668928D01*
X43173952Y10764166D01*
X43221571Y10811785D01*
X43316809Y10859404D01*
X43554904Y10859404D01*
X43650142Y10811785D01*
X43697761Y10764166D01*
X43745380Y10668928D01*
X43745380Y10383214D01*
X43697761Y10287976D01*
X43650142Y10240357D01*
X37745380Y8335595D02*
X38554904Y8335595D01*
X38650142Y8383214D01*
X38697761Y8430833D01*
X38745380Y8526071D01*
X38745380Y8716547D01*
X38697761Y8811785D01*
X38650142Y8859404D01*
X38554904Y8907023D01*
X37745380Y8907023D01*
X38745380Y9907023D02*
X38745380Y9335595D01*
X38745380Y9621309D02*
X37745380Y9621309D01*
X37888238Y9526071D01*
X37983476Y9430833D01*
X38031095Y9335595D01*
X37840619Y10287976D02*
X37793000Y10335595D01*
X37745380Y10430833D01*
X37745380Y10668928D01*
X37793000Y10764166D01*
X37840619Y10811785D01*
X37935857Y10859404D01*
X38031095Y10859404D01*
X38173952Y10811785D01*
X38745380Y10240357D01*
X38745380Y10859404D01*
X33245380Y8335595D02*
X34054904Y8335595D01*
X34150142Y8383214D01*
X34197761Y8430833D01*
X34245380Y8526071D01*
X34245380Y8716547D01*
X34197761Y8811785D01*
X34150142Y8859404D01*
X34054904Y8907023D01*
X33245380Y8907023D01*
X34245380Y9907023D02*
X34245380Y9335595D01*
X34245380Y9621309D02*
X33245380Y9621309D01*
X33388238Y9526071D01*
X33483476Y9430833D01*
X33531095Y9335595D01*
X34245380Y10859404D02*
X34245380Y10287976D01*
X34245380Y10573690D02*
X33245380Y10573690D01*
X33388238Y10478452D01*
X33483476Y10383214D01*
X33531095Y10287976D01*
X28245380Y8335595D02*
X29054904Y8335595D01*
X29150142Y8383214D01*
X29197761Y8430833D01*
X29245380Y8526071D01*
X29245380Y8716547D01*
X29197761Y8811785D01*
X29150142Y8859404D01*
X29054904Y8907023D01*
X28245380Y8907023D01*
X29245380Y9907023D02*
X29245380Y9335595D01*
X29245380Y9621309D02*
X28245380Y9621309D01*
X28388238Y9526071D01*
X28483476Y9430833D01*
X28531095Y9335595D01*
X28245380Y10526071D02*
X28245380Y10621309D01*
X28293000Y10716547D01*
X28340619Y10764166D01*
X28435857Y10811785D01*
X28626333Y10859404D01*
X28864428Y10859404D01*
X29054904Y10811785D01*
X29150142Y10764166D01*
X29197761Y10716547D01*
X29245380Y10621309D01*
X29245380Y10526071D01*
X29197761Y10430833D01*
X29150142Y10383214D01*
X29054904Y10335595D01*
X28864428Y10287976D01*
X28626333Y10287976D01*
X28435857Y10335595D01*
X28340619Y10383214D01*
X28293000Y10430833D01*
X28245380Y10526071D01*
X23745380Y8335595D02*
X24554904Y8335595D01*
X24650142Y8383214D01*
X24697761Y8430833D01*
X24745380Y8526071D01*
X24745380Y8716547D01*
X24697761Y8811785D01*
X24650142Y8859404D01*
X24554904Y8907023D01*
X23745380Y8907023D01*
X24745380Y9430833D02*
X24745380Y9621309D01*
X24697761Y9716547D01*
X24650142Y9764166D01*
X24507285Y9859404D01*
X24316809Y9907023D01*
X23935857Y9907023D01*
X23840619Y9859404D01*
X23793000Y9811785D01*
X23745380Y9716547D01*
X23745380Y9526071D01*
X23793000Y9430833D01*
X23840619Y9383214D01*
X23935857Y9335595D01*
X24173952Y9335595D01*
X24269190Y9383214D01*
X24316809Y9430833D01*
X24364428Y9526071D01*
X24364428Y9716547D01*
X24316809Y9811785D01*
X24269190Y9859404D01*
X24173952Y9907023D01*
X89659380Y7045357D02*
X88659380Y7045357D01*
X89373666Y7378690D01*
X88659380Y7712023D01*
X89659380Y7712023D01*
X89659380Y8712023D02*
X89659380Y8140595D01*
X89659380Y8426309D02*
X88659380Y8426309D01*
X88802238Y8331071D01*
X88897476Y8235833D01*
X88945095Y8140595D01*
X12245380Y10835595D02*
X13054904Y10835595D01*
X13150142Y10883214D01*
X13197761Y10930833D01*
X13245380Y11026071D01*
X13245380Y11216547D01*
X13197761Y11311785D01*
X13150142Y11359404D01*
X13054904Y11407023D01*
X12245380Y11407023D01*
X12673952Y12026071D02*
X12626333Y11930833D01*
X12578714Y11883214D01*
X12483476Y11835595D01*
X12435857Y11835595D01*
X12340619Y11883214D01*
X12293000Y11930833D01*
X12245380Y12026071D01*
X12245380Y12216547D01*
X12293000Y12311785D01*
X12340619Y12359404D01*
X12435857Y12407023D01*
X12483476Y12407023D01*
X12578714Y12359404D01*
X12626333Y12311785D01*
X12673952Y12216547D01*
X12673952Y12026071D01*
X12721571Y11930833D01*
X12769190Y11883214D01*
X12864428Y11835595D01*
X13054904Y11835595D01*
X13150142Y11883214D01*
X13197761Y11930833D01*
X13245380Y12026071D01*
X13245380Y12216547D01*
X13197761Y12311785D01*
X13150142Y12359404D01*
X13054904Y12407023D01*
X12864428Y12407023D01*
X12769190Y12359404D01*
X12721571Y12311785D01*
X12673952Y12216547D01*
X7745380Y10835595D02*
X8554904Y10835595D01*
X8650142Y10883214D01*
X8697761Y10930833D01*
X8745380Y11026071D01*
X8745380Y11216547D01*
X8697761Y11311785D01*
X8650142Y11359404D01*
X8554904Y11407023D01*
X7745380Y11407023D01*
X7745380Y11787976D02*
X7745380Y12454642D01*
X8745380Y12026071D01*
X3245380Y10835595D02*
X4054904Y10835595D01*
X4150142Y10883214D01*
X4197761Y10930833D01*
X4245380Y11026071D01*
X4245380Y11216547D01*
X4197761Y11311785D01*
X4150142Y11359404D01*
X4054904Y11407023D01*
X3245380Y11407023D01*
X3245380Y12311785D02*
X3245380Y12121309D01*
X3293000Y12026071D01*
X3340619Y11978452D01*
X3483476Y11883214D01*
X3673952Y11835595D01*
X4054904Y11835595D01*
X4150142Y11883214D01*
X4197761Y11930833D01*
X4245380Y12026071D01*
X4245380Y12216547D01*
X4197761Y12311785D01*
X4150142Y12359404D01*
X4054904Y12407023D01*
X3816809Y12407023D01*
X3721571Y12359404D01*
X3673952Y12311785D01*
X3626333Y12216547D01*
X3626333Y12026071D01*
X3673952Y11930833D01*
X3721571Y11883214D01*
X3816809Y11835595D01*
X16745380Y10835595D02*
X17554904Y10835595D01*
X17650142Y10883214D01*
X17697761Y10930833D01*
X17745380Y11026071D01*
X17745380Y11216547D01*
X17697761Y11311785D01*
X17650142Y11359404D01*
X17554904Y11407023D01*
X16745380Y11407023D01*
X16745380Y12359404D02*
X16745380Y11883214D01*
X17221571Y11835595D01*
X17173952Y11883214D01*
X17126333Y11978452D01*
X17126333Y12216547D01*
X17173952Y12311785D01*
X17221571Y12359404D01*
X17316809Y12407023D01*
X17554904Y12407023D01*
X17650142Y12359404D01*
X17697761Y12311785D01*
X17745380Y12216547D01*
X17745380Y11978452D01*
X17697761Y11883214D01*
X17650142Y11835595D01*
X14159380Y-12359404D02*
X14968904Y-12359404D01*
X15064142Y-12311785D01*
X15111761Y-12264166D01*
X15159380Y-12168928D01*
X15159380Y-11978452D01*
X15111761Y-11883214D01*
X15064142Y-11835595D01*
X14968904Y-11787976D01*
X14159380Y-11787976D01*
X14492714Y-10883214D02*
X15159380Y-10883214D01*
X14111761Y-11121309D02*
X14826047Y-11359404D01*
X14826047Y-10740357D01*
X9659380Y-12359404D02*
X10468904Y-12359404D01*
X10564142Y-12311785D01*
X10611761Y-12264166D01*
X10659380Y-12168928D01*
X10659380Y-11978452D01*
X10611761Y-11883214D01*
X10564142Y-11835595D01*
X10468904Y-11787976D01*
X9659380Y-11787976D01*
X9659380Y-11407023D02*
X9659380Y-10787976D01*
X10040333Y-11121309D01*
X10040333Y-10978452D01*
X10087952Y-10883214D01*
X10135571Y-10835595D01*
X10230809Y-10787976D01*
X10468904Y-10787976D01*
X10564142Y-10835595D01*
X10611761Y-10883214D01*
X10659380Y-10978452D01*
X10659380Y-11264166D01*
X10611761Y-11359404D01*
X10564142Y-11407023D01*
X18659380Y-12359404D02*
X19468904Y-12359404D01*
X19564142Y-12311785D01*
X19611761Y-12264166D01*
X19659380Y-12168928D01*
X19659380Y-11978452D01*
X19611761Y-11883214D01*
X19564142Y-11835595D01*
X19468904Y-11787976D01*
X18659380Y-11787976D01*
X18754619Y-11359404D02*
X18707000Y-11311785D01*
X18659380Y-11216547D01*
X18659380Y-10978452D01*
X18707000Y-10883214D01*
X18754619Y-10835595D01*
X18849857Y-10787976D01*
X18945095Y-10787976D01*
X19087952Y-10835595D01*
X19659380Y-11407023D01*
X19659380Y-10787976D01*
X23159380Y-12359404D02*
X23968904Y-12359404D01*
X24064142Y-12311785D01*
X24111761Y-12264166D01*
X24159380Y-12168928D01*
X24159380Y-11978452D01*
X24111761Y-11883214D01*
X24064142Y-11835595D01*
X23968904Y-11787976D01*
X23159380Y-11787976D01*
X24159380Y-10787976D02*
X24159380Y-11359404D01*
X24159380Y-11073690D02*
X23159380Y-11073690D01*
X23302238Y-11168928D01*
X23397476Y-11264166D01*
X23445095Y-11359404D01*
X-1287976Y-2659380D02*
X-1287976Y-3373666D01*
X-1335595Y-3516523D01*
X-1430833Y-3611761D01*
X-1573690Y-3659380D01*
X-1668928Y-3659380D01*
X-859404Y-2754619D02*
X-811785Y-2707000D01*
X-716547Y-2659380D01*
X-478452Y-2659380D01*
X-383214Y-2707000D01*
X-335595Y-2754619D01*
X-287976Y-2849857D01*
X-287976Y-2945095D01*
X-335595Y-3087952D01*
X-907023Y-3659380D01*
X-287976Y-3659380D01*
D15*
X-1765261Y-7018121D02*
X-1765261Y-7145169D01*
X-1733500Y-7208692D01*
X-1701738Y-7240454D01*
X-1606452Y-7303978D01*
X-1479404Y-7335740D01*
X-1225309Y-7335740D01*
X-1161785Y-7303978D01*
X-1130023Y-7272216D01*
X-1098261Y-7208692D01*
X-1098261Y-7081645D01*
X-1130023Y-7018121D01*
X-1161785Y-6986359D01*
X-1225309Y-6954597D01*
X-1384119Y-6954597D01*
X-1447642Y-6986359D01*
X-1479404Y-7018121D01*
X-1511166Y-7081645D01*
X-1511166Y-7208692D01*
X-1479404Y-7272216D01*
X-1447642Y-7303978D01*
X-1384119Y-7335740D01*
X-998261Y4527783D02*
X-998261Y4654830D01*
X-1030023Y4718354D01*
X-1061785Y4750116D01*
X-1157071Y4813640D01*
X-1284119Y4845402D01*
X-1538214Y4845402D01*
X-1601738Y4813640D01*
X-1633500Y4781878D01*
X-1665261Y4718354D01*
X-1665261Y4591307D01*
X-1633500Y4527783D01*
X-1601738Y4496021D01*
X-1538214Y4464259D01*
X-1379404Y4464259D01*
X-1315880Y4496021D01*
X-1284119Y4527783D01*
X-1252357Y4591307D01*
X-1252357Y4718354D01*
X-1284119Y4781878D01*
X-1315880Y4813640D01*
X-1379404Y4845402D01*
X1511738Y6113640D02*
X1511738Y5796021D01*
X1829357Y5764259D01*
X1797595Y5796021D01*
X1765833Y5859545D01*
X1765833Y6018354D01*
X1797595Y6081878D01*
X1829357Y6113640D01*
X1892880Y6145402D01*
X2051690Y6145402D01*
X2115214Y6113640D01*
X2146976Y6081878D01*
X2178738Y6018354D01*
X2178738Y5859545D01*
X2146976Y5796021D01*
X2115214Y5764259D01*
X2280738Y-8002597D02*
X2280738Y-8383740D01*
X2280738Y-8193169D02*
X1613738Y-8193169D01*
X1709023Y-8256692D01*
X1772547Y-8320216D01*
X1804309Y-8383740D01*
D10*
X73745380Y15335595D02*
X72745380Y15335595D01*
X72745380Y15573690D01*
X72793000Y15716547D01*
X72888238Y15811785D01*
X72983476Y15859404D01*
X73173952Y15907023D01*
X73316809Y15907023D01*
X73507285Y15859404D01*
X73602523Y15811785D01*
X73697761Y15716547D01*
X73745380Y15573690D01*
X73745380Y15335595D01*
X73173952Y16478452D02*
X73126333Y16383214D01*
X73078714Y16335595D01*
X72983476Y16287976D01*
X72935857Y16287976D01*
X72840619Y16335595D01*
X72793000Y16383214D01*
X72745380Y16478452D01*
X72745380Y16668928D01*
X72793000Y16764166D01*
X72840619Y16811785D01*
X72935857Y16859404D01*
X72983476Y16859404D01*
X73078714Y16811785D01*
X73126333Y16764166D01*
X73173952Y16668928D01*
X73173952Y16478452D01*
X73221571Y16383214D01*
X73269190Y16335595D01*
X73364428Y16287976D01*
X73554904Y16287976D01*
X73650142Y16335595D01*
X73697761Y16383214D01*
X73745380Y16478452D01*
X73745380Y16668928D01*
X73697761Y16764166D01*
X73650142Y16811785D01*
X73554904Y16859404D01*
X73364428Y16859404D01*
X73269190Y16811785D01*
X73221571Y16764166D01*
X73173952Y16668928D01*
X64245380Y15335595D02*
X63245380Y15335595D01*
X63245380Y15573690D01*
X63293000Y15716547D01*
X63388238Y15811785D01*
X63483476Y15859404D01*
X63673952Y15907023D01*
X63816809Y15907023D01*
X64007285Y15859404D01*
X64102523Y15811785D01*
X64197761Y15716547D01*
X64245380Y15573690D01*
X64245380Y15335595D01*
X63245380Y16240357D02*
X63245380Y16907023D01*
X64245380Y16478452D01*
X54745380Y15335595D02*
X53745380Y15335595D01*
X53745380Y15573690D01*
X53793000Y15716547D01*
X53888238Y15811785D01*
X53983476Y15859404D01*
X54173952Y15907023D01*
X54316809Y15907023D01*
X54507285Y15859404D01*
X54602523Y15811785D01*
X54697761Y15716547D01*
X54745380Y15573690D01*
X54745380Y15335595D01*
X53745380Y16764166D02*
X53745380Y16573690D01*
X53793000Y16478452D01*
X53840619Y16430833D01*
X53983476Y16335595D01*
X54173952Y16287976D01*
X54554904Y16287976D01*
X54650142Y16335595D01*
X54697761Y16383214D01*
X54745380Y16478452D01*
X54745380Y16668928D01*
X54697761Y16764166D01*
X54650142Y16811785D01*
X54554904Y16859404D01*
X54316809Y16859404D01*
X54221571Y16811785D01*
X54173952Y16764166D01*
X54126333Y16668928D01*
X54126333Y16478452D01*
X54173952Y16383214D01*
X54221571Y16335595D01*
X54316809Y16287976D01*
X45245380Y15335595D02*
X44245380Y15335595D01*
X44245380Y15573690D01*
X44293000Y15716547D01*
X44388238Y15811785D01*
X44483476Y15859404D01*
X44673952Y15907023D01*
X44816809Y15907023D01*
X45007285Y15859404D01*
X45102523Y15811785D01*
X45197761Y15716547D01*
X45245380Y15573690D01*
X45245380Y15335595D01*
X44245380Y16811785D02*
X44245380Y16335595D01*
X44721571Y16287976D01*
X44673952Y16335595D01*
X44626333Y16430833D01*
X44626333Y16668928D01*
X44673952Y16764166D01*
X44721571Y16811785D01*
X44816809Y16859404D01*
X45054904Y16859404D01*
X45150142Y16811785D01*
X45197761Y16764166D01*
X45245380Y16668928D01*
X45245380Y16430833D01*
X45197761Y16335595D01*
X45150142Y16287976D01*
X35745380Y15335595D02*
X34745380Y15335595D01*
X34745380Y15573690D01*
X34793000Y15716547D01*
X34888238Y15811785D01*
X34983476Y15859404D01*
X35173952Y15907023D01*
X35316809Y15907023D01*
X35507285Y15859404D01*
X35602523Y15811785D01*
X35697761Y15716547D01*
X35745380Y15573690D01*
X35745380Y15335595D01*
X35078714Y16764166D02*
X35745380Y16764166D01*
X34697761Y16526071D02*
X35412047Y16287976D01*
X35412047Y16907023D01*
X26245380Y15335595D02*
X25245380Y15335595D01*
X25245380Y15573690D01*
X25293000Y15716547D01*
X25388238Y15811785D01*
X25483476Y15859404D01*
X25673952Y15907023D01*
X25816809Y15907023D01*
X26007285Y15859404D01*
X26102523Y15811785D01*
X26197761Y15716547D01*
X26245380Y15573690D01*
X26245380Y15335595D01*
X25245380Y16240357D02*
X25245380Y16859404D01*
X25626333Y16526071D01*
X25626333Y16668928D01*
X25673952Y16764166D01*
X25721571Y16811785D01*
X25816809Y16859404D01*
X26054904Y16859404D01*
X26150142Y16811785D01*
X26197761Y16764166D01*
X26245380Y16668928D01*
X26245380Y16383214D01*
X26197761Y16287976D01*
X26150142Y16240357D01*
X9159380Y-19311785D02*
X8159380Y-19311785D01*
X8159380Y-19073690D01*
X8207000Y-18930833D01*
X8302238Y-18835595D01*
X8397476Y-18787976D01*
X8587952Y-18740357D01*
X8730809Y-18740357D01*
X8921285Y-18787976D01*
X9016523Y-18835595D01*
X9111761Y-18930833D01*
X9159380Y-19073690D01*
X9159380Y-19311785D01*
X9159380Y-17787976D02*
X9159380Y-18359404D01*
X9159380Y-18073690D02*
X8159380Y-18073690D01*
X8302238Y-18168928D01*
X8397476Y-18264166D01*
X8445095Y-18359404D01*
X5745380Y17835595D02*
X4745380Y17835595D01*
X4745380Y18073690D01*
X4793000Y18216547D01*
X4888238Y18311785D01*
X4983476Y18359404D01*
X5173952Y18407023D01*
X5316809Y18407023D01*
X5507285Y18359404D01*
X5602523Y18311785D01*
X5697761Y18216547D01*
X5745380Y18073690D01*
X5745380Y17835595D01*
X4840619Y18787976D02*
X4793000Y18835595D01*
X4745380Y18930833D01*
X4745380Y19168928D01*
X4793000Y19264166D01*
X4840619Y19311785D01*
X4935857Y19359404D01*
X5031095Y19359404D01*
X5173952Y19311785D01*
X5745380Y18740357D01*
X5745380Y19359404D01*
X76533333Y-21002380D02*
X76200000Y-20526190D01*
X75961904Y-21002380D02*
X75961904Y-20002380D01*
X76342857Y-20002380D01*
X76438095Y-20050000D01*
X76485714Y-20097619D01*
X76533333Y-20192857D01*
X76533333Y-20335714D01*
X76485714Y-20430952D01*
X76438095Y-20478571D01*
X76342857Y-20526190D01*
X75961904Y-20526190D01*
X77485714Y-21002380D02*
X76914285Y-21002380D01*
X77200000Y-21002380D02*
X77200000Y-20002380D01*
X77104761Y-20145238D01*
X77009523Y-20240476D01*
X76914285Y-20288095D01*
X86233333Y1597619D02*
X85900000Y2073809D01*
X85661904Y1597619D02*
X85661904Y2597619D01*
X86042857Y2597619D01*
X86138095Y2550000D01*
X86185714Y2502380D01*
X86233333Y2407142D01*
X86233333Y2264285D01*
X86185714Y2169047D01*
X86138095Y2121428D01*
X86042857Y2073809D01*
X85661904Y2073809D01*
X86614285Y2502380D02*
X86661904Y2550000D01*
X86757142Y2597619D01*
X86995238Y2597619D01*
X87090476Y2550000D01*
X87138095Y2502380D01*
X87185714Y2407142D01*
X87185714Y2311904D01*
X87138095Y2169047D01*
X86566666Y1597619D01*
X87185714Y1597619D01*
X79382380Y-166666D02*
X78906190Y-500000D01*
X79382380Y-738095D02*
X78382380Y-738095D01*
X78382380Y-357142D01*
X78430000Y-261904D01*
X78477619Y-214285D01*
X78572857Y-166666D01*
X78715714Y-166666D01*
X78810952Y-214285D01*
X78858571Y-261904D01*
X78906190Y-357142D01*
X78906190Y-738095D01*
X79382380Y309523D02*
X79382380Y500000D01*
X79334761Y595238D01*
X79287142Y642857D01*
X79144285Y738095D01*
X78953809Y785714D01*
X78572857Y785714D01*
X78477619Y738095D01*
X78430000Y690476D01*
X78382380Y595238D01*
X78382380Y404761D01*
X78430000Y309523D01*
X78477619Y261904D01*
X78572857Y214285D01*
X78810952Y214285D01*
X78906190Y261904D01*
X78953809Y309523D01*
X79001428Y404761D01*
X79001428Y595238D01*
X78953809Y690476D01*
X78906190Y738095D01*
X78810952Y785714D01*
X86233333Y-302380D02*
X85900000Y173809D01*
X85661904Y-302380D02*
X85661904Y697619D01*
X86042857Y697619D01*
X86138095Y650000D01*
X86185714Y602380D01*
X86233333Y507142D01*
X86233333Y364285D01*
X86185714Y269047D01*
X86138095Y221428D01*
X86042857Y173809D01*
X85661904Y173809D01*
X86566666Y697619D02*
X87185714Y697619D01*
X86852380Y316666D01*
X86995238Y316666D01*
X87090476Y269047D01*
X87138095Y221428D01*
X87185714Y126190D01*
X87185714Y-111904D01*
X87138095Y-207142D01*
X87090476Y-254761D01*
X86995238Y-302380D01*
X86709523Y-302380D01*
X86614285Y-254761D01*
X86566666Y-207142D01*
X70102380Y-166666D02*
X69626190Y-500000D01*
X70102380Y-738095D02*
X69102380Y-738095D01*
X69102380Y-357142D01*
X69150000Y-261904D01*
X69197619Y-214285D01*
X69292857Y-166666D01*
X69435714Y-166666D01*
X69530952Y-214285D01*
X69578571Y-261904D01*
X69626190Y-357142D01*
X69626190Y-738095D01*
X69102380Y166666D02*
X69102380Y833333D01*
X70102380Y404761D01*
X60602380Y-166666D02*
X60126190Y-500000D01*
X60602380Y-738095D02*
X59602380Y-738095D01*
X59602380Y-357142D01*
X59650000Y-261904D01*
X59697619Y-214285D01*
X59792857Y-166666D01*
X59935714Y-166666D01*
X60030952Y-214285D01*
X60078571Y-261904D01*
X60126190Y-357142D01*
X60126190Y-738095D01*
X59602380Y690476D02*
X59602380Y500000D01*
X59650000Y404761D01*
X59697619Y357142D01*
X59840476Y261904D01*
X60030952Y214285D01*
X60411904Y214285D01*
X60507142Y261904D01*
X60554761Y309523D01*
X60602380Y404761D01*
X60602380Y595238D01*
X60554761Y690476D01*
X60507142Y738095D01*
X60411904Y785714D01*
X60173809Y785714D01*
X60078571Y738095D01*
X60030952Y690476D01*
X59983333Y595238D01*
X59983333Y404761D01*
X60030952Y309523D01*
X60078571Y261904D01*
X60173809Y214285D01*
X50882380Y-166666D02*
X50406190Y-500000D01*
X50882380Y-738095D02*
X49882380Y-738095D01*
X49882380Y-357142D01*
X49930000Y-261904D01*
X49977619Y-214285D01*
X50072857Y-166666D01*
X50215714Y-166666D01*
X50310952Y-214285D01*
X50358571Y-261904D01*
X50406190Y-357142D01*
X50406190Y-738095D01*
X49882380Y738095D02*
X49882380Y261904D01*
X50358571Y214285D01*
X50310952Y261904D01*
X50263333Y357142D01*
X50263333Y595238D01*
X50310952Y690476D01*
X50358571Y738095D01*
X50453809Y785714D01*
X50691904Y785714D01*
X50787142Y738095D01*
X50834761Y690476D01*
X50882380Y595238D01*
X50882380Y357142D01*
X50834761Y261904D01*
X50787142Y214285D01*
X41382380Y-166666D02*
X40906190Y-500000D01*
X41382380Y-738095D02*
X40382380Y-738095D01*
X40382380Y-357142D01*
X40430000Y-261904D01*
X40477619Y-214285D01*
X40572857Y-166666D01*
X40715714Y-166666D01*
X40810952Y-214285D01*
X40858571Y-261904D01*
X40906190Y-357142D01*
X40906190Y-738095D01*
X40715714Y690476D02*
X41382380Y690476D01*
X40334761Y452380D02*
X41049047Y214285D01*
X41049047Y833333D01*
X31882380Y-166666D02*
X31406190Y-500000D01*
X31882380Y-738095D02*
X30882380Y-738095D01*
X30882380Y-357142D01*
X30930000Y-261904D01*
X30977619Y-214285D01*
X31072857Y-166666D01*
X31215714Y-166666D01*
X31310952Y-214285D01*
X31358571Y-261904D01*
X31406190Y-357142D01*
X31406190Y-738095D01*
X31310952Y404761D02*
X31263333Y309523D01*
X31215714Y261904D01*
X31120476Y214285D01*
X31072857Y214285D01*
X30977619Y261904D01*
X30930000Y309523D01*
X30882380Y404761D01*
X30882380Y595238D01*
X30930000Y690476D01*
X30977619Y738095D01*
X31072857Y785714D01*
X31120476Y785714D01*
X31215714Y738095D01*
X31263333Y690476D01*
X31310952Y595238D01*
X31310952Y404761D01*
X31358571Y309523D01*
X31406190Y261904D01*
X31501428Y214285D01*
X31691904Y214285D01*
X31787142Y261904D01*
X31834761Y309523D01*
X31882380Y404761D01*
X31882380Y595238D01*
X31834761Y690476D01*
X31787142Y738095D01*
X31691904Y785714D01*
X31501428Y785714D01*
X31406190Y738095D01*
X31358571Y690476D01*
X31310952Y595238D01*
X82772380Y-4133333D02*
X83486666Y-4133333D01*
X83629523Y-4180952D01*
X83724761Y-4276190D01*
X83772380Y-4419047D01*
X83772380Y-4514285D01*
X82772380Y-3228571D02*
X82772380Y-3419047D01*
X82820000Y-3514285D01*
X82867619Y-3561904D01*
X83010476Y-3657142D01*
X83200952Y-3704761D01*
X83581904Y-3704761D01*
X83677142Y-3657142D01*
X83724761Y-3609523D01*
X83772380Y-3514285D01*
X83772380Y-3323809D01*
X83724761Y-3228571D01*
X83677142Y-3180952D01*
X83581904Y-3133333D01*
X83343809Y-3133333D01*
X83248571Y-3180952D01*
X83200952Y-3228571D01*
X83153333Y-3323809D01*
X83153333Y-3514285D01*
X83200952Y-3609523D01*
X83248571Y-3657142D01*
X83343809Y-3704761D01*
X82782380Y-12433333D02*
X83496666Y-12433333D01*
X83639523Y-12480952D01*
X83734761Y-12576190D01*
X83782380Y-12719047D01*
X83782380Y-12814285D01*
X83782380Y-11433333D02*
X83782380Y-12004761D01*
X83782380Y-11719047D02*
X82782380Y-11719047D01*
X82925238Y-11814285D01*
X83020476Y-11909523D01*
X83068095Y-12004761D01*
X84446666Y-20622380D02*
X84446666Y-21336666D01*
X84399047Y-21479523D01*
X84303809Y-21574761D01*
X84160952Y-21622380D01*
X84065714Y-21622380D01*
X85351428Y-20955714D02*
X85351428Y-21622380D01*
X85113333Y-20574761D02*
X84875238Y-21289047D01*
X85494285Y-21289047D01*
X88397142Y7433333D02*
X88444761Y7385714D01*
X88492380Y7242857D01*
X88492380Y7147619D01*
X88444761Y7004761D01*
X88349523Y6909523D01*
X88254285Y6861904D01*
X88063809Y6814285D01*
X87920952Y6814285D01*
X87730476Y6861904D01*
X87635238Y6909523D01*
X87540000Y7004761D01*
X87492380Y7147619D01*
X87492380Y7242857D01*
X87540000Y7385714D01*
X87587619Y7433333D01*
X88492380Y8385714D02*
X88492380Y7814285D01*
X88492380Y8100000D02*
X87492380Y8100000D01*
X87635238Y8004761D01*
X87730476Y7909523D01*
X87778095Y7814285D01*
%LPC*%
G36*
G01*
X78100000Y-13290000D02*
X78300000Y-13290000D01*
G75*
G02*
X78400000Y-13390000I0J-100000D01*
G01*
X78400000Y-13825000D01*
G75*
G02*
X78300000Y-13925000I-100000J0D01*
G01*
X78100000Y-13925000D01*
G75*
G02*
X78000000Y-13825000I0J100000D01*
G01*
X78000000Y-13390000D01*
G75*
G02*
X78100000Y-13290000I100000J0D01*
G01*
G37*
G36*
G01*
X78100000Y-12475000D02*
X78300000Y-12475000D01*
G75*
G02*
X78400000Y-12575000I0J-100000D01*
G01*
X78400000Y-13010000D01*
G75*
G02*
X78300000Y-13110000I-100000J0D01*
G01*
X78100000Y-13110000D01*
G75*
G02*
X78000000Y-13010000I0J100000D01*
G01*
X78000000Y-12575000D01*
G75*
G02*
X78100000Y-12475000I100000J0D01*
G01*
G37*
G36*
G01*
X73650000Y-13340000D02*
X73850000Y-13340000D01*
G75*
G02*
X73950000Y-13440000I0J-100000D01*
G01*
X73950000Y-13875000D01*
G75*
G02*
X73850000Y-13975000I-100000J0D01*
G01*
X73650000Y-13975000D01*
G75*
G02*
X73550000Y-13875000I0J100000D01*
G01*
X73550000Y-13440000D01*
G75*
G02*
X73650000Y-13340000I100000J0D01*
G01*
G37*
G36*
G01*
X73650000Y-12525000D02*
X73850000Y-12525000D01*
G75*
G02*
X73950000Y-12625000I0J-100000D01*
G01*
X73950000Y-13060000D01*
G75*
G02*
X73850000Y-13160000I-100000J0D01*
G01*
X73650000Y-13160000D01*
G75*
G02*
X73550000Y-13060000I0J100000D01*
G01*
X73550000Y-12625000D01*
G75*
G02*
X73650000Y-12525000I100000J0D01*
G01*
G37*
G36*
G01*
X68650000Y-13340000D02*
X68850000Y-13340000D01*
G75*
G02*
X68950000Y-13440000I0J-100000D01*
G01*
X68950000Y-13875000D01*
G75*
G02*
X68850000Y-13975000I-100000J0D01*
G01*
X68650000Y-13975000D01*
G75*
G02*
X68550000Y-13875000I0J100000D01*
G01*
X68550000Y-13440000D01*
G75*
G02*
X68650000Y-13340000I100000J0D01*
G01*
G37*
G36*
G01*
X68650000Y-12525000D02*
X68850000Y-12525000D01*
G75*
G02*
X68950000Y-12625000I0J-100000D01*
G01*
X68950000Y-13060000D01*
G75*
G02*
X68850000Y-13160000I-100000J0D01*
G01*
X68650000Y-13160000D01*
G75*
G02*
X68550000Y-13060000I0J100000D01*
G01*
X68550000Y-12625000D01*
G75*
G02*
X68650000Y-12525000I100000J0D01*
G01*
G37*
G36*
G01*
X64150000Y-13340000D02*
X64350000Y-13340000D01*
G75*
G02*
X64450000Y-13440000I0J-100000D01*
G01*
X64450000Y-13875000D01*
G75*
G02*
X64350000Y-13975000I-100000J0D01*
G01*
X64150000Y-13975000D01*
G75*
G02*
X64050000Y-13875000I0J100000D01*
G01*
X64050000Y-13440000D01*
G75*
G02*
X64150000Y-13340000I100000J0D01*
G01*
G37*
G36*
G01*
X64150000Y-12525000D02*
X64350000Y-12525000D01*
G75*
G02*
X64450000Y-12625000I0J-100000D01*
G01*
X64450000Y-13060000D01*
G75*
G02*
X64350000Y-13160000I-100000J0D01*
G01*
X64150000Y-13160000D01*
G75*
G02*
X64050000Y-13060000I0J100000D01*
G01*
X64050000Y-12625000D01*
G75*
G02*
X64150000Y-12525000I100000J0D01*
G01*
G37*
G36*
G01*
X59100000Y-13340000D02*
X59300000Y-13340000D01*
G75*
G02*
X59400000Y-13440000I0J-100000D01*
G01*
X59400000Y-13875000D01*
G75*
G02*
X59300000Y-13975000I-100000J0D01*
G01*
X59100000Y-13975000D01*
G75*
G02*
X59000000Y-13875000I0J100000D01*
G01*
X59000000Y-13440000D01*
G75*
G02*
X59100000Y-13340000I100000J0D01*
G01*
G37*
G36*
G01*
X59100000Y-12525000D02*
X59300000Y-12525000D01*
G75*
G02*
X59400000Y-12625000I0J-100000D01*
G01*
X59400000Y-13060000D01*
G75*
G02*
X59300000Y-13160000I-100000J0D01*
G01*
X59100000Y-13160000D01*
G75*
G02*
X59000000Y-13060000I0J100000D01*
G01*
X59000000Y-12625000D01*
G75*
G02*
X59100000Y-12525000I100000J0D01*
G01*
G37*
G36*
G01*
X54650000Y-13340000D02*
X54850000Y-13340000D01*
G75*
G02*
X54950000Y-13440000I0J-100000D01*
G01*
X54950000Y-13875000D01*
G75*
G02*
X54850000Y-13975000I-100000J0D01*
G01*
X54650000Y-13975000D01*
G75*
G02*
X54550000Y-13875000I0J100000D01*
G01*
X54550000Y-13440000D01*
G75*
G02*
X54650000Y-13340000I100000J0D01*
G01*
G37*
G36*
G01*
X54650000Y-12525000D02*
X54850000Y-12525000D01*
G75*
G02*
X54950000Y-12625000I0J-100000D01*
G01*
X54950000Y-13060000D01*
G75*
G02*
X54850000Y-13160000I-100000J0D01*
G01*
X54650000Y-13160000D01*
G75*
G02*
X54550000Y-13060000I0J100000D01*
G01*
X54550000Y-12625000D01*
G75*
G02*
X54650000Y-12525000I100000J0D01*
G01*
G37*
G36*
G01*
X49650000Y-13340000D02*
X49850000Y-13340000D01*
G75*
G02*
X49950000Y-13440000I0J-100000D01*
G01*
X49950000Y-13875000D01*
G75*
G02*
X49850000Y-13975000I-100000J0D01*
G01*
X49650000Y-13975000D01*
G75*
G02*
X49550000Y-13875000I0J100000D01*
G01*
X49550000Y-13440000D01*
G75*
G02*
X49650000Y-13340000I100000J0D01*
G01*
G37*
G36*
G01*
X49650000Y-12525000D02*
X49850000Y-12525000D01*
G75*
G02*
X49950000Y-12625000I0J-100000D01*
G01*
X49950000Y-13060000D01*
G75*
G02*
X49850000Y-13160000I-100000J0D01*
G01*
X49650000Y-13160000D01*
G75*
G02*
X49550000Y-13060000I0J100000D01*
G01*
X49550000Y-12625000D01*
G75*
G02*
X49650000Y-12525000I100000J0D01*
G01*
G37*
G36*
G01*
X45150000Y-13340000D02*
X45350000Y-13340000D01*
G75*
G02*
X45450000Y-13440000I0J-100000D01*
G01*
X45450000Y-13875000D01*
G75*
G02*
X45350000Y-13975000I-100000J0D01*
G01*
X45150000Y-13975000D01*
G75*
G02*
X45050000Y-13875000I0J100000D01*
G01*
X45050000Y-13440000D01*
G75*
G02*
X45150000Y-13340000I100000J0D01*
G01*
G37*
G36*
G01*
X45150000Y-12525000D02*
X45350000Y-12525000D01*
G75*
G02*
X45450000Y-12625000I0J-100000D01*
G01*
X45450000Y-13060000D01*
G75*
G02*
X45350000Y-13160000I-100000J0D01*
G01*
X45150000Y-13160000D01*
G75*
G02*
X45050000Y-13060000I0J100000D01*
G01*
X45050000Y-12625000D01*
G75*
G02*
X45150000Y-12525000I100000J0D01*
G01*
G37*
G36*
G01*
X40150000Y-13340000D02*
X40350000Y-13340000D01*
G75*
G02*
X40450000Y-13440000I0J-100000D01*
G01*
X40450000Y-13875000D01*
G75*
G02*
X40350000Y-13975000I-100000J0D01*
G01*
X40150000Y-13975000D01*
G75*
G02*
X40050000Y-13875000I0J100000D01*
G01*
X40050000Y-13440000D01*
G75*
G02*
X40150000Y-13340000I100000J0D01*
G01*
G37*
G36*
G01*
X40150000Y-12525000D02*
X40350000Y-12525000D01*
G75*
G02*
X40450000Y-12625000I0J-100000D01*
G01*
X40450000Y-13060000D01*
G75*
G02*
X40350000Y-13160000I-100000J0D01*
G01*
X40150000Y-13160000D01*
G75*
G02*
X40050000Y-13060000I0J100000D01*
G01*
X40050000Y-12625000D01*
G75*
G02*
X40150000Y-12525000I100000J0D01*
G01*
G37*
G36*
G01*
X35650000Y-13247500D02*
X35850000Y-13247500D01*
G75*
G02*
X35950000Y-13347500I0J-100000D01*
G01*
X35950000Y-13782500D01*
G75*
G02*
X35850000Y-13882500I-100000J0D01*
G01*
X35650000Y-13882500D01*
G75*
G02*
X35550000Y-13782500I0J100000D01*
G01*
X35550000Y-13347500D01*
G75*
G02*
X35650000Y-13247500I100000J0D01*
G01*
G37*
G36*
G01*
X35650000Y-12432500D02*
X35850000Y-12432500D01*
G75*
G02*
X35950000Y-12532500I0J-100000D01*
G01*
X35950000Y-12967500D01*
G75*
G02*
X35850000Y-13067500I-100000J0D01*
G01*
X35650000Y-13067500D01*
G75*
G02*
X35550000Y-12967500I0J100000D01*
G01*
X35550000Y-12532500D01*
G75*
G02*
X35650000Y-12432500I100000J0D01*
G01*
G37*
G36*
G01*
X30650000Y-13340000D02*
X30850000Y-13340000D01*
G75*
G02*
X30950000Y-13440000I0J-100000D01*
G01*
X30950000Y-13875000D01*
G75*
G02*
X30850000Y-13975000I-100000J0D01*
G01*
X30650000Y-13975000D01*
G75*
G02*
X30550000Y-13875000I0J100000D01*
G01*
X30550000Y-13440000D01*
G75*
G02*
X30650000Y-13340000I100000J0D01*
G01*
G37*
G36*
G01*
X30650000Y-12525000D02*
X30850000Y-12525000D01*
G75*
G02*
X30950000Y-12625000I0J-100000D01*
G01*
X30950000Y-13060000D01*
G75*
G02*
X30850000Y-13160000I-100000J0D01*
G01*
X30650000Y-13160000D01*
G75*
G02*
X30550000Y-13060000I0J100000D01*
G01*
X30550000Y-12625000D01*
G75*
G02*
X30650000Y-12525000I100000J0D01*
G01*
G37*
G36*
G01*
X26150000Y-13340000D02*
X26350000Y-13340000D01*
G75*
G02*
X26450000Y-13440000I0J-100000D01*
G01*
X26450000Y-13875000D01*
G75*
G02*
X26350000Y-13975000I-100000J0D01*
G01*
X26150000Y-13975000D01*
G75*
G02*
X26050000Y-13875000I0J100000D01*
G01*
X26050000Y-13440000D01*
G75*
G02*
X26150000Y-13340000I100000J0D01*
G01*
G37*
G36*
G01*
X26150000Y-12525000D02*
X26350000Y-12525000D01*
G75*
G02*
X26450000Y-12625000I0J-100000D01*
G01*
X26450000Y-13060000D01*
G75*
G02*
X26350000Y-13160000I-100000J0D01*
G01*
X26150000Y-13160000D01*
G75*
G02*
X26050000Y-13060000I0J100000D01*
G01*
X26050000Y-12625000D01*
G75*
G02*
X26150000Y-12525000I100000J0D01*
G01*
G37*
G36*
G01*
X80340000Y12400000D02*
X80340000Y12600000D01*
G75*
G02*
X80440000Y12700000I100000J0D01*
G01*
X80875000Y12700000D01*
G75*
G02*
X80975000Y12600000I0J-100000D01*
G01*
X80975000Y12400000D01*
G75*
G02*
X80875000Y12300000I-100000J0D01*
G01*
X80440000Y12300000D01*
G75*
G02*
X80340000Y12400000I0J100000D01*
G01*
G37*
G36*
G01*
X79525000Y12400000D02*
X79525000Y12600000D01*
G75*
G02*
X79625000Y12700000I100000J0D01*
G01*
X80060000Y12700000D01*
G75*
G02*
X80160000Y12600000I0J-100000D01*
G01*
X80160000Y12400000D01*
G75*
G02*
X80060000Y12300000I-100000J0D01*
G01*
X79625000Y12300000D01*
G75*
G02*
X79525000Y12400000I0J100000D01*
G01*
G37*
G36*
G01*
X71702500Y12700000D02*
X71702500Y12500000D01*
G75*
G02*
X71602500Y12400000I-100000J0D01*
G01*
X71167500Y12400000D01*
G75*
G02*
X71067500Y12500000I0J100000D01*
G01*
X71067500Y12700000D01*
G75*
G02*
X71167500Y12800000I100000J0D01*
G01*
X71602500Y12800000D01*
G75*
G02*
X71702500Y12700000I0J-100000D01*
G01*
G37*
G36*
G01*
X72517500Y12700000D02*
X72517500Y12500000D01*
G75*
G02*
X72417500Y12400000I-100000J0D01*
G01*
X71982500Y12400000D01*
G75*
G02*
X71882500Y12500000I0J100000D01*
G01*
X71882500Y12700000D01*
G75*
G02*
X71982500Y12800000I100000J0D01*
G01*
X72417500Y12800000D01*
G75*
G02*
X72517500Y12700000I0J-100000D01*
G01*
G37*
G36*
G01*
X62160000Y12850000D02*
X62160000Y12650000D01*
G75*
G02*
X62060000Y12550000I-100000J0D01*
G01*
X61625000Y12550000D01*
G75*
G02*
X61525000Y12650000I0J100000D01*
G01*
X61525000Y12850000D01*
G75*
G02*
X61625000Y12950000I100000J0D01*
G01*
X62060000Y12950000D01*
G75*
G02*
X62160000Y12850000I0J-100000D01*
G01*
G37*
G36*
G01*
X62975000Y12850000D02*
X62975000Y12650000D01*
G75*
G02*
X62875000Y12550000I-100000J0D01*
G01*
X62440000Y12550000D01*
G75*
G02*
X62340000Y12650000I0J100000D01*
G01*
X62340000Y12850000D01*
G75*
G02*
X62440000Y12950000I100000J0D01*
G01*
X62875000Y12950000D01*
G75*
G02*
X62975000Y12850000I0J-100000D01*
G01*
G37*
G36*
G01*
X52660000Y12850000D02*
X52660000Y12650000D01*
G75*
G02*
X52560000Y12550000I-100000J0D01*
G01*
X52125000Y12550000D01*
G75*
G02*
X52025000Y12650000I0J100000D01*
G01*
X52025000Y12850000D01*
G75*
G02*
X52125000Y12950000I100000J0D01*
G01*
X52560000Y12950000D01*
G75*
G02*
X52660000Y12850000I0J-100000D01*
G01*
G37*
G36*
G01*
X53475000Y12850000D02*
X53475000Y12650000D01*
G75*
G02*
X53375000Y12550000I-100000J0D01*
G01*
X52940000Y12550000D01*
G75*
G02*
X52840000Y12650000I0J100000D01*
G01*
X52840000Y12850000D01*
G75*
G02*
X52940000Y12950000I100000J0D01*
G01*
X53375000Y12950000D01*
G75*
G02*
X53475000Y12850000I0J-100000D01*
G01*
G37*
G36*
G01*
X43160000Y12850000D02*
X43160000Y12650000D01*
G75*
G02*
X43060000Y12550000I-100000J0D01*
G01*
X42625000Y12550000D01*
G75*
G02*
X42525000Y12650000I0J100000D01*
G01*
X42525000Y12850000D01*
G75*
G02*
X42625000Y12950000I100000J0D01*
G01*
X43060000Y12950000D01*
G75*
G02*
X43160000Y12850000I0J-100000D01*
G01*
G37*
G36*
G01*
X43975000Y12850000D02*
X43975000Y12650000D01*
G75*
G02*
X43875000Y12550000I-100000J0D01*
G01*
X43440000Y12550000D01*
G75*
G02*
X43340000Y12650000I0J100000D01*
G01*
X43340000Y12850000D01*
G75*
G02*
X43440000Y12950000I100000J0D01*
G01*
X43875000Y12950000D01*
G75*
G02*
X43975000Y12850000I0J-100000D01*
G01*
G37*
G36*
G01*
X33660000Y12850000D02*
X33660000Y12650000D01*
G75*
G02*
X33560000Y12550000I-100000J0D01*
G01*
X33125000Y12550000D01*
G75*
G02*
X33025000Y12650000I0J100000D01*
G01*
X33025000Y12850000D01*
G75*
G02*
X33125000Y12950000I100000J0D01*
G01*
X33560000Y12950000D01*
G75*
G02*
X33660000Y12850000I0J-100000D01*
G01*
G37*
G36*
G01*
X34475000Y12850000D02*
X34475000Y12650000D01*
G75*
G02*
X34375000Y12550000I-100000J0D01*
G01*
X33940000Y12550000D01*
G75*
G02*
X33840000Y12650000I0J100000D01*
G01*
X33840000Y12850000D01*
G75*
G02*
X33940000Y12950000I100000J0D01*
G01*
X34375000Y12950000D01*
G75*
G02*
X34475000Y12850000I0J-100000D01*
G01*
G37*
G36*
G01*
X76290000Y16900000D02*
X76290000Y17100000D01*
G75*
G02*
X76390000Y17200000I100000J0D01*
G01*
X76825000Y17200000D01*
G75*
G02*
X76925000Y17100000I0J-100000D01*
G01*
X76925000Y16900000D01*
G75*
G02*
X76825000Y16800000I-100000J0D01*
G01*
X76390000Y16800000D01*
G75*
G02*
X76290000Y16900000I0J100000D01*
G01*
G37*
G36*
G01*
X75475000Y16900000D02*
X75475000Y17100000D01*
G75*
G02*
X75575000Y17200000I100000J0D01*
G01*
X76010000Y17200000D01*
G75*
G02*
X76110000Y17100000I0J-100000D01*
G01*
X76110000Y16900000D01*
G75*
G02*
X76010000Y16800000I-100000J0D01*
G01*
X75575000Y16800000D01*
G75*
G02*
X75475000Y16900000I0J100000D01*
G01*
G37*
G36*
G01*
X66900000Y17660000D02*
X67100000Y17660000D01*
G75*
G02*
X67200000Y17560000I0J-100000D01*
G01*
X67200000Y17125000D01*
G75*
G02*
X67100000Y17025000I-100000J0D01*
G01*
X66900000Y17025000D01*
G75*
G02*
X66800000Y17125000I0J100000D01*
G01*
X66800000Y17560000D01*
G75*
G02*
X66900000Y17660000I100000J0D01*
G01*
G37*
G36*
G01*
X66900000Y18475000D02*
X67100000Y18475000D01*
G75*
G02*
X67200000Y18375000I0J-100000D01*
G01*
X67200000Y17940000D01*
G75*
G02*
X67100000Y17840000I-100000J0D01*
G01*
X66900000Y17840000D01*
G75*
G02*
X66800000Y17940000I0J100000D01*
G01*
X66800000Y18375000D01*
G75*
G02*
X66900000Y18475000I100000J0D01*
G01*
G37*
G36*
G01*
X57400000Y17660000D02*
X57600000Y17660000D01*
G75*
G02*
X57700000Y17560000I0J-100000D01*
G01*
X57700000Y17125000D01*
G75*
G02*
X57600000Y17025000I-100000J0D01*
G01*
X57400000Y17025000D01*
G75*
G02*
X57300000Y17125000I0J100000D01*
G01*
X57300000Y17560000D01*
G75*
G02*
X57400000Y17660000I100000J0D01*
G01*
G37*
G36*
G01*
X57400000Y18475000D02*
X57600000Y18475000D01*
G75*
G02*
X57700000Y18375000I0J-100000D01*
G01*
X57700000Y17940000D01*
G75*
G02*
X57600000Y17840000I-100000J0D01*
G01*
X57400000Y17840000D01*
G75*
G02*
X57300000Y17940000I0J100000D01*
G01*
X57300000Y18375000D01*
G75*
G02*
X57400000Y18475000I100000J0D01*
G01*
G37*
G36*
G01*
X47900000Y17710000D02*
X48100000Y17710000D01*
G75*
G02*
X48200000Y17610000I0J-100000D01*
G01*
X48200000Y17175000D01*
G75*
G02*
X48100000Y17075000I-100000J0D01*
G01*
X47900000Y17075000D01*
G75*
G02*
X47800000Y17175000I0J100000D01*
G01*
X47800000Y17610000D01*
G75*
G02*
X47900000Y17710000I100000J0D01*
G01*
G37*
G36*
G01*
X47900000Y18525000D02*
X48100000Y18525000D01*
G75*
G02*
X48200000Y18425000I0J-100000D01*
G01*
X48200000Y17990000D01*
G75*
G02*
X48100000Y17890000I-100000J0D01*
G01*
X47900000Y17890000D01*
G75*
G02*
X47800000Y17990000I0J100000D01*
G01*
X47800000Y18425000D01*
G75*
G02*
X47900000Y18525000I100000J0D01*
G01*
G37*
G36*
G01*
X38400000Y17660000D02*
X38600000Y17660000D01*
G75*
G02*
X38700000Y17560000I0J-100000D01*
G01*
X38700000Y17125000D01*
G75*
G02*
X38600000Y17025000I-100000J0D01*
G01*
X38400000Y17025000D01*
G75*
G02*
X38300000Y17125000I0J100000D01*
G01*
X38300000Y17560000D01*
G75*
G02*
X38400000Y17660000I100000J0D01*
G01*
G37*
G36*
G01*
X38400000Y18475000D02*
X38600000Y18475000D01*
G75*
G02*
X38700000Y18375000I0J-100000D01*
G01*
X38700000Y17940000D01*
G75*
G02*
X38600000Y17840000I-100000J0D01*
G01*
X38400000Y17840000D01*
G75*
G02*
X38300000Y17940000I0J100000D01*
G01*
X38300000Y18375000D01*
G75*
G02*
X38400000Y18475000I100000J0D01*
G01*
G37*
G36*
G01*
X28900000Y17660000D02*
X29100000Y17660000D01*
G75*
G02*
X29200000Y17560000I0J-100000D01*
G01*
X29200000Y17125000D01*
G75*
G02*
X29100000Y17025000I-100000J0D01*
G01*
X28900000Y17025000D01*
G75*
G02*
X28800000Y17125000I0J100000D01*
G01*
X28800000Y17560000D01*
G75*
G02*
X28900000Y17660000I100000J0D01*
G01*
G37*
G36*
G01*
X28900000Y18475000D02*
X29100000Y18475000D01*
G75*
G02*
X29200000Y18375000I0J-100000D01*
G01*
X29200000Y17940000D01*
G75*
G02*
X29100000Y17840000I-100000J0D01*
G01*
X28900000Y17840000D01*
G75*
G02*
X28800000Y17940000I0J100000D01*
G01*
X28800000Y18375000D01*
G75*
G02*
X28900000Y18475000I100000J0D01*
G01*
G37*
G36*
G01*
X10150000Y17660000D02*
X10350000Y17660000D01*
G75*
G02*
X10450000Y17560000I0J-100000D01*
G01*
X10450000Y17125000D01*
G75*
G02*
X10350000Y17025000I-100000J0D01*
G01*
X10150000Y17025000D01*
G75*
G02*
X10050000Y17125000I0J100000D01*
G01*
X10050000Y17560000D01*
G75*
G02*
X10150000Y17660000I100000J0D01*
G01*
G37*
G36*
G01*
X10150000Y18475000D02*
X10350000Y18475000D01*
G75*
G02*
X10450000Y18375000I0J-100000D01*
G01*
X10450000Y17940000D01*
G75*
G02*
X10350000Y17840000I-100000J0D01*
G01*
X10150000Y17840000D01*
G75*
G02*
X10050000Y17940000I0J100000D01*
G01*
X10050000Y18375000D01*
G75*
G02*
X10150000Y18475000I100000J0D01*
G01*
G37*
G36*
G01*
X17350000Y15840000D02*
X17150000Y15840000D01*
G75*
G02*
X17050000Y15940000I0J100000D01*
G01*
X17050000Y16375000D01*
G75*
G02*
X17150000Y16475000I100000J0D01*
G01*
X17350000Y16475000D01*
G75*
G02*
X17450000Y16375000I0J-100000D01*
G01*
X17450000Y15940000D01*
G75*
G02*
X17350000Y15840000I-100000J0D01*
G01*
G37*
G36*
G01*
X17350000Y15025000D02*
X17150000Y15025000D01*
G75*
G02*
X17050000Y15125000I0J100000D01*
G01*
X17050000Y15560000D01*
G75*
G02*
X17150000Y15660000I100000J0D01*
G01*
X17350000Y15660000D01*
G75*
G02*
X17450000Y15560000I0J-100000D01*
G01*
X17450000Y15125000D01*
G75*
G02*
X17350000Y15025000I-100000J0D01*
G01*
G37*
G36*
G01*
X12850000Y15840000D02*
X12650000Y15840000D01*
G75*
G02*
X12550000Y15940000I0J100000D01*
G01*
X12550000Y16375000D01*
G75*
G02*
X12650000Y16475000I100000J0D01*
G01*
X12850000Y16475000D01*
G75*
G02*
X12950000Y16375000I0J-100000D01*
G01*
X12950000Y15940000D01*
G75*
G02*
X12850000Y15840000I-100000J0D01*
G01*
G37*
G36*
G01*
X12850000Y15025000D02*
X12650000Y15025000D01*
G75*
G02*
X12550000Y15125000I0J100000D01*
G01*
X12550000Y15560000D01*
G75*
G02*
X12650000Y15660000I100000J0D01*
G01*
X12850000Y15660000D01*
G75*
G02*
X12950000Y15560000I0J-100000D01*
G01*
X12950000Y15125000D01*
G75*
G02*
X12850000Y15025000I-100000J0D01*
G01*
G37*
G36*
G01*
X21850000Y15840000D02*
X21650000Y15840000D01*
G75*
G02*
X21550000Y15940000I0J100000D01*
G01*
X21550000Y16375000D01*
G75*
G02*
X21650000Y16475000I100000J0D01*
G01*
X21850000Y16475000D01*
G75*
G02*
X21950000Y16375000I0J-100000D01*
G01*
X21950000Y15940000D01*
G75*
G02*
X21850000Y15840000I-100000J0D01*
G01*
G37*
G36*
G01*
X21850000Y15025000D02*
X21650000Y15025000D01*
G75*
G02*
X21550000Y15125000I0J100000D01*
G01*
X21550000Y15560000D01*
G75*
G02*
X21650000Y15660000I100000J0D01*
G01*
X21850000Y15660000D01*
G75*
G02*
X21950000Y15560000I0J-100000D01*
G01*
X21950000Y15125000D01*
G75*
G02*
X21850000Y15025000I-100000J0D01*
G01*
G37*
G36*
G01*
X10350000Y-16160000D02*
X10150000Y-16160000D01*
G75*
G02*
X10050000Y-16060000I0J100000D01*
G01*
X10050000Y-15625000D01*
G75*
G02*
X10150000Y-15525000I100000J0D01*
G01*
X10350000Y-15525000D01*
G75*
G02*
X10450000Y-15625000I0J-100000D01*
G01*
X10450000Y-16060000D01*
G75*
G02*
X10350000Y-16160000I-100000J0D01*
G01*
G37*
G36*
G01*
X10350000Y-16975000D02*
X10150000Y-16975000D01*
G75*
G02*
X10050000Y-16875000I0J100000D01*
G01*
X10050000Y-16440000D01*
G75*
G02*
X10150000Y-16340000I100000J0D01*
G01*
X10350000Y-16340000D01*
G75*
G02*
X10450000Y-16440000I0J-100000D01*
G01*
X10450000Y-16875000D01*
G75*
G02*
X10350000Y-16975000I-100000J0D01*
G01*
G37*
G36*
G01*
X14850000Y-16160000D02*
X14650000Y-16160000D01*
G75*
G02*
X14550000Y-16060000I0J100000D01*
G01*
X14550000Y-15625000D01*
G75*
G02*
X14650000Y-15525000I100000J0D01*
G01*
X14850000Y-15525000D01*
G75*
G02*
X14950000Y-15625000I0J-100000D01*
G01*
X14950000Y-16060000D01*
G75*
G02*
X14850000Y-16160000I-100000J0D01*
G01*
G37*
G36*
G01*
X14850000Y-16975000D02*
X14650000Y-16975000D01*
G75*
G02*
X14550000Y-16875000I0J100000D01*
G01*
X14550000Y-16440000D01*
G75*
G02*
X14650000Y-16340000I100000J0D01*
G01*
X14850000Y-16340000D01*
G75*
G02*
X14950000Y-16440000I0J-100000D01*
G01*
X14950000Y-16875000D01*
G75*
G02*
X14850000Y-16975000I-100000J0D01*
G01*
G37*
G36*
G01*
X19350000Y-16160000D02*
X19150000Y-16160000D01*
G75*
G02*
X19050000Y-16060000I0J100000D01*
G01*
X19050000Y-15625000D01*
G75*
G02*
X19150000Y-15525000I100000J0D01*
G01*
X19350000Y-15525000D01*
G75*
G02*
X19450000Y-15625000I0J-100000D01*
G01*
X19450000Y-16060000D01*
G75*
G02*
X19350000Y-16160000I-100000J0D01*
G01*
G37*
G36*
G01*
X19350000Y-16975000D02*
X19150000Y-16975000D01*
G75*
G02*
X19050000Y-16875000I0J100000D01*
G01*
X19050000Y-16440000D01*
G75*
G02*
X19150000Y-16340000I100000J0D01*
G01*
X19350000Y-16340000D01*
G75*
G02*
X19450000Y-16440000I0J-100000D01*
G01*
X19450000Y-16875000D01*
G75*
G02*
X19350000Y-16975000I-100000J0D01*
G01*
G37*
G36*
G01*
X7276000Y-18188000D02*
X7276000Y-18388000D01*
G75*
G02*
X7176000Y-18488000I-100000J0D01*
G01*
X6741000Y-18488000D01*
G75*
G02*
X6641000Y-18388000I0J100000D01*
G01*
X6641000Y-18188000D01*
G75*
G02*
X6741000Y-18088000I100000J0D01*
G01*
X7176000Y-18088000D01*
G75*
G02*
X7276000Y-18188000I0J-100000D01*
G01*
G37*
G36*
G01*
X8091000Y-18188000D02*
X8091000Y-18388000D01*
G75*
G02*
X7991000Y-18488000I-100000J0D01*
G01*
X7556000Y-18488000D01*
G75*
G02*
X7456000Y-18388000I0J100000D01*
G01*
X7456000Y-18188000D01*
G75*
G02*
X7556000Y-18088000I100000J0D01*
G01*
X7991000Y-18088000D01*
G75*
G02*
X8091000Y-18188000I0J-100000D01*
G01*
G37*
D16*
X80400000Y-22100000D03*
D17*
G36*
X72550000Y-18450602D02*
G01*
X72574534Y-18450602D01*
X72623365Y-18455412D01*
X72671490Y-18464984D01*
X72718445Y-18479228D01*
X72763778Y-18498005D01*
X72807051Y-18521136D01*
X72847850Y-18548396D01*
X72885779Y-18579524D01*
X72920476Y-18614221D01*
X72951604Y-18652150D01*
X72978864Y-18692949D01*
X73001995Y-18736222D01*
X73020772Y-18781555D01*
X73035016Y-18828510D01*
X73044588Y-18876635D01*
X73049398Y-18925466D01*
X73049398Y-18950000D01*
X73050000Y-18950000D01*
X73050000Y-19450000D01*
X73049398Y-19450000D01*
X73049398Y-19474534D01*
X73044588Y-19523365D01*
X73035016Y-19571490D01*
X73020772Y-19618445D01*
X73001995Y-19663778D01*
X72978864Y-19707051D01*
X72951604Y-19747850D01*
X72920476Y-19785779D01*
X72885779Y-19820476D01*
X72847850Y-19851604D01*
X72807051Y-19878864D01*
X72763778Y-19901995D01*
X72718445Y-19920772D01*
X72671490Y-19935016D01*
X72623365Y-19944588D01*
X72574534Y-19949398D01*
X72550000Y-19949398D01*
X72550000Y-19950000D01*
X72050000Y-19950000D01*
X72050000Y-18450000D01*
X72550000Y-18450000D01*
X72550000Y-18450602D01*
G37*
G36*
X71750000Y-19950000D02*
G01*
X71250000Y-19950000D01*
X71250000Y-19949398D01*
X71225466Y-19949398D01*
X71176635Y-19944588D01*
X71128510Y-19935016D01*
X71081555Y-19920772D01*
X71036222Y-19901995D01*
X70992949Y-19878864D01*
X70952150Y-19851604D01*
X70914221Y-19820476D01*
X70879524Y-19785779D01*
X70848396Y-19747850D01*
X70821136Y-19707051D01*
X70798005Y-19663778D01*
X70779228Y-19618445D01*
X70764984Y-19571490D01*
X70755412Y-19523365D01*
X70750602Y-19474534D01*
X70750602Y-19450000D01*
X70750000Y-19450000D01*
X70750000Y-18950000D01*
X70750602Y-18950000D01*
X70750602Y-18925466D01*
X70755412Y-18876635D01*
X70764984Y-18828510D01*
X70779228Y-18781555D01*
X70798005Y-18736222D01*
X70821136Y-18692949D01*
X70848396Y-18652150D01*
X70879524Y-18614221D01*
X70914221Y-18579524D01*
X70952150Y-18548396D01*
X70992949Y-18521136D01*
X71036222Y-18498005D01*
X71081555Y-18479228D01*
X71128510Y-18464984D01*
X71176635Y-18455412D01*
X71225466Y-18450602D01*
X71250000Y-18450602D01*
X71250000Y-18450000D01*
X71750000Y-18450000D01*
X71750000Y-19950000D01*
G37*
D18*
X28060000Y-22140000D03*
X28060000Y-17060000D03*
X33140000Y-17060000D03*
X33140000Y-22140000D03*
D19*
X30600000Y-19600000D03*
D20*
X78230000Y-4750000D03*
X80770000Y-4750000D03*
X80770000Y-11250000D03*
X78230000Y-11250000D03*
X80870000Y4750000D03*
X78330000Y4750000D03*
X78330000Y11250000D03*
X80870000Y11250000D03*
X73730000Y-4750000D03*
X76270000Y-4750000D03*
X76270000Y-11250000D03*
X73730000Y-11250000D03*
X76270000Y4750000D03*
X73730000Y4750000D03*
X73730000Y11250000D03*
X76270000Y11250000D03*
X68730000Y-4750000D03*
X71270000Y-4750000D03*
X71270000Y-11250000D03*
X68730000Y-11250000D03*
X71270000Y4750000D03*
X68730000Y4750000D03*
X68730000Y11250000D03*
X71270000Y11250000D03*
X64230000Y-4750000D03*
X66770000Y-4750000D03*
X66770000Y-11250000D03*
X64230000Y-11250000D03*
X66770000Y4750000D03*
X64230000Y4750000D03*
X64230000Y11250000D03*
X66770000Y11250000D03*
X59230000Y-4750000D03*
X61770000Y-4750000D03*
X61770000Y-11250000D03*
X59230000Y-11250000D03*
X61770000Y4750000D03*
X59230000Y4750000D03*
X59230000Y11250000D03*
X61770000Y11250000D03*
X54730000Y-4750000D03*
X57270000Y-4750000D03*
X57270000Y-11250000D03*
X54730000Y-11250000D03*
X57270000Y4750000D03*
X54730000Y4750000D03*
X54730000Y11250000D03*
X57270000Y11250000D03*
X49730000Y-4750000D03*
X52270000Y-4750000D03*
X52270000Y-11250000D03*
X49730000Y-11250000D03*
X45230000Y-4750000D03*
X47770000Y-4750000D03*
X47770000Y-11250000D03*
X45230000Y-11250000D03*
X40230000Y-4750000D03*
X42770000Y-4750000D03*
X42770000Y-11250000D03*
X40230000Y-11250000D03*
X35730000Y-4750000D03*
X38270000Y-4750000D03*
X38270000Y-11250000D03*
X35730000Y-11250000D03*
X30730000Y-4750000D03*
X33270000Y-4750000D03*
X33270000Y-11250000D03*
X30730000Y-11250000D03*
X26230000Y-4750000D03*
X28770000Y-4750000D03*
X28770000Y-11250000D03*
X26230000Y-11250000D03*
X52270000Y4750000D03*
X49730000Y4750000D03*
X49730000Y11250000D03*
X52270000Y11250000D03*
X47770000Y4750000D03*
X45230000Y4750000D03*
X45230000Y11250000D03*
X47770000Y11250000D03*
X42770000Y4750000D03*
X40230000Y4750000D03*
X40230000Y11250000D03*
X42770000Y11250000D03*
X38270000Y4750000D03*
X35730000Y4750000D03*
X35730000Y11250000D03*
X38270000Y11250000D03*
X33270000Y4750000D03*
X30730000Y4750000D03*
X30730000Y11250000D03*
X33270000Y11250000D03*
X28770000Y4750000D03*
X26230000Y4750000D03*
X26230000Y11250000D03*
X28770000Y11250000D03*
D21*
X87250000Y10908000D03*
X86750000Y10908000D03*
X86250000Y10908000D03*
X85750000Y10908000D03*
X85250000Y10908000D03*
X84750000Y10908000D03*
D22*
X84092000Y10250000D03*
X84092000Y9750000D03*
X84092000Y9250000D03*
X84092000Y8750000D03*
X84092000Y8250000D03*
X84092000Y7750000D03*
D21*
X84750000Y7092000D03*
X85250000Y7092000D03*
X85750000Y7092000D03*
X86250000Y7092000D03*
X86750000Y7092000D03*
X87250000Y7092000D03*
D22*
X87908000Y7750000D03*
X87908000Y8250000D03*
X87908000Y8750000D03*
X87908000Y9250000D03*
X87908000Y9750000D03*
X87908000Y10250000D03*
D23*
X86000000Y9000000D03*
D20*
X17270000Y7250000D03*
X14730000Y7250000D03*
X14730000Y13750000D03*
X17270000Y13750000D03*
X12770000Y7250000D03*
X10230000Y7250000D03*
X10230000Y13750000D03*
X12770000Y13750000D03*
X8270000Y7250000D03*
X5730000Y7250000D03*
X5730000Y13750000D03*
X8270000Y13750000D03*
X21770000Y7250000D03*
X19230000Y7250000D03*
X19230000Y13750000D03*
X21770000Y13750000D03*
X10230000Y-7250000D03*
X12770000Y-7250000D03*
X12770000Y-13750000D03*
X10230000Y-13750000D03*
X5730000Y-7250000D03*
X8270000Y-7250000D03*
X8270000Y-13750000D03*
X5730000Y-13750000D03*
X14730000Y-7250000D03*
X17270000Y-7250000D03*
X17270000Y-13750000D03*
X14730000Y-13750000D03*
X19230000Y-7250000D03*
X21770000Y-7250000D03*
X21770000Y-13750000D03*
X19230000Y-13750000D03*
D24*
X0Y-12500000D03*
D25*
X-1420000Y4140000D03*
X-1420000Y1380000D03*
X-1420000Y-1380000D03*
X-1420000Y-4140000D03*
X1420000Y5520000D03*
X1420000Y2760000D03*
X1420000Y-2760000D03*
D26*
X1420000Y-5520000D03*
D24*
X0Y12500000D03*
D25*
X1420000Y0D03*
D27*
X76497000Y15799000D03*
X76503000Y14201000D03*
X66997000Y15799000D03*
X67003000Y14201000D03*
X57497000Y15799000D03*
X57503000Y14201000D03*
X47997000Y15799000D03*
X48003000Y14201000D03*
X38497000Y15799000D03*
X38503000Y14201000D03*
X28997000Y15799000D03*
X29003000Y14201000D03*
X5503000Y-18299000D03*
X5497000Y-16701000D03*
X8497000Y18299000D03*
X8503000Y16701000D03*
G36*
G01*
X77100000Y-22650002D02*
X77100000Y-21749998D01*
G75*
G02*
X77349998Y-21500000I249998J0D01*
G01*
X77875002Y-21500000D01*
G75*
G02*
X78125000Y-21749998I0J-249998D01*
G01*
X78125000Y-22650002D01*
G75*
G02*
X77875002Y-22900000I-249998J0D01*
G01*
X77349998Y-22900000D01*
G75*
G02*
X77100000Y-22650002I0J249998D01*
G01*
G37*
G36*
G01*
X75275000Y-22650002D02*
X75275000Y-21749998D01*
G75*
G02*
X75524998Y-21500000I249998J0D01*
G01*
X76050002Y-21500000D01*
G75*
G02*
X76300000Y-21749998I0J-249998D01*
G01*
X76300000Y-22650002D01*
G75*
G02*
X76050002Y-22900000I-249998J0D01*
G01*
X75524998Y-22900000D01*
G75*
G02*
X75275000Y-22650002I0J249998D01*
G01*
G37*
G36*
G01*
X86000000Y4150002D02*
X86000000Y3249998D01*
G75*
G02*
X85750002Y3000000I-249998J0D01*
G01*
X85224998Y3000000D01*
G75*
G02*
X84975000Y3249998I0J249998D01*
G01*
X84975000Y4150002D01*
G75*
G02*
X85224998Y4400000I249998J0D01*
G01*
X85750002Y4400000D01*
G75*
G02*
X86000000Y4150002I0J-249998D01*
G01*
G37*
G36*
G01*
X87825000Y4150002D02*
X87825000Y3249998D01*
G75*
G02*
X87575002Y3000000I-249998J0D01*
G01*
X87049998Y3000000D01*
G75*
G02*
X86800000Y3249998I0J249998D01*
G01*
X86800000Y4150002D01*
G75*
G02*
X87049998Y4400000I249998J0D01*
G01*
X87575002Y4400000D01*
G75*
G02*
X87825000Y4150002I0J-249998D01*
G01*
G37*
G36*
G01*
X77262500Y-425000D02*
X77737500Y-425000D01*
G75*
G02*
X77975000Y-662500I0J-237500D01*
G01*
X77975000Y-1162500D01*
G75*
G02*
X77737500Y-1400000I-237500J0D01*
G01*
X77262500Y-1400000D01*
G75*
G02*
X77025000Y-1162500I0J237500D01*
G01*
X77025000Y-662500D01*
G75*
G02*
X77262500Y-425000I237500J0D01*
G01*
G37*
G36*
G01*
X77262500Y1400000D02*
X77737500Y1400000D01*
G75*
G02*
X77975000Y1162500I0J-237500D01*
G01*
X77975000Y662500D01*
G75*
G02*
X77737500Y425000I-237500J0D01*
G01*
X77262500Y425000D01*
G75*
G02*
X77025000Y662500I0J237500D01*
G01*
X77025000Y1162500D01*
G75*
G02*
X77262500Y1400000I237500J0D01*
G01*
G37*
G36*
G01*
X86000000Y2250002D02*
X86000000Y1349998D01*
G75*
G02*
X85750002Y1100000I-249998J0D01*
G01*
X85224998Y1100000D01*
G75*
G02*
X84975000Y1349998I0J249998D01*
G01*
X84975000Y2250002D01*
G75*
G02*
X85224998Y2500000I249998J0D01*
G01*
X85750002Y2500000D01*
G75*
G02*
X86000000Y2250002I0J-249998D01*
G01*
G37*
G36*
G01*
X87825000Y2250002D02*
X87825000Y1349998D01*
G75*
G02*
X87575002Y1100000I-249998J0D01*
G01*
X87049998Y1100000D01*
G75*
G02*
X86800000Y1349998I0J249998D01*
G01*
X86800000Y2250002D01*
G75*
G02*
X87049998Y2500000I249998J0D01*
G01*
X87575002Y2500000D01*
G75*
G02*
X87825000Y2250002I0J-249998D01*
G01*
G37*
G36*
G01*
X67549999Y-400000D02*
X68450001Y-400000D01*
G75*
G02*
X68700000Y-649999I0J-249999D01*
G01*
X68700000Y-1350001D01*
G75*
G02*
X68450001Y-1600000I-249999J0D01*
G01*
X67549999Y-1600000D01*
G75*
G02*
X67300000Y-1350001I0J249999D01*
G01*
X67300000Y-649999D01*
G75*
G02*
X67549999Y-400000I249999J0D01*
G01*
G37*
G36*
G01*
X67549999Y1600000D02*
X68450001Y1600000D01*
G75*
G02*
X68700000Y1350001I0J-249999D01*
G01*
X68700000Y649999D01*
G75*
G02*
X68450001Y400000I-249999J0D01*
G01*
X67549999Y400000D01*
G75*
G02*
X67300000Y649999I0J249999D01*
G01*
X67300000Y1350001D01*
G75*
G02*
X67549999Y1600000I249999J0D01*
G01*
G37*
G36*
G01*
X58049999Y-400000D02*
X58950001Y-400000D01*
G75*
G02*
X59200000Y-649999I0J-249999D01*
G01*
X59200000Y-1350001D01*
G75*
G02*
X58950001Y-1600000I-249999J0D01*
G01*
X58049999Y-1600000D01*
G75*
G02*
X57800000Y-1350001I0J249999D01*
G01*
X57800000Y-649999D01*
G75*
G02*
X58049999Y-400000I249999J0D01*
G01*
G37*
G36*
G01*
X58049999Y1600000D02*
X58950001Y1600000D01*
G75*
G02*
X59200000Y1350001I0J-249999D01*
G01*
X59200000Y649999D01*
G75*
G02*
X58950001Y400000I-249999J0D01*
G01*
X58049999Y400000D01*
G75*
G02*
X57800000Y649999I0J249999D01*
G01*
X57800000Y1350001D01*
G75*
G02*
X58049999Y1600000I249999J0D01*
G01*
G37*
G36*
G01*
X48762500Y-425000D02*
X49237500Y-425000D01*
G75*
G02*
X49475000Y-662500I0J-237500D01*
G01*
X49475000Y-1162500D01*
G75*
G02*
X49237500Y-1400000I-237500J0D01*
G01*
X48762500Y-1400000D01*
G75*
G02*
X48525000Y-1162500I0J237500D01*
G01*
X48525000Y-662500D01*
G75*
G02*
X48762500Y-425000I237500J0D01*
G01*
G37*
G36*
G01*
X48762500Y1400000D02*
X49237500Y1400000D01*
G75*
G02*
X49475000Y1162500I0J-237500D01*
G01*
X49475000Y662500D01*
G75*
G02*
X49237500Y425000I-237500J0D01*
G01*
X48762500Y425000D01*
G75*
G02*
X48525000Y662500I0J237500D01*
G01*
X48525000Y1162500D01*
G75*
G02*
X48762500Y1400000I237500J0D01*
G01*
G37*
G36*
G01*
X39262500Y-425000D02*
X39737500Y-425000D01*
G75*
G02*
X39975000Y-662500I0J-237500D01*
G01*
X39975000Y-1162500D01*
G75*
G02*
X39737500Y-1400000I-237500J0D01*
G01*
X39262500Y-1400000D01*
G75*
G02*
X39025000Y-1162500I0J237500D01*
G01*
X39025000Y-662500D01*
G75*
G02*
X39262500Y-425000I237500J0D01*
G01*
G37*
G36*
G01*
X39262500Y1400000D02*
X39737500Y1400000D01*
G75*
G02*
X39975000Y1162500I0J-237500D01*
G01*
X39975000Y662500D01*
G75*
G02*
X39737500Y425000I-237500J0D01*
G01*
X39262500Y425000D01*
G75*
G02*
X39025000Y662500I0J237500D01*
G01*
X39025000Y1162500D01*
G75*
G02*
X39262500Y1400000I237500J0D01*
G01*
G37*
G36*
G01*
X29762500Y-425000D02*
X30237500Y-425000D01*
G75*
G02*
X30475000Y-662500I0J-237500D01*
G01*
X30475000Y-1162500D01*
G75*
G02*
X30237500Y-1400000I-237500J0D01*
G01*
X29762500Y-1400000D01*
G75*
G02*
X29525000Y-1162500I0J237500D01*
G01*
X29525000Y-662500D01*
G75*
G02*
X29762500Y-425000I237500J0D01*
G01*
G37*
G36*
G01*
X29762500Y1400000D02*
X30237500Y1400000D01*
G75*
G02*
X30475000Y1162500I0J-237500D01*
G01*
X30475000Y662500D01*
G75*
G02*
X30237500Y425000I-237500J0D01*
G01*
X29762500Y425000D01*
G75*
G02*
X29525000Y662500I0J237500D01*
G01*
X29525000Y1162500D01*
G75*
G02*
X29762500Y1400000I237500J0D01*
G01*
G37*
G36*
G01*
X89825001Y-1600000D02*
X88524999Y-1600000D01*
G75*
G02*
X88275000Y-1350001I0J249999D01*
G01*
X88275000Y-649999D01*
G75*
G02*
X88524999Y-400000I249999J0D01*
G01*
X89825001Y-400000D01*
G75*
G02*
X90075000Y-649999I0J-249999D01*
G01*
X90075000Y-1350001D01*
G75*
G02*
X89825001Y-1600000I-249999J0D01*
G01*
G37*
G36*
G01*
X89825001Y-7200000D02*
X88524999Y-7200000D01*
G75*
G02*
X88275000Y-6950001I0J249999D01*
G01*
X88275000Y-6249999D01*
G75*
G02*
X88524999Y-6000000I249999J0D01*
G01*
X89825001Y-6000000D01*
G75*
G02*
X90075000Y-6249999I0J-249999D01*
G01*
X90075000Y-6950001D01*
G75*
G02*
X89825001Y-7200000I-249999J0D01*
G01*
G37*
G36*
G01*
X85925000Y-2600000D02*
X84675000Y-2600000D01*
G75*
G02*
X84525000Y-2450000I0J150000D01*
G01*
X84525000Y-2150000D01*
G75*
G02*
X84675000Y-2000000I150000J0D01*
G01*
X85925000Y-2000000D01*
G75*
G02*
X86075000Y-2150000I0J-150000D01*
G01*
X86075000Y-2450000D01*
G75*
G02*
X85925000Y-2600000I-150000J0D01*
G01*
G37*
G36*
G01*
X85925000Y-3600000D02*
X84675000Y-3600000D01*
G75*
G02*
X84525000Y-3450000I0J150000D01*
G01*
X84525000Y-3150000D01*
G75*
G02*
X84675000Y-3000000I150000J0D01*
G01*
X85925000Y-3000000D01*
G75*
G02*
X86075000Y-3150000I0J-150000D01*
G01*
X86075000Y-3450000D01*
G75*
G02*
X85925000Y-3600000I-150000J0D01*
G01*
G37*
G36*
G01*
X85925000Y-4600000D02*
X84675000Y-4600000D01*
G75*
G02*
X84525000Y-4450000I0J150000D01*
G01*
X84525000Y-4150000D01*
G75*
G02*
X84675000Y-4000000I150000J0D01*
G01*
X85925000Y-4000000D01*
G75*
G02*
X86075000Y-4150000I0J-150000D01*
G01*
X86075000Y-4450000D01*
G75*
G02*
X85925000Y-4600000I-150000J0D01*
G01*
G37*
G36*
G01*
X85925000Y-5600000D02*
X84675000Y-5600000D01*
G75*
G02*
X84525000Y-5450000I0J150000D01*
G01*
X84525000Y-5150000D01*
G75*
G02*
X84675000Y-5000000I150000J0D01*
G01*
X85925000Y-5000000D01*
G75*
G02*
X86075000Y-5150000I0J-150000D01*
G01*
X86075000Y-5450000D01*
G75*
G02*
X85925000Y-5600000I-150000J0D01*
G01*
G37*
G36*
G01*
X89835001Y-9900000D02*
X88534999Y-9900000D01*
G75*
G02*
X88285000Y-9650001I0J249999D01*
G01*
X88285000Y-8949999D01*
G75*
G02*
X88534999Y-8700000I249999J0D01*
G01*
X89835001Y-8700000D01*
G75*
G02*
X90085000Y-8949999I0J-249999D01*
G01*
X90085000Y-9650001D01*
G75*
G02*
X89835001Y-9900000I-249999J0D01*
G01*
G37*
G36*
G01*
X89835001Y-15500000D02*
X88534999Y-15500000D01*
G75*
G02*
X88285000Y-15250001I0J249999D01*
G01*
X88285000Y-14549999D01*
G75*
G02*
X88534999Y-14300000I249999J0D01*
G01*
X89835001Y-14300000D01*
G75*
G02*
X90085000Y-14549999I0J-249999D01*
G01*
X90085000Y-15250001D01*
G75*
G02*
X89835001Y-15500000I-249999J0D01*
G01*
G37*
G36*
G01*
X85935000Y-10900000D02*
X84685000Y-10900000D01*
G75*
G02*
X84535000Y-10750000I0J150000D01*
G01*
X84535000Y-10450000D01*
G75*
G02*
X84685000Y-10300000I150000J0D01*
G01*
X85935000Y-10300000D01*
G75*
G02*
X86085000Y-10450000I0J-150000D01*
G01*
X86085000Y-10750000D01*
G75*
G02*
X85935000Y-10900000I-150000J0D01*
G01*
G37*
G36*
G01*
X85935000Y-11900000D02*
X84685000Y-11900000D01*
G75*
G02*
X84535000Y-11750000I0J150000D01*
G01*
X84535000Y-11450000D01*
G75*
G02*
X84685000Y-11300000I150000J0D01*
G01*
X85935000Y-11300000D01*
G75*
G02*
X86085000Y-11450000I0J-150000D01*
G01*
X86085000Y-11750000D01*
G75*
G02*
X85935000Y-11900000I-150000J0D01*
G01*
G37*
G36*
G01*
X85935000Y-12900000D02*
X84685000Y-12900000D01*
G75*
G02*
X84535000Y-12750000I0J150000D01*
G01*
X84535000Y-12450000D01*
G75*
G02*
X84685000Y-12300000I150000J0D01*
G01*
X85935000Y-12300000D01*
G75*
G02*
X86085000Y-12450000I0J-150000D01*
G01*
X86085000Y-12750000D01*
G75*
G02*
X85935000Y-12900000I-150000J0D01*
G01*
G37*
G36*
G01*
X85935000Y-13900000D02*
X84685000Y-13900000D01*
G75*
G02*
X84535000Y-13750000I0J150000D01*
G01*
X84535000Y-13450000D01*
G75*
G02*
X84685000Y-13300000I150000J0D01*
G01*
X85935000Y-13300000D01*
G75*
G02*
X86085000Y-13450000I0J-150000D01*
G01*
X86085000Y-13750000D01*
G75*
G02*
X85935000Y-13900000I-150000J0D01*
G01*
G37*
D16*
X80400000Y-18400000D03*
G36*
G01*
X89370000Y7800000D02*
X89030000Y7800000D01*
G75*
G02*
X88890000Y7940000I0J140000D01*
G01*
X88890000Y8220000D01*
G75*
G02*
X89030000Y8360000I140000J0D01*
G01*
X89370000Y8360000D01*
G75*
G02*
X89510000Y8220000I0J-140000D01*
G01*
X89510000Y7940000D01*
G75*
G02*
X89370000Y7800000I-140000J0D01*
G01*
G37*
G36*
G01*
X89370000Y6840000D02*
X89030000Y6840000D01*
G75*
G02*
X88890000Y6980000I0J140000D01*
G01*
X88890000Y7260000D01*
G75*
G02*
X89030000Y7400000I140000J0D01*
G01*
X89370000Y7400000D01*
G75*
G02*
X89510000Y7260000I0J-140000D01*
G01*
X89510000Y6980000D01*
G75*
G02*
X89370000Y6840000I-140000J0D01*
G01*
G37*
M02*
