G04 #@! TF.GenerationSoftware,KiCad,Pcbnew,(5.1.10)-1*
G04 #@! TF.CreationDate,2022-05-16T11:57:18-06:00*
G04 #@! TF.ProjectId,Calibrator_02,43616c69-6272-4617-946f-725f30322e6b,rev?*
G04 #@! TF.SameCoordinates,Original*
G04 #@! TF.FileFunction,Copper,L1,Top*
G04 #@! TF.FilePolarity,Positive*
%FSLAX46Y46*%
G04 Gerber Fmt 4.6, Leading zero omitted, Abs format (unit mm)*
G04 Created by KiCad (PCBNEW (5.1.10)-1) date 2022-05-16 11:57:18*
%MOMM*%
%LPD*%
G01*
G04 APERTURE LIST*
G04 #@! TA.AperFunction,ComponentPad*
%ADD10R,1.700000X1.700000*%
G04 #@! TD*
G04 #@! TA.AperFunction,SMDPad,CuDef*
%ADD11C,0.100000*%
G04 #@! TD*
G04 #@! TA.AperFunction,ComponentPad*
%ADD12C,2.250000*%
G04 #@! TD*
G04 #@! TA.AperFunction,ComponentPad*
%ADD13C,2.050000*%
G04 #@! TD*
G04 #@! TA.AperFunction,SMDPad,CuDef*
%ADD14R,0.900000X1.199000*%
G04 #@! TD*
G04 #@! TA.AperFunction,SMDPad,CuDef*
%ADD15R,0.280000X0.665000*%
G04 #@! TD*
G04 #@! TA.AperFunction,SMDPad,CuDef*
%ADD16R,0.665000X0.280000*%
G04 #@! TD*
G04 #@! TA.AperFunction,SMDPad,CuDef*
%ADD17R,2.650000X2.650000*%
G04 #@! TD*
G04 #@! TA.AperFunction,ComponentPad*
%ADD18C,5.000000*%
G04 #@! TD*
G04 #@! TA.AperFunction,ComponentPad*
%ADD19C,1.575000*%
G04 #@! TD*
G04 #@! TA.AperFunction,ComponentPad*
%ADD20R,1.575000X1.575000*%
G04 #@! TD*
G04 #@! TA.AperFunction,SMDPad,CuDef*
%ADD21R,0.800000X0.800000*%
G04 #@! TD*
G04 #@! TA.AperFunction,ViaPad*
%ADD22C,0.800000*%
G04 #@! TD*
G04 #@! TA.AperFunction,Conductor*
%ADD23C,0.200000*%
G04 #@! TD*
G04 #@! TA.AperFunction,Conductor*
%ADD24C,0.250000*%
G04 #@! TD*
G04 #@! TA.AperFunction,Conductor*
%ADD25C,0.254000*%
G04 #@! TD*
G04 #@! TA.AperFunction,Conductor*
%ADD26C,0.100000*%
G04 #@! TD*
G04 APERTURE END LIST*
D10*
X80400000Y-22100000D03*
G04 #@! TA.AperFunction,SMDPad,CuDef*
D11*
G36*
X72550000Y-18450602D02*
G01*
X72574534Y-18450602D01*
X72623365Y-18455412D01*
X72671490Y-18464984D01*
X72718445Y-18479228D01*
X72763778Y-18498005D01*
X72807051Y-18521136D01*
X72847850Y-18548396D01*
X72885779Y-18579524D01*
X72920476Y-18614221D01*
X72951604Y-18652150D01*
X72978864Y-18692949D01*
X73001995Y-18736222D01*
X73020772Y-18781555D01*
X73035016Y-18828510D01*
X73044588Y-18876635D01*
X73049398Y-18925466D01*
X73049398Y-18950000D01*
X73050000Y-18950000D01*
X73050000Y-19450000D01*
X73049398Y-19450000D01*
X73049398Y-19474534D01*
X73044588Y-19523365D01*
X73035016Y-19571490D01*
X73020772Y-19618445D01*
X73001995Y-19663778D01*
X72978864Y-19707051D01*
X72951604Y-19747850D01*
X72920476Y-19785779D01*
X72885779Y-19820476D01*
X72847850Y-19851604D01*
X72807051Y-19878864D01*
X72763778Y-19901995D01*
X72718445Y-19920772D01*
X72671490Y-19935016D01*
X72623365Y-19944588D01*
X72574534Y-19949398D01*
X72550000Y-19949398D01*
X72550000Y-19950000D01*
X72050000Y-19950000D01*
X72050000Y-18450000D01*
X72550000Y-18450000D01*
X72550000Y-18450602D01*
G37*
G04 #@! TD.AperFunction*
G04 #@! TA.AperFunction,SMDPad,CuDef*
G36*
X71750000Y-19950000D02*
G01*
X71250000Y-19950000D01*
X71250000Y-19949398D01*
X71225466Y-19949398D01*
X71176635Y-19944588D01*
X71128510Y-19935016D01*
X71081555Y-19920772D01*
X71036222Y-19901995D01*
X70992949Y-19878864D01*
X70952150Y-19851604D01*
X70914221Y-19820476D01*
X70879524Y-19785779D01*
X70848396Y-19747850D01*
X70821136Y-19707051D01*
X70798005Y-19663778D01*
X70779228Y-19618445D01*
X70764984Y-19571490D01*
X70755412Y-19523365D01*
X70750602Y-19474534D01*
X70750602Y-19450000D01*
X70750000Y-19450000D01*
X70750000Y-18950000D01*
X70750602Y-18950000D01*
X70750602Y-18925466D01*
X70755412Y-18876635D01*
X70764984Y-18828510D01*
X70779228Y-18781555D01*
X70798005Y-18736222D01*
X70821136Y-18692949D01*
X70848396Y-18652150D01*
X70879524Y-18614221D01*
X70914221Y-18579524D01*
X70952150Y-18548396D01*
X70992949Y-18521136D01*
X71036222Y-18498005D01*
X71081555Y-18479228D01*
X71128510Y-18464984D01*
X71176635Y-18455412D01*
X71225466Y-18450602D01*
X71250000Y-18450602D01*
X71250000Y-18450000D01*
X71750000Y-18450000D01*
X71750000Y-19950000D01*
G37*
G04 #@! TD.AperFunction*
D12*
X28060000Y-22140000D03*
X28060000Y-17060000D03*
X33140000Y-17060000D03*
X33140000Y-22140000D03*
D13*
X30600000Y-19600000D03*
D14*
X78230000Y-4750000D03*
X80770000Y-4750000D03*
X80770000Y-11250000D03*
X78230000Y-11250000D03*
X80870000Y4750000D03*
X78330000Y4750000D03*
X78330000Y11250000D03*
X80870000Y11250000D03*
X73730000Y-4750000D03*
X76270000Y-4750000D03*
X76270000Y-11250000D03*
X73730000Y-11250000D03*
X76270000Y4750000D03*
X73730000Y4750000D03*
X73730000Y11250000D03*
X76270000Y11250000D03*
X68730000Y-4750000D03*
X71270000Y-4750000D03*
X71270000Y-11250000D03*
X68730000Y-11250000D03*
X71270000Y4750000D03*
X68730000Y4750000D03*
X68730000Y11250000D03*
X71270000Y11250000D03*
X64230000Y-4750000D03*
X66770000Y-4750000D03*
X66770000Y-11250000D03*
X64230000Y-11250000D03*
X66770000Y4750000D03*
X64230000Y4750000D03*
X64230000Y11250000D03*
X66770000Y11250000D03*
X59230000Y-4750000D03*
X61770000Y-4750000D03*
X61770000Y-11250000D03*
X59230000Y-11250000D03*
X61770000Y4750000D03*
X59230000Y4750000D03*
X59230000Y11250000D03*
X61770000Y11250000D03*
X54730000Y-4750000D03*
X57270000Y-4750000D03*
X57270000Y-11250000D03*
X54730000Y-11250000D03*
X57270000Y4750000D03*
X54730000Y4750000D03*
X54730000Y11250000D03*
X57270000Y11250000D03*
X49730000Y-4750000D03*
X52270000Y-4750000D03*
X52270000Y-11250000D03*
X49730000Y-11250000D03*
X45230000Y-4750000D03*
X47770000Y-4750000D03*
X47770000Y-11250000D03*
X45230000Y-11250000D03*
X40230000Y-4750000D03*
X42770000Y-4750000D03*
X42770000Y-11250000D03*
X40230000Y-11250000D03*
X35730000Y-4750000D03*
X38270000Y-4750000D03*
X38270000Y-11250000D03*
X35730000Y-11250000D03*
X30730000Y-4750000D03*
X33270000Y-4750000D03*
X33270000Y-11250000D03*
X30730000Y-11250000D03*
X26230000Y-4750000D03*
X28770000Y-4750000D03*
X28770000Y-11250000D03*
X26230000Y-11250000D03*
X52270000Y4750000D03*
X49730000Y4750000D03*
X49730000Y11250000D03*
X52270000Y11250000D03*
X47770000Y4750000D03*
X45230000Y4750000D03*
X45230000Y11250000D03*
X47770000Y11250000D03*
X42770000Y4750000D03*
X40230000Y4750000D03*
X40230000Y11250000D03*
X42770000Y11250000D03*
X38270000Y4750000D03*
X35730000Y4750000D03*
X35730000Y11250000D03*
X38270000Y11250000D03*
X33270000Y4750000D03*
X30730000Y4750000D03*
X30730000Y11250000D03*
X33270000Y11250000D03*
X28770000Y4750000D03*
X26230000Y4750000D03*
X26230000Y11250000D03*
X28770000Y11250000D03*
D15*
X87250000Y10908000D03*
X86750000Y10908000D03*
X86250000Y10908000D03*
X85750000Y10908000D03*
X85250000Y10908000D03*
X84750000Y10908000D03*
D16*
X84092000Y10250000D03*
X84092000Y9750000D03*
X84092000Y9250000D03*
X84092000Y8750000D03*
X84092000Y8250000D03*
X84092000Y7750000D03*
D15*
X84750000Y7092000D03*
X85250000Y7092000D03*
X85750000Y7092000D03*
X86250000Y7092000D03*
X86750000Y7092000D03*
X87250000Y7092000D03*
D16*
X87908000Y7750000D03*
X87908000Y8250000D03*
X87908000Y8750000D03*
X87908000Y9250000D03*
X87908000Y9750000D03*
X87908000Y10250000D03*
D17*
X86000000Y9000000D03*
D14*
X17270000Y7250000D03*
X14730000Y7250000D03*
X14730000Y13750000D03*
X17270000Y13750000D03*
X12770000Y7250000D03*
X10230000Y7250000D03*
X10230000Y13750000D03*
X12770000Y13750000D03*
X8270000Y7250000D03*
X5730000Y7250000D03*
X5730000Y13750000D03*
X8270000Y13750000D03*
X21770000Y7250000D03*
X19230000Y7250000D03*
X19230000Y13750000D03*
X21770000Y13750000D03*
X10230000Y-7250000D03*
X12770000Y-7250000D03*
X12770000Y-13750000D03*
X10230000Y-13750000D03*
X5730000Y-7250000D03*
X8270000Y-7250000D03*
X8270000Y-13750000D03*
X5730000Y-13750000D03*
X14730000Y-7250000D03*
X17270000Y-7250000D03*
X17270000Y-13750000D03*
X14730000Y-13750000D03*
X19230000Y-7250000D03*
X21770000Y-7250000D03*
X21770000Y-13750000D03*
X19230000Y-13750000D03*
D18*
X0Y-12500000D03*
D19*
X-1420000Y4140000D03*
X-1420000Y1380000D03*
X-1420000Y-1380000D03*
X-1420000Y-4140000D03*
X1420000Y5520000D03*
X1420000Y2760000D03*
X1420000Y-2760000D03*
D20*
X1420000Y-5520000D03*
D18*
X0Y12500000D03*
D19*
X1420000Y0D03*
D21*
X76497000Y15799000D03*
X76503000Y14201000D03*
X66997000Y15799000D03*
X67003000Y14201000D03*
X57497000Y15799000D03*
X57503000Y14201000D03*
X47997000Y15799000D03*
X48003000Y14201000D03*
X38497000Y15799000D03*
X38503000Y14201000D03*
X28997000Y15799000D03*
X29003000Y14201000D03*
X5503000Y-18299000D03*
X5497000Y-16701000D03*
X8497000Y18299000D03*
X8503000Y16701000D03*
G04 #@! TA.AperFunction,SMDPad,CuDef*
G36*
G01*
X77100000Y-22650001D02*
X77100000Y-21749999D01*
G75*
G02*
X77349999Y-21500000I249999J0D01*
G01*
X77875001Y-21500000D01*
G75*
G02*
X78125000Y-21749999I0J-249999D01*
G01*
X78125000Y-22650001D01*
G75*
G02*
X77875001Y-22900000I-249999J0D01*
G01*
X77349999Y-22900000D01*
G75*
G02*
X77100000Y-22650001I0J249999D01*
G01*
G37*
G04 #@! TD.AperFunction*
G04 #@! TA.AperFunction,SMDPad,CuDef*
G36*
G01*
X75275000Y-22650001D02*
X75275000Y-21749999D01*
G75*
G02*
X75524999Y-21500000I249999J0D01*
G01*
X76050001Y-21500000D01*
G75*
G02*
X76300000Y-21749999I0J-249999D01*
G01*
X76300000Y-22650001D01*
G75*
G02*
X76050001Y-22900000I-249999J0D01*
G01*
X75524999Y-22900000D01*
G75*
G02*
X75275000Y-22650001I0J249999D01*
G01*
G37*
G04 #@! TD.AperFunction*
G04 #@! TA.AperFunction,SMDPad,CuDef*
G36*
G01*
X86000000Y4150001D02*
X86000000Y3249999D01*
G75*
G02*
X85750001Y3000000I-249999J0D01*
G01*
X85224999Y3000000D01*
G75*
G02*
X84975000Y3249999I0J249999D01*
G01*
X84975000Y4150001D01*
G75*
G02*
X85224999Y4400000I249999J0D01*
G01*
X85750001Y4400000D01*
G75*
G02*
X86000000Y4150001I0J-249999D01*
G01*
G37*
G04 #@! TD.AperFunction*
G04 #@! TA.AperFunction,SMDPad,CuDef*
G36*
G01*
X87825000Y4150001D02*
X87825000Y3249999D01*
G75*
G02*
X87575001Y3000000I-249999J0D01*
G01*
X87049999Y3000000D01*
G75*
G02*
X86800000Y3249999I0J249999D01*
G01*
X86800000Y4150001D01*
G75*
G02*
X87049999Y4400000I249999J0D01*
G01*
X87575001Y4400000D01*
G75*
G02*
X87825000Y4150001I0J-249999D01*
G01*
G37*
G04 #@! TD.AperFunction*
G04 #@! TA.AperFunction,SMDPad,CuDef*
G36*
G01*
X77262500Y-425000D02*
X77737500Y-425000D01*
G75*
G02*
X77975000Y-662500I0J-237500D01*
G01*
X77975000Y-1162500D01*
G75*
G02*
X77737500Y-1400000I-237500J0D01*
G01*
X77262500Y-1400000D01*
G75*
G02*
X77025000Y-1162500I0J237500D01*
G01*
X77025000Y-662500D01*
G75*
G02*
X77262500Y-425000I237500J0D01*
G01*
G37*
G04 #@! TD.AperFunction*
G04 #@! TA.AperFunction,SMDPad,CuDef*
G36*
G01*
X77262500Y1400000D02*
X77737500Y1400000D01*
G75*
G02*
X77975000Y1162500I0J-237500D01*
G01*
X77975000Y662500D01*
G75*
G02*
X77737500Y425000I-237500J0D01*
G01*
X77262500Y425000D01*
G75*
G02*
X77025000Y662500I0J237500D01*
G01*
X77025000Y1162500D01*
G75*
G02*
X77262500Y1400000I237500J0D01*
G01*
G37*
G04 #@! TD.AperFunction*
G04 #@! TA.AperFunction,SMDPad,CuDef*
G36*
G01*
X86000000Y2250001D02*
X86000000Y1349999D01*
G75*
G02*
X85750001Y1100000I-249999J0D01*
G01*
X85224999Y1100000D01*
G75*
G02*
X84975000Y1349999I0J249999D01*
G01*
X84975000Y2250001D01*
G75*
G02*
X85224999Y2500000I249999J0D01*
G01*
X85750001Y2500000D01*
G75*
G02*
X86000000Y2250001I0J-249999D01*
G01*
G37*
G04 #@! TD.AperFunction*
G04 #@! TA.AperFunction,SMDPad,CuDef*
G36*
G01*
X87825000Y2250001D02*
X87825000Y1349999D01*
G75*
G02*
X87575001Y1100000I-249999J0D01*
G01*
X87049999Y1100000D01*
G75*
G02*
X86800000Y1349999I0J249999D01*
G01*
X86800000Y2250001D01*
G75*
G02*
X87049999Y2500000I249999J0D01*
G01*
X87575001Y2500000D01*
G75*
G02*
X87825000Y2250001I0J-249999D01*
G01*
G37*
G04 #@! TD.AperFunction*
G04 #@! TA.AperFunction,SMDPad,CuDef*
G36*
G01*
X67549999Y-400000D02*
X68450001Y-400000D01*
G75*
G02*
X68700000Y-649999I0J-249999D01*
G01*
X68700000Y-1350001D01*
G75*
G02*
X68450001Y-1600000I-249999J0D01*
G01*
X67549999Y-1600000D01*
G75*
G02*
X67300000Y-1350001I0J249999D01*
G01*
X67300000Y-649999D01*
G75*
G02*
X67549999Y-400000I249999J0D01*
G01*
G37*
G04 #@! TD.AperFunction*
G04 #@! TA.AperFunction,SMDPad,CuDef*
G36*
G01*
X67549999Y1600000D02*
X68450001Y1600000D01*
G75*
G02*
X68700000Y1350001I0J-249999D01*
G01*
X68700000Y649999D01*
G75*
G02*
X68450001Y400000I-249999J0D01*
G01*
X67549999Y400000D01*
G75*
G02*
X67300000Y649999I0J249999D01*
G01*
X67300000Y1350001D01*
G75*
G02*
X67549999Y1600000I249999J0D01*
G01*
G37*
G04 #@! TD.AperFunction*
G04 #@! TA.AperFunction,SMDPad,CuDef*
G36*
G01*
X58049999Y-400000D02*
X58950001Y-400000D01*
G75*
G02*
X59200000Y-649999I0J-249999D01*
G01*
X59200000Y-1350001D01*
G75*
G02*
X58950001Y-1600000I-249999J0D01*
G01*
X58049999Y-1600000D01*
G75*
G02*
X57800000Y-1350001I0J249999D01*
G01*
X57800000Y-649999D01*
G75*
G02*
X58049999Y-400000I249999J0D01*
G01*
G37*
G04 #@! TD.AperFunction*
G04 #@! TA.AperFunction,SMDPad,CuDef*
G36*
G01*
X58049999Y1600000D02*
X58950001Y1600000D01*
G75*
G02*
X59200000Y1350001I0J-249999D01*
G01*
X59200000Y649999D01*
G75*
G02*
X58950001Y400000I-249999J0D01*
G01*
X58049999Y400000D01*
G75*
G02*
X57800000Y649999I0J249999D01*
G01*
X57800000Y1350001D01*
G75*
G02*
X58049999Y1600000I249999J0D01*
G01*
G37*
G04 #@! TD.AperFunction*
G04 #@! TA.AperFunction,SMDPad,CuDef*
G36*
G01*
X48762500Y-425000D02*
X49237500Y-425000D01*
G75*
G02*
X49475000Y-662500I0J-237500D01*
G01*
X49475000Y-1162500D01*
G75*
G02*
X49237500Y-1400000I-237500J0D01*
G01*
X48762500Y-1400000D01*
G75*
G02*
X48525000Y-1162500I0J237500D01*
G01*
X48525000Y-662500D01*
G75*
G02*
X48762500Y-425000I237500J0D01*
G01*
G37*
G04 #@! TD.AperFunction*
G04 #@! TA.AperFunction,SMDPad,CuDef*
G36*
G01*
X48762500Y1400000D02*
X49237500Y1400000D01*
G75*
G02*
X49475000Y1162500I0J-237500D01*
G01*
X49475000Y662500D01*
G75*
G02*
X49237500Y425000I-237500J0D01*
G01*
X48762500Y425000D01*
G75*
G02*
X48525000Y662500I0J237500D01*
G01*
X48525000Y1162500D01*
G75*
G02*
X48762500Y1400000I237500J0D01*
G01*
G37*
G04 #@! TD.AperFunction*
G04 #@! TA.AperFunction,SMDPad,CuDef*
G36*
G01*
X39262500Y-425000D02*
X39737500Y-425000D01*
G75*
G02*
X39975000Y-662500I0J-237500D01*
G01*
X39975000Y-1162500D01*
G75*
G02*
X39737500Y-1400000I-237500J0D01*
G01*
X39262500Y-1400000D01*
G75*
G02*
X39025000Y-1162500I0J237500D01*
G01*
X39025000Y-662500D01*
G75*
G02*
X39262500Y-425000I237500J0D01*
G01*
G37*
G04 #@! TD.AperFunction*
G04 #@! TA.AperFunction,SMDPad,CuDef*
G36*
G01*
X39262500Y1400000D02*
X39737500Y1400000D01*
G75*
G02*
X39975000Y1162500I0J-237500D01*
G01*
X39975000Y662500D01*
G75*
G02*
X39737500Y425000I-237500J0D01*
G01*
X39262500Y425000D01*
G75*
G02*
X39025000Y662500I0J237500D01*
G01*
X39025000Y1162500D01*
G75*
G02*
X39262500Y1400000I237500J0D01*
G01*
G37*
G04 #@! TD.AperFunction*
G04 #@! TA.AperFunction,SMDPad,CuDef*
G36*
G01*
X29762500Y-425000D02*
X30237500Y-425000D01*
G75*
G02*
X30475000Y-662500I0J-237500D01*
G01*
X30475000Y-1162500D01*
G75*
G02*
X30237500Y-1400000I-237500J0D01*
G01*
X29762500Y-1400000D01*
G75*
G02*
X29525000Y-1162500I0J237500D01*
G01*
X29525000Y-662500D01*
G75*
G02*
X29762500Y-425000I237500J0D01*
G01*
G37*
G04 #@! TD.AperFunction*
G04 #@! TA.AperFunction,SMDPad,CuDef*
G36*
G01*
X29762500Y1400000D02*
X30237500Y1400000D01*
G75*
G02*
X30475000Y1162500I0J-237500D01*
G01*
X30475000Y662500D01*
G75*
G02*
X30237500Y425000I-237500J0D01*
G01*
X29762500Y425000D01*
G75*
G02*
X29525000Y662500I0J237500D01*
G01*
X29525000Y1162500D01*
G75*
G02*
X29762500Y1400000I237500J0D01*
G01*
G37*
G04 #@! TD.AperFunction*
G04 #@! TA.AperFunction,SMDPad,CuDef*
G36*
G01*
X89825001Y-1600000D02*
X88524999Y-1600000D01*
G75*
G02*
X88275000Y-1350001I0J249999D01*
G01*
X88275000Y-649999D01*
G75*
G02*
X88524999Y-400000I249999J0D01*
G01*
X89825001Y-400000D01*
G75*
G02*
X90075000Y-649999I0J-249999D01*
G01*
X90075000Y-1350001D01*
G75*
G02*
X89825001Y-1600000I-249999J0D01*
G01*
G37*
G04 #@! TD.AperFunction*
G04 #@! TA.AperFunction,SMDPad,CuDef*
G36*
G01*
X89825001Y-7200000D02*
X88524999Y-7200000D01*
G75*
G02*
X88275000Y-6950001I0J249999D01*
G01*
X88275000Y-6249999D01*
G75*
G02*
X88524999Y-6000000I249999J0D01*
G01*
X89825001Y-6000000D01*
G75*
G02*
X90075000Y-6249999I0J-249999D01*
G01*
X90075000Y-6950001D01*
G75*
G02*
X89825001Y-7200000I-249999J0D01*
G01*
G37*
G04 #@! TD.AperFunction*
G04 #@! TA.AperFunction,SMDPad,CuDef*
G36*
G01*
X85925000Y-2600000D02*
X84675000Y-2600000D01*
G75*
G02*
X84525000Y-2450000I0J150000D01*
G01*
X84525000Y-2150000D01*
G75*
G02*
X84675000Y-2000000I150000J0D01*
G01*
X85925000Y-2000000D01*
G75*
G02*
X86075000Y-2150000I0J-150000D01*
G01*
X86075000Y-2450000D01*
G75*
G02*
X85925000Y-2600000I-150000J0D01*
G01*
G37*
G04 #@! TD.AperFunction*
G04 #@! TA.AperFunction,SMDPad,CuDef*
G36*
G01*
X85925000Y-3600000D02*
X84675000Y-3600000D01*
G75*
G02*
X84525000Y-3450000I0J150000D01*
G01*
X84525000Y-3150000D01*
G75*
G02*
X84675000Y-3000000I150000J0D01*
G01*
X85925000Y-3000000D01*
G75*
G02*
X86075000Y-3150000I0J-150000D01*
G01*
X86075000Y-3450000D01*
G75*
G02*
X85925000Y-3600000I-150000J0D01*
G01*
G37*
G04 #@! TD.AperFunction*
G04 #@! TA.AperFunction,SMDPad,CuDef*
G36*
G01*
X85925000Y-4600000D02*
X84675000Y-4600000D01*
G75*
G02*
X84525000Y-4450000I0J150000D01*
G01*
X84525000Y-4150000D01*
G75*
G02*
X84675000Y-4000000I150000J0D01*
G01*
X85925000Y-4000000D01*
G75*
G02*
X86075000Y-4150000I0J-150000D01*
G01*
X86075000Y-4450000D01*
G75*
G02*
X85925000Y-4600000I-150000J0D01*
G01*
G37*
G04 #@! TD.AperFunction*
G04 #@! TA.AperFunction,SMDPad,CuDef*
G36*
G01*
X85925000Y-5600000D02*
X84675000Y-5600000D01*
G75*
G02*
X84525000Y-5450000I0J150000D01*
G01*
X84525000Y-5150000D01*
G75*
G02*
X84675000Y-5000000I150000J0D01*
G01*
X85925000Y-5000000D01*
G75*
G02*
X86075000Y-5150000I0J-150000D01*
G01*
X86075000Y-5450000D01*
G75*
G02*
X85925000Y-5600000I-150000J0D01*
G01*
G37*
G04 #@! TD.AperFunction*
G04 #@! TA.AperFunction,SMDPad,CuDef*
G36*
G01*
X89835001Y-9900000D02*
X88534999Y-9900000D01*
G75*
G02*
X88285000Y-9650001I0J249999D01*
G01*
X88285000Y-8949999D01*
G75*
G02*
X88534999Y-8700000I249999J0D01*
G01*
X89835001Y-8700000D01*
G75*
G02*
X90085000Y-8949999I0J-249999D01*
G01*
X90085000Y-9650001D01*
G75*
G02*
X89835001Y-9900000I-249999J0D01*
G01*
G37*
G04 #@! TD.AperFunction*
G04 #@! TA.AperFunction,SMDPad,CuDef*
G36*
G01*
X89835001Y-15500000D02*
X88534999Y-15500000D01*
G75*
G02*
X88285000Y-15250001I0J249999D01*
G01*
X88285000Y-14549999D01*
G75*
G02*
X88534999Y-14300000I249999J0D01*
G01*
X89835001Y-14300000D01*
G75*
G02*
X90085000Y-14549999I0J-249999D01*
G01*
X90085000Y-15250001D01*
G75*
G02*
X89835001Y-15500000I-249999J0D01*
G01*
G37*
G04 #@! TD.AperFunction*
G04 #@! TA.AperFunction,SMDPad,CuDef*
G36*
G01*
X85935000Y-10900000D02*
X84685000Y-10900000D01*
G75*
G02*
X84535000Y-10750000I0J150000D01*
G01*
X84535000Y-10450000D01*
G75*
G02*
X84685000Y-10300000I150000J0D01*
G01*
X85935000Y-10300000D01*
G75*
G02*
X86085000Y-10450000I0J-150000D01*
G01*
X86085000Y-10750000D01*
G75*
G02*
X85935000Y-10900000I-150000J0D01*
G01*
G37*
G04 #@! TD.AperFunction*
G04 #@! TA.AperFunction,SMDPad,CuDef*
G36*
G01*
X85935000Y-11900000D02*
X84685000Y-11900000D01*
G75*
G02*
X84535000Y-11750000I0J150000D01*
G01*
X84535000Y-11450000D01*
G75*
G02*
X84685000Y-11300000I150000J0D01*
G01*
X85935000Y-11300000D01*
G75*
G02*
X86085000Y-11450000I0J-150000D01*
G01*
X86085000Y-11750000D01*
G75*
G02*
X85935000Y-11900000I-150000J0D01*
G01*
G37*
G04 #@! TD.AperFunction*
G04 #@! TA.AperFunction,SMDPad,CuDef*
G36*
G01*
X85935000Y-12900000D02*
X84685000Y-12900000D01*
G75*
G02*
X84535000Y-12750000I0J150000D01*
G01*
X84535000Y-12450000D01*
G75*
G02*
X84685000Y-12300000I150000J0D01*
G01*
X85935000Y-12300000D01*
G75*
G02*
X86085000Y-12450000I0J-150000D01*
G01*
X86085000Y-12750000D01*
G75*
G02*
X85935000Y-12900000I-150000J0D01*
G01*
G37*
G04 #@! TD.AperFunction*
G04 #@! TA.AperFunction,SMDPad,CuDef*
G36*
G01*
X85935000Y-13900000D02*
X84685000Y-13900000D01*
G75*
G02*
X84535000Y-13750000I0J150000D01*
G01*
X84535000Y-13450000D01*
G75*
G02*
X84685000Y-13300000I150000J0D01*
G01*
X85935000Y-13300000D01*
G75*
G02*
X86085000Y-13450000I0J-150000D01*
G01*
X86085000Y-13750000D01*
G75*
G02*
X85935000Y-13900000I-150000J0D01*
G01*
G37*
G04 #@! TD.AperFunction*
D10*
X80400000Y-18400000D03*
G04 #@! TA.AperFunction,SMDPad,CuDef*
G36*
G01*
X82400000Y430000D02*
X82400000Y770000D01*
G75*
G02*
X82540000Y910000I140000J0D01*
G01*
X82820000Y910000D01*
G75*
G02*
X82960000Y770000I0J-140000D01*
G01*
X82960000Y430000D01*
G75*
G02*
X82820000Y290000I-140000J0D01*
G01*
X82540000Y290000D01*
G75*
G02*
X82400000Y430000I0J140000D01*
G01*
G37*
G04 #@! TD.AperFunction*
G04 #@! TA.AperFunction,SMDPad,CuDef*
G36*
G01*
X81440000Y430000D02*
X81440000Y770000D01*
G75*
G02*
X81580000Y910000I140000J0D01*
G01*
X81860000Y910000D01*
G75*
G02*
X82000000Y770000I0J-140000D01*
G01*
X82000000Y430000D01*
G75*
G02*
X81860000Y290000I-140000J0D01*
G01*
X81580000Y290000D01*
G75*
G02*
X81440000Y430000I0J140000D01*
G01*
G37*
G04 #@! TD.AperFunction*
D22*
X82505331Y9505331D03*
X82430331Y1669669D03*
X81600000Y12650000D03*
X54900000Y20300000D03*
X82700000Y11700000D03*
X77630331Y19430331D03*
X76500000Y17800000D03*
X89153494Y8665521D03*
X87043750Y5256250D03*
X78230000Y-13770000D03*
X87908000Y14708000D03*
X8000000Y-5500000D03*
X16980000Y-2760000D03*
X8300000Y2770000D03*
X17220000Y5540000D03*
X12750000Y-4170000D03*
X21770000Y-1390000D03*
X12730000Y1400000D03*
X21810000Y4140000D03*
X30700000Y-3460000D03*
X19970000Y-3510000D03*
X40050000Y-3460000D03*
X49730000Y-3410000D03*
X59260000Y-3430000D03*
X68740000Y-3340000D03*
X78240000Y-3440000D03*
X18480000Y-2140000D03*
X26260000Y-2710000D03*
X35670000Y-2710000D03*
X45230000Y-2710000D03*
X54730000Y-2660000D03*
X64220000Y-2680000D03*
X73700000Y-2590000D03*
X77600000Y-6700000D03*
X73700000Y-6800000D03*
X11640000Y-100000D03*
X29720000Y3190000D03*
X40160000Y3200000D03*
X49730000Y3200000D03*
X59230000Y3160000D03*
X68740000Y3160000D03*
X78360000Y3140000D03*
X79748008Y1151992D03*
X23600000Y-13100000D03*
X7190000Y650000D03*
X24420000Y4530000D03*
X11300000Y-23500000D03*
X12700000Y-16000000D03*
X21800000Y-15400000D03*
X17200000Y-15400000D03*
X85000000Y12425098D03*
X8200000Y-15900000D03*
X18800000Y11000000D03*
X18800000Y9500000D03*
X78300000Y12650000D03*
X82850376Y4459489D03*
X77400000Y-8750000D03*
X73758008Y12641992D03*
X81970002Y5209489D03*
X68700000Y12600000D03*
X68700000Y6799940D03*
X70000000Y2200000D03*
X72400000Y-1840000D03*
X64208008Y12591992D03*
X64200000Y7249950D03*
X40200000Y12800000D03*
X40200000Y7699960D03*
X35808008Y12691992D03*
X35700000Y8149970D03*
X30700000Y12700000D03*
X30700000Y8599980D03*
X24100000Y11000000D03*
X24100000Y9049990D03*
X59400000Y12500000D03*
X85600000Y13400000D03*
X60400000Y6400000D03*
X60200000Y2400000D03*
X63100000Y-1910000D03*
X55558008Y13441992D03*
X84709600Y14150000D03*
X49749992Y12949992D03*
X83767915Y14900000D03*
X41321111Y7249950D03*
X45958008Y13341992D03*
X82700000Y15650000D03*
X89300000Y12500000D03*
D23*
X82760662Y9250000D02*
X82505331Y9505331D01*
X84092000Y9250000D02*
X82760662Y9250000D01*
X81720000Y959338D02*
X81720000Y600000D01*
X82430331Y1669669D02*
X81720000Y959338D01*
X81720000Y-2495000D02*
X81720000Y600000D01*
X84525000Y-5300000D02*
X81720000Y-2495000D01*
X85300000Y-5300000D02*
X84525000Y-5300000D01*
X85740001Y9259999D02*
X86000000Y9000000D01*
X84259999Y9259999D02*
X85740001Y9259999D01*
X84250000Y9250000D02*
X84259999Y9259999D01*
X84092000Y9250000D02*
X84250000Y9250000D01*
X81600000Y12650000D02*
X81600000Y13763590D01*
X75063590Y20300000D02*
X54900000Y20300000D01*
X81600000Y13763590D02*
X75063590Y20300000D01*
D24*
X80770000Y11250000D02*
X80770000Y11526000D01*
X71270000Y11526000D02*
X71270000Y11250000D01*
X66997000Y15799000D02*
X71270000Y11526000D01*
X66319000Y15799000D02*
X61770000Y11250000D01*
X66997000Y15799000D02*
X66319000Y15799000D01*
X75819000Y15799000D02*
X71270000Y11250000D01*
X76497000Y15799000D02*
X75819000Y15799000D01*
X61770000Y11526000D02*
X61770000Y11250000D01*
X57497000Y15799000D02*
X61770000Y11526000D01*
X56819000Y15799000D02*
X52270000Y11250000D01*
X57497000Y15799000D02*
X56819000Y15799000D01*
X52270000Y11526000D02*
X52270000Y11250000D01*
X47997000Y15799000D02*
X52270000Y11526000D01*
X47319000Y15799000D02*
X42770000Y11250000D01*
X47997000Y15799000D02*
X47319000Y15799000D01*
X42770000Y11526000D02*
X42770000Y11250000D01*
X38497000Y15799000D02*
X42770000Y11526000D01*
X37819000Y15799000D02*
X33270000Y11250000D01*
X38497000Y15799000D02*
X37819000Y15799000D01*
X33270000Y11526000D02*
X33270000Y11250000D01*
X28997000Y15799000D02*
X33270000Y11526000D01*
X80870000Y11426000D02*
X76497000Y15799000D01*
X80870000Y11250000D02*
X80870000Y11426000D01*
X45500000Y-14000000D02*
X49500000Y-14000000D01*
X49730000Y-13770000D02*
X49500000Y-14000000D01*
X49730000Y-11250000D02*
X49730000Y-13770000D01*
X78230000Y-11250000D02*
X78230000Y-13770000D01*
X78230000Y-13770000D02*
X78000000Y-14000000D01*
X26230000Y-11250000D02*
X26230000Y-13730000D01*
X26230000Y-13730000D02*
X26500000Y-14000000D01*
X73730000Y-13770000D02*
X73500000Y-14000000D01*
X73730000Y-11250000D02*
X73730000Y-13770000D01*
X73500000Y-14000000D02*
X78000000Y-14000000D01*
X68730000Y-11250000D02*
X68730000Y-13770000D01*
X68730000Y-13770000D02*
X68500000Y-14000000D01*
X68500000Y-14000000D02*
X73500000Y-14000000D01*
X64230000Y-13770000D02*
X64000000Y-14000000D01*
X64230000Y-11250000D02*
X64230000Y-13770000D01*
X64000000Y-14000000D02*
X68500000Y-14000000D01*
X59230000Y-13770000D02*
X59000000Y-14000000D01*
X59230000Y-11250000D02*
X59230000Y-13770000D01*
X59000000Y-14000000D02*
X64000000Y-14000000D01*
X54730000Y-13770000D02*
X54500000Y-14000000D01*
X54500000Y-14000000D02*
X59000000Y-14000000D01*
X54730000Y-11250000D02*
X54730000Y-13770000D01*
X45230000Y-13770000D02*
X45000000Y-14000000D01*
X45230000Y-11250000D02*
X45230000Y-13770000D01*
X45000000Y-14000000D02*
X54500000Y-14000000D01*
X40230000Y-13770000D02*
X40000000Y-14000000D01*
X40230000Y-11250000D02*
X40230000Y-13770000D01*
X40000000Y-14000000D02*
X45000000Y-14000000D01*
X35730000Y-13770000D02*
X35500000Y-14000000D01*
X35730000Y-11250000D02*
X35730000Y-13770000D01*
X35500000Y-14000000D02*
X40000000Y-14000000D01*
X30730000Y-13770000D02*
X30500000Y-14000000D01*
X30730000Y-11250000D02*
X30730000Y-13770000D01*
X30500000Y-14000000D02*
X35500000Y-14000000D01*
X26500000Y-14000000D02*
X30500000Y-14000000D01*
D23*
X8497000Y18023000D02*
X12770000Y13750000D01*
X8497000Y18299000D02*
X8497000Y18023000D01*
X12770000Y13750000D02*
X12770000Y15770000D01*
X12770000Y15770000D02*
X13500000Y16500000D01*
X28296000Y16500000D02*
X28997000Y15799000D01*
X21770000Y16270000D02*
X22000000Y16500000D01*
X21770000Y13750000D02*
X21770000Y16270000D01*
X22000000Y16500000D02*
X28296000Y16500000D01*
X17270000Y13750000D02*
X17270000Y16270000D01*
X17500000Y16500000D02*
X22000000Y16500000D01*
X17270000Y16270000D02*
X17500000Y16500000D01*
X13500000Y16500000D02*
X17500000Y16500000D01*
X22201000Y-18299000D02*
X26500000Y-14000000D01*
X19230000Y-18270000D02*
X19201000Y-18299000D01*
X19230000Y-13750000D02*
X19230000Y-18270000D01*
X19201000Y-18299000D02*
X22201000Y-18299000D01*
X14730000Y-18270000D02*
X14701000Y-18299000D01*
X14730000Y-13750000D02*
X14730000Y-18270000D01*
X14701000Y-18299000D02*
X19201000Y-18299000D01*
X10230000Y-18230000D02*
X10299000Y-18299000D01*
X10230000Y-13750000D02*
X10230000Y-18230000D01*
X10299000Y-18299000D02*
X14701000Y-18299000D01*
X5503000Y-18299000D02*
X10299000Y-18299000D01*
X70000000Y-19200000D02*
X71250000Y-19200000D01*
X68500000Y-17700000D02*
X70000000Y-19200000D01*
X68500000Y-14000000D02*
X68500000Y-17700000D01*
X82250000Y11250000D02*
X82700000Y11700000D01*
X80870000Y11250000D02*
X82250000Y11250000D01*
X87908000Y10250000D02*
X87908000Y10358194D01*
X76500000Y15802000D02*
X76497000Y15799000D01*
X76500000Y17800000D02*
X76500000Y15802000D01*
X87250000Y5462500D02*
X87043750Y5256250D01*
X85487500Y3700000D02*
X85487500Y1800000D01*
X83880000Y1800000D02*
X82680000Y600000D01*
X85487500Y1800000D02*
X83880000Y1800000D01*
X84525000Y-4300000D02*
X85300000Y-4300000D01*
X82680000Y-2455000D02*
X84525000Y-4300000D01*
X82680000Y600000D02*
X82680000Y-2455000D01*
X89069015Y8750000D02*
X89153494Y8665521D01*
X87908000Y8750000D02*
X89069015Y8750000D01*
X87043750Y5256250D02*
X85487500Y3700000D01*
X75787500Y-22200000D02*
X73850000Y-22200000D01*
X87250000Y7092000D02*
X87250000Y5462500D01*
X84468001Y19735001D02*
X82893570Y19735001D01*
X82893570Y19735001D02*
X82588900Y19430331D01*
X82588900Y19430331D02*
X77630331Y19430331D01*
X87908000Y16295002D02*
X84468001Y19735001D01*
X87908000Y10250000D02*
X87908000Y14708000D01*
X87908000Y14708000D02*
X87908000Y16295002D01*
X73805008Y-22200000D02*
X75787500Y-22200000D01*
X71250000Y-19644992D02*
X73805008Y-22200000D01*
X71250000Y-19200000D02*
X71250000Y-19644992D01*
X8270000Y16468000D02*
X8503000Y16701000D01*
X8270000Y13750000D02*
X8270000Y16468000D01*
X5730000Y-16468000D02*
X5497000Y-16701000D01*
X5730000Y-13750000D02*
X5730000Y-16468000D01*
D24*
X29003000Y11483000D02*
X28770000Y11250000D01*
X29003000Y14201000D02*
X29003000Y11483000D01*
X38503000Y11483000D02*
X38270000Y11250000D01*
X38503000Y14201000D02*
X38503000Y11483000D01*
X48003000Y11483000D02*
X47770000Y11250000D01*
X48003000Y14201000D02*
X48003000Y11483000D01*
X57503000Y11483000D02*
X57270000Y11250000D01*
X57503000Y14201000D02*
X57503000Y11483000D01*
X67003000Y11483000D02*
X66770000Y11250000D01*
X67003000Y14201000D02*
X67003000Y11483000D01*
X76503000Y11483000D02*
X76270000Y11250000D01*
X76503000Y14201000D02*
X76503000Y11483000D01*
D23*
X0Y12500000D02*
X-4700000Y7800000D01*
X-4700000Y7800000D02*
X-4700000Y-9700000D01*
X-1900000Y-12500000D02*
X0Y-12500000D01*
X-4700000Y-9700000D02*
X-1900000Y-12500000D01*
X8270000Y-5770000D02*
X8000000Y-5500000D01*
X8270000Y-7250000D02*
X8270000Y-5770000D01*
X17270000Y-3050000D02*
X16980000Y-2760000D01*
X17270000Y-7250000D02*
X17270000Y-3050000D01*
X8270000Y2800000D02*
X8300000Y2770000D01*
X8270000Y7250000D02*
X8270000Y2800000D01*
X17270000Y7250000D02*
X17270000Y5590000D01*
X17270000Y5590000D02*
X17220000Y5540000D01*
X12770000Y-4190000D02*
X12750000Y-4170000D01*
X12770000Y-7250000D02*
X12770000Y-4190000D01*
X21770000Y-7250000D02*
X21770000Y-1390000D01*
X12770000Y1440000D02*
X12730000Y1400000D01*
X12770000Y7250000D02*
X12770000Y1440000D01*
X21770000Y4180000D02*
X21810000Y4140000D01*
X21770000Y7250000D02*
X21770000Y4180000D01*
X77712500Y-22100000D02*
X77612500Y-22200000D01*
X80400000Y-22100000D02*
X77712500Y-22100000D01*
X79600000Y-19200000D02*
X80400000Y-18400000D01*
X72550000Y-19200000D02*
X79600000Y-19200000D01*
X83300000Y-18400000D02*
X80400000Y-18400000D01*
X87823536Y749990D02*
X87823536Y-13876464D01*
X90050001Y2976455D02*
X87823536Y749990D01*
X90050001Y12860001D02*
X90050001Y2976455D01*
X89660001Y13250001D02*
X90050001Y12860001D01*
X88939999Y13250001D02*
X89660001Y13250001D01*
X88549999Y12860001D02*
X88939999Y13250001D01*
X88590501Y9829999D02*
X88590501Y12099497D01*
X88549999Y12139999D02*
X88549999Y12860001D01*
X88510502Y9750000D02*
X88590501Y9829999D01*
X87823536Y-13876464D02*
X83300000Y-18400000D01*
X88590501Y12099497D02*
X88549999Y12139999D01*
X87908000Y9750000D02*
X88510502Y9750000D01*
X30730000Y-3490000D02*
X30700000Y-3460000D01*
X30730000Y-4750000D02*
X30730000Y-3490000D01*
X19970000Y-3510000D02*
X19230000Y-3510000D01*
X19230000Y-3510000D02*
X19230000Y-7250000D01*
X19230000Y7250000D02*
X19230000Y-3510000D01*
X40050000Y-4570000D02*
X40230000Y-4750000D01*
X40050000Y-3460000D02*
X40050000Y-4570000D01*
X49730000Y-3410000D02*
X49730000Y-4750000D01*
X59260000Y-4720000D02*
X59230000Y-4750000D01*
X59260000Y-3430000D02*
X59260000Y-4720000D01*
X68740000Y-4740000D02*
X68730000Y-4750000D01*
X68740000Y-3340000D02*
X68740000Y-4740000D01*
X78240000Y-4740000D02*
X78230000Y-4750000D01*
X78240000Y-3440000D02*
X78240000Y-4740000D01*
X79179501Y-5699501D02*
X78230000Y-4750000D01*
X86435010Y-10242886D02*
X81891625Y-5699501D01*
X81891625Y-5699501D02*
X79179501Y-5699501D01*
X86435010Y-11249990D02*
X86435010Y-10242886D01*
X86085000Y-11600000D02*
X86435010Y-11249990D01*
X85310000Y-11600000D02*
X86085000Y-11600000D01*
X18350000Y-2010000D02*
X18480000Y-2140000D01*
X14730000Y-2010000D02*
X18350000Y-2010000D01*
X14730000Y7250000D02*
X14730000Y-2010000D01*
X14730000Y-2010000D02*
X14730000Y-7250000D01*
X26260000Y-4720000D02*
X26230000Y-4750000D01*
X26260000Y-2710000D02*
X26260000Y-4720000D01*
X35670000Y-4690000D02*
X35730000Y-4750000D01*
X35670000Y-2710000D02*
X35670000Y-4690000D01*
X45230000Y-2710000D02*
X45230000Y-4750000D01*
X54730000Y-2660000D02*
X54730000Y-4750000D01*
X64220000Y-4740000D02*
X64230000Y-4750000D01*
X64220000Y-2680000D02*
X64220000Y-4740000D01*
X73700000Y-4720000D02*
X73730000Y-4750000D01*
X73700000Y-2590000D02*
X73700000Y-4720000D01*
X81410000Y-6700000D02*
X77600000Y-6700000D01*
X85310000Y-10600000D02*
X81410000Y-6700000D01*
X73700000Y-4780000D02*
X73730000Y-4750000D01*
X73700000Y-6800000D02*
X73700000Y-4780000D01*
X11300000Y240000D02*
X11640000Y-100000D01*
X10230000Y240000D02*
X11300000Y240000D01*
X10230000Y7250000D02*
X10230000Y240000D01*
X10230000Y240000D02*
X10230000Y-7250000D01*
X30730000Y4200000D02*
X29720000Y3190000D01*
X30730000Y4750000D02*
X30730000Y4200000D01*
X40160000Y4680000D02*
X40230000Y4750000D01*
X40160000Y3200000D02*
X40160000Y4680000D01*
X49730000Y3200000D02*
X49730000Y4750000D01*
X59230000Y3160000D02*
X59230000Y4750000D01*
X68740000Y4740000D02*
X68730000Y4750000D01*
X68740000Y3160000D02*
X68740000Y4740000D01*
X78360000Y4720000D02*
X78330000Y4750000D01*
X78360000Y3140000D02*
X78360000Y4720000D01*
X81269990Y-2752114D02*
X81269990Y-369990D01*
X87373526Y-8855650D02*
X81269990Y-2752114D01*
X81269990Y-369990D02*
X79748008Y1151992D01*
X87373526Y-11509936D02*
X87373526Y-8855650D01*
X86283462Y-12600000D02*
X87373526Y-11509936D01*
X85310000Y-12600000D02*
X86283462Y-12600000D01*
X18699501Y-8199501D02*
X23600000Y-13100000D01*
X13999999Y-8199501D02*
X18699501Y-8199501D01*
X13929999Y-8129501D02*
X13999999Y-8199501D01*
X13929999Y-2389999D02*
X13929999Y-8129501D01*
X11640000Y-100000D02*
X13929999Y-2389999D01*
X6840000Y1000000D02*
X7190000Y650000D01*
X5730000Y1000000D02*
X6840000Y1000000D01*
X5730000Y7250000D02*
X5730000Y1000000D01*
X5730000Y1000000D02*
X5730000Y-7250000D01*
X26010000Y4530000D02*
X26230000Y4750000D01*
X24420000Y4530000D02*
X26010000Y4530000D01*
X31054990Y74990D02*
X35730000Y4750000D01*
X29519144Y74990D02*
X31054990Y74990D01*
X26230000Y3364134D02*
X29519144Y74990D01*
X26230000Y4750000D02*
X26230000Y3364134D01*
X45230000Y3950500D02*
X45230000Y4750000D01*
X41354490Y74990D02*
X45230000Y3950500D01*
X39019144Y74990D02*
X41354490Y74990D01*
X35730000Y3364134D02*
X39019144Y74990D01*
X35730000Y4750000D02*
X35730000Y3364134D01*
X50246754Y74990D02*
X54730000Y4558236D01*
X54730000Y4558236D02*
X54730000Y4750000D01*
X48519144Y74990D02*
X50246754Y74990D01*
X45230000Y3364134D02*
X48519144Y74990D01*
X45230000Y4750000D02*
X45230000Y3364134D01*
X64230000Y3950500D02*
X64230000Y4750000D01*
X60329490Y49990D02*
X64230000Y3950500D01*
X57801464Y49990D02*
X60329490Y49990D01*
X54730000Y3121454D02*
X57801464Y49990D01*
X54730000Y4750000D02*
X54730000Y3121454D01*
X73730000Y3950500D02*
X73730000Y4750000D01*
X69829490Y49990D02*
X73730000Y3950500D01*
X67301464Y49990D02*
X69829490Y49990D01*
X64230000Y3121454D02*
X67301464Y49990D01*
X64230000Y4750000D02*
X64230000Y3121454D01*
X75469999Y3010001D02*
X75469999Y-5709997D01*
X73730000Y4750000D02*
X75469999Y3010001D01*
X81049991Y-9850489D02*
X81600000Y-10400498D01*
X79610491Y-9850489D02*
X81049991Y-9850489D01*
X75469999Y-5709997D02*
X79610491Y-9850489D01*
X81600000Y-10400498D02*
X81600000Y-13500000D01*
X85210000Y-13500000D02*
X85310000Y-13600000D01*
X81600000Y-13500000D02*
X85210000Y-13500000D01*
X87312500Y2112500D02*
X87312500Y1800000D01*
X88590501Y8170001D02*
X88590501Y3390501D01*
X88510502Y8250000D02*
X88590501Y8170001D01*
X88590501Y3390501D02*
X87312500Y2112500D01*
X87908000Y8250000D02*
X88510502Y8250000D01*
X86075000Y-3300000D02*
X85300000Y-3300000D01*
X87312500Y-2062500D02*
X86075000Y-3300000D01*
X87312500Y1800000D02*
X87312500Y-2062500D01*
X87908000Y4295500D02*
X87312500Y3700000D01*
X87908000Y7750000D02*
X87908000Y4295500D01*
X86449990Y-1150010D02*
X85300000Y-2300000D01*
X86449990Y2498536D02*
X86449990Y-1150010D01*
X87312500Y3361046D02*
X86449990Y2498536D01*
X87312500Y3700000D02*
X87312500Y3361046D01*
D24*
X38270000Y-2142500D02*
X39500000Y-912500D01*
X38270000Y-4750000D02*
X38270000Y-2142500D01*
X42770000Y-4750000D02*
X42770000Y-2770000D01*
X40912500Y-912500D02*
X39500000Y-912500D01*
X42770000Y-2770000D02*
X40912500Y-912500D01*
X38270000Y2142500D02*
X39500000Y912500D01*
X38270000Y4750000D02*
X38270000Y2142500D01*
X42770000Y4750000D02*
X42770000Y2770000D01*
X40912500Y912500D02*
X39500000Y912500D01*
X42770000Y2770000D02*
X40912500Y912500D01*
X47770000Y2142500D02*
X49000000Y912500D01*
X47770000Y4750000D02*
X47770000Y2142500D01*
X52270000Y4750000D02*
X52270000Y2770000D01*
X50412500Y912500D02*
X49000000Y912500D01*
X52270000Y2770000D02*
X50412500Y912500D01*
X47770000Y-2142500D02*
X49000000Y-912500D01*
X47770000Y-4750000D02*
X47770000Y-2142500D01*
X52270000Y-4750000D02*
X52270000Y-2770000D01*
X50412500Y-912500D02*
X49000000Y-912500D01*
X52270000Y-2770000D02*
X50412500Y-912500D01*
X57270000Y2230000D02*
X58500000Y1000000D01*
X57270000Y4750000D02*
X57270000Y2230000D01*
X61770000Y4750000D02*
X61770000Y2770000D01*
X60000000Y1000000D02*
X58500000Y1000000D01*
X61770000Y2770000D02*
X60000000Y1000000D01*
X57270000Y-2230000D02*
X58500000Y-1000000D01*
X57270000Y-4750000D02*
X57270000Y-2230000D01*
X61770000Y-4750000D02*
X61770000Y-2770000D01*
X60000000Y-1000000D02*
X58500000Y-1000000D01*
X61770000Y-2770000D02*
X60000000Y-1000000D01*
X66770000Y-2230000D02*
X68000000Y-1000000D01*
X66770000Y-4750000D02*
X66770000Y-2230000D01*
X71270000Y-4750000D02*
X71270000Y-3020000D01*
X69250000Y-1000000D02*
X68000000Y-1000000D01*
X71270000Y-3020000D02*
X69250000Y-1000000D01*
X66770000Y2230000D02*
X68000000Y1000000D01*
X66770000Y4750000D02*
X66770000Y2230000D01*
X69500000Y1000000D02*
X68000000Y1000000D01*
D23*
X70143090Y1000000D02*
X69500000Y1000000D01*
X72300000Y3156910D02*
X70143090Y1000000D01*
X72300000Y3200000D02*
X72300000Y3156910D01*
X71270000Y4230000D02*
X72300000Y3200000D01*
X71270000Y4750000D02*
X71270000Y4230000D01*
D24*
X76270000Y-2142500D02*
X77500000Y-912500D01*
X76270000Y-4750000D02*
X76270000Y-2142500D01*
X80770000Y-4750000D02*
X80770000Y-2770000D01*
X78912500Y-912500D02*
X77500000Y-912500D01*
X80770000Y-2770000D02*
X78912500Y-912500D01*
X76270000Y2142500D02*
X77500000Y912500D01*
X76270000Y4750000D02*
X76270000Y2142500D01*
X80870000Y4750000D02*
X80870000Y3370000D01*
X78412500Y912500D02*
X77500000Y912500D01*
X80870000Y3370000D02*
X78412500Y912500D01*
D23*
X84750000Y11250000D02*
X73500000Y22500000D01*
X84750000Y10908000D02*
X84750000Y11250000D01*
X73500000Y22500000D02*
X26800000Y22500000D01*
X26800000Y22500000D02*
X25900000Y23400000D01*
X25900000Y23400000D02*
X-8000000Y23400000D01*
X-8000000Y23400000D02*
X-8600000Y22800000D01*
X-8600000Y-20100000D02*
X-5200000Y-23500000D01*
X-8600000Y22800000D02*
X-8600000Y-20100000D01*
X11400000Y-23500000D02*
X11300000Y-23500000D01*
X-5200000Y-23500000D02*
X11300000Y-23500000D01*
X12700000Y-13820000D02*
X12770000Y-13750000D01*
X12700000Y-16000000D02*
X12700000Y-13820000D01*
X21770000Y-15370000D02*
X21800000Y-15400000D01*
X21770000Y-13750000D02*
X21770000Y-15370000D01*
X17200000Y-13820000D02*
X17270000Y-13750000D01*
X17200000Y-15400000D02*
X17200000Y-13820000D01*
X85250000Y12175098D02*
X85000000Y12425098D01*
X85250000Y10908000D02*
X85250000Y12175098D01*
X8200000Y-13820000D02*
X8270000Y-13750000D01*
X8200000Y-15900000D02*
X8200000Y-13820000D01*
X13780499Y12800499D02*
X14730000Y13750000D01*
X11179501Y12800499D02*
X13780499Y12800499D01*
X10230000Y13750000D02*
X11179501Y12800499D01*
X15679501Y12800499D02*
X14730000Y13750000D01*
X18280499Y12800499D02*
X15679501Y12800499D01*
X19230000Y13750000D02*
X18280499Y12800499D01*
X18280499Y11519501D02*
X18800000Y11000000D01*
X18280499Y12800499D02*
X18280499Y11519501D01*
X82145330Y10255332D02*
X81090008Y9200010D01*
X82865332Y10255332D02*
X82145330Y10255332D01*
X83370664Y9750000D02*
X82865332Y10255332D01*
X84092000Y9750000D02*
X83370664Y9750000D01*
X19099990Y9799990D02*
X18800000Y9500000D01*
X79736400Y9200010D02*
X79136420Y9799990D01*
X79136420Y9799990D02*
X19099990Y9799990D01*
X81090008Y9200010D02*
X79736400Y9200010D01*
X9230000Y10250000D02*
X5730000Y13750000D01*
X83636658Y10705342D02*
X84092000Y10250000D01*
X81958930Y10705342D02*
X83636658Y10705342D01*
X81503588Y10250000D02*
X81958930Y10705342D01*
X9230000Y10250000D02*
X81503588Y10250000D01*
X78330000Y12620000D02*
X78300000Y12650000D01*
X78330000Y11250000D02*
X78330000Y12620000D01*
X86750000Y6080268D02*
X86750000Y7092000D01*
X85429212Y4759480D02*
X86750000Y6080268D01*
X83060231Y4759479D02*
X85429212Y4759480D01*
X82850376Y4549624D02*
X83060231Y4759479D01*
X82850376Y4459489D02*
X82850376Y4549624D01*
X79820499Y-10300499D02*
X80770000Y-11250000D01*
X77219501Y-10300499D02*
X79820499Y-10300499D01*
X76270000Y-11250000D02*
X77219501Y-10300499D01*
X76270000Y-9880000D02*
X77400000Y-8750000D01*
X76270000Y-11250000D02*
X76270000Y-9880000D01*
X73730000Y12613984D02*
X73758008Y12641992D01*
X73730000Y11250000D02*
X73730000Y12613984D01*
X86250000Y6216678D02*
X86250000Y7092000D01*
X85242811Y5209489D02*
X86250000Y6216678D01*
X81970002Y5209489D02*
X85242811Y5209489D01*
X68730000Y12570000D02*
X68700000Y12600000D01*
X68730000Y11250000D02*
X68730000Y12570000D01*
X68799940Y6799940D02*
X69099930Y7099930D01*
X68700000Y6799940D02*
X68799940Y6799940D01*
X78018020Y7099930D02*
X79158461Y5959489D01*
X69099930Y7099930D02*
X78018020Y7099930D01*
X85356402Y5959490D02*
X85750000Y6353088D01*
X85750000Y6353088D02*
X85750000Y7092000D01*
X79158461Y5959489D02*
X85356402Y5959490D01*
X70000000Y5499940D02*
X70000000Y2200000D01*
X68700000Y6799940D02*
X70000000Y5499940D01*
X72400000Y-10120000D02*
X71270000Y-11250000D01*
X67719501Y-10300499D02*
X66770000Y-11250000D01*
X70320499Y-10300499D02*
X67719501Y-10300499D01*
X71270000Y-11250000D02*
X70320499Y-10300499D01*
X72400000Y-1840000D02*
X72400000Y-10120000D01*
X64230000Y12570000D02*
X64208008Y12591992D01*
X64230000Y11250000D02*
X64230000Y12570000D01*
X85250000Y6489498D02*
X85250000Y7092000D01*
X85170001Y6409499D02*
X85250000Y6489498D01*
X79344861Y6409499D02*
X85170001Y6409499D01*
X78204420Y7549940D02*
X79344861Y6409499D01*
X64499990Y7549940D02*
X78204420Y7549940D01*
X64200000Y7249950D02*
X64499990Y7549940D01*
X40230000Y12770000D02*
X40200000Y12800000D01*
X40230000Y11250000D02*
X40230000Y12770000D01*
X40299960Y7699960D02*
X40599950Y7999950D01*
X40200000Y7699960D02*
X40299960Y7699960D01*
X40599950Y7999950D02*
X78390820Y7999950D01*
X79298770Y7092000D02*
X84750000Y7092000D01*
X78390820Y7999950D02*
X79298770Y7092000D01*
X30300039Y7299961D02*
X29750021Y7849979D01*
X39800001Y7299961D02*
X30300039Y7299961D01*
X40200000Y7699960D02*
X39800001Y7299961D01*
X29750021Y7849979D02*
X23086411Y7849979D01*
X23086411Y7786411D02*
X23020011Y7720011D01*
X23086411Y7849979D02*
X23086411Y7786411D01*
X23020011Y7720011D02*
X23020011Y-7783601D01*
X36870489Y-9850489D02*
X38270000Y-11250000D01*
X25086899Y-9850489D02*
X36870489Y-9850489D01*
X23020011Y-7783601D02*
X25086899Y-9850489D01*
X41820499Y-10300499D02*
X42770000Y-11250000D01*
X39219501Y-10300499D02*
X41820499Y-10300499D01*
X38270000Y-11250000D02*
X39219501Y-10300499D01*
X35730000Y12613984D02*
X35808008Y12691992D01*
X35730000Y11250000D02*
X35730000Y12613984D01*
X35700000Y8149970D02*
X35999990Y8449960D01*
X79277180Y7750000D02*
X84092000Y7750000D01*
X78577220Y8449960D02*
X79277180Y7750000D01*
X35999990Y8449960D02*
X78577220Y8449960D01*
X30730000Y12670000D02*
X30700000Y12700000D01*
X30730000Y11250000D02*
X30730000Y12670000D01*
X30700000Y8600000D02*
X30999970Y8899970D01*
X30700000Y8599980D02*
X30700000Y8600000D01*
X79413590Y8250000D02*
X84092000Y8250000D01*
X78763620Y8899970D02*
X79413590Y8250000D01*
X30999970Y8899970D02*
X78763620Y8899970D01*
X30400009Y8299989D02*
X22900011Y8299989D01*
X30700000Y8599980D02*
X30400009Y8299989D01*
X22900011Y8299989D02*
X22570001Y7969979D01*
X22570001Y7969979D02*
X22570001Y-7970001D01*
X22570001Y-7970001D02*
X24900499Y-10300499D01*
X27820499Y-10300499D02*
X28770000Y-11250000D01*
X24900499Y-10300499D02*
X27820499Y-10300499D01*
X32320499Y-10300499D02*
X33270000Y-11250000D01*
X29719501Y-10300499D02*
X32320499Y-10300499D01*
X28770000Y-11250000D02*
X29719501Y-10300499D01*
X24350000Y11250000D02*
X24100000Y11000000D01*
X26230000Y11250000D02*
X24350000Y11250000D01*
X79550000Y8750000D02*
X84092000Y8750000D01*
X25200000Y9349980D02*
X78950020Y9349980D01*
X24900010Y9049990D02*
X25200000Y9349980D01*
X78950020Y9349980D02*
X79550000Y8750000D01*
X24100000Y9049990D02*
X24900010Y9049990D01*
X59230000Y12330000D02*
X59400000Y12500000D01*
X59230000Y11250000D02*
X59230000Y12330000D01*
X85750000Y13250000D02*
X85600000Y13400000D01*
X85750000Y10908000D02*
X85750000Y13250000D01*
X60400000Y2600000D02*
X60200000Y2400000D01*
X60400000Y6400000D02*
X60400000Y2600000D01*
X63100000Y-9920000D02*
X61770000Y-11250000D01*
X63100000Y-1910000D02*
X63100000Y-9920000D01*
X58219501Y-10300499D02*
X57270000Y-11250000D01*
X60820499Y-10300499D02*
X58219501Y-10300499D01*
X61770000Y-11250000D02*
X60820499Y-10300499D01*
X54730000Y12613984D02*
X55558008Y13441992D01*
X54730000Y11250000D02*
X54730000Y12613984D01*
X85960002Y14150000D02*
X86350001Y13760001D01*
X84709600Y14150000D02*
X85960002Y14150000D01*
X86350001Y11610503D02*
X86350001Y13760001D01*
X86250000Y11510502D02*
X86350001Y11610503D01*
X86250000Y10908000D02*
X86250000Y11510502D01*
X49730000Y12930000D02*
X49749992Y12949992D01*
X49730000Y11250000D02*
X49730000Y12930000D01*
X85846412Y14900000D02*
X83767915Y14900000D01*
X86800010Y13946402D02*
X85846412Y14900000D01*
X86800011Y11424103D02*
X86800010Y13946402D01*
X86750000Y11374092D02*
X86800011Y11424103D01*
X86750000Y10908000D02*
X86750000Y11374092D01*
X45920479Y-9400479D02*
X47770000Y-11250000D01*
X25273299Y-9400479D02*
X45920479Y-9400479D01*
X23470021Y-7597201D02*
X25273299Y-9400479D01*
X23499969Y1699969D02*
X23470021Y1670021D01*
X23499969Y7399969D02*
X23499969Y1699969D01*
X29563621Y7399969D02*
X23499969Y7399969D01*
X23470021Y1670021D02*
X23470021Y-7597201D01*
X40921112Y6849951D02*
X30113639Y6849951D01*
X30113639Y6849951D02*
X29563621Y7399969D01*
X41321111Y7249950D02*
X40921112Y6849951D01*
X51320499Y-10300499D02*
X52270000Y-11250000D01*
X48719501Y-10300499D02*
X51320499Y-10300499D01*
X47770000Y-11250000D02*
X48719501Y-10300499D01*
X45230000Y12613984D02*
X45958008Y13341992D01*
X45230000Y11250000D02*
X45230000Y12613984D01*
X87250019Y10908019D02*
X87250000Y10908000D01*
X87250019Y14132801D02*
X87250019Y10908019D01*
X85732822Y15650000D02*
X87250019Y14132801D01*
X82700000Y15650000D02*
X85732822Y15650000D01*
D24*
X28770000Y-2142500D02*
X30000000Y-912500D01*
X28770000Y-4750000D02*
X28770000Y-2142500D01*
X33270000Y-4750000D02*
X33270000Y-3020000D01*
X31162500Y-912500D02*
X30000000Y-912500D01*
X33270000Y-3020000D02*
X31162500Y-912500D01*
X28770000Y2142500D02*
X30000000Y912500D01*
X28770000Y4750000D02*
X28770000Y2142500D01*
X33270000Y4750000D02*
X33270000Y3020000D01*
X31162500Y912500D02*
X30000000Y912500D01*
X33270000Y3020000D02*
X31162500Y912500D01*
D23*
X87908000Y9250000D02*
X88646912Y9250000D01*
X88646912Y9250000D02*
X89300000Y9903088D01*
X89300000Y9903088D02*
X89300000Y12500000D01*
D25*
X26254746Y22005807D02*
X26277762Y21977762D01*
X26389680Y21885913D01*
X26517367Y21817663D01*
X26655915Y21775635D01*
X26763895Y21765000D01*
X26763904Y21765000D01*
X26799999Y21761445D01*
X26836094Y21765000D01*
X73195554Y21765000D01*
X76174927Y18785627D01*
X76009744Y18717205D01*
X75840226Y18603937D01*
X75696063Y18459774D01*
X75582795Y18290256D01*
X75504774Y18101898D01*
X75465000Y17901939D01*
X75465000Y17698061D01*
X75504774Y17498102D01*
X75582795Y17309744D01*
X75696063Y17140226D01*
X75765000Y17071289D01*
X75765001Y16741561D01*
X75742506Y16729537D01*
X75645815Y16650185D01*
X75566463Y16553494D01*
X75542921Y16509450D01*
X75526753Y16504546D01*
X75394724Y16433974D01*
X75394722Y16433973D01*
X75394723Y16433973D01*
X75307996Y16362799D01*
X75307992Y16362795D01*
X75278999Y16339001D01*
X75255205Y16310008D01*
X71432771Y12487572D01*
X71383230Y12487572D01*
X68035072Y15835729D01*
X68035072Y16199000D01*
X68022812Y16323482D01*
X67986502Y16443180D01*
X67927537Y16553494D01*
X67848185Y16650185D01*
X67751494Y16729537D01*
X67641180Y16788502D01*
X67521482Y16824812D01*
X67397000Y16837072D01*
X66597000Y16837072D01*
X66472518Y16824812D01*
X66352820Y16788502D01*
X66242506Y16729537D01*
X66145815Y16650185D01*
X66066463Y16553494D01*
X66042921Y16509450D01*
X66026753Y16504546D01*
X65894724Y16433974D01*
X65894722Y16433973D01*
X65894723Y16433973D01*
X65807996Y16362799D01*
X65807992Y16362795D01*
X65778999Y16339001D01*
X65755205Y16310008D01*
X61932771Y12487572D01*
X61883230Y12487572D01*
X58535072Y15835729D01*
X58535072Y16199000D01*
X58522812Y16323482D01*
X58486502Y16443180D01*
X58427537Y16553494D01*
X58348185Y16650185D01*
X58251494Y16729537D01*
X58141180Y16788502D01*
X58021482Y16824812D01*
X57897000Y16837072D01*
X57097000Y16837072D01*
X56972518Y16824812D01*
X56852820Y16788502D01*
X56742506Y16729537D01*
X56645815Y16650185D01*
X56566463Y16553494D01*
X56542921Y16509450D01*
X56526753Y16504546D01*
X56394724Y16433974D01*
X56394722Y16433973D01*
X56394723Y16433973D01*
X56307996Y16362799D01*
X56307992Y16362795D01*
X56278999Y16339001D01*
X56255205Y16310008D01*
X52432771Y12487572D01*
X52383230Y12487572D01*
X49035072Y15835729D01*
X49035072Y16199000D01*
X49022812Y16323482D01*
X48986502Y16443180D01*
X48927537Y16553494D01*
X48848185Y16650185D01*
X48751494Y16729537D01*
X48641180Y16788502D01*
X48521482Y16824812D01*
X48397000Y16837072D01*
X47597000Y16837072D01*
X47472518Y16824812D01*
X47352820Y16788502D01*
X47242506Y16729537D01*
X47145815Y16650185D01*
X47066463Y16553494D01*
X47042921Y16509450D01*
X47026753Y16504546D01*
X46894724Y16433974D01*
X46894722Y16433973D01*
X46894723Y16433973D01*
X46807996Y16362799D01*
X46807992Y16362795D01*
X46778999Y16339001D01*
X46755205Y16310008D01*
X42932771Y12487572D01*
X42883230Y12487572D01*
X39535072Y15835729D01*
X39535072Y16199000D01*
X39522812Y16323482D01*
X39486502Y16443180D01*
X39427537Y16553494D01*
X39348185Y16650185D01*
X39251494Y16729537D01*
X39141180Y16788502D01*
X39021482Y16824812D01*
X38897000Y16837072D01*
X38097000Y16837072D01*
X37972518Y16824812D01*
X37852820Y16788502D01*
X37742506Y16729537D01*
X37645815Y16650185D01*
X37566463Y16553494D01*
X37542921Y16509450D01*
X37526753Y16504546D01*
X37394724Y16433974D01*
X37394722Y16433973D01*
X37394723Y16433973D01*
X37307996Y16362799D01*
X37307992Y16362795D01*
X37278999Y16339001D01*
X37255205Y16310008D01*
X33432771Y12487572D01*
X33383230Y12487572D01*
X30035072Y15835729D01*
X30035072Y16199000D01*
X30022812Y16323482D01*
X29986502Y16443180D01*
X29927537Y16553494D01*
X29848185Y16650185D01*
X29751494Y16729537D01*
X29641180Y16788502D01*
X29521482Y16824812D01*
X29397000Y16837072D01*
X28998374Y16837072D01*
X28841258Y16994188D01*
X28818238Y17022238D01*
X28706320Y17114087D01*
X28578633Y17182337D01*
X28440085Y17224365D01*
X28332105Y17235000D01*
X28296000Y17238556D01*
X28259895Y17235000D01*
X22036096Y17235000D01*
X21999999Y17238555D01*
X21963902Y17235000D01*
X17536096Y17235000D01*
X17499999Y17238555D01*
X17463902Y17235000D01*
X13536105Y17235000D01*
X13500000Y17238556D01*
X13463895Y17235000D01*
X13355915Y17224365D01*
X13217367Y17182337D01*
X13089680Y17114087D01*
X12977762Y17022238D01*
X12954746Y16994193D01*
X12275808Y16315254D01*
X12247763Y16292238D01*
X12155914Y16180320D01*
X12126834Y16125915D01*
X12087664Y16052633D01*
X12045635Y15914085D01*
X12031444Y15770000D01*
X12035001Y15733885D01*
X12035001Y15524446D01*
X9535072Y18024374D01*
X9535072Y18699000D01*
X9522812Y18823482D01*
X9486502Y18943180D01*
X9427537Y19053494D01*
X9348185Y19150185D01*
X9251494Y19229537D01*
X9141180Y19288502D01*
X9021482Y19324812D01*
X8897000Y19337072D01*
X8097000Y19337072D01*
X7972518Y19324812D01*
X7852820Y19288502D01*
X7742506Y19229537D01*
X7645815Y19150185D01*
X7566463Y19053494D01*
X7507498Y18943180D01*
X7471188Y18823482D01*
X7458928Y18699000D01*
X7458928Y17899000D01*
X7471188Y17774518D01*
X7507498Y17654820D01*
X7566463Y17544506D01*
X7605988Y17496344D01*
X7572463Y17455494D01*
X7513498Y17345180D01*
X7477188Y17225482D01*
X7464928Y17101000D01*
X7464928Y16301000D01*
X7477188Y16176518D01*
X7513498Y16056820D01*
X7535001Y16016592D01*
X7535000Y14917183D01*
X7465506Y14880037D01*
X7368815Y14800685D01*
X7289463Y14703994D01*
X7230498Y14593680D01*
X7194188Y14473982D01*
X7181928Y14349500D01*
X7181928Y13337518D01*
X6818072Y13701374D01*
X6818072Y14349500D01*
X6805812Y14473982D01*
X6769502Y14593680D01*
X6710537Y14703994D01*
X6631185Y14800685D01*
X6534494Y14880037D01*
X6424180Y14939002D01*
X6304482Y14975312D01*
X6180000Y14987572D01*
X5280000Y14987572D01*
X5155518Y14975312D01*
X5035820Y14939002D01*
X4925506Y14880037D01*
X4828815Y14800685D01*
X4749463Y14703994D01*
X4690498Y14593680D01*
X4654188Y14473982D01*
X4641928Y14349500D01*
X4641928Y13150500D01*
X4654188Y13026018D01*
X4690498Y12906320D01*
X4749463Y12796006D01*
X4828815Y12699315D01*
X4925506Y12619963D01*
X5035820Y12560998D01*
X5155518Y12524688D01*
X5280000Y12512428D01*
X5928126Y12512428D01*
X8684746Y9755807D01*
X8707762Y9727762D01*
X8819680Y9635913D01*
X8947367Y9567663D01*
X9085915Y9525635D01*
X9193895Y9515000D01*
X9193904Y9515000D01*
X9229999Y9511445D01*
X9266094Y9515000D01*
X17765000Y9515000D01*
X17765000Y9398061D01*
X17804774Y9198102D01*
X17882795Y9009744D01*
X17996063Y8840226D01*
X18140226Y8696063D01*
X18309744Y8582795D01*
X18498102Y8504774D01*
X18651835Y8474195D01*
X18535820Y8439002D01*
X18425506Y8380037D01*
X18328815Y8300685D01*
X18250000Y8204648D01*
X18171185Y8300685D01*
X18074494Y8380037D01*
X17964180Y8439002D01*
X17844482Y8475312D01*
X17720000Y8487572D01*
X16820000Y8487572D01*
X16695518Y8475312D01*
X16575820Y8439002D01*
X16465506Y8380037D01*
X16368815Y8300685D01*
X16289463Y8203994D01*
X16230498Y8093680D01*
X16194188Y7973982D01*
X16181928Y7849500D01*
X16181928Y6650500D01*
X16194188Y6526018D01*
X16230498Y6406320D01*
X16289463Y6296006D01*
X16368815Y6199315D01*
X16399132Y6174435D01*
X16302795Y6030256D01*
X16224774Y5841898D01*
X16185000Y5641939D01*
X16185000Y5438061D01*
X16224774Y5238102D01*
X16302795Y5049744D01*
X16416063Y4880226D01*
X16560226Y4736063D01*
X16729744Y4622795D01*
X16918102Y4544774D01*
X17118061Y4505000D01*
X17321939Y4505000D01*
X17521898Y4544774D01*
X17710256Y4622795D01*
X17879774Y4736063D01*
X18023937Y4880226D01*
X18137205Y5049744D01*
X18215226Y5238102D01*
X18255000Y5438061D01*
X18255000Y5641939D01*
X18215226Y5841898D01*
X18137205Y6030256D01*
X18076284Y6121432D01*
X18171185Y6199315D01*
X18250000Y6295352D01*
X18328815Y6199315D01*
X18425506Y6119963D01*
X18495000Y6082817D01*
X18495001Y-1105000D01*
X18378061Y-1105000D01*
X18178102Y-1144774D01*
X17989744Y-1222795D01*
X17911613Y-1275000D01*
X15465000Y-1275000D01*
X15465000Y6082817D01*
X15534494Y6119963D01*
X15631185Y6199315D01*
X15710537Y6296006D01*
X15769502Y6406320D01*
X15805812Y6526018D01*
X15818072Y6650500D01*
X15818072Y7849500D01*
X15805812Y7973982D01*
X15769502Y8093680D01*
X15710537Y8203994D01*
X15631185Y8300685D01*
X15534494Y8380037D01*
X15424180Y8439002D01*
X15304482Y8475312D01*
X15180000Y8487572D01*
X14280000Y8487572D01*
X14155518Y8475312D01*
X14035820Y8439002D01*
X13925506Y8380037D01*
X13828815Y8300685D01*
X13750000Y8204648D01*
X13671185Y8300685D01*
X13574494Y8380037D01*
X13464180Y8439002D01*
X13344482Y8475312D01*
X13220000Y8487572D01*
X12320000Y8487572D01*
X12195518Y8475312D01*
X12075820Y8439002D01*
X11965506Y8380037D01*
X11868815Y8300685D01*
X11789463Y8203994D01*
X11730498Y8093680D01*
X11694188Y7973982D01*
X11681928Y7849500D01*
X11681928Y6650500D01*
X11694188Y6526018D01*
X11730498Y6406320D01*
X11789463Y6296006D01*
X11868815Y6199315D01*
X11965506Y6119963D01*
X12035000Y6082817D01*
X12035001Y2168712D01*
X11926063Y2059774D01*
X11812795Y1890256D01*
X11734774Y1701898D01*
X11695000Y1501939D01*
X11695000Y1298061D01*
X11734774Y1098102D01*
X11807756Y921908D01*
X11741939Y935000D01*
X11540889Y935000D01*
X11444085Y964365D01*
X11336105Y975000D01*
X11300000Y978556D01*
X11263895Y975000D01*
X10965000Y975000D01*
X10965000Y6082817D01*
X11034494Y6119963D01*
X11131185Y6199315D01*
X11210537Y6296006D01*
X11269502Y6406320D01*
X11305812Y6526018D01*
X11318072Y6650500D01*
X11318072Y7849500D01*
X11305812Y7973982D01*
X11269502Y8093680D01*
X11210537Y8203994D01*
X11131185Y8300685D01*
X11034494Y8380037D01*
X10924180Y8439002D01*
X10804482Y8475312D01*
X10680000Y8487572D01*
X9780000Y8487572D01*
X9655518Y8475312D01*
X9535820Y8439002D01*
X9425506Y8380037D01*
X9328815Y8300685D01*
X9250000Y8204648D01*
X9171185Y8300685D01*
X9074494Y8380037D01*
X8964180Y8439002D01*
X8844482Y8475312D01*
X8720000Y8487572D01*
X7820000Y8487572D01*
X7695518Y8475312D01*
X7575820Y8439002D01*
X7465506Y8380037D01*
X7368815Y8300685D01*
X7289463Y8203994D01*
X7230498Y8093680D01*
X7194188Y7973982D01*
X7181928Y7849500D01*
X7181928Y6650500D01*
X7194188Y6526018D01*
X7230498Y6406320D01*
X7289463Y6296006D01*
X7368815Y6199315D01*
X7465506Y6119963D01*
X7535000Y6082817D01*
X7535001Y3468712D01*
X7496063Y3429774D01*
X7382795Y3260256D01*
X7304774Y3071898D01*
X7265000Y2871939D01*
X7265000Y2668061D01*
X7304774Y2468102D01*
X7382795Y2279744D01*
X7496063Y2110226D01*
X7640226Y1966063D01*
X7809744Y1852795D01*
X7998102Y1774774D01*
X8198061Y1735000D01*
X8401939Y1735000D01*
X8601898Y1774774D01*
X8790256Y1852795D01*
X8959774Y1966063D01*
X9103937Y2110226D01*
X9217205Y2279744D01*
X9295226Y2468102D01*
X9335000Y2668061D01*
X9335000Y2871939D01*
X9295226Y3071898D01*
X9217205Y3260256D01*
X9103937Y3429774D01*
X9005000Y3528711D01*
X9005000Y6082817D01*
X9074494Y6119963D01*
X9171185Y6199315D01*
X9250000Y6295352D01*
X9328815Y6199315D01*
X9425506Y6119963D01*
X9495000Y6082817D01*
X9495001Y276115D01*
X9491444Y240000D01*
X9495000Y203895D01*
X9495001Y-6082817D01*
X9425506Y-6119963D01*
X9328815Y-6199315D01*
X9250000Y-6295352D01*
X9171185Y-6199315D01*
X9074494Y-6119963D01*
X9005000Y-6082817D01*
X9005000Y-5806105D01*
X9008556Y-5770000D01*
X9006243Y-5746513D01*
X9035000Y-5601939D01*
X9035000Y-5398061D01*
X8995226Y-5198102D01*
X8917205Y-5009744D01*
X8803937Y-4840226D01*
X8659774Y-4696063D01*
X8490256Y-4582795D01*
X8301898Y-4504774D01*
X8101939Y-4465000D01*
X7898061Y-4465000D01*
X7698102Y-4504774D01*
X7509744Y-4582795D01*
X7340226Y-4696063D01*
X7196063Y-4840226D01*
X7082795Y-5009744D01*
X7004774Y-5198102D01*
X6965000Y-5398061D01*
X6965000Y-5601939D01*
X7004774Y-5801898D01*
X7082795Y-5990256D01*
X7196063Y-6159774D01*
X7308770Y-6272481D01*
X7289463Y-6296006D01*
X7230498Y-6406320D01*
X7194188Y-6526018D01*
X7181928Y-6650500D01*
X7181928Y-7849500D01*
X7194188Y-7973982D01*
X7230498Y-8093680D01*
X7289463Y-8203994D01*
X7368815Y-8300685D01*
X7465506Y-8380037D01*
X7575820Y-8439002D01*
X7695518Y-8475312D01*
X7820000Y-8487572D01*
X8720000Y-8487572D01*
X8844482Y-8475312D01*
X8964180Y-8439002D01*
X9074494Y-8380037D01*
X9171185Y-8300685D01*
X9250000Y-8204648D01*
X9328815Y-8300685D01*
X9425506Y-8380037D01*
X9535820Y-8439002D01*
X9655518Y-8475312D01*
X9780000Y-8487572D01*
X10680000Y-8487572D01*
X10804482Y-8475312D01*
X10924180Y-8439002D01*
X11034494Y-8380037D01*
X11131185Y-8300685D01*
X11210537Y-8203994D01*
X11269502Y-8093680D01*
X11305812Y-7973982D01*
X11318072Y-7849500D01*
X11318072Y-6650500D01*
X11305812Y-6526018D01*
X11269502Y-6406320D01*
X11210537Y-6296006D01*
X11131185Y-6199315D01*
X11034494Y-6119963D01*
X10965000Y-6082817D01*
X10965000Y-888711D01*
X10980226Y-903937D01*
X11149744Y-1017205D01*
X11338102Y-1095226D01*
X11538061Y-1135000D01*
X11635554Y-1135000D01*
X13194999Y-2694446D01*
X13194999Y-3234049D01*
X13051898Y-3174774D01*
X12851939Y-3135000D01*
X12648061Y-3135000D01*
X12448102Y-3174774D01*
X12259744Y-3252795D01*
X12090226Y-3366063D01*
X11946063Y-3510226D01*
X11832795Y-3679744D01*
X11754774Y-3868102D01*
X11715000Y-4068061D01*
X11715000Y-4271939D01*
X11754774Y-4471898D01*
X11832795Y-4660256D01*
X11946063Y-4829774D01*
X12035001Y-4918712D01*
X12035000Y-6082817D01*
X11965506Y-6119963D01*
X11868815Y-6199315D01*
X11789463Y-6296006D01*
X11730498Y-6406320D01*
X11694188Y-6526018D01*
X11681928Y-6650500D01*
X11681928Y-7849500D01*
X11694188Y-7973982D01*
X11730498Y-8093680D01*
X11789463Y-8203994D01*
X11868815Y-8300685D01*
X11965506Y-8380037D01*
X12075820Y-8439002D01*
X12195518Y-8475312D01*
X12320000Y-8487572D01*
X13220000Y-8487572D01*
X13284585Y-8481211D01*
X13315913Y-8539821D01*
X13407762Y-8651739D01*
X13435807Y-8674755D01*
X13454740Y-8693688D01*
X13477761Y-8721739D01*
X13589679Y-8813588D01*
X13717366Y-8881838D01*
X13855914Y-8923866D01*
X13963894Y-8934501D01*
X13999999Y-8938057D01*
X14036104Y-8934501D01*
X18395055Y-8934501D01*
X21972981Y-12512428D01*
X21320000Y-12512428D01*
X21195518Y-12524688D01*
X21075820Y-12560998D01*
X20965506Y-12619963D01*
X20868815Y-12699315D01*
X20789463Y-12796006D01*
X20730498Y-12906320D01*
X20694188Y-13026018D01*
X20681928Y-13150500D01*
X20681928Y-14349500D01*
X20694188Y-14473982D01*
X20730498Y-14593680D01*
X20789463Y-14703994D01*
X20868815Y-14800685D01*
X20924907Y-14846719D01*
X20882795Y-14909744D01*
X20804774Y-15098102D01*
X20765000Y-15298061D01*
X20765000Y-15501939D01*
X20804774Y-15701898D01*
X20882795Y-15890256D01*
X20996063Y-16059774D01*
X21140226Y-16203937D01*
X21309744Y-16317205D01*
X21498102Y-16395226D01*
X21698061Y-16435000D01*
X21901939Y-16435000D01*
X22101898Y-16395226D01*
X22290256Y-16317205D01*
X22459774Y-16203937D01*
X22603937Y-16059774D01*
X22717205Y-15890256D01*
X22795226Y-15701898D01*
X22835000Y-15501939D01*
X22835000Y-15298061D01*
X22795226Y-15098102D01*
X22717205Y-14909744D01*
X22653844Y-14814917D01*
X22671185Y-14800685D01*
X22750537Y-14703994D01*
X22809502Y-14593680D01*
X22845812Y-14473982D01*
X22858072Y-14349500D01*
X22858072Y-13821783D01*
X22940226Y-13903937D01*
X23109744Y-14017205D01*
X23298102Y-14095226D01*
X23498061Y-14135000D01*
X23701939Y-14135000D01*
X23901898Y-14095226D01*
X24090256Y-14017205D01*
X24259774Y-13903937D01*
X24403937Y-13759774D01*
X24517205Y-13590256D01*
X24595226Y-13401898D01*
X24635000Y-13201939D01*
X24635000Y-12998061D01*
X24595226Y-12798102D01*
X24517205Y-12609744D01*
X24403937Y-12440226D01*
X24259774Y-12296063D01*
X24090256Y-12182795D01*
X23901898Y-12104774D01*
X23701939Y-12065000D01*
X23604447Y-12065000D01*
X19959545Y-8420099D01*
X20034494Y-8380037D01*
X20131185Y-8300685D01*
X20210537Y-8203994D01*
X20269502Y-8093680D01*
X20305812Y-7973982D01*
X20318072Y-7849500D01*
X20318072Y-6650500D01*
X20305812Y-6526018D01*
X20269502Y-6406320D01*
X20210537Y-6296006D01*
X20131185Y-6199315D01*
X20034494Y-6119963D01*
X19965000Y-6082817D01*
X19965000Y-4545000D01*
X20071939Y-4545000D01*
X20271898Y-4505226D01*
X20460256Y-4427205D01*
X20629774Y-4313937D01*
X20773937Y-4169774D01*
X20887205Y-4000256D01*
X20965226Y-3811898D01*
X21005000Y-3611939D01*
X21005000Y-3408061D01*
X20965226Y-3208102D01*
X20887205Y-3019744D01*
X20773937Y-2850226D01*
X20629774Y-2706063D01*
X20460256Y-2592795D01*
X20271898Y-2514774D01*
X20071939Y-2475000D01*
X19965000Y-2475000D01*
X19965000Y6082817D01*
X20034494Y6119963D01*
X20131185Y6199315D01*
X20210537Y6296006D01*
X20269502Y6406320D01*
X20305812Y6526018D01*
X20318072Y6650500D01*
X20318072Y7849500D01*
X20305812Y7973982D01*
X20269502Y8093680D01*
X20210537Y8203994D01*
X20131185Y8300685D01*
X20034494Y8380037D01*
X19924180Y8439002D01*
X19804482Y8475312D01*
X19680000Y8487572D01*
X19015417Y8487572D01*
X19101898Y8504774D01*
X19290256Y8582795D01*
X19459774Y8696063D01*
X19603937Y8840226D01*
X19717205Y9009744D01*
X19740089Y9064990D01*
X23065000Y9064990D01*
X23065000Y9034989D01*
X22936116Y9034989D01*
X22900011Y9038545D01*
X22755926Y9024354D01*
X22617377Y8982326D01*
X22565781Y8954747D01*
X22489691Y8914076D01*
X22377773Y8822227D01*
X22354752Y8794176D01*
X22075809Y8515233D01*
X22047763Y8492216D01*
X22043952Y8487572D01*
X21320000Y8487572D01*
X21195518Y8475312D01*
X21075820Y8439002D01*
X20965506Y8380037D01*
X20868815Y8300685D01*
X20789463Y8203994D01*
X20730498Y8093680D01*
X20694188Y7973982D01*
X20681928Y7849500D01*
X20681928Y6650500D01*
X20694188Y6526018D01*
X20730498Y6406320D01*
X20789463Y6296006D01*
X20868815Y6199315D01*
X20965506Y6119963D01*
X21035000Y6082817D01*
X21035001Y4828712D01*
X21006063Y4799774D01*
X20892795Y4630256D01*
X20814774Y4441898D01*
X20775000Y4241939D01*
X20775000Y4038061D01*
X20814774Y3838102D01*
X20892795Y3649744D01*
X21006063Y3480226D01*
X21150226Y3336063D01*
X21319744Y3222795D01*
X21508102Y3144774D01*
X21708061Y3105000D01*
X21835001Y3105000D01*
X21835002Y-355000D01*
X21668061Y-355000D01*
X21468102Y-394774D01*
X21279744Y-472795D01*
X21110226Y-586063D01*
X20966063Y-730226D01*
X20852795Y-899744D01*
X20774774Y-1088102D01*
X20735000Y-1288061D01*
X20735000Y-1491939D01*
X20774774Y-1691898D01*
X20852795Y-1880256D01*
X20966063Y-2049774D01*
X21035001Y-2118712D01*
X21035000Y-6082817D01*
X20965506Y-6119963D01*
X20868815Y-6199315D01*
X20789463Y-6296006D01*
X20730498Y-6406320D01*
X20694188Y-6526018D01*
X20681928Y-6650500D01*
X20681928Y-7849500D01*
X20694188Y-7973982D01*
X20730498Y-8093680D01*
X20789463Y-8203994D01*
X20868815Y-8300685D01*
X20965506Y-8380037D01*
X21075820Y-8439002D01*
X21195518Y-8475312D01*
X21320000Y-8487572D01*
X22043934Y-8487572D01*
X22047764Y-8492239D01*
X22075809Y-8515255D01*
X24355245Y-10794692D01*
X24378261Y-10822737D01*
X24490179Y-10914586D01*
X24617866Y-10982836D01*
X24723966Y-11015021D01*
X24756414Y-11024864D01*
X24900499Y-11039055D01*
X24936604Y-11035499D01*
X25141928Y-11035499D01*
X25141928Y-11849500D01*
X25154188Y-11973982D01*
X25190498Y-12093680D01*
X25249463Y-12203994D01*
X25328815Y-12300685D01*
X25425506Y-12380037D01*
X25470000Y-12403820D01*
X25470001Y-13692668D01*
X25466324Y-13730000D01*
X25470001Y-13767333D01*
X25480998Y-13878986D01*
X25488567Y-13903937D01*
X25504404Y-13956149D01*
X21896554Y-17564000D01*
X19965000Y-17564000D01*
X19965000Y-14917183D01*
X20034494Y-14880037D01*
X20131185Y-14800685D01*
X20210537Y-14703994D01*
X20269502Y-14593680D01*
X20305812Y-14473982D01*
X20318072Y-14349500D01*
X20318072Y-13150500D01*
X20305812Y-13026018D01*
X20269502Y-12906320D01*
X20210537Y-12796006D01*
X20131185Y-12699315D01*
X20034494Y-12619963D01*
X19924180Y-12560998D01*
X19804482Y-12524688D01*
X19680000Y-12512428D01*
X18780000Y-12512428D01*
X18655518Y-12524688D01*
X18535820Y-12560998D01*
X18425506Y-12619963D01*
X18328815Y-12699315D01*
X18250000Y-12795352D01*
X18171185Y-12699315D01*
X18074494Y-12619963D01*
X17964180Y-12560998D01*
X17844482Y-12524688D01*
X17720000Y-12512428D01*
X16820000Y-12512428D01*
X16695518Y-12524688D01*
X16575820Y-12560998D01*
X16465506Y-12619963D01*
X16368815Y-12699315D01*
X16289463Y-12796006D01*
X16230498Y-12906320D01*
X16194188Y-13026018D01*
X16181928Y-13150500D01*
X16181928Y-14349500D01*
X16194188Y-14473982D01*
X16230498Y-14593680D01*
X16289463Y-14703994D01*
X16361567Y-14791853D01*
X16282795Y-14909744D01*
X16204774Y-15098102D01*
X16165000Y-15298061D01*
X16165000Y-15501939D01*
X16204774Y-15701898D01*
X16282795Y-15890256D01*
X16396063Y-16059774D01*
X16540226Y-16203937D01*
X16709744Y-16317205D01*
X16898102Y-16395226D01*
X17098061Y-16435000D01*
X17301939Y-16435000D01*
X17501898Y-16395226D01*
X17690256Y-16317205D01*
X17859774Y-16203937D01*
X18003937Y-16059774D01*
X18117205Y-15890256D01*
X18195226Y-15701898D01*
X18235000Y-15501939D01*
X18235000Y-15298061D01*
X18195226Y-15098102D01*
X18117205Y-14909744D01*
X18089259Y-14867920D01*
X18171185Y-14800685D01*
X18250000Y-14704648D01*
X18328815Y-14800685D01*
X18425506Y-14880037D01*
X18495000Y-14917183D01*
X18495001Y-17564000D01*
X15465000Y-17564000D01*
X15465000Y-14917183D01*
X15534494Y-14880037D01*
X15631185Y-14800685D01*
X15710537Y-14703994D01*
X15769502Y-14593680D01*
X15805812Y-14473982D01*
X15818072Y-14349500D01*
X15818072Y-13150500D01*
X15805812Y-13026018D01*
X15769502Y-12906320D01*
X15710537Y-12796006D01*
X15631185Y-12699315D01*
X15534494Y-12619963D01*
X15424180Y-12560998D01*
X15304482Y-12524688D01*
X15180000Y-12512428D01*
X14280000Y-12512428D01*
X14155518Y-12524688D01*
X14035820Y-12560998D01*
X13925506Y-12619963D01*
X13828815Y-12699315D01*
X13750000Y-12795352D01*
X13671185Y-12699315D01*
X13574494Y-12619963D01*
X13464180Y-12560998D01*
X13344482Y-12524688D01*
X13220000Y-12512428D01*
X12320000Y-12512428D01*
X12195518Y-12524688D01*
X12075820Y-12560998D01*
X11965506Y-12619963D01*
X11868815Y-12699315D01*
X11789463Y-12796006D01*
X11730498Y-12906320D01*
X11694188Y-13026018D01*
X11681928Y-13150500D01*
X11681928Y-14349500D01*
X11694188Y-14473982D01*
X11730498Y-14593680D01*
X11789463Y-14703994D01*
X11868815Y-14800685D01*
X11965001Y-14879622D01*
X11965000Y-15271289D01*
X11896063Y-15340226D01*
X11782795Y-15509744D01*
X11704774Y-15698102D01*
X11665000Y-15898061D01*
X11665000Y-16101939D01*
X11704774Y-16301898D01*
X11782795Y-16490256D01*
X11896063Y-16659774D01*
X12040226Y-16803937D01*
X12209744Y-16917205D01*
X12398102Y-16995226D01*
X12598061Y-17035000D01*
X12801939Y-17035000D01*
X13001898Y-16995226D01*
X13190256Y-16917205D01*
X13359774Y-16803937D01*
X13503937Y-16659774D01*
X13617205Y-16490256D01*
X13695226Y-16301898D01*
X13735000Y-16101939D01*
X13735000Y-15898061D01*
X13695226Y-15698102D01*
X13617205Y-15509744D01*
X13503937Y-15340226D01*
X13435000Y-15271289D01*
X13435000Y-14947854D01*
X13464180Y-14939002D01*
X13574494Y-14880037D01*
X13671185Y-14800685D01*
X13750000Y-14704648D01*
X13828815Y-14800685D01*
X13925506Y-14880037D01*
X13995000Y-14917183D01*
X13995001Y-17564000D01*
X10965000Y-17564000D01*
X10965000Y-14917183D01*
X11034494Y-14880037D01*
X11131185Y-14800685D01*
X11210537Y-14703994D01*
X11269502Y-14593680D01*
X11305812Y-14473982D01*
X11318072Y-14349500D01*
X11318072Y-13150500D01*
X11305812Y-13026018D01*
X11269502Y-12906320D01*
X11210537Y-12796006D01*
X11131185Y-12699315D01*
X11034494Y-12619963D01*
X10924180Y-12560998D01*
X10804482Y-12524688D01*
X10680000Y-12512428D01*
X9780000Y-12512428D01*
X9655518Y-12524688D01*
X9535820Y-12560998D01*
X9425506Y-12619963D01*
X9328815Y-12699315D01*
X9250000Y-12795352D01*
X9171185Y-12699315D01*
X9074494Y-12619963D01*
X8964180Y-12560998D01*
X8844482Y-12524688D01*
X8720000Y-12512428D01*
X7820000Y-12512428D01*
X7695518Y-12524688D01*
X7575820Y-12560998D01*
X7465506Y-12619963D01*
X7368815Y-12699315D01*
X7289463Y-12796006D01*
X7230498Y-12906320D01*
X7194188Y-13026018D01*
X7181928Y-13150500D01*
X7181928Y-14349500D01*
X7194188Y-14473982D01*
X7230498Y-14593680D01*
X7289463Y-14703994D01*
X7368815Y-14800685D01*
X7465000Y-14879622D01*
X7465000Y-15171289D01*
X7396063Y-15240226D01*
X7282795Y-15409744D01*
X7204774Y-15598102D01*
X7165000Y-15798061D01*
X7165000Y-16001939D01*
X7204774Y-16201898D01*
X7282795Y-16390256D01*
X7396063Y-16559774D01*
X7540226Y-16703937D01*
X7709744Y-16817205D01*
X7898102Y-16895226D01*
X8098061Y-16935000D01*
X8301939Y-16935000D01*
X8501898Y-16895226D01*
X8690256Y-16817205D01*
X8859774Y-16703937D01*
X9003937Y-16559774D01*
X9117205Y-16390256D01*
X9195226Y-16201898D01*
X9235000Y-16001939D01*
X9235000Y-15798061D01*
X9195226Y-15598102D01*
X9117205Y-15409744D01*
X9003937Y-15240226D01*
X8935000Y-15171289D01*
X8935000Y-14947854D01*
X8964180Y-14939002D01*
X9074494Y-14880037D01*
X9171185Y-14800685D01*
X9250000Y-14704648D01*
X9328815Y-14800685D01*
X9425506Y-14880037D01*
X9495000Y-14917183D01*
X9495001Y-17564000D01*
X6443957Y-17564000D01*
X6433537Y-17544506D01*
X6394012Y-17496344D01*
X6427537Y-17455494D01*
X6486502Y-17345180D01*
X6522812Y-17225482D01*
X6535072Y-17101000D01*
X6535072Y-16301000D01*
X6522812Y-16176518D01*
X6486502Y-16056820D01*
X6465000Y-16016593D01*
X6465000Y-14917183D01*
X6534494Y-14880037D01*
X6631185Y-14800685D01*
X6710537Y-14703994D01*
X6769502Y-14593680D01*
X6805812Y-14473982D01*
X6818072Y-14349500D01*
X6818072Y-13150500D01*
X6805812Y-13026018D01*
X6769502Y-12906320D01*
X6710537Y-12796006D01*
X6631185Y-12699315D01*
X6534494Y-12619963D01*
X6424180Y-12560998D01*
X6304482Y-12524688D01*
X6180000Y-12512428D01*
X5280000Y-12512428D01*
X5155518Y-12524688D01*
X5035820Y-12560998D01*
X4925506Y-12619963D01*
X4828815Y-12699315D01*
X4749463Y-12796006D01*
X4690498Y-12906320D01*
X4654188Y-13026018D01*
X4641928Y-13150500D01*
X4641928Y-14349500D01*
X4654188Y-14473982D01*
X4690498Y-14593680D01*
X4749463Y-14703994D01*
X4828815Y-14800685D01*
X4925506Y-14880037D01*
X4995000Y-14917183D01*
X4995001Y-15672974D01*
X4972518Y-15675188D01*
X4852820Y-15711498D01*
X4742506Y-15770463D01*
X4645815Y-15849815D01*
X4566463Y-15946506D01*
X4507498Y-16056820D01*
X4471188Y-16176518D01*
X4458928Y-16301000D01*
X4458928Y-17101000D01*
X4471188Y-17225482D01*
X4507498Y-17345180D01*
X4566463Y-17455494D01*
X4605988Y-17503656D01*
X4572463Y-17544506D01*
X4513498Y-17654820D01*
X4477188Y-17774518D01*
X4464928Y-17899000D01*
X4464928Y-18699000D01*
X4477188Y-18823482D01*
X4513498Y-18943180D01*
X4572463Y-19053494D01*
X4651815Y-19150185D01*
X4748506Y-19229537D01*
X4858820Y-19288502D01*
X4978518Y-19324812D01*
X5103000Y-19337072D01*
X5903000Y-19337072D01*
X6027482Y-19324812D01*
X6147180Y-19288502D01*
X6257494Y-19229537D01*
X6354185Y-19150185D01*
X6433537Y-19053494D01*
X6443957Y-19034000D01*
X10262895Y-19034000D01*
X10299000Y-19037556D01*
X10335105Y-19034000D01*
X14664895Y-19034000D01*
X14701000Y-19037556D01*
X14737105Y-19034000D01*
X19164895Y-19034000D01*
X19201000Y-19037556D01*
X19237105Y-19034000D01*
X22164895Y-19034000D01*
X22201000Y-19037556D01*
X22237105Y-19034000D01*
X22345085Y-19023365D01*
X22483633Y-18981337D01*
X22611320Y-18913087D01*
X22723238Y-18821238D01*
X22746259Y-18793187D01*
X24652791Y-16886655D01*
X26300000Y-16886655D01*
X26300000Y-17233345D01*
X26367636Y-17573373D01*
X26500308Y-17893673D01*
X26692919Y-18181935D01*
X26938065Y-18427081D01*
X27226327Y-18619692D01*
X27546627Y-18752364D01*
X27886655Y-18820000D01*
X28233345Y-18820000D01*
X28573373Y-18752364D01*
X28893673Y-18619692D01*
X29181935Y-18427081D01*
X29427081Y-18181935D01*
X29619692Y-17893673D01*
X29752364Y-17573373D01*
X29820000Y-17233345D01*
X29820000Y-16886655D01*
X31380000Y-16886655D01*
X31380000Y-17233345D01*
X31447636Y-17573373D01*
X31580308Y-17893673D01*
X31772919Y-18181935D01*
X32018065Y-18427081D01*
X32306327Y-18619692D01*
X32626627Y-18752364D01*
X32966655Y-18820000D01*
X33313345Y-18820000D01*
X33653373Y-18752364D01*
X33973673Y-18619692D01*
X34261935Y-18427081D01*
X34507081Y-18181935D01*
X34699692Y-17893673D01*
X34832364Y-17573373D01*
X34900000Y-17233345D01*
X34900000Y-16886655D01*
X34832364Y-16546627D01*
X34699692Y-16226327D01*
X34507081Y-15938065D01*
X34261935Y-15692919D01*
X33973673Y-15500308D01*
X33653373Y-15367636D01*
X33313345Y-15300000D01*
X32966655Y-15300000D01*
X32626627Y-15367636D01*
X32306327Y-15500308D01*
X32018065Y-15692919D01*
X31772919Y-15938065D01*
X31580308Y-16226327D01*
X31447636Y-16546627D01*
X31380000Y-16886655D01*
X29820000Y-16886655D01*
X29752364Y-16546627D01*
X29619692Y-16226327D01*
X29427081Y-15938065D01*
X29181935Y-15692919D01*
X28893673Y-15500308D01*
X28573373Y-15367636D01*
X28233345Y-15300000D01*
X27886655Y-15300000D01*
X27546627Y-15367636D01*
X27226327Y-15500308D01*
X26938065Y-15692919D01*
X26692919Y-15938065D01*
X26500308Y-16226327D01*
X26367636Y-16546627D01*
X26300000Y-16886655D01*
X24652791Y-16886655D01*
X26779447Y-14760000D01*
X30462678Y-14760000D01*
X30500000Y-14763676D01*
X30537322Y-14760000D01*
X35462678Y-14760000D01*
X35500000Y-14763676D01*
X35537322Y-14760000D01*
X39962678Y-14760000D01*
X40000000Y-14763676D01*
X40037322Y-14760000D01*
X44962678Y-14760000D01*
X45000000Y-14763676D01*
X45037322Y-14760000D01*
X49462678Y-14760000D01*
X49500000Y-14763676D01*
X49537322Y-14760000D01*
X54462678Y-14760000D01*
X54500000Y-14763676D01*
X54537322Y-14760000D01*
X58962678Y-14760000D01*
X59000000Y-14763676D01*
X59037322Y-14760000D01*
X63962678Y-14760000D01*
X64000000Y-14763676D01*
X64037322Y-14760000D01*
X67765000Y-14760000D01*
X67765001Y-17663885D01*
X67761444Y-17700000D01*
X67775635Y-17844085D01*
X67804731Y-17940000D01*
X67817664Y-17982633D01*
X67885914Y-18110320D01*
X67977763Y-18222238D01*
X68005808Y-18245254D01*
X69454746Y-19694193D01*
X69477762Y-19722238D01*
X69589680Y-19814087D01*
X69717367Y-19882337D01*
X69855915Y-19924365D01*
X69963895Y-19935000D01*
X69963904Y-19935000D01*
X69999999Y-19938555D01*
X70036094Y-19935000D01*
X70222275Y-19935000D01*
X70278502Y-20040192D01*
X70332958Y-20121691D01*
X70412310Y-20218382D01*
X70481618Y-20287690D01*
X70578309Y-20367042D01*
X70659808Y-20421498D01*
X70770125Y-20480464D01*
X70860681Y-20517973D01*
X70980377Y-20554282D01*
X71076510Y-20573404D01*
X71145789Y-20580227D01*
X73259754Y-22694193D01*
X73282770Y-22722238D01*
X73394688Y-22814087D01*
X73522375Y-22882337D01*
X73618894Y-22911616D01*
X73660922Y-22924365D01*
X73805008Y-22938556D01*
X73841113Y-22935000D01*
X74687889Y-22935000D01*
X74704528Y-22989851D01*
X74786595Y-23143387D01*
X74897038Y-23277962D01*
X75031613Y-23388405D01*
X75185149Y-23470472D01*
X75351745Y-23521008D01*
X75524999Y-23538072D01*
X76050001Y-23538072D01*
X76223255Y-23521008D01*
X76389851Y-23470472D01*
X76543387Y-23388405D01*
X76677962Y-23277962D01*
X76700000Y-23251109D01*
X76722038Y-23277962D01*
X76856613Y-23388405D01*
X77010149Y-23470472D01*
X77176745Y-23521008D01*
X77349999Y-23538072D01*
X77875001Y-23538072D01*
X78048255Y-23521008D01*
X78214851Y-23470472D01*
X78368387Y-23388405D01*
X78502962Y-23277962D01*
X78613405Y-23143387D01*
X78695472Y-22989851D01*
X78742445Y-22835000D01*
X78911928Y-22835000D01*
X78911928Y-22950000D01*
X78924188Y-23074482D01*
X78960498Y-23194180D01*
X79019463Y-23304494D01*
X79098815Y-23401185D01*
X79195506Y-23480537D01*
X79305820Y-23539502D01*
X79425518Y-23575812D01*
X79550000Y-23588072D01*
X81250000Y-23588072D01*
X81374482Y-23575812D01*
X81494180Y-23539502D01*
X81604494Y-23480537D01*
X81701185Y-23401185D01*
X81780537Y-23304494D01*
X81839502Y-23194180D01*
X81875812Y-23074482D01*
X81888072Y-22950000D01*
X81888072Y-21250000D01*
X81875812Y-21125518D01*
X81839502Y-21005820D01*
X81780537Y-20895506D01*
X81701185Y-20798815D01*
X81604494Y-20719463D01*
X81494180Y-20660498D01*
X81374482Y-20624188D01*
X81250000Y-20611928D01*
X79550000Y-20611928D01*
X79425518Y-20624188D01*
X79305820Y-20660498D01*
X79195506Y-20719463D01*
X79098815Y-20798815D01*
X79019463Y-20895506D01*
X78960498Y-21005820D01*
X78924188Y-21125518D01*
X78911928Y-21250000D01*
X78911928Y-21365000D01*
X78671339Y-21365000D01*
X78613405Y-21256613D01*
X78502962Y-21122038D01*
X78368387Y-21011595D01*
X78214851Y-20929528D01*
X78048255Y-20878992D01*
X77875001Y-20861928D01*
X77349999Y-20861928D01*
X77176745Y-20878992D01*
X77010149Y-20929528D01*
X76856613Y-21011595D01*
X76722038Y-21122038D01*
X76700000Y-21148891D01*
X76677962Y-21122038D01*
X76543387Y-21011595D01*
X76389851Y-20929528D01*
X76223255Y-20878992D01*
X76050001Y-20861928D01*
X75524999Y-20861928D01*
X75351745Y-20878992D01*
X75185149Y-20929528D01*
X75031613Y-21011595D01*
X74897038Y-21122038D01*
X74786595Y-21256613D01*
X74704528Y-21410149D01*
X74687889Y-21465000D01*
X74109455Y-21465000D01*
X73091812Y-20447358D01*
X73140192Y-20421498D01*
X73221691Y-20367042D01*
X73318382Y-20287690D01*
X73387690Y-20218382D01*
X73467042Y-20121691D01*
X73521498Y-20040192D01*
X73577725Y-19935000D01*
X79563895Y-19935000D01*
X79600000Y-19938556D01*
X79636105Y-19935000D01*
X79688141Y-19929875D01*
X79744085Y-19924365D01*
X79744088Y-19924364D01*
X79863727Y-19888072D01*
X81250000Y-19888072D01*
X81374482Y-19875812D01*
X81494180Y-19839502D01*
X81604494Y-19780537D01*
X81701185Y-19701185D01*
X81780537Y-19604494D01*
X81839502Y-19494180D01*
X81875812Y-19374482D01*
X81888072Y-19250000D01*
X81888072Y-19135000D01*
X83263895Y-19135000D01*
X83300000Y-19138556D01*
X83336105Y-19135000D01*
X83444085Y-19124365D01*
X83582633Y-19082337D01*
X83710320Y-19014087D01*
X83822238Y-18922238D01*
X83845259Y-18894187D01*
X87646928Y-15092519D01*
X87646928Y-15250001D01*
X87663992Y-15423255D01*
X87714528Y-15589851D01*
X87796595Y-15743387D01*
X87907038Y-15877962D01*
X88041613Y-15988405D01*
X88195149Y-16070472D01*
X88361745Y-16121008D01*
X88534999Y-16138072D01*
X89815000Y-16138072D01*
X89815000Y-24340000D01*
X11905802Y-24340000D01*
X11959774Y-24303937D01*
X12103937Y-24159774D01*
X12217205Y-23990256D01*
X12295226Y-23801898D01*
X12335000Y-23601939D01*
X12335000Y-23398061D01*
X12295226Y-23198102D01*
X12217205Y-23009744D01*
X12103937Y-22840226D01*
X11959774Y-22696063D01*
X11790256Y-22582795D01*
X11601898Y-22504774D01*
X11401939Y-22465000D01*
X11198061Y-22465000D01*
X10998102Y-22504774D01*
X10809744Y-22582795D01*
X10640226Y-22696063D01*
X10571289Y-22765000D01*
X-4895553Y-22765000D01*
X-5693898Y-21966655D01*
X26300000Y-21966655D01*
X26300000Y-22313345D01*
X26367636Y-22653373D01*
X26500308Y-22973673D01*
X26692919Y-23261935D01*
X26938065Y-23507081D01*
X27226327Y-23699692D01*
X27546627Y-23832364D01*
X27886655Y-23900000D01*
X28233345Y-23900000D01*
X28573373Y-23832364D01*
X28893673Y-23699692D01*
X29181935Y-23507081D01*
X29427081Y-23261935D01*
X29619692Y-22973673D01*
X29752364Y-22653373D01*
X29820000Y-22313345D01*
X29820000Y-21966655D01*
X31380000Y-21966655D01*
X31380000Y-22313345D01*
X31447636Y-22653373D01*
X31580308Y-22973673D01*
X31772919Y-23261935D01*
X32018065Y-23507081D01*
X32306327Y-23699692D01*
X32626627Y-23832364D01*
X32966655Y-23900000D01*
X33313345Y-23900000D01*
X33653373Y-23832364D01*
X33973673Y-23699692D01*
X34261935Y-23507081D01*
X34507081Y-23261935D01*
X34699692Y-22973673D01*
X34832364Y-22653373D01*
X34900000Y-22313345D01*
X34900000Y-21966655D01*
X34832364Y-21626627D01*
X34699692Y-21306327D01*
X34507081Y-21018065D01*
X34261935Y-20772919D01*
X33973673Y-20580308D01*
X33653373Y-20447636D01*
X33313345Y-20380000D01*
X32966655Y-20380000D01*
X32626627Y-20447636D01*
X32306327Y-20580308D01*
X32018065Y-20772919D01*
X31772919Y-21018065D01*
X31580308Y-21306327D01*
X31447636Y-21626627D01*
X31380000Y-21966655D01*
X29820000Y-21966655D01*
X29752364Y-21626627D01*
X29619692Y-21306327D01*
X29427081Y-21018065D01*
X29181935Y-20772919D01*
X28893673Y-20580308D01*
X28573373Y-20447636D01*
X28233345Y-20380000D01*
X27886655Y-20380000D01*
X27546627Y-20447636D01*
X27226327Y-20580308D01*
X26938065Y-20772919D01*
X26692919Y-21018065D01*
X26500308Y-21306327D01*
X26367636Y-21626627D01*
X26300000Y-21966655D01*
X-5693898Y-21966655D01*
X-7865000Y-19795554D01*
X-7865000Y-19436504D01*
X28940000Y-19436504D01*
X28940000Y-19763496D01*
X29003793Y-20084204D01*
X29128927Y-20386305D01*
X29310594Y-20658188D01*
X29541812Y-20889406D01*
X29813695Y-21071073D01*
X30115796Y-21196207D01*
X30436504Y-21260000D01*
X30763496Y-21260000D01*
X31084204Y-21196207D01*
X31386305Y-21071073D01*
X31658188Y-20889406D01*
X31889406Y-20658188D01*
X32071073Y-20386305D01*
X32196207Y-20084204D01*
X32260000Y-19763496D01*
X32260000Y-19436504D01*
X32196207Y-19115796D01*
X32071073Y-18813695D01*
X31889406Y-18541812D01*
X31658188Y-18310594D01*
X31386305Y-18128927D01*
X31084204Y-18003793D01*
X30763496Y-17940000D01*
X30436504Y-17940000D01*
X30115796Y-18003793D01*
X29813695Y-18128927D01*
X29541812Y-18310594D01*
X29310594Y-18541812D01*
X29128927Y-18813695D01*
X29003793Y-19115796D01*
X28940000Y-19436504D01*
X-7865000Y-19436504D01*
X-7865000Y7800000D01*
X-5438556Y7800000D01*
X-5435000Y7763895D01*
X-5434999Y-9663885D01*
X-5438556Y-9700000D01*
X-5424365Y-9844085D01*
X-5393530Y-9945732D01*
X-5382336Y-9982633D01*
X-5314086Y-10110320D01*
X-5222237Y-10222238D01*
X-5194192Y-10245254D01*
X-3135000Y-12304447D01*
X-3135000Y-12808771D01*
X-3014524Y-13414446D01*
X-2778201Y-13984979D01*
X-2435114Y-14498446D01*
X-1998446Y-14935114D01*
X-1484979Y-15278201D01*
X-914446Y-15514524D01*
X-308771Y-15635000D01*
X308771Y-15635000D01*
X914446Y-15514524D01*
X1484979Y-15278201D01*
X1998446Y-14935114D01*
X2435114Y-14498446D01*
X2778201Y-13984979D01*
X3014524Y-13414446D01*
X3135000Y-12808771D01*
X3135000Y-12191229D01*
X3014524Y-11585554D01*
X2778201Y-11015021D01*
X2435114Y-10501554D01*
X1998446Y-10064886D01*
X1484979Y-9721799D01*
X914446Y-9485476D01*
X308771Y-9365000D01*
X-308771Y-9365000D01*
X-914446Y-9485476D01*
X-1484979Y-9721799D01*
X-1998446Y-10064886D01*
X-2435114Y-10501554D01*
X-2604898Y-10755655D01*
X-3965000Y-9395554D01*
X-3965000Y4280104D01*
X-2842500Y4280104D01*
X-2842500Y3999896D01*
X-2787834Y3725072D01*
X-2680603Y3466194D01*
X-2524928Y3233209D01*
X-2326791Y3035072D01*
X-2093806Y2879397D01*
X-1834928Y2772166D01*
X-1773766Y2760000D01*
X-1834928Y2747834D01*
X-2093806Y2640603D01*
X-2326791Y2484928D01*
X-2524928Y2286791D01*
X-2680603Y2053806D01*
X-2787834Y1794928D01*
X-2842500Y1520104D01*
X-2842500Y1239896D01*
X-2787834Y965072D01*
X-2680603Y706194D01*
X-2524928Y473209D01*
X-2326791Y275072D01*
X-2093806Y119397D01*
X-1834928Y12166D01*
X-1773766Y0D01*
X-1834928Y-12166D01*
X-2093806Y-119397D01*
X-2326791Y-275072D01*
X-2524928Y-473209D01*
X-2680603Y-706194D01*
X-2787834Y-965072D01*
X-2842500Y-1239896D01*
X-2842500Y-1520104D01*
X-2787834Y-1794928D01*
X-2680603Y-2053806D01*
X-2524928Y-2286791D01*
X-2326791Y-2484928D01*
X-2093806Y-2640603D01*
X-1834928Y-2747834D01*
X-1773766Y-2760000D01*
X-1834928Y-2772166D01*
X-2093806Y-2879397D01*
X-2326791Y-3035072D01*
X-2524928Y-3233209D01*
X-2680603Y-3466194D01*
X-2787834Y-3725072D01*
X-2842500Y-3999896D01*
X-2842500Y-4280104D01*
X-2787834Y-4554928D01*
X-2680603Y-4813806D01*
X-2524928Y-5046791D01*
X-2326791Y-5244928D01*
X-2093806Y-5400603D01*
X-1834928Y-5507834D01*
X-1560104Y-5562500D01*
X-1279896Y-5562500D01*
X-1005072Y-5507834D01*
X-746194Y-5400603D01*
X-513209Y-5244928D01*
X-315072Y-5046791D01*
X-159397Y-4813806D01*
X-125719Y-4732500D01*
X-5572Y-4732500D01*
X-5572Y-6307500D01*
X6688Y-6431982D01*
X42998Y-6551680D01*
X101963Y-6661994D01*
X181315Y-6758685D01*
X278006Y-6838037D01*
X388320Y-6897002D01*
X508018Y-6933312D01*
X632500Y-6945572D01*
X2207500Y-6945572D01*
X2331982Y-6933312D01*
X2451680Y-6897002D01*
X2561994Y-6838037D01*
X2658685Y-6758685D01*
X2738037Y-6661994D01*
X2797002Y-6551680D01*
X2833312Y-6431982D01*
X2845572Y-6307500D01*
X2845572Y-4732500D01*
X2833312Y-4608018D01*
X2797002Y-4488320D01*
X2738037Y-4378006D01*
X2658685Y-4281315D01*
X2561994Y-4201963D01*
X2451680Y-4142998D01*
X2331982Y-4106688D01*
X2207500Y-4094428D01*
X1915577Y-4094428D01*
X2093806Y-4020603D01*
X2326791Y-3864928D01*
X2524928Y-3666791D01*
X2680603Y-3433806D01*
X2787834Y-3174928D01*
X2842500Y-2900104D01*
X2842500Y-2619896D01*
X2787834Y-2345072D01*
X2680603Y-2086194D01*
X2524928Y-1853209D01*
X2326791Y-1655072D01*
X2093806Y-1499397D01*
X1834928Y-1392166D01*
X1781522Y-1381543D01*
X2031928Y-1291774D01*
X2154102Y-1226470D01*
X2224171Y-983776D01*
X1420000Y-179605D01*
X615829Y-983776D01*
X685898Y-1226470D01*
X939276Y-1346121D01*
X1071048Y-1379043D01*
X1005072Y-1392166D01*
X746194Y-1499397D01*
X513209Y-1655072D01*
X315072Y-1853209D01*
X159397Y-2086194D01*
X52166Y-2345072D01*
X-2500Y-2619896D01*
X-2500Y-2900104D01*
X52166Y-3174928D01*
X159397Y-3433806D01*
X315072Y-3666791D01*
X513209Y-3864928D01*
X746194Y-4020603D01*
X924423Y-4094428D01*
X632500Y-4094428D01*
X508018Y-4106688D01*
X388320Y-4142998D01*
X278006Y-4201963D01*
X181315Y-4281315D01*
X101963Y-4378006D01*
X42998Y-4488320D01*
X6688Y-4608018D01*
X-5572Y-4732500D01*
X-125719Y-4732500D01*
X-52166Y-4554928D01*
X2500Y-4280104D01*
X2500Y-3999896D01*
X-52166Y-3725072D01*
X-159397Y-3466194D01*
X-315072Y-3233209D01*
X-513209Y-3035072D01*
X-746194Y-2879397D01*
X-1005072Y-2772166D01*
X-1066234Y-2760000D01*
X-1005072Y-2747834D01*
X-746194Y-2640603D01*
X-513209Y-2484928D01*
X-315072Y-2286791D01*
X-159397Y-2053806D01*
X-52166Y-1794928D01*
X2500Y-1520104D01*
X2500Y-1239896D01*
X-52166Y-965072D01*
X-159397Y-706194D01*
X-315072Y-473209D01*
X-513209Y-275072D01*
X-746194Y-119397D01*
X-863015Y-71008D01*
X-7619Y-71008D01*
X33666Y-348157D01*
X128226Y-611928D01*
X193530Y-734102D01*
X436224Y-804171D01*
X1240395Y0D01*
X1599605Y0D01*
X2403776Y-804171D01*
X2646470Y-734102D01*
X2766121Y-480724D01*
X2834040Y-208872D01*
X2847619Y71008D01*
X2806334Y348157D01*
X2711774Y611928D01*
X2646470Y734102D01*
X2403776Y804171D01*
X1599605Y0D01*
X1240395Y0D01*
X436224Y804171D01*
X193530Y734102D01*
X73879Y480724D01*
X5960Y208872D01*
X-7619Y-71008D01*
X-863015Y-71008D01*
X-1005072Y-12166D01*
X-1066234Y0D01*
X-1005072Y12166D01*
X-746194Y119397D01*
X-513209Y275072D01*
X-315072Y473209D01*
X-159397Y706194D01*
X-52166Y965072D01*
X2500Y1239896D01*
X2500Y1520104D01*
X-52166Y1794928D01*
X-159397Y2053806D01*
X-315072Y2286791D01*
X-513209Y2484928D01*
X-746194Y2640603D01*
X-1005072Y2747834D01*
X-1066234Y2760000D01*
X-1005072Y2772166D01*
X-746194Y2879397D01*
X-513209Y3035072D01*
X-315072Y3233209D01*
X-159397Y3466194D01*
X-52166Y3725072D01*
X2500Y3999896D01*
X2500Y4280104D01*
X-52166Y4554928D01*
X-159397Y4813806D01*
X-315072Y5046791D01*
X-513209Y5244928D01*
X-746194Y5400603D01*
X-1005072Y5507834D01*
X-1279896Y5562500D01*
X-1560104Y5562500D01*
X-1834928Y5507834D01*
X-2093806Y5400603D01*
X-2326791Y5244928D01*
X-2524928Y5046791D01*
X-2680603Y4813806D01*
X-2787834Y4554928D01*
X-2842500Y4280104D01*
X-3965000Y4280104D01*
X-3965000Y5660104D01*
X-2500Y5660104D01*
X-2500Y5379896D01*
X52166Y5105072D01*
X159397Y4846194D01*
X315072Y4613209D01*
X513209Y4415072D01*
X746194Y4259397D01*
X1005072Y4152166D01*
X1066234Y4140000D01*
X1005072Y4127834D01*
X746194Y4020603D01*
X513209Y3864928D01*
X315072Y3666791D01*
X159397Y3433806D01*
X52166Y3174928D01*
X-2500Y2900104D01*
X-2500Y2619896D01*
X52166Y2345072D01*
X159397Y2086194D01*
X315072Y1853209D01*
X513209Y1655072D01*
X746194Y1499397D01*
X1005072Y1392166D01*
X1058478Y1381543D01*
X808072Y1291774D01*
X685898Y1226470D01*
X615829Y983776D01*
X1420000Y179605D01*
X2224171Y983776D01*
X2154102Y1226470D01*
X1900724Y1346121D01*
X1768952Y1379043D01*
X1834928Y1392166D01*
X2093806Y1499397D01*
X2326791Y1655072D01*
X2524928Y1853209D01*
X2680603Y2086194D01*
X2787834Y2345072D01*
X2842500Y2619896D01*
X2842500Y2900104D01*
X2787834Y3174928D01*
X2680603Y3433806D01*
X2524928Y3666791D01*
X2326791Y3864928D01*
X2093806Y4020603D01*
X1834928Y4127834D01*
X1773766Y4140000D01*
X1834928Y4152166D01*
X2093806Y4259397D01*
X2326791Y4415072D01*
X2524928Y4613209D01*
X2680603Y4846194D01*
X2787834Y5105072D01*
X2842500Y5379896D01*
X2842500Y5660104D01*
X2787834Y5934928D01*
X2680603Y6193806D01*
X2524928Y6426791D01*
X2326791Y6624928D01*
X2093806Y6780603D01*
X1834928Y6887834D01*
X1560104Y6942500D01*
X1279896Y6942500D01*
X1005072Y6887834D01*
X746194Y6780603D01*
X513209Y6624928D01*
X315072Y6426791D01*
X159397Y6193806D01*
X52166Y5934928D01*
X-2500Y5660104D01*
X-3965000Y5660104D01*
X-3965000Y7495554D01*
X-3611054Y7849500D01*
X4641928Y7849500D01*
X4641928Y6650500D01*
X4654188Y6526018D01*
X4690498Y6406320D01*
X4749463Y6296006D01*
X4828815Y6199315D01*
X4925506Y6119963D01*
X4995000Y6082817D01*
X4995001Y1036115D01*
X4991444Y1000000D01*
X4995000Y963895D01*
X4995001Y-6082817D01*
X4925506Y-6119963D01*
X4828815Y-6199315D01*
X4749463Y-6296006D01*
X4690498Y-6406320D01*
X4654188Y-6526018D01*
X4641928Y-6650500D01*
X4641928Y-7849500D01*
X4654188Y-7973982D01*
X4690498Y-8093680D01*
X4749463Y-8203994D01*
X4828815Y-8300685D01*
X4925506Y-8380037D01*
X5035820Y-8439002D01*
X5155518Y-8475312D01*
X5280000Y-8487572D01*
X6180000Y-8487572D01*
X6304482Y-8475312D01*
X6424180Y-8439002D01*
X6534494Y-8380037D01*
X6631185Y-8300685D01*
X6710537Y-8203994D01*
X6769502Y-8093680D01*
X6805812Y-7973982D01*
X6818072Y-7849500D01*
X6818072Y-6650500D01*
X6805812Y-6526018D01*
X6769502Y-6406320D01*
X6710537Y-6296006D01*
X6631185Y-6199315D01*
X6534494Y-6119963D01*
X6465000Y-6082817D01*
X6465000Y-88711D01*
X6530226Y-153937D01*
X6699744Y-267205D01*
X6888102Y-345226D01*
X7088061Y-385000D01*
X7291939Y-385000D01*
X7491898Y-345226D01*
X7680256Y-267205D01*
X7849774Y-153937D01*
X7993937Y-9774D01*
X8107205Y159744D01*
X8185226Y348102D01*
X8225000Y548061D01*
X8225000Y751939D01*
X8185226Y951898D01*
X8107205Y1140256D01*
X7993937Y1309774D01*
X7849774Y1453937D01*
X7680256Y1567205D01*
X7491898Y1645226D01*
X7291939Y1685000D01*
X7113854Y1685000D01*
X6984085Y1724365D01*
X6876105Y1735000D01*
X6840000Y1738556D01*
X6803895Y1735000D01*
X6465000Y1735000D01*
X6465000Y6082817D01*
X6534494Y6119963D01*
X6631185Y6199315D01*
X6710537Y6296006D01*
X6769502Y6406320D01*
X6805812Y6526018D01*
X6818072Y6650500D01*
X6818072Y7849500D01*
X6805812Y7973982D01*
X6769502Y8093680D01*
X6710537Y8203994D01*
X6631185Y8300685D01*
X6534494Y8380037D01*
X6424180Y8439002D01*
X6304482Y8475312D01*
X6180000Y8487572D01*
X5280000Y8487572D01*
X5155518Y8475312D01*
X5035820Y8439002D01*
X4925506Y8380037D01*
X4828815Y8300685D01*
X4749463Y8203994D01*
X4690498Y8093680D01*
X4654188Y7973982D01*
X4641928Y7849500D01*
X-3611054Y7849500D01*
X-1637106Y9823447D01*
X-1484979Y9721799D01*
X-914446Y9485476D01*
X-308771Y9365000D01*
X308771Y9365000D01*
X914446Y9485476D01*
X1484979Y9721799D01*
X1998446Y10064886D01*
X2435114Y10501554D01*
X2778201Y11015021D01*
X3014524Y11585554D01*
X3135000Y12191229D01*
X3135000Y12808771D01*
X3014524Y13414446D01*
X2778201Y13984979D01*
X2435114Y14498446D01*
X1998446Y14935114D01*
X1484979Y15278201D01*
X914446Y15514524D01*
X308771Y15635000D01*
X-308771Y15635000D01*
X-914446Y15514524D01*
X-1484979Y15278201D01*
X-1998446Y14935114D01*
X-2435114Y14498446D01*
X-2778201Y13984979D01*
X-3014524Y13414446D01*
X-3135000Y12808771D01*
X-3135000Y12191229D01*
X-3014524Y11585554D01*
X-2778201Y11015021D01*
X-2676553Y10862894D01*
X-5194192Y8345254D01*
X-5222238Y8322237D01*
X-5314087Y8210319D01*
X-5382337Y8082632D01*
X-5405558Y8006083D01*
X-5424365Y7944085D01*
X-5438556Y7800000D01*
X-7865000Y7800000D01*
X-7865000Y22495554D01*
X-7695553Y22665000D01*
X25595554Y22665000D01*
X26254746Y22005807D01*
G04 #@! TA.AperFunction,Conductor*
D26*
G36*
X26254746Y22005807D02*
G01*
X26277762Y21977762D01*
X26389680Y21885913D01*
X26517367Y21817663D01*
X26655915Y21775635D01*
X26763895Y21765000D01*
X26763904Y21765000D01*
X26799999Y21761445D01*
X26836094Y21765000D01*
X73195554Y21765000D01*
X76174927Y18785627D01*
X76009744Y18717205D01*
X75840226Y18603937D01*
X75696063Y18459774D01*
X75582795Y18290256D01*
X75504774Y18101898D01*
X75465000Y17901939D01*
X75465000Y17698061D01*
X75504774Y17498102D01*
X75582795Y17309744D01*
X75696063Y17140226D01*
X75765000Y17071289D01*
X75765001Y16741561D01*
X75742506Y16729537D01*
X75645815Y16650185D01*
X75566463Y16553494D01*
X75542921Y16509450D01*
X75526753Y16504546D01*
X75394724Y16433974D01*
X75394722Y16433973D01*
X75394723Y16433973D01*
X75307996Y16362799D01*
X75307992Y16362795D01*
X75278999Y16339001D01*
X75255205Y16310008D01*
X71432771Y12487572D01*
X71383230Y12487572D01*
X68035072Y15835729D01*
X68035072Y16199000D01*
X68022812Y16323482D01*
X67986502Y16443180D01*
X67927537Y16553494D01*
X67848185Y16650185D01*
X67751494Y16729537D01*
X67641180Y16788502D01*
X67521482Y16824812D01*
X67397000Y16837072D01*
X66597000Y16837072D01*
X66472518Y16824812D01*
X66352820Y16788502D01*
X66242506Y16729537D01*
X66145815Y16650185D01*
X66066463Y16553494D01*
X66042921Y16509450D01*
X66026753Y16504546D01*
X65894724Y16433974D01*
X65894722Y16433973D01*
X65894723Y16433973D01*
X65807996Y16362799D01*
X65807992Y16362795D01*
X65778999Y16339001D01*
X65755205Y16310008D01*
X61932771Y12487572D01*
X61883230Y12487572D01*
X58535072Y15835729D01*
X58535072Y16199000D01*
X58522812Y16323482D01*
X58486502Y16443180D01*
X58427537Y16553494D01*
X58348185Y16650185D01*
X58251494Y16729537D01*
X58141180Y16788502D01*
X58021482Y16824812D01*
X57897000Y16837072D01*
X57097000Y16837072D01*
X56972518Y16824812D01*
X56852820Y16788502D01*
X56742506Y16729537D01*
X56645815Y16650185D01*
X56566463Y16553494D01*
X56542921Y16509450D01*
X56526753Y16504546D01*
X56394724Y16433974D01*
X56394722Y16433973D01*
X56394723Y16433973D01*
X56307996Y16362799D01*
X56307992Y16362795D01*
X56278999Y16339001D01*
X56255205Y16310008D01*
X52432771Y12487572D01*
X52383230Y12487572D01*
X49035072Y15835729D01*
X49035072Y16199000D01*
X49022812Y16323482D01*
X48986502Y16443180D01*
X48927537Y16553494D01*
X48848185Y16650185D01*
X48751494Y16729537D01*
X48641180Y16788502D01*
X48521482Y16824812D01*
X48397000Y16837072D01*
X47597000Y16837072D01*
X47472518Y16824812D01*
X47352820Y16788502D01*
X47242506Y16729537D01*
X47145815Y16650185D01*
X47066463Y16553494D01*
X47042921Y16509450D01*
X47026753Y16504546D01*
X46894724Y16433974D01*
X46894722Y16433973D01*
X46894723Y16433973D01*
X46807996Y16362799D01*
X46807992Y16362795D01*
X46778999Y16339001D01*
X46755205Y16310008D01*
X42932771Y12487572D01*
X42883230Y12487572D01*
X39535072Y15835729D01*
X39535072Y16199000D01*
X39522812Y16323482D01*
X39486502Y16443180D01*
X39427537Y16553494D01*
X39348185Y16650185D01*
X39251494Y16729537D01*
X39141180Y16788502D01*
X39021482Y16824812D01*
X38897000Y16837072D01*
X38097000Y16837072D01*
X37972518Y16824812D01*
X37852820Y16788502D01*
X37742506Y16729537D01*
X37645815Y16650185D01*
X37566463Y16553494D01*
X37542921Y16509450D01*
X37526753Y16504546D01*
X37394724Y16433974D01*
X37394722Y16433973D01*
X37394723Y16433973D01*
X37307996Y16362799D01*
X37307992Y16362795D01*
X37278999Y16339001D01*
X37255205Y16310008D01*
X33432771Y12487572D01*
X33383230Y12487572D01*
X30035072Y15835729D01*
X30035072Y16199000D01*
X30022812Y16323482D01*
X29986502Y16443180D01*
X29927537Y16553494D01*
X29848185Y16650185D01*
X29751494Y16729537D01*
X29641180Y16788502D01*
X29521482Y16824812D01*
X29397000Y16837072D01*
X28998374Y16837072D01*
X28841258Y16994188D01*
X28818238Y17022238D01*
X28706320Y17114087D01*
X28578633Y17182337D01*
X28440085Y17224365D01*
X28332105Y17235000D01*
X28296000Y17238556D01*
X28259895Y17235000D01*
X22036096Y17235000D01*
X21999999Y17238555D01*
X21963902Y17235000D01*
X17536096Y17235000D01*
X17499999Y17238555D01*
X17463902Y17235000D01*
X13536105Y17235000D01*
X13500000Y17238556D01*
X13463895Y17235000D01*
X13355915Y17224365D01*
X13217367Y17182337D01*
X13089680Y17114087D01*
X12977762Y17022238D01*
X12954746Y16994193D01*
X12275808Y16315254D01*
X12247763Y16292238D01*
X12155914Y16180320D01*
X12126834Y16125915D01*
X12087664Y16052633D01*
X12045635Y15914085D01*
X12031444Y15770000D01*
X12035001Y15733885D01*
X12035001Y15524446D01*
X9535072Y18024374D01*
X9535072Y18699000D01*
X9522812Y18823482D01*
X9486502Y18943180D01*
X9427537Y19053494D01*
X9348185Y19150185D01*
X9251494Y19229537D01*
X9141180Y19288502D01*
X9021482Y19324812D01*
X8897000Y19337072D01*
X8097000Y19337072D01*
X7972518Y19324812D01*
X7852820Y19288502D01*
X7742506Y19229537D01*
X7645815Y19150185D01*
X7566463Y19053494D01*
X7507498Y18943180D01*
X7471188Y18823482D01*
X7458928Y18699000D01*
X7458928Y17899000D01*
X7471188Y17774518D01*
X7507498Y17654820D01*
X7566463Y17544506D01*
X7605988Y17496344D01*
X7572463Y17455494D01*
X7513498Y17345180D01*
X7477188Y17225482D01*
X7464928Y17101000D01*
X7464928Y16301000D01*
X7477188Y16176518D01*
X7513498Y16056820D01*
X7535001Y16016592D01*
X7535000Y14917183D01*
X7465506Y14880037D01*
X7368815Y14800685D01*
X7289463Y14703994D01*
X7230498Y14593680D01*
X7194188Y14473982D01*
X7181928Y14349500D01*
X7181928Y13337518D01*
X6818072Y13701374D01*
X6818072Y14349500D01*
X6805812Y14473982D01*
X6769502Y14593680D01*
X6710537Y14703994D01*
X6631185Y14800685D01*
X6534494Y14880037D01*
X6424180Y14939002D01*
X6304482Y14975312D01*
X6180000Y14987572D01*
X5280000Y14987572D01*
X5155518Y14975312D01*
X5035820Y14939002D01*
X4925506Y14880037D01*
X4828815Y14800685D01*
X4749463Y14703994D01*
X4690498Y14593680D01*
X4654188Y14473982D01*
X4641928Y14349500D01*
X4641928Y13150500D01*
X4654188Y13026018D01*
X4690498Y12906320D01*
X4749463Y12796006D01*
X4828815Y12699315D01*
X4925506Y12619963D01*
X5035820Y12560998D01*
X5155518Y12524688D01*
X5280000Y12512428D01*
X5928126Y12512428D01*
X8684746Y9755807D01*
X8707762Y9727762D01*
X8819680Y9635913D01*
X8947367Y9567663D01*
X9085915Y9525635D01*
X9193895Y9515000D01*
X9193904Y9515000D01*
X9229999Y9511445D01*
X9266094Y9515000D01*
X17765000Y9515000D01*
X17765000Y9398061D01*
X17804774Y9198102D01*
X17882795Y9009744D01*
X17996063Y8840226D01*
X18140226Y8696063D01*
X18309744Y8582795D01*
X18498102Y8504774D01*
X18651835Y8474195D01*
X18535820Y8439002D01*
X18425506Y8380037D01*
X18328815Y8300685D01*
X18250000Y8204648D01*
X18171185Y8300685D01*
X18074494Y8380037D01*
X17964180Y8439002D01*
X17844482Y8475312D01*
X17720000Y8487572D01*
X16820000Y8487572D01*
X16695518Y8475312D01*
X16575820Y8439002D01*
X16465506Y8380037D01*
X16368815Y8300685D01*
X16289463Y8203994D01*
X16230498Y8093680D01*
X16194188Y7973982D01*
X16181928Y7849500D01*
X16181928Y6650500D01*
X16194188Y6526018D01*
X16230498Y6406320D01*
X16289463Y6296006D01*
X16368815Y6199315D01*
X16399132Y6174435D01*
X16302795Y6030256D01*
X16224774Y5841898D01*
X16185000Y5641939D01*
X16185000Y5438061D01*
X16224774Y5238102D01*
X16302795Y5049744D01*
X16416063Y4880226D01*
X16560226Y4736063D01*
X16729744Y4622795D01*
X16918102Y4544774D01*
X17118061Y4505000D01*
X17321939Y4505000D01*
X17521898Y4544774D01*
X17710256Y4622795D01*
X17879774Y4736063D01*
X18023937Y4880226D01*
X18137205Y5049744D01*
X18215226Y5238102D01*
X18255000Y5438061D01*
X18255000Y5641939D01*
X18215226Y5841898D01*
X18137205Y6030256D01*
X18076284Y6121432D01*
X18171185Y6199315D01*
X18250000Y6295352D01*
X18328815Y6199315D01*
X18425506Y6119963D01*
X18495000Y6082817D01*
X18495001Y-1105000D01*
X18378061Y-1105000D01*
X18178102Y-1144774D01*
X17989744Y-1222795D01*
X17911613Y-1275000D01*
X15465000Y-1275000D01*
X15465000Y6082817D01*
X15534494Y6119963D01*
X15631185Y6199315D01*
X15710537Y6296006D01*
X15769502Y6406320D01*
X15805812Y6526018D01*
X15818072Y6650500D01*
X15818072Y7849500D01*
X15805812Y7973982D01*
X15769502Y8093680D01*
X15710537Y8203994D01*
X15631185Y8300685D01*
X15534494Y8380037D01*
X15424180Y8439002D01*
X15304482Y8475312D01*
X15180000Y8487572D01*
X14280000Y8487572D01*
X14155518Y8475312D01*
X14035820Y8439002D01*
X13925506Y8380037D01*
X13828815Y8300685D01*
X13750000Y8204648D01*
X13671185Y8300685D01*
X13574494Y8380037D01*
X13464180Y8439002D01*
X13344482Y8475312D01*
X13220000Y8487572D01*
X12320000Y8487572D01*
X12195518Y8475312D01*
X12075820Y8439002D01*
X11965506Y8380037D01*
X11868815Y8300685D01*
X11789463Y8203994D01*
X11730498Y8093680D01*
X11694188Y7973982D01*
X11681928Y7849500D01*
X11681928Y6650500D01*
X11694188Y6526018D01*
X11730498Y6406320D01*
X11789463Y6296006D01*
X11868815Y6199315D01*
X11965506Y6119963D01*
X12035000Y6082817D01*
X12035001Y2168712D01*
X11926063Y2059774D01*
X11812795Y1890256D01*
X11734774Y1701898D01*
X11695000Y1501939D01*
X11695000Y1298061D01*
X11734774Y1098102D01*
X11807756Y921908D01*
X11741939Y935000D01*
X11540889Y935000D01*
X11444085Y964365D01*
X11336105Y975000D01*
X11300000Y978556D01*
X11263895Y975000D01*
X10965000Y975000D01*
X10965000Y6082817D01*
X11034494Y6119963D01*
X11131185Y6199315D01*
X11210537Y6296006D01*
X11269502Y6406320D01*
X11305812Y6526018D01*
X11318072Y6650500D01*
X11318072Y7849500D01*
X11305812Y7973982D01*
X11269502Y8093680D01*
X11210537Y8203994D01*
X11131185Y8300685D01*
X11034494Y8380037D01*
X10924180Y8439002D01*
X10804482Y8475312D01*
X10680000Y8487572D01*
X9780000Y8487572D01*
X9655518Y8475312D01*
X9535820Y8439002D01*
X9425506Y8380037D01*
X9328815Y8300685D01*
X9250000Y8204648D01*
X9171185Y8300685D01*
X9074494Y8380037D01*
X8964180Y8439002D01*
X8844482Y8475312D01*
X8720000Y8487572D01*
X7820000Y8487572D01*
X7695518Y8475312D01*
X7575820Y8439002D01*
X7465506Y8380037D01*
X7368815Y8300685D01*
X7289463Y8203994D01*
X7230498Y8093680D01*
X7194188Y7973982D01*
X7181928Y7849500D01*
X7181928Y6650500D01*
X7194188Y6526018D01*
X7230498Y6406320D01*
X7289463Y6296006D01*
X7368815Y6199315D01*
X7465506Y6119963D01*
X7535000Y6082817D01*
X7535001Y3468712D01*
X7496063Y3429774D01*
X7382795Y3260256D01*
X7304774Y3071898D01*
X7265000Y2871939D01*
X7265000Y2668061D01*
X7304774Y2468102D01*
X7382795Y2279744D01*
X7496063Y2110226D01*
X7640226Y1966063D01*
X7809744Y1852795D01*
X7998102Y1774774D01*
X8198061Y1735000D01*
X8401939Y1735000D01*
X8601898Y1774774D01*
X8790256Y1852795D01*
X8959774Y1966063D01*
X9103937Y2110226D01*
X9217205Y2279744D01*
X9295226Y2468102D01*
X9335000Y2668061D01*
X9335000Y2871939D01*
X9295226Y3071898D01*
X9217205Y3260256D01*
X9103937Y3429774D01*
X9005000Y3528711D01*
X9005000Y6082817D01*
X9074494Y6119963D01*
X9171185Y6199315D01*
X9250000Y6295352D01*
X9328815Y6199315D01*
X9425506Y6119963D01*
X9495000Y6082817D01*
X9495001Y276115D01*
X9491444Y240000D01*
X9495000Y203895D01*
X9495001Y-6082817D01*
X9425506Y-6119963D01*
X9328815Y-6199315D01*
X9250000Y-6295352D01*
X9171185Y-6199315D01*
X9074494Y-6119963D01*
X9005000Y-6082817D01*
X9005000Y-5806105D01*
X9008556Y-5770000D01*
X9006243Y-5746513D01*
X9035000Y-5601939D01*
X9035000Y-5398061D01*
X8995226Y-5198102D01*
X8917205Y-5009744D01*
X8803937Y-4840226D01*
X8659774Y-4696063D01*
X8490256Y-4582795D01*
X8301898Y-4504774D01*
X8101939Y-4465000D01*
X7898061Y-4465000D01*
X7698102Y-4504774D01*
X7509744Y-4582795D01*
X7340226Y-4696063D01*
X7196063Y-4840226D01*
X7082795Y-5009744D01*
X7004774Y-5198102D01*
X6965000Y-5398061D01*
X6965000Y-5601939D01*
X7004774Y-5801898D01*
X7082795Y-5990256D01*
X7196063Y-6159774D01*
X7308770Y-6272481D01*
X7289463Y-6296006D01*
X7230498Y-6406320D01*
X7194188Y-6526018D01*
X7181928Y-6650500D01*
X7181928Y-7849500D01*
X7194188Y-7973982D01*
X7230498Y-8093680D01*
X7289463Y-8203994D01*
X7368815Y-8300685D01*
X7465506Y-8380037D01*
X7575820Y-8439002D01*
X7695518Y-8475312D01*
X7820000Y-8487572D01*
X8720000Y-8487572D01*
X8844482Y-8475312D01*
X8964180Y-8439002D01*
X9074494Y-8380037D01*
X9171185Y-8300685D01*
X9250000Y-8204648D01*
X9328815Y-8300685D01*
X9425506Y-8380037D01*
X9535820Y-8439002D01*
X9655518Y-8475312D01*
X9780000Y-8487572D01*
X10680000Y-8487572D01*
X10804482Y-8475312D01*
X10924180Y-8439002D01*
X11034494Y-8380037D01*
X11131185Y-8300685D01*
X11210537Y-8203994D01*
X11269502Y-8093680D01*
X11305812Y-7973982D01*
X11318072Y-7849500D01*
X11318072Y-6650500D01*
X11305812Y-6526018D01*
X11269502Y-6406320D01*
X11210537Y-6296006D01*
X11131185Y-6199315D01*
X11034494Y-6119963D01*
X10965000Y-6082817D01*
X10965000Y-888711D01*
X10980226Y-903937D01*
X11149744Y-1017205D01*
X11338102Y-1095226D01*
X11538061Y-1135000D01*
X11635554Y-1135000D01*
X13194999Y-2694446D01*
X13194999Y-3234049D01*
X13051898Y-3174774D01*
X12851939Y-3135000D01*
X12648061Y-3135000D01*
X12448102Y-3174774D01*
X12259744Y-3252795D01*
X12090226Y-3366063D01*
X11946063Y-3510226D01*
X11832795Y-3679744D01*
X11754774Y-3868102D01*
X11715000Y-4068061D01*
X11715000Y-4271939D01*
X11754774Y-4471898D01*
X11832795Y-4660256D01*
X11946063Y-4829774D01*
X12035001Y-4918712D01*
X12035000Y-6082817D01*
X11965506Y-6119963D01*
X11868815Y-6199315D01*
X11789463Y-6296006D01*
X11730498Y-6406320D01*
X11694188Y-6526018D01*
X11681928Y-6650500D01*
X11681928Y-7849500D01*
X11694188Y-7973982D01*
X11730498Y-8093680D01*
X11789463Y-8203994D01*
X11868815Y-8300685D01*
X11965506Y-8380037D01*
X12075820Y-8439002D01*
X12195518Y-8475312D01*
X12320000Y-8487572D01*
X13220000Y-8487572D01*
X13284585Y-8481211D01*
X13315913Y-8539821D01*
X13407762Y-8651739D01*
X13435807Y-8674755D01*
X13454740Y-8693688D01*
X13477761Y-8721739D01*
X13589679Y-8813588D01*
X13717366Y-8881838D01*
X13855914Y-8923866D01*
X13963894Y-8934501D01*
X13999999Y-8938057D01*
X14036104Y-8934501D01*
X18395055Y-8934501D01*
X21972981Y-12512428D01*
X21320000Y-12512428D01*
X21195518Y-12524688D01*
X21075820Y-12560998D01*
X20965506Y-12619963D01*
X20868815Y-12699315D01*
X20789463Y-12796006D01*
X20730498Y-12906320D01*
X20694188Y-13026018D01*
X20681928Y-13150500D01*
X20681928Y-14349500D01*
X20694188Y-14473982D01*
X20730498Y-14593680D01*
X20789463Y-14703994D01*
X20868815Y-14800685D01*
X20924907Y-14846719D01*
X20882795Y-14909744D01*
X20804774Y-15098102D01*
X20765000Y-15298061D01*
X20765000Y-15501939D01*
X20804774Y-15701898D01*
X20882795Y-15890256D01*
X20996063Y-16059774D01*
X21140226Y-16203937D01*
X21309744Y-16317205D01*
X21498102Y-16395226D01*
X21698061Y-16435000D01*
X21901939Y-16435000D01*
X22101898Y-16395226D01*
X22290256Y-16317205D01*
X22459774Y-16203937D01*
X22603937Y-16059774D01*
X22717205Y-15890256D01*
X22795226Y-15701898D01*
X22835000Y-15501939D01*
X22835000Y-15298061D01*
X22795226Y-15098102D01*
X22717205Y-14909744D01*
X22653844Y-14814917D01*
X22671185Y-14800685D01*
X22750537Y-14703994D01*
X22809502Y-14593680D01*
X22845812Y-14473982D01*
X22858072Y-14349500D01*
X22858072Y-13821783D01*
X22940226Y-13903937D01*
X23109744Y-14017205D01*
X23298102Y-14095226D01*
X23498061Y-14135000D01*
X23701939Y-14135000D01*
X23901898Y-14095226D01*
X24090256Y-14017205D01*
X24259774Y-13903937D01*
X24403937Y-13759774D01*
X24517205Y-13590256D01*
X24595226Y-13401898D01*
X24635000Y-13201939D01*
X24635000Y-12998061D01*
X24595226Y-12798102D01*
X24517205Y-12609744D01*
X24403937Y-12440226D01*
X24259774Y-12296063D01*
X24090256Y-12182795D01*
X23901898Y-12104774D01*
X23701939Y-12065000D01*
X23604447Y-12065000D01*
X19959545Y-8420099D01*
X20034494Y-8380037D01*
X20131185Y-8300685D01*
X20210537Y-8203994D01*
X20269502Y-8093680D01*
X20305812Y-7973982D01*
X20318072Y-7849500D01*
X20318072Y-6650500D01*
X20305812Y-6526018D01*
X20269502Y-6406320D01*
X20210537Y-6296006D01*
X20131185Y-6199315D01*
X20034494Y-6119963D01*
X19965000Y-6082817D01*
X19965000Y-4545000D01*
X20071939Y-4545000D01*
X20271898Y-4505226D01*
X20460256Y-4427205D01*
X20629774Y-4313937D01*
X20773937Y-4169774D01*
X20887205Y-4000256D01*
X20965226Y-3811898D01*
X21005000Y-3611939D01*
X21005000Y-3408061D01*
X20965226Y-3208102D01*
X20887205Y-3019744D01*
X20773937Y-2850226D01*
X20629774Y-2706063D01*
X20460256Y-2592795D01*
X20271898Y-2514774D01*
X20071939Y-2475000D01*
X19965000Y-2475000D01*
X19965000Y6082817D01*
X20034494Y6119963D01*
X20131185Y6199315D01*
X20210537Y6296006D01*
X20269502Y6406320D01*
X20305812Y6526018D01*
X20318072Y6650500D01*
X20318072Y7849500D01*
X20305812Y7973982D01*
X20269502Y8093680D01*
X20210537Y8203994D01*
X20131185Y8300685D01*
X20034494Y8380037D01*
X19924180Y8439002D01*
X19804482Y8475312D01*
X19680000Y8487572D01*
X19015417Y8487572D01*
X19101898Y8504774D01*
X19290256Y8582795D01*
X19459774Y8696063D01*
X19603937Y8840226D01*
X19717205Y9009744D01*
X19740089Y9064990D01*
X23065000Y9064990D01*
X23065000Y9034989D01*
X22936116Y9034989D01*
X22900011Y9038545D01*
X22755926Y9024354D01*
X22617377Y8982326D01*
X22565781Y8954747D01*
X22489691Y8914076D01*
X22377773Y8822227D01*
X22354752Y8794176D01*
X22075809Y8515233D01*
X22047763Y8492216D01*
X22043952Y8487572D01*
X21320000Y8487572D01*
X21195518Y8475312D01*
X21075820Y8439002D01*
X20965506Y8380037D01*
X20868815Y8300685D01*
X20789463Y8203994D01*
X20730498Y8093680D01*
X20694188Y7973982D01*
X20681928Y7849500D01*
X20681928Y6650500D01*
X20694188Y6526018D01*
X20730498Y6406320D01*
X20789463Y6296006D01*
X20868815Y6199315D01*
X20965506Y6119963D01*
X21035000Y6082817D01*
X21035001Y4828712D01*
X21006063Y4799774D01*
X20892795Y4630256D01*
X20814774Y4441898D01*
X20775000Y4241939D01*
X20775000Y4038061D01*
X20814774Y3838102D01*
X20892795Y3649744D01*
X21006063Y3480226D01*
X21150226Y3336063D01*
X21319744Y3222795D01*
X21508102Y3144774D01*
X21708061Y3105000D01*
X21835001Y3105000D01*
X21835002Y-355000D01*
X21668061Y-355000D01*
X21468102Y-394774D01*
X21279744Y-472795D01*
X21110226Y-586063D01*
X20966063Y-730226D01*
X20852795Y-899744D01*
X20774774Y-1088102D01*
X20735000Y-1288061D01*
X20735000Y-1491939D01*
X20774774Y-1691898D01*
X20852795Y-1880256D01*
X20966063Y-2049774D01*
X21035001Y-2118712D01*
X21035000Y-6082817D01*
X20965506Y-6119963D01*
X20868815Y-6199315D01*
X20789463Y-6296006D01*
X20730498Y-6406320D01*
X20694188Y-6526018D01*
X20681928Y-6650500D01*
X20681928Y-7849500D01*
X20694188Y-7973982D01*
X20730498Y-8093680D01*
X20789463Y-8203994D01*
X20868815Y-8300685D01*
X20965506Y-8380037D01*
X21075820Y-8439002D01*
X21195518Y-8475312D01*
X21320000Y-8487572D01*
X22043934Y-8487572D01*
X22047764Y-8492239D01*
X22075809Y-8515255D01*
X24355245Y-10794692D01*
X24378261Y-10822737D01*
X24490179Y-10914586D01*
X24617866Y-10982836D01*
X24723966Y-11015021D01*
X24756414Y-11024864D01*
X24900499Y-11039055D01*
X24936604Y-11035499D01*
X25141928Y-11035499D01*
X25141928Y-11849500D01*
X25154188Y-11973982D01*
X25190498Y-12093680D01*
X25249463Y-12203994D01*
X25328815Y-12300685D01*
X25425506Y-12380037D01*
X25470000Y-12403820D01*
X25470001Y-13692668D01*
X25466324Y-13730000D01*
X25470001Y-13767333D01*
X25480998Y-13878986D01*
X25488567Y-13903937D01*
X25504404Y-13956149D01*
X21896554Y-17564000D01*
X19965000Y-17564000D01*
X19965000Y-14917183D01*
X20034494Y-14880037D01*
X20131185Y-14800685D01*
X20210537Y-14703994D01*
X20269502Y-14593680D01*
X20305812Y-14473982D01*
X20318072Y-14349500D01*
X20318072Y-13150500D01*
X20305812Y-13026018D01*
X20269502Y-12906320D01*
X20210537Y-12796006D01*
X20131185Y-12699315D01*
X20034494Y-12619963D01*
X19924180Y-12560998D01*
X19804482Y-12524688D01*
X19680000Y-12512428D01*
X18780000Y-12512428D01*
X18655518Y-12524688D01*
X18535820Y-12560998D01*
X18425506Y-12619963D01*
X18328815Y-12699315D01*
X18250000Y-12795352D01*
X18171185Y-12699315D01*
X18074494Y-12619963D01*
X17964180Y-12560998D01*
X17844482Y-12524688D01*
X17720000Y-12512428D01*
X16820000Y-12512428D01*
X16695518Y-12524688D01*
X16575820Y-12560998D01*
X16465506Y-12619963D01*
X16368815Y-12699315D01*
X16289463Y-12796006D01*
X16230498Y-12906320D01*
X16194188Y-13026018D01*
X16181928Y-13150500D01*
X16181928Y-14349500D01*
X16194188Y-14473982D01*
X16230498Y-14593680D01*
X16289463Y-14703994D01*
X16361567Y-14791853D01*
X16282795Y-14909744D01*
X16204774Y-15098102D01*
X16165000Y-15298061D01*
X16165000Y-15501939D01*
X16204774Y-15701898D01*
X16282795Y-15890256D01*
X16396063Y-16059774D01*
X16540226Y-16203937D01*
X16709744Y-16317205D01*
X16898102Y-16395226D01*
X17098061Y-16435000D01*
X17301939Y-16435000D01*
X17501898Y-16395226D01*
X17690256Y-16317205D01*
X17859774Y-16203937D01*
X18003937Y-16059774D01*
X18117205Y-15890256D01*
X18195226Y-15701898D01*
X18235000Y-15501939D01*
X18235000Y-15298061D01*
X18195226Y-15098102D01*
X18117205Y-14909744D01*
X18089259Y-14867920D01*
X18171185Y-14800685D01*
X18250000Y-14704648D01*
X18328815Y-14800685D01*
X18425506Y-14880037D01*
X18495000Y-14917183D01*
X18495001Y-17564000D01*
X15465000Y-17564000D01*
X15465000Y-14917183D01*
X15534494Y-14880037D01*
X15631185Y-14800685D01*
X15710537Y-14703994D01*
X15769502Y-14593680D01*
X15805812Y-14473982D01*
X15818072Y-14349500D01*
X15818072Y-13150500D01*
X15805812Y-13026018D01*
X15769502Y-12906320D01*
X15710537Y-12796006D01*
X15631185Y-12699315D01*
X15534494Y-12619963D01*
X15424180Y-12560998D01*
X15304482Y-12524688D01*
X15180000Y-12512428D01*
X14280000Y-12512428D01*
X14155518Y-12524688D01*
X14035820Y-12560998D01*
X13925506Y-12619963D01*
X13828815Y-12699315D01*
X13750000Y-12795352D01*
X13671185Y-12699315D01*
X13574494Y-12619963D01*
X13464180Y-12560998D01*
X13344482Y-12524688D01*
X13220000Y-12512428D01*
X12320000Y-12512428D01*
X12195518Y-12524688D01*
X12075820Y-12560998D01*
X11965506Y-12619963D01*
X11868815Y-12699315D01*
X11789463Y-12796006D01*
X11730498Y-12906320D01*
X11694188Y-13026018D01*
X11681928Y-13150500D01*
X11681928Y-14349500D01*
X11694188Y-14473982D01*
X11730498Y-14593680D01*
X11789463Y-14703994D01*
X11868815Y-14800685D01*
X11965001Y-14879622D01*
X11965000Y-15271289D01*
X11896063Y-15340226D01*
X11782795Y-15509744D01*
X11704774Y-15698102D01*
X11665000Y-15898061D01*
X11665000Y-16101939D01*
X11704774Y-16301898D01*
X11782795Y-16490256D01*
X11896063Y-16659774D01*
X12040226Y-16803937D01*
X12209744Y-16917205D01*
X12398102Y-16995226D01*
X12598061Y-17035000D01*
X12801939Y-17035000D01*
X13001898Y-16995226D01*
X13190256Y-16917205D01*
X13359774Y-16803937D01*
X13503937Y-16659774D01*
X13617205Y-16490256D01*
X13695226Y-16301898D01*
X13735000Y-16101939D01*
X13735000Y-15898061D01*
X13695226Y-15698102D01*
X13617205Y-15509744D01*
X13503937Y-15340226D01*
X13435000Y-15271289D01*
X13435000Y-14947854D01*
X13464180Y-14939002D01*
X13574494Y-14880037D01*
X13671185Y-14800685D01*
X13750000Y-14704648D01*
X13828815Y-14800685D01*
X13925506Y-14880037D01*
X13995000Y-14917183D01*
X13995001Y-17564000D01*
X10965000Y-17564000D01*
X10965000Y-14917183D01*
X11034494Y-14880037D01*
X11131185Y-14800685D01*
X11210537Y-14703994D01*
X11269502Y-14593680D01*
X11305812Y-14473982D01*
X11318072Y-14349500D01*
X11318072Y-13150500D01*
X11305812Y-13026018D01*
X11269502Y-12906320D01*
X11210537Y-12796006D01*
X11131185Y-12699315D01*
X11034494Y-12619963D01*
X10924180Y-12560998D01*
X10804482Y-12524688D01*
X10680000Y-12512428D01*
X9780000Y-12512428D01*
X9655518Y-12524688D01*
X9535820Y-12560998D01*
X9425506Y-12619963D01*
X9328815Y-12699315D01*
X9250000Y-12795352D01*
X9171185Y-12699315D01*
X9074494Y-12619963D01*
X8964180Y-12560998D01*
X8844482Y-12524688D01*
X8720000Y-12512428D01*
X7820000Y-12512428D01*
X7695518Y-12524688D01*
X7575820Y-12560998D01*
X7465506Y-12619963D01*
X7368815Y-12699315D01*
X7289463Y-12796006D01*
X7230498Y-12906320D01*
X7194188Y-13026018D01*
X7181928Y-13150500D01*
X7181928Y-14349500D01*
X7194188Y-14473982D01*
X7230498Y-14593680D01*
X7289463Y-14703994D01*
X7368815Y-14800685D01*
X7465000Y-14879622D01*
X7465000Y-15171289D01*
X7396063Y-15240226D01*
X7282795Y-15409744D01*
X7204774Y-15598102D01*
X7165000Y-15798061D01*
X7165000Y-16001939D01*
X7204774Y-16201898D01*
X7282795Y-16390256D01*
X7396063Y-16559774D01*
X7540226Y-16703937D01*
X7709744Y-16817205D01*
X7898102Y-16895226D01*
X8098061Y-16935000D01*
X8301939Y-16935000D01*
X8501898Y-16895226D01*
X8690256Y-16817205D01*
X8859774Y-16703937D01*
X9003937Y-16559774D01*
X9117205Y-16390256D01*
X9195226Y-16201898D01*
X9235000Y-16001939D01*
X9235000Y-15798061D01*
X9195226Y-15598102D01*
X9117205Y-15409744D01*
X9003937Y-15240226D01*
X8935000Y-15171289D01*
X8935000Y-14947854D01*
X8964180Y-14939002D01*
X9074494Y-14880037D01*
X9171185Y-14800685D01*
X9250000Y-14704648D01*
X9328815Y-14800685D01*
X9425506Y-14880037D01*
X9495000Y-14917183D01*
X9495001Y-17564000D01*
X6443957Y-17564000D01*
X6433537Y-17544506D01*
X6394012Y-17496344D01*
X6427537Y-17455494D01*
X6486502Y-17345180D01*
X6522812Y-17225482D01*
X6535072Y-17101000D01*
X6535072Y-16301000D01*
X6522812Y-16176518D01*
X6486502Y-16056820D01*
X6465000Y-16016593D01*
X6465000Y-14917183D01*
X6534494Y-14880037D01*
X6631185Y-14800685D01*
X6710537Y-14703994D01*
X6769502Y-14593680D01*
X6805812Y-14473982D01*
X6818072Y-14349500D01*
X6818072Y-13150500D01*
X6805812Y-13026018D01*
X6769502Y-12906320D01*
X6710537Y-12796006D01*
X6631185Y-12699315D01*
X6534494Y-12619963D01*
X6424180Y-12560998D01*
X6304482Y-12524688D01*
X6180000Y-12512428D01*
X5280000Y-12512428D01*
X5155518Y-12524688D01*
X5035820Y-12560998D01*
X4925506Y-12619963D01*
X4828815Y-12699315D01*
X4749463Y-12796006D01*
X4690498Y-12906320D01*
X4654188Y-13026018D01*
X4641928Y-13150500D01*
X4641928Y-14349500D01*
X4654188Y-14473982D01*
X4690498Y-14593680D01*
X4749463Y-14703994D01*
X4828815Y-14800685D01*
X4925506Y-14880037D01*
X4995000Y-14917183D01*
X4995001Y-15672974D01*
X4972518Y-15675188D01*
X4852820Y-15711498D01*
X4742506Y-15770463D01*
X4645815Y-15849815D01*
X4566463Y-15946506D01*
X4507498Y-16056820D01*
X4471188Y-16176518D01*
X4458928Y-16301000D01*
X4458928Y-17101000D01*
X4471188Y-17225482D01*
X4507498Y-17345180D01*
X4566463Y-17455494D01*
X4605988Y-17503656D01*
X4572463Y-17544506D01*
X4513498Y-17654820D01*
X4477188Y-17774518D01*
X4464928Y-17899000D01*
X4464928Y-18699000D01*
X4477188Y-18823482D01*
X4513498Y-18943180D01*
X4572463Y-19053494D01*
X4651815Y-19150185D01*
X4748506Y-19229537D01*
X4858820Y-19288502D01*
X4978518Y-19324812D01*
X5103000Y-19337072D01*
X5903000Y-19337072D01*
X6027482Y-19324812D01*
X6147180Y-19288502D01*
X6257494Y-19229537D01*
X6354185Y-19150185D01*
X6433537Y-19053494D01*
X6443957Y-19034000D01*
X10262895Y-19034000D01*
X10299000Y-19037556D01*
X10335105Y-19034000D01*
X14664895Y-19034000D01*
X14701000Y-19037556D01*
X14737105Y-19034000D01*
X19164895Y-19034000D01*
X19201000Y-19037556D01*
X19237105Y-19034000D01*
X22164895Y-19034000D01*
X22201000Y-19037556D01*
X22237105Y-19034000D01*
X22345085Y-19023365D01*
X22483633Y-18981337D01*
X22611320Y-18913087D01*
X22723238Y-18821238D01*
X22746259Y-18793187D01*
X24652791Y-16886655D01*
X26300000Y-16886655D01*
X26300000Y-17233345D01*
X26367636Y-17573373D01*
X26500308Y-17893673D01*
X26692919Y-18181935D01*
X26938065Y-18427081D01*
X27226327Y-18619692D01*
X27546627Y-18752364D01*
X27886655Y-18820000D01*
X28233345Y-18820000D01*
X28573373Y-18752364D01*
X28893673Y-18619692D01*
X29181935Y-18427081D01*
X29427081Y-18181935D01*
X29619692Y-17893673D01*
X29752364Y-17573373D01*
X29820000Y-17233345D01*
X29820000Y-16886655D01*
X31380000Y-16886655D01*
X31380000Y-17233345D01*
X31447636Y-17573373D01*
X31580308Y-17893673D01*
X31772919Y-18181935D01*
X32018065Y-18427081D01*
X32306327Y-18619692D01*
X32626627Y-18752364D01*
X32966655Y-18820000D01*
X33313345Y-18820000D01*
X33653373Y-18752364D01*
X33973673Y-18619692D01*
X34261935Y-18427081D01*
X34507081Y-18181935D01*
X34699692Y-17893673D01*
X34832364Y-17573373D01*
X34900000Y-17233345D01*
X34900000Y-16886655D01*
X34832364Y-16546627D01*
X34699692Y-16226327D01*
X34507081Y-15938065D01*
X34261935Y-15692919D01*
X33973673Y-15500308D01*
X33653373Y-15367636D01*
X33313345Y-15300000D01*
X32966655Y-15300000D01*
X32626627Y-15367636D01*
X32306327Y-15500308D01*
X32018065Y-15692919D01*
X31772919Y-15938065D01*
X31580308Y-16226327D01*
X31447636Y-16546627D01*
X31380000Y-16886655D01*
X29820000Y-16886655D01*
X29752364Y-16546627D01*
X29619692Y-16226327D01*
X29427081Y-15938065D01*
X29181935Y-15692919D01*
X28893673Y-15500308D01*
X28573373Y-15367636D01*
X28233345Y-15300000D01*
X27886655Y-15300000D01*
X27546627Y-15367636D01*
X27226327Y-15500308D01*
X26938065Y-15692919D01*
X26692919Y-15938065D01*
X26500308Y-16226327D01*
X26367636Y-16546627D01*
X26300000Y-16886655D01*
X24652791Y-16886655D01*
X26779447Y-14760000D01*
X30462678Y-14760000D01*
X30500000Y-14763676D01*
X30537322Y-14760000D01*
X35462678Y-14760000D01*
X35500000Y-14763676D01*
X35537322Y-14760000D01*
X39962678Y-14760000D01*
X40000000Y-14763676D01*
X40037322Y-14760000D01*
X44962678Y-14760000D01*
X45000000Y-14763676D01*
X45037322Y-14760000D01*
X49462678Y-14760000D01*
X49500000Y-14763676D01*
X49537322Y-14760000D01*
X54462678Y-14760000D01*
X54500000Y-14763676D01*
X54537322Y-14760000D01*
X58962678Y-14760000D01*
X59000000Y-14763676D01*
X59037322Y-14760000D01*
X63962678Y-14760000D01*
X64000000Y-14763676D01*
X64037322Y-14760000D01*
X67765000Y-14760000D01*
X67765001Y-17663885D01*
X67761444Y-17700000D01*
X67775635Y-17844085D01*
X67804731Y-17940000D01*
X67817664Y-17982633D01*
X67885914Y-18110320D01*
X67977763Y-18222238D01*
X68005808Y-18245254D01*
X69454746Y-19694193D01*
X69477762Y-19722238D01*
X69589680Y-19814087D01*
X69717367Y-19882337D01*
X69855915Y-19924365D01*
X69963895Y-19935000D01*
X69963904Y-19935000D01*
X69999999Y-19938555D01*
X70036094Y-19935000D01*
X70222275Y-19935000D01*
X70278502Y-20040192D01*
X70332958Y-20121691D01*
X70412310Y-20218382D01*
X70481618Y-20287690D01*
X70578309Y-20367042D01*
X70659808Y-20421498D01*
X70770125Y-20480464D01*
X70860681Y-20517973D01*
X70980377Y-20554282D01*
X71076510Y-20573404D01*
X71145789Y-20580227D01*
X73259754Y-22694193D01*
X73282770Y-22722238D01*
X73394688Y-22814087D01*
X73522375Y-22882337D01*
X73618894Y-22911616D01*
X73660922Y-22924365D01*
X73805008Y-22938556D01*
X73841113Y-22935000D01*
X74687889Y-22935000D01*
X74704528Y-22989851D01*
X74786595Y-23143387D01*
X74897038Y-23277962D01*
X75031613Y-23388405D01*
X75185149Y-23470472D01*
X75351745Y-23521008D01*
X75524999Y-23538072D01*
X76050001Y-23538072D01*
X76223255Y-23521008D01*
X76389851Y-23470472D01*
X76543387Y-23388405D01*
X76677962Y-23277962D01*
X76700000Y-23251109D01*
X76722038Y-23277962D01*
X76856613Y-23388405D01*
X77010149Y-23470472D01*
X77176745Y-23521008D01*
X77349999Y-23538072D01*
X77875001Y-23538072D01*
X78048255Y-23521008D01*
X78214851Y-23470472D01*
X78368387Y-23388405D01*
X78502962Y-23277962D01*
X78613405Y-23143387D01*
X78695472Y-22989851D01*
X78742445Y-22835000D01*
X78911928Y-22835000D01*
X78911928Y-22950000D01*
X78924188Y-23074482D01*
X78960498Y-23194180D01*
X79019463Y-23304494D01*
X79098815Y-23401185D01*
X79195506Y-23480537D01*
X79305820Y-23539502D01*
X79425518Y-23575812D01*
X79550000Y-23588072D01*
X81250000Y-23588072D01*
X81374482Y-23575812D01*
X81494180Y-23539502D01*
X81604494Y-23480537D01*
X81701185Y-23401185D01*
X81780537Y-23304494D01*
X81839502Y-23194180D01*
X81875812Y-23074482D01*
X81888072Y-22950000D01*
X81888072Y-21250000D01*
X81875812Y-21125518D01*
X81839502Y-21005820D01*
X81780537Y-20895506D01*
X81701185Y-20798815D01*
X81604494Y-20719463D01*
X81494180Y-20660498D01*
X81374482Y-20624188D01*
X81250000Y-20611928D01*
X79550000Y-20611928D01*
X79425518Y-20624188D01*
X79305820Y-20660498D01*
X79195506Y-20719463D01*
X79098815Y-20798815D01*
X79019463Y-20895506D01*
X78960498Y-21005820D01*
X78924188Y-21125518D01*
X78911928Y-21250000D01*
X78911928Y-21365000D01*
X78671339Y-21365000D01*
X78613405Y-21256613D01*
X78502962Y-21122038D01*
X78368387Y-21011595D01*
X78214851Y-20929528D01*
X78048255Y-20878992D01*
X77875001Y-20861928D01*
X77349999Y-20861928D01*
X77176745Y-20878992D01*
X77010149Y-20929528D01*
X76856613Y-21011595D01*
X76722038Y-21122038D01*
X76700000Y-21148891D01*
X76677962Y-21122038D01*
X76543387Y-21011595D01*
X76389851Y-20929528D01*
X76223255Y-20878992D01*
X76050001Y-20861928D01*
X75524999Y-20861928D01*
X75351745Y-20878992D01*
X75185149Y-20929528D01*
X75031613Y-21011595D01*
X74897038Y-21122038D01*
X74786595Y-21256613D01*
X74704528Y-21410149D01*
X74687889Y-21465000D01*
X74109455Y-21465000D01*
X73091812Y-20447358D01*
X73140192Y-20421498D01*
X73221691Y-20367042D01*
X73318382Y-20287690D01*
X73387690Y-20218382D01*
X73467042Y-20121691D01*
X73521498Y-20040192D01*
X73577725Y-19935000D01*
X79563895Y-19935000D01*
X79600000Y-19938556D01*
X79636105Y-19935000D01*
X79688141Y-19929875D01*
X79744085Y-19924365D01*
X79744088Y-19924364D01*
X79863727Y-19888072D01*
X81250000Y-19888072D01*
X81374482Y-19875812D01*
X81494180Y-19839502D01*
X81604494Y-19780537D01*
X81701185Y-19701185D01*
X81780537Y-19604494D01*
X81839502Y-19494180D01*
X81875812Y-19374482D01*
X81888072Y-19250000D01*
X81888072Y-19135000D01*
X83263895Y-19135000D01*
X83300000Y-19138556D01*
X83336105Y-19135000D01*
X83444085Y-19124365D01*
X83582633Y-19082337D01*
X83710320Y-19014087D01*
X83822238Y-18922238D01*
X83845259Y-18894187D01*
X87646928Y-15092519D01*
X87646928Y-15250001D01*
X87663992Y-15423255D01*
X87714528Y-15589851D01*
X87796595Y-15743387D01*
X87907038Y-15877962D01*
X88041613Y-15988405D01*
X88195149Y-16070472D01*
X88361745Y-16121008D01*
X88534999Y-16138072D01*
X89815000Y-16138072D01*
X89815000Y-24340000D01*
X11905802Y-24340000D01*
X11959774Y-24303937D01*
X12103937Y-24159774D01*
X12217205Y-23990256D01*
X12295226Y-23801898D01*
X12335000Y-23601939D01*
X12335000Y-23398061D01*
X12295226Y-23198102D01*
X12217205Y-23009744D01*
X12103937Y-22840226D01*
X11959774Y-22696063D01*
X11790256Y-22582795D01*
X11601898Y-22504774D01*
X11401939Y-22465000D01*
X11198061Y-22465000D01*
X10998102Y-22504774D01*
X10809744Y-22582795D01*
X10640226Y-22696063D01*
X10571289Y-22765000D01*
X-4895553Y-22765000D01*
X-5693898Y-21966655D01*
X26300000Y-21966655D01*
X26300000Y-22313345D01*
X26367636Y-22653373D01*
X26500308Y-22973673D01*
X26692919Y-23261935D01*
X26938065Y-23507081D01*
X27226327Y-23699692D01*
X27546627Y-23832364D01*
X27886655Y-23900000D01*
X28233345Y-23900000D01*
X28573373Y-23832364D01*
X28893673Y-23699692D01*
X29181935Y-23507081D01*
X29427081Y-23261935D01*
X29619692Y-22973673D01*
X29752364Y-22653373D01*
X29820000Y-22313345D01*
X29820000Y-21966655D01*
X31380000Y-21966655D01*
X31380000Y-22313345D01*
X31447636Y-22653373D01*
X31580308Y-22973673D01*
X31772919Y-23261935D01*
X32018065Y-23507081D01*
X32306327Y-23699692D01*
X32626627Y-23832364D01*
X32966655Y-23900000D01*
X33313345Y-23900000D01*
X33653373Y-23832364D01*
X33973673Y-23699692D01*
X34261935Y-23507081D01*
X34507081Y-23261935D01*
X34699692Y-22973673D01*
X34832364Y-22653373D01*
X34900000Y-22313345D01*
X34900000Y-21966655D01*
X34832364Y-21626627D01*
X34699692Y-21306327D01*
X34507081Y-21018065D01*
X34261935Y-20772919D01*
X33973673Y-20580308D01*
X33653373Y-20447636D01*
X33313345Y-20380000D01*
X32966655Y-20380000D01*
X32626627Y-20447636D01*
X32306327Y-20580308D01*
X32018065Y-20772919D01*
X31772919Y-21018065D01*
X31580308Y-21306327D01*
X31447636Y-21626627D01*
X31380000Y-21966655D01*
X29820000Y-21966655D01*
X29752364Y-21626627D01*
X29619692Y-21306327D01*
X29427081Y-21018065D01*
X29181935Y-20772919D01*
X28893673Y-20580308D01*
X28573373Y-20447636D01*
X28233345Y-20380000D01*
X27886655Y-20380000D01*
X27546627Y-20447636D01*
X27226327Y-20580308D01*
X26938065Y-20772919D01*
X26692919Y-21018065D01*
X26500308Y-21306327D01*
X26367636Y-21626627D01*
X26300000Y-21966655D01*
X-5693898Y-21966655D01*
X-7865000Y-19795554D01*
X-7865000Y-19436504D01*
X28940000Y-19436504D01*
X28940000Y-19763496D01*
X29003793Y-20084204D01*
X29128927Y-20386305D01*
X29310594Y-20658188D01*
X29541812Y-20889406D01*
X29813695Y-21071073D01*
X30115796Y-21196207D01*
X30436504Y-21260000D01*
X30763496Y-21260000D01*
X31084204Y-21196207D01*
X31386305Y-21071073D01*
X31658188Y-20889406D01*
X31889406Y-20658188D01*
X32071073Y-20386305D01*
X32196207Y-20084204D01*
X32260000Y-19763496D01*
X32260000Y-19436504D01*
X32196207Y-19115796D01*
X32071073Y-18813695D01*
X31889406Y-18541812D01*
X31658188Y-18310594D01*
X31386305Y-18128927D01*
X31084204Y-18003793D01*
X30763496Y-17940000D01*
X30436504Y-17940000D01*
X30115796Y-18003793D01*
X29813695Y-18128927D01*
X29541812Y-18310594D01*
X29310594Y-18541812D01*
X29128927Y-18813695D01*
X29003793Y-19115796D01*
X28940000Y-19436504D01*
X-7865000Y-19436504D01*
X-7865000Y7800000D01*
X-5438556Y7800000D01*
X-5435000Y7763895D01*
X-5434999Y-9663885D01*
X-5438556Y-9700000D01*
X-5424365Y-9844085D01*
X-5393530Y-9945732D01*
X-5382336Y-9982633D01*
X-5314086Y-10110320D01*
X-5222237Y-10222238D01*
X-5194192Y-10245254D01*
X-3135000Y-12304447D01*
X-3135000Y-12808771D01*
X-3014524Y-13414446D01*
X-2778201Y-13984979D01*
X-2435114Y-14498446D01*
X-1998446Y-14935114D01*
X-1484979Y-15278201D01*
X-914446Y-15514524D01*
X-308771Y-15635000D01*
X308771Y-15635000D01*
X914446Y-15514524D01*
X1484979Y-15278201D01*
X1998446Y-14935114D01*
X2435114Y-14498446D01*
X2778201Y-13984979D01*
X3014524Y-13414446D01*
X3135000Y-12808771D01*
X3135000Y-12191229D01*
X3014524Y-11585554D01*
X2778201Y-11015021D01*
X2435114Y-10501554D01*
X1998446Y-10064886D01*
X1484979Y-9721799D01*
X914446Y-9485476D01*
X308771Y-9365000D01*
X-308771Y-9365000D01*
X-914446Y-9485476D01*
X-1484979Y-9721799D01*
X-1998446Y-10064886D01*
X-2435114Y-10501554D01*
X-2604898Y-10755655D01*
X-3965000Y-9395554D01*
X-3965000Y4280104D01*
X-2842500Y4280104D01*
X-2842500Y3999896D01*
X-2787834Y3725072D01*
X-2680603Y3466194D01*
X-2524928Y3233209D01*
X-2326791Y3035072D01*
X-2093806Y2879397D01*
X-1834928Y2772166D01*
X-1773766Y2760000D01*
X-1834928Y2747834D01*
X-2093806Y2640603D01*
X-2326791Y2484928D01*
X-2524928Y2286791D01*
X-2680603Y2053806D01*
X-2787834Y1794928D01*
X-2842500Y1520104D01*
X-2842500Y1239896D01*
X-2787834Y965072D01*
X-2680603Y706194D01*
X-2524928Y473209D01*
X-2326791Y275072D01*
X-2093806Y119397D01*
X-1834928Y12166D01*
X-1773766Y0D01*
X-1834928Y-12166D01*
X-2093806Y-119397D01*
X-2326791Y-275072D01*
X-2524928Y-473209D01*
X-2680603Y-706194D01*
X-2787834Y-965072D01*
X-2842500Y-1239896D01*
X-2842500Y-1520104D01*
X-2787834Y-1794928D01*
X-2680603Y-2053806D01*
X-2524928Y-2286791D01*
X-2326791Y-2484928D01*
X-2093806Y-2640603D01*
X-1834928Y-2747834D01*
X-1773766Y-2760000D01*
X-1834928Y-2772166D01*
X-2093806Y-2879397D01*
X-2326791Y-3035072D01*
X-2524928Y-3233209D01*
X-2680603Y-3466194D01*
X-2787834Y-3725072D01*
X-2842500Y-3999896D01*
X-2842500Y-4280104D01*
X-2787834Y-4554928D01*
X-2680603Y-4813806D01*
X-2524928Y-5046791D01*
X-2326791Y-5244928D01*
X-2093806Y-5400603D01*
X-1834928Y-5507834D01*
X-1560104Y-5562500D01*
X-1279896Y-5562500D01*
X-1005072Y-5507834D01*
X-746194Y-5400603D01*
X-513209Y-5244928D01*
X-315072Y-5046791D01*
X-159397Y-4813806D01*
X-125719Y-4732500D01*
X-5572Y-4732500D01*
X-5572Y-6307500D01*
X6688Y-6431982D01*
X42998Y-6551680D01*
X101963Y-6661994D01*
X181315Y-6758685D01*
X278006Y-6838037D01*
X388320Y-6897002D01*
X508018Y-6933312D01*
X632500Y-6945572D01*
X2207500Y-6945572D01*
X2331982Y-6933312D01*
X2451680Y-6897002D01*
X2561994Y-6838037D01*
X2658685Y-6758685D01*
X2738037Y-6661994D01*
X2797002Y-6551680D01*
X2833312Y-6431982D01*
X2845572Y-6307500D01*
X2845572Y-4732500D01*
X2833312Y-4608018D01*
X2797002Y-4488320D01*
X2738037Y-4378006D01*
X2658685Y-4281315D01*
X2561994Y-4201963D01*
X2451680Y-4142998D01*
X2331982Y-4106688D01*
X2207500Y-4094428D01*
X1915577Y-4094428D01*
X2093806Y-4020603D01*
X2326791Y-3864928D01*
X2524928Y-3666791D01*
X2680603Y-3433806D01*
X2787834Y-3174928D01*
X2842500Y-2900104D01*
X2842500Y-2619896D01*
X2787834Y-2345072D01*
X2680603Y-2086194D01*
X2524928Y-1853209D01*
X2326791Y-1655072D01*
X2093806Y-1499397D01*
X1834928Y-1392166D01*
X1781522Y-1381543D01*
X2031928Y-1291774D01*
X2154102Y-1226470D01*
X2224171Y-983776D01*
X1420000Y-179605D01*
X615829Y-983776D01*
X685898Y-1226470D01*
X939276Y-1346121D01*
X1071048Y-1379043D01*
X1005072Y-1392166D01*
X746194Y-1499397D01*
X513209Y-1655072D01*
X315072Y-1853209D01*
X159397Y-2086194D01*
X52166Y-2345072D01*
X-2500Y-2619896D01*
X-2500Y-2900104D01*
X52166Y-3174928D01*
X159397Y-3433806D01*
X315072Y-3666791D01*
X513209Y-3864928D01*
X746194Y-4020603D01*
X924423Y-4094428D01*
X632500Y-4094428D01*
X508018Y-4106688D01*
X388320Y-4142998D01*
X278006Y-4201963D01*
X181315Y-4281315D01*
X101963Y-4378006D01*
X42998Y-4488320D01*
X6688Y-4608018D01*
X-5572Y-4732500D01*
X-125719Y-4732500D01*
X-52166Y-4554928D01*
X2500Y-4280104D01*
X2500Y-3999896D01*
X-52166Y-3725072D01*
X-159397Y-3466194D01*
X-315072Y-3233209D01*
X-513209Y-3035072D01*
X-746194Y-2879397D01*
X-1005072Y-2772166D01*
X-1066234Y-2760000D01*
X-1005072Y-2747834D01*
X-746194Y-2640603D01*
X-513209Y-2484928D01*
X-315072Y-2286791D01*
X-159397Y-2053806D01*
X-52166Y-1794928D01*
X2500Y-1520104D01*
X2500Y-1239896D01*
X-52166Y-965072D01*
X-159397Y-706194D01*
X-315072Y-473209D01*
X-513209Y-275072D01*
X-746194Y-119397D01*
X-863015Y-71008D01*
X-7619Y-71008D01*
X33666Y-348157D01*
X128226Y-611928D01*
X193530Y-734102D01*
X436224Y-804171D01*
X1240395Y0D01*
X1599605Y0D01*
X2403776Y-804171D01*
X2646470Y-734102D01*
X2766121Y-480724D01*
X2834040Y-208872D01*
X2847619Y71008D01*
X2806334Y348157D01*
X2711774Y611928D01*
X2646470Y734102D01*
X2403776Y804171D01*
X1599605Y0D01*
X1240395Y0D01*
X436224Y804171D01*
X193530Y734102D01*
X73879Y480724D01*
X5960Y208872D01*
X-7619Y-71008D01*
X-863015Y-71008D01*
X-1005072Y-12166D01*
X-1066234Y0D01*
X-1005072Y12166D01*
X-746194Y119397D01*
X-513209Y275072D01*
X-315072Y473209D01*
X-159397Y706194D01*
X-52166Y965072D01*
X2500Y1239896D01*
X2500Y1520104D01*
X-52166Y1794928D01*
X-159397Y2053806D01*
X-315072Y2286791D01*
X-513209Y2484928D01*
X-746194Y2640603D01*
X-1005072Y2747834D01*
X-1066234Y2760000D01*
X-1005072Y2772166D01*
X-746194Y2879397D01*
X-513209Y3035072D01*
X-315072Y3233209D01*
X-159397Y3466194D01*
X-52166Y3725072D01*
X2500Y3999896D01*
X2500Y4280104D01*
X-52166Y4554928D01*
X-159397Y4813806D01*
X-315072Y5046791D01*
X-513209Y5244928D01*
X-746194Y5400603D01*
X-1005072Y5507834D01*
X-1279896Y5562500D01*
X-1560104Y5562500D01*
X-1834928Y5507834D01*
X-2093806Y5400603D01*
X-2326791Y5244928D01*
X-2524928Y5046791D01*
X-2680603Y4813806D01*
X-2787834Y4554928D01*
X-2842500Y4280104D01*
X-3965000Y4280104D01*
X-3965000Y5660104D01*
X-2500Y5660104D01*
X-2500Y5379896D01*
X52166Y5105072D01*
X159397Y4846194D01*
X315072Y4613209D01*
X513209Y4415072D01*
X746194Y4259397D01*
X1005072Y4152166D01*
X1066234Y4140000D01*
X1005072Y4127834D01*
X746194Y4020603D01*
X513209Y3864928D01*
X315072Y3666791D01*
X159397Y3433806D01*
X52166Y3174928D01*
X-2500Y2900104D01*
X-2500Y2619896D01*
X52166Y2345072D01*
X159397Y2086194D01*
X315072Y1853209D01*
X513209Y1655072D01*
X746194Y1499397D01*
X1005072Y1392166D01*
X1058478Y1381543D01*
X808072Y1291774D01*
X685898Y1226470D01*
X615829Y983776D01*
X1420000Y179605D01*
X2224171Y983776D01*
X2154102Y1226470D01*
X1900724Y1346121D01*
X1768952Y1379043D01*
X1834928Y1392166D01*
X2093806Y1499397D01*
X2326791Y1655072D01*
X2524928Y1853209D01*
X2680603Y2086194D01*
X2787834Y2345072D01*
X2842500Y2619896D01*
X2842500Y2900104D01*
X2787834Y3174928D01*
X2680603Y3433806D01*
X2524928Y3666791D01*
X2326791Y3864928D01*
X2093806Y4020603D01*
X1834928Y4127834D01*
X1773766Y4140000D01*
X1834928Y4152166D01*
X2093806Y4259397D01*
X2326791Y4415072D01*
X2524928Y4613209D01*
X2680603Y4846194D01*
X2787834Y5105072D01*
X2842500Y5379896D01*
X2842500Y5660104D01*
X2787834Y5934928D01*
X2680603Y6193806D01*
X2524928Y6426791D01*
X2326791Y6624928D01*
X2093806Y6780603D01*
X1834928Y6887834D01*
X1560104Y6942500D01*
X1279896Y6942500D01*
X1005072Y6887834D01*
X746194Y6780603D01*
X513209Y6624928D01*
X315072Y6426791D01*
X159397Y6193806D01*
X52166Y5934928D01*
X-2500Y5660104D01*
X-3965000Y5660104D01*
X-3965000Y7495554D01*
X-3611054Y7849500D01*
X4641928Y7849500D01*
X4641928Y6650500D01*
X4654188Y6526018D01*
X4690498Y6406320D01*
X4749463Y6296006D01*
X4828815Y6199315D01*
X4925506Y6119963D01*
X4995000Y6082817D01*
X4995001Y1036115D01*
X4991444Y1000000D01*
X4995000Y963895D01*
X4995001Y-6082817D01*
X4925506Y-6119963D01*
X4828815Y-6199315D01*
X4749463Y-6296006D01*
X4690498Y-6406320D01*
X4654188Y-6526018D01*
X4641928Y-6650500D01*
X4641928Y-7849500D01*
X4654188Y-7973982D01*
X4690498Y-8093680D01*
X4749463Y-8203994D01*
X4828815Y-8300685D01*
X4925506Y-8380037D01*
X5035820Y-8439002D01*
X5155518Y-8475312D01*
X5280000Y-8487572D01*
X6180000Y-8487572D01*
X6304482Y-8475312D01*
X6424180Y-8439002D01*
X6534494Y-8380037D01*
X6631185Y-8300685D01*
X6710537Y-8203994D01*
X6769502Y-8093680D01*
X6805812Y-7973982D01*
X6818072Y-7849500D01*
X6818072Y-6650500D01*
X6805812Y-6526018D01*
X6769502Y-6406320D01*
X6710537Y-6296006D01*
X6631185Y-6199315D01*
X6534494Y-6119963D01*
X6465000Y-6082817D01*
X6465000Y-88711D01*
X6530226Y-153937D01*
X6699744Y-267205D01*
X6888102Y-345226D01*
X7088061Y-385000D01*
X7291939Y-385000D01*
X7491898Y-345226D01*
X7680256Y-267205D01*
X7849774Y-153937D01*
X7993937Y-9774D01*
X8107205Y159744D01*
X8185226Y348102D01*
X8225000Y548061D01*
X8225000Y751939D01*
X8185226Y951898D01*
X8107205Y1140256D01*
X7993937Y1309774D01*
X7849774Y1453937D01*
X7680256Y1567205D01*
X7491898Y1645226D01*
X7291939Y1685000D01*
X7113854Y1685000D01*
X6984085Y1724365D01*
X6876105Y1735000D01*
X6840000Y1738556D01*
X6803895Y1735000D01*
X6465000Y1735000D01*
X6465000Y6082817D01*
X6534494Y6119963D01*
X6631185Y6199315D01*
X6710537Y6296006D01*
X6769502Y6406320D01*
X6805812Y6526018D01*
X6818072Y6650500D01*
X6818072Y7849500D01*
X6805812Y7973982D01*
X6769502Y8093680D01*
X6710537Y8203994D01*
X6631185Y8300685D01*
X6534494Y8380037D01*
X6424180Y8439002D01*
X6304482Y8475312D01*
X6180000Y8487572D01*
X5280000Y8487572D01*
X5155518Y8475312D01*
X5035820Y8439002D01*
X4925506Y8380037D01*
X4828815Y8300685D01*
X4749463Y8203994D01*
X4690498Y8093680D01*
X4654188Y7973982D01*
X4641928Y7849500D01*
X-3611054Y7849500D01*
X-1637106Y9823447D01*
X-1484979Y9721799D01*
X-914446Y9485476D01*
X-308771Y9365000D01*
X308771Y9365000D01*
X914446Y9485476D01*
X1484979Y9721799D01*
X1998446Y10064886D01*
X2435114Y10501554D01*
X2778201Y11015021D01*
X3014524Y11585554D01*
X3135000Y12191229D01*
X3135000Y12808771D01*
X3014524Y13414446D01*
X2778201Y13984979D01*
X2435114Y14498446D01*
X1998446Y14935114D01*
X1484979Y15278201D01*
X914446Y15514524D01*
X308771Y15635000D01*
X-308771Y15635000D01*
X-914446Y15514524D01*
X-1484979Y15278201D01*
X-1998446Y14935114D01*
X-2435114Y14498446D01*
X-2778201Y13984979D01*
X-3014524Y13414446D01*
X-3135000Y12808771D01*
X-3135000Y12191229D01*
X-3014524Y11585554D01*
X-2778201Y11015021D01*
X-2676553Y10862894D01*
X-5194192Y8345254D01*
X-5222238Y8322237D01*
X-5314087Y8210319D01*
X-5382337Y8082632D01*
X-5405558Y8006083D01*
X-5424365Y7944085D01*
X-5438556Y7800000D01*
X-7865000Y7800000D01*
X-7865000Y22495554D01*
X-7695553Y22665000D01*
X25595554Y22665000D01*
X26254746Y22005807D01*
G37*
G04 #@! TD.AperFunction*
D25*
X87088537Y-7531214D02*
X85793628Y-6236305D01*
X86075000Y-6238072D01*
X86199482Y-6225812D01*
X86319180Y-6189502D01*
X86429494Y-6130537D01*
X86526185Y-6051185D01*
X86605537Y-5954494D01*
X86664502Y-5844180D01*
X86700812Y-5724482D01*
X86713072Y-5600000D01*
X86710000Y-5585750D01*
X86551250Y-5427000D01*
X85427000Y-5427000D01*
X85427000Y-5447000D01*
X85173000Y-5447000D01*
X85173000Y-5427000D01*
X85153000Y-5427000D01*
X85153000Y-5238072D01*
X85925000Y-5238072D01*
X86078745Y-5222929D01*
X86226582Y-5178084D01*
X86236093Y-5173000D01*
X86551250Y-5173000D01*
X86710000Y-5014250D01*
X86713072Y-5000000D01*
X86700812Y-4875518D01*
X86664502Y-4755820D01*
X86656398Y-4740658D01*
X86697929Y-4603745D01*
X86713072Y-4450000D01*
X86713072Y-4150000D01*
X86697929Y-3996255D01*
X86653084Y-3848418D01*
X86627204Y-3800000D01*
X86641854Y-3772592D01*
X87088536Y-3325910D01*
X87088537Y-7531214D01*
G04 #@! TA.AperFunction,Conductor*
D26*
G36*
X87088537Y-7531214D02*
G01*
X85793628Y-6236305D01*
X86075000Y-6238072D01*
X86199482Y-6225812D01*
X86319180Y-6189502D01*
X86429494Y-6130537D01*
X86526185Y-6051185D01*
X86605537Y-5954494D01*
X86664502Y-5844180D01*
X86700812Y-5724482D01*
X86713072Y-5600000D01*
X86710000Y-5585750D01*
X86551250Y-5427000D01*
X85427000Y-5427000D01*
X85427000Y-5447000D01*
X85173000Y-5447000D01*
X85173000Y-5427000D01*
X85153000Y-5427000D01*
X85153000Y-5238072D01*
X85925000Y-5238072D01*
X86078745Y-5222929D01*
X86226582Y-5178084D01*
X86236093Y-5173000D01*
X86551250Y-5173000D01*
X86710000Y-5014250D01*
X86713072Y-5000000D01*
X86700812Y-4875518D01*
X86664502Y-4755820D01*
X86656398Y-4740658D01*
X86697929Y-4603745D01*
X86713072Y-4450000D01*
X86713072Y-4150000D01*
X86697929Y-3996255D01*
X86653084Y-3848418D01*
X86627204Y-3800000D01*
X86641854Y-3772592D01*
X87088536Y-3325910D01*
X87088537Y-7531214D01*
G37*
G04 #@! TD.AperFunction*
D25*
X84336928Y3249999D02*
X84353992Y3076745D01*
X84404528Y2910149D01*
X84486595Y2756613D01*
X84492022Y2750000D01*
X84486595Y2743387D01*
X84404528Y2589851D01*
X84387889Y2535000D01*
X83916094Y2535000D01*
X83879999Y2538555D01*
X83843904Y2535000D01*
X83843895Y2535000D01*
X83735915Y2524365D01*
X83597367Y2482337D01*
X83469680Y2414087D01*
X83357762Y2322238D01*
X83334746Y2294193D01*
X82588626Y1548072D01*
X82540000Y1548072D01*
X82388206Y1533122D01*
X82256509Y1493172D01*
X82246878Y1498377D01*
X82127348Y1535235D01*
X82005750Y1545000D01*
X81847000Y1386250D01*
X81847000Y1116108D01*
X81821155Y1067755D01*
X81776878Y921794D01*
X81761928Y770000D01*
X81761928Y453000D01*
X81593000Y453000D01*
X81593000Y473000D01*
X81573000Y473000D01*
X81573000Y727000D01*
X81593000Y727000D01*
X81593000Y1386250D01*
X81434250Y1545000D01*
X81312652Y1535235D01*
X81193122Y1498377D01*
X81083079Y1438908D01*
X80986753Y1359113D01*
X80907844Y1262059D01*
X80849386Y1151476D01*
X80835273Y1104173D01*
X80783008Y1156438D01*
X80783008Y1253931D01*
X80743234Y1453890D01*
X80665213Y1642248D01*
X80551945Y1811766D01*
X80469256Y1894455D01*
X81381003Y2806201D01*
X81410001Y2829999D01*
X81504974Y2945724D01*
X81575546Y3077753D01*
X81619003Y3221014D01*
X81630000Y3332667D01*
X81630000Y3332677D01*
X81633676Y3370000D01*
X81630000Y3407323D01*
X81630000Y3596180D01*
X81674494Y3619963D01*
X81771185Y3699315D01*
X81850537Y3796006D01*
X81909502Y3906320D01*
X81930525Y3975622D01*
X81933171Y3969233D01*
X82046439Y3799715D01*
X82190602Y3655552D01*
X82360120Y3542284D01*
X82548478Y3464263D01*
X82748437Y3424489D01*
X82952315Y3424489D01*
X83152274Y3464263D01*
X83340632Y3542284D01*
X83510150Y3655552D01*
X83654313Y3799715D01*
X83767581Y3969233D01*
X83790465Y4024480D01*
X84336928Y4024480D01*
X84336928Y3249999D01*
G04 #@! TA.AperFunction,Conductor*
D26*
G36*
X84336928Y3249999D02*
G01*
X84353992Y3076745D01*
X84404528Y2910149D01*
X84486595Y2756613D01*
X84492022Y2750000D01*
X84486595Y2743387D01*
X84404528Y2589851D01*
X84387889Y2535000D01*
X83916094Y2535000D01*
X83879999Y2538555D01*
X83843904Y2535000D01*
X83843895Y2535000D01*
X83735915Y2524365D01*
X83597367Y2482337D01*
X83469680Y2414087D01*
X83357762Y2322238D01*
X83334746Y2294193D01*
X82588626Y1548072D01*
X82540000Y1548072D01*
X82388206Y1533122D01*
X82256509Y1493172D01*
X82246878Y1498377D01*
X82127348Y1535235D01*
X82005750Y1545000D01*
X81847000Y1386250D01*
X81847000Y1116108D01*
X81821155Y1067755D01*
X81776878Y921794D01*
X81761928Y770000D01*
X81761928Y453000D01*
X81593000Y453000D01*
X81593000Y473000D01*
X81573000Y473000D01*
X81573000Y727000D01*
X81593000Y727000D01*
X81593000Y1386250D01*
X81434250Y1545000D01*
X81312652Y1535235D01*
X81193122Y1498377D01*
X81083079Y1438908D01*
X80986753Y1359113D01*
X80907844Y1262059D01*
X80849386Y1151476D01*
X80835273Y1104173D01*
X80783008Y1156438D01*
X80783008Y1253931D01*
X80743234Y1453890D01*
X80665213Y1642248D01*
X80551945Y1811766D01*
X80469256Y1894455D01*
X81381003Y2806201D01*
X81410001Y2829999D01*
X81504974Y2945724D01*
X81575546Y3077753D01*
X81619003Y3221014D01*
X81630000Y3332667D01*
X81630000Y3332677D01*
X81633676Y3370000D01*
X81630000Y3407323D01*
X81630000Y3596180D01*
X81674494Y3619963D01*
X81771185Y3699315D01*
X81850537Y3796006D01*
X81909502Y3906320D01*
X81930525Y3975622D01*
X81933171Y3969233D01*
X82046439Y3799715D01*
X82190602Y3655552D01*
X82360120Y3542284D01*
X82548478Y3464263D01*
X82748437Y3424489D01*
X82952315Y3424489D01*
X83152274Y3464263D01*
X83340632Y3542284D01*
X83510150Y3655552D01*
X83654313Y3799715D01*
X83767581Y3969233D01*
X83790465Y4024480D01*
X84336928Y4024480D01*
X84336928Y3249999D01*
G37*
G04 #@! TD.AperFunction*
D25*
X86127000Y9127000D02*
X86147000Y9127000D01*
X86147000Y8873000D01*
X86127000Y8873000D01*
X86127000Y8853000D01*
X85873000Y8853000D01*
X85873000Y8873000D01*
X85853000Y8873000D01*
X85853000Y9127000D01*
X85873000Y9127000D01*
X85873000Y9147000D01*
X86127000Y9147000D01*
X86127000Y9127000D01*
G04 #@! TA.AperFunction,Conductor*
D26*
G36*
X86127000Y9127000D02*
G01*
X86147000Y9127000D01*
X86147000Y8873000D01*
X86127000Y8873000D01*
X86127000Y8853000D01*
X85873000Y8853000D01*
X85873000Y8873000D01*
X85853000Y8873000D01*
X85853000Y9127000D01*
X85873000Y9127000D01*
X85873000Y9147000D01*
X86127000Y9147000D01*
X86127000Y9127000D01*
G37*
G04 #@! TD.AperFunction*
D25*
X82596218Y9485000D02*
X82414445Y9485000D01*
X82449777Y9520332D01*
X82560886Y9520332D01*
X82596218Y9485000D01*
G04 #@! TA.AperFunction,Conductor*
D26*
G36*
X82596218Y9485000D02*
G01*
X82414445Y9485000D01*
X82449777Y9520332D01*
X82560886Y9520332D01*
X82596218Y9485000D01*
G37*
G04 #@! TD.AperFunction*
D25*
X82304216Y12656337D02*
X82209744Y12617205D01*
X82040226Y12503937D01*
X81896063Y12359774D01*
X81818256Y12243328D01*
X81771185Y12300685D01*
X81674494Y12380037D01*
X81564180Y12439002D01*
X81444482Y12475312D01*
X81320000Y12487572D01*
X80883230Y12487572D01*
X77535072Y15835729D01*
X77535072Y16199000D01*
X77522812Y16323482D01*
X77486502Y16443180D01*
X77427537Y16553494D01*
X77348185Y16650185D01*
X77251494Y16729537D01*
X77235000Y16738353D01*
X77235000Y17071289D01*
X77303937Y17140226D01*
X77417205Y17309744D01*
X77485627Y17474927D01*
X82304216Y12656337D01*
G04 #@! TA.AperFunction,Conductor*
D26*
G36*
X82304216Y12656337D02*
G01*
X82209744Y12617205D01*
X82040226Y12503937D01*
X81896063Y12359774D01*
X81818256Y12243328D01*
X81771185Y12300685D01*
X81674494Y12380037D01*
X81564180Y12439002D01*
X81444482Y12475312D01*
X81320000Y12487572D01*
X80883230Y12487572D01*
X77535072Y15835729D01*
X77535072Y16199000D01*
X77522812Y16323482D01*
X77486502Y16443180D01*
X77427537Y16553494D01*
X77348185Y16650185D01*
X77251494Y16729537D01*
X77235000Y16738353D01*
X77235000Y17071289D01*
X77303937Y17140226D01*
X77417205Y17309744D01*
X77485627Y17474927D01*
X82304216Y12656337D01*
G37*
G04 #@! TD.AperFunction*
M02*
