M48
; DRILL file {KiCad (5.1.10)-1} date 05/20/22 10:44:44
; FORMAT={-:-/ absolute / inch / decimal}
; #@! TF.CreationDate,2022-05-20T10:44:44-06:00
; #@! TF.GenerationSoftware,Kicad,Pcbnew,(5.1.10)-1
; #@! TF.FileFunction,Plated,1,2,PTH
FMAT,2
INCH
T1C0.0157
T2C0.0394
T3C0.0433
T4C0.0591
T5C0.0669
T6C0.1280
%
G90
G05
T1
X0.2831Y0.0256
X0.315Y-0.2165
X0.3228Y-0.626
X0.3268Y0.1091
X0.4449Y-0.9252
X0.4583Y-0.0039
X0.5Y-0.6299
X0.5012Y0.0551
X0.502Y-0.1642
X0.6685Y-0.1087
X0.6772Y-0.6063
X0.678Y0.2181
X0.7276Y-0.0843
X0.7402Y0.4331
X0.7402Y0.374
X0.7862Y-0.1382
X0.8571Y-0.0547
X0.8583Y-0.6063
X0.8587Y0.163
X0.9291Y-0.5157
X0.9488Y0.4331
X0.9488Y0.3563
X0.9614Y0.1783
X1.0339Y-0.1067
X1.1701Y0.1256
X1.2087Y0.5
X1.2087Y0.3386
X1.2087Y-0.1362
X1.4043Y-0.1067
X1.4055Y0.3209
X1.4098Y0.4997
X1.5768Y-0.1362
X1.5811Y0.126
X1.5827Y0.5039
X1.5827Y0.3031
X1.6268Y0.2854
X1.7807Y-0.1067
X1.8094Y0.5253
X1.9579Y0.126
X1.9579Y-0.1343
X1.9587Y0.5098
X2.1547Y-0.1047
X2.1614Y0.7992
X2.1873Y0.5292
X2.3319Y0.1244
X2.3331Y-0.135
X2.3386Y0.4921
X2.3701Y0.0945
X2.378Y0.252
X2.4843Y-0.0752
X2.5276Y0.2854
X2.5279Y0.4957
X2.5283Y-0.1055
X2.7047Y0.4961
X2.7047Y0.2677
X2.7063Y0.1244
X2.7063Y-0.1315
X2.7559Y0.0866
X2.8504Y-0.0724
X2.9016Y-0.102
X2.9016Y-0.2677
X2.9039Y0.4977
X2.9724Y0.7185
X3.0472Y-0.3445
X3.0551Y-0.2638
X3.0563Y0.765
X3.0803Y-0.1354
X3.0827Y0.498
X3.085Y0.1236
X3.1397Y0.0454
X3.1791Y-0.5512
X3.2126Y0.498
X3.2272Y0.2051
X3.2453Y0.0657
X3.2482Y0.3742
X3.2559Y0.6161
X3.2559Y0.4606
X3.2618Y0.1756
X3.2874Y0.0197
X3.2979Y0.5866
X3.335Y0.5571
X3.3465Y0.4892
X3.3701Y0.5276
X3.4269Y0.2069
X3.4609Y0.5791
X3.511Y0.3434
X3.5157Y0.4921
X3.5173Y0.1614
T2
X3.1693Y-0.8071
T3
X-0.0559Y0.163
X-0.0559Y0.0543
X-0.0559Y-0.0543
X-0.0559Y-0.163
X0.0559Y0.2173
X0.0559Y0.1087
X0.0559Y0.0
X0.0559Y-0.1087
X0.0559Y-0.2173
T4
X1.2047Y-0.7717
T5
X1.1047Y-0.6717
X1.1047Y-0.8717
X1.3047Y-0.6717
X1.3047Y-0.8717
T6
X0.0Y0.4921
X0.0Y-0.4921
T0
M30
