G04 #@! TF.GenerationSoftware,KiCad,Pcbnew,(5.1.9)-1*
G04 #@! TF.CreationDate,2022-05-23T18:25:16-06:00*
G04 #@! TF.ProjectId,Calibrator_02_wResistors,43616c69-6272-4617-946f-725f30325f77,rev?*
G04 #@! TF.SameCoordinates,Original*
G04 #@! TF.FileFunction,Soldermask,Top*
G04 #@! TF.FilePolarity,Negative*
%FSLAX46Y46*%
G04 Gerber Fmt 4.6, Leading zero omitted, Abs format (unit mm)*
G04 Created by KiCad (PCBNEW (5.1.9)-1) date 2022-05-23 18:25:16*
%MOMM*%
%LPD*%
G01*
G04 APERTURE LIST*
%ADD10R,1.700000X1.700000*%
%ADD11C,2.250000*%
%ADD12C,2.050000*%
%ADD13R,0.900000X1.199000*%
%ADD14R,0.280000X0.665000*%
%ADD15R,0.665000X0.280000*%
%ADD16R,2.650000X2.650000*%
%ADD17C,5.000000*%
%ADD18C,1.575000*%
%ADD19R,1.575000X1.575000*%
%ADD20R,0.800000X0.800000*%
G04 APERTURE END LIST*
G36*
G01*
X11475000Y17962500D02*
X11475000Y18437500D01*
G75*
G02*
X11712500Y18675000I237500J0D01*
G01*
X12212500Y18675000D01*
G75*
G02*
X12450000Y18437500I0J-237500D01*
G01*
X12450000Y17962500D01*
G75*
G02*
X12212500Y17725000I-237500J0D01*
G01*
X11712500Y17725000D01*
G75*
G02*
X11475000Y17962500I0J237500D01*
G01*
G37*
G36*
G01*
X9650000Y17962500D02*
X9650000Y18437500D01*
G75*
G02*
X9887500Y18675000I237500J0D01*
G01*
X10387500Y18675000D01*
G75*
G02*
X10625000Y18437500I0J-237500D01*
G01*
X10625000Y17962500D01*
G75*
G02*
X10387500Y17725000I-237500J0D01*
G01*
X9887500Y17725000D01*
G75*
G02*
X9650000Y17962500I0J237500D01*
G01*
G37*
G36*
G01*
X17487500Y16925000D02*
X17012500Y16925000D01*
G75*
G02*
X16775000Y17162500I0J237500D01*
G01*
X16775000Y17662500D01*
G75*
G02*
X17012500Y17900000I237500J0D01*
G01*
X17487500Y17900000D01*
G75*
G02*
X17725000Y17662500I0J-237500D01*
G01*
X17725000Y17162500D01*
G75*
G02*
X17487500Y16925000I-237500J0D01*
G01*
G37*
G36*
G01*
X17487500Y15100000D02*
X17012500Y15100000D01*
G75*
G02*
X16775000Y15337500I0J237500D01*
G01*
X16775000Y15837500D01*
G75*
G02*
X17012500Y16075000I237500J0D01*
G01*
X17487500Y16075000D01*
G75*
G02*
X17725000Y15837500I0J-237500D01*
G01*
X17725000Y15337500D01*
G75*
G02*
X17487500Y15100000I-237500J0D01*
G01*
G37*
G36*
G01*
X14225000Y15512500D02*
X14225000Y15987500D01*
G75*
G02*
X14462500Y16225000I237500J0D01*
G01*
X14962500Y16225000D01*
G75*
G02*
X15200000Y15987500I0J-237500D01*
G01*
X15200000Y15512500D01*
G75*
G02*
X14962500Y15275000I-237500J0D01*
G01*
X14462500Y15275000D01*
G75*
G02*
X14225000Y15512500I0J237500D01*
G01*
G37*
G36*
G01*
X12400000Y15512500D02*
X12400000Y15987500D01*
G75*
G02*
X12637500Y16225000I237500J0D01*
G01*
X13137500Y16225000D01*
G75*
G02*
X13375000Y15987500I0J-237500D01*
G01*
X13375000Y15512500D01*
G75*
G02*
X13137500Y15275000I-237500J0D01*
G01*
X12637500Y15275000D01*
G75*
G02*
X12400000Y15512500I0J237500D01*
G01*
G37*
G36*
G01*
X21987500Y16975000D02*
X21512500Y16975000D01*
G75*
G02*
X21275000Y17212500I0J237500D01*
G01*
X21275000Y17712500D01*
G75*
G02*
X21512500Y17950000I237500J0D01*
G01*
X21987500Y17950000D01*
G75*
G02*
X22225000Y17712500I0J-237500D01*
G01*
X22225000Y17212500D01*
G75*
G02*
X21987500Y16975000I-237500J0D01*
G01*
G37*
G36*
G01*
X21987500Y15150000D02*
X21512500Y15150000D01*
G75*
G02*
X21275000Y15387500I0J237500D01*
G01*
X21275000Y15887500D01*
G75*
G02*
X21512500Y16125000I237500J0D01*
G01*
X21987500Y16125000D01*
G75*
G02*
X22225000Y15887500I0J-237500D01*
G01*
X22225000Y15387500D01*
G75*
G02*
X21987500Y15150000I-237500J0D01*
G01*
G37*
G36*
G01*
X10787500Y-16075000D02*
X10312500Y-16075000D01*
G75*
G02*
X10075000Y-15837500I0J237500D01*
G01*
X10075000Y-15337500D01*
G75*
G02*
X10312500Y-15100000I237500J0D01*
G01*
X10787500Y-15100000D01*
G75*
G02*
X11025000Y-15337500I0J-237500D01*
G01*
X11025000Y-15837500D01*
G75*
G02*
X10787500Y-16075000I-237500J0D01*
G01*
G37*
G36*
G01*
X10787500Y-17900000D02*
X10312500Y-17900000D01*
G75*
G02*
X10075000Y-17662500I0J237500D01*
G01*
X10075000Y-17162500D01*
G75*
G02*
X10312500Y-16925000I237500J0D01*
G01*
X10787500Y-16925000D01*
G75*
G02*
X11025000Y-17162500I0J-237500D01*
G01*
X11025000Y-17662500D01*
G75*
G02*
X10787500Y-17900000I-237500J0D01*
G01*
G37*
G36*
G01*
X15037500Y-16175000D02*
X14562500Y-16175000D01*
G75*
G02*
X14325000Y-15937500I0J237500D01*
G01*
X14325000Y-15437500D01*
G75*
G02*
X14562500Y-15200000I237500J0D01*
G01*
X15037500Y-15200000D01*
G75*
G02*
X15275000Y-15437500I0J-237500D01*
G01*
X15275000Y-15937500D01*
G75*
G02*
X15037500Y-16175000I-237500J0D01*
G01*
G37*
G36*
G01*
X15037500Y-18000000D02*
X14562500Y-18000000D01*
G75*
G02*
X14325000Y-17762500I0J237500D01*
G01*
X14325000Y-17262500D01*
G75*
G02*
X14562500Y-17025000I237500J0D01*
G01*
X15037500Y-17025000D01*
G75*
G02*
X15275000Y-17262500I0J-237500D01*
G01*
X15275000Y-17762500D01*
G75*
G02*
X15037500Y-18000000I-237500J0D01*
G01*
G37*
G36*
G01*
X19437500Y-16175000D02*
X18962500Y-16175000D01*
G75*
G02*
X18725000Y-15937500I0J237500D01*
G01*
X18725000Y-15437500D01*
G75*
G02*
X18962500Y-15200000I237500J0D01*
G01*
X19437500Y-15200000D01*
G75*
G02*
X19675000Y-15437500I0J-237500D01*
G01*
X19675000Y-15937500D01*
G75*
G02*
X19437500Y-16175000I-237500J0D01*
G01*
G37*
G36*
G01*
X19437500Y-18000000D02*
X18962500Y-18000000D01*
G75*
G02*
X18725000Y-17762500I0J237500D01*
G01*
X18725000Y-17262500D01*
G75*
G02*
X18962500Y-17025000I237500J0D01*
G01*
X19437500Y-17025000D01*
G75*
G02*
X19675000Y-17262500I0J-237500D01*
G01*
X19675000Y-17762500D01*
G75*
G02*
X19437500Y-18000000I-237500J0D01*
G01*
G37*
G36*
G01*
X7675000Y-18012500D02*
X7675000Y-18487500D01*
G75*
G02*
X7437500Y-18725000I-237500J0D01*
G01*
X6937500Y-18725000D01*
G75*
G02*
X6700000Y-18487500I0J237500D01*
G01*
X6700000Y-18012500D01*
G75*
G02*
X6937500Y-17775000I237500J0D01*
G01*
X7437500Y-17775000D01*
G75*
G02*
X7675000Y-18012500I0J-237500D01*
G01*
G37*
G36*
G01*
X9500000Y-18012500D02*
X9500000Y-18487500D01*
G75*
G02*
X9262500Y-18725000I-237500J0D01*
G01*
X8762500Y-18725000D01*
G75*
G02*
X8525000Y-18487500I0J237500D01*
G01*
X8525000Y-18012500D01*
G75*
G02*
X8762500Y-17775000I237500J0D01*
G01*
X9262500Y-17775000D01*
G75*
G02*
X9500000Y-18012500I0J-237500D01*
G01*
G37*
G36*
G01*
X78012500Y-14337500D02*
X78487500Y-14337500D01*
G75*
G02*
X78725000Y-14575000I0J-237500D01*
G01*
X78725000Y-15075000D01*
G75*
G02*
X78487500Y-15312500I-237500J0D01*
G01*
X78012500Y-15312500D01*
G75*
G02*
X77775000Y-15075000I0J237500D01*
G01*
X77775000Y-14575000D01*
G75*
G02*
X78012500Y-14337500I237500J0D01*
G01*
G37*
G36*
G01*
X78012500Y-12512500D02*
X78487500Y-12512500D01*
G75*
G02*
X78725000Y-12750000I0J-237500D01*
G01*
X78725000Y-13250000D01*
G75*
G02*
X78487500Y-13487500I-237500J0D01*
G01*
X78012500Y-13487500D01*
G75*
G02*
X77775000Y-13250000I0J237500D01*
G01*
X77775000Y-12750000D01*
G75*
G02*
X78012500Y-12512500I237500J0D01*
G01*
G37*
G36*
G01*
X73562500Y-14425000D02*
X74037500Y-14425000D01*
G75*
G02*
X74275000Y-14662500I0J-237500D01*
G01*
X74275000Y-15162500D01*
G75*
G02*
X74037500Y-15400000I-237500J0D01*
G01*
X73562500Y-15400000D01*
G75*
G02*
X73325000Y-15162500I0J237500D01*
G01*
X73325000Y-14662500D01*
G75*
G02*
X73562500Y-14425000I237500J0D01*
G01*
G37*
G36*
G01*
X73562500Y-12600000D02*
X74037500Y-12600000D01*
G75*
G02*
X74275000Y-12837500I0J-237500D01*
G01*
X74275000Y-13337500D01*
G75*
G02*
X74037500Y-13575000I-237500J0D01*
G01*
X73562500Y-13575000D01*
G75*
G02*
X73325000Y-13337500I0J237500D01*
G01*
X73325000Y-12837500D01*
G75*
G02*
X73562500Y-12600000I237500J0D01*
G01*
G37*
G36*
G01*
X68512500Y-14425000D02*
X68987500Y-14425000D01*
G75*
G02*
X69225000Y-14662500I0J-237500D01*
G01*
X69225000Y-15162500D01*
G75*
G02*
X68987500Y-15400000I-237500J0D01*
G01*
X68512500Y-15400000D01*
G75*
G02*
X68275000Y-15162500I0J237500D01*
G01*
X68275000Y-14662500D01*
G75*
G02*
X68512500Y-14425000I237500J0D01*
G01*
G37*
G36*
G01*
X68512500Y-12600000D02*
X68987500Y-12600000D01*
G75*
G02*
X69225000Y-12837500I0J-237500D01*
G01*
X69225000Y-13337500D01*
G75*
G02*
X68987500Y-13575000I-237500J0D01*
G01*
X68512500Y-13575000D01*
G75*
G02*
X68275000Y-13337500I0J237500D01*
G01*
X68275000Y-12837500D01*
G75*
G02*
X68512500Y-12600000I237500J0D01*
G01*
G37*
G36*
G01*
X63962500Y-14425000D02*
X64437500Y-14425000D01*
G75*
G02*
X64675000Y-14662500I0J-237500D01*
G01*
X64675000Y-15162500D01*
G75*
G02*
X64437500Y-15400000I-237500J0D01*
G01*
X63962500Y-15400000D01*
G75*
G02*
X63725000Y-15162500I0J237500D01*
G01*
X63725000Y-14662500D01*
G75*
G02*
X63962500Y-14425000I237500J0D01*
G01*
G37*
G36*
G01*
X63962500Y-12600000D02*
X64437500Y-12600000D01*
G75*
G02*
X64675000Y-12837500I0J-237500D01*
G01*
X64675000Y-13337500D01*
G75*
G02*
X64437500Y-13575000I-237500J0D01*
G01*
X63962500Y-13575000D01*
G75*
G02*
X63725000Y-13337500I0J237500D01*
G01*
X63725000Y-12837500D01*
G75*
G02*
X63962500Y-12600000I237500J0D01*
G01*
G37*
G36*
G01*
X58962500Y-14425000D02*
X59437500Y-14425000D01*
G75*
G02*
X59675000Y-14662500I0J-237500D01*
G01*
X59675000Y-15162500D01*
G75*
G02*
X59437500Y-15400000I-237500J0D01*
G01*
X58962500Y-15400000D01*
G75*
G02*
X58725000Y-15162500I0J237500D01*
G01*
X58725000Y-14662500D01*
G75*
G02*
X58962500Y-14425000I237500J0D01*
G01*
G37*
G36*
G01*
X58962500Y-12600000D02*
X59437500Y-12600000D01*
G75*
G02*
X59675000Y-12837500I0J-237500D01*
G01*
X59675000Y-13337500D01*
G75*
G02*
X59437500Y-13575000I-237500J0D01*
G01*
X58962500Y-13575000D01*
G75*
G02*
X58725000Y-13337500I0J237500D01*
G01*
X58725000Y-12837500D01*
G75*
G02*
X58962500Y-12600000I237500J0D01*
G01*
G37*
G36*
G01*
X54512500Y-14425000D02*
X54987500Y-14425000D01*
G75*
G02*
X55225000Y-14662500I0J-237500D01*
G01*
X55225000Y-15162500D01*
G75*
G02*
X54987500Y-15400000I-237500J0D01*
G01*
X54512500Y-15400000D01*
G75*
G02*
X54275000Y-15162500I0J237500D01*
G01*
X54275000Y-14662500D01*
G75*
G02*
X54512500Y-14425000I237500J0D01*
G01*
G37*
G36*
G01*
X54512500Y-12600000D02*
X54987500Y-12600000D01*
G75*
G02*
X55225000Y-12837500I0J-237500D01*
G01*
X55225000Y-13337500D01*
G75*
G02*
X54987500Y-13575000I-237500J0D01*
G01*
X54512500Y-13575000D01*
G75*
G02*
X54275000Y-13337500I0J237500D01*
G01*
X54275000Y-12837500D01*
G75*
G02*
X54512500Y-12600000I237500J0D01*
G01*
G37*
G36*
G01*
X49562500Y-14537500D02*
X50037500Y-14537500D01*
G75*
G02*
X50275000Y-14775000I0J-237500D01*
G01*
X50275000Y-15275000D01*
G75*
G02*
X50037500Y-15512500I-237500J0D01*
G01*
X49562500Y-15512500D01*
G75*
G02*
X49325000Y-15275000I0J237500D01*
G01*
X49325000Y-14775000D01*
G75*
G02*
X49562500Y-14537500I237500J0D01*
G01*
G37*
G36*
G01*
X49562500Y-12712500D02*
X50037500Y-12712500D01*
G75*
G02*
X50275000Y-12950000I0J-237500D01*
G01*
X50275000Y-13450000D01*
G75*
G02*
X50037500Y-13687500I-237500J0D01*
G01*
X49562500Y-13687500D01*
G75*
G02*
X49325000Y-13450000I0J237500D01*
G01*
X49325000Y-12950000D01*
G75*
G02*
X49562500Y-12712500I237500J0D01*
G01*
G37*
G36*
G01*
X45012500Y-14425000D02*
X45487500Y-14425000D01*
G75*
G02*
X45725000Y-14662500I0J-237500D01*
G01*
X45725000Y-15162500D01*
G75*
G02*
X45487500Y-15400000I-237500J0D01*
G01*
X45012500Y-15400000D01*
G75*
G02*
X44775000Y-15162500I0J237500D01*
G01*
X44775000Y-14662500D01*
G75*
G02*
X45012500Y-14425000I237500J0D01*
G01*
G37*
G36*
G01*
X45012500Y-12600000D02*
X45487500Y-12600000D01*
G75*
G02*
X45725000Y-12837500I0J-237500D01*
G01*
X45725000Y-13337500D01*
G75*
G02*
X45487500Y-13575000I-237500J0D01*
G01*
X45012500Y-13575000D01*
G75*
G02*
X44775000Y-13337500I0J237500D01*
G01*
X44775000Y-12837500D01*
G75*
G02*
X45012500Y-12600000I237500J0D01*
G01*
G37*
G36*
G01*
X40012500Y-14425000D02*
X40487500Y-14425000D01*
G75*
G02*
X40725000Y-14662500I0J-237500D01*
G01*
X40725000Y-15162500D01*
G75*
G02*
X40487500Y-15400000I-237500J0D01*
G01*
X40012500Y-15400000D01*
G75*
G02*
X39775000Y-15162500I0J237500D01*
G01*
X39775000Y-14662500D01*
G75*
G02*
X40012500Y-14425000I237500J0D01*
G01*
G37*
G36*
G01*
X40012500Y-12600000D02*
X40487500Y-12600000D01*
G75*
G02*
X40725000Y-12837500I0J-237500D01*
G01*
X40725000Y-13337500D01*
G75*
G02*
X40487500Y-13575000I-237500J0D01*
G01*
X40012500Y-13575000D01*
G75*
G02*
X39775000Y-13337500I0J237500D01*
G01*
X39775000Y-12837500D01*
G75*
G02*
X40012500Y-12600000I237500J0D01*
G01*
G37*
G36*
G01*
X36925000Y-13487500D02*
X36925000Y-13012500D01*
G75*
G02*
X37162500Y-12775000I237500J0D01*
G01*
X37662500Y-12775000D01*
G75*
G02*
X37900000Y-13012500I0J-237500D01*
G01*
X37900000Y-13487500D01*
G75*
G02*
X37662500Y-13725000I-237500J0D01*
G01*
X37162500Y-13725000D01*
G75*
G02*
X36925000Y-13487500I0J237500D01*
G01*
G37*
G36*
G01*
X35100000Y-13487500D02*
X35100000Y-13012500D01*
G75*
G02*
X35337500Y-12775000I237500J0D01*
G01*
X35837500Y-12775000D01*
G75*
G02*
X36075000Y-13012500I0J-237500D01*
G01*
X36075000Y-13487500D01*
G75*
G02*
X35837500Y-13725000I-237500J0D01*
G01*
X35337500Y-13725000D01*
G75*
G02*
X35100000Y-13487500I0J237500D01*
G01*
G37*
G36*
G01*
X32175000Y-13487500D02*
X32175000Y-13012500D01*
G75*
G02*
X32412500Y-12775000I237500J0D01*
G01*
X32912500Y-12775000D01*
G75*
G02*
X33150000Y-13012500I0J-237500D01*
G01*
X33150000Y-13487500D01*
G75*
G02*
X32912500Y-13725000I-237500J0D01*
G01*
X32412500Y-13725000D01*
G75*
G02*
X32175000Y-13487500I0J237500D01*
G01*
G37*
G36*
G01*
X30350000Y-13487500D02*
X30350000Y-13012500D01*
G75*
G02*
X30587500Y-12775000I237500J0D01*
G01*
X31087500Y-12775000D01*
G75*
G02*
X31325000Y-13012500I0J-237500D01*
G01*
X31325000Y-13487500D01*
G75*
G02*
X31087500Y-13725000I-237500J0D01*
G01*
X30587500Y-13725000D01*
G75*
G02*
X30350000Y-13487500I0J237500D01*
G01*
G37*
G36*
G01*
X27625000Y-13437500D02*
X27625000Y-12962500D01*
G75*
G02*
X27862500Y-12725000I237500J0D01*
G01*
X28362500Y-12725000D01*
G75*
G02*
X28600000Y-12962500I0J-237500D01*
G01*
X28600000Y-13437500D01*
G75*
G02*
X28362500Y-13675000I-237500J0D01*
G01*
X27862500Y-13675000D01*
G75*
G02*
X27625000Y-13437500I0J237500D01*
G01*
G37*
G36*
G01*
X25800000Y-13437500D02*
X25800000Y-12962500D01*
G75*
G02*
X26037500Y-12725000I237500J0D01*
G01*
X26537500Y-12725000D01*
G75*
G02*
X26775000Y-12962500I0J-237500D01*
G01*
X26775000Y-13437500D01*
G75*
G02*
X26537500Y-13675000I-237500J0D01*
G01*
X26037500Y-13675000D01*
G75*
G02*
X25800000Y-13437500I0J237500D01*
G01*
G37*
G36*
G01*
X79625000Y13562500D02*
X79625000Y14037500D01*
G75*
G02*
X79862500Y14275000I237500J0D01*
G01*
X80362500Y14275000D01*
G75*
G02*
X80600000Y14037500I0J-237500D01*
G01*
X80600000Y13562500D01*
G75*
G02*
X80362500Y13325000I-237500J0D01*
G01*
X79862500Y13325000D01*
G75*
G02*
X79625000Y13562500I0J237500D01*
G01*
G37*
G36*
G01*
X77800000Y13562500D02*
X77800000Y14037500D01*
G75*
G02*
X78037500Y14275000I237500J0D01*
G01*
X78537500Y14275000D01*
G75*
G02*
X78775000Y14037500I0J-237500D01*
G01*
X78775000Y13562500D01*
G75*
G02*
X78537500Y13325000I-237500J0D01*
G01*
X78037500Y13325000D01*
G75*
G02*
X77800000Y13562500I0J237500D01*
G01*
G37*
G36*
G01*
X70962500Y13462500D02*
X71437500Y13462500D01*
G75*
G02*
X71675000Y13225000I0J-237500D01*
G01*
X71675000Y12725000D01*
G75*
G02*
X71437500Y12487500I-237500J0D01*
G01*
X70962500Y12487500D01*
G75*
G02*
X70725000Y12725000I0J237500D01*
G01*
X70725000Y13225000D01*
G75*
G02*
X70962500Y13462500I237500J0D01*
G01*
G37*
G36*
G01*
X70962500Y15287500D02*
X71437500Y15287500D01*
G75*
G02*
X71675000Y15050000I0J-237500D01*
G01*
X71675000Y14550000D01*
G75*
G02*
X71437500Y14312500I-237500J0D01*
G01*
X70962500Y14312500D01*
G75*
G02*
X70725000Y14550000I0J237500D01*
G01*
X70725000Y15050000D01*
G75*
G02*
X70962500Y15287500I237500J0D01*
G01*
G37*
G36*
G01*
X61562500Y13575000D02*
X62037500Y13575000D01*
G75*
G02*
X62275000Y13337500I0J-237500D01*
G01*
X62275000Y12837500D01*
G75*
G02*
X62037500Y12600000I-237500J0D01*
G01*
X61562500Y12600000D01*
G75*
G02*
X61325000Y12837500I0J237500D01*
G01*
X61325000Y13337500D01*
G75*
G02*
X61562500Y13575000I237500J0D01*
G01*
G37*
G36*
G01*
X61562500Y15400000D02*
X62037500Y15400000D01*
G75*
G02*
X62275000Y15162500I0J-237500D01*
G01*
X62275000Y14662500D01*
G75*
G02*
X62037500Y14425000I-237500J0D01*
G01*
X61562500Y14425000D01*
G75*
G02*
X61325000Y14662500I0J237500D01*
G01*
X61325000Y15162500D01*
G75*
G02*
X61562500Y15400000I237500J0D01*
G01*
G37*
G36*
G01*
X52012500Y13575000D02*
X52487500Y13575000D01*
G75*
G02*
X52725000Y13337500I0J-237500D01*
G01*
X52725000Y12837500D01*
G75*
G02*
X52487500Y12600000I-237500J0D01*
G01*
X52012500Y12600000D01*
G75*
G02*
X51775000Y12837500I0J237500D01*
G01*
X51775000Y13337500D01*
G75*
G02*
X52012500Y13575000I237500J0D01*
G01*
G37*
G36*
G01*
X52012500Y15400000D02*
X52487500Y15400000D01*
G75*
G02*
X52725000Y15162500I0J-237500D01*
G01*
X52725000Y14662500D01*
G75*
G02*
X52487500Y14425000I-237500J0D01*
G01*
X52012500Y14425000D01*
G75*
G02*
X51775000Y14662500I0J237500D01*
G01*
X51775000Y15162500D01*
G75*
G02*
X52012500Y15400000I237500J0D01*
G01*
G37*
G36*
G01*
X42562500Y13775000D02*
X43037500Y13775000D01*
G75*
G02*
X43275000Y13537500I0J-237500D01*
G01*
X43275000Y13037500D01*
G75*
G02*
X43037500Y12800000I-237500J0D01*
G01*
X42562500Y12800000D01*
G75*
G02*
X42325000Y13037500I0J237500D01*
G01*
X42325000Y13537500D01*
G75*
G02*
X42562500Y13775000I237500J0D01*
G01*
G37*
G36*
G01*
X42562500Y15600000D02*
X43037500Y15600000D01*
G75*
G02*
X43275000Y15362500I0J-237500D01*
G01*
X43275000Y14862500D01*
G75*
G02*
X43037500Y14625000I-237500J0D01*
G01*
X42562500Y14625000D01*
G75*
G02*
X42325000Y14862500I0J237500D01*
G01*
X42325000Y15362500D01*
G75*
G02*
X42562500Y15600000I237500J0D01*
G01*
G37*
G36*
G01*
X32962500Y13575000D02*
X33437500Y13575000D01*
G75*
G02*
X33675000Y13337500I0J-237500D01*
G01*
X33675000Y12837500D01*
G75*
G02*
X33437500Y12600000I-237500J0D01*
G01*
X32962500Y12600000D01*
G75*
G02*
X32725000Y12837500I0J237500D01*
G01*
X32725000Y13337500D01*
G75*
G02*
X32962500Y13575000I237500J0D01*
G01*
G37*
G36*
G01*
X32962500Y15400000D02*
X33437500Y15400000D01*
G75*
G02*
X33675000Y15162500I0J-237500D01*
G01*
X33675000Y14662500D01*
G75*
G02*
X33437500Y14425000I-237500J0D01*
G01*
X32962500Y14425000D01*
G75*
G02*
X32725000Y14662500I0J237500D01*
G01*
X32725000Y15162500D01*
G75*
G02*
X32962500Y15400000I237500J0D01*
G01*
G37*
G36*
G01*
X74512500Y15325000D02*
X74987500Y15325000D01*
G75*
G02*
X75225000Y15087500I0J-237500D01*
G01*
X75225000Y14587500D01*
G75*
G02*
X74987500Y14350000I-237500J0D01*
G01*
X74512500Y14350000D01*
G75*
G02*
X74275000Y14587500I0J237500D01*
G01*
X74275000Y15087500D01*
G75*
G02*
X74512500Y15325000I237500J0D01*
G01*
G37*
G36*
G01*
X74512500Y17150000D02*
X74987500Y17150000D01*
G75*
G02*
X75225000Y16912500I0J-237500D01*
G01*
X75225000Y16412500D01*
G75*
G02*
X74987500Y16175000I-237500J0D01*
G01*
X74512500Y16175000D01*
G75*
G02*
X74275000Y16412500I0J237500D01*
G01*
X74275000Y16912500D01*
G75*
G02*
X74512500Y17150000I237500J0D01*
G01*
G37*
G36*
G01*
X68562500Y16375000D02*
X69037500Y16375000D01*
G75*
G02*
X69275000Y16137500I0J-237500D01*
G01*
X69275000Y15637500D01*
G75*
G02*
X69037500Y15400000I-237500J0D01*
G01*
X68562500Y15400000D01*
G75*
G02*
X68325000Y15637500I0J237500D01*
G01*
X68325000Y16137500D01*
G75*
G02*
X68562500Y16375000I237500J0D01*
G01*
G37*
G36*
G01*
X68562500Y18200000D02*
X69037500Y18200000D01*
G75*
G02*
X69275000Y17962500I0J-237500D01*
G01*
X69275000Y17462500D01*
G75*
G02*
X69037500Y17225000I-237500J0D01*
G01*
X68562500Y17225000D01*
G75*
G02*
X68325000Y17462500I0J237500D01*
G01*
X68325000Y17962500D01*
G75*
G02*
X68562500Y18200000I237500J0D01*
G01*
G37*
G36*
G01*
X59012500Y16375000D02*
X59487500Y16375000D01*
G75*
G02*
X59725000Y16137500I0J-237500D01*
G01*
X59725000Y15637500D01*
G75*
G02*
X59487500Y15400000I-237500J0D01*
G01*
X59012500Y15400000D01*
G75*
G02*
X58775000Y15637500I0J237500D01*
G01*
X58775000Y16137500D01*
G75*
G02*
X59012500Y16375000I237500J0D01*
G01*
G37*
G36*
G01*
X59012500Y18200000D02*
X59487500Y18200000D01*
G75*
G02*
X59725000Y17962500I0J-237500D01*
G01*
X59725000Y17462500D01*
G75*
G02*
X59487500Y17225000I-237500J0D01*
G01*
X59012500Y17225000D01*
G75*
G02*
X58775000Y17462500I0J237500D01*
G01*
X58775000Y17962500D01*
G75*
G02*
X59012500Y18200000I237500J0D01*
G01*
G37*
G36*
G01*
X49512500Y16325000D02*
X49987500Y16325000D01*
G75*
G02*
X50225000Y16087500I0J-237500D01*
G01*
X50225000Y15587500D01*
G75*
G02*
X49987500Y15350000I-237500J0D01*
G01*
X49512500Y15350000D01*
G75*
G02*
X49275000Y15587500I0J237500D01*
G01*
X49275000Y16087500D01*
G75*
G02*
X49512500Y16325000I237500J0D01*
G01*
G37*
G36*
G01*
X49512500Y18150000D02*
X49987500Y18150000D01*
G75*
G02*
X50225000Y17912500I0J-237500D01*
G01*
X50225000Y17412500D01*
G75*
G02*
X49987500Y17175000I-237500J0D01*
G01*
X49512500Y17175000D01*
G75*
G02*
X49275000Y17412500I0J237500D01*
G01*
X49275000Y17912500D01*
G75*
G02*
X49512500Y18150000I237500J0D01*
G01*
G37*
G36*
G01*
X40012500Y16325000D02*
X40487500Y16325000D01*
G75*
G02*
X40725000Y16087500I0J-237500D01*
G01*
X40725000Y15587500D01*
G75*
G02*
X40487500Y15350000I-237500J0D01*
G01*
X40012500Y15350000D01*
G75*
G02*
X39775000Y15587500I0J237500D01*
G01*
X39775000Y16087500D01*
G75*
G02*
X40012500Y16325000I237500J0D01*
G01*
G37*
G36*
G01*
X40012500Y18150000D02*
X40487500Y18150000D01*
G75*
G02*
X40725000Y17912500I0J-237500D01*
G01*
X40725000Y17412500D01*
G75*
G02*
X40487500Y17175000I-237500J0D01*
G01*
X40012500Y17175000D01*
G75*
G02*
X39775000Y17412500I0J237500D01*
G01*
X39775000Y17912500D01*
G75*
G02*
X40012500Y18150000I237500J0D01*
G01*
G37*
G36*
G01*
X30362500Y16375000D02*
X30837500Y16375000D01*
G75*
G02*
X31075000Y16137500I0J-237500D01*
G01*
X31075000Y15637500D01*
G75*
G02*
X30837500Y15400000I-237500J0D01*
G01*
X30362500Y15400000D01*
G75*
G02*
X30125000Y15637500I0J237500D01*
G01*
X30125000Y16137500D01*
G75*
G02*
X30362500Y16375000I237500J0D01*
G01*
G37*
G36*
G01*
X30362500Y18200000D02*
X30837500Y18200000D01*
G75*
G02*
X31075000Y17962500I0J-237500D01*
G01*
X31075000Y17462500D01*
G75*
G02*
X30837500Y17225000I-237500J0D01*
G01*
X30362500Y17225000D01*
G75*
G02*
X30125000Y17462500I0J237500D01*
G01*
X30125000Y17962500D01*
G75*
G02*
X30362500Y18200000I237500J0D01*
G01*
G37*
D10*
X80500000Y-20500000D03*
D11*
X28060000Y-22140000D03*
X28060000Y-17060000D03*
X33140000Y-17060000D03*
X33140000Y-22140000D03*
D12*
X30600000Y-19600000D03*
D13*
X78230000Y-4750000D03*
X80770000Y-4750000D03*
X80770000Y-11250000D03*
X78230000Y-11250000D03*
X80870000Y4750000D03*
X78330000Y4750000D03*
X78330000Y11250000D03*
X80870000Y11250000D03*
X73730000Y-4750000D03*
X76270000Y-4750000D03*
X76270000Y-11250000D03*
X73730000Y-11250000D03*
X76270000Y4750000D03*
X73730000Y4750000D03*
X73730000Y11250000D03*
X76270000Y11250000D03*
X68730000Y-4750000D03*
X71270000Y-4750000D03*
X71270000Y-11250000D03*
X68730000Y-11250000D03*
X71270000Y4750000D03*
X68730000Y4750000D03*
X68730000Y11250000D03*
X71270000Y11250000D03*
X64230000Y-4750000D03*
X66770000Y-4750000D03*
X66770000Y-11250000D03*
X64230000Y-11250000D03*
X66770000Y4750000D03*
X64230000Y4750000D03*
X64230000Y11250000D03*
X66770000Y11250000D03*
X59230000Y-4750000D03*
X61770000Y-4750000D03*
X61770000Y-11250000D03*
X59230000Y-11250000D03*
X61770000Y4750000D03*
X59230000Y4750000D03*
X59230000Y11250000D03*
X61770000Y11250000D03*
X54730000Y-4750000D03*
X57270000Y-4750000D03*
X57270000Y-11250000D03*
X54730000Y-11250000D03*
X57270000Y4750000D03*
X54730000Y4750000D03*
X54730000Y11250000D03*
X57270000Y11250000D03*
X49730000Y-4750000D03*
X52270000Y-4750000D03*
X52270000Y-11250000D03*
X49730000Y-11250000D03*
X45230000Y-4750000D03*
X47770000Y-4750000D03*
X47770000Y-11250000D03*
X45230000Y-11250000D03*
X40230000Y-4750000D03*
X42770000Y-4750000D03*
X42770000Y-11250000D03*
X40230000Y-11250000D03*
X35730000Y-4750000D03*
X38270000Y-4750000D03*
X38270000Y-11250000D03*
X35730000Y-11250000D03*
X30730000Y-4750000D03*
X33270000Y-4750000D03*
X33270000Y-11250000D03*
X30730000Y-11250000D03*
X26230000Y-4750000D03*
X28770000Y-4750000D03*
X28770000Y-11250000D03*
X26230000Y-11250000D03*
X52270000Y4750000D03*
X49730000Y4750000D03*
X49730000Y11250000D03*
X52270000Y11250000D03*
X47770000Y4750000D03*
X45230000Y4750000D03*
X45230000Y11250000D03*
X47770000Y11250000D03*
X42770000Y4750000D03*
X40230000Y4750000D03*
X40230000Y11250000D03*
X42770000Y11250000D03*
X38270000Y4750000D03*
X35730000Y4750000D03*
X35730000Y11250000D03*
X38270000Y11250000D03*
X33270000Y4750000D03*
X30730000Y4750000D03*
X30730000Y11250000D03*
X33270000Y11250000D03*
X28770000Y4750000D03*
X26230000Y4750000D03*
X26230000Y11250000D03*
X28770000Y11250000D03*
D14*
X87250000Y10908000D03*
X86750000Y10908000D03*
X86250000Y10908000D03*
X85750000Y10908000D03*
X85250000Y10908000D03*
X84750000Y10908000D03*
D15*
X84092000Y10250000D03*
X84092000Y9750000D03*
X84092000Y9250000D03*
X84092000Y8750000D03*
X84092000Y8250000D03*
X84092000Y7750000D03*
D14*
X84750000Y7092000D03*
X85250000Y7092000D03*
X85750000Y7092000D03*
X86250000Y7092000D03*
X86750000Y7092000D03*
X87250000Y7092000D03*
D15*
X87908000Y7750000D03*
X87908000Y8250000D03*
X87908000Y8750000D03*
X87908000Y9250000D03*
X87908000Y9750000D03*
X87908000Y10250000D03*
D16*
X86000000Y9000000D03*
D13*
X17270000Y7250000D03*
X14730000Y7250000D03*
X14730000Y13750000D03*
X17270000Y13750000D03*
X12770000Y7250000D03*
X10230000Y7250000D03*
X10230000Y13750000D03*
X12770000Y13750000D03*
X8270000Y7250000D03*
X5730000Y7250000D03*
X5730000Y13750000D03*
X8270000Y13750000D03*
X21770000Y7250000D03*
X19230000Y7250000D03*
X19230000Y13750000D03*
X21770000Y13750000D03*
X10230000Y-7250000D03*
X12770000Y-7250000D03*
X12770000Y-13750000D03*
X10230000Y-13750000D03*
X5730000Y-7250000D03*
X8270000Y-7250000D03*
X8270000Y-13750000D03*
X5730000Y-13750000D03*
X14730000Y-7250000D03*
X17270000Y-7250000D03*
X17270000Y-13750000D03*
X14730000Y-13750000D03*
X19230000Y-7250000D03*
X21770000Y-7250000D03*
X21770000Y-13750000D03*
X19230000Y-13750000D03*
D17*
X0Y-12500000D03*
D18*
X-1420000Y4140000D03*
X-1420000Y1380000D03*
X-1420000Y-1380000D03*
X-1420000Y-4140000D03*
X1420000Y5520000D03*
X1420000Y2760000D03*
X1420000Y-2760000D03*
D19*
X1420000Y-5520000D03*
D17*
X0Y12500000D03*
D18*
X1420000Y0D03*
D20*
X76497000Y15799000D03*
X76503000Y14201000D03*
X66997000Y15799000D03*
X67003000Y14201000D03*
X57497000Y15799000D03*
X57503000Y14201000D03*
X47997000Y15799000D03*
X48003000Y14201000D03*
X38497000Y15799000D03*
X38503000Y14201000D03*
X28997000Y15799000D03*
X29003000Y14201000D03*
X5503000Y-18299000D03*
X5497000Y-16701000D03*
X8497000Y18299000D03*
X8503000Y16701000D03*
G36*
G01*
X77100000Y-22650002D02*
X77100000Y-21749998D01*
G75*
G02*
X77349998Y-21500000I249998J0D01*
G01*
X77875002Y-21500000D01*
G75*
G02*
X78125000Y-21749998I0J-249998D01*
G01*
X78125000Y-22650002D01*
G75*
G02*
X77875002Y-22900000I-249998J0D01*
G01*
X77349998Y-22900000D01*
G75*
G02*
X77100000Y-22650002I0J249998D01*
G01*
G37*
G36*
G01*
X75275000Y-22650002D02*
X75275000Y-21749998D01*
G75*
G02*
X75524998Y-21500000I249998J0D01*
G01*
X76050002Y-21500000D01*
G75*
G02*
X76300000Y-21749998I0J-249998D01*
G01*
X76300000Y-22650002D01*
G75*
G02*
X76050002Y-22900000I-249998J0D01*
G01*
X75524998Y-22900000D01*
G75*
G02*
X75275000Y-22650002I0J249998D01*
G01*
G37*
G36*
G01*
X86000000Y4150002D02*
X86000000Y3249998D01*
G75*
G02*
X85750002Y3000000I-249998J0D01*
G01*
X85224998Y3000000D01*
G75*
G02*
X84975000Y3249998I0J249998D01*
G01*
X84975000Y4150002D01*
G75*
G02*
X85224998Y4400000I249998J0D01*
G01*
X85750002Y4400000D01*
G75*
G02*
X86000000Y4150002I0J-249998D01*
G01*
G37*
G36*
G01*
X87825000Y4150002D02*
X87825000Y3249998D01*
G75*
G02*
X87575002Y3000000I-249998J0D01*
G01*
X87049998Y3000000D01*
G75*
G02*
X86800000Y3249998I0J249998D01*
G01*
X86800000Y4150002D01*
G75*
G02*
X87049998Y4400000I249998J0D01*
G01*
X87575002Y4400000D01*
G75*
G02*
X87825000Y4150002I0J-249998D01*
G01*
G37*
G36*
G01*
X77262500Y-425000D02*
X77737500Y-425000D01*
G75*
G02*
X77975000Y-662500I0J-237500D01*
G01*
X77975000Y-1162500D01*
G75*
G02*
X77737500Y-1400000I-237500J0D01*
G01*
X77262500Y-1400000D01*
G75*
G02*
X77025000Y-1162500I0J237500D01*
G01*
X77025000Y-662500D01*
G75*
G02*
X77262500Y-425000I237500J0D01*
G01*
G37*
G36*
G01*
X77262500Y1400000D02*
X77737500Y1400000D01*
G75*
G02*
X77975000Y1162500I0J-237500D01*
G01*
X77975000Y662500D01*
G75*
G02*
X77737500Y425000I-237500J0D01*
G01*
X77262500Y425000D01*
G75*
G02*
X77025000Y662500I0J237500D01*
G01*
X77025000Y1162500D01*
G75*
G02*
X77262500Y1400000I237500J0D01*
G01*
G37*
G36*
G01*
X86000000Y2250002D02*
X86000000Y1349998D01*
G75*
G02*
X85750002Y1100000I-249998J0D01*
G01*
X85224998Y1100000D01*
G75*
G02*
X84975000Y1349998I0J249998D01*
G01*
X84975000Y2250002D01*
G75*
G02*
X85224998Y2500000I249998J0D01*
G01*
X85750002Y2500000D01*
G75*
G02*
X86000000Y2250002I0J-249998D01*
G01*
G37*
G36*
G01*
X87825000Y2250002D02*
X87825000Y1349998D01*
G75*
G02*
X87575002Y1100000I-249998J0D01*
G01*
X87049998Y1100000D01*
G75*
G02*
X86800000Y1349998I0J249998D01*
G01*
X86800000Y2250002D01*
G75*
G02*
X87049998Y2500000I249998J0D01*
G01*
X87575002Y2500000D01*
G75*
G02*
X87825000Y2250002I0J-249998D01*
G01*
G37*
G36*
G01*
X67549999Y-400000D02*
X68450001Y-400000D01*
G75*
G02*
X68700000Y-649999I0J-249999D01*
G01*
X68700000Y-1350001D01*
G75*
G02*
X68450001Y-1600000I-249999J0D01*
G01*
X67549999Y-1600000D01*
G75*
G02*
X67300000Y-1350001I0J249999D01*
G01*
X67300000Y-649999D01*
G75*
G02*
X67549999Y-400000I249999J0D01*
G01*
G37*
G36*
G01*
X67549999Y1600000D02*
X68450001Y1600000D01*
G75*
G02*
X68700000Y1350001I0J-249999D01*
G01*
X68700000Y649999D01*
G75*
G02*
X68450001Y400000I-249999J0D01*
G01*
X67549999Y400000D01*
G75*
G02*
X67300000Y649999I0J249999D01*
G01*
X67300000Y1350001D01*
G75*
G02*
X67549999Y1600000I249999J0D01*
G01*
G37*
G36*
G01*
X58049999Y-400000D02*
X58950001Y-400000D01*
G75*
G02*
X59200000Y-649999I0J-249999D01*
G01*
X59200000Y-1350001D01*
G75*
G02*
X58950001Y-1600000I-249999J0D01*
G01*
X58049999Y-1600000D01*
G75*
G02*
X57800000Y-1350001I0J249999D01*
G01*
X57800000Y-649999D01*
G75*
G02*
X58049999Y-400000I249999J0D01*
G01*
G37*
G36*
G01*
X58049999Y1600000D02*
X58950001Y1600000D01*
G75*
G02*
X59200000Y1350001I0J-249999D01*
G01*
X59200000Y649999D01*
G75*
G02*
X58950001Y400000I-249999J0D01*
G01*
X58049999Y400000D01*
G75*
G02*
X57800000Y649999I0J249999D01*
G01*
X57800000Y1350001D01*
G75*
G02*
X58049999Y1600000I249999J0D01*
G01*
G37*
G36*
G01*
X48762500Y-425000D02*
X49237500Y-425000D01*
G75*
G02*
X49475000Y-662500I0J-237500D01*
G01*
X49475000Y-1162500D01*
G75*
G02*
X49237500Y-1400000I-237500J0D01*
G01*
X48762500Y-1400000D01*
G75*
G02*
X48525000Y-1162500I0J237500D01*
G01*
X48525000Y-662500D01*
G75*
G02*
X48762500Y-425000I237500J0D01*
G01*
G37*
G36*
G01*
X48762500Y1400000D02*
X49237500Y1400000D01*
G75*
G02*
X49475000Y1162500I0J-237500D01*
G01*
X49475000Y662500D01*
G75*
G02*
X49237500Y425000I-237500J0D01*
G01*
X48762500Y425000D01*
G75*
G02*
X48525000Y662500I0J237500D01*
G01*
X48525000Y1162500D01*
G75*
G02*
X48762500Y1400000I237500J0D01*
G01*
G37*
G36*
G01*
X39262500Y-425000D02*
X39737500Y-425000D01*
G75*
G02*
X39975000Y-662500I0J-237500D01*
G01*
X39975000Y-1162500D01*
G75*
G02*
X39737500Y-1400000I-237500J0D01*
G01*
X39262500Y-1400000D01*
G75*
G02*
X39025000Y-1162500I0J237500D01*
G01*
X39025000Y-662500D01*
G75*
G02*
X39262500Y-425000I237500J0D01*
G01*
G37*
G36*
G01*
X39262500Y1400000D02*
X39737500Y1400000D01*
G75*
G02*
X39975000Y1162500I0J-237500D01*
G01*
X39975000Y662500D01*
G75*
G02*
X39737500Y425000I-237500J0D01*
G01*
X39262500Y425000D01*
G75*
G02*
X39025000Y662500I0J237500D01*
G01*
X39025000Y1162500D01*
G75*
G02*
X39262500Y1400000I237500J0D01*
G01*
G37*
G36*
G01*
X29762500Y-425000D02*
X30237500Y-425000D01*
G75*
G02*
X30475000Y-662500I0J-237500D01*
G01*
X30475000Y-1162500D01*
G75*
G02*
X30237500Y-1400000I-237500J0D01*
G01*
X29762500Y-1400000D01*
G75*
G02*
X29525000Y-1162500I0J237500D01*
G01*
X29525000Y-662500D01*
G75*
G02*
X29762500Y-425000I237500J0D01*
G01*
G37*
G36*
G01*
X29762500Y1400000D02*
X30237500Y1400000D01*
G75*
G02*
X30475000Y1162500I0J-237500D01*
G01*
X30475000Y662500D01*
G75*
G02*
X30237500Y425000I-237500J0D01*
G01*
X29762500Y425000D01*
G75*
G02*
X29525000Y662500I0J237500D01*
G01*
X29525000Y1162500D01*
G75*
G02*
X29762500Y1400000I237500J0D01*
G01*
G37*
G36*
G01*
X89825001Y-1600000D02*
X88524999Y-1600000D01*
G75*
G02*
X88275000Y-1350001I0J249999D01*
G01*
X88275000Y-649999D01*
G75*
G02*
X88524999Y-400000I249999J0D01*
G01*
X89825001Y-400000D01*
G75*
G02*
X90075000Y-649999I0J-249999D01*
G01*
X90075000Y-1350001D01*
G75*
G02*
X89825001Y-1600000I-249999J0D01*
G01*
G37*
G36*
G01*
X89825001Y-7200000D02*
X88524999Y-7200000D01*
G75*
G02*
X88275000Y-6950001I0J249999D01*
G01*
X88275000Y-6249999D01*
G75*
G02*
X88524999Y-6000000I249999J0D01*
G01*
X89825001Y-6000000D01*
G75*
G02*
X90075000Y-6249999I0J-249999D01*
G01*
X90075000Y-6950001D01*
G75*
G02*
X89825001Y-7200000I-249999J0D01*
G01*
G37*
G36*
G01*
X85925000Y-2600000D02*
X84675000Y-2600000D01*
G75*
G02*
X84525000Y-2450000I0J150000D01*
G01*
X84525000Y-2150000D01*
G75*
G02*
X84675000Y-2000000I150000J0D01*
G01*
X85925000Y-2000000D01*
G75*
G02*
X86075000Y-2150000I0J-150000D01*
G01*
X86075000Y-2450000D01*
G75*
G02*
X85925000Y-2600000I-150000J0D01*
G01*
G37*
G36*
G01*
X85925000Y-3600000D02*
X84675000Y-3600000D01*
G75*
G02*
X84525000Y-3450000I0J150000D01*
G01*
X84525000Y-3150000D01*
G75*
G02*
X84675000Y-3000000I150000J0D01*
G01*
X85925000Y-3000000D01*
G75*
G02*
X86075000Y-3150000I0J-150000D01*
G01*
X86075000Y-3450000D01*
G75*
G02*
X85925000Y-3600000I-150000J0D01*
G01*
G37*
G36*
G01*
X85925000Y-4600000D02*
X84675000Y-4600000D01*
G75*
G02*
X84525000Y-4450000I0J150000D01*
G01*
X84525000Y-4150000D01*
G75*
G02*
X84675000Y-4000000I150000J0D01*
G01*
X85925000Y-4000000D01*
G75*
G02*
X86075000Y-4150000I0J-150000D01*
G01*
X86075000Y-4450000D01*
G75*
G02*
X85925000Y-4600000I-150000J0D01*
G01*
G37*
G36*
G01*
X85925000Y-5600000D02*
X84675000Y-5600000D01*
G75*
G02*
X84525000Y-5450000I0J150000D01*
G01*
X84525000Y-5150000D01*
G75*
G02*
X84675000Y-5000000I150000J0D01*
G01*
X85925000Y-5000000D01*
G75*
G02*
X86075000Y-5150000I0J-150000D01*
G01*
X86075000Y-5450000D01*
G75*
G02*
X85925000Y-5600000I-150000J0D01*
G01*
G37*
G36*
G01*
X89835001Y-9900000D02*
X88534999Y-9900000D01*
G75*
G02*
X88285000Y-9650001I0J249999D01*
G01*
X88285000Y-8949999D01*
G75*
G02*
X88534999Y-8700000I249999J0D01*
G01*
X89835001Y-8700000D01*
G75*
G02*
X90085000Y-8949999I0J-249999D01*
G01*
X90085000Y-9650001D01*
G75*
G02*
X89835001Y-9900000I-249999J0D01*
G01*
G37*
G36*
G01*
X89835001Y-15500000D02*
X88534999Y-15500000D01*
G75*
G02*
X88285000Y-15250001I0J249999D01*
G01*
X88285000Y-14549999D01*
G75*
G02*
X88534999Y-14300000I249999J0D01*
G01*
X89835001Y-14300000D01*
G75*
G02*
X90085000Y-14549999I0J-249999D01*
G01*
X90085000Y-15250001D01*
G75*
G02*
X89835001Y-15500000I-249999J0D01*
G01*
G37*
G36*
G01*
X85935000Y-10900000D02*
X84685000Y-10900000D01*
G75*
G02*
X84535000Y-10750000I0J150000D01*
G01*
X84535000Y-10450000D01*
G75*
G02*
X84685000Y-10300000I150000J0D01*
G01*
X85935000Y-10300000D01*
G75*
G02*
X86085000Y-10450000I0J-150000D01*
G01*
X86085000Y-10750000D01*
G75*
G02*
X85935000Y-10900000I-150000J0D01*
G01*
G37*
G36*
G01*
X85935000Y-11900000D02*
X84685000Y-11900000D01*
G75*
G02*
X84535000Y-11750000I0J150000D01*
G01*
X84535000Y-11450000D01*
G75*
G02*
X84685000Y-11300000I150000J0D01*
G01*
X85935000Y-11300000D01*
G75*
G02*
X86085000Y-11450000I0J-150000D01*
G01*
X86085000Y-11750000D01*
G75*
G02*
X85935000Y-11900000I-150000J0D01*
G01*
G37*
G36*
G01*
X85935000Y-12900000D02*
X84685000Y-12900000D01*
G75*
G02*
X84535000Y-12750000I0J150000D01*
G01*
X84535000Y-12450000D01*
G75*
G02*
X84685000Y-12300000I150000J0D01*
G01*
X85935000Y-12300000D01*
G75*
G02*
X86085000Y-12450000I0J-150000D01*
G01*
X86085000Y-12750000D01*
G75*
G02*
X85935000Y-12900000I-150000J0D01*
G01*
G37*
G36*
G01*
X85935000Y-13900000D02*
X84685000Y-13900000D01*
G75*
G02*
X84535000Y-13750000I0J150000D01*
G01*
X84535000Y-13450000D01*
G75*
G02*
X84685000Y-13300000I150000J0D01*
G01*
X85935000Y-13300000D01*
G75*
G02*
X86085000Y-13450000I0J-150000D01*
G01*
X86085000Y-13750000D01*
G75*
G02*
X85935000Y-13900000I-150000J0D01*
G01*
G37*
G36*
G01*
X89470000Y7580000D02*
X89130000Y7580000D01*
G75*
G02*
X88990000Y7720000I0J140000D01*
G01*
X88990000Y8000000D01*
G75*
G02*
X89130000Y8140000I140000J0D01*
G01*
X89470000Y8140000D01*
G75*
G02*
X89610000Y8000000I0J-140000D01*
G01*
X89610000Y7720000D01*
G75*
G02*
X89470000Y7580000I-140000J0D01*
G01*
G37*
G36*
G01*
X89470000Y6620000D02*
X89130000Y6620000D01*
G75*
G02*
X88990000Y6760000I0J140000D01*
G01*
X88990000Y7040000D01*
G75*
G02*
X89130000Y7180000I140000J0D01*
G01*
X89470000Y7180000D01*
G75*
G02*
X89610000Y7040000I0J-140000D01*
G01*
X89610000Y6760000D01*
G75*
G02*
X89470000Y6620000I-140000J0D01*
G01*
G37*
M02*
