%TF.GenerationSoftware,KiCad,Pcbnew,(5.1.10)-1*%
%TF.CreationDate,2022-05-16T12:08:25-06:00*%
%TF.ProjectId,Swapper01,53776170-7065-4723-9031-2e6b69636164,rev?*%
%TF.SameCoordinates,Original*%
%TF.FileFunction,Paste,Top*%
%TF.FilePolarity,Positive*%
%FSLAX46Y46*%
G04 Gerber Fmt 4.6, Leading zero omitted, Abs format (unit mm)*
G04 Created by KiCad (PCBNEW (5.1.10)-1) date 2022-05-16 12:08:25*
%MOMM*%
%LPD*%
G01*
G04 APERTURE LIST*
G04 APERTURE END LIST*
%TO.C,J2*%
G36*
G01*
X10055000Y20850000D02*
X10055000Y19600000D01*
G75*
G02*
X9905000Y19450000I-150000J0D01*
G01*
X9605000Y19450000D01*
G75*
G02*
X9455000Y19600000I0J150000D01*
G01*
X9455000Y20850000D01*
G75*
G02*
X9605000Y21000000I150000J0D01*
G01*
X9905000Y21000000D01*
G75*
G02*
X10055000Y20850000I0J-150000D01*
G01*
G37*
G36*
G01*
X9055000Y20850000D02*
X9055000Y19600000D01*
G75*
G02*
X8905000Y19450000I-150000J0D01*
G01*
X8605000Y19450000D01*
G75*
G02*
X8455000Y19600000I0J150000D01*
G01*
X8455000Y20850000D01*
G75*
G02*
X8605000Y21000000I150000J0D01*
G01*
X8905000Y21000000D01*
G75*
G02*
X9055000Y20850000I0J-150000D01*
G01*
G37*
G36*
G01*
X8055000Y20850000D02*
X8055000Y19600000D01*
G75*
G02*
X7905000Y19450000I-150000J0D01*
G01*
X7605000Y19450000D01*
G75*
G02*
X7455000Y19600000I0J150000D01*
G01*
X7455000Y20850000D01*
G75*
G02*
X7605000Y21000000I150000J0D01*
G01*
X7905000Y21000000D01*
G75*
G02*
X8055000Y20850000I0J-150000D01*
G01*
G37*
G36*
G01*
X7055000Y20850000D02*
X7055000Y19600000D01*
G75*
G02*
X6905000Y19450000I-150000J0D01*
G01*
X6605000Y19450000D01*
G75*
G02*
X6455000Y19600000I0J150000D01*
G01*
X6455000Y20850000D01*
G75*
G02*
X6605000Y21000000I150000J0D01*
G01*
X6905000Y21000000D01*
G75*
G02*
X7055000Y20850000I0J-150000D01*
G01*
G37*
G36*
G01*
X11655000Y24750001D02*
X11655000Y23449999D01*
G75*
G02*
X11405001Y23200000I-249999J0D01*
G01*
X10704999Y23200000D01*
G75*
G02*
X10455000Y23449999I0J249999D01*
G01*
X10455000Y24750001D01*
G75*
G02*
X10704999Y25000000I249999J0D01*
G01*
X11405001Y25000000D01*
G75*
G02*
X11655000Y24750001I0J-249999D01*
G01*
G37*
G36*
G01*
X6055000Y24750001D02*
X6055000Y23449999D01*
G75*
G02*
X5805001Y23200000I-249999J0D01*
G01*
X5104999Y23200000D01*
G75*
G02*
X4855000Y23449999I0J249999D01*
G01*
X4855000Y24750001D01*
G75*
G02*
X5104999Y25000000I249999J0D01*
G01*
X5805001Y25000000D01*
G75*
G02*
X6055000Y24750001I0J-249999D01*
G01*
G37*
%TD*%
%TO.C,R6*%
G36*
G01*
X65637500Y5525000D02*
X65162500Y5525000D01*
G75*
G02*
X64925000Y5762500I0J237500D01*
G01*
X64925000Y6262500D01*
G75*
G02*
X65162500Y6500000I237500J0D01*
G01*
X65637500Y6500000D01*
G75*
G02*
X65875000Y6262500I0J-237500D01*
G01*
X65875000Y5762500D01*
G75*
G02*
X65637500Y5525000I-237500J0D01*
G01*
G37*
G36*
G01*
X65637500Y3700000D02*
X65162500Y3700000D01*
G75*
G02*
X64925000Y3937500I0J237500D01*
G01*
X64925000Y4437500D01*
G75*
G02*
X65162500Y4675000I237500J0D01*
G01*
X65637500Y4675000D01*
G75*
G02*
X65875000Y4437500I0J-237500D01*
G01*
X65875000Y3937500D01*
G75*
G02*
X65637500Y3700000I-237500J0D01*
G01*
G37*
%TD*%
%TO.C,R3*%
G36*
G01*
X35637500Y5525000D02*
X35162500Y5525000D01*
G75*
G02*
X34925000Y5762500I0J237500D01*
G01*
X34925000Y6262500D01*
G75*
G02*
X35162500Y6500000I237500J0D01*
G01*
X35637500Y6500000D01*
G75*
G02*
X35875000Y6262500I0J-237500D01*
G01*
X35875000Y5762500D01*
G75*
G02*
X35637500Y5525000I-237500J0D01*
G01*
G37*
G36*
G01*
X35637500Y3700000D02*
X35162500Y3700000D01*
G75*
G02*
X34925000Y3937500I0J237500D01*
G01*
X34925000Y4437500D01*
G75*
G02*
X35162500Y4675000I237500J0D01*
G01*
X35637500Y4675000D01*
G75*
G02*
X35875000Y4437500I0J-237500D01*
G01*
X35875000Y3937500D01*
G75*
G02*
X35637500Y3700000I-237500J0D01*
G01*
G37*
%TD*%
%TO.C,R5*%
G36*
G01*
X55850001Y5500000D02*
X54949999Y5500000D01*
G75*
G02*
X54700000Y5749999I0J249999D01*
G01*
X54700000Y6450001D01*
G75*
G02*
X54949999Y6700000I249999J0D01*
G01*
X55850001Y6700000D01*
G75*
G02*
X56100000Y6450001I0J-249999D01*
G01*
X56100000Y5749999D01*
G75*
G02*
X55850001Y5500000I-249999J0D01*
G01*
G37*
G36*
G01*
X55850001Y3500000D02*
X54949999Y3500000D01*
G75*
G02*
X54700000Y3749999I0J249999D01*
G01*
X54700000Y4450001D01*
G75*
G02*
X54949999Y4700000I249999J0D01*
G01*
X55850001Y4700000D01*
G75*
G02*
X56100000Y4450001I0J-249999D01*
G01*
X56100000Y3749999D01*
G75*
G02*
X55850001Y3500000I-249999J0D01*
G01*
G37*
%TD*%
%TO.C,R2*%
G36*
G01*
X25637500Y5525000D02*
X25162500Y5525000D01*
G75*
G02*
X24925000Y5762500I0J237500D01*
G01*
X24925000Y6262500D01*
G75*
G02*
X25162500Y6500000I237500J0D01*
G01*
X25637500Y6500000D01*
G75*
G02*
X25875000Y6262500I0J-237500D01*
G01*
X25875000Y5762500D01*
G75*
G02*
X25637500Y5525000I-237500J0D01*
G01*
G37*
G36*
G01*
X25637500Y3700000D02*
X25162500Y3700000D01*
G75*
G02*
X24925000Y3937500I0J237500D01*
G01*
X24925000Y4437500D01*
G75*
G02*
X25162500Y4675000I237500J0D01*
G01*
X25637500Y4675000D01*
G75*
G02*
X25875000Y4437500I0J-237500D01*
G01*
X25875000Y3937500D01*
G75*
G02*
X25637500Y3700000I-237500J0D01*
G01*
G37*
%TD*%
%TO.C,R4*%
G36*
G01*
X45850001Y5500000D02*
X44949999Y5500000D01*
G75*
G02*
X44700000Y5749999I0J249999D01*
G01*
X44700000Y6450001D01*
G75*
G02*
X44949999Y6700000I249999J0D01*
G01*
X45850001Y6700000D01*
G75*
G02*
X46100000Y6450001I0J-249999D01*
G01*
X46100000Y5749999D01*
G75*
G02*
X45850001Y5500000I-249999J0D01*
G01*
G37*
G36*
G01*
X45850001Y3500000D02*
X44949999Y3500000D01*
G75*
G02*
X44700000Y3749999I0J249999D01*
G01*
X44700000Y4450001D01*
G75*
G02*
X44949999Y4700000I249999J0D01*
G01*
X45850001Y4700000D01*
G75*
G02*
X46100000Y4450001I0J-249999D01*
G01*
X46100000Y3749999D01*
G75*
G02*
X45850001Y3500000I-249999J0D01*
G01*
G37*
%TD*%
%TO.C,R1*%
G36*
G01*
X15637500Y5525000D02*
X15162500Y5525000D01*
G75*
G02*
X14925000Y5762500I0J237500D01*
G01*
X14925000Y6262500D01*
G75*
G02*
X15162500Y6500000I237500J0D01*
G01*
X15637500Y6500000D01*
G75*
G02*
X15875000Y6262500I0J-237500D01*
G01*
X15875000Y5762500D01*
G75*
G02*
X15637500Y5525000I-237500J0D01*
G01*
G37*
G36*
G01*
X15637500Y3700000D02*
X15162500Y3700000D01*
G75*
G02*
X14925000Y3937500I0J237500D01*
G01*
X14925000Y4437500D01*
G75*
G02*
X15162500Y4675000I237500J0D01*
G01*
X15637500Y4675000D01*
G75*
G02*
X15875000Y4437500I0J-237500D01*
G01*
X15875000Y3937500D01*
G75*
G02*
X15637500Y3700000I-237500J0D01*
G01*
G37*
%TD*%
M02*
