M48
; DRILL file {KiCad (5.1.10)-1} date 05/16/22 12:08:27
; FORMAT={-:-/ absolute / inch / decimal}
; #@! TF.CreationDate,2022-05-16T12:08:27-06:00
; #@! TF.GenerationSoftware,Kicad,Pcbnew,(5.1.10)-1
; #@! TF.FileFunction,Plated,1,2,PTH
FMAT,2
INCH
T1C0.0157
T2C0.0433
T3C0.1280
%
G90
G05
T1
X0.0591Y0.4921
X0.1024Y0.315
X0.1102Y0.2441
X0.1102Y0.1024
X0.1417Y-0.063
X0.25Y0.7
X0.375Y0.45
X0.375Y0.3
X0.3957Y-0.002
X0.4Y0.675
X0.435Y0.4035
X0.45Y0.499
X0.811Y0.4016
X0.811Y0.0
X1.1969Y0.4016
X1.2047Y0.0
X1.5906Y0.4016
X1.5906Y0.0
X1.9843Y0.4016
X1.9843Y0.0
X2.3858Y0.4016
X2.3858Y0.0
T2
X-0.1559Y0.413
X-0.1559Y0.3043
X-0.1559Y0.1957
X-0.1559Y0.087
X-0.0441Y0.4673
X-0.0441Y0.3587
X-0.0441Y0.25
X-0.0441Y0.1413
X-0.0441Y0.0327
T3
X-0.1Y0.7421
X-0.1Y-0.2421
T0
M30
