%TF.GenerationSoftware,KiCad,Pcbnew,(5.1.10)-1*%
%TF.CreationDate,2022-05-16T12:08:26-06:00*%
%TF.ProjectId,Swapper01,53776170-7065-4723-9031-2e6b69636164,rev?*%
%TF.SameCoordinates,Original*%
%TF.FileFunction,Legend,Top*%
%TF.FilePolarity,Positive*%
%FSLAX46Y46*%
G04 Gerber Fmt 4.6, Leading zero omitted, Abs format (unit mm)*
G04 Created by KiCad (PCBNEW (5.1.10)-1) date 2022-05-16 12:08:26*
%MOMM*%
%LPD*%
G01*
G04 APERTURE LIST*
%ADD10C,0.300000*%
%ADD11C,0.150000*%
%ADD12C,0.120000*%
%ADD13C,0.500000*%
%ADD14C,0.254000*%
%ADD15C,0.127000*%
G04 APERTURE END LIST*
D10*
X23487857Y-5677142D02*
X23702142Y-5748571D01*
X24059285Y-5748571D01*
X24202142Y-5677142D01*
X24273571Y-5605714D01*
X24345000Y-5462857D01*
X24345000Y-5320000D01*
X24273571Y-5177142D01*
X24202142Y-5105714D01*
X24059285Y-5034285D01*
X23773571Y-4962857D01*
X23630714Y-4891428D01*
X23559285Y-4820000D01*
X23487857Y-4677142D01*
X23487857Y-4534285D01*
X23559285Y-4391428D01*
X23630714Y-4320000D01*
X23773571Y-4248571D01*
X24130714Y-4248571D01*
X24345000Y-4320000D01*
X24845000Y-4748571D02*
X25130714Y-5748571D01*
X25416428Y-5034285D01*
X25702142Y-5748571D01*
X25987857Y-4748571D01*
X27202142Y-5748571D02*
X27202142Y-4962857D01*
X27130714Y-4820000D01*
X26987857Y-4748571D01*
X26702142Y-4748571D01*
X26559285Y-4820000D01*
X27202142Y-5677142D02*
X27059285Y-5748571D01*
X26702142Y-5748571D01*
X26559285Y-5677142D01*
X26487857Y-5534285D01*
X26487857Y-5391428D01*
X26559285Y-5248571D01*
X26702142Y-5177142D01*
X27059285Y-5177142D01*
X27202142Y-5105714D01*
X27916428Y-4748571D02*
X27916428Y-6248571D01*
X27916428Y-4820000D02*
X28059285Y-4748571D01*
X28345000Y-4748571D01*
X28487857Y-4820000D01*
X28559285Y-4891428D01*
X28630714Y-5034285D01*
X28630714Y-5462857D01*
X28559285Y-5605714D01*
X28487857Y-5677142D01*
X28345000Y-5748571D01*
X28059285Y-5748571D01*
X27916428Y-5677142D01*
X29273571Y-4748571D02*
X29273571Y-6248571D01*
X29273571Y-4820000D02*
X29416428Y-4748571D01*
X29702142Y-4748571D01*
X29845000Y-4820000D01*
X29916428Y-4891428D01*
X29987857Y-5034285D01*
X29987857Y-5462857D01*
X29916428Y-5605714D01*
X29845000Y-5677142D01*
X29702142Y-5748571D01*
X29416428Y-5748571D01*
X29273571Y-5677142D01*
X31202142Y-5677142D02*
X31059285Y-5748571D01*
X30773571Y-5748571D01*
X30630714Y-5677142D01*
X30559285Y-5534285D01*
X30559285Y-4962857D01*
X30630714Y-4820000D01*
X30773571Y-4748571D01*
X31059285Y-4748571D01*
X31202142Y-4820000D01*
X31273571Y-4962857D01*
X31273571Y-5105714D01*
X30559285Y-5248571D01*
X31916428Y-5748571D02*
X31916428Y-4748571D01*
X31916428Y-5034285D02*
X31987857Y-4891428D01*
X32059285Y-4820000D01*
X32202142Y-4748571D01*
X32345000Y-4748571D01*
X32487857Y-5891428D02*
X33630714Y-5891428D01*
X34273571Y-4248571D02*
X34416428Y-4248571D01*
X34559285Y-4320000D01*
X34630714Y-4391428D01*
X34702142Y-4534285D01*
X34773571Y-4820000D01*
X34773571Y-5177142D01*
X34702142Y-5462857D01*
X34630714Y-5605714D01*
X34559285Y-5677142D01*
X34416428Y-5748571D01*
X34273571Y-5748571D01*
X34130714Y-5677142D01*
X34059285Y-5605714D01*
X33987857Y-5462857D01*
X33916428Y-5177142D01*
X33916428Y-4820000D01*
X33987857Y-4534285D01*
X34059285Y-4391428D01*
X34130714Y-4320000D01*
X34273571Y-4248571D01*
X36202142Y-5748571D02*
X35345000Y-5748571D01*
X35773571Y-5748571D02*
X35773571Y-4248571D01*
X35630714Y-4462857D01*
X35487857Y-4605714D01*
X35345000Y-4677142D01*
X20987857Y-8298571D02*
X20487857Y-7584285D01*
X20130714Y-8298571D02*
X20130714Y-6798571D01*
X20702142Y-6798571D01*
X20844999Y-6870000D01*
X20916428Y-6941428D01*
X20987857Y-7084285D01*
X20987857Y-7298571D01*
X20916428Y-7441428D01*
X20844999Y-7512857D01*
X20702142Y-7584285D01*
X20130714Y-7584285D01*
X21487857Y-7298571D02*
X21844999Y-8298571D01*
X22202142Y-7298571D02*
X21844999Y-8298571D01*
X21702142Y-8655714D01*
X21630714Y-8727142D01*
X21487857Y-8798571D01*
X23416428Y-8298571D02*
X23416428Y-7512857D01*
X23344999Y-7370000D01*
X23202142Y-7298571D01*
X22916428Y-7298571D01*
X22773571Y-7370000D01*
X23416428Y-8227142D02*
X23273571Y-8298571D01*
X22916428Y-8298571D01*
X22773571Y-8227142D01*
X22702142Y-8084285D01*
X22702142Y-7941428D01*
X22773571Y-7798571D01*
X22916428Y-7727142D01*
X23273571Y-7727142D01*
X23416428Y-7655714D01*
X24130714Y-7298571D02*
X24130714Y-8298571D01*
X24130714Y-7441428D02*
X24202142Y-7370000D01*
X24344999Y-7298571D01*
X24559285Y-7298571D01*
X24702142Y-7370000D01*
X24773571Y-7512857D01*
X24773571Y-8298571D01*
X26630714Y-8298571D02*
X26630714Y-6798571D01*
X27130714Y-7870000D01*
X27630714Y-6798571D01*
X27630714Y-8298571D01*
X28559285Y-8298571D02*
X28416428Y-8227142D01*
X28344999Y-8155714D01*
X28273571Y-8012857D01*
X28273571Y-7584285D01*
X28344999Y-7441428D01*
X28416428Y-7370000D01*
X28559285Y-7298571D01*
X28773571Y-7298571D01*
X28916428Y-7370000D01*
X28987857Y-7441428D01*
X29059285Y-7584285D01*
X29059285Y-8012857D01*
X28987857Y-8155714D01*
X28916428Y-8227142D01*
X28773571Y-8298571D01*
X28559285Y-8298571D01*
X29702142Y-8298571D02*
X29702142Y-7298571D01*
X29702142Y-7584285D02*
X29773571Y-7441428D01*
X29844999Y-7370000D01*
X29987857Y-7298571D01*
X30130714Y-7298571D01*
X31273571Y-7298571D02*
X31273571Y-8512857D01*
X31202142Y-8655714D01*
X31130714Y-8727142D01*
X30987857Y-8798571D01*
X30773571Y-8798571D01*
X30630714Y-8727142D01*
X31273571Y-8227142D02*
X31130714Y-8298571D01*
X30844999Y-8298571D01*
X30702142Y-8227142D01*
X30630714Y-8155714D01*
X30559285Y-8012857D01*
X30559285Y-7584285D01*
X30630714Y-7441428D01*
X30702142Y-7370000D01*
X30844999Y-7298571D01*
X31130714Y-7298571D01*
X31273571Y-7370000D01*
X32559285Y-8227142D02*
X32416428Y-8298571D01*
X32130714Y-8298571D01*
X31987857Y-8227142D01*
X31916428Y-8084285D01*
X31916428Y-7512857D01*
X31987857Y-7370000D01*
X32130714Y-7298571D01*
X32416428Y-7298571D01*
X32559285Y-7370000D01*
X32630714Y-7512857D01*
X32630714Y-7655714D01*
X31916428Y-7798571D01*
X33273571Y-7298571D02*
X33273571Y-8298571D01*
X33273571Y-7441428D02*
X33344999Y-7370000D01*
X33487857Y-7298571D01*
X33702142Y-7298571D01*
X33845000Y-7370000D01*
X33916428Y-7512857D01*
X33916428Y-8298571D01*
X34559285Y-8227142D02*
X34702142Y-8298571D01*
X34987857Y-8298571D01*
X35130714Y-8227142D01*
X35202142Y-8084285D01*
X35202142Y-8012857D01*
X35130714Y-7870000D01*
X34987857Y-7798571D01*
X34773571Y-7798571D01*
X34630714Y-7727142D01*
X34559285Y-7584285D01*
X34559285Y-7512857D01*
X34630714Y-7370000D01*
X34773571Y-7298571D01*
X34987857Y-7298571D01*
X35130714Y-7370000D01*
X35630714Y-7298571D02*
X36202142Y-7298571D01*
X35844999Y-6798571D02*
X35844999Y-8084285D01*
X35916428Y-8227142D01*
X36059285Y-8298571D01*
X36202142Y-8298571D01*
X37273571Y-8227142D02*
X37130714Y-8298571D01*
X36844999Y-8298571D01*
X36702142Y-8227142D01*
X36630714Y-8084285D01*
X36630714Y-7512857D01*
X36702142Y-7370000D01*
X36844999Y-7298571D01*
X37130714Y-7298571D01*
X37273571Y-7370000D01*
X37344999Y-7512857D01*
X37344999Y-7655714D01*
X36630714Y-7798571D01*
X37987857Y-8298571D02*
X37987857Y-7298571D01*
X37987857Y-7584285D02*
X38059285Y-7441428D01*
X38130714Y-7370000D01*
X38273571Y-7298571D01*
X38416428Y-7298571D01*
X38916428Y-7298571D02*
X38916428Y-8298571D01*
X38916428Y-7441428D02*
X38987857Y-7370000D01*
X39130714Y-7298571D01*
X39345000Y-7298571D01*
X39487857Y-7370000D01*
X39559285Y-7512857D01*
X39559285Y-8298571D01*
X24345000Y-9348571D02*
X23630714Y-9348571D01*
X23559285Y-10062857D01*
X23630714Y-9991428D01*
X23773571Y-9920000D01*
X24130714Y-9920000D01*
X24273571Y-9991428D01*
X24345000Y-10062857D01*
X24416428Y-10205714D01*
X24416428Y-10562857D01*
X24345000Y-10705714D01*
X24273571Y-10777142D01*
X24130714Y-10848571D01*
X23773571Y-10848571D01*
X23630714Y-10777142D01*
X23559285Y-10705714D01*
X26130714Y-9277142D02*
X24845000Y-11205714D01*
X27416428Y-10848571D02*
X26559285Y-10848571D01*
X26987857Y-10848571D02*
X26987857Y-9348571D01*
X26845000Y-9562857D01*
X26702142Y-9705714D01*
X26559285Y-9777142D01*
X28702142Y-9348571D02*
X28416428Y-9348571D01*
X28273571Y-9420000D01*
X28202142Y-9491428D01*
X28059285Y-9705714D01*
X27987857Y-9991428D01*
X27987857Y-10562857D01*
X28059285Y-10705714D01*
X28130714Y-10777142D01*
X28273571Y-10848571D01*
X28559285Y-10848571D01*
X28702142Y-10777142D01*
X28773571Y-10705714D01*
X28845000Y-10562857D01*
X28845000Y-10205714D01*
X28773571Y-10062857D01*
X28702142Y-9991428D01*
X28559285Y-9920000D01*
X28273571Y-9920000D01*
X28130714Y-9991428D01*
X28059285Y-10062857D01*
X27987857Y-10205714D01*
X30559285Y-9277142D02*
X29273571Y-11205714D01*
X30987857Y-9491428D02*
X31059285Y-9420000D01*
X31202142Y-9348571D01*
X31559285Y-9348571D01*
X31702142Y-9420000D01*
X31773571Y-9491428D01*
X31845000Y-9634285D01*
X31845000Y-9777142D01*
X31773571Y-9991428D01*
X30916428Y-10848571D01*
X31845000Y-10848571D01*
X32773571Y-9348571D02*
X32916428Y-9348571D01*
X33059285Y-9420000D01*
X33130714Y-9491428D01*
X33202142Y-9634285D01*
X33273571Y-9920000D01*
X33273571Y-10277142D01*
X33202142Y-10562857D01*
X33130714Y-10705714D01*
X33059285Y-10777142D01*
X32916428Y-10848571D01*
X32773571Y-10848571D01*
X32630714Y-10777142D01*
X32559285Y-10705714D01*
X32487857Y-10562857D01*
X32416428Y-10277142D01*
X32416428Y-9920000D01*
X32487857Y-9634285D01*
X32559285Y-9491428D01*
X32630714Y-9420000D01*
X32773571Y-9348571D01*
X33845000Y-9491428D02*
X33916428Y-9420000D01*
X34059285Y-9348571D01*
X34416428Y-9348571D01*
X34559285Y-9420000D01*
X34630714Y-9491428D01*
X34702142Y-9634285D01*
X34702142Y-9777142D01*
X34630714Y-9991428D01*
X33773571Y-10848571D01*
X34702142Y-10848571D01*
X35273571Y-9491428D02*
X35345000Y-9420000D01*
X35487857Y-9348571D01*
X35845000Y-9348571D01*
X35987857Y-9420000D01*
X36059285Y-9491428D01*
X36130714Y-9634285D01*
X36130714Y-9777142D01*
X36059285Y-9991428D01*
X35202142Y-10848571D01*
X36130714Y-10848571D01*
D11*
X8047619Y-4452380D02*
X8380952Y-5452380D01*
X8714285Y-4452380D01*
X9047619Y-5071428D02*
X9809523Y-5071428D01*
X9428571Y-5452380D02*
X9428571Y-4690476D01*
X8380952Y547619D02*
X8380952Y1547619D01*
X8857142Y928571D02*
X9619047Y928571D01*
X9238095Y547619D02*
X9238095Y1309523D01*
X8380952Y5547619D02*
X8380952Y6547619D01*
X8857142Y5928571D02*
X9619047Y5928571D01*
X8047619Y11547619D02*
X8380952Y10547619D01*
X8714285Y11547619D01*
X9047619Y10928571D02*
X9809523Y10928571D01*
D12*
%TO.C,J2*%
X10195000Y24910000D02*
X6315000Y24910000D01*
X5145000Y20440000D02*
X6195000Y20440000D01*
X5145000Y22940000D02*
X5145000Y20440000D01*
X10315000Y20440000D02*
X10315000Y19450000D01*
X11365000Y20440000D02*
X10315000Y20440000D01*
X11365000Y22940000D02*
X11365000Y20440000D01*
%TO.C,JP25*%
X5000000Y3900000D02*
X4700000Y3600000D01*
X4700000Y4200000D02*
X4700000Y3600000D01*
X5000000Y3900000D02*
X4700000Y4200000D01*
X5200000Y4650000D02*
X7200000Y4650000D01*
X5200000Y550000D02*
X5200000Y4650000D01*
X7200000Y550000D02*
X5200000Y550000D01*
X7200000Y4650000D02*
X7200000Y550000D01*
%TO.C,JP28*%
X5000000Y14700000D02*
X4700000Y14400000D01*
X4700000Y15000000D02*
X4700000Y14400000D01*
X5000000Y14700000D02*
X4700000Y15000000D01*
X5200000Y15450000D02*
X7200000Y15450000D01*
X5200000Y11350000D02*
X5200000Y15450000D01*
X7200000Y11350000D02*
X5200000Y11350000D01*
X7200000Y15450000D02*
X7200000Y11350000D01*
%TO.C,JP27*%
X5000000Y9300000D02*
X4700000Y9000000D01*
X4700000Y9600000D02*
X4700000Y9000000D01*
X5000000Y9300000D02*
X4700000Y9600000D01*
X5200000Y10050000D02*
X7200000Y10050000D01*
X5200000Y5950000D02*
X5200000Y10050000D01*
X7200000Y5950000D02*
X5200000Y5950000D01*
X7200000Y10050000D02*
X7200000Y5950000D01*
%TO.C,JP26*%
X5000000Y-1500000D02*
X4700000Y-1800000D01*
X4700000Y-1200000D02*
X4700000Y-1800000D01*
X5000000Y-1500000D02*
X4700000Y-1200000D01*
X5200000Y-750000D02*
X7200000Y-750000D01*
X5200000Y-4850000D02*
X5200000Y-750000D01*
X7200000Y-4850000D02*
X5200000Y-4850000D01*
X7200000Y-750000D02*
X7200000Y-4850000D01*
%TO.C,R6*%
X64877500Y4845276D02*
X64877500Y5354724D01*
X65922500Y4845276D02*
X65922500Y5354724D01*
%TO.C,R3*%
X34877500Y4845276D02*
X34877500Y5354724D01*
X35922500Y4845276D02*
X35922500Y5354724D01*
%TO.C,R5*%
X54665000Y4872936D02*
X54665000Y5327064D01*
X56135000Y4872936D02*
X56135000Y5327064D01*
%TO.C,R2*%
X24877500Y4845276D02*
X24877500Y5354724D01*
X25922500Y4845276D02*
X25922500Y5354724D01*
%TO.C,R4*%
X44665000Y4872936D02*
X44665000Y5327064D01*
X46135000Y4872936D02*
X46135000Y5327064D01*
%TO.C,R1*%
X14877500Y4845276D02*
X14877500Y5354724D01*
X15922500Y4845276D02*
X15922500Y5354724D01*
%TO.C,JP24*%
X67700000Y8200000D02*
X67100000Y8200000D01*
X68400000Y10300000D02*
X68400000Y8900000D01*
X67100000Y11000000D02*
X67700000Y11000000D01*
X66400000Y8900000D02*
X66400000Y10300000D01*
X67100000Y8200000D02*
G75*
G02*
X66400000Y8900000I0J700000D01*
G01*
X68400000Y8900000D02*
G75*
G02*
X67700000Y8200000I-700000J0D01*
G01*
X67700000Y11000000D02*
G75*
G02*
X68400000Y10300000I0J-700000D01*
G01*
X66400000Y10300000D02*
G75*
G02*
X67100000Y11000000I700000J0D01*
G01*
%TO.C,JP18*%
X67700000Y-800000D02*
X67100000Y-800000D01*
X68400000Y1300000D02*
X68400000Y-100000D01*
X67100000Y2000000D02*
X67700000Y2000000D01*
X66400000Y-100000D02*
X66400000Y1300000D01*
X67100000Y-800000D02*
G75*
G02*
X66400000Y-100000I0J700000D01*
G01*
X68400000Y-100000D02*
G75*
G02*
X67700000Y-800000I-700000J0D01*
G01*
X67700000Y2000000D02*
G75*
G02*
X68400000Y1300000I0J-700000D01*
G01*
X66400000Y1300000D02*
G75*
G02*
X67100000Y2000000I700000J0D01*
G01*
%TO.C,JP12*%
X37700000Y8200000D02*
X37100000Y8200000D01*
X38400000Y10300000D02*
X38400000Y8900000D01*
X37100000Y11000000D02*
X37700000Y11000000D01*
X36400000Y8900000D02*
X36400000Y10300000D01*
X37100000Y8200000D02*
G75*
G02*
X36400000Y8900000I0J700000D01*
G01*
X38400000Y8900000D02*
G75*
G02*
X37700000Y8200000I-700000J0D01*
G01*
X37700000Y11000000D02*
G75*
G02*
X38400000Y10300000I0J-700000D01*
G01*
X36400000Y10300000D02*
G75*
G02*
X37100000Y11000000I700000J0D01*
G01*
%TO.C,JP6*%
X37700000Y-800000D02*
X37100000Y-800000D01*
X38400000Y1300000D02*
X38400000Y-100000D01*
X37100000Y2000000D02*
X37700000Y2000000D01*
X36400000Y-100000D02*
X36400000Y1300000D01*
X37100000Y-800000D02*
G75*
G02*
X36400000Y-100000I0J700000D01*
G01*
X38400000Y-100000D02*
G75*
G02*
X37700000Y-800000I-700000J0D01*
G01*
X37700000Y2000000D02*
G75*
G02*
X38400000Y1300000I0J-700000D01*
G01*
X36400000Y1300000D02*
G75*
G02*
X37100000Y2000000I700000J0D01*
G01*
%TO.C,JP23*%
X63700000Y8200000D02*
X63100000Y8200000D01*
X64400000Y10300000D02*
X64400000Y8900000D01*
X63100000Y11000000D02*
X63700000Y11000000D01*
X62400000Y8900000D02*
X62400000Y10300000D01*
X63100000Y8200000D02*
G75*
G02*
X62400000Y8900000I0J700000D01*
G01*
X64400000Y8900000D02*
G75*
G02*
X63700000Y8200000I-700000J0D01*
G01*
X63700000Y11000000D02*
G75*
G02*
X64400000Y10300000I0J-700000D01*
G01*
X62400000Y10300000D02*
G75*
G02*
X63100000Y11000000I700000J0D01*
G01*
%TO.C,JP17*%
X63700000Y-800000D02*
X63100000Y-800000D01*
X64400000Y1300000D02*
X64400000Y-100000D01*
X63100000Y2000000D02*
X63700000Y2000000D01*
X62400000Y-100000D02*
X62400000Y1300000D01*
X63100000Y-800000D02*
G75*
G02*
X62400000Y-100000I0J700000D01*
G01*
X64400000Y-100000D02*
G75*
G02*
X63700000Y-800000I-700000J0D01*
G01*
X63700000Y2000000D02*
G75*
G02*
X64400000Y1300000I0J-700000D01*
G01*
X62400000Y1300000D02*
G75*
G02*
X63100000Y2000000I700000J0D01*
G01*
%TO.C,JP11*%
X33700000Y8200000D02*
X33100000Y8200000D01*
X34400000Y10300000D02*
X34400000Y8900000D01*
X33100000Y11000000D02*
X33700000Y11000000D01*
X32400000Y8900000D02*
X32400000Y10300000D01*
X33100000Y8200000D02*
G75*
G02*
X32400000Y8900000I0J700000D01*
G01*
X34400000Y8900000D02*
G75*
G02*
X33700000Y8200000I-700000J0D01*
G01*
X33700000Y11000000D02*
G75*
G02*
X34400000Y10300000I0J-700000D01*
G01*
X32400000Y10300000D02*
G75*
G02*
X33100000Y11000000I700000J0D01*
G01*
%TO.C,JP5*%
X33700000Y-800000D02*
X33100000Y-800000D01*
X34400000Y1300000D02*
X34400000Y-100000D01*
X33100000Y2000000D02*
X33700000Y2000000D01*
X32400000Y-100000D02*
X32400000Y1300000D01*
X33100000Y-800000D02*
G75*
G02*
X32400000Y-100000I0J700000D01*
G01*
X34400000Y-100000D02*
G75*
G02*
X33700000Y-800000I-700000J0D01*
G01*
X33700000Y2000000D02*
G75*
G02*
X34400000Y1300000I0J-700000D01*
G01*
X32400000Y1300000D02*
G75*
G02*
X33100000Y2000000I700000J0D01*
G01*
%TO.C,JP22*%
X57900000Y8200000D02*
X57300000Y8200000D01*
X58600000Y10300000D02*
X58600000Y8900000D01*
X57300000Y11000000D02*
X57900000Y11000000D01*
X56600000Y8900000D02*
X56600000Y10300000D01*
X57300000Y8200000D02*
G75*
G02*
X56600000Y8900000I0J700000D01*
G01*
X58600000Y8900000D02*
G75*
G02*
X57900000Y8200000I-700000J0D01*
G01*
X57900000Y11000000D02*
G75*
G02*
X58600000Y10300000I0J-700000D01*
G01*
X56600000Y10300000D02*
G75*
G02*
X57300000Y11000000I700000J0D01*
G01*
%TO.C,JP16*%
X57900000Y-800000D02*
X57300000Y-800000D01*
X58600000Y1300000D02*
X58600000Y-100000D01*
X57300000Y2000000D02*
X57900000Y2000000D01*
X56600000Y-100000D02*
X56600000Y1300000D01*
X57300000Y-800000D02*
G75*
G02*
X56600000Y-100000I0J700000D01*
G01*
X58600000Y-100000D02*
G75*
G02*
X57900000Y-800000I-700000J0D01*
G01*
X57900000Y2000000D02*
G75*
G02*
X58600000Y1300000I0J-700000D01*
G01*
X56600000Y1300000D02*
G75*
G02*
X57300000Y2000000I700000J0D01*
G01*
%TO.C,JP10*%
X27700000Y8200000D02*
X27100000Y8200000D01*
X28400000Y10300000D02*
X28400000Y8900000D01*
X27100000Y11000000D02*
X27700000Y11000000D01*
X26400000Y8900000D02*
X26400000Y10300000D01*
X27100000Y8200000D02*
G75*
G02*
X26400000Y8900000I0J700000D01*
G01*
X28400000Y8900000D02*
G75*
G02*
X27700000Y8200000I-700000J0D01*
G01*
X27700000Y11000000D02*
G75*
G02*
X28400000Y10300000I0J-700000D01*
G01*
X26400000Y10300000D02*
G75*
G02*
X27100000Y11000000I700000J0D01*
G01*
%TO.C,JP4*%
X27700000Y-800000D02*
X27100000Y-800000D01*
X28400000Y1300000D02*
X28400000Y-100000D01*
X27100000Y2000000D02*
X27700000Y2000000D01*
X26400000Y-100000D02*
X26400000Y1300000D01*
X27100000Y-800000D02*
G75*
G02*
X26400000Y-100000I0J700000D01*
G01*
X28400000Y-100000D02*
G75*
G02*
X27700000Y-800000I-700000J0D01*
G01*
X27700000Y2000000D02*
G75*
G02*
X28400000Y1300000I0J-700000D01*
G01*
X26400000Y1300000D02*
G75*
G02*
X27100000Y2000000I700000J0D01*
G01*
%TO.C,JP21*%
X53500000Y8200000D02*
X52900000Y8200000D01*
X54200000Y10300000D02*
X54200000Y8900000D01*
X52900000Y11000000D02*
X53500000Y11000000D01*
X52200000Y8900000D02*
X52200000Y10300000D01*
X52900000Y8200000D02*
G75*
G02*
X52200000Y8900000I0J700000D01*
G01*
X54200000Y8900000D02*
G75*
G02*
X53500000Y8200000I-700000J0D01*
G01*
X53500000Y11000000D02*
G75*
G02*
X54200000Y10300000I0J-700000D01*
G01*
X52200000Y10300000D02*
G75*
G02*
X52900000Y11000000I700000J0D01*
G01*
%TO.C,JP15*%
X53500000Y-800000D02*
X52900000Y-800000D01*
X54200000Y1300000D02*
X54200000Y-100000D01*
X52900000Y2000000D02*
X53500000Y2000000D01*
X52200000Y-100000D02*
X52200000Y1300000D01*
X52900000Y-800000D02*
G75*
G02*
X52200000Y-100000I0J700000D01*
G01*
X54200000Y-100000D02*
G75*
G02*
X53500000Y-800000I-700000J0D01*
G01*
X53500000Y2000000D02*
G75*
G02*
X54200000Y1300000I0J-700000D01*
G01*
X52200000Y1300000D02*
G75*
G02*
X52900000Y2000000I700000J0D01*
G01*
%TO.C,JP9*%
X23700000Y8200000D02*
X23100000Y8200000D01*
X24400000Y10300000D02*
X24400000Y8900000D01*
X23100000Y11000000D02*
X23700000Y11000000D01*
X22400000Y8900000D02*
X22400000Y10300000D01*
X23100000Y8200000D02*
G75*
G02*
X22400000Y8900000I0J700000D01*
G01*
X24400000Y8900000D02*
G75*
G02*
X23700000Y8200000I-700000J0D01*
G01*
X23700000Y11000000D02*
G75*
G02*
X24400000Y10300000I0J-700000D01*
G01*
X22400000Y10300000D02*
G75*
G02*
X23100000Y11000000I700000J0D01*
G01*
%TO.C,JP3*%
X23700000Y-800000D02*
X23100000Y-800000D01*
X24400000Y1300000D02*
X24400000Y-100000D01*
X23100000Y2000000D02*
X23700000Y2000000D01*
X22400000Y-100000D02*
X22400000Y1300000D01*
X23100000Y-800000D02*
G75*
G02*
X22400000Y-100000I0J700000D01*
G01*
X24400000Y-100000D02*
G75*
G02*
X23700000Y-800000I-700000J0D01*
G01*
X23700000Y2000000D02*
G75*
G02*
X24400000Y1300000I0J-700000D01*
G01*
X22400000Y1300000D02*
G75*
G02*
X23100000Y2000000I700000J0D01*
G01*
%TO.C,JP20*%
X47900000Y8200000D02*
X47300000Y8200000D01*
X48600000Y10300000D02*
X48600000Y8900000D01*
X47300000Y11000000D02*
X47900000Y11000000D01*
X46600000Y8900000D02*
X46600000Y10300000D01*
X47300000Y8200000D02*
G75*
G02*
X46600000Y8900000I0J700000D01*
G01*
X48600000Y8900000D02*
G75*
G02*
X47900000Y8200000I-700000J0D01*
G01*
X47900000Y11000000D02*
G75*
G02*
X48600000Y10300000I0J-700000D01*
G01*
X46600000Y10300000D02*
G75*
G02*
X47300000Y11000000I700000J0D01*
G01*
%TO.C,JP14*%
X47900000Y-800000D02*
X47300000Y-800000D01*
X48600000Y1300000D02*
X48600000Y-100000D01*
X47300000Y2000000D02*
X47900000Y2000000D01*
X46600000Y-100000D02*
X46600000Y1300000D01*
X47300000Y-800000D02*
G75*
G02*
X46600000Y-100000I0J700000D01*
G01*
X48600000Y-100000D02*
G75*
G02*
X47900000Y-800000I-700000J0D01*
G01*
X47900000Y2000000D02*
G75*
G02*
X48600000Y1300000I0J-700000D01*
G01*
X46600000Y1300000D02*
G75*
G02*
X47300000Y2000000I700000J0D01*
G01*
%TO.C,JP8*%
X17700000Y8200000D02*
X17100000Y8200000D01*
X18400000Y10300000D02*
X18400000Y8900000D01*
X17100000Y11000000D02*
X17700000Y11000000D01*
X16400000Y8900000D02*
X16400000Y10300000D01*
X17100000Y8200000D02*
G75*
G02*
X16400000Y8900000I0J700000D01*
G01*
X18400000Y8900000D02*
G75*
G02*
X17700000Y8200000I-700000J0D01*
G01*
X17700000Y11000000D02*
G75*
G02*
X18400000Y10300000I0J-700000D01*
G01*
X16400000Y10300000D02*
G75*
G02*
X17100000Y11000000I700000J0D01*
G01*
%TO.C,JP2*%
X17700000Y-800000D02*
X17100000Y-800000D01*
X18400000Y1300000D02*
X18400000Y-100000D01*
X17100000Y2000000D02*
X17700000Y2000000D01*
X16400000Y-100000D02*
X16400000Y1300000D01*
X17100000Y-800000D02*
G75*
G02*
X16400000Y-100000I0J700000D01*
G01*
X18400000Y-100000D02*
G75*
G02*
X17700000Y-800000I-700000J0D01*
G01*
X17700000Y2000000D02*
G75*
G02*
X18400000Y1300000I0J-700000D01*
G01*
X16400000Y1300000D02*
G75*
G02*
X17100000Y2000000I700000J0D01*
G01*
%TO.C,JP19*%
X43500000Y8200000D02*
X42900000Y8200000D01*
X44200000Y10300000D02*
X44200000Y8900000D01*
X42900000Y11000000D02*
X43500000Y11000000D01*
X42200000Y8900000D02*
X42200000Y10300000D01*
X42900000Y8200000D02*
G75*
G02*
X42200000Y8900000I0J700000D01*
G01*
X44200000Y8900000D02*
G75*
G02*
X43500000Y8200000I-700000J0D01*
G01*
X43500000Y11000000D02*
G75*
G02*
X44200000Y10300000I0J-700000D01*
G01*
X42200000Y10300000D02*
G75*
G02*
X42900000Y11000000I700000J0D01*
G01*
%TO.C,JP13*%
X43500000Y-800000D02*
X42900000Y-800000D01*
X44200000Y1300000D02*
X44200000Y-100000D01*
X42900000Y2000000D02*
X43500000Y2000000D01*
X42200000Y-100000D02*
X42200000Y1300000D01*
X42900000Y-800000D02*
G75*
G02*
X42200000Y-100000I0J700000D01*
G01*
X44200000Y-100000D02*
G75*
G02*
X43500000Y-800000I-700000J0D01*
G01*
X43500000Y2000000D02*
G75*
G02*
X44200000Y1300000I0J-700000D01*
G01*
X42200000Y1300000D02*
G75*
G02*
X42900000Y2000000I700000J0D01*
G01*
%TO.C,JP7*%
X13700000Y8200000D02*
X13100000Y8200000D01*
X14400000Y10300000D02*
X14400000Y8900000D01*
X13100000Y11000000D02*
X13700000Y11000000D01*
X12400000Y8900000D02*
X12400000Y10300000D01*
X13100000Y8200000D02*
G75*
G02*
X12400000Y8900000I0J700000D01*
G01*
X14400000Y8900000D02*
G75*
G02*
X13700000Y8200000I-700000J0D01*
G01*
X13700000Y11000000D02*
G75*
G02*
X14400000Y10300000I0J-700000D01*
G01*
X12400000Y10300000D02*
G75*
G02*
X13100000Y11000000I700000J0D01*
G01*
%TO.C,JP1*%
X13700000Y-800000D02*
X13100000Y-800000D01*
X14400000Y1300000D02*
X14400000Y-100000D01*
X13100000Y2000000D02*
X13700000Y2000000D01*
X12400000Y-100000D02*
X12400000Y1300000D01*
X13100000Y-800000D02*
G75*
G02*
X12400000Y-100000I0J700000D01*
G01*
X14400000Y-100000D02*
G75*
G02*
X13700000Y-800000I-700000J0D01*
G01*
X13700000Y2000000D02*
G75*
G02*
X14400000Y1300000I0J-700000D01*
G01*
X12400000Y1300000D02*
G75*
G02*
X13100000Y2000000I700000J0D01*
G01*
D13*
%TO.C,J1*%
X-1530000Y-360000D02*
G75*
G03*
X-1530000Y-360000I-250000J0D01*
G01*
D14*
X-12040000Y20920000D02*
X-18040000Y20920000D01*
X-18040000Y16780000D02*
X-12040000Y16780000D01*
X-18040000Y20890000D02*
X-18040000Y16780000D01*
X-18039000Y-8220000D02*
X-18039000Y-4110000D01*
X-12040000Y-8220000D02*
X-18039000Y-8220000D01*
X-12040000Y-4080000D02*
X-18040000Y-4080000D01*
X-18040000Y14730000D02*
X-12040000Y14730000D01*
X-18040000Y-2020000D02*
X-18040000Y14730000D01*
X-12040000Y-2020000D02*
X-18040000Y-2020000D01*
X-17320000Y6355000D02*
X-18020000Y6355000D01*
X-12040000Y-9050000D02*
X-12040000Y21750000D01*
X460000Y-9050000D02*
X-12040000Y-9050000D01*
X460000Y21750000D02*
X460000Y-9050000D01*
X-12040000Y21750000D02*
X460000Y21750000D01*
%TO.C,J2*%
D11*
X7921666Y18792619D02*
X7921666Y18078333D01*
X7874047Y17935476D01*
X7778809Y17840238D01*
X7635952Y17792619D01*
X7540714Y17792619D01*
X8350238Y18697380D02*
X8397857Y18745000D01*
X8493095Y18792619D01*
X8731190Y18792619D01*
X8826428Y18745000D01*
X8874047Y18697380D01*
X8921666Y18602142D01*
X8921666Y18506904D01*
X8874047Y18364047D01*
X8302619Y17792619D01*
X8921666Y17792619D01*
%TO.C,JP25*%
X3452380Y690476D02*
X4166666Y690476D01*
X4309523Y642857D01*
X4404761Y547619D01*
X4452380Y404761D01*
X4452380Y309523D01*
X4452380Y1166666D02*
X3452380Y1166666D01*
X3452380Y1547619D01*
X3500000Y1642857D01*
X3547619Y1690476D01*
X3642857Y1738095D01*
X3785714Y1738095D01*
X3880952Y1690476D01*
X3928571Y1642857D01*
X3976190Y1547619D01*
X3976190Y1166666D01*
X3547619Y2119047D02*
X3500000Y2166666D01*
X3452380Y2261904D01*
X3452380Y2500000D01*
X3500000Y2595238D01*
X3547619Y2642857D01*
X3642857Y2690476D01*
X3738095Y2690476D01*
X3880952Y2642857D01*
X4452380Y2071428D01*
X4452380Y2690476D01*
X3452380Y3595238D02*
X3452380Y3119047D01*
X3928571Y3071428D01*
X3880952Y3119047D01*
X3833333Y3214285D01*
X3833333Y3452380D01*
X3880952Y3547619D01*
X3928571Y3595238D01*
X4023809Y3642857D01*
X4261904Y3642857D01*
X4357142Y3595238D01*
X4404761Y3547619D01*
X4452380Y3452380D01*
X4452380Y3214285D01*
X4404761Y3119047D01*
X4357142Y3071428D01*
%TO.C,JP28*%
X3452380Y12090476D02*
X4166666Y12090476D01*
X4309523Y12042857D01*
X4404761Y11947619D01*
X4452380Y11804761D01*
X4452380Y11709523D01*
X4452380Y12566666D02*
X3452380Y12566666D01*
X3452380Y12947619D01*
X3500000Y13042857D01*
X3547619Y13090476D01*
X3642857Y13138095D01*
X3785714Y13138095D01*
X3880952Y13090476D01*
X3928571Y13042857D01*
X3976190Y12947619D01*
X3976190Y12566666D01*
X3547619Y13519047D02*
X3500000Y13566666D01*
X3452380Y13661904D01*
X3452380Y13900000D01*
X3500000Y13995238D01*
X3547619Y14042857D01*
X3642857Y14090476D01*
X3738095Y14090476D01*
X3880952Y14042857D01*
X4452380Y13471428D01*
X4452380Y14090476D01*
X3880952Y14661904D02*
X3833333Y14566666D01*
X3785714Y14519047D01*
X3690476Y14471428D01*
X3642857Y14471428D01*
X3547619Y14519047D01*
X3500000Y14566666D01*
X3452380Y14661904D01*
X3452380Y14852380D01*
X3500000Y14947619D01*
X3547619Y14995238D01*
X3642857Y15042857D01*
X3690476Y15042857D01*
X3785714Y14995238D01*
X3833333Y14947619D01*
X3880952Y14852380D01*
X3880952Y14661904D01*
X3928571Y14566666D01*
X3976190Y14519047D01*
X4071428Y14471428D01*
X4261904Y14471428D01*
X4357142Y14519047D01*
X4404761Y14566666D01*
X4452380Y14661904D01*
X4452380Y14852380D01*
X4404761Y14947619D01*
X4357142Y14995238D01*
X4261904Y15042857D01*
X4071428Y15042857D01*
X3976190Y14995238D01*
X3928571Y14947619D01*
X3880952Y14852380D01*
%TO.C,JP27*%
X3452380Y6690476D02*
X4166666Y6690476D01*
X4309523Y6642857D01*
X4404761Y6547619D01*
X4452380Y6404761D01*
X4452380Y6309523D01*
X4452380Y7166666D02*
X3452380Y7166666D01*
X3452380Y7547619D01*
X3500000Y7642857D01*
X3547619Y7690476D01*
X3642857Y7738095D01*
X3785714Y7738095D01*
X3880952Y7690476D01*
X3928571Y7642857D01*
X3976190Y7547619D01*
X3976190Y7166666D01*
X3547619Y8119047D02*
X3500000Y8166666D01*
X3452380Y8261904D01*
X3452380Y8500000D01*
X3500000Y8595238D01*
X3547619Y8642857D01*
X3642857Y8690476D01*
X3738095Y8690476D01*
X3880952Y8642857D01*
X4452380Y8071428D01*
X4452380Y8690476D01*
X3452380Y9023809D02*
X3452380Y9690476D01*
X4452380Y9261904D01*
%TO.C,JP26*%
X3452380Y-4109523D02*
X4166666Y-4109523D01*
X4309523Y-4157142D01*
X4404761Y-4252380D01*
X4452380Y-4395238D01*
X4452380Y-4490476D01*
X4452380Y-3633333D02*
X3452380Y-3633333D01*
X3452380Y-3252380D01*
X3500000Y-3157142D01*
X3547619Y-3109523D01*
X3642857Y-3061904D01*
X3785714Y-3061904D01*
X3880952Y-3109523D01*
X3928571Y-3157142D01*
X3976190Y-3252380D01*
X3976190Y-3633333D01*
X3547619Y-2680952D02*
X3500000Y-2633333D01*
X3452380Y-2538095D01*
X3452380Y-2300000D01*
X3500000Y-2204761D01*
X3547619Y-2157142D01*
X3642857Y-2109523D01*
X3738095Y-2109523D01*
X3880952Y-2157142D01*
X4452380Y-2728571D01*
X4452380Y-2109523D01*
X3452380Y-1252380D02*
X3452380Y-1442857D01*
X3500000Y-1538095D01*
X3547619Y-1585714D01*
X3690476Y-1680952D01*
X3880952Y-1728571D01*
X4261904Y-1728571D01*
X4357142Y-1680952D01*
X4404761Y-1633333D01*
X4452380Y-1538095D01*
X4452380Y-1347619D01*
X4404761Y-1252380D01*
X4357142Y-1204761D01*
X4261904Y-1157142D01*
X4023809Y-1157142D01*
X3928571Y-1204761D01*
X3880952Y-1252380D01*
X3833333Y-1347619D01*
X3833333Y-1538095D01*
X3880952Y-1633333D01*
X3928571Y-1680952D01*
X4023809Y-1728571D01*
%TO.C,R6*%
X64422380Y4933333D02*
X63946190Y4600000D01*
X64422380Y4361904D02*
X63422380Y4361904D01*
X63422380Y4742857D01*
X63470000Y4838095D01*
X63517619Y4885714D01*
X63612857Y4933333D01*
X63755714Y4933333D01*
X63850952Y4885714D01*
X63898571Y4838095D01*
X63946190Y4742857D01*
X63946190Y4361904D01*
X63422380Y5790476D02*
X63422380Y5600000D01*
X63470000Y5504761D01*
X63517619Y5457142D01*
X63660476Y5361904D01*
X63850952Y5314285D01*
X64231904Y5314285D01*
X64327142Y5361904D01*
X64374761Y5409523D01*
X64422380Y5504761D01*
X64422380Y5695238D01*
X64374761Y5790476D01*
X64327142Y5838095D01*
X64231904Y5885714D01*
X63993809Y5885714D01*
X63898571Y5838095D01*
X63850952Y5790476D01*
X63803333Y5695238D01*
X63803333Y5504761D01*
X63850952Y5409523D01*
X63898571Y5361904D01*
X63993809Y5314285D01*
%TO.C,R3*%
X34422380Y4933333D02*
X33946190Y4600000D01*
X34422380Y4361904D02*
X33422380Y4361904D01*
X33422380Y4742857D01*
X33470000Y4838095D01*
X33517619Y4885714D01*
X33612857Y4933333D01*
X33755714Y4933333D01*
X33850952Y4885714D01*
X33898571Y4838095D01*
X33946190Y4742857D01*
X33946190Y4361904D01*
X33422380Y5266666D02*
X33422380Y5885714D01*
X33803333Y5552380D01*
X33803333Y5695238D01*
X33850952Y5790476D01*
X33898571Y5838095D01*
X33993809Y5885714D01*
X34231904Y5885714D01*
X34327142Y5838095D01*
X34374761Y5790476D01*
X34422380Y5695238D01*
X34422380Y5409523D01*
X34374761Y5314285D01*
X34327142Y5266666D01*
%TO.C,R5*%
X54202380Y4933333D02*
X53726190Y4600000D01*
X54202380Y4361904D02*
X53202380Y4361904D01*
X53202380Y4742857D01*
X53250000Y4838095D01*
X53297619Y4885714D01*
X53392857Y4933333D01*
X53535714Y4933333D01*
X53630952Y4885714D01*
X53678571Y4838095D01*
X53726190Y4742857D01*
X53726190Y4361904D01*
X53202380Y5838095D02*
X53202380Y5361904D01*
X53678571Y5314285D01*
X53630952Y5361904D01*
X53583333Y5457142D01*
X53583333Y5695238D01*
X53630952Y5790476D01*
X53678571Y5838095D01*
X53773809Y5885714D01*
X54011904Y5885714D01*
X54107142Y5838095D01*
X54154761Y5790476D01*
X54202380Y5695238D01*
X54202380Y5457142D01*
X54154761Y5361904D01*
X54107142Y5314285D01*
%TO.C,R2*%
X24422380Y4933333D02*
X23946190Y4600000D01*
X24422380Y4361904D02*
X23422380Y4361904D01*
X23422380Y4742857D01*
X23470000Y4838095D01*
X23517619Y4885714D01*
X23612857Y4933333D01*
X23755714Y4933333D01*
X23850952Y4885714D01*
X23898571Y4838095D01*
X23946190Y4742857D01*
X23946190Y4361904D01*
X23517619Y5314285D02*
X23470000Y5361904D01*
X23422380Y5457142D01*
X23422380Y5695238D01*
X23470000Y5790476D01*
X23517619Y5838095D01*
X23612857Y5885714D01*
X23708095Y5885714D01*
X23850952Y5838095D01*
X24422380Y5266666D01*
X24422380Y5885714D01*
%TO.C,R4*%
X44202380Y4933333D02*
X43726190Y4600000D01*
X44202380Y4361904D02*
X43202380Y4361904D01*
X43202380Y4742857D01*
X43250000Y4838095D01*
X43297619Y4885714D01*
X43392857Y4933333D01*
X43535714Y4933333D01*
X43630952Y4885714D01*
X43678571Y4838095D01*
X43726190Y4742857D01*
X43726190Y4361904D01*
X43535714Y5790476D02*
X44202380Y5790476D01*
X43154761Y5552380D02*
X43869047Y5314285D01*
X43869047Y5933333D01*
%TO.C,R1*%
X14422380Y4933333D02*
X13946190Y4600000D01*
X14422380Y4361904D02*
X13422380Y4361904D01*
X13422380Y4742857D01*
X13470000Y4838095D01*
X13517619Y4885714D01*
X13612857Y4933333D01*
X13755714Y4933333D01*
X13850952Y4885714D01*
X13898571Y4838095D01*
X13946190Y4742857D01*
X13946190Y4361904D01*
X14422380Y5885714D02*
X14422380Y5314285D01*
X14422380Y5600000D02*
X13422380Y5600000D01*
X13565238Y5504761D01*
X13660476Y5409523D01*
X13708095Y5314285D01*
%TO.C,JP24*%
X65052380Y8290476D02*
X65766666Y8290476D01*
X65909523Y8242857D01*
X66004761Y8147619D01*
X66052380Y8004761D01*
X66052380Y7909523D01*
X66052380Y8766666D02*
X65052380Y8766666D01*
X65052380Y9147619D01*
X65100000Y9242857D01*
X65147619Y9290476D01*
X65242857Y9338095D01*
X65385714Y9338095D01*
X65480952Y9290476D01*
X65528571Y9242857D01*
X65576190Y9147619D01*
X65576190Y8766666D01*
X65147619Y9719047D02*
X65100000Y9766666D01*
X65052380Y9861904D01*
X65052380Y10100000D01*
X65100000Y10195238D01*
X65147619Y10242857D01*
X65242857Y10290476D01*
X65338095Y10290476D01*
X65480952Y10242857D01*
X66052380Y9671428D01*
X66052380Y10290476D01*
X65385714Y11147619D02*
X66052380Y11147619D01*
X65004761Y10909523D02*
X65719047Y10671428D01*
X65719047Y11290476D01*
%TO.C,JP18*%
X65052380Y-709523D02*
X65766666Y-709523D01*
X65909523Y-757142D01*
X66004761Y-852380D01*
X66052380Y-995238D01*
X66052380Y-1090476D01*
X66052380Y-233333D02*
X65052380Y-233333D01*
X65052380Y147619D01*
X65100000Y242857D01*
X65147619Y290476D01*
X65242857Y338095D01*
X65385714Y338095D01*
X65480952Y290476D01*
X65528571Y242857D01*
X65576190Y147619D01*
X65576190Y-233333D01*
X66052380Y1290476D02*
X66052380Y719047D01*
X66052380Y1004761D02*
X65052380Y1004761D01*
X65195238Y909523D01*
X65290476Y814285D01*
X65338095Y719047D01*
X65480952Y1861904D02*
X65433333Y1766666D01*
X65385714Y1719047D01*
X65290476Y1671428D01*
X65242857Y1671428D01*
X65147619Y1719047D01*
X65100000Y1766666D01*
X65052380Y1861904D01*
X65052380Y2052380D01*
X65100000Y2147619D01*
X65147619Y2195238D01*
X65242857Y2242857D01*
X65290476Y2242857D01*
X65385714Y2195238D01*
X65433333Y2147619D01*
X65480952Y2052380D01*
X65480952Y1861904D01*
X65528571Y1766666D01*
X65576190Y1719047D01*
X65671428Y1671428D01*
X65861904Y1671428D01*
X65957142Y1719047D01*
X66004761Y1766666D01*
X66052380Y1861904D01*
X66052380Y2052380D01*
X66004761Y2147619D01*
X65957142Y2195238D01*
X65861904Y2242857D01*
X65671428Y2242857D01*
X65576190Y2195238D01*
X65528571Y2147619D01*
X65480952Y2052380D01*
%TO.C,JP12*%
X35052380Y8290476D02*
X35766666Y8290476D01*
X35909523Y8242857D01*
X36004761Y8147619D01*
X36052380Y8004761D01*
X36052380Y7909523D01*
X36052380Y8766666D02*
X35052380Y8766666D01*
X35052380Y9147619D01*
X35100000Y9242857D01*
X35147619Y9290476D01*
X35242857Y9338095D01*
X35385714Y9338095D01*
X35480952Y9290476D01*
X35528571Y9242857D01*
X35576190Y9147619D01*
X35576190Y8766666D01*
X36052380Y10290476D02*
X36052380Y9719047D01*
X36052380Y10004761D02*
X35052380Y10004761D01*
X35195238Y9909523D01*
X35290476Y9814285D01*
X35338095Y9719047D01*
X35147619Y10671428D02*
X35100000Y10719047D01*
X35052380Y10814285D01*
X35052380Y11052380D01*
X35100000Y11147619D01*
X35147619Y11195238D01*
X35242857Y11242857D01*
X35338095Y11242857D01*
X35480952Y11195238D01*
X36052380Y10623809D01*
X36052380Y11242857D01*
%TO.C,JP6*%
X35052380Y-233333D02*
X35766666Y-233333D01*
X35909523Y-280952D01*
X36004761Y-376190D01*
X36052380Y-519047D01*
X36052380Y-614285D01*
X36052380Y242857D02*
X35052380Y242857D01*
X35052380Y623809D01*
X35100000Y719047D01*
X35147619Y766666D01*
X35242857Y814285D01*
X35385714Y814285D01*
X35480952Y766666D01*
X35528571Y719047D01*
X35576190Y623809D01*
X35576190Y242857D01*
X35052380Y1671428D02*
X35052380Y1480952D01*
X35100000Y1385714D01*
X35147619Y1338095D01*
X35290476Y1242857D01*
X35480952Y1195238D01*
X35861904Y1195238D01*
X35957142Y1242857D01*
X36004761Y1290476D01*
X36052380Y1385714D01*
X36052380Y1576190D01*
X36004761Y1671428D01*
X35957142Y1719047D01*
X35861904Y1766666D01*
X35623809Y1766666D01*
X35528571Y1719047D01*
X35480952Y1671428D01*
X35433333Y1576190D01*
X35433333Y1385714D01*
X35480952Y1290476D01*
X35528571Y1242857D01*
X35623809Y1195238D01*
%TO.C,JP23*%
X61052380Y8290476D02*
X61766666Y8290476D01*
X61909523Y8242857D01*
X62004761Y8147619D01*
X62052380Y8004761D01*
X62052380Y7909523D01*
X62052380Y8766666D02*
X61052380Y8766666D01*
X61052380Y9147619D01*
X61100000Y9242857D01*
X61147619Y9290476D01*
X61242857Y9338095D01*
X61385714Y9338095D01*
X61480952Y9290476D01*
X61528571Y9242857D01*
X61576190Y9147619D01*
X61576190Y8766666D01*
X61147619Y9719047D02*
X61100000Y9766666D01*
X61052380Y9861904D01*
X61052380Y10100000D01*
X61100000Y10195238D01*
X61147619Y10242857D01*
X61242857Y10290476D01*
X61338095Y10290476D01*
X61480952Y10242857D01*
X62052380Y9671428D01*
X62052380Y10290476D01*
X61052380Y10623809D02*
X61052380Y11242857D01*
X61433333Y10909523D01*
X61433333Y11052380D01*
X61480952Y11147619D01*
X61528571Y11195238D01*
X61623809Y11242857D01*
X61861904Y11242857D01*
X61957142Y11195238D01*
X62004761Y11147619D01*
X62052380Y11052380D01*
X62052380Y10766666D01*
X62004761Y10671428D01*
X61957142Y10623809D01*
%TO.C,JP17*%
X61052380Y-709523D02*
X61766666Y-709523D01*
X61909523Y-757142D01*
X62004761Y-852380D01*
X62052380Y-995238D01*
X62052380Y-1090476D01*
X62052380Y-233333D02*
X61052380Y-233333D01*
X61052380Y147619D01*
X61100000Y242857D01*
X61147619Y290476D01*
X61242857Y338095D01*
X61385714Y338095D01*
X61480952Y290476D01*
X61528571Y242857D01*
X61576190Y147619D01*
X61576190Y-233333D01*
X62052380Y1290476D02*
X62052380Y719047D01*
X62052380Y1004761D02*
X61052380Y1004761D01*
X61195238Y909523D01*
X61290476Y814285D01*
X61338095Y719047D01*
X61052380Y1623809D02*
X61052380Y2290476D01*
X62052380Y1861904D01*
%TO.C,JP11*%
X31052380Y8290476D02*
X31766666Y8290476D01*
X31909523Y8242857D01*
X32004761Y8147619D01*
X32052380Y8004761D01*
X32052380Y7909523D01*
X32052380Y8766666D02*
X31052380Y8766666D01*
X31052380Y9147619D01*
X31100000Y9242857D01*
X31147619Y9290476D01*
X31242857Y9338095D01*
X31385714Y9338095D01*
X31480952Y9290476D01*
X31528571Y9242857D01*
X31576190Y9147619D01*
X31576190Y8766666D01*
X32052380Y10290476D02*
X32052380Y9719047D01*
X32052380Y10004761D02*
X31052380Y10004761D01*
X31195238Y9909523D01*
X31290476Y9814285D01*
X31338095Y9719047D01*
X32052380Y11242857D02*
X32052380Y10671428D01*
X32052380Y10957142D02*
X31052380Y10957142D01*
X31195238Y10861904D01*
X31290476Y10766666D01*
X31338095Y10671428D01*
%TO.C,JP5*%
X31052380Y-233333D02*
X31766666Y-233333D01*
X31909523Y-280952D01*
X32004761Y-376190D01*
X32052380Y-519047D01*
X32052380Y-614285D01*
X32052380Y242857D02*
X31052380Y242857D01*
X31052380Y623809D01*
X31100000Y719047D01*
X31147619Y766666D01*
X31242857Y814285D01*
X31385714Y814285D01*
X31480952Y766666D01*
X31528571Y719047D01*
X31576190Y623809D01*
X31576190Y242857D01*
X31052380Y1719047D02*
X31052380Y1242857D01*
X31528571Y1195238D01*
X31480952Y1242857D01*
X31433333Y1338095D01*
X31433333Y1576190D01*
X31480952Y1671428D01*
X31528571Y1719047D01*
X31623809Y1766666D01*
X31861904Y1766666D01*
X31957142Y1719047D01*
X32004761Y1671428D01*
X32052380Y1576190D01*
X32052380Y1338095D01*
X32004761Y1242857D01*
X31957142Y1195238D01*
%TO.C,JP22*%
X55252380Y8290476D02*
X55966666Y8290476D01*
X56109523Y8242857D01*
X56204761Y8147619D01*
X56252380Y8004761D01*
X56252380Y7909523D01*
X56252380Y8766666D02*
X55252380Y8766666D01*
X55252380Y9147619D01*
X55300000Y9242857D01*
X55347619Y9290476D01*
X55442857Y9338095D01*
X55585714Y9338095D01*
X55680952Y9290476D01*
X55728571Y9242857D01*
X55776190Y9147619D01*
X55776190Y8766666D01*
X55347619Y9719047D02*
X55300000Y9766666D01*
X55252380Y9861904D01*
X55252380Y10100000D01*
X55300000Y10195238D01*
X55347619Y10242857D01*
X55442857Y10290476D01*
X55538095Y10290476D01*
X55680952Y10242857D01*
X56252380Y9671428D01*
X56252380Y10290476D01*
X55347619Y10671428D02*
X55300000Y10719047D01*
X55252380Y10814285D01*
X55252380Y11052380D01*
X55300000Y11147619D01*
X55347619Y11195238D01*
X55442857Y11242857D01*
X55538095Y11242857D01*
X55680952Y11195238D01*
X56252380Y10623809D01*
X56252380Y11242857D01*
%TO.C,JP16*%
X55252380Y-709523D02*
X55966666Y-709523D01*
X56109523Y-757142D01*
X56204761Y-852380D01*
X56252380Y-995238D01*
X56252380Y-1090476D01*
X56252380Y-233333D02*
X55252380Y-233333D01*
X55252380Y147619D01*
X55300000Y242857D01*
X55347619Y290476D01*
X55442857Y338095D01*
X55585714Y338095D01*
X55680952Y290476D01*
X55728571Y242857D01*
X55776190Y147619D01*
X55776190Y-233333D01*
X56252380Y1290476D02*
X56252380Y719047D01*
X56252380Y1004761D02*
X55252380Y1004761D01*
X55395238Y909523D01*
X55490476Y814285D01*
X55538095Y719047D01*
X55252380Y2147619D02*
X55252380Y1957142D01*
X55300000Y1861904D01*
X55347619Y1814285D01*
X55490476Y1719047D01*
X55680952Y1671428D01*
X56061904Y1671428D01*
X56157142Y1719047D01*
X56204761Y1766666D01*
X56252380Y1861904D01*
X56252380Y2052380D01*
X56204761Y2147619D01*
X56157142Y2195238D01*
X56061904Y2242857D01*
X55823809Y2242857D01*
X55728571Y2195238D01*
X55680952Y2147619D01*
X55633333Y2052380D01*
X55633333Y1861904D01*
X55680952Y1766666D01*
X55728571Y1719047D01*
X55823809Y1671428D01*
%TO.C,JP10*%
X25052380Y8290476D02*
X25766666Y8290476D01*
X25909523Y8242857D01*
X26004761Y8147619D01*
X26052380Y8004761D01*
X26052380Y7909523D01*
X26052380Y8766666D02*
X25052380Y8766666D01*
X25052380Y9147619D01*
X25100000Y9242857D01*
X25147619Y9290476D01*
X25242857Y9338095D01*
X25385714Y9338095D01*
X25480952Y9290476D01*
X25528571Y9242857D01*
X25576190Y9147619D01*
X25576190Y8766666D01*
X26052380Y10290476D02*
X26052380Y9719047D01*
X26052380Y10004761D02*
X25052380Y10004761D01*
X25195238Y9909523D01*
X25290476Y9814285D01*
X25338095Y9719047D01*
X25052380Y10909523D02*
X25052380Y11004761D01*
X25100000Y11100000D01*
X25147619Y11147619D01*
X25242857Y11195238D01*
X25433333Y11242857D01*
X25671428Y11242857D01*
X25861904Y11195238D01*
X25957142Y11147619D01*
X26004761Y11100000D01*
X26052380Y11004761D01*
X26052380Y10909523D01*
X26004761Y10814285D01*
X25957142Y10766666D01*
X25861904Y10719047D01*
X25671428Y10671428D01*
X25433333Y10671428D01*
X25242857Y10719047D01*
X25147619Y10766666D01*
X25100000Y10814285D01*
X25052380Y10909523D01*
%TO.C,JP4*%
X25052380Y-233333D02*
X25766666Y-233333D01*
X25909523Y-280952D01*
X26004761Y-376190D01*
X26052380Y-519047D01*
X26052380Y-614285D01*
X26052380Y242857D02*
X25052380Y242857D01*
X25052380Y623809D01*
X25100000Y719047D01*
X25147619Y766666D01*
X25242857Y814285D01*
X25385714Y814285D01*
X25480952Y766666D01*
X25528571Y719047D01*
X25576190Y623809D01*
X25576190Y242857D01*
X25385714Y1671428D02*
X26052380Y1671428D01*
X25004761Y1433333D02*
X25719047Y1195238D01*
X25719047Y1814285D01*
%TO.C,JP21*%
X50852380Y8290476D02*
X51566666Y8290476D01*
X51709523Y8242857D01*
X51804761Y8147619D01*
X51852380Y8004761D01*
X51852380Y7909523D01*
X51852380Y8766666D02*
X50852380Y8766666D01*
X50852380Y9147619D01*
X50900000Y9242857D01*
X50947619Y9290476D01*
X51042857Y9338095D01*
X51185714Y9338095D01*
X51280952Y9290476D01*
X51328571Y9242857D01*
X51376190Y9147619D01*
X51376190Y8766666D01*
X50947619Y9719047D02*
X50900000Y9766666D01*
X50852380Y9861904D01*
X50852380Y10100000D01*
X50900000Y10195238D01*
X50947619Y10242857D01*
X51042857Y10290476D01*
X51138095Y10290476D01*
X51280952Y10242857D01*
X51852380Y9671428D01*
X51852380Y10290476D01*
X51852380Y11242857D02*
X51852380Y10671428D01*
X51852380Y10957142D02*
X50852380Y10957142D01*
X50995238Y10861904D01*
X51090476Y10766666D01*
X51138095Y10671428D01*
%TO.C,JP15*%
X50852380Y-709523D02*
X51566666Y-709523D01*
X51709523Y-757142D01*
X51804761Y-852380D01*
X51852380Y-995238D01*
X51852380Y-1090476D01*
X51852380Y-233333D02*
X50852380Y-233333D01*
X50852380Y147619D01*
X50900000Y242857D01*
X50947619Y290476D01*
X51042857Y338095D01*
X51185714Y338095D01*
X51280952Y290476D01*
X51328571Y242857D01*
X51376190Y147619D01*
X51376190Y-233333D01*
X51852380Y1290476D02*
X51852380Y719047D01*
X51852380Y1004761D02*
X50852380Y1004761D01*
X50995238Y909523D01*
X51090476Y814285D01*
X51138095Y719047D01*
X50852380Y2195238D02*
X50852380Y1719047D01*
X51328571Y1671428D01*
X51280952Y1719047D01*
X51233333Y1814285D01*
X51233333Y2052380D01*
X51280952Y2147619D01*
X51328571Y2195238D01*
X51423809Y2242857D01*
X51661904Y2242857D01*
X51757142Y2195238D01*
X51804761Y2147619D01*
X51852380Y2052380D01*
X51852380Y1814285D01*
X51804761Y1719047D01*
X51757142Y1671428D01*
%TO.C,JP9*%
X21052380Y8766666D02*
X21766666Y8766666D01*
X21909523Y8719047D01*
X22004761Y8623809D01*
X22052380Y8480952D01*
X22052380Y8385714D01*
X22052380Y9242857D02*
X21052380Y9242857D01*
X21052380Y9623809D01*
X21100000Y9719047D01*
X21147619Y9766666D01*
X21242857Y9814285D01*
X21385714Y9814285D01*
X21480952Y9766666D01*
X21528571Y9719047D01*
X21576190Y9623809D01*
X21576190Y9242857D01*
X22052380Y10290476D02*
X22052380Y10480952D01*
X22004761Y10576190D01*
X21957142Y10623809D01*
X21814285Y10719047D01*
X21623809Y10766666D01*
X21242857Y10766666D01*
X21147619Y10719047D01*
X21100000Y10671428D01*
X21052380Y10576190D01*
X21052380Y10385714D01*
X21100000Y10290476D01*
X21147619Y10242857D01*
X21242857Y10195238D01*
X21480952Y10195238D01*
X21576190Y10242857D01*
X21623809Y10290476D01*
X21671428Y10385714D01*
X21671428Y10576190D01*
X21623809Y10671428D01*
X21576190Y10719047D01*
X21480952Y10766666D01*
%TO.C,JP3*%
X21052380Y-233333D02*
X21766666Y-233333D01*
X21909523Y-280952D01*
X22004761Y-376190D01*
X22052380Y-519047D01*
X22052380Y-614285D01*
X22052380Y242857D02*
X21052380Y242857D01*
X21052380Y623809D01*
X21100000Y719047D01*
X21147619Y766666D01*
X21242857Y814285D01*
X21385714Y814285D01*
X21480952Y766666D01*
X21528571Y719047D01*
X21576190Y623809D01*
X21576190Y242857D01*
X21052380Y1147619D02*
X21052380Y1766666D01*
X21433333Y1433333D01*
X21433333Y1576190D01*
X21480952Y1671428D01*
X21528571Y1719047D01*
X21623809Y1766666D01*
X21861904Y1766666D01*
X21957142Y1719047D01*
X22004761Y1671428D01*
X22052380Y1576190D01*
X22052380Y1290476D01*
X22004761Y1195238D01*
X21957142Y1147619D01*
%TO.C,JP20*%
X45252380Y8290476D02*
X45966666Y8290476D01*
X46109523Y8242857D01*
X46204761Y8147619D01*
X46252380Y8004761D01*
X46252380Y7909523D01*
X46252380Y8766666D02*
X45252380Y8766666D01*
X45252380Y9147619D01*
X45300000Y9242857D01*
X45347619Y9290476D01*
X45442857Y9338095D01*
X45585714Y9338095D01*
X45680952Y9290476D01*
X45728571Y9242857D01*
X45776190Y9147619D01*
X45776190Y8766666D01*
X45347619Y9719047D02*
X45300000Y9766666D01*
X45252380Y9861904D01*
X45252380Y10100000D01*
X45300000Y10195238D01*
X45347619Y10242857D01*
X45442857Y10290476D01*
X45538095Y10290476D01*
X45680952Y10242857D01*
X46252380Y9671428D01*
X46252380Y10290476D01*
X45252380Y10909523D02*
X45252380Y11004761D01*
X45300000Y11100000D01*
X45347619Y11147619D01*
X45442857Y11195238D01*
X45633333Y11242857D01*
X45871428Y11242857D01*
X46061904Y11195238D01*
X46157142Y11147619D01*
X46204761Y11100000D01*
X46252380Y11004761D01*
X46252380Y10909523D01*
X46204761Y10814285D01*
X46157142Y10766666D01*
X46061904Y10719047D01*
X45871428Y10671428D01*
X45633333Y10671428D01*
X45442857Y10719047D01*
X45347619Y10766666D01*
X45300000Y10814285D01*
X45252380Y10909523D01*
%TO.C,JP14*%
X45252380Y-709523D02*
X45966666Y-709523D01*
X46109523Y-757142D01*
X46204761Y-852380D01*
X46252380Y-995238D01*
X46252380Y-1090476D01*
X46252380Y-233333D02*
X45252380Y-233333D01*
X45252380Y147619D01*
X45300000Y242857D01*
X45347619Y290476D01*
X45442857Y338095D01*
X45585714Y338095D01*
X45680952Y290476D01*
X45728571Y242857D01*
X45776190Y147619D01*
X45776190Y-233333D01*
X46252380Y1290476D02*
X46252380Y719047D01*
X46252380Y1004761D02*
X45252380Y1004761D01*
X45395238Y909523D01*
X45490476Y814285D01*
X45538095Y719047D01*
X45585714Y2147619D02*
X46252380Y2147619D01*
X45204761Y1909523D02*
X45919047Y1671428D01*
X45919047Y2290476D01*
%TO.C,JP8*%
X15052380Y8766666D02*
X15766666Y8766666D01*
X15909523Y8719047D01*
X16004761Y8623809D01*
X16052380Y8480952D01*
X16052380Y8385714D01*
X16052380Y9242857D02*
X15052380Y9242857D01*
X15052380Y9623809D01*
X15100000Y9719047D01*
X15147619Y9766666D01*
X15242857Y9814285D01*
X15385714Y9814285D01*
X15480952Y9766666D01*
X15528571Y9719047D01*
X15576190Y9623809D01*
X15576190Y9242857D01*
X15480952Y10385714D02*
X15433333Y10290476D01*
X15385714Y10242857D01*
X15290476Y10195238D01*
X15242857Y10195238D01*
X15147619Y10242857D01*
X15100000Y10290476D01*
X15052380Y10385714D01*
X15052380Y10576190D01*
X15100000Y10671428D01*
X15147619Y10719047D01*
X15242857Y10766666D01*
X15290476Y10766666D01*
X15385714Y10719047D01*
X15433333Y10671428D01*
X15480952Y10576190D01*
X15480952Y10385714D01*
X15528571Y10290476D01*
X15576190Y10242857D01*
X15671428Y10195238D01*
X15861904Y10195238D01*
X15957142Y10242857D01*
X16004761Y10290476D01*
X16052380Y10385714D01*
X16052380Y10576190D01*
X16004761Y10671428D01*
X15957142Y10719047D01*
X15861904Y10766666D01*
X15671428Y10766666D01*
X15576190Y10719047D01*
X15528571Y10671428D01*
X15480952Y10576190D01*
%TO.C,JP2*%
X15052380Y-233333D02*
X15766666Y-233333D01*
X15909523Y-280952D01*
X16004761Y-376190D01*
X16052380Y-519047D01*
X16052380Y-614285D01*
X16052380Y242857D02*
X15052380Y242857D01*
X15052380Y623809D01*
X15100000Y719047D01*
X15147619Y766666D01*
X15242857Y814285D01*
X15385714Y814285D01*
X15480952Y766666D01*
X15528571Y719047D01*
X15576190Y623809D01*
X15576190Y242857D01*
X15147619Y1195238D02*
X15100000Y1242857D01*
X15052380Y1338095D01*
X15052380Y1576190D01*
X15100000Y1671428D01*
X15147619Y1719047D01*
X15242857Y1766666D01*
X15338095Y1766666D01*
X15480952Y1719047D01*
X16052380Y1147619D01*
X16052380Y1766666D01*
%TO.C,JP19*%
X40852380Y8290476D02*
X41566666Y8290476D01*
X41709523Y8242857D01*
X41804761Y8147619D01*
X41852380Y8004761D01*
X41852380Y7909523D01*
X41852380Y8766666D02*
X40852380Y8766666D01*
X40852380Y9147619D01*
X40900000Y9242857D01*
X40947619Y9290476D01*
X41042857Y9338095D01*
X41185714Y9338095D01*
X41280952Y9290476D01*
X41328571Y9242857D01*
X41376190Y9147619D01*
X41376190Y8766666D01*
X41852380Y10290476D02*
X41852380Y9719047D01*
X41852380Y10004761D02*
X40852380Y10004761D01*
X40995238Y9909523D01*
X41090476Y9814285D01*
X41138095Y9719047D01*
X41852380Y10766666D02*
X41852380Y10957142D01*
X41804761Y11052380D01*
X41757142Y11100000D01*
X41614285Y11195238D01*
X41423809Y11242857D01*
X41042857Y11242857D01*
X40947619Y11195238D01*
X40900000Y11147619D01*
X40852380Y11052380D01*
X40852380Y10861904D01*
X40900000Y10766666D01*
X40947619Y10719047D01*
X41042857Y10671428D01*
X41280952Y10671428D01*
X41376190Y10719047D01*
X41423809Y10766666D01*
X41471428Y10861904D01*
X41471428Y11052380D01*
X41423809Y11147619D01*
X41376190Y11195238D01*
X41280952Y11242857D01*
%TO.C,JP13*%
X40852380Y-709523D02*
X41566666Y-709523D01*
X41709523Y-757142D01*
X41804761Y-852380D01*
X41852380Y-995238D01*
X41852380Y-1090476D01*
X41852380Y-233333D02*
X40852380Y-233333D01*
X40852380Y147619D01*
X40900000Y242857D01*
X40947619Y290476D01*
X41042857Y338095D01*
X41185714Y338095D01*
X41280952Y290476D01*
X41328571Y242857D01*
X41376190Y147619D01*
X41376190Y-233333D01*
X41852380Y1290476D02*
X41852380Y719047D01*
X41852380Y1004761D02*
X40852380Y1004761D01*
X40995238Y909523D01*
X41090476Y814285D01*
X41138095Y719047D01*
X40852380Y1623809D02*
X40852380Y2242857D01*
X41233333Y1909523D01*
X41233333Y2052380D01*
X41280952Y2147619D01*
X41328571Y2195238D01*
X41423809Y2242857D01*
X41661904Y2242857D01*
X41757142Y2195238D01*
X41804761Y2147619D01*
X41852380Y2052380D01*
X41852380Y1766666D01*
X41804761Y1671428D01*
X41757142Y1623809D01*
%TO.C,JP7*%
X11052380Y8766666D02*
X11766666Y8766666D01*
X11909523Y8719047D01*
X12004761Y8623809D01*
X12052380Y8480952D01*
X12052380Y8385714D01*
X12052380Y9242857D02*
X11052380Y9242857D01*
X11052380Y9623809D01*
X11100000Y9719047D01*
X11147619Y9766666D01*
X11242857Y9814285D01*
X11385714Y9814285D01*
X11480952Y9766666D01*
X11528571Y9719047D01*
X11576190Y9623809D01*
X11576190Y9242857D01*
X11052380Y10147619D02*
X11052380Y10814285D01*
X12052380Y10385714D01*
%TO.C,JP1*%
X11052380Y-233333D02*
X11766666Y-233333D01*
X11909523Y-280952D01*
X12004761Y-376190D01*
X12052380Y-519047D01*
X12052380Y-614285D01*
X12052380Y242857D02*
X11052380Y242857D01*
X11052380Y623809D01*
X11100000Y719047D01*
X11147619Y766666D01*
X11242857Y814285D01*
X11385714Y814285D01*
X11480952Y766666D01*
X11528571Y719047D01*
X11576190Y623809D01*
X11576190Y242857D01*
X12052380Y1766666D02*
X12052380Y1195238D01*
X12052380Y1480952D02*
X11052380Y1480952D01*
X11195238Y1385714D01*
X11290476Y1290476D01*
X11338095Y1195238D01*
%TO.C,J1*%
X-3827976Y3690619D02*
X-3827976Y2976333D01*
X-3875595Y2833476D01*
X-3970833Y2738238D01*
X-4113690Y2690619D01*
X-4208928Y2690619D01*
X-2827976Y2690619D02*
X-3399404Y2690619D01*
X-3113690Y2690619D02*
X-3113690Y3690619D01*
X-3208928Y3547761D01*
X-3304166Y3452523D01*
X-3399404Y3404904D01*
D15*
X-4305261Y-668121D02*
X-4305261Y-795169D01*
X-4273500Y-858692D01*
X-4241738Y-890454D01*
X-4146452Y-953978D01*
X-4019404Y-985740D01*
X-3765309Y-985740D01*
X-3701785Y-953978D01*
X-3670023Y-922216D01*
X-3638261Y-858692D01*
X-3638261Y-731645D01*
X-3670023Y-668121D01*
X-3701785Y-636359D01*
X-3765309Y-604597D01*
X-3924119Y-604597D01*
X-3987642Y-636359D01*
X-4019404Y-668121D01*
X-4051166Y-731645D01*
X-4051166Y-858692D01*
X-4019404Y-922216D01*
X-3987642Y-953978D01*
X-3924119Y-985740D01*
X-3538261Y10877783D02*
X-3538261Y11004830D01*
X-3570023Y11068354D01*
X-3601785Y11100116D01*
X-3697071Y11163640D01*
X-3824119Y11195402D01*
X-4078214Y11195402D01*
X-4141738Y11163640D01*
X-4173500Y11131878D01*
X-4205261Y11068354D01*
X-4205261Y10941307D01*
X-4173500Y10877783D01*
X-4141738Y10846021D01*
X-4078214Y10814259D01*
X-3919404Y10814259D01*
X-3855880Y10846021D01*
X-3824119Y10877783D01*
X-3792357Y10941307D01*
X-3792357Y11068354D01*
X-3824119Y11131878D01*
X-3855880Y11163640D01*
X-3919404Y11195402D01*
X-1028261Y12463640D02*
X-1028261Y12146021D01*
X-710642Y12114259D01*
X-742404Y12146021D01*
X-774166Y12209545D01*
X-774166Y12368354D01*
X-742404Y12431878D01*
X-710642Y12463640D01*
X-647119Y12495402D01*
X-488309Y12495402D01*
X-424785Y12463640D01*
X-393023Y12431878D01*
X-361261Y12368354D01*
X-361261Y12209545D01*
X-393023Y12146021D01*
X-424785Y12114259D01*
X-259261Y-1652597D02*
X-259261Y-2033740D01*
X-259261Y-1843169D02*
X-926261Y-1843169D01*
X-830976Y-1906692D01*
X-767452Y-1970216D01*
X-735690Y-2033740D01*
%TD*%
M02*
