%TF.GenerationSoftware,KiCad,Pcbnew,(5.1.10)-1*%
%TF.CreationDate,2022-05-16T12:08:26-06:00*%
%TF.ProjectId,Swapper01,53776170-7065-4723-9031-2e6b69636164,rev?*%
%TF.SameCoordinates,Original*%
%TF.FileFunction,Soldermask,Top*%
%TF.FilePolarity,Negative*%
%FSLAX46Y46*%
G04 Gerber Fmt 4.6, Leading zero omitted, Abs format (unit mm)*
G04 Created by KiCad (PCBNEW (5.1.10)-1) date 2022-05-16 12:08:26*
%MOMM*%
%LPD*%
G01*
G04 APERTURE LIST*
%ADD10R,1.500000X1.000000*%
%ADD11C,0.100000*%
%ADD12C,5.000000*%
%ADD13C,1.575000*%
%ADD14R,1.575000X1.575000*%
G04 APERTURE END LIST*
%TO.C,J2*%
G36*
G01*
X10055000Y20850000D02*
X10055000Y19600000D01*
G75*
G02*
X9905000Y19450000I-150000J0D01*
G01*
X9605000Y19450000D01*
G75*
G02*
X9455000Y19600000I0J150000D01*
G01*
X9455000Y20850000D01*
G75*
G02*
X9605000Y21000000I150000J0D01*
G01*
X9905000Y21000000D01*
G75*
G02*
X10055000Y20850000I0J-150000D01*
G01*
G37*
G36*
G01*
X9055000Y20850000D02*
X9055000Y19600000D01*
G75*
G02*
X8905000Y19450000I-150000J0D01*
G01*
X8605000Y19450000D01*
G75*
G02*
X8455000Y19600000I0J150000D01*
G01*
X8455000Y20850000D01*
G75*
G02*
X8605000Y21000000I150000J0D01*
G01*
X8905000Y21000000D01*
G75*
G02*
X9055000Y20850000I0J-150000D01*
G01*
G37*
G36*
G01*
X8055000Y20850000D02*
X8055000Y19600000D01*
G75*
G02*
X7905000Y19450000I-150000J0D01*
G01*
X7605000Y19450000D01*
G75*
G02*
X7455000Y19600000I0J150000D01*
G01*
X7455000Y20850000D01*
G75*
G02*
X7605000Y21000000I150000J0D01*
G01*
X7905000Y21000000D01*
G75*
G02*
X8055000Y20850000I0J-150000D01*
G01*
G37*
G36*
G01*
X7055000Y20850000D02*
X7055000Y19600000D01*
G75*
G02*
X6905000Y19450000I-150000J0D01*
G01*
X6605000Y19450000D01*
G75*
G02*
X6455000Y19600000I0J150000D01*
G01*
X6455000Y20850000D01*
G75*
G02*
X6605000Y21000000I150000J0D01*
G01*
X6905000Y21000000D01*
G75*
G02*
X7055000Y20850000I0J-150000D01*
G01*
G37*
G36*
G01*
X11655000Y24750001D02*
X11655000Y23449999D01*
G75*
G02*
X11405001Y23200000I-249999J0D01*
G01*
X10704999Y23200000D01*
G75*
G02*
X10455000Y23449999I0J249999D01*
G01*
X10455000Y24750001D01*
G75*
G02*
X10704999Y25000000I249999J0D01*
G01*
X11405001Y25000000D01*
G75*
G02*
X11655000Y24750001I0J-249999D01*
G01*
G37*
G36*
G01*
X6055000Y24750001D02*
X6055000Y23449999D01*
G75*
G02*
X5805001Y23200000I-249999J0D01*
G01*
X5104999Y23200000D01*
G75*
G02*
X4855000Y23449999I0J249999D01*
G01*
X4855000Y24750001D01*
G75*
G02*
X5104999Y25000000I249999J0D01*
G01*
X5805001Y25000000D01*
G75*
G02*
X6055000Y24750001I0J-249999D01*
G01*
G37*
%TD*%
D10*
%TO.C,JP25*%
X6200000Y3900000D03*
X6200000Y2600000D03*
X6200000Y1300000D03*
%TD*%
%TO.C,JP28*%
X6200000Y14700000D03*
X6200000Y13400000D03*
X6200000Y12100000D03*
%TD*%
%TO.C,JP27*%
X6200000Y9300000D03*
X6200000Y8000000D03*
X6200000Y6700000D03*
%TD*%
%TO.C,JP26*%
X6200000Y-1500000D03*
X6200000Y-2800000D03*
X6200000Y-4100000D03*
%TD*%
%TO.C,R6*%
G36*
G01*
X65637500Y5525000D02*
X65162500Y5525000D01*
G75*
G02*
X64925000Y5762500I0J237500D01*
G01*
X64925000Y6262500D01*
G75*
G02*
X65162500Y6500000I237500J0D01*
G01*
X65637500Y6500000D01*
G75*
G02*
X65875000Y6262500I0J-237500D01*
G01*
X65875000Y5762500D01*
G75*
G02*
X65637500Y5525000I-237500J0D01*
G01*
G37*
G36*
G01*
X65637500Y3700000D02*
X65162500Y3700000D01*
G75*
G02*
X64925000Y3937500I0J237500D01*
G01*
X64925000Y4437500D01*
G75*
G02*
X65162500Y4675000I237500J0D01*
G01*
X65637500Y4675000D01*
G75*
G02*
X65875000Y4437500I0J-237500D01*
G01*
X65875000Y3937500D01*
G75*
G02*
X65637500Y3700000I-237500J0D01*
G01*
G37*
%TD*%
%TO.C,R3*%
G36*
G01*
X35637500Y5525000D02*
X35162500Y5525000D01*
G75*
G02*
X34925000Y5762500I0J237500D01*
G01*
X34925000Y6262500D01*
G75*
G02*
X35162500Y6500000I237500J0D01*
G01*
X35637500Y6500000D01*
G75*
G02*
X35875000Y6262500I0J-237500D01*
G01*
X35875000Y5762500D01*
G75*
G02*
X35637500Y5525000I-237500J0D01*
G01*
G37*
G36*
G01*
X35637500Y3700000D02*
X35162500Y3700000D01*
G75*
G02*
X34925000Y3937500I0J237500D01*
G01*
X34925000Y4437500D01*
G75*
G02*
X35162500Y4675000I237500J0D01*
G01*
X35637500Y4675000D01*
G75*
G02*
X35875000Y4437500I0J-237500D01*
G01*
X35875000Y3937500D01*
G75*
G02*
X35637500Y3700000I-237500J0D01*
G01*
G37*
%TD*%
%TO.C,R5*%
G36*
G01*
X55850001Y5500000D02*
X54949999Y5500000D01*
G75*
G02*
X54700000Y5749999I0J249999D01*
G01*
X54700000Y6450001D01*
G75*
G02*
X54949999Y6700000I249999J0D01*
G01*
X55850001Y6700000D01*
G75*
G02*
X56100000Y6450001I0J-249999D01*
G01*
X56100000Y5749999D01*
G75*
G02*
X55850001Y5500000I-249999J0D01*
G01*
G37*
G36*
G01*
X55850001Y3500000D02*
X54949999Y3500000D01*
G75*
G02*
X54700000Y3749999I0J249999D01*
G01*
X54700000Y4450001D01*
G75*
G02*
X54949999Y4700000I249999J0D01*
G01*
X55850001Y4700000D01*
G75*
G02*
X56100000Y4450001I0J-249999D01*
G01*
X56100000Y3749999D01*
G75*
G02*
X55850001Y3500000I-249999J0D01*
G01*
G37*
%TD*%
%TO.C,R2*%
G36*
G01*
X25637500Y5525000D02*
X25162500Y5525000D01*
G75*
G02*
X24925000Y5762500I0J237500D01*
G01*
X24925000Y6262500D01*
G75*
G02*
X25162500Y6500000I237500J0D01*
G01*
X25637500Y6500000D01*
G75*
G02*
X25875000Y6262500I0J-237500D01*
G01*
X25875000Y5762500D01*
G75*
G02*
X25637500Y5525000I-237500J0D01*
G01*
G37*
G36*
G01*
X25637500Y3700000D02*
X25162500Y3700000D01*
G75*
G02*
X24925000Y3937500I0J237500D01*
G01*
X24925000Y4437500D01*
G75*
G02*
X25162500Y4675000I237500J0D01*
G01*
X25637500Y4675000D01*
G75*
G02*
X25875000Y4437500I0J-237500D01*
G01*
X25875000Y3937500D01*
G75*
G02*
X25637500Y3700000I-237500J0D01*
G01*
G37*
%TD*%
%TO.C,R4*%
G36*
G01*
X45850001Y5500000D02*
X44949999Y5500000D01*
G75*
G02*
X44700000Y5749999I0J249999D01*
G01*
X44700000Y6450001D01*
G75*
G02*
X44949999Y6700000I249999J0D01*
G01*
X45850001Y6700000D01*
G75*
G02*
X46100000Y6450001I0J-249999D01*
G01*
X46100000Y5749999D01*
G75*
G02*
X45850001Y5500000I-249999J0D01*
G01*
G37*
G36*
G01*
X45850001Y3500000D02*
X44949999Y3500000D01*
G75*
G02*
X44700000Y3749999I0J249999D01*
G01*
X44700000Y4450001D01*
G75*
G02*
X44949999Y4700000I249999J0D01*
G01*
X45850001Y4700000D01*
G75*
G02*
X46100000Y4450001I0J-249999D01*
G01*
X46100000Y3749999D01*
G75*
G02*
X45850001Y3500000I-249999J0D01*
G01*
G37*
%TD*%
%TO.C,R1*%
G36*
G01*
X15637500Y5525000D02*
X15162500Y5525000D01*
G75*
G02*
X14925000Y5762500I0J237500D01*
G01*
X14925000Y6262500D01*
G75*
G02*
X15162500Y6500000I237500J0D01*
G01*
X15637500Y6500000D01*
G75*
G02*
X15875000Y6262500I0J-237500D01*
G01*
X15875000Y5762500D01*
G75*
G02*
X15637500Y5525000I-237500J0D01*
G01*
G37*
G36*
G01*
X15637500Y3700000D02*
X15162500Y3700000D01*
G75*
G02*
X14925000Y3937500I0J237500D01*
G01*
X14925000Y4437500D01*
G75*
G02*
X15162500Y4675000I237500J0D01*
G01*
X15637500Y4675000D01*
G75*
G02*
X15875000Y4437500I0J-237500D01*
G01*
X15875000Y3937500D01*
G75*
G02*
X15637500Y3700000I-237500J0D01*
G01*
G37*
%TD*%
D11*
%TO.C,JP24*%
G36*
X66650602Y10250000D02*
G01*
X66650602Y10274534D01*
X66655412Y10323365D01*
X66664984Y10371490D01*
X66679228Y10418445D01*
X66698005Y10463778D01*
X66721136Y10507051D01*
X66748396Y10547850D01*
X66779524Y10585779D01*
X66814221Y10620476D01*
X66852150Y10651604D01*
X66892949Y10678864D01*
X66936222Y10701995D01*
X66981555Y10720772D01*
X67028510Y10735016D01*
X67076635Y10744588D01*
X67125466Y10749398D01*
X67150000Y10749398D01*
X67150000Y10750000D01*
X67650000Y10750000D01*
X67650000Y10749398D01*
X67674534Y10749398D01*
X67723365Y10744588D01*
X67771490Y10735016D01*
X67818445Y10720772D01*
X67863778Y10701995D01*
X67907051Y10678864D01*
X67947850Y10651604D01*
X67985779Y10620476D01*
X68020476Y10585779D01*
X68051604Y10547850D01*
X68078864Y10507051D01*
X68101995Y10463778D01*
X68120772Y10418445D01*
X68135016Y10371490D01*
X68144588Y10323365D01*
X68149398Y10274534D01*
X68149398Y10250000D01*
X68150000Y10250000D01*
X68150000Y9750000D01*
X66650000Y9750000D01*
X66650000Y10250000D01*
X66650602Y10250000D01*
G37*
G36*
X68150000Y9450000D02*
G01*
X68150000Y8950000D01*
X68149398Y8950000D01*
X68149398Y8925466D01*
X68144588Y8876635D01*
X68135016Y8828510D01*
X68120772Y8781555D01*
X68101995Y8736222D01*
X68078864Y8692949D01*
X68051604Y8652150D01*
X68020476Y8614221D01*
X67985779Y8579524D01*
X67947850Y8548396D01*
X67907051Y8521136D01*
X67863778Y8498005D01*
X67818445Y8479228D01*
X67771490Y8464984D01*
X67723365Y8455412D01*
X67674534Y8450602D01*
X67650000Y8450602D01*
X67650000Y8450000D01*
X67150000Y8450000D01*
X67150000Y8450602D01*
X67125466Y8450602D01*
X67076635Y8455412D01*
X67028510Y8464984D01*
X66981555Y8479228D01*
X66936222Y8498005D01*
X66892949Y8521136D01*
X66852150Y8548396D01*
X66814221Y8579524D01*
X66779524Y8614221D01*
X66748396Y8652150D01*
X66721136Y8692949D01*
X66698005Y8736222D01*
X66679228Y8781555D01*
X66664984Y8828510D01*
X66655412Y8876635D01*
X66650602Y8925466D01*
X66650602Y8950000D01*
X66650000Y8950000D01*
X66650000Y9450000D01*
X68150000Y9450000D01*
G37*
%TD*%
%TO.C,JP18*%
G36*
X66650602Y1250000D02*
G01*
X66650602Y1274534D01*
X66655412Y1323365D01*
X66664984Y1371490D01*
X66679228Y1418445D01*
X66698005Y1463778D01*
X66721136Y1507051D01*
X66748396Y1547850D01*
X66779524Y1585779D01*
X66814221Y1620476D01*
X66852150Y1651604D01*
X66892949Y1678864D01*
X66936222Y1701995D01*
X66981555Y1720772D01*
X67028510Y1735016D01*
X67076635Y1744588D01*
X67125466Y1749398D01*
X67150000Y1749398D01*
X67150000Y1750000D01*
X67650000Y1750000D01*
X67650000Y1749398D01*
X67674534Y1749398D01*
X67723365Y1744588D01*
X67771490Y1735016D01*
X67818445Y1720772D01*
X67863778Y1701995D01*
X67907051Y1678864D01*
X67947850Y1651604D01*
X67985779Y1620476D01*
X68020476Y1585779D01*
X68051604Y1547850D01*
X68078864Y1507051D01*
X68101995Y1463778D01*
X68120772Y1418445D01*
X68135016Y1371490D01*
X68144588Y1323365D01*
X68149398Y1274534D01*
X68149398Y1250000D01*
X68150000Y1250000D01*
X68150000Y750000D01*
X66650000Y750000D01*
X66650000Y1250000D01*
X66650602Y1250000D01*
G37*
G36*
X68150000Y450000D02*
G01*
X68150000Y-50000D01*
X68149398Y-50000D01*
X68149398Y-74534D01*
X68144588Y-123365D01*
X68135016Y-171490D01*
X68120772Y-218445D01*
X68101995Y-263778D01*
X68078864Y-307051D01*
X68051604Y-347850D01*
X68020476Y-385779D01*
X67985779Y-420476D01*
X67947850Y-451604D01*
X67907051Y-478864D01*
X67863778Y-501995D01*
X67818445Y-520772D01*
X67771490Y-535016D01*
X67723365Y-544588D01*
X67674534Y-549398D01*
X67650000Y-549398D01*
X67650000Y-550000D01*
X67150000Y-550000D01*
X67150000Y-549398D01*
X67125466Y-549398D01*
X67076635Y-544588D01*
X67028510Y-535016D01*
X66981555Y-520772D01*
X66936222Y-501995D01*
X66892949Y-478864D01*
X66852150Y-451604D01*
X66814221Y-420476D01*
X66779524Y-385779D01*
X66748396Y-347850D01*
X66721136Y-307051D01*
X66698005Y-263778D01*
X66679228Y-218445D01*
X66664984Y-171490D01*
X66655412Y-123365D01*
X66650602Y-74534D01*
X66650602Y-50000D01*
X66650000Y-50000D01*
X66650000Y450000D01*
X68150000Y450000D01*
G37*
%TD*%
%TO.C,JP12*%
G36*
X36650602Y10250000D02*
G01*
X36650602Y10274534D01*
X36655412Y10323365D01*
X36664984Y10371490D01*
X36679228Y10418445D01*
X36698005Y10463778D01*
X36721136Y10507051D01*
X36748396Y10547850D01*
X36779524Y10585779D01*
X36814221Y10620476D01*
X36852150Y10651604D01*
X36892949Y10678864D01*
X36936222Y10701995D01*
X36981555Y10720772D01*
X37028510Y10735016D01*
X37076635Y10744588D01*
X37125466Y10749398D01*
X37150000Y10749398D01*
X37150000Y10750000D01*
X37650000Y10750000D01*
X37650000Y10749398D01*
X37674534Y10749398D01*
X37723365Y10744588D01*
X37771490Y10735016D01*
X37818445Y10720772D01*
X37863778Y10701995D01*
X37907051Y10678864D01*
X37947850Y10651604D01*
X37985779Y10620476D01*
X38020476Y10585779D01*
X38051604Y10547850D01*
X38078864Y10507051D01*
X38101995Y10463778D01*
X38120772Y10418445D01*
X38135016Y10371490D01*
X38144588Y10323365D01*
X38149398Y10274534D01*
X38149398Y10250000D01*
X38150000Y10250000D01*
X38150000Y9750000D01*
X36650000Y9750000D01*
X36650000Y10250000D01*
X36650602Y10250000D01*
G37*
G36*
X38150000Y9450000D02*
G01*
X38150000Y8950000D01*
X38149398Y8950000D01*
X38149398Y8925466D01*
X38144588Y8876635D01*
X38135016Y8828510D01*
X38120772Y8781555D01*
X38101995Y8736222D01*
X38078864Y8692949D01*
X38051604Y8652150D01*
X38020476Y8614221D01*
X37985779Y8579524D01*
X37947850Y8548396D01*
X37907051Y8521136D01*
X37863778Y8498005D01*
X37818445Y8479228D01*
X37771490Y8464984D01*
X37723365Y8455412D01*
X37674534Y8450602D01*
X37650000Y8450602D01*
X37650000Y8450000D01*
X37150000Y8450000D01*
X37150000Y8450602D01*
X37125466Y8450602D01*
X37076635Y8455412D01*
X37028510Y8464984D01*
X36981555Y8479228D01*
X36936222Y8498005D01*
X36892949Y8521136D01*
X36852150Y8548396D01*
X36814221Y8579524D01*
X36779524Y8614221D01*
X36748396Y8652150D01*
X36721136Y8692949D01*
X36698005Y8736222D01*
X36679228Y8781555D01*
X36664984Y8828510D01*
X36655412Y8876635D01*
X36650602Y8925466D01*
X36650602Y8950000D01*
X36650000Y8950000D01*
X36650000Y9450000D01*
X38150000Y9450000D01*
G37*
%TD*%
%TO.C,JP6*%
G36*
X36650602Y1250000D02*
G01*
X36650602Y1274534D01*
X36655412Y1323365D01*
X36664984Y1371490D01*
X36679228Y1418445D01*
X36698005Y1463778D01*
X36721136Y1507051D01*
X36748396Y1547850D01*
X36779524Y1585779D01*
X36814221Y1620476D01*
X36852150Y1651604D01*
X36892949Y1678864D01*
X36936222Y1701995D01*
X36981555Y1720772D01*
X37028510Y1735016D01*
X37076635Y1744588D01*
X37125466Y1749398D01*
X37150000Y1749398D01*
X37150000Y1750000D01*
X37650000Y1750000D01*
X37650000Y1749398D01*
X37674534Y1749398D01*
X37723365Y1744588D01*
X37771490Y1735016D01*
X37818445Y1720772D01*
X37863778Y1701995D01*
X37907051Y1678864D01*
X37947850Y1651604D01*
X37985779Y1620476D01*
X38020476Y1585779D01*
X38051604Y1547850D01*
X38078864Y1507051D01*
X38101995Y1463778D01*
X38120772Y1418445D01*
X38135016Y1371490D01*
X38144588Y1323365D01*
X38149398Y1274534D01*
X38149398Y1250000D01*
X38150000Y1250000D01*
X38150000Y750000D01*
X36650000Y750000D01*
X36650000Y1250000D01*
X36650602Y1250000D01*
G37*
G36*
X38150000Y450000D02*
G01*
X38150000Y-50000D01*
X38149398Y-50000D01*
X38149398Y-74534D01*
X38144588Y-123365D01*
X38135016Y-171490D01*
X38120772Y-218445D01*
X38101995Y-263778D01*
X38078864Y-307051D01*
X38051604Y-347850D01*
X38020476Y-385779D01*
X37985779Y-420476D01*
X37947850Y-451604D01*
X37907051Y-478864D01*
X37863778Y-501995D01*
X37818445Y-520772D01*
X37771490Y-535016D01*
X37723365Y-544588D01*
X37674534Y-549398D01*
X37650000Y-549398D01*
X37650000Y-550000D01*
X37150000Y-550000D01*
X37150000Y-549398D01*
X37125466Y-549398D01*
X37076635Y-544588D01*
X37028510Y-535016D01*
X36981555Y-520772D01*
X36936222Y-501995D01*
X36892949Y-478864D01*
X36852150Y-451604D01*
X36814221Y-420476D01*
X36779524Y-385779D01*
X36748396Y-347850D01*
X36721136Y-307051D01*
X36698005Y-263778D01*
X36679228Y-218445D01*
X36664984Y-171490D01*
X36655412Y-123365D01*
X36650602Y-74534D01*
X36650602Y-50000D01*
X36650000Y-50000D01*
X36650000Y450000D01*
X38150000Y450000D01*
G37*
%TD*%
%TO.C,JP23*%
G36*
X62650602Y10250000D02*
G01*
X62650602Y10274534D01*
X62655412Y10323365D01*
X62664984Y10371490D01*
X62679228Y10418445D01*
X62698005Y10463778D01*
X62721136Y10507051D01*
X62748396Y10547850D01*
X62779524Y10585779D01*
X62814221Y10620476D01*
X62852150Y10651604D01*
X62892949Y10678864D01*
X62936222Y10701995D01*
X62981555Y10720772D01*
X63028510Y10735016D01*
X63076635Y10744588D01*
X63125466Y10749398D01*
X63150000Y10749398D01*
X63150000Y10750000D01*
X63650000Y10750000D01*
X63650000Y10749398D01*
X63674534Y10749398D01*
X63723365Y10744588D01*
X63771490Y10735016D01*
X63818445Y10720772D01*
X63863778Y10701995D01*
X63907051Y10678864D01*
X63947850Y10651604D01*
X63985779Y10620476D01*
X64020476Y10585779D01*
X64051604Y10547850D01*
X64078864Y10507051D01*
X64101995Y10463778D01*
X64120772Y10418445D01*
X64135016Y10371490D01*
X64144588Y10323365D01*
X64149398Y10274534D01*
X64149398Y10250000D01*
X64150000Y10250000D01*
X64150000Y9750000D01*
X62650000Y9750000D01*
X62650000Y10250000D01*
X62650602Y10250000D01*
G37*
G36*
X64150000Y9450000D02*
G01*
X64150000Y8950000D01*
X64149398Y8950000D01*
X64149398Y8925466D01*
X64144588Y8876635D01*
X64135016Y8828510D01*
X64120772Y8781555D01*
X64101995Y8736222D01*
X64078864Y8692949D01*
X64051604Y8652150D01*
X64020476Y8614221D01*
X63985779Y8579524D01*
X63947850Y8548396D01*
X63907051Y8521136D01*
X63863778Y8498005D01*
X63818445Y8479228D01*
X63771490Y8464984D01*
X63723365Y8455412D01*
X63674534Y8450602D01*
X63650000Y8450602D01*
X63650000Y8450000D01*
X63150000Y8450000D01*
X63150000Y8450602D01*
X63125466Y8450602D01*
X63076635Y8455412D01*
X63028510Y8464984D01*
X62981555Y8479228D01*
X62936222Y8498005D01*
X62892949Y8521136D01*
X62852150Y8548396D01*
X62814221Y8579524D01*
X62779524Y8614221D01*
X62748396Y8652150D01*
X62721136Y8692949D01*
X62698005Y8736222D01*
X62679228Y8781555D01*
X62664984Y8828510D01*
X62655412Y8876635D01*
X62650602Y8925466D01*
X62650602Y8950000D01*
X62650000Y8950000D01*
X62650000Y9450000D01*
X64150000Y9450000D01*
G37*
%TD*%
%TO.C,JP17*%
G36*
X62650602Y1250000D02*
G01*
X62650602Y1274534D01*
X62655412Y1323365D01*
X62664984Y1371490D01*
X62679228Y1418445D01*
X62698005Y1463778D01*
X62721136Y1507051D01*
X62748396Y1547850D01*
X62779524Y1585779D01*
X62814221Y1620476D01*
X62852150Y1651604D01*
X62892949Y1678864D01*
X62936222Y1701995D01*
X62981555Y1720772D01*
X63028510Y1735016D01*
X63076635Y1744588D01*
X63125466Y1749398D01*
X63150000Y1749398D01*
X63150000Y1750000D01*
X63650000Y1750000D01*
X63650000Y1749398D01*
X63674534Y1749398D01*
X63723365Y1744588D01*
X63771490Y1735016D01*
X63818445Y1720772D01*
X63863778Y1701995D01*
X63907051Y1678864D01*
X63947850Y1651604D01*
X63985779Y1620476D01*
X64020476Y1585779D01*
X64051604Y1547850D01*
X64078864Y1507051D01*
X64101995Y1463778D01*
X64120772Y1418445D01*
X64135016Y1371490D01*
X64144588Y1323365D01*
X64149398Y1274534D01*
X64149398Y1250000D01*
X64150000Y1250000D01*
X64150000Y750000D01*
X62650000Y750000D01*
X62650000Y1250000D01*
X62650602Y1250000D01*
G37*
G36*
X64150000Y450000D02*
G01*
X64150000Y-50000D01*
X64149398Y-50000D01*
X64149398Y-74534D01*
X64144588Y-123365D01*
X64135016Y-171490D01*
X64120772Y-218445D01*
X64101995Y-263778D01*
X64078864Y-307051D01*
X64051604Y-347850D01*
X64020476Y-385779D01*
X63985779Y-420476D01*
X63947850Y-451604D01*
X63907051Y-478864D01*
X63863778Y-501995D01*
X63818445Y-520772D01*
X63771490Y-535016D01*
X63723365Y-544588D01*
X63674534Y-549398D01*
X63650000Y-549398D01*
X63650000Y-550000D01*
X63150000Y-550000D01*
X63150000Y-549398D01*
X63125466Y-549398D01*
X63076635Y-544588D01*
X63028510Y-535016D01*
X62981555Y-520772D01*
X62936222Y-501995D01*
X62892949Y-478864D01*
X62852150Y-451604D01*
X62814221Y-420476D01*
X62779524Y-385779D01*
X62748396Y-347850D01*
X62721136Y-307051D01*
X62698005Y-263778D01*
X62679228Y-218445D01*
X62664984Y-171490D01*
X62655412Y-123365D01*
X62650602Y-74534D01*
X62650602Y-50000D01*
X62650000Y-50000D01*
X62650000Y450000D01*
X64150000Y450000D01*
G37*
%TD*%
%TO.C,JP11*%
G36*
X32650602Y10250000D02*
G01*
X32650602Y10274534D01*
X32655412Y10323365D01*
X32664984Y10371490D01*
X32679228Y10418445D01*
X32698005Y10463778D01*
X32721136Y10507051D01*
X32748396Y10547850D01*
X32779524Y10585779D01*
X32814221Y10620476D01*
X32852150Y10651604D01*
X32892949Y10678864D01*
X32936222Y10701995D01*
X32981555Y10720772D01*
X33028510Y10735016D01*
X33076635Y10744588D01*
X33125466Y10749398D01*
X33150000Y10749398D01*
X33150000Y10750000D01*
X33650000Y10750000D01*
X33650000Y10749398D01*
X33674534Y10749398D01*
X33723365Y10744588D01*
X33771490Y10735016D01*
X33818445Y10720772D01*
X33863778Y10701995D01*
X33907051Y10678864D01*
X33947850Y10651604D01*
X33985779Y10620476D01*
X34020476Y10585779D01*
X34051604Y10547850D01*
X34078864Y10507051D01*
X34101995Y10463778D01*
X34120772Y10418445D01*
X34135016Y10371490D01*
X34144588Y10323365D01*
X34149398Y10274534D01*
X34149398Y10250000D01*
X34150000Y10250000D01*
X34150000Y9750000D01*
X32650000Y9750000D01*
X32650000Y10250000D01*
X32650602Y10250000D01*
G37*
G36*
X34150000Y9450000D02*
G01*
X34150000Y8950000D01*
X34149398Y8950000D01*
X34149398Y8925466D01*
X34144588Y8876635D01*
X34135016Y8828510D01*
X34120772Y8781555D01*
X34101995Y8736222D01*
X34078864Y8692949D01*
X34051604Y8652150D01*
X34020476Y8614221D01*
X33985779Y8579524D01*
X33947850Y8548396D01*
X33907051Y8521136D01*
X33863778Y8498005D01*
X33818445Y8479228D01*
X33771490Y8464984D01*
X33723365Y8455412D01*
X33674534Y8450602D01*
X33650000Y8450602D01*
X33650000Y8450000D01*
X33150000Y8450000D01*
X33150000Y8450602D01*
X33125466Y8450602D01*
X33076635Y8455412D01*
X33028510Y8464984D01*
X32981555Y8479228D01*
X32936222Y8498005D01*
X32892949Y8521136D01*
X32852150Y8548396D01*
X32814221Y8579524D01*
X32779524Y8614221D01*
X32748396Y8652150D01*
X32721136Y8692949D01*
X32698005Y8736222D01*
X32679228Y8781555D01*
X32664984Y8828510D01*
X32655412Y8876635D01*
X32650602Y8925466D01*
X32650602Y8950000D01*
X32650000Y8950000D01*
X32650000Y9450000D01*
X34150000Y9450000D01*
G37*
%TD*%
%TO.C,JP5*%
G36*
X32650602Y1250000D02*
G01*
X32650602Y1274534D01*
X32655412Y1323365D01*
X32664984Y1371490D01*
X32679228Y1418445D01*
X32698005Y1463778D01*
X32721136Y1507051D01*
X32748396Y1547850D01*
X32779524Y1585779D01*
X32814221Y1620476D01*
X32852150Y1651604D01*
X32892949Y1678864D01*
X32936222Y1701995D01*
X32981555Y1720772D01*
X33028510Y1735016D01*
X33076635Y1744588D01*
X33125466Y1749398D01*
X33150000Y1749398D01*
X33150000Y1750000D01*
X33650000Y1750000D01*
X33650000Y1749398D01*
X33674534Y1749398D01*
X33723365Y1744588D01*
X33771490Y1735016D01*
X33818445Y1720772D01*
X33863778Y1701995D01*
X33907051Y1678864D01*
X33947850Y1651604D01*
X33985779Y1620476D01*
X34020476Y1585779D01*
X34051604Y1547850D01*
X34078864Y1507051D01*
X34101995Y1463778D01*
X34120772Y1418445D01*
X34135016Y1371490D01*
X34144588Y1323365D01*
X34149398Y1274534D01*
X34149398Y1250000D01*
X34150000Y1250000D01*
X34150000Y750000D01*
X32650000Y750000D01*
X32650000Y1250000D01*
X32650602Y1250000D01*
G37*
G36*
X34150000Y450000D02*
G01*
X34150000Y-50000D01*
X34149398Y-50000D01*
X34149398Y-74534D01*
X34144588Y-123365D01*
X34135016Y-171490D01*
X34120772Y-218445D01*
X34101995Y-263778D01*
X34078864Y-307051D01*
X34051604Y-347850D01*
X34020476Y-385779D01*
X33985779Y-420476D01*
X33947850Y-451604D01*
X33907051Y-478864D01*
X33863778Y-501995D01*
X33818445Y-520772D01*
X33771490Y-535016D01*
X33723365Y-544588D01*
X33674534Y-549398D01*
X33650000Y-549398D01*
X33650000Y-550000D01*
X33150000Y-550000D01*
X33150000Y-549398D01*
X33125466Y-549398D01*
X33076635Y-544588D01*
X33028510Y-535016D01*
X32981555Y-520772D01*
X32936222Y-501995D01*
X32892949Y-478864D01*
X32852150Y-451604D01*
X32814221Y-420476D01*
X32779524Y-385779D01*
X32748396Y-347850D01*
X32721136Y-307051D01*
X32698005Y-263778D01*
X32679228Y-218445D01*
X32664984Y-171490D01*
X32655412Y-123365D01*
X32650602Y-74534D01*
X32650602Y-50000D01*
X32650000Y-50000D01*
X32650000Y450000D01*
X34150000Y450000D01*
G37*
%TD*%
%TO.C,JP22*%
G36*
X56850602Y10250000D02*
G01*
X56850602Y10274534D01*
X56855412Y10323365D01*
X56864984Y10371490D01*
X56879228Y10418445D01*
X56898005Y10463778D01*
X56921136Y10507051D01*
X56948396Y10547850D01*
X56979524Y10585779D01*
X57014221Y10620476D01*
X57052150Y10651604D01*
X57092949Y10678864D01*
X57136222Y10701995D01*
X57181555Y10720772D01*
X57228510Y10735016D01*
X57276635Y10744588D01*
X57325466Y10749398D01*
X57350000Y10749398D01*
X57350000Y10750000D01*
X57850000Y10750000D01*
X57850000Y10749398D01*
X57874534Y10749398D01*
X57923365Y10744588D01*
X57971490Y10735016D01*
X58018445Y10720772D01*
X58063778Y10701995D01*
X58107051Y10678864D01*
X58147850Y10651604D01*
X58185779Y10620476D01*
X58220476Y10585779D01*
X58251604Y10547850D01*
X58278864Y10507051D01*
X58301995Y10463778D01*
X58320772Y10418445D01*
X58335016Y10371490D01*
X58344588Y10323365D01*
X58349398Y10274534D01*
X58349398Y10250000D01*
X58350000Y10250000D01*
X58350000Y9750000D01*
X56850000Y9750000D01*
X56850000Y10250000D01*
X56850602Y10250000D01*
G37*
G36*
X58350000Y9450000D02*
G01*
X58350000Y8950000D01*
X58349398Y8950000D01*
X58349398Y8925466D01*
X58344588Y8876635D01*
X58335016Y8828510D01*
X58320772Y8781555D01*
X58301995Y8736222D01*
X58278864Y8692949D01*
X58251604Y8652150D01*
X58220476Y8614221D01*
X58185779Y8579524D01*
X58147850Y8548396D01*
X58107051Y8521136D01*
X58063778Y8498005D01*
X58018445Y8479228D01*
X57971490Y8464984D01*
X57923365Y8455412D01*
X57874534Y8450602D01*
X57850000Y8450602D01*
X57850000Y8450000D01*
X57350000Y8450000D01*
X57350000Y8450602D01*
X57325466Y8450602D01*
X57276635Y8455412D01*
X57228510Y8464984D01*
X57181555Y8479228D01*
X57136222Y8498005D01*
X57092949Y8521136D01*
X57052150Y8548396D01*
X57014221Y8579524D01*
X56979524Y8614221D01*
X56948396Y8652150D01*
X56921136Y8692949D01*
X56898005Y8736222D01*
X56879228Y8781555D01*
X56864984Y8828510D01*
X56855412Y8876635D01*
X56850602Y8925466D01*
X56850602Y8950000D01*
X56850000Y8950000D01*
X56850000Y9450000D01*
X58350000Y9450000D01*
G37*
%TD*%
%TO.C,JP16*%
G36*
X56850602Y1250000D02*
G01*
X56850602Y1274534D01*
X56855412Y1323365D01*
X56864984Y1371490D01*
X56879228Y1418445D01*
X56898005Y1463778D01*
X56921136Y1507051D01*
X56948396Y1547850D01*
X56979524Y1585779D01*
X57014221Y1620476D01*
X57052150Y1651604D01*
X57092949Y1678864D01*
X57136222Y1701995D01*
X57181555Y1720772D01*
X57228510Y1735016D01*
X57276635Y1744588D01*
X57325466Y1749398D01*
X57350000Y1749398D01*
X57350000Y1750000D01*
X57850000Y1750000D01*
X57850000Y1749398D01*
X57874534Y1749398D01*
X57923365Y1744588D01*
X57971490Y1735016D01*
X58018445Y1720772D01*
X58063778Y1701995D01*
X58107051Y1678864D01*
X58147850Y1651604D01*
X58185779Y1620476D01*
X58220476Y1585779D01*
X58251604Y1547850D01*
X58278864Y1507051D01*
X58301995Y1463778D01*
X58320772Y1418445D01*
X58335016Y1371490D01*
X58344588Y1323365D01*
X58349398Y1274534D01*
X58349398Y1250000D01*
X58350000Y1250000D01*
X58350000Y750000D01*
X56850000Y750000D01*
X56850000Y1250000D01*
X56850602Y1250000D01*
G37*
G36*
X58350000Y450000D02*
G01*
X58350000Y-50000D01*
X58349398Y-50000D01*
X58349398Y-74534D01*
X58344588Y-123365D01*
X58335016Y-171490D01*
X58320772Y-218445D01*
X58301995Y-263778D01*
X58278864Y-307051D01*
X58251604Y-347850D01*
X58220476Y-385779D01*
X58185779Y-420476D01*
X58147850Y-451604D01*
X58107051Y-478864D01*
X58063778Y-501995D01*
X58018445Y-520772D01*
X57971490Y-535016D01*
X57923365Y-544588D01*
X57874534Y-549398D01*
X57850000Y-549398D01*
X57850000Y-550000D01*
X57350000Y-550000D01*
X57350000Y-549398D01*
X57325466Y-549398D01*
X57276635Y-544588D01*
X57228510Y-535016D01*
X57181555Y-520772D01*
X57136222Y-501995D01*
X57092949Y-478864D01*
X57052150Y-451604D01*
X57014221Y-420476D01*
X56979524Y-385779D01*
X56948396Y-347850D01*
X56921136Y-307051D01*
X56898005Y-263778D01*
X56879228Y-218445D01*
X56864984Y-171490D01*
X56855412Y-123365D01*
X56850602Y-74534D01*
X56850602Y-50000D01*
X56850000Y-50000D01*
X56850000Y450000D01*
X58350000Y450000D01*
G37*
%TD*%
%TO.C,JP10*%
G36*
X26650602Y10250000D02*
G01*
X26650602Y10274534D01*
X26655412Y10323365D01*
X26664984Y10371490D01*
X26679228Y10418445D01*
X26698005Y10463778D01*
X26721136Y10507051D01*
X26748396Y10547850D01*
X26779524Y10585779D01*
X26814221Y10620476D01*
X26852150Y10651604D01*
X26892949Y10678864D01*
X26936222Y10701995D01*
X26981555Y10720772D01*
X27028510Y10735016D01*
X27076635Y10744588D01*
X27125466Y10749398D01*
X27150000Y10749398D01*
X27150000Y10750000D01*
X27650000Y10750000D01*
X27650000Y10749398D01*
X27674534Y10749398D01*
X27723365Y10744588D01*
X27771490Y10735016D01*
X27818445Y10720772D01*
X27863778Y10701995D01*
X27907051Y10678864D01*
X27947850Y10651604D01*
X27985779Y10620476D01*
X28020476Y10585779D01*
X28051604Y10547850D01*
X28078864Y10507051D01*
X28101995Y10463778D01*
X28120772Y10418445D01*
X28135016Y10371490D01*
X28144588Y10323365D01*
X28149398Y10274534D01*
X28149398Y10250000D01*
X28150000Y10250000D01*
X28150000Y9750000D01*
X26650000Y9750000D01*
X26650000Y10250000D01*
X26650602Y10250000D01*
G37*
G36*
X28150000Y9450000D02*
G01*
X28150000Y8950000D01*
X28149398Y8950000D01*
X28149398Y8925466D01*
X28144588Y8876635D01*
X28135016Y8828510D01*
X28120772Y8781555D01*
X28101995Y8736222D01*
X28078864Y8692949D01*
X28051604Y8652150D01*
X28020476Y8614221D01*
X27985779Y8579524D01*
X27947850Y8548396D01*
X27907051Y8521136D01*
X27863778Y8498005D01*
X27818445Y8479228D01*
X27771490Y8464984D01*
X27723365Y8455412D01*
X27674534Y8450602D01*
X27650000Y8450602D01*
X27650000Y8450000D01*
X27150000Y8450000D01*
X27150000Y8450602D01*
X27125466Y8450602D01*
X27076635Y8455412D01*
X27028510Y8464984D01*
X26981555Y8479228D01*
X26936222Y8498005D01*
X26892949Y8521136D01*
X26852150Y8548396D01*
X26814221Y8579524D01*
X26779524Y8614221D01*
X26748396Y8652150D01*
X26721136Y8692949D01*
X26698005Y8736222D01*
X26679228Y8781555D01*
X26664984Y8828510D01*
X26655412Y8876635D01*
X26650602Y8925466D01*
X26650602Y8950000D01*
X26650000Y8950000D01*
X26650000Y9450000D01*
X28150000Y9450000D01*
G37*
%TD*%
%TO.C,JP4*%
G36*
X26650602Y1250000D02*
G01*
X26650602Y1274534D01*
X26655412Y1323365D01*
X26664984Y1371490D01*
X26679228Y1418445D01*
X26698005Y1463778D01*
X26721136Y1507051D01*
X26748396Y1547850D01*
X26779524Y1585779D01*
X26814221Y1620476D01*
X26852150Y1651604D01*
X26892949Y1678864D01*
X26936222Y1701995D01*
X26981555Y1720772D01*
X27028510Y1735016D01*
X27076635Y1744588D01*
X27125466Y1749398D01*
X27150000Y1749398D01*
X27150000Y1750000D01*
X27650000Y1750000D01*
X27650000Y1749398D01*
X27674534Y1749398D01*
X27723365Y1744588D01*
X27771490Y1735016D01*
X27818445Y1720772D01*
X27863778Y1701995D01*
X27907051Y1678864D01*
X27947850Y1651604D01*
X27985779Y1620476D01*
X28020476Y1585779D01*
X28051604Y1547850D01*
X28078864Y1507051D01*
X28101995Y1463778D01*
X28120772Y1418445D01*
X28135016Y1371490D01*
X28144588Y1323365D01*
X28149398Y1274534D01*
X28149398Y1250000D01*
X28150000Y1250000D01*
X28150000Y750000D01*
X26650000Y750000D01*
X26650000Y1250000D01*
X26650602Y1250000D01*
G37*
G36*
X28150000Y450000D02*
G01*
X28150000Y-50000D01*
X28149398Y-50000D01*
X28149398Y-74534D01*
X28144588Y-123365D01*
X28135016Y-171490D01*
X28120772Y-218445D01*
X28101995Y-263778D01*
X28078864Y-307051D01*
X28051604Y-347850D01*
X28020476Y-385779D01*
X27985779Y-420476D01*
X27947850Y-451604D01*
X27907051Y-478864D01*
X27863778Y-501995D01*
X27818445Y-520772D01*
X27771490Y-535016D01*
X27723365Y-544588D01*
X27674534Y-549398D01*
X27650000Y-549398D01*
X27650000Y-550000D01*
X27150000Y-550000D01*
X27150000Y-549398D01*
X27125466Y-549398D01*
X27076635Y-544588D01*
X27028510Y-535016D01*
X26981555Y-520772D01*
X26936222Y-501995D01*
X26892949Y-478864D01*
X26852150Y-451604D01*
X26814221Y-420476D01*
X26779524Y-385779D01*
X26748396Y-347850D01*
X26721136Y-307051D01*
X26698005Y-263778D01*
X26679228Y-218445D01*
X26664984Y-171490D01*
X26655412Y-123365D01*
X26650602Y-74534D01*
X26650602Y-50000D01*
X26650000Y-50000D01*
X26650000Y450000D01*
X28150000Y450000D01*
G37*
%TD*%
%TO.C,JP21*%
G36*
X52450602Y10250000D02*
G01*
X52450602Y10274534D01*
X52455412Y10323365D01*
X52464984Y10371490D01*
X52479228Y10418445D01*
X52498005Y10463778D01*
X52521136Y10507051D01*
X52548396Y10547850D01*
X52579524Y10585779D01*
X52614221Y10620476D01*
X52652150Y10651604D01*
X52692949Y10678864D01*
X52736222Y10701995D01*
X52781555Y10720772D01*
X52828510Y10735016D01*
X52876635Y10744588D01*
X52925466Y10749398D01*
X52950000Y10749398D01*
X52950000Y10750000D01*
X53450000Y10750000D01*
X53450000Y10749398D01*
X53474534Y10749398D01*
X53523365Y10744588D01*
X53571490Y10735016D01*
X53618445Y10720772D01*
X53663778Y10701995D01*
X53707051Y10678864D01*
X53747850Y10651604D01*
X53785779Y10620476D01*
X53820476Y10585779D01*
X53851604Y10547850D01*
X53878864Y10507051D01*
X53901995Y10463778D01*
X53920772Y10418445D01*
X53935016Y10371490D01*
X53944588Y10323365D01*
X53949398Y10274534D01*
X53949398Y10250000D01*
X53950000Y10250000D01*
X53950000Y9750000D01*
X52450000Y9750000D01*
X52450000Y10250000D01*
X52450602Y10250000D01*
G37*
G36*
X53950000Y9450000D02*
G01*
X53950000Y8950000D01*
X53949398Y8950000D01*
X53949398Y8925466D01*
X53944588Y8876635D01*
X53935016Y8828510D01*
X53920772Y8781555D01*
X53901995Y8736222D01*
X53878864Y8692949D01*
X53851604Y8652150D01*
X53820476Y8614221D01*
X53785779Y8579524D01*
X53747850Y8548396D01*
X53707051Y8521136D01*
X53663778Y8498005D01*
X53618445Y8479228D01*
X53571490Y8464984D01*
X53523365Y8455412D01*
X53474534Y8450602D01*
X53450000Y8450602D01*
X53450000Y8450000D01*
X52950000Y8450000D01*
X52950000Y8450602D01*
X52925466Y8450602D01*
X52876635Y8455412D01*
X52828510Y8464984D01*
X52781555Y8479228D01*
X52736222Y8498005D01*
X52692949Y8521136D01*
X52652150Y8548396D01*
X52614221Y8579524D01*
X52579524Y8614221D01*
X52548396Y8652150D01*
X52521136Y8692949D01*
X52498005Y8736222D01*
X52479228Y8781555D01*
X52464984Y8828510D01*
X52455412Y8876635D01*
X52450602Y8925466D01*
X52450602Y8950000D01*
X52450000Y8950000D01*
X52450000Y9450000D01*
X53950000Y9450000D01*
G37*
%TD*%
%TO.C,JP15*%
G36*
X52450602Y1250000D02*
G01*
X52450602Y1274534D01*
X52455412Y1323365D01*
X52464984Y1371490D01*
X52479228Y1418445D01*
X52498005Y1463778D01*
X52521136Y1507051D01*
X52548396Y1547850D01*
X52579524Y1585779D01*
X52614221Y1620476D01*
X52652150Y1651604D01*
X52692949Y1678864D01*
X52736222Y1701995D01*
X52781555Y1720772D01*
X52828510Y1735016D01*
X52876635Y1744588D01*
X52925466Y1749398D01*
X52950000Y1749398D01*
X52950000Y1750000D01*
X53450000Y1750000D01*
X53450000Y1749398D01*
X53474534Y1749398D01*
X53523365Y1744588D01*
X53571490Y1735016D01*
X53618445Y1720772D01*
X53663778Y1701995D01*
X53707051Y1678864D01*
X53747850Y1651604D01*
X53785779Y1620476D01*
X53820476Y1585779D01*
X53851604Y1547850D01*
X53878864Y1507051D01*
X53901995Y1463778D01*
X53920772Y1418445D01*
X53935016Y1371490D01*
X53944588Y1323365D01*
X53949398Y1274534D01*
X53949398Y1250000D01*
X53950000Y1250000D01*
X53950000Y750000D01*
X52450000Y750000D01*
X52450000Y1250000D01*
X52450602Y1250000D01*
G37*
G36*
X53950000Y450000D02*
G01*
X53950000Y-50000D01*
X53949398Y-50000D01*
X53949398Y-74534D01*
X53944588Y-123365D01*
X53935016Y-171490D01*
X53920772Y-218445D01*
X53901995Y-263778D01*
X53878864Y-307051D01*
X53851604Y-347850D01*
X53820476Y-385779D01*
X53785779Y-420476D01*
X53747850Y-451604D01*
X53707051Y-478864D01*
X53663778Y-501995D01*
X53618445Y-520772D01*
X53571490Y-535016D01*
X53523365Y-544588D01*
X53474534Y-549398D01*
X53450000Y-549398D01*
X53450000Y-550000D01*
X52950000Y-550000D01*
X52950000Y-549398D01*
X52925466Y-549398D01*
X52876635Y-544588D01*
X52828510Y-535016D01*
X52781555Y-520772D01*
X52736222Y-501995D01*
X52692949Y-478864D01*
X52652150Y-451604D01*
X52614221Y-420476D01*
X52579524Y-385779D01*
X52548396Y-347850D01*
X52521136Y-307051D01*
X52498005Y-263778D01*
X52479228Y-218445D01*
X52464984Y-171490D01*
X52455412Y-123365D01*
X52450602Y-74534D01*
X52450602Y-50000D01*
X52450000Y-50000D01*
X52450000Y450000D01*
X53950000Y450000D01*
G37*
%TD*%
%TO.C,JP9*%
G36*
X22650602Y10250000D02*
G01*
X22650602Y10274534D01*
X22655412Y10323365D01*
X22664984Y10371490D01*
X22679228Y10418445D01*
X22698005Y10463778D01*
X22721136Y10507051D01*
X22748396Y10547850D01*
X22779524Y10585779D01*
X22814221Y10620476D01*
X22852150Y10651604D01*
X22892949Y10678864D01*
X22936222Y10701995D01*
X22981555Y10720772D01*
X23028510Y10735016D01*
X23076635Y10744588D01*
X23125466Y10749398D01*
X23150000Y10749398D01*
X23150000Y10750000D01*
X23650000Y10750000D01*
X23650000Y10749398D01*
X23674534Y10749398D01*
X23723365Y10744588D01*
X23771490Y10735016D01*
X23818445Y10720772D01*
X23863778Y10701995D01*
X23907051Y10678864D01*
X23947850Y10651604D01*
X23985779Y10620476D01*
X24020476Y10585779D01*
X24051604Y10547850D01*
X24078864Y10507051D01*
X24101995Y10463778D01*
X24120772Y10418445D01*
X24135016Y10371490D01*
X24144588Y10323365D01*
X24149398Y10274534D01*
X24149398Y10250000D01*
X24150000Y10250000D01*
X24150000Y9750000D01*
X22650000Y9750000D01*
X22650000Y10250000D01*
X22650602Y10250000D01*
G37*
G36*
X24150000Y9450000D02*
G01*
X24150000Y8950000D01*
X24149398Y8950000D01*
X24149398Y8925466D01*
X24144588Y8876635D01*
X24135016Y8828510D01*
X24120772Y8781555D01*
X24101995Y8736222D01*
X24078864Y8692949D01*
X24051604Y8652150D01*
X24020476Y8614221D01*
X23985779Y8579524D01*
X23947850Y8548396D01*
X23907051Y8521136D01*
X23863778Y8498005D01*
X23818445Y8479228D01*
X23771490Y8464984D01*
X23723365Y8455412D01*
X23674534Y8450602D01*
X23650000Y8450602D01*
X23650000Y8450000D01*
X23150000Y8450000D01*
X23150000Y8450602D01*
X23125466Y8450602D01*
X23076635Y8455412D01*
X23028510Y8464984D01*
X22981555Y8479228D01*
X22936222Y8498005D01*
X22892949Y8521136D01*
X22852150Y8548396D01*
X22814221Y8579524D01*
X22779524Y8614221D01*
X22748396Y8652150D01*
X22721136Y8692949D01*
X22698005Y8736222D01*
X22679228Y8781555D01*
X22664984Y8828510D01*
X22655412Y8876635D01*
X22650602Y8925466D01*
X22650602Y8950000D01*
X22650000Y8950000D01*
X22650000Y9450000D01*
X24150000Y9450000D01*
G37*
%TD*%
%TO.C,JP3*%
G36*
X22650602Y1250000D02*
G01*
X22650602Y1274534D01*
X22655412Y1323365D01*
X22664984Y1371490D01*
X22679228Y1418445D01*
X22698005Y1463778D01*
X22721136Y1507051D01*
X22748396Y1547850D01*
X22779524Y1585779D01*
X22814221Y1620476D01*
X22852150Y1651604D01*
X22892949Y1678864D01*
X22936222Y1701995D01*
X22981555Y1720772D01*
X23028510Y1735016D01*
X23076635Y1744588D01*
X23125466Y1749398D01*
X23150000Y1749398D01*
X23150000Y1750000D01*
X23650000Y1750000D01*
X23650000Y1749398D01*
X23674534Y1749398D01*
X23723365Y1744588D01*
X23771490Y1735016D01*
X23818445Y1720772D01*
X23863778Y1701995D01*
X23907051Y1678864D01*
X23947850Y1651604D01*
X23985779Y1620476D01*
X24020476Y1585779D01*
X24051604Y1547850D01*
X24078864Y1507051D01*
X24101995Y1463778D01*
X24120772Y1418445D01*
X24135016Y1371490D01*
X24144588Y1323365D01*
X24149398Y1274534D01*
X24149398Y1250000D01*
X24150000Y1250000D01*
X24150000Y750000D01*
X22650000Y750000D01*
X22650000Y1250000D01*
X22650602Y1250000D01*
G37*
G36*
X24150000Y450000D02*
G01*
X24150000Y-50000D01*
X24149398Y-50000D01*
X24149398Y-74534D01*
X24144588Y-123365D01*
X24135016Y-171490D01*
X24120772Y-218445D01*
X24101995Y-263778D01*
X24078864Y-307051D01*
X24051604Y-347850D01*
X24020476Y-385779D01*
X23985779Y-420476D01*
X23947850Y-451604D01*
X23907051Y-478864D01*
X23863778Y-501995D01*
X23818445Y-520772D01*
X23771490Y-535016D01*
X23723365Y-544588D01*
X23674534Y-549398D01*
X23650000Y-549398D01*
X23650000Y-550000D01*
X23150000Y-550000D01*
X23150000Y-549398D01*
X23125466Y-549398D01*
X23076635Y-544588D01*
X23028510Y-535016D01*
X22981555Y-520772D01*
X22936222Y-501995D01*
X22892949Y-478864D01*
X22852150Y-451604D01*
X22814221Y-420476D01*
X22779524Y-385779D01*
X22748396Y-347850D01*
X22721136Y-307051D01*
X22698005Y-263778D01*
X22679228Y-218445D01*
X22664984Y-171490D01*
X22655412Y-123365D01*
X22650602Y-74534D01*
X22650602Y-50000D01*
X22650000Y-50000D01*
X22650000Y450000D01*
X24150000Y450000D01*
G37*
%TD*%
%TO.C,JP20*%
G36*
X46850602Y10250000D02*
G01*
X46850602Y10274534D01*
X46855412Y10323365D01*
X46864984Y10371490D01*
X46879228Y10418445D01*
X46898005Y10463778D01*
X46921136Y10507051D01*
X46948396Y10547850D01*
X46979524Y10585779D01*
X47014221Y10620476D01*
X47052150Y10651604D01*
X47092949Y10678864D01*
X47136222Y10701995D01*
X47181555Y10720772D01*
X47228510Y10735016D01*
X47276635Y10744588D01*
X47325466Y10749398D01*
X47350000Y10749398D01*
X47350000Y10750000D01*
X47850000Y10750000D01*
X47850000Y10749398D01*
X47874534Y10749398D01*
X47923365Y10744588D01*
X47971490Y10735016D01*
X48018445Y10720772D01*
X48063778Y10701995D01*
X48107051Y10678864D01*
X48147850Y10651604D01*
X48185779Y10620476D01*
X48220476Y10585779D01*
X48251604Y10547850D01*
X48278864Y10507051D01*
X48301995Y10463778D01*
X48320772Y10418445D01*
X48335016Y10371490D01*
X48344588Y10323365D01*
X48349398Y10274534D01*
X48349398Y10250000D01*
X48350000Y10250000D01*
X48350000Y9750000D01*
X46850000Y9750000D01*
X46850000Y10250000D01*
X46850602Y10250000D01*
G37*
G36*
X48350000Y9450000D02*
G01*
X48350000Y8950000D01*
X48349398Y8950000D01*
X48349398Y8925466D01*
X48344588Y8876635D01*
X48335016Y8828510D01*
X48320772Y8781555D01*
X48301995Y8736222D01*
X48278864Y8692949D01*
X48251604Y8652150D01*
X48220476Y8614221D01*
X48185779Y8579524D01*
X48147850Y8548396D01*
X48107051Y8521136D01*
X48063778Y8498005D01*
X48018445Y8479228D01*
X47971490Y8464984D01*
X47923365Y8455412D01*
X47874534Y8450602D01*
X47850000Y8450602D01*
X47850000Y8450000D01*
X47350000Y8450000D01*
X47350000Y8450602D01*
X47325466Y8450602D01*
X47276635Y8455412D01*
X47228510Y8464984D01*
X47181555Y8479228D01*
X47136222Y8498005D01*
X47092949Y8521136D01*
X47052150Y8548396D01*
X47014221Y8579524D01*
X46979524Y8614221D01*
X46948396Y8652150D01*
X46921136Y8692949D01*
X46898005Y8736222D01*
X46879228Y8781555D01*
X46864984Y8828510D01*
X46855412Y8876635D01*
X46850602Y8925466D01*
X46850602Y8950000D01*
X46850000Y8950000D01*
X46850000Y9450000D01*
X48350000Y9450000D01*
G37*
%TD*%
%TO.C,JP14*%
G36*
X46850602Y1250000D02*
G01*
X46850602Y1274534D01*
X46855412Y1323365D01*
X46864984Y1371490D01*
X46879228Y1418445D01*
X46898005Y1463778D01*
X46921136Y1507051D01*
X46948396Y1547850D01*
X46979524Y1585779D01*
X47014221Y1620476D01*
X47052150Y1651604D01*
X47092949Y1678864D01*
X47136222Y1701995D01*
X47181555Y1720772D01*
X47228510Y1735016D01*
X47276635Y1744588D01*
X47325466Y1749398D01*
X47350000Y1749398D01*
X47350000Y1750000D01*
X47850000Y1750000D01*
X47850000Y1749398D01*
X47874534Y1749398D01*
X47923365Y1744588D01*
X47971490Y1735016D01*
X48018445Y1720772D01*
X48063778Y1701995D01*
X48107051Y1678864D01*
X48147850Y1651604D01*
X48185779Y1620476D01*
X48220476Y1585779D01*
X48251604Y1547850D01*
X48278864Y1507051D01*
X48301995Y1463778D01*
X48320772Y1418445D01*
X48335016Y1371490D01*
X48344588Y1323365D01*
X48349398Y1274534D01*
X48349398Y1250000D01*
X48350000Y1250000D01*
X48350000Y750000D01*
X46850000Y750000D01*
X46850000Y1250000D01*
X46850602Y1250000D01*
G37*
G36*
X48350000Y450000D02*
G01*
X48350000Y-50000D01*
X48349398Y-50000D01*
X48349398Y-74534D01*
X48344588Y-123365D01*
X48335016Y-171490D01*
X48320772Y-218445D01*
X48301995Y-263778D01*
X48278864Y-307051D01*
X48251604Y-347850D01*
X48220476Y-385779D01*
X48185779Y-420476D01*
X48147850Y-451604D01*
X48107051Y-478864D01*
X48063778Y-501995D01*
X48018445Y-520772D01*
X47971490Y-535016D01*
X47923365Y-544588D01*
X47874534Y-549398D01*
X47850000Y-549398D01*
X47850000Y-550000D01*
X47350000Y-550000D01*
X47350000Y-549398D01*
X47325466Y-549398D01*
X47276635Y-544588D01*
X47228510Y-535016D01*
X47181555Y-520772D01*
X47136222Y-501995D01*
X47092949Y-478864D01*
X47052150Y-451604D01*
X47014221Y-420476D01*
X46979524Y-385779D01*
X46948396Y-347850D01*
X46921136Y-307051D01*
X46898005Y-263778D01*
X46879228Y-218445D01*
X46864984Y-171490D01*
X46855412Y-123365D01*
X46850602Y-74534D01*
X46850602Y-50000D01*
X46850000Y-50000D01*
X46850000Y450000D01*
X48350000Y450000D01*
G37*
%TD*%
%TO.C,JP8*%
G36*
X16650602Y10250000D02*
G01*
X16650602Y10274534D01*
X16655412Y10323365D01*
X16664984Y10371490D01*
X16679228Y10418445D01*
X16698005Y10463778D01*
X16721136Y10507051D01*
X16748396Y10547850D01*
X16779524Y10585779D01*
X16814221Y10620476D01*
X16852150Y10651604D01*
X16892949Y10678864D01*
X16936222Y10701995D01*
X16981555Y10720772D01*
X17028510Y10735016D01*
X17076635Y10744588D01*
X17125466Y10749398D01*
X17150000Y10749398D01*
X17150000Y10750000D01*
X17650000Y10750000D01*
X17650000Y10749398D01*
X17674534Y10749398D01*
X17723365Y10744588D01*
X17771490Y10735016D01*
X17818445Y10720772D01*
X17863778Y10701995D01*
X17907051Y10678864D01*
X17947850Y10651604D01*
X17985779Y10620476D01*
X18020476Y10585779D01*
X18051604Y10547850D01*
X18078864Y10507051D01*
X18101995Y10463778D01*
X18120772Y10418445D01*
X18135016Y10371490D01*
X18144588Y10323365D01*
X18149398Y10274534D01*
X18149398Y10250000D01*
X18150000Y10250000D01*
X18150000Y9750000D01*
X16650000Y9750000D01*
X16650000Y10250000D01*
X16650602Y10250000D01*
G37*
G36*
X18150000Y9450000D02*
G01*
X18150000Y8950000D01*
X18149398Y8950000D01*
X18149398Y8925466D01*
X18144588Y8876635D01*
X18135016Y8828510D01*
X18120772Y8781555D01*
X18101995Y8736222D01*
X18078864Y8692949D01*
X18051604Y8652150D01*
X18020476Y8614221D01*
X17985779Y8579524D01*
X17947850Y8548396D01*
X17907051Y8521136D01*
X17863778Y8498005D01*
X17818445Y8479228D01*
X17771490Y8464984D01*
X17723365Y8455412D01*
X17674534Y8450602D01*
X17650000Y8450602D01*
X17650000Y8450000D01*
X17150000Y8450000D01*
X17150000Y8450602D01*
X17125466Y8450602D01*
X17076635Y8455412D01*
X17028510Y8464984D01*
X16981555Y8479228D01*
X16936222Y8498005D01*
X16892949Y8521136D01*
X16852150Y8548396D01*
X16814221Y8579524D01*
X16779524Y8614221D01*
X16748396Y8652150D01*
X16721136Y8692949D01*
X16698005Y8736222D01*
X16679228Y8781555D01*
X16664984Y8828510D01*
X16655412Y8876635D01*
X16650602Y8925466D01*
X16650602Y8950000D01*
X16650000Y8950000D01*
X16650000Y9450000D01*
X18150000Y9450000D01*
G37*
%TD*%
%TO.C,JP2*%
G36*
X16650602Y1250000D02*
G01*
X16650602Y1274534D01*
X16655412Y1323365D01*
X16664984Y1371490D01*
X16679228Y1418445D01*
X16698005Y1463778D01*
X16721136Y1507051D01*
X16748396Y1547850D01*
X16779524Y1585779D01*
X16814221Y1620476D01*
X16852150Y1651604D01*
X16892949Y1678864D01*
X16936222Y1701995D01*
X16981555Y1720772D01*
X17028510Y1735016D01*
X17076635Y1744588D01*
X17125466Y1749398D01*
X17150000Y1749398D01*
X17150000Y1750000D01*
X17650000Y1750000D01*
X17650000Y1749398D01*
X17674534Y1749398D01*
X17723365Y1744588D01*
X17771490Y1735016D01*
X17818445Y1720772D01*
X17863778Y1701995D01*
X17907051Y1678864D01*
X17947850Y1651604D01*
X17985779Y1620476D01*
X18020476Y1585779D01*
X18051604Y1547850D01*
X18078864Y1507051D01*
X18101995Y1463778D01*
X18120772Y1418445D01*
X18135016Y1371490D01*
X18144588Y1323365D01*
X18149398Y1274534D01*
X18149398Y1250000D01*
X18150000Y1250000D01*
X18150000Y750000D01*
X16650000Y750000D01*
X16650000Y1250000D01*
X16650602Y1250000D01*
G37*
G36*
X18150000Y450000D02*
G01*
X18150000Y-50000D01*
X18149398Y-50000D01*
X18149398Y-74534D01*
X18144588Y-123365D01*
X18135016Y-171490D01*
X18120772Y-218445D01*
X18101995Y-263778D01*
X18078864Y-307051D01*
X18051604Y-347850D01*
X18020476Y-385779D01*
X17985779Y-420476D01*
X17947850Y-451604D01*
X17907051Y-478864D01*
X17863778Y-501995D01*
X17818445Y-520772D01*
X17771490Y-535016D01*
X17723365Y-544588D01*
X17674534Y-549398D01*
X17650000Y-549398D01*
X17650000Y-550000D01*
X17150000Y-550000D01*
X17150000Y-549398D01*
X17125466Y-549398D01*
X17076635Y-544588D01*
X17028510Y-535016D01*
X16981555Y-520772D01*
X16936222Y-501995D01*
X16892949Y-478864D01*
X16852150Y-451604D01*
X16814221Y-420476D01*
X16779524Y-385779D01*
X16748396Y-347850D01*
X16721136Y-307051D01*
X16698005Y-263778D01*
X16679228Y-218445D01*
X16664984Y-171490D01*
X16655412Y-123365D01*
X16650602Y-74534D01*
X16650602Y-50000D01*
X16650000Y-50000D01*
X16650000Y450000D01*
X18150000Y450000D01*
G37*
%TD*%
%TO.C,JP19*%
G36*
X42450602Y10250000D02*
G01*
X42450602Y10274534D01*
X42455412Y10323365D01*
X42464984Y10371490D01*
X42479228Y10418445D01*
X42498005Y10463778D01*
X42521136Y10507051D01*
X42548396Y10547850D01*
X42579524Y10585779D01*
X42614221Y10620476D01*
X42652150Y10651604D01*
X42692949Y10678864D01*
X42736222Y10701995D01*
X42781555Y10720772D01*
X42828510Y10735016D01*
X42876635Y10744588D01*
X42925466Y10749398D01*
X42950000Y10749398D01*
X42950000Y10750000D01*
X43450000Y10750000D01*
X43450000Y10749398D01*
X43474534Y10749398D01*
X43523365Y10744588D01*
X43571490Y10735016D01*
X43618445Y10720772D01*
X43663778Y10701995D01*
X43707051Y10678864D01*
X43747850Y10651604D01*
X43785779Y10620476D01*
X43820476Y10585779D01*
X43851604Y10547850D01*
X43878864Y10507051D01*
X43901995Y10463778D01*
X43920772Y10418445D01*
X43935016Y10371490D01*
X43944588Y10323365D01*
X43949398Y10274534D01*
X43949398Y10250000D01*
X43950000Y10250000D01*
X43950000Y9750000D01*
X42450000Y9750000D01*
X42450000Y10250000D01*
X42450602Y10250000D01*
G37*
G36*
X43950000Y9450000D02*
G01*
X43950000Y8950000D01*
X43949398Y8950000D01*
X43949398Y8925466D01*
X43944588Y8876635D01*
X43935016Y8828510D01*
X43920772Y8781555D01*
X43901995Y8736222D01*
X43878864Y8692949D01*
X43851604Y8652150D01*
X43820476Y8614221D01*
X43785779Y8579524D01*
X43747850Y8548396D01*
X43707051Y8521136D01*
X43663778Y8498005D01*
X43618445Y8479228D01*
X43571490Y8464984D01*
X43523365Y8455412D01*
X43474534Y8450602D01*
X43450000Y8450602D01*
X43450000Y8450000D01*
X42950000Y8450000D01*
X42950000Y8450602D01*
X42925466Y8450602D01*
X42876635Y8455412D01*
X42828510Y8464984D01*
X42781555Y8479228D01*
X42736222Y8498005D01*
X42692949Y8521136D01*
X42652150Y8548396D01*
X42614221Y8579524D01*
X42579524Y8614221D01*
X42548396Y8652150D01*
X42521136Y8692949D01*
X42498005Y8736222D01*
X42479228Y8781555D01*
X42464984Y8828510D01*
X42455412Y8876635D01*
X42450602Y8925466D01*
X42450602Y8950000D01*
X42450000Y8950000D01*
X42450000Y9450000D01*
X43950000Y9450000D01*
G37*
%TD*%
%TO.C,JP13*%
G36*
X42450602Y1250000D02*
G01*
X42450602Y1274534D01*
X42455412Y1323365D01*
X42464984Y1371490D01*
X42479228Y1418445D01*
X42498005Y1463778D01*
X42521136Y1507051D01*
X42548396Y1547850D01*
X42579524Y1585779D01*
X42614221Y1620476D01*
X42652150Y1651604D01*
X42692949Y1678864D01*
X42736222Y1701995D01*
X42781555Y1720772D01*
X42828510Y1735016D01*
X42876635Y1744588D01*
X42925466Y1749398D01*
X42950000Y1749398D01*
X42950000Y1750000D01*
X43450000Y1750000D01*
X43450000Y1749398D01*
X43474534Y1749398D01*
X43523365Y1744588D01*
X43571490Y1735016D01*
X43618445Y1720772D01*
X43663778Y1701995D01*
X43707051Y1678864D01*
X43747850Y1651604D01*
X43785779Y1620476D01*
X43820476Y1585779D01*
X43851604Y1547850D01*
X43878864Y1507051D01*
X43901995Y1463778D01*
X43920772Y1418445D01*
X43935016Y1371490D01*
X43944588Y1323365D01*
X43949398Y1274534D01*
X43949398Y1250000D01*
X43950000Y1250000D01*
X43950000Y750000D01*
X42450000Y750000D01*
X42450000Y1250000D01*
X42450602Y1250000D01*
G37*
G36*
X43950000Y450000D02*
G01*
X43950000Y-50000D01*
X43949398Y-50000D01*
X43949398Y-74534D01*
X43944588Y-123365D01*
X43935016Y-171490D01*
X43920772Y-218445D01*
X43901995Y-263778D01*
X43878864Y-307051D01*
X43851604Y-347850D01*
X43820476Y-385779D01*
X43785779Y-420476D01*
X43747850Y-451604D01*
X43707051Y-478864D01*
X43663778Y-501995D01*
X43618445Y-520772D01*
X43571490Y-535016D01*
X43523365Y-544588D01*
X43474534Y-549398D01*
X43450000Y-549398D01*
X43450000Y-550000D01*
X42950000Y-550000D01*
X42950000Y-549398D01*
X42925466Y-549398D01*
X42876635Y-544588D01*
X42828510Y-535016D01*
X42781555Y-520772D01*
X42736222Y-501995D01*
X42692949Y-478864D01*
X42652150Y-451604D01*
X42614221Y-420476D01*
X42579524Y-385779D01*
X42548396Y-347850D01*
X42521136Y-307051D01*
X42498005Y-263778D01*
X42479228Y-218445D01*
X42464984Y-171490D01*
X42455412Y-123365D01*
X42450602Y-74534D01*
X42450602Y-50000D01*
X42450000Y-50000D01*
X42450000Y450000D01*
X43950000Y450000D01*
G37*
%TD*%
%TO.C,JP7*%
G36*
X12650602Y10250000D02*
G01*
X12650602Y10274534D01*
X12655412Y10323365D01*
X12664984Y10371490D01*
X12679228Y10418445D01*
X12698005Y10463778D01*
X12721136Y10507051D01*
X12748396Y10547850D01*
X12779524Y10585779D01*
X12814221Y10620476D01*
X12852150Y10651604D01*
X12892949Y10678864D01*
X12936222Y10701995D01*
X12981555Y10720772D01*
X13028510Y10735016D01*
X13076635Y10744588D01*
X13125466Y10749398D01*
X13150000Y10749398D01*
X13150000Y10750000D01*
X13650000Y10750000D01*
X13650000Y10749398D01*
X13674534Y10749398D01*
X13723365Y10744588D01*
X13771490Y10735016D01*
X13818445Y10720772D01*
X13863778Y10701995D01*
X13907051Y10678864D01*
X13947850Y10651604D01*
X13985779Y10620476D01*
X14020476Y10585779D01*
X14051604Y10547850D01*
X14078864Y10507051D01*
X14101995Y10463778D01*
X14120772Y10418445D01*
X14135016Y10371490D01*
X14144588Y10323365D01*
X14149398Y10274534D01*
X14149398Y10250000D01*
X14150000Y10250000D01*
X14150000Y9750000D01*
X12650000Y9750000D01*
X12650000Y10250000D01*
X12650602Y10250000D01*
G37*
G36*
X14150000Y9450000D02*
G01*
X14150000Y8950000D01*
X14149398Y8950000D01*
X14149398Y8925466D01*
X14144588Y8876635D01*
X14135016Y8828510D01*
X14120772Y8781555D01*
X14101995Y8736222D01*
X14078864Y8692949D01*
X14051604Y8652150D01*
X14020476Y8614221D01*
X13985779Y8579524D01*
X13947850Y8548396D01*
X13907051Y8521136D01*
X13863778Y8498005D01*
X13818445Y8479228D01*
X13771490Y8464984D01*
X13723365Y8455412D01*
X13674534Y8450602D01*
X13650000Y8450602D01*
X13650000Y8450000D01*
X13150000Y8450000D01*
X13150000Y8450602D01*
X13125466Y8450602D01*
X13076635Y8455412D01*
X13028510Y8464984D01*
X12981555Y8479228D01*
X12936222Y8498005D01*
X12892949Y8521136D01*
X12852150Y8548396D01*
X12814221Y8579524D01*
X12779524Y8614221D01*
X12748396Y8652150D01*
X12721136Y8692949D01*
X12698005Y8736222D01*
X12679228Y8781555D01*
X12664984Y8828510D01*
X12655412Y8876635D01*
X12650602Y8925466D01*
X12650602Y8950000D01*
X12650000Y8950000D01*
X12650000Y9450000D01*
X14150000Y9450000D01*
G37*
%TD*%
%TO.C,JP1*%
G36*
X12650602Y1250000D02*
G01*
X12650602Y1274534D01*
X12655412Y1323365D01*
X12664984Y1371490D01*
X12679228Y1418445D01*
X12698005Y1463778D01*
X12721136Y1507051D01*
X12748396Y1547850D01*
X12779524Y1585779D01*
X12814221Y1620476D01*
X12852150Y1651604D01*
X12892949Y1678864D01*
X12936222Y1701995D01*
X12981555Y1720772D01*
X13028510Y1735016D01*
X13076635Y1744588D01*
X13125466Y1749398D01*
X13150000Y1749398D01*
X13150000Y1750000D01*
X13650000Y1750000D01*
X13650000Y1749398D01*
X13674534Y1749398D01*
X13723365Y1744588D01*
X13771490Y1735016D01*
X13818445Y1720772D01*
X13863778Y1701995D01*
X13907051Y1678864D01*
X13947850Y1651604D01*
X13985779Y1620476D01*
X14020476Y1585779D01*
X14051604Y1547850D01*
X14078864Y1507051D01*
X14101995Y1463778D01*
X14120772Y1418445D01*
X14135016Y1371490D01*
X14144588Y1323365D01*
X14149398Y1274534D01*
X14149398Y1250000D01*
X14150000Y1250000D01*
X14150000Y750000D01*
X12650000Y750000D01*
X12650000Y1250000D01*
X12650602Y1250000D01*
G37*
G36*
X14150000Y450000D02*
G01*
X14150000Y-50000D01*
X14149398Y-50000D01*
X14149398Y-74534D01*
X14144588Y-123365D01*
X14135016Y-171490D01*
X14120772Y-218445D01*
X14101995Y-263778D01*
X14078864Y-307051D01*
X14051604Y-347850D01*
X14020476Y-385779D01*
X13985779Y-420476D01*
X13947850Y-451604D01*
X13907051Y-478864D01*
X13863778Y-501995D01*
X13818445Y-520772D01*
X13771490Y-535016D01*
X13723365Y-544588D01*
X13674534Y-549398D01*
X13650000Y-549398D01*
X13650000Y-550000D01*
X13150000Y-550000D01*
X13150000Y-549398D01*
X13125466Y-549398D01*
X13076635Y-544588D01*
X13028510Y-535016D01*
X12981555Y-520772D01*
X12936222Y-501995D01*
X12892949Y-478864D01*
X12852150Y-451604D01*
X12814221Y-420476D01*
X12779524Y-385779D01*
X12748396Y-347850D01*
X12721136Y-307051D01*
X12698005Y-263778D01*
X12679228Y-218445D01*
X12664984Y-171490D01*
X12655412Y-123365D01*
X12650602Y-74534D01*
X12650602Y-50000D01*
X12650000Y-50000D01*
X12650000Y450000D01*
X14150000Y450000D01*
G37*
%TD*%
D12*
%TO.C,J1*%
X-2540000Y-6150000D03*
D13*
X-3960000Y10490000D03*
X-3960000Y7730000D03*
X-3960000Y4970000D03*
X-3960000Y2210000D03*
X-1120000Y11870000D03*
X-1120000Y9110000D03*
X-1120000Y3590000D03*
D14*
X-1120000Y830000D03*
D12*
X-2540000Y18850000D03*
D13*
X-1120000Y6350000D03*
%TD*%
M02*
