%TF.GenerationSoftware,KiCad,Pcbnew,(5.1.10)-1*%
%TF.CreationDate,2022-05-16T12:08:25-06:00*%
%TF.ProjectId,Swapper01,53776170-7065-4723-9031-2e6b69636164,rev?*%
%TF.SameCoordinates,Original*%
%TF.FileFunction,Copper,L2,Bot*%
%TF.FilePolarity,Positive*%
%FSLAX46Y46*%
G04 Gerber Fmt 4.6, Leading zero omitted, Abs format (unit mm)*
G04 Created by KiCad (PCBNEW (5.1.10)-1) date 2022-05-16 12:08:25*
%MOMM*%
%LPD*%
G01*
G04 APERTURE LIST*
%TA.AperFunction,ComponentPad*%
%ADD10C,5.000000*%
%TD*%
%TA.AperFunction,ComponentPad*%
%ADD11C,1.575000*%
%TD*%
%TA.AperFunction,ComponentPad*%
%ADD12R,1.575000X1.575000*%
%TD*%
%TA.AperFunction,ViaPad*%
%ADD13C,0.800000*%
%TD*%
%TA.AperFunction,Conductor*%
%ADD14C,0.250000*%
%TD*%
%TA.AperFunction,Conductor*%
%ADD15C,0.254000*%
%TD*%
%TA.AperFunction,Conductor*%
%ADD16C,0.100000*%
%TD*%
G04 APERTURE END LIST*
D10*
%TO.P,J1,0*%
%TO.N,N/C*%
X-2540000Y-6150000D03*
D11*
%TO.P,J1,9*%
%TO.N,/V-_2*%
X-3960000Y10490000D03*
%TO.P,J1,8*%
%TO.N,/V+_2*%
X-3960000Y7730000D03*
%TO.P,J1,7*%
%TO.N,/V-*%
X-3960000Y4970000D03*
%TO.P,J1,6*%
%TO.N,/V+*%
X-3960000Y2210000D03*
%TO.P,J1,5*%
%TO.N,/I-_2*%
X-1120000Y11870000D03*
%TO.P,J1,4*%
%TO.N,/I+_2*%
X-1120000Y9110000D03*
%TO.P,J1,2*%
%TO.N,/I-*%
X-1120000Y3590000D03*
D12*
%TO.P,J1,1*%
%TO.N,/I+*%
X-1120000Y830000D03*
D10*
%TO.P,J1,0*%
%TO.N,N/C*%
X-2540000Y18850000D03*
D11*
%TO.P,J1,3*%
%TO.N,GNDS*%
X-1120000Y6350000D03*
%TD*%
D13*
%TO.N,/I-*%
X2800000Y2600000D03*
X2800000Y6200000D03*
%TO.N,/V-*%
X1500000Y12500000D03*
%TO.N,/V+_2*%
X2600000Y8000000D03*
X3600000Y-1600000D03*
%TO.N,/I_in*%
X20600000Y0D03*
X30600000Y0D03*
X40400000Y0D03*
X50400000Y0D03*
X60600000Y0D03*
X10050000Y-50000D03*
X9525000Y7620000D03*
X9525000Y11430000D03*
X11430000Y12675000D03*
X10160000Y17145000D03*
%TO.N,/I_out*%
X60600000Y10200000D03*
X50400000Y10200000D03*
X40400000Y10200000D03*
X30400000Y10200000D03*
X20600000Y10200000D03*
X11050000Y10250000D03*
X6350000Y17780000D03*
%TD*%
D14*
%TO.N,/I-*%
X2800000Y2600000D02*
X2800000Y6200000D01*
%TO.N,/V-*%
X-3960000Y5156502D02*
X-3960000Y4970000D01*
X-1654001Y7462501D02*
X-3960000Y5156502D01*
X-1120997Y7462501D02*
X-1654001Y7462501D01*
X1500000Y10083498D02*
X-1120997Y7462501D01*
X1500000Y12500000D02*
X1500000Y10083498D01*
%TO.N,/V+_2*%
X3600000Y7000000D02*
X3600000Y-1600000D01*
X2600000Y8000000D02*
X3600000Y7000000D01*
%TO.N,/I_in*%
X20550000Y-50000D02*
X20600000Y0D01*
X10050000Y-50000D02*
X20550000Y-50000D01*
X20600000Y0D02*
X30600000Y0D01*
X30600000Y0D02*
X40400000Y0D01*
X40400000Y0D02*
X50400000Y0D01*
X50400000Y0D02*
X60600000Y0D01*
X9525000Y7620000D02*
X9525000Y11430000D01*
X11430000Y12675000D02*
X9525000Y14580000D01*
X9525000Y16510000D02*
X10160000Y17145000D01*
X9525000Y14580000D02*
X9525000Y16510000D01*
%TO.N,/I_out*%
X60600000Y10200000D02*
X50400000Y10200000D01*
X50400000Y10200000D02*
X40400000Y10200000D01*
X40400000Y10200000D02*
X30400000Y10200000D01*
X20600000Y10200000D02*
X30400000Y10200000D01*
X11100000Y10200000D02*
X11050000Y10250000D01*
X20600000Y10200000D02*
X11100000Y10200000D01*
X11050000Y10250000D02*
X11050000Y11175000D01*
X8000001Y14224999D02*
X8000001Y17145000D01*
X11050000Y11175000D02*
X8000001Y14224999D01*
X8000001Y17145000D02*
X6985000Y17145000D01*
X6985000Y17145000D02*
X6350000Y17780000D01*
%TD*%
D15*
%TO.N,GNDS*%
X71340001Y-12340000D02*
X-10340000Y-12340000D01*
X-10340000Y-5841229D01*
X-5675000Y-5841229D01*
X-5675000Y-6458771D01*
X-5554524Y-7064446D01*
X-5318201Y-7634979D01*
X-4975114Y-8148446D01*
X-4538446Y-8585114D01*
X-4024979Y-8928201D01*
X-3454446Y-9164524D01*
X-2848771Y-9285000D01*
X-2231229Y-9285000D01*
X-1625554Y-9164524D01*
X-1055021Y-8928201D01*
X-541554Y-8585114D01*
X-104886Y-8148446D01*
X238201Y-7634979D01*
X474524Y-7064446D01*
X595000Y-6458771D01*
X595000Y-5841229D01*
X474524Y-5235554D01*
X238201Y-4665021D01*
X-104886Y-4151554D01*
X-541554Y-3714886D01*
X-1055021Y-3371799D01*
X-1625554Y-3135476D01*
X-2231229Y-3015000D01*
X-2848771Y-3015000D01*
X-3454446Y-3135476D01*
X-4024979Y-3371799D01*
X-4538446Y-3714886D01*
X-4975114Y-4151554D01*
X-5318201Y-4665021D01*
X-5554524Y-5235554D01*
X-5675000Y-5841229D01*
X-10340000Y-5841229D01*
X-10340000Y10630104D01*
X-5382500Y10630104D01*
X-5382500Y10349896D01*
X-5327834Y10075072D01*
X-5220603Y9816194D01*
X-5064928Y9583209D01*
X-4866791Y9385072D01*
X-4633806Y9229397D01*
X-4374928Y9122166D01*
X-4313766Y9110000D01*
X-4374928Y9097834D01*
X-4633806Y8990603D01*
X-4866791Y8834928D01*
X-5064928Y8636791D01*
X-5220603Y8403806D01*
X-5327834Y8144928D01*
X-5382500Y7870104D01*
X-5382500Y7589896D01*
X-5327834Y7315072D01*
X-5220603Y7056194D01*
X-5064928Y6823209D01*
X-4866791Y6625072D01*
X-4633806Y6469397D01*
X-4374928Y6362166D01*
X-4313766Y6350000D01*
X-4374928Y6337834D01*
X-4633806Y6230603D01*
X-4866791Y6074928D01*
X-5064928Y5876791D01*
X-5220603Y5643806D01*
X-5327834Y5384928D01*
X-5382500Y5110104D01*
X-5382500Y4829896D01*
X-5327834Y4555072D01*
X-5220603Y4296194D01*
X-5064928Y4063209D01*
X-4866791Y3865072D01*
X-4633806Y3709397D01*
X-4374928Y3602166D01*
X-4313766Y3590000D01*
X-4374928Y3577834D01*
X-4633806Y3470603D01*
X-4866791Y3314928D01*
X-5064928Y3116791D01*
X-5220603Y2883806D01*
X-5327834Y2624928D01*
X-5382500Y2350104D01*
X-5382500Y2069896D01*
X-5327834Y1795072D01*
X-5220603Y1536194D01*
X-5064928Y1303209D01*
X-4866791Y1105072D01*
X-4633806Y949397D01*
X-4374928Y842166D01*
X-4100104Y787500D01*
X-3819896Y787500D01*
X-3545072Y842166D01*
X-3286194Y949397D01*
X-3053209Y1105072D01*
X-2855072Y1303209D01*
X-2699397Y1536194D01*
X-2665719Y1617500D01*
X-2545572Y1617500D01*
X-2545572Y42500D01*
X-2533312Y-81982D01*
X-2497002Y-201680D01*
X-2438037Y-311994D01*
X-2358685Y-408685D01*
X-2261994Y-488037D01*
X-2151680Y-547002D01*
X-2031982Y-583312D01*
X-1907500Y-595572D01*
X-332500Y-595572D01*
X-208018Y-583312D01*
X-88320Y-547002D01*
X21994Y-488037D01*
X118685Y-408685D01*
X198037Y-311994D01*
X257002Y-201680D01*
X293312Y-81982D01*
X305572Y42500D01*
X305572Y1617500D01*
X293312Y1741982D01*
X257002Y1861680D01*
X198037Y1971994D01*
X118685Y2068685D01*
X21994Y2148037D01*
X-88320Y2207002D01*
X-208018Y2243312D01*
X-332500Y2255572D01*
X-624423Y2255572D01*
X-446194Y2329397D01*
X-213209Y2485072D01*
X-15072Y2683209D01*
X140603Y2916194D01*
X247834Y3175072D01*
X302500Y3449896D01*
X302500Y3730104D01*
X247834Y4004928D01*
X140603Y4263806D01*
X-15072Y4496791D01*
X-213209Y4694928D01*
X-446194Y4850603D01*
X-705072Y4957834D01*
X-758478Y4968457D01*
X-508072Y5058226D01*
X-385898Y5123530D01*
X-315829Y5366224D01*
X-1120000Y6170395D01*
X-1924171Y5366224D01*
X-1854102Y5123530D01*
X-1600724Y5003879D01*
X-1468952Y4970957D01*
X-1534928Y4957834D01*
X-1793806Y4850603D01*
X-2026791Y4694928D01*
X-2224928Y4496791D01*
X-2380603Y4263806D01*
X-2487834Y4004928D01*
X-2542500Y3730104D01*
X-2542500Y3449896D01*
X-2487834Y3175072D01*
X-2380603Y2916194D01*
X-2224928Y2683209D01*
X-2026791Y2485072D01*
X-1793806Y2329397D01*
X-1615577Y2255572D01*
X-1907500Y2255572D01*
X-2031982Y2243312D01*
X-2151680Y2207002D01*
X-2261994Y2148037D01*
X-2358685Y2068685D01*
X-2438037Y1971994D01*
X-2497002Y1861680D01*
X-2533312Y1741982D01*
X-2545572Y1617500D01*
X-2665719Y1617500D01*
X-2592166Y1795072D01*
X-2537500Y2069896D01*
X-2537500Y2350104D01*
X-2592166Y2624928D01*
X-2699397Y2883806D01*
X-2855072Y3116791D01*
X-3053209Y3314928D01*
X-3286194Y3470603D01*
X-3545072Y3577834D01*
X-3606234Y3590000D01*
X-3545072Y3602166D01*
X-3286194Y3709397D01*
X-3053209Y3865072D01*
X-2855072Y4063209D01*
X-2699397Y4296194D01*
X-2592166Y4555072D01*
X-2537500Y4829896D01*
X-2537500Y5110104D01*
X-2592166Y5384928D01*
X-2611089Y5430612D01*
X-2374104Y5667597D01*
X-2346470Y5615898D01*
X-2103776Y5545829D01*
X-1299605Y6350000D01*
X-940395Y6350000D01*
X-136224Y5545829D01*
X106470Y5615898D01*
X226121Y5869276D01*
X294040Y6141128D01*
X307619Y6421008D01*
X266334Y6698157D01*
X171774Y6961928D01*
X106470Y7084102D01*
X-136224Y7154171D01*
X-940395Y6350000D01*
X-1299605Y6350000D01*
X-1313748Y6364143D01*
X-1134143Y6543748D01*
X-1120000Y6529605D01*
X-920474Y6729131D01*
X-828750Y6756955D01*
X-696721Y6827527D01*
X-580996Y6922500D01*
X-557193Y6951504D01*
X593242Y8101939D01*
X1565000Y8101939D01*
X1565000Y7898061D01*
X1604774Y7698102D01*
X1682795Y7509744D01*
X1796063Y7340226D01*
X1940226Y7196063D01*
X2109744Y7082795D01*
X2201416Y7044823D01*
X2140226Y7003937D01*
X1996063Y6859774D01*
X1882795Y6690256D01*
X1804774Y6501898D01*
X1765000Y6301939D01*
X1765000Y6098061D01*
X1804774Y5898102D01*
X1882795Y5709744D01*
X1996063Y5540226D01*
X2040001Y5496288D01*
X2040000Y3303711D01*
X1996063Y3259774D01*
X1882795Y3090256D01*
X1804774Y2901898D01*
X1765000Y2701939D01*
X1765000Y2498061D01*
X1804774Y2298102D01*
X1882795Y2109744D01*
X1996063Y1940226D01*
X2140226Y1796063D01*
X2309744Y1682795D01*
X2498102Y1604774D01*
X2698061Y1565000D01*
X2840001Y1565000D01*
X2840001Y-896288D01*
X2796063Y-940226D01*
X2682795Y-1109744D01*
X2604774Y-1298102D01*
X2565000Y-1498061D01*
X2565000Y-1701939D01*
X2604774Y-1901898D01*
X2682795Y-2090256D01*
X2796063Y-2259774D01*
X2940226Y-2403937D01*
X3109744Y-2517205D01*
X3298102Y-2595226D01*
X3498061Y-2635000D01*
X3701939Y-2635000D01*
X3901898Y-2595226D01*
X4090256Y-2517205D01*
X4259774Y-2403937D01*
X4403937Y-2259774D01*
X4517205Y-2090256D01*
X4595226Y-1901898D01*
X4635000Y-1701939D01*
X4635000Y-1498061D01*
X4595226Y-1298102D01*
X4517205Y-1109744D01*
X4403937Y-940226D01*
X4360000Y-896289D01*
X4360000Y51939D01*
X9015000Y51939D01*
X9015000Y-151939D01*
X9054774Y-351898D01*
X9132795Y-540256D01*
X9246063Y-709774D01*
X9390226Y-853937D01*
X9559744Y-967205D01*
X9748102Y-1045226D01*
X9948061Y-1085000D01*
X10151939Y-1085000D01*
X10351898Y-1045226D01*
X10540256Y-967205D01*
X10709774Y-853937D01*
X10753711Y-810000D01*
X19949300Y-810000D01*
X20109744Y-917205D01*
X20298102Y-995226D01*
X20498061Y-1035000D01*
X20701939Y-1035000D01*
X20901898Y-995226D01*
X21090256Y-917205D01*
X21259774Y-803937D01*
X21303711Y-760000D01*
X29896289Y-760000D01*
X29940226Y-803937D01*
X30109744Y-917205D01*
X30298102Y-995226D01*
X30498061Y-1035000D01*
X30701939Y-1035000D01*
X30901898Y-995226D01*
X31090256Y-917205D01*
X31259774Y-803937D01*
X31303711Y-760000D01*
X39696289Y-760000D01*
X39740226Y-803937D01*
X39909744Y-917205D01*
X40098102Y-995226D01*
X40298061Y-1035000D01*
X40501939Y-1035000D01*
X40701898Y-995226D01*
X40890256Y-917205D01*
X41059774Y-803937D01*
X41103711Y-760000D01*
X49696289Y-760000D01*
X49740226Y-803937D01*
X49909744Y-917205D01*
X50098102Y-995226D01*
X50298061Y-1035000D01*
X50501939Y-1035000D01*
X50701898Y-995226D01*
X50890256Y-917205D01*
X51059774Y-803937D01*
X51103711Y-760000D01*
X59896289Y-760000D01*
X59940226Y-803937D01*
X60109744Y-917205D01*
X60298102Y-995226D01*
X60498061Y-1035000D01*
X60701939Y-1035000D01*
X60901898Y-995226D01*
X61090256Y-917205D01*
X61259774Y-803937D01*
X61403937Y-659774D01*
X61517205Y-490256D01*
X61595226Y-301898D01*
X61635000Y-101939D01*
X61635000Y101939D01*
X61595226Y301898D01*
X61517205Y490256D01*
X61403937Y659774D01*
X61259774Y803937D01*
X61090256Y917205D01*
X60901898Y995226D01*
X60701939Y1035000D01*
X60498061Y1035000D01*
X60298102Y995226D01*
X60109744Y917205D01*
X59940226Y803937D01*
X59896289Y760000D01*
X51103711Y760000D01*
X51059774Y803937D01*
X50890256Y917205D01*
X50701898Y995226D01*
X50501939Y1035000D01*
X50298061Y1035000D01*
X50098102Y995226D01*
X49909744Y917205D01*
X49740226Y803937D01*
X49696289Y760000D01*
X41103711Y760000D01*
X41059774Y803937D01*
X40890256Y917205D01*
X40701898Y995226D01*
X40501939Y1035000D01*
X40298061Y1035000D01*
X40098102Y995226D01*
X39909744Y917205D01*
X39740226Y803937D01*
X39696289Y760000D01*
X31303711Y760000D01*
X31259774Y803937D01*
X31090256Y917205D01*
X30901898Y995226D01*
X30701939Y1035000D01*
X30498061Y1035000D01*
X30298102Y995226D01*
X30109744Y917205D01*
X29940226Y803937D01*
X29896289Y760000D01*
X21303711Y760000D01*
X21259774Y803937D01*
X21090256Y917205D01*
X20901898Y995226D01*
X20701939Y1035000D01*
X20498061Y1035000D01*
X20298102Y995226D01*
X20109744Y917205D01*
X19940226Y803937D01*
X19846289Y710000D01*
X10753711Y710000D01*
X10709774Y753937D01*
X10540256Y867205D01*
X10351898Y945226D01*
X10151939Y985000D01*
X9948061Y985000D01*
X9748102Y945226D01*
X9559744Y867205D01*
X9390226Y753937D01*
X9246063Y609774D01*
X9132795Y440256D01*
X9054774Y251898D01*
X9015000Y51939D01*
X4360000Y51939D01*
X4360000Y6962667D01*
X4363677Y7000000D01*
X4349003Y7148986D01*
X4305546Y7292247D01*
X4234974Y7424276D01*
X4163799Y7511003D01*
X4140001Y7540001D01*
X4111004Y7563798D01*
X3635000Y8039801D01*
X3635000Y8101939D01*
X3595226Y8301898D01*
X3517205Y8490256D01*
X3403937Y8659774D01*
X3259774Y8803937D01*
X3090256Y8917205D01*
X2901898Y8995226D01*
X2701939Y9035000D01*
X2498061Y9035000D01*
X2298102Y8995226D01*
X2109744Y8917205D01*
X1940226Y8803937D01*
X1796063Y8659774D01*
X1682795Y8490256D01*
X1604774Y8301898D01*
X1565000Y8101939D01*
X593242Y8101939D01*
X2011003Y9519699D01*
X2040001Y9543497D01*
X2134974Y9659222D01*
X2205546Y9791251D01*
X2249003Y9934512D01*
X2260000Y10046165D01*
X2263677Y10083498D01*
X2260000Y10120831D01*
X2260000Y11796289D01*
X2303937Y11840226D01*
X2417205Y12009744D01*
X2495226Y12198102D01*
X2535000Y12398061D01*
X2535000Y12601939D01*
X2495226Y12801898D01*
X2417205Y12990256D01*
X2303937Y13159774D01*
X2159774Y13303937D01*
X1990256Y13417205D01*
X1801898Y13495226D01*
X1601939Y13535000D01*
X1398061Y13535000D01*
X1198102Y13495226D01*
X1009744Y13417205D01*
X840226Y13303937D01*
X696063Y13159774D01*
X582795Y12990256D01*
X504774Y12801898D01*
X465000Y12601939D01*
X465000Y12398061D01*
X504774Y12198102D01*
X582795Y12009744D01*
X696063Y11840226D01*
X740000Y11796289D01*
X740001Y10398301D01*
X134556Y9792856D01*
X-15072Y10016791D01*
X-213209Y10214928D01*
X-446194Y10370603D01*
X-705072Y10477834D01*
X-766234Y10490000D01*
X-705072Y10502166D01*
X-446194Y10609397D01*
X-213209Y10765072D01*
X-15072Y10963209D01*
X140603Y11196194D01*
X247834Y11455072D01*
X302500Y11729896D01*
X302500Y12010104D01*
X247834Y12284928D01*
X140603Y12543806D01*
X-15072Y12776791D01*
X-213209Y12974928D01*
X-446194Y13130603D01*
X-705072Y13237834D01*
X-979896Y13292500D01*
X-1260104Y13292500D01*
X-1534928Y13237834D01*
X-1793806Y13130603D01*
X-2026791Y12974928D01*
X-2224928Y12776791D01*
X-2380603Y12543806D01*
X-2487834Y12284928D01*
X-2542500Y12010104D01*
X-2542500Y11729896D01*
X-2487834Y11455072D01*
X-2380603Y11196194D01*
X-2224928Y10963209D01*
X-2026791Y10765072D01*
X-1793806Y10609397D01*
X-1534928Y10502166D01*
X-1473766Y10490000D01*
X-1534928Y10477834D01*
X-1793806Y10370603D01*
X-2026791Y10214928D01*
X-2224928Y10016791D01*
X-2380603Y9783806D01*
X-2487834Y9524928D01*
X-2542500Y9250104D01*
X-2542500Y8969896D01*
X-2487834Y8695072D01*
X-2380603Y8436194D01*
X-2224928Y8203209D01*
X-2100751Y8079032D01*
X-2161918Y8028833D01*
X-2194002Y8002502D01*
X-2217800Y7973504D01*
X-2537500Y7653804D01*
X-2537500Y7870104D01*
X-2592166Y8144928D01*
X-2699397Y8403806D01*
X-2855072Y8636791D01*
X-3053209Y8834928D01*
X-3286194Y8990603D01*
X-3545072Y9097834D01*
X-3606234Y9110000D01*
X-3545072Y9122166D01*
X-3286194Y9229397D01*
X-3053209Y9385072D01*
X-2855072Y9583209D01*
X-2699397Y9816194D01*
X-2592166Y10075072D01*
X-2537500Y10349896D01*
X-2537500Y10630104D01*
X-2592166Y10904928D01*
X-2699397Y11163806D01*
X-2855072Y11396791D01*
X-3053209Y11594928D01*
X-3286194Y11750603D01*
X-3545072Y11857834D01*
X-3819896Y11912500D01*
X-4100104Y11912500D01*
X-4374928Y11857834D01*
X-4633806Y11750603D01*
X-4866791Y11594928D01*
X-5064928Y11396791D01*
X-5220603Y11163806D01*
X-5327834Y10904928D01*
X-5382500Y10630104D01*
X-10340000Y10630104D01*
X-10340000Y19158771D01*
X-5675000Y19158771D01*
X-5675000Y18541229D01*
X-5554524Y17935554D01*
X-5318201Y17365021D01*
X-4975114Y16851554D01*
X-4538446Y16414886D01*
X-4024979Y16071799D01*
X-3454446Y15835476D01*
X-2848771Y15715000D01*
X-2231229Y15715000D01*
X-1625554Y15835476D01*
X-1055021Y16071799D01*
X-541554Y16414886D01*
X-104886Y16851554D01*
X238201Y17365021D01*
X452315Y17881939D01*
X5315000Y17881939D01*
X5315000Y17678061D01*
X5354774Y17478102D01*
X5432795Y17289744D01*
X5546063Y17120226D01*
X5690226Y16976063D01*
X5859744Y16862795D01*
X6048102Y16784774D01*
X6248061Y16745000D01*
X6310198Y16745000D01*
X6421200Y16633998D01*
X6444999Y16604999D01*
X6473997Y16581201D01*
X6560724Y16510026D01*
X6692753Y16439454D01*
X6836014Y16395997D01*
X6985000Y16381323D01*
X7022333Y16385000D01*
X7240002Y16385000D01*
X7240001Y14262322D01*
X7236325Y14224999D01*
X7240001Y14187677D01*
X7240001Y14187667D01*
X7250998Y14076014D01*
X7290732Y13945026D01*
X7294455Y13932753D01*
X7365027Y13800723D01*
X7404872Y13752173D01*
X7460000Y13684998D01*
X7489004Y13661195D01*
X8895820Y12254379D01*
X8865226Y12233937D01*
X8721063Y12089774D01*
X8607795Y11920256D01*
X8529774Y11731898D01*
X8490000Y11531939D01*
X8490000Y11328061D01*
X8529774Y11128102D01*
X8607795Y10939744D01*
X8721063Y10770226D01*
X8765001Y10726288D01*
X8765000Y8323711D01*
X8721063Y8279774D01*
X8607795Y8110256D01*
X8529774Y7921898D01*
X8490000Y7721939D01*
X8490000Y7518061D01*
X8529774Y7318102D01*
X8607795Y7129744D01*
X8721063Y6960226D01*
X8865226Y6816063D01*
X9034744Y6702795D01*
X9223102Y6624774D01*
X9423061Y6585000D01*
X9626939Y6585000D01*
X9826898Y6624774D01*
X10015256Y6702795D01*
X10184774Y6816063D01*
X10328937Y6960226D01*
X10442205Y7129744D01*
X10520226Y7318102D01*
X10560000Y7518061D01*
X10560000Y7721939D01*
X10520226Y7921898D01*
X10442205Y8110256D01*
X10328937Y8279774D01*
X10285000Y8323711D01*
X10285000Y9551289D01*
X10390226Y9446063D01*
X10559744Y9332795D01*
X10748102Y9254774D01*
X10948061Y9215000D01*
X11151939Y9215000D01*
X11351898Y9254774D01*
X11540256Y9332795D01*
X11700700Y9440000D01*
X19896289Y9440000D01*
X19940226Y9396063D01*
X20109744Y9282795D01*
X20298102Y9204774D01*
X20498061Y9165000D01*
X20701939Y9165000D01*
X20901898Y9204774D01*
X21090256Y9282795D01*
X21259774Y9396063D01*
X21303711Y9440000D01*
X29696289Y9440000D01*
X29740226Y9396063D01*
X29909744Y9282795D01*
X30098102Y9204774D01*
X30298061Y9165000D01*
X30501939Y9165000D01*
X30701898Y9204774D01*
X30890256Y9282795D01*
X31059774Y9396063D01*
X31103711Y9440000D01*
X39696289Y9440000D01*
X39740226Y9396063D01*
X39909744Y9282795D01*
X40098102Y9204774D01*
X40298061Y9165000D01*
X40501939Y9165000D01*
X40701898Y9204774D01*
X40890256Y9282795D01*
X41059774Y9396063D01*
X41103711Y9440000D01*
X49696289Y9440000D01*
X49740226Y9396063D01*
X49909744Y9282795D01*
X50098102Y9204774D01*
X50298061Y9165000D01*
X50501939Y9165000D01*
X50701898Y9204774D01*
X50890256Y9282795D01*
X51059774Y9396063D01*
X51103711Y9440000D01*
X59896289Y9440000D01*
X59940226Y9396063D01*
X60109744Y9282795D01*
X60298102Y9204774D01*
X60498061Y9165000D01*
X60701939Y9165000D01*
X60901898Y9204774D01*
X61090256Y9282795D01*
X61259774Y9396063D01*
X61403937Y9540226D01*
X61517205Y9709744D01*
X61595226Y9898102D01*
X61635000Y10098061D01*
X61635000Y10301939D01*
X61595226Y10501898D01*
X61517205Y10690256D01*
X61403937Y10859774D01*
X61259774Y11003937D01*
X61090256Y11117205D01*
X60901898Y11195226D01*
X60701939Y11235000D01*
X60498061Y11235000D01*
X60298102Y11195226D01*
X60109744Y11117205D01*
X59940226Y11003937D01*
X59896289Y10960000D01*
X51103711Y10960000D01*
X51059774Y11003937D01*
X50890256Y11117205D01*
X50701898Y11195226D01*
X50501939Y11235000D01*
X50298061Y11235000D01*
X50098102Y11195226D01*
X49909744Y11117205D01*
X49740226Y11003937D01*
X49696289Y10960000D01*
X41103711Y10960000D01*
X41059774Y11003937D01*
X40890256Y11117205D01*
X40701898Y11195226D01*
X40501939Y11235000D01*
X40298061Y11235000D01*
X40098102Y11195226D01*
X39909744Y11117205D01*
X39740226Y11003937D01*
X39696289Y10960000D01*
X31103711Y10960000D01*
X31059774Y11003937D01*
X30890256Y11117205D01*
X30701898Y11195226D01*
X30501939Y11235000D01*
X30298061Y11235000D01*
X30098102Y11195226D01*
X29909744Y11117205D01*
X29740226Y11003937D01*
X29696289Y10960000D01*
X21303711Y10960000D01*
X21259774Y11003937D01*
X21090256Y11117205D01*
X20901898Y11195226D01*
X20701939Y11235000D01*
X20498061Y11235000D01*
X20298102Y11195226D01*
X20109744Y11117205D01*
X19940226Y11003937D01*
X19896289Y10960000D01*
X11810000Y10960000D01*
X11810000Y11137677D01*
X11813676Y11175000D01*
X11810000Y11212323D01*
X11810000Y11212333D01*
X11799003Y11323986D01*
X11755546Y11467247D01*
X11720967Y11531939D01*
X11684974Y11599277D01*
X11634767Y11660454D01*
X11731898Y11679774D01*
X11920256Y11757795D01*
X12089774Y11871063D01*
X12233937Y12015226D01*
X12347205Y12184744D01*
X12425226Y12373102D01*
X12465000Y12573061D01*
X12465000Y12776939D01*
X12425226Y12976898D01*
X12347205Y13165256D01*
X12233937Y13334774D01*
X12089774Y13478937D01*
X11920256Y13592205D01*
X11731898Y13670226D01*
X11531939Y13710000D01*
X11469802Y13710000D01*
X10285000Y14894801D01*
X10285000Y16114587D01*
X10461898Y16149774D01*
X10650256Y16227795D01*
X10819774Y16341063D01*
X10963937Y16485226D01*
X11077205Y16654744D01*
X11155226Y16843102D01*
X11195000Y17043061D01*
X11195000Y17246939D01*
X11155226Y17446898D01*
X11077205Y17635256D01*
X10963937Y17804774D01*
X10819774Y17948937D01*
X10650256Y18062205D01*
X10461898Y18140226D01*
X10261939Y18180000D01*
X10058061Y18180000D01*
X9858102Y18140226D01*
X9669744Y18062205D01*
X9500226Y17948937D01*
X9356063Y17804774D01*
X9242795Y17635256D01*
X9164774Y17446898D01*
X9125000Y17246939D01*
X9125000Y17184801D01*
X9013998Y17073799D01*
X8985000Y17050001D01*
X8961202Y17021003D01*
X8961201Y17021002D01*
X8890026Y16934276D01*
X8819454Y16802246D01*
X8775998Y16658985D01*
X8761324Y16510000D01*
X8765001Y16472668D01*
X8765000Y14617323D01*
X8761324Y14580000D01*
X8765000Y14542678D01*
X8765000Y14542668D01*
X8765859Y14533942D01*
X8760001Y14539800D01*
X8760001Y17107667D01*
X8763678Y17145000D01*
X8749004Y17293986D01*
X8705547Y17437247D01*
X8634975Y17569276D01*
X8540002Y17685001D01*
X8424277Y17779974D01*
X8292248Y17850546D01*
X8148987Y17894003D01*
X8037334Y17905000D01*
X8000001Y17908677D01*
X7962668Y17905000D01*
X7380413Y17905000D01*
X7345226Y18081898D01*
X7267205Y18270256D01*
X7153937Y18439774D01*
X7009774Y18583937D01*
X6840256Y18697205D01*
X6651898Y18775226D01*
X6451939Y18815000D01*
X6248061Y18815000D01*
X6048102Y18775226D01*
X5859744Y18697205D01*
X5690226Y18583937D01*
X5546063Y18439774D01*
X5432795Y18270256D01*
X5354774Y18081898D01*
X5315000Y17881939D01*
X452315Y17881939D01*
X474524Y17935554D01*
X595000Y18541229D01*
X595000Y19158771D01*
X474524Y19764446D01*
X238201Y20334979D01*
X-104886Y20848446D01*
X-541554Y21285114D01*
X-1055021Y21628201D01*
X-1625554Y21864524D01*
X-2231229Y21985000D01*
X-2848771Y21985000D01*
X-3454446Y21864524D01*
X-4024979Y21628201D01*
X-4538446Y21285114D01*
X-4975114Y20848446D01*
X-5318201Y20334979D01*
X-5554524Y19764446D01*
X-5675000Y19158771D01*
X-10340000Y19158771D01*
X-10340000Y24340000D01*
X71340000Y24340000D01*
X71340001Y-12340000D01*
%TA.AperFunction,Conductor*%
D16*
G36*
X71340001Y-12340000D02*
G01*
X-10340000Y-12340000D01*
X-10340000Y-5841229D01*
X-5675000Y-5841229D01*
X-5675000Y-6458771D01*
X-5554524Y-7064446D01*
X-5318201Y-7634979D01*
X-4975114Y-8148446D01*
X-4538446Y-8585114D01*
X-4024979Y-8928201D01*
X-3454446Y-9164524D01*
X-2848771Y-9285000D01*
X-2231229Y-9285000D01*
X-1625554Y-9164524D01*
X-1055021Y-8928201D01*
X-541554Y-8585114D01*
X-104886Y-8148446D01*
X238201Y-7634979D01*
X474524Y-7064446D01*
X595000Y-6458771D01*
X595000Y-5841229D01*
X474524Y-5235554D01*
X238201Y-4665021D01*
X-104886Y-4151554D01*
X-541554Y-3714886D01*
X-1055021Y-3371799D01*
X-1625554Y-3135476D01*
X-2231229Y-3015000D01*
X-2848771Y-3015000D01*
X-3454446Y-3135476D01*
X-4024979Y-3371799D01*
X-4538446Y-3714886D01*
X-4975114Y-4151554D01*
X-5318201Y-4665021D01*
X-5554524Y-5235554D01*
X-5675000Y-5841229D01*
X-10340000Y-5841229D01*
X-10340000Y10630104D01*
X-5382500Y10630104D01*
X-5382500Y10349896D01*
X-5327834Y10075072D01*
X-5220603Y9816194D01*
X-5064928Y9583209D01*
X-4866791Y9385072D01*
X-4633806Y9229397D01*
X-4374928Y9122166D01*
X-4313766Y9110000D01*
X-4374928Y9097834D01*
X-4633806Y8990603D01*
X-4866791Y8834928D01*
X-5064928Y8636791D01*
X-5220603Y8403806D01*
X-5327834Y8144928D01*
X-5382500Y7870104D01*
X-5382500Y7589896D01*
X-5327834Y7315072D01*
X-5220603Y7056194D01*
X-5064928Y6823209D01*
X-4866791Y6625072D01*
X-4633806Y6469397D01*
X-4374928Y6362166D01*
X-4313766Y6350000D01*
X-4374928Y6337834D01*
X-4633806Y6230603D01*
X-4866791Y6074928D01*
X-5064928Y5876791D01*
X-5220603Y5643806D01*
X-5327834Y5384928D01*
X-5382500Y5110104D01*
X-5382500Y4829896D01*
X-5327834Y4555072D01*
X-5220603Y4296194D01*
X-5064928Y4063209D01*
X-4866791Y3865072D01*
X-4633806Y3709397D01*
X-4374928Y3602166D01*
X-4313766Y3590000D01*
X-4374928Y3577834D01*
X-4633806Y3470603D01*
X-4866791Y3314928D01*
X-5064928Y3116791D01*
X-5220603Y2883806D01*
X-5327834Y2624928D01*
X-5382500Y2350104D01*
X-5382500Y2069896D01*
X-5327834Y1795072D01*
X-5220603Y1536194D01*
X-5064928Y1303209D01*
X-4866791Y1105072D01*
X-4633806Y949397D01*
X-4374928Y842166D01*
X-4100104Y787500D01*
X-3819896Y787500D01*
X-3545072Y842166D01*
X-3286194Y949397D01*
X-3053209Y1105072D01*
X-2855072Y1303209D01*
X-2699397Y1536194D01*
X-2665719Y1617500D01*
X-2545572Y1617500D01*
X-2545572Y42500D01*
X-2533312Y-81982D01*
X-2497002Y-201680D01*
X-2438037Y-311994D01*
X-2358685Y-408685D01*
X-2261994Y-488037D01*
X-2151680Y-547002D01*
X-2031982Y-583312D01*
X-1907500Y-595572D01*
X-332500Y-595572D01*
X-208018Y-583312D01*
X-88320Y-547002D01*
X21994Y-488037D01*
X118685Y-408685D01*
X198037Y-311994D01*
X257002Y-201680D01*
X293312Y-81982D01*
X305572Y42500D01*
X305572Y1617500D01*
X293312Y1741982D01*
X257002Y1861680D01*
X198037Y1971994D01*
X118685Y2068685D01*
X21994Y2148037D01*
X-88320Y2207002D01*
X-208018Y2243312D01*
X-332500Y2255572D01*
X-624423Y2255572D01*
X-446194Y2329397D01*
X-213209Y2485072D01*
X-15072Y2683209D01*
X140603Y2916194D01*
X247834Y3175072D01*
X302500Y3449896D01*
X302500Y3730104D01*
X247834Y4004928D01*
X140603Y4263806D01*
X-15072Y4496791D01*
X-213209Y4694928D01*
X-446194Y4850603D01*
X-705072Y4957834D01*
X-758478Y4968457D01*
X-508072Y5058226D01*
X-385898Y5123530D01*
X-315829Y5366224D01*
X-1120000Y6170395D01*
X-1924171Y5366224D01*
X-1854102Y5123530D01*
X-1600724Y5003879D01*
X-1468952Y4970957D01*
X-1534928Y4957834D01*
X-1793806Y4850603D01*
X-2026791Y4694928D01*
X-2224928Y4496791D01*
X-2380603Y4263806D01*
X-2487834Y4004928D01*
X-2542500Y3730104D01*
X-2542500Y3449896D01*
X-2487834Y3175072D01*
X-2380603Y2916194D01*
X-2224928Y2683209D01*
X-2026791Y2485072D01*
X-1793806Y2329397D01*
X-1615577Y2255572D01*
X-1907500Y2255572D01*
X-2031982Y2243312D01*
X-2151680Y2207002D01*
X-2261994Y2148037D01*
X-2358685Y2068685D01*
X-2438037Y1971994D01*
X-2497002Y1861680D01*
X-2533312Y1741982D01*
X-2545572Y1617500D01*
X-2665719Y1617500D01*
X-2592166Y1795072D01*
X-2537500Y2069896D01*
X-2537500Y2350104D01*
X-2592166Y2624928D01*
X-2699397Y2883806D01*
X-2855072Y3116791D01*
X-3053209Y3314928D01*
X-3286194Y3470603D01*
X-3545072Y3577834D01*
X-3606234Y3590000D01*
X-3545072Y3602166D01*
X-3286194Y3709397D01*
X-3053209Y3865072D01*
X-2855072Y4063209D01*
X-2699397Y4296194D01*
X-2592166Y4555072D01*
X-2537500Y4829896D01*
X-2537500Y5110104D01*
X-2592166Y5384928D01*
X-2611089Y5430612D01*
X-2374104Y5667597D01*
X-2346470Y5615898D01*
X-2103776Y5545829D01*
X-1299605Y6350000D01*
X-940395Y6350000D01*
X-136224Y5545829D01*
X106470Y5615898D01*
X226121Y5869276D01*
X294040Y6141128D01*
X307619Y6421008D01*
X266334Y6698157D01*
X171774Y6961928D01*
X106470Y7084102D01*
X-136224Y7154171D01*
X-940395Y6350000D01*
X-1299605Y6350000D01*
X-1313748Y6364143D01*
X-1134143Y6543748D01*
X-1120000Y6529605D01*
X-920474Y6729131D01*
X-828750Y6756955D01*
X-696721Y6827527D01*
X-580996Y6922500D01*
X-557193Y6951504D01*
X593242Y8101939D01*
X1565000Y8101939D01*
X1565000Y7898061D01*
X1604774Y7698102D01*
X1682795Y7509744D01*
X1796063Y7340226D01*
X1940226Y7196063D01*
X2109744Y7082795D01*
X2201416Y7044823D01*
X2140226Y7003937D01*
X1996063Y6859774D01*
X1882795Y6690256D01*
X1804774Y6501898D01*
X1765000Y6301939D01*
X1765000Y6098061D01*
X1804774Y5898102D01*
X1882795Y5709744D01*
X1996063Y5540226D01*
X2040001Y5496288D01*
X2040000Y3303711D01*
X1996063Y3259774D01*
X1882795Y3090256D01*
X1804774Y2901898D01*
X1765000Y2701939D01*
X1765000Y2498061D01*
X1804774Y2298102D01*
X1882795Y2109744D01*
X1996063Y1940226D01*
X2140226Y1796063D01*
X2309744Y1682795D01*
X2498102Y1604774D01*
X2698061Y1565000D01*
X2840001Y1565000D01*
X2840001Y-896288D01*
X2796063Y-940226D01*
X2682795Y-1109744D01*
X2604774Y-1298102D01*
X2565000Y-1498061D01*
X2565000Y-1701939D01*
X2604774Y-1901898D01*
X2682795Y-2090256D01*
X2796063Y-2259774D01*
X2940226Y-2403937D01*
X3109744Y-2517205D01*
X3298102Y-2595226D01*
X3498061Y-2635000D01*
X3701939Y-2635000D01*
X3901898Y-2595226D01*
X4090256Y-2517205D01*
X4259774Y-2403937D01*
X4403937Y-2259774D01*
X4517205Y-2090256D01*
X4595226Y-1901898D01*
X4635000Y-1701939D01*
X4635000Y-1498061D01*
X4595226Y-1298102D01*
X4517205Y-1109744D01*
X4403937Y-940226D01*
X4360000Y-896289D01*
X4360000Y51939D01*
X9015000Y51939D01*
X9015000Y-151939D01*
X9054774Y-351898D01*
X9132795Y-540256D01*
X9246063Y-709774D01*
X9390226Y-853937D01*
X9559744Y-967205D01*
X9748102Y-1045226D01*
X9948061Y-1085000D01*
X10151939Y-1085000D01*
X10351898Y-1045226D01*
X10540256Y-967205D01*
X10709774Y-853937D01*
X10753711Y-810000D01*
X19949300Y-810000D01*
X20109744Y-917205D01*
X20298102Y-995226D01*
X20498061Y-1035000D01*
X20701939Y-1035000D01*
X20901898Y-995226D01*
X21090256Y-917205D01*
X21259774Y-803937D01*
X21303711Y-760000D01*
X29896289Y-760000D01*
X29940226Y-803937D01*
X30109744Y-917205D01*
X30298102Y-995226D01*
X30498061Y-1035000D01*
X30701939Y-1035000D01*
X30901898Y-995226D01*
X31090256Y-917205D01*
X31259774Y-803937D01*
X31303711Y-760000D01*
X39696289Y-760000D01*
X39740226Y-803937D01*
X39909744Y-917205D01*
X40098102Y-995226D01*
X40298061Y-1035000D01*
X40501939Y-1035000D01*
X40701898Y-995226D01*
X40890256Y-917205D01*
X41059774Y-803937D01*
X41103711Y-760000D01*
X49696289Y-760000D01*
X49740226Y-803937D01*
X49909744Y-917205D01*
X50098102Y-995226D01*
X50298061Y-1035000D01*
X50501939Y-1035000D01*
X50701898Y-995226D01*
X50890256Y-917205D01*
X51059774Y-803937D01*
X51103711Y-760000D01*
X59896289Y-760000D01*
X59940226Y-803937D01*
X60109744Y-917205D01*
X60298102Y-995226D01*
X60498061Y-1035000D01*
X60701939Y-1035000D01*
X60901898Y-995226D01*
X61090256Y-917205D01*
X61259774Y-803937D01*
X61403937Y-659774D01*
X61517205Y-490256D01*
X61595226Y-301898D01*
X61635000Y-101939D01*
X61635000Y101939D01*
X61595226Y301898D01*
X61517205Y490256D01*
X61403937Y659774D01*
X61259774Y803937D01*
X61090256Y917205D01*
X60901898Y995226D01*
X60701939Y1035000D01*
X60498061Y1035000D01*
X60298102Y995226D01*
X60109744Y917205D01*
X59940226Y803937D01*
X59896289Y760000D01*
X51103711Y760000D01*
X51059774Y803937D01*
X50890256Y917205D01*
X50701898Y995226D01*
X50501939Y1035000D01*
X50298061Y1035000D01*
X50098102Y995226D01*
X49909744Y917205D01*
X49740226Y803937D01*
X49696289Y760000D01*
X41103711Y760000D01*
X41059774Y803937D01*
X40890256Y917205D01*
X40701898Y995226D01*
X40501939Y1035000D01*
X40298061Y1035000D01*
X40098102Y995226D01*
X39909744Y917205D01*
X39740226Y803937D01*
X39696289Y760000D01*
X31303711Y760000D01*
X31259774Y803937D01*
X31090256Y917205D01*
X30901898Y995226D01*
X30701939Y1035000D01*
X30498061Y1035000D01*
X30298102Y995226D01*
X30109744Y917205D01*
X29940226Y803937D01*
X29896289Y760000D01*
X21303711Y760000D01*
X21259774Y803937D01*
X21090256Y917205D01*
X20901898Y995226D01*
X20701939Y1035000D01*
X20498061Y1035000D01*
X20298102Y995226D01*
X20109744Y917205D01*
X19940226Y803937D01*
X19846289Y710000D01*
X10753711Y710000D01*
X10709774Y753937D01*
X10540256Y867205D01*
X10351898Y945226D01*
X10151939Y985000D01*
X9948061Y985000D01*
X9748102Y945226D01*
X9559744Y867205D01*
X9390226Y753937D01*
X9246063Y609774D01*
X9132795Y440256D01*
X9054774Y251898D01*
X9015000Y51939D01*
X4360000Y51939D01*
X4360000Y6962667D01*
X4363677Y7000000D01*
X4349003Y7148986D01*
X4305546Y7292247D01*
X4234974Y7424276D01*
X4163799Y7511003D01*
X4140001Y7540001D01*
X4111004Y7563798D01*
X3635000Y8039801D01*
X3635000Y8101939D01*
X3595226Y8301898D01*
X3517205Y8490256D01*
X3403937Y8659774D01*
X3259774Y8803937D01*
X3090256Y8917205D01*
X2901898Y8995226D01*
X2701939Y9035000D01*
X2498061Y9035000D01*
X2298102Y8995226D01*
X2109744Y8917205D01*
X1940226Y8803937D01*
X1796063Y8659774D01*
X1682795Y8490256D01*
X1604774Y8301898D01*
X1565000Y8101939D01*
X593242Y8101939D01*
X2011003Y9519699D01*
X2040001Y9543497D01*
X2134974Y9659222D01*
X2205546Y9791251D01*
X2249003Y9934512D01*
X2260000Y10046165D01*
X2263677Y10083498D01*
X2260000Y10120831D01*
X2260000Y11796289D01*
X2303937Y11840226D01*
X2417205Y12009744D01*
X2495226Y12198102D01*
X2535000Y12398061D01*
X2535000Y12601939D01*
X2495226Y12801898D01*
X2417205Y12990256D01*
X2303937Y13159774D01*
X2159774Y13303937D01*
X1990256Y13417205D01*
X1801898Y13495226D01*
X1601939Y13535000D01*
X1398061Y13535000D01*
X1198102Y13495226D01*
X1009744Y13417205D01*
X840226Y13303937D01*
X696063Y13159774D01*
X582795Y12990256D01*
X504774Y12801898D01*
X465000Y12601939D01*
X465000Y12398061D01*
X504774Y12198102D01*
X582795Y12009744D01*
X696063Y11840226D01*
X740000Y11796289D01*
X740001Y10398301D01*
X134556Y9792856D01*
X-15072Y10016791D01*
X-213209Y10214928D01*
X-446194Y10370603D01*
X-705072Y10477834D01*
X-766234Y10490000D01*
X-705072Y10502166D01*
X-446194Y10609397D01*
X-213209Y10765072D01*
X-15072Y10963209D01*
X140603Y11196194D01*
X247834Y11455072D01*
X302500Y11729896D01*
X302500Y12010104D01*
X247834Y12284928D01*
X140603Y12543806D01*
X-15072Y12776791D01*
X-213209Y12974928D01*
X-446194Y13130603D01*
X-705072Y13237834D01*
X-979896Y13292500D01*
X-1260104Y13292500D01*
X-1534928Y13237834D01*
X-1793806Y13130603D01*
X-2026791Y12974928D01*
X-2224928Y12776791D01*
X-2380603Y12543806D01*
X-2487834Y12284928D01*
X-2542500Y12010104D01*
X-2542500Y11729896D01*
X-2487834Y11455072D01*
X-2380603Y11196194D01*
X-2224928Y10963209D01*
X-2026791Y10765072D01*
X-1793806Y10609397D01*
X-1534928Y10502166D01*
X-1473766Y10490000D01*
X-1534928Y10477834D01*
X-1793806Y10370603D01*
X-2026791Y10214928D01*
X-2224928Y10016791D01*
X-2380603Y9783806D01*
X-2487834Y9524928D01*
X-2542500Y9250104D01*
X-2542500Y8969896D01*
X-2487834Y8695072D01*
X-2380603Y8436194D01*
X-2224928Y8203209D01*
X-2100751Y8079032D01*
X-2161918Y8028833D01*
X-2194002Y8002502D01*
X-2217800Y7973504D01*
X-2537500Y7653804D01*
X-2537500Y7870104D01*
X-2592166Y8144928D01*
X-2699397Y8403806D01*
X-2855072Y8636791D01*
X-3053209Y8834928D01*
X-3286194Y8990603D01*
X-3545072Y9097834D01*
X-3606234Y9110000D01*
X-3545072Y9122166D01*
X-3286194Y9229397D01*
X-3053209Y9385072D01*
X-2855072Y9583209D01*
X-2699397Y9816194D01*
X-2592166Y10075072D01*
X-2537500Y10349896D01*
X-2537500Y10630104D01*
X-2592166Y10904928D01*
X-2699397Y11163806D01*
X-2855072Y11396791D01*
X-3053209Y11594928D01*
X-3286194Y11750603D01*
X-3545072Y11857834D01*
X-3819896Y11912500D01*
X-4100104Y11912500D01*
X-4374928Y11857834D01*
X-4633806Y11750603D01*
X-4866791Y11594928D01*
X-5064928Y11396791D01*
X-5220603Y11163806D01*
X-5327834Y10904928D01*
X-5382500Y10630104D01*
X-10340000Y10630104D01*
X-10340000Y19158771D01*
X-5675000Y19158771D01*
X-5675000Y18541229D01*
X-5554524Y17935554D01*
X-5318201Y17365021D01*
X-4975114Y16851554D01*
X-4538446Y16414886D01*
X-4024979Y16071799D01*
X-3454446Y15835476D01*
X-2848771Y15715000D01*
X-2231229Y15715000D01*
X-1625554Y15835476D01*
X-1055021Y16071799D01*
X-541554Y16414886D01*
X-104886Y16851554D01*
X238201Y17365021D01*
X452315Y17881939D01*
X5315000Y17881939D01*
X5315000Y17678061D01*
X5354774Y17478102D01*
X5432795Y17289744D01*
X5546063Y17120226D01*
X5690226Y16976063D01*
X5859744Y16862795D01*
X6048102Y16784774D01*
X6248061Y16745000D01*
X6310198Y16745000D01*
X6421200Y16633998D01*
X6444999Y16604999D01*
X6473997Y16581201D01*
X6560724Y16510026D01*
X6692753Y16439454D01*
X6836014Y16395997D01*
X6985000Y16381323D01*
X7022333Y16385000D01*
X7240002Y16385000D01*
X7240001Y14262322D01*
X7236325Y14224999D01*
X7240001Y14187677D01*
X7240001Y14187667D01*
X7250998Y14076014D01*
X7290732Y13945026D01*
X7294455Y13932753D01*
X7365027Y13800723D01*
X7404872Y13752173D01*
X7460000Y13684998D01*
X7489004Y13661195D01*
X8895820Y12254379D01*
X8865226Y12233937D01*
X8721063Y12089774D01*
X8607795Y11920256D01*
X8529774Y11731898D01*
X8490000Y11531939D01*
X8490000Y11328061D01*
X8529774Y11128102D01*
X8607795Y10939744D01*
X8721063Y10770226D01*
X8765001Y10726288D01*
X8765000Y8323711D01*
X8721063Y8279774D01*
X8607795Y8110256D01*
X8529774Y7921898D01*
X8490000Y7721939D01*
X8490000Y7518061D01*
X8529774Y7318102D01*
X8607795Y7129744D01*
X8721063Y6960226D01*
X8865226Y6816063D01*
X9034744Y6702795D01*
X9223102Y6624774D01*
X9423061Y6585000D01*
X9626939Y6585000D01*
X9826898Y6624774D01*
X10015256Y6702795D01*
X10184774Y6816063D01*
X10328937Y6960226D01*
X10442205Y7129744D01*
X10520226Y7318102D01*
X10560000Y7518061D01*
X10560000Y7721939D01*
X10520226Y7921898D01*
X10442205Y8110256D01*
X10328937Y8279774D01*
X10285000Y8323711D01*
X10285000Y9551289D01*
X10390226Y9446063D01*
X10559744Y9332795D01*
X10748102Y9254774D01*
X10948061Y9215000D01*
X11151939Y9215000D01*
X11351898Y9254774D01*
X11540256Y9332795D01*
X11700700Y9440000D01*
X19896289Y9440000D01*
X19940226Y9396063D01*
X20109744Y9282795D01*
X20298102Y9204774D01*
X20498061Y9165000D01*
X20701939Y9165000D01*
X20901898Y9204774D01*
X21090256Y9282795D01*
X21259774Y9396063D01*
X21303711Y9440000D01*
X29696289Y9440000D01*
X29740226Y9396063D01*
X29909744Y9282795D01*
X30098102Y9204774D01*
X30298061Y9165000D01*
X30501939Y9165000D01*
X30701898Y9204774D01*
X30890256Y9282795D01*
X31059774Y9396063D01*
X31103711Y9440000D01*
X39696289Y9440000D01*
X39740226Y9396063D01*
X39909744Y9282795D01*
X40098102Y9204774D01*
X40298061Y9165000D01*
X40501939Y9165000D01*
X40701898Y9204774D01*
X40890256Y9282795D01*
X41059774Y9396063D01*
X41103711Y9440000D01*
X49696289Y9440000D01*
X49740226Y9396063D01*
X49909744Y9282795D01*
X50098102Y9204774D01*
X50298061Y9165000D01*
X50501939Y9165000D01*
X50701898Y9204774D01*
X50890256Y9282795D01*
X51059774Y9396063D01*
X51103711Y9440000D01*
X59896289Y9440000D01*
X59940226Y9396063D01*
X60109744Y9282795D01*
X60298102Y9204774D01*
X60498061Y9165000D01*
X60701939Y9165000D01*
X60901898Y9204774D01*
X61090256Y9282795D01*
X61259774Y9396063D01*
X61403937Y9540226D01*
X61517205Y9709744D01*
X61595226Y9898102D01*
X61635000Y10098061D01*
X61635000Y10301939D01*
X61595226Y10501898D01*
X61517205Y10690256D01*
X61403937Y10859774D01*
X61259774Y11003937D01*
X61090256Y11117205D01*
X60901898Y11195226D01*
X60701939Y11235000D01*
X60498061Y11235000D01*
X60298102Y11195226D01*
X60109744Y11117205D01*
X59940226Y11003937D01*
X59896289Y10960000D01*
X51103711Y10960000D01*
X51059774Y11003937D01*
X50890256Y11117205D01*
X50701898Y11195226D01*
X50501939Y11235000D01*
X50298061Y11235000D01*
X50098102Y11195226D01*
X49909744Y11117205D01*
X49740226Y11003937D01*
X49696289Y10960000D01*
X41103711Y10960000D01*
X41059774Y11003937D01*
X40890256Y11117205D01*
X40701898Y11195226D01*
X40501939Y11235000D01*
X40298061Y11235000D01*
X40098102Y11195226D01*
X39909744Y11117205D01*
X39740226Y11003937D01*
X39696289Y10960000D01*
X31103711Y10960000D01*
X31059774Y11003937D01*
X30890256Y11117205D01*
X30701898Y11195226D01*
X30501939Y11235000D01*
X30298061Y11235000D01*
X30098102Y11195226D01*
X29909744Y11117205D01*
X29740226Y11003937D01*
X29696289Y10960000D01*
X21303711Y10960000D01*
X21259774Y11003937D01*
X21090256Y11117205D01*
X20901898Y11195226D01*
X20701939Y11235000D01*
X20498061Y11235000D01*
X20298102Y11195226D01*
X20109744Y11117205D01*
X19940226Y11003937D01*
X19896289Y10960000D01*
X11810000Y10960000D01*
X11810000Y11137677D01*
X11813676Y11175000D01*
X11810000Y11212323D01*
X11810000Y11212333D01*
X11799003Y11323986D01*
X11755546Y11467247D01*
X11720967Y11531939D01*
X11684974Y11599277D01*
X11634767Y11660454D01*
X11731898Y11679774D01*
X11920256Y11757795D01*
X12089774Y11871063D01*
X12233937Y12015226D01*
X12347205Y12184744D01*
X12425226Y12373102D01*
X12465000Y12573061D01*
X12465000Y12776939D01*
X12425226Y12976898D01*
X12347205Y13165256D01*
X12233937Y13334774D01*
X12089774Y13478937D01*
X11920256Y13592205D01*
X11731898Y13670226D01*
X11531939Y13710000D01*
X11469802Y13710000D01*
X10285000Y14894801D01*
X10285000Y16114587D01*
X10461898Y16149774D01*
X10650256Y16227795D01*
X10819774Y16341063D01*
X10963937Y16485226D01*
X11077205Y16654744D01*
X11155226Y16843102D01*
X11195000Y17043061D01*
X11195000Y17246939D01*
X11155226Y17446898D01*
X11077205Y17635256D01*
X10963937Y17804774D01*
X10819774Y17948937D01*
X10650256Y18062205D01*
X10461898Y18140226D01*
X10261939Y18180000D01*
X10058061Y18180000D01*
X9858102Y18140226D01*
X9669744Y18062205D01*
X9500226Y17948937D01*
X9356063Y17804774D01*
X9242795Y17635256D01*
X9164774Y17446898D01*
X9125000Y17246939D01*
X9125000Y17184801D01*
X9013998Y17073799D01*
X8985000Y17050001D01*
X8961202Y17021003D01*
X8961201Y17021002D01*
X8890026Y16934276D01*
X8819454Y16802246D01*
X8775998Y16658985D01*
X8761324Y16510000D01*
X8765001Y16472668D01*
X8765000Y14617323D01*
X8761324Y14580000D01*
X8765000Y14542678D01*
X8765000Y14542668D01*
X8765859Y14533942D01*
X8760001Y14539800D01*
X8760001Y17107667D01*
X8763678Y17145000D01*
X8749004Y17293986D01*
X8705547Y17437247D01*
X8634975Y17569276D01*
X8540002Y17685001D01*
X8424277Y17779974D01*
X8292248Y17850546D01*
X8148987Y17894003D01*
X8037334Y17905000D01*
X8000001Y17908677D01*
X7962668Y17905000D01*
X7380413Y17905000D01*
X7345226Y18081898D01*
X7267205Y18270256D01*
X7153937Y18439774D01*
X7009774Y18583937D01*
X6840256Y18697205D01*
X6651898Y18775226D01*
X6451939Y18815000D01*
X6248061Y18815000D01*
X6048102Y18775226D01*
X5859744Y18697205D01*
X5690226Y18583937D01*
X5546063Y18439774D01*
X5432795Y18270256D01*
X5354774Y18081898D01*
X5315000Y17881939D01*
X452315Y17881939D01*
X474524Y17935554D01*
X595000Y18541229D01*
X595000Y19158771D01*
X474524Y19764446D01*
X238201Y20334979D01*
X-104886Y20848446D01*
X-541554Y21285114D01*
X-1055021Y21628201D01*
X-1625554Y21864524D01*
X-2231229Y21985000D01*
X-2848771Y21985000D01*
X-3454446Y21864524D01*
X-4024979Y21628201D01*
X-4538446Y21285114D01*
X-4975114Y20848446D01*
X-5318201Y20334979D01*
X-5554524Y19764446D01*
X-5675000Y19158771D01*
X-10340000Y19158771D01*
X-10340000Y24340000D01*
X71340000Y24340000D01*
X71340001Y-12340000D01*
G37*
%TD.AperFunction*%
%TD*%
M02*
